<?xml version="1.0" encoding="UTF-8"?>
<svg id="Camada_1" data-name="Camada 1" xmlns="http://www.w3.org/2000/svg" viewBox="0 0 1024 768">
  <defs>
    <style>
      .cls-1 {
        fill: #413253;
      }
    </style>
  </defs>
  <path class="cls-1" d="M281.32,133.22c-18.13,20.42-30.64,45.93-21.24,73.67,3.16,9.34,10.68,23.83,20.71,26.32.15-6.09-5.23-10.77-7.15-16.57-5.61-16.97.03-40.21,8.9-55.27,28.39-48.17,93.06-69.12,146.62-66.31s103.51,27.14,157.61,29.54c40.84,1.81,74.3-2.19,109.93-23.37,7.15-4.25,13.3-10.39,21.56-12.78,1.25,4.21.13,2.5-.78,3.81-7.36,10.65-24.93,22.53-36.71,28.27-58.12,28.29-120.4,18.25-180.46,4.54-23.51-5.36-46.05-12.17-70.31-13.32-49.42-2.34-115.49,17.77-137.52,66-7.33,16.05-8.02,34.44,3.24,48.98,2.65,3.42,4.24,5.18,8.77,4.88,10.4-.68,25.69-7.49,35.98-10.69,2.04-.63,14.97-1.91,10.26-5.79-1.08-.89-7.36-1.88-9.78-2.92-.56-.24-.75-1.1-1.34-1.42-2.42-1.33-7.71-2.12-6.48-6,1.13-3.56,12.24-1.41,15.95-1.71,48.35-3.85,97.45-18.66,146.02-24.55,54.37-6.59,116.66-12.46,171.17-4.65,5.85.84,26.85,2.32,30.24,5.87,1.3,1.36,1.15,4.57,2.97,5.09,2.25.64,6.13-1.79,9.44-1.44,16.33,1.75,50.79,19.57,64.95,28.95,11,7.29,29.64,24.48,37.52,35.04,3.83,5.14-.51,8.51,1.34,11.57,1.9,1.87,4.82,1.51,7.02,2.46,2.57,1.12,6,9.99,7.56,12.71,18.66,32.66,27.96,62.03,29.46,100,.16,4,2.02,6.65,0,11.67-1.57,3.9-6.66,3.83-7.42,7.08-1.2,5.12,4.32,4.72,4.81,6.56.42,1.53-.56,14.34-.82,16.72-3.03,27.91-14.49,59.41-27.73,84.05-2.55,4.75-10.89,19.99-14.62,22.37-1.39.89-5.07,1.82-5.53,2.51-.68,1.03-.89,6.9-1.93,9.33-.71,1.65-2.23,3.24-3.3,4.74-23.11,32.32-76.43,72.01-113.95,85.49-2.42.87-6.29,2.68-8.66,2.68-3.69,0-6.51-3.21-10.25-2.34-14.43,9.55-30.47,16.42-47.08,21.33-5.95,1.76-17.35,5.07-23.14,5.77-9.48,1.14-10.61-1.79-20.18,3.18-46.42,24.13-89.59,33.66-142.21,28.26-2.76-.28-6.51-.9-7.33-3.99-.51-1.94,6.04-11.86,7.74-14.07,6.32-8.26,18.7-21.17,26.51-28.18,3.53-3.16,8.34-4.99,10.46-9.23-2.05-.97-4.77-.42-6.64-1.01-21.26-6.7-54.25-32.34-64.94-51.67-6.07-10.97,1.53-12.92,11.15-15.24,52.31-12.59,102.54-4.03,152.3,15.04,2.97,1.14,10.84,5.83,12.43,6.09,2.29.38,11.25-3.25,13.67-4.52,34.62-18.18,80.49-64.14,95.86-100.36.62-1.46,1.14-2.69.88-4.34-6.29.96-12.25.78-18.34,2.97-7.85,2.82-15.67,9.84-20.44,16.55-1.35,1.9-6.1,11.6-6.75,11.79-2.26.66-3.31-1.67-3.55-3.53-1.46-11.11,2.83-21.27,9.71-29.77,10.47-12.93,20.98-16.47,36.79-19.5,1.53-.29,9.37-.74,9.76-1.1l3.29-16c-.88-.63-9.08,1.49-10.88,2-7.9,2.24-19.75,5.06-26.83,8.93-11.81,6.47-22.78,21.21-28.33,33.18l-4.38-.65c-2.84-3.98,4.05-22.88,6.47-27.41,11.27-21.07,33.98-28.38,54.09-37.59,2.05-.94,8.08-2.22,8.31-4.61.26-2.71-2.37-4.21-3.44-6.26-1.15-2.2-4.76-12.65-7.78-10.93-.29.17-1.75,4.18-2.51,5.16-11.8,15.24-33.6,18.54-45.81,33.77-3,3.75-4.56,10.53-9.67,10.03-.33-4.43.48-8.86,1.81-13.07,5.52-17.45,11.67-18.69,24.12-28.78,8.1-6.56,17.56-16.65,18.66-27.31-4.44-2.55-6.82-8.81-12.41-8.85-.05,1.43.16,2.91-.09,4.34-4.53,25.57-36.88,36.96-45.35,64.02-.88,2.83-1.97,18.48-6.64,13.47-.75-.8-2.45-9.73-2.59-11.47-2.92-34.58,33.77-47.79,32.2-73.19-.2-3.16-.83-4.91-4.02-5.97-5.43,7.24-9.77,15.61-15.72,22.49-9.94,11.5-17.1,13.56-24.16,28.92-4.81,10.46-7.79,20-6.8,31.78.23,2.79,2.42,8.96,2.34,10.48-.21,3.97-2.97,4.29-5.57,1.59-12.72-13.19-8.94-45.75-.29-60.61,2.07-3.56,20.93-27.85,18.79-29.86l-28.85,1.7c-1.83,8.7-9.45,14.4-14.56,21.23-10.4,13.91-19.99,28.63-30.94,42.24-1.27,3.13.19,7.79.91,11.09,2.46,11.31,6.84,22.66,9.12,34.1,9.47,11.16,16.99,23.09,28.55,32.77,1.78,1.49,12.83,6.79,7.61,9.26-2.78,1.32-8.58-1.06-11.43-2.22-12.22-4.97-30.02-20.61-37.94-31.22-3.44-4.6-8.47-21.08-10.35-27.45-2.16-7.31-7.47-25.12-4.79-31.79,2.11-5.25,14.62-20.81,18.72-26.93,5.12-7.65,14.05-18.59,17.43-26.98.66-1.63,1.79-2.94-.22-4.18-2.41-.62-7.46,4.36-9.09,6.14-9.02,9.85-18.11,25.08-26.68,36.05-8.12,10.4-22.38,23.86-28.43,35.1-3.04,5.66-1.87,11.6-1.2,17.9.77,7.21,2,16.17,3.22,23.32,1.92,11.3,12.79,25.69,20.9,33.79,1.6,1.59,10.38,7.7,10.79,8.52,3.86,7.71-10.95,1.01-13.45-.22-10.33-5.08-28.56-21.08-32.42-31.92-3.18-8.94-8.57-39.47-8.27-48.68.22-6.66,11.46-20.08,15.95-25.7,7.95-9.95,16.48-19.57,24.5-29.38,2.22-2.72,8.93-6.52,6.45-9.64-8.26,5.57-16.01,11.93-24.14,17.67-1.3.92-2.94,1.25-4.22,2.17-14.95,10.67-29.01,22.79-45.44,31.59-3.96,3.88-3.87,15.01-4.79,20.36-1.27,7.37-3.39,15.16-3.82,22.71-.63,10.9,9.42,35.32,15.13,45.16,1.55,2.66,7.14,7.6,5.42,9.97-2.4,3.31-5.12-1.18-6.22-1.97-17.64-12.73-30.74-36.81-29.61-60.4.47-9.79,3.32-27.98,6.02-37.41,3-10.5,10.08-12.85,18.06-18.95,9.06-6.93,18.47-13.83,27.91-20.32,10.18-6.99,21.45-12.3,30.02-21.45.34-1.69-.8-1.31-2-1.2-6.46.58-18.45,8.29-25.35,10.85-21.32,7.89-43.77,13.81-64.96,21.89-3.36,1.28-9.27,2.24-12.27,4.83-2.02,1.75-8.53,13.65-10.27,16.85-4.41,8.13-9.17,16.2-9.83,25.56-.98,14.05,2.44,32.74,5.85,46.49.67,2.69,2.94,4.94,3.07,8.26.25,6.73-4.57,2.29-6.75-.65-10.38-14.01-16.89-37.68-17.47-54.87-.46-13.66,9.35-32.36,16.6-43.77,2.17-3.41,7.93-12.21,10.6-14.55,3.55-3.12,16.7-7.42,21.93-9.21s40.96-11.44,42.24-13.24c1.7-2.4-1.85-4.06-4.05-4.09-15.85-.18-39.34,6.66-55.74,9.43-18.39,3.11-21.54.97-37.1,13.57-6.46,5.23-13.07,12.69-18.19,18.8-12.77,15.23-25.62,32.98-28.1,53.09l-3.62,1.63c-1.25-4.92-1.36-9.8-.8-14.87,2.74-24.93,18.48-47.47,34.96-65.56,18.98-20.82,25.78-19.78,51.91-26.09,1.61-.39,13.21-3.13,13.59-3.72.21-.33.16-1.76-.11-2.22-.52-.91-14.22-6.08-16.47-7.22-9.54-4.87-19.03-11.95-29.03-16.01-21.31-8.64-62.14,1.14-83.01,9.83-18.83,7.84-40.92,22.84-53.41,39.07-6.63,8.62-10.58,18.88-16.2,28.03-1.47,2.39-5.16,7-5.14,1.37.03-7.72,7.4-23.54,11.52-30.37,24.79-41.13,67-56.15,112-64.93,1.29-.25,3.07.63,2.69-1.31-1.59-1.12-4.39-2.15-6.25-2.6-42.29-10.43-84.8-11.56-126.41-27.99-1.62-.64-10.66-4.17-11.08-4.59-.76-.75-1.3-2.81-.66-3.87.35-.49,9.9-1.55,11.25-1.5,8.56.3,19.09,2.56,28.21,3.19,31.4,2.15,63.1,3.42,94.8-.95,7.07-.98,15.16-2.37,21.83-4.67,3.55,7.78,6.09,15.83,11.65,22.46h-34.58c-.26,1.29.33,1.7,1.3,2.32.91.59,13.13,3.42,15.4,3.9,14.31,3.04,43.9,9.16,57.44,7.29,25.49-3.52,43.89-30.09,37.08-55.16-.7-2.58-6.34-12.56-5.07-13.83,11.28-.02,22.18-3.55,33.22-5.5,10.83,9.74,20.44,20.63,29.74,31.8,1.16.92,3.44,1.33,4.84,1.05.61-.12.62-1.27,1.15-1.59,7.64-4.57,13.46-11.22,21.18-15.83.61-3.71-15.5-17.81-14.54-23.61l36.41-4.7c2.2.62,15.78,19.45,17.6,22.66,15.77,27.86,9.84,64.9-13.36,86.62-1.83,1.72-5.32,5.16-7.44,2.92l-33.99-37.14c0-.98,1.21-2.53,1.87-3.33,6.02-7.34,19.98-20.05,27.44-26.84,2.95-2.69,14.21-10.21,15.33-12.87,1.97-4.68-10.78-16.35-12.64-20.78l-8.71,1.51c.64,4.54,11.4,13.9,8.79,17.96l-40.73,35.78-3.39-1.13c-2.79-3.75-5.79-7.53-8.94-10.97-6.81-7.44-17.61-20.98-24.88-26.78-1.88-1.5-8.9-5.23-9.66-1.59-.39,1.89,14.22,15.39,14.49,20.16.25,4.39-14.66,11.14-13.55,17.41,1.69,4.78,23.84,25.67,23.63,28.02-.27,3.08-3.63,4.27-5.65,6.15-2.87.09-12.28-12.05-14.98-14.58-1.95-1.83-10.31-9.46-12.61-8.35-.24.11-2.82,3.02-2.51,4.14.19.72,9.24,8.45,10.8,10.15,3.05,3.32,5.64,7.54,8.45,10.85,3,3.54,7.04,6.49,8.85,10.87,1.38.97,20.51-15.31,23.3-17.29l-28.19-30.63c-.21-3.03,6.54-8.76,9.31-9.78l61.55,65.39-.42,1.98c-.26.52-.83.82-1.26,1.17-5.91,4.84-24.06,9.6-31.78,9.98-2.62.13-5.32.29-7.93.04-1.89-.18-3.88-1.75-5.67-1.56-2.64.28-1.27,2.98-4.44-.38,4.2-2.16,11.67-11.62,15.32-12.87,2.72-.93,5.05,2.06,6.9,3.5l8.33-3.11c-3.14-3.77-9.11-13.33-14.55-12.45l-35.3,28.54c7.32,2.45,14.46,5.28,22.21,6.34,64.37,8.84,114.56-58.14,86.78-117.34-2.5-5.32-18.24-30.65-22.7-31.98-3.82-1.13-11.73,1.11-15.93,1.43-30.7,2.37-57.21,9.73-87.06,15.07-8.77,1.57-23.4,1.76-30.85,3.9-1.68.48-1.48,1.69-1.64,1.75-.6.24-2.08-1.34-3.05.6,9.98,10.2,19.43,20.25,15.69,35.82-10.23,42.6-70.91,33.38-67.18-9.67-.85-.86-20.31,5.41-23.31,6.02-38.93,7.93-93.17,7.88-125.84-18.12-1.48-1.18-7.86-6.98-6.06-8.82,3.45-.57,5.93.6,9,1.69,1.12.4,2.61,1.19,4.69,1.89,19.19,6.42,37.93,12.17,58.69,10.89,1.66-1.73-4.67-7.12-5.96-8.91-7.97-11.1-11.89-33.41-10.83-46.87,4.94-62.26,70.6-101.17,124.38-117.68,44.56-13.69,92.73-9.91,138.08-4.24,35.59,4.45,81.64,16.19,116.57,7.18,7.41-1.91,15.16-6.43,22.57-7.59,1.25-.19,1.98-.48,2.81.82.34,2.29-4.41,5.43-6.17,6.68-45.18,31.89-135.89,6.24-188.81,4.93-59.49-1.48-128.23,15.98-168.79,61.68ZM645.78,191.51c-1.76-2.75-16.27-1.52-19.62-1.68-20.69-.97-38.83-.71-59.47.77-2.05.15-13.67,1.03-14.08,1.61.98,4.69,4.73,7.95,7.08,11.8,5.99,9.79,11.22,20.84,14.89,31.75.88,2.62-.38,5.85,2.91,6.73l46.69-.44c.27-5.17-.05-17.49,2.01-21.71,1.26-2.58,7.63-1.93,9.85-.61,1.15,1.31-.22,21.1-.62,24.32-.22,1.78-1.43,9.87-2.35,10.53-15.63.94-34.17-3.12-49.53-1.29-1.81.21-4.32,1.16-5.26,2.78-1.88,3.23-.89,17.06-1.6,21.72-1.44,9.45-5.81,24.73-10.27,33.15-3.52,6.64-9.05,12.3-12.2,18.76,3.71.31,6.59,2.84,10.02,4.06,20.59,7.33,50.05,6.73,70.38-1.26,3.81-1.5,6.77-1.96,7.27-6.4,1.18-10.6.39-16.83-.05-27.32-.24-5.87.99-14.91.03-20.14-.41-2.25-2.44-2.59-4.4-2.83-8.64-1.05-24.49-1.57-33.03-.82-1.6.14-3.06.17-4.4,1.22l-.7.96c1.14,3.03-.31,4.37-.66,6.49-1.5,9.07-3.55,16.05-6.62,24.76-.8,2.28-4.32,4.79-1.1,6.66.63.36,8.1,2.14,9.32,2.29,4.36.56,18.14.75,21.49-1.75,3.67-2.74,1.85-13.69,2.33-18-2.7-.87-5.22-1.12-7.63.7l.27,2.31-1.4.51c3.05,2.38,1.17,5.44-.14,8.31l-13.54-.67,6.76-23.4,23.24-1.36c1.32.44,1.9,1.35,2.15,2.67.83,4.46.45,17.21.38,22.49-.05,3.33.2,12.59-1.98,14.45-1.1.94-13.5,3.82-15.88,4.22-4.55.77-11.14,1.05-15.83,1.06s-28.45-.63-29.33-4.54c5.94-10.14,11.98-22.18,14.34-33.77,1.01-4.94,1.42-24.4,4.35-26.63,9.24-.84,18.99-.16,28.32-.29,2.32-.03,4.94-.68,7.24-.72,3.38-.06,14.49,1.7,16.05-.85l2.82-50.64c-8.53-.82-17.16-2.35-25.76-1.25-2.49,1.67-2.48,12.4-3.18,15.19-.17.69-1.76.46-1.61.91,2,1.28,1.61,6.02-.51,6.75-6.06,2.09-20.89-2.35-28.04-.7l-2.19-1.83c-2.98-10.18-6.34-20.07-11.9-29.1-.04-1.06,18.84-3.42,20.93-2.44,2.45,1.33.75,3.27.95,5.38.48,5.22,1.41,10.66,2.35,15.84l6.4-.27c2.89-3.53,1.41-19.31,3.94-20.99,6.13-2.43,34.32,2.49,38.29-.31,1.52-1.07,2.76-5.75,1.84-7.19ZM653.14,286.29c1.2-.2,1.55-1.47,2-2.41,5.28-11,6.96-28.71,8.82-41.02,2.51-16.64,3.87-33.58,6.75-50.2-.61-2.48-9.05-2.14-11.15-2.07l-5.35,45.56c0,12.59-1.43,25.63-1.04,38.45.12,3.89-.16,7.81-.02,11.69ZM735.41,261.12l-.67-2.19c6.41-9.1,7.65-6.63,15.28-.77,4.79,3.68,12.59,14.64,18.15,9.27l15.69-17.34c1.09-2.2-4.19-6.64-5.7-8-14.97-13.52-40.18-28.17-58.92-35.17-5.01-1.87-18.65-6.69-23.27-7.31-1.55-.21-3.41.51-4.67,1.42-1.77,18.03-6.63,35.71-11.05,53.28-6.2,24.62-11.7,44.11-22.95,67.12-1.68,3.43-3.94,3.95-3.42,8.73.47,4.22,6.05,6.31,8.94,8.78,4.44,3.82,8.83,8.6,14.25,11.48,5.36,2.86,6.64,3.72,11.46-.19,12.63-10.23,26.28-24.57,37.4-36.59,10.21-11.03,19.65-22.77,29.26-34.35l-1.07-2.71-18.7-15.46ZM390.16,243.67c-3.09-17.59-26.38-18.55-32.33-2.17-2.64,7.26-.63,20.67,9.01,20.67-2.07-5.49-4.46-9.57-2.39-15.65s10.88-9.64,16.73-7.92c3.75,1.1,5.27,4.94,8.98,5.08ZM537.14,247.88c-1.63-1.79-4.11.72-5.45,1.81-8.3,6.79-16.3,19.39-24.05,25.8-1,.83-1.98,1.19-3.27,1.15l19.69,23.89c1.45.21,7.84-9.12,8.87-11.02,2.09-3.84,3.91-8.45,3.6-12.88-1.51-1.57-10.99,8.11-12.46,9.63-2.85-1.65-2.86-5.85-6-6.46l-.02-1.14c3.59-3.6,6.72-7.81,10.39-11.31,1.74-1.66,8.62-6.15,9.29-7.62.86-1.89.79-10.36-.58-11.86ZM834.69,374.56c3-2.96-.64-20.34-1.66-24.91-5.19-23.42-15.77-49.7-27.47-70.64-1.02-1.83-7.98-12.82-8.88-12.81l-96.92,93.66c1.31,2.12,2.83,7.22,5.86,6.74,4.88-.77,20.23-17.86,23.17-17.23.73.28,1.37.71,1.95,1.24,1.33,1.19,18.09,24.3,18.92,26.11,1.09,2.37,1.53,4.24.68,6.78l-9.53,1.33-11.25-16.95c-3.27-3.17-9.48,3.96-12.63,5.94-2.16,1.36-11.65,5.16-11.42,7.63,2.14,3.09,3.08,7.39,7.36,5.17,1.19-.61,1.27-1.81,1.98-2.23,1.53-.89,9.94-5.06,10.93-4.75,6.57,4.71.84,7.85,3.36,12.84,5.48,1.47,10.27,1.55,15.86.56,12.23-2.17,24.31-6.82,36.58-9.26,12.65-2.52,25.75-4.22,38.51-6.52,2.55-.46,13.11-1.25,14.59-2.7ZM420.26,302.04c-2.83-2.81-7.15-9.51-11.79-8.34-1.25.32-6.34,4.13-5.43,5.44,2.04-.12,10.37,8.17,9.64,8.85-4.16.06-8.58,5.24-12.54,5.63-4.96.49-9.59-5.18-13.18-1.19l4.25,4.18c4.17.44,8.48,5.58,12.21,5.94,4.51.43,9.44-6.05,13.25-8.5,5.25.25,8.35,5.1,11.21,8.84,0,1.24-8.43,5.14-7.15,6.82,7.71,3.98,10.44,1.22,16.23-4.08.52-.47,2.47-1.84,2.18-2.63-5.22-7.9-12.22-14.36-18.88-20.96ZM833.27,399.68c-.37-.39-9.22.69-10.74.92-16.44,2.46-32.9,6.21-49.46,8.28-5.5.69-16.45-1.79-17.81,4.47,5.44.53,8.56,4.95,14.53,4.37,1.44.98.24,4.88,1.16,6.88.59,1.29,4.7,4.51,6.34,4.07,1.13-.31,3.49-11.11,2.99-12.83l44.15-6.51-2.13,12.94c-1.88,2.11-14.48,1.97-18.27,2.44-2.15.27-10.45,1.37-11.55,2.53-.66.7-6.03,16.15-5.89,17.04.25,1.62,6.66,5.79,8.4,5.2l6.12-15.63c4.85-1.14,9.97-1.47,14.91-1.78,12.25-.77,14.5,3.92,16.45-11.09.27-2.06-.18-4.3.02-6.41.48-5.01,1.85-9.6.79-14.89ZM747.7,420.92c-6.66-4.13-12.17-5.95-20.12-4.29-7.4,1.54-8.72,14.51-10.68,20.67-.97,3.06-3.01,5.73-3.43,8.98,1.53.31,2.97.93,4.28,1.79,9.21,6.02,18.14,12.57,27.15,18.68,17.81,12.06,35.82,24.14,54.28,35.07,3.53.61,7.68-5.64,5.16-8.46-.93-1.04-11.74-6.13-14.1-7.6l-42.65-28.97c-.81-1.92,11.64-10.34,13.86-11.93,1.97-1.41,6.31-2.29,6.58-5.51.07-.84-5.6-7.26-6.71-8.27-3.14-2.87-9.99-7.9-13.61-10.15ZM807.53,471.26l-32.72-23.24c-6.88,2.68-9.3,6.04-2.24,11.16l36.98,25.74c2.06-.03,12.89-25.63,14.1-29.31.47-1.44,2.38-7.23,2.34-8.1-.19-4.81-12.96-2.97-15.65-1.99l-2,7.24c1.08.79,6.7-1.43,6.4,1.16-.49,4.21-2.71,7.17-4.54,10.72-.4.78-1.51.81-1.8,1.61-.46,1.24-.18,3.53-.87,5.01ZM705.81,513.07c4.63-.55,10.14.4,14.88,0,.72,5.11-1.01,10.1-1.31,15.01-.36,5.87,3.03,10.95-3.46,14.39-5.14,2.72-12.22,5.95-16.87,9.67-1.19.95-2.23,2.04-3.27,3.15,1.73,1.23,7.43,6.31,6.07,8.45l-9.71,7.05c-1.01-.07-11.8-12.6-11.6-13.77,6.32-6.28,12.33-14.66,19.23-20.23,2.24-1.8,9.21-4.89,9.73-5.54,4.96-6.28-8.04-4.41-11.33-3.29-6.67,2.28-8.23,7.23-12.46,11.67-5.88,6.19-12.08,12.08-17.74,18.47-1.11,2.4,10.99,12.67,13.02,14.77,6.66,6.91,5.29,12.87,16.64,6.02,2.31-1.4,15.68-11.54,16.7-13.13.26-.41.71-.65.39-1.25l-5.24-9.22,3.97-4.41,1.19,1.6c2.47-1.01,4.92-4.41,5.78-4.68,5.62-1.78,11.12,4.09,15.73,6.32,2.87,2.22,10.38,9.35,13.39,10.04s15.68-11.35,18.2-14.04c4.22-4.49,10.68-12.11,14.38-17,1.02-1.35,6.86-10.09,6.8-10.81l-44.51-32.55c-.9.56-.96,1.14-1.18,2.06-1.23,5.23-1.95,13.71-2.44,19.26-.39,4.43-1.72,18.05-.06,20.96,1.04,1.82,2.71,1.21,3.06,1.46,2.94,2.16,5.98,6.05,9.93,6.56,1.99-.43,9.43-9.52,10.03-11.69,1.11-4.04-3.17-7.51-5.21-4.36-.98,1.52-2.32,9.06-5.71,7.93-9.18-3.05-1.16-19.87-2.4-26.9.92-.15,1.56.03,2.39.42,1.74.81,19.45,14.99,21.92,17.26.76.69,2.18,2.55,2.09,3.51-5.15,9.89-14.76,17.17-22.14,25.49-3.78,2.27-8.13-1.62-11.43-3.72-2.75-1.75-14.09-9.51-14.55-12.03,1.16-6.13.42-12.32.81-18.45.7-11,4.13-22.64.53-33.52-2.33-7.05-10.92-15.68-18.7-13.59-1.28,3.57-12.97,19.05-12.33,21.24,1,3.41,7.13.95,9.58,1.34-3.08-7.81,9.64-16.28,12.67-7.45.52,1.51,1.88,11.1,1.84,12.72-.05,2.35-2.43,4.49-4.63,5.01-16.5,3.89-23.37-1.3-37.67,13-9.73,9.73-19.38,22.33-28.79,32.73-1.44,1.59-4.07,3.04-5.76,5.1-5.78,7.01-3.67,8.31,1.61,14.5s11.71,11.26,17.02,17.16c5.47,6.08,10.95,15.2,16.73,20.66.77.73,1.28,1.51,2.49,1.62,1.14.1,13.02-6.28,15.08-7.43,10.46-5.88,20.17-13.36,30.72-19.14,4.22-7.5,6.77-17.1-4.37-19.26.2,1.68-2.1,1.89-2.39,2.88-.63,2.16,2.8,7.71-.93,11.12-1.02.93-5.53,4.18-6.93,5.14-5.2,3.53-15.07,9.64-20.46,12.51-.9.48-7.73,3.01-8.35,2.95l-1.6-.86c-6.17-7.58-12.52-15.1-19.19-22.22-2.35-2.5-12.95-10.69-12.23-14.02.21-.96,2.45-3.78,3.25-4.77,6.93-8.58,29.29-34.39,38.02-38.37,2.34-1.07,8.65-3.15,11.04-3.43ZM558.23,596.71c-.33-1.45,1.05-3.65.46-4.82-.29-.57-6.69-5.37-7.77-5.95-1.78-.95-6.59-2.64-8.73-3.34-26.49-8.63-58.68-12.83-86.35-11.32-3.94.21-24.45,1.03-25.39,5.01.87,4.52,4.69,7.18,7.17,10.37,1.6,2.06,3.71,8.89,7.27,6.47,2.43-3.38.55-7.91-.04-11.68,1.47-.4,2.84-.74,4.39-.86,32.2-2.33,58.25,2.93,88.71,11.08,6.73,1.8,13.64,3.05,20.28,5.04ZM644.01,587.34c-2.66-2.69-14.88-14.21-17.76-13.98l-26.63,16.91c-.72.86-.31,1.52.04,2.38,1.08,2.71,14.99,18.72,17.05,19.21,3.07.73,12.1-6.15,14.68-8.41l-4.36-4.83-8.76,3.61c-2.24-1.69-5.98-6.21-5.22-8.97.6-2.19,10.44-8.81,13.31-9.28,3.04-.04,18.46,17.39,21.76,20.35-1.59,4.55-7.25,5.34-10.81,7.5-3.96,2.4-7.76,5.22-11.77,7.53-5.34,3.07-10.88,4.5-15.7,8.81l-.12,3.91c17.96-3.41,33.32-13.98,48.62-23.35.46-.6,1-1.35,1.07-2.1.19-2.16-12.92-16.8-15.39-19.29ZM529.19,601.62c-7.68-1.37-15.2-3.58-22.92-4.82-7.22-1.17-17.75-2.7-24.89-3.2-2.25-.16-15.38-.74-15.69,1.19,1.18,5.92,4.47,14.23,8.55,18.75,1.84,2.04,3.28,3.22,3.57-.33.2-2.53-.43-5.75,0-8.05.67-3.59,4.19-1.25,6.8-1.17,11.62.34,22.95,1.1,34.6.76,3.15-.09,6-1.41,9.65.01l.31-3.13ZM593.35,608.24l-15.6-12.21-1.85.23c-5.8,12.69-7.32,25.38.18,37.69,1.42,2.32,5.61,8.54,8.28,8.22,1.75-.21,11.22-11.91,12.8-14.16,1.48-2.1,6.48-8.79,5.14-11.05-.09-.16-1.95-.99-2.69-1.71-2.19-2.12-4.34-5.19-6.28-7.01ZM558.24,611.98c-21.87,4.99-44.83,10.44-64.88,20.77-2.12,1.09-9.86,4.95-9.93,6.98,2.16,2.58,4.05,1.84,7.29.83,11.57-3.6,23.95-10.06,36.15-13.7,8.52-2.54,18.63-3.74,26.98-6.8,1.44-.53,2.84-1.21,4.26-1.77l.13-6.3ZM561.39,633.78c-.78-.67-7.63,1.21-9.09,1.62-4.79,1.36-10.17,3.8-14.98,5.13-20.81,5.76-44.24,9.45-64.34,17.68-3.77,1.54-6.27,7.37-2.2,8.27,2.29.51,12.37-.95,15.42-1.48,17.4-3.06,38.3-10.23,54.78-16.8,7.22-2.88,14.22-6.43,21.23-9.75l-.82-4.67Z"/>
  <path class="cls-1" d="M477.96,237.89l-21.05-23.97,16.67-3.02c2.26.04,7.44,8.47,9.08,10.64,1.99,2.63,5.47,4.17,5.6,8.16.1,2.86-7.97,9.6-10.31,8.19Z"/>
  <path class="cls-1" d="M720.63,219.65c2,2.76-9.06,10.15-6.19,14.18l9.33,3.29,8.15-12.39c2.5-3.11,7.31,2.61,9.75,3.98,1.6.9,3.53,1.04,5.18,2.06,3.34,2.07,24.06,17.16,23.63,19.62-1.5,1.82-6.05,6.32-8.18,6.03-1.98-.27-13.15-9.26-16.26-11.17-1.52-.93-5.92-3.94-7.26-3.95-4.18-.02-8.97,11.16-12.85,12.85-6.07-3.42-11.85-7.62-18.92-8.88-1.86,9.13-4.77,19.64-8.24,28.36-1.04,2.62-10.26,20.63-9.46,21.49,3.05-.35,4.11,2.26,5.83,3.47,6.54,4.58,13.58,8.45,18.9,14.62l-16.76,19.24c-5.27,1.39-9.3,12.11-14.59,10.79-1.12-.28-14.57-10.64-15.55-11.85-3.52-4.33,4.55-13.01,4.55-18.51,3.89.22,8.29.61,10.83,3.95l-4.06,5.64-1.17-.43c.35,3.26,4.18,4.38,6.11,6.81,2.42.42,12.29-13.27,11.44-16.26-.95-3.37-15.8-7.39-17.66-9.74-2.68-3.39,1.77-8.66,2.88-11.75,4.03-11.25,7.99-23.86,11.27-35.37,4.01-14.08,6.96-28.41,10.47-42.62.63-1.12,1.08-.73,2.03-.48,2.55.67,6.59,3.39,9.2,4.52,1.31.57,7.34,2.12,7.61,2.49Z"/>
  <path class="cls-1" d="M717.16,301.89c-3.1-2.29-7.06-3.87-9.87-6.22-.57-.48-5.1-5.37-5.14-5.76l11.39-28.86,1.86-1.28c3.44-.11,27.83,17.75,27.6,20.5-1.47,2.14-3.85,3.6-5.42,5.64-3.84,4.98-9.63,14.06-14.08,18.09-3.44,3.11-4.15-.48-6.35-2.11ZM727.77,280.78c-7.47-4.81-9.32-9.84-14.06,1.09-.12,1.96,5.33,6.32,7.39,6.84.86,0,6.34-5.29,6.61-5.81.33-.64.44-1.52.06-2.12Z"/>
  <path class="cls-1" d="M791.46,340.97c-.57-6.52-3.81-6.64-7-9.89-.7-.71-.73-2.15-1.49-2.92-2.25-2.28-5.75-5.18-8.14-7.15l-23.54,22.08,14.49,21.15,15.21-3.17c-.58-4.19-3.81-5.96-6.68-8.03-.79-.57-.5-1.56-.57-1.61-.28-.18-4.15,3.1-6.3,1.47-.17-2.87-3.68-6.05-4.02-8.51-.48-3.38,8.95-8.36,9.55-12.26,1.34-.37,1.28.33,1.89.89,5.92,5.44,13.38,15.24,18.46,21.81,1.66,2.15,1.89,6.39,5.77,6.33,1.62-.03,2.66-1.31,4.1-1.61,7.65-1.64,14.98-.11,9.1-10.49l-9.85,3.21c-1.31-1.69-2.66-1.87-2.15-4.39.76-3.73,12.9-13.71,14.89-18.14l4.45-.45c1.39,6.17,10.08,31.24,6.84,35.87l-31.66,7.01-31.16,5.84c-1.34.19-1.91-.43-2.8-1.22-2.93-2.63-7.06-10.61-9.66-14.27-3.1-4.37-7.04-8.92-9.91-13.6s-5.46-7-1.73-11.97c6.16-8.21,18.37-17.58,25.87-25.2,8.55-8.68,17.2-17.48,25.62-26.25,1.49-1.55,2.32-4.38,4.7-4.77,3.33.57,16.76,29.91,18.21,34.87-.53,3.65-20.98,26.51-22.52,25.38ZM789.36,316.51c.47.45,1.64.53,2.43,1.18,1.24,1.03,1.17,3.67,3.44,2.58,1.37-.66,8.59-10.63,8.25-11.76-2.37-1.87-8.25-7.28-11.22-5.76-.46.24-6.2,7.67-6.31,8.27-.36,1.91,2.08,4.2,3.42,5.49Z"/>
  <path class="cls-1" d="M738.38,424.61c.69,3.42-2.37,9.72,1.6,11.68,4.83,2.38,5.39-5.37,6.02-5.23l10.68,7.6c-.56,3.25-4.04,2.37-6.54,3.74s-7.61,7.64-10.61,7.94c-1.94.19-7.34-3.86-9.14-5.29-1.43-1.14-5.29-4.03-5.32-5.53-.02-.9,3.19-12.38,3.61-12.94,2-2.7,6.73-1.9,9.69-1.97Z"/>
  <path class="cls-1" d="M584.76,630.48l-1.66-.5c-4.36-7.05-5.68-14.64-3.95-22.82,2.57,2.42,11.16,9.71,11.94,12.64s-5.71,7.55-6.33,10.68Z"/>
</svg>