<?xml version="1.0" encoding="UTF-8"?>
<svg id="Camada_1" data-name="Camada 1" xmlns="http://www.w3.org/2000/svg" viewBox="0 0 1024 768">
  <defs>
    <style>
      .cls-1 {
        fill: #413253;
      }
    </style>
  </defs>
  <path class="cls-1" d="M395.35,205.35c-6.65,6.74-7.01,15.36-11.17,23.33-7.73,14.81-17.57,18.62-19.17,38.83-1.05,13.29,4.1,17.62,5.74,28.22.89,5.74-.61,9.17,1.86,15.14,3.47,8.38,10.05,10.75,14.82,17.18,5.35,7.23,7.47,17.36,13.15,24.85,4.3,5.66,11.5,10.78,16.39,16.61,33.93,40.42,42.05,90.07,29.77,140.72-2.38,9.8-12.11,26.02-17.01,35.99-2.75,5.6-27.67,32.98-33.27,37.73-9.39,7.97-37.58,24.09-49.24,26.76-5.36,1.23-12.08,1.38-17.47,2.53-12,2.56-17.69,6.36-31.24,5.73-10.07-.47-15.57.09-25.01.11-9.17.01-46.37-9.06-55.49-12.61-11.64-4.53-16.27-13.53-25.69-19.31-6.03-3.7-13.45-4.41-18.54-9.17-3.65-3.41-6.69-9.95-10.27-14.01-5.07-5.75-12.41-9.99-16.92-16.08-3.98-5.36-4.97-11.51-8.15-16.85-3-5.04-7.54-7.8-10.85-12.15-7.84-10.31-8.9-25.53-12.07-37.93-13.95-54.56-16.57-98.28-9.5-154.47,2.19-17.44,11.44-29.95,13.54-43.46,1.05-6.76.09-14.34,1.89-21.11,1.64-6.15,7.84-12.36,10.03-18.97,1.83-5.52,1.66-11.58,4.03-16.97s7.77-9.47,10.94-14.06c8.69-12.6,9.37-27.7,19.15-39.85,5.27-6.55,12.72-12.23,17.83-19.17,4.6-6.23,7.33-14.5,12.07-19.93,3.26-3.72,7.66-5.71,11.04-8.96,22.36-21.61,47.38-45.22,78.04-54.96,40.18-12.78,92.1-18.32,122.95,15.92,29.06,32.26,24.18,73.05.91,106.94-4.91,7.15-7.81,8.11-13.07,13.43ZM320.62,283.27c1.37,4.3,2.82,19.42,9.83,18.78,8.36-.76,1.7-22.05,1.77-27.8.23-18.41,10.05-43.31,19.36-59.18,13.09-22.32,36.4-40.22,40.4-66.59,3.91-25.83-5.65-45.83-30.3-55.67-29.31-11.7-59.79-3.63-86.35,11.01-4.47,2.46-16.23,9.03-17.67,13.33-7.98,23.92,20.25,54.78,38.41,67.27,5.49,3.78,11.91,5.93,17.39,9.63,3.23-.54,15.9-15.61,17.95-19.15s2.2-6.47,3.72-9.28c4.6-8.53,13.3-14.5,14.78-26.21,3.16-24.87-30.63-24-45.6-14.61s-10.34,21.88,4.38,28.03c6.91-1.43,3.5-10.49,4.77-13.85,3-7.95,26.19-9.27,23.32,4.28-1.16,5.5-16.69,25.15-21.25,29.75-3.55,3.58-5.27,5.14-10.03,1.98-9.02-5.99-28.14-23.99-32.22-33.78-5.42-13.04-.59-17.44,10-24.45,22.67-15.03,72.48-21.55,90.7,2.75,6.99,9.33,6.91,31.72.05,41-2.8,3.78-11.58,5.01-11.08,9.89,7.03,3.56,3.82,13.7-1.6,17.43s-10.23.06-15.34,6.66c-4.59,5.91-4.42,13.87-7.8,20.2-4.66,8.73-14.11,11.81-14.24,23.85-.03,3.08,1.49,5.2.83,8.7-.6,3.15-4.96,8.15-6.5,11.54-5,11-1.51,11.15,1.24,21.21.55,2.01.82,2.46,1.08,3.27ZM280.86,200.87l-.38-3.86c-15.06-19.61-39.62-37.36-40.49-64.02-7.06,3.96-11.56,8.6-14.05,16.46,2.35.85,1.56,2.54,3.2,4.85,8.13,11.47,18.42,22.01,25.38,34.74l-.43,4.33c-18.08,4.5-38.2,5.39-56.09,10.11-6.35,1.68-11.37,2.96-15.43,8.57-1.99,2.74-8.89,14.89-10.05,17.94-.97,2.54-1.95,4.22-1.11,7.02,1.41,4.69,24.23,16.57,29.6,21.46,2.82,2.57,7.98,7.87,6.82,11.79-.96,3.23-23.09,14.85-27.74,18.3-12.21,9.07-22.59,22.19-28.15,36.38l-1.93-.97c1.9,7.03-9.08,6.05-11.5,13.07-1.96,5.69,6.6,13.54,11.62,12.43,6.3-1.4,18.06-29.72,23.89-36.97,26.68-33.16,86.28-48.05,114.42-8.46,20.17,28.38,6.36,78.37-30.9,80.98-4.49.31-20.95-2.14-22.54.72-5.63,10.12,16.4,12.54,22.55,12.27,29.94-1.27,52.23-28.81,54.44-57.55,2.63-34.19-23.04-69.26-57.76-73.21-6.63-.75-22.14,1.17-26.77-2.23-7.71-5.68-14.19-41.39-18.37-51.47l71.77-12.7ZM205.41,173.41c-2.38,3.2-4.56,6.64-6.27,10.27l1.49,2.25c4.95-1.3,23.63,0,25.24-5.64,1.34-4.69-8.41-11.91-9.97-16.25-1.9-1.33-9.14,7.53-10.5,9.36ZM290.03,256.93c3.99,1.34,4.58,3.03,7.83-.58,4.06-4.5,12.03-27.02,9.62-32.34-.99-2.2-8.67-6.37-10.38-4.9l-1.99,5.5-5.09,32.31ZM273.75,250.73c2.75-2.58,3.94-20.06,3.04-24.02-1.08-4.75-8.81-8.11-12.38-3.8-2.99,3.6-3.09,21.83-1.4,26.35.88,2.35,8.39,3.67,10.74,1.47ZM236.72,226.17c-6.03,1.74-.44,17.47,3.59,19.12,9.43,3.85,7.56-22.33-3.59-19.12ZM152.01,290c7.35-5.97,15.09-12.01,22-18.49,1.25-1.17,5.76-4.66,4.52-6.54-1.58-2.42-11.49-3.85-14.04-7.06-4.67-1.97-5.93,4.8-6.99,8.1-2.42,7.48-4.29,16.2-5.5,23.99ZM240.24,360.76c.3.34,7.33,3.02,8.32,3.18,23.13,3.63,30.13-24.81,18.44-40.43-15.31-20.45-48.49-16.87-66.01-1.01-25.18,22.8-26.66,58.91-6.41,85.43,24.07,31.52,78.46,36.93,110.35,14.52,8.45-5.94,12.02-15.33,23.56-14.42,15.51,1.22,28.47,16.02,40.04,24.96,1.3,1.01,7.25,5.89,8.45,5.02,4.32-6.97-1.07-14.34-6.65-18.83-2.1-1.69-8.63-4.72-8.93-5.14-.64-.9.63-2.51.42-2.88-.77-1.38-11.85-8.33-14.14-9.33-5.14-2.23-20.09-7.2-25.28-7.76-7.49-.81-12.65,7.07-18.51,11.33-25.67,18.61-62.77,24.57-88.42,2.64-22.17-18.96-30.1-57.53-2.97-76.03,13.36-9.11,42.04-8.54,44.41,10.59,1.61,13.02-9.06,8.15-17.49,11.35-.83,1.18.04,5.94.82,6.82ZM391.42,390.59c-10.96-14.05-24.32-26.28-35.39-40.11-3.94-4.93-14.67-23.83-18.75-25.26-1.09-.38-3.66-.81-4.41.4-1.19,14.51-4.97,29.1-4.65,43.66,2.79,10.55,7.39,6.66,15.26,7.74,21.49,2.94,41.47,23.14,51.31,41.69,26.73,50.37-5.42,116.7-54.56,139.03-47.9,21.76-86.42,17.13-128.15-14.32-4.49-3.38-16.68-12.75-17.05-18.04-.47-6.69,13.79-28.1,17.78-35.06,5.77-10.08,7.81-23.47,16.37-5,10.07,21.74,15.41,46.15,30.4,65.6,4.68,6.07,8.69,8.99,15.05,2.73,11.78-11.59,21.35-45.08,25.08-61.42,1.12-4.92,2.75-24.99,6.27-26.77,2.27-1.15,4.03-.15,5.96,1.09,9.47,6.09,30.96,34.92,35.58,45.4,1.11,2.52,2.28,4.16.95,7.02-1.97,4.25-19.89,14.95-24.82,17.2s-17.65,3.72-16.71,10.26c.86,5.97,7.07,4.57,11.02,3.05,9.4-3.61,38.46-20.57,43.96-28.28,4.97-6.98,3.54-10.27-.54-17.13-9.72-16.31-29.59-40.65-46.11-49.89-6.68-3.74-21.44-12.36-24.86-1.26-2.67,22.46-7.4,44.62-13.72,66.28-1.05,3.59-4.54,19.14-9.23,18.71l-37.59-80.31c-1.88-1.44-3.63-3.15-6.16-2.46-5.47,1.48-20.07,24.69-23.54,30.55s-9.5,20.64-12.74,24.25c-.84.94-1.87,1.57-3.11,1.84-1.01.1-1.9-.33-2.71-.87-2.17-1.45-12.92-23.41-14.65-27.39-5.84-13.42-10.45-27.77-13.6-42.06.99-6.13,24.21,1.87,22.22-12.47-1.46-10.49-10.7-3.52-16.65-5.43-8.59-2.75-11.39-17.27-9.57-24.9s10.42-12.42,3.69-20.22c-1.91-2.22-13.58-11.96-15.97-10.35-2.48,20.55-.77,42.68,2.06,63.27,8.23,59.91,37.45,113.6,93.87,140.13,114.13,53.65,239.17-77.31,158.4-180.9ZM379.68,477.69c5.29-5.78-.17-11.17-4.17-15.7-6.76-7.65-33.53-27.54-43.09-28.94-5.36-.78-10.08,2.07-6,7.03,2.08,2.53,10.13,6,13.49,8.5,8.69,6.48,17.9,15.07,25.04,23.19,3.41,3.88,7.6,13.69,14.72,5.91ZM196.68,449.31c-7.08-9.52-19.44,8.36-15.16,18.67,1.38,3.31,3.55,3.47,6,1.04,2.18-2.17,10.12-13.88,10.19-16.34.02-.8-.54-2.7-1.03-3.37ZM266.89,486.92c3.5-2.49,7.81-33.19-7.18-28.74-5.11,1.52-1.69,18.81-.42,23.03.87,2.87,4.45,7.95,7.6,5.71ZM323.68,520.68c.33-.45,2.05-4.87,2.14-5.46.62-3.89-6.58-17.97-12.16-17.14-3.34.95-4.98,17.99-3.44,21.15,2.71,5.54,9.85,6.35,13.46,1.44ZM227.76,528.76c2.7-2.71-.3-13.45-3.28-13.82-2.55-.32-6.63,2.01-7.74,4.31-2.94,6.1,6.64,13.93,11.03,9.52Z"/>
  <path class="cls-1" d="M847.64,208.36c8.93,8.83,9.22,21.47,15.34,28.88,5.81,7.03,16.62,9.42,20.24,19.04,3.78,10.04-.33,17.55,1.04,26.96.85,5.83,5.52,11.42,7.45,17.55,3.2,10.14,5.73,22.23,8.32,32.67-.66,12.39-11.21,20.48-9.93,32.94.31,3.02,1.89,5.82,1.97,9.11.22,9.33-7.02,14.81-10.47,22.6-1.55,3.49-6.11,14.81-6.92,18.08-1.54,6.17.04,12.26-.77,18.23-1.41,10.31-11.64,16.02-16.45,24.55-7.3,12.97-5.32,26.56-17.46,37.54-3.86,3.49-9.56,5.81-13.01,9.99-5.66,6.85-5.86,15.11-13.99,22.01-6.7,5.69-14.88,6.27-21.49,11.51-7.39,5.87-9.23,14.53-18.22,19.78-9.87,5.76-19.5,5.38-28.54,9.46-8.76,3.96-15.76,13.6-26.26,14.74-4.75.51-9.89-.52-14.76.24-11.23,1.75-17.54,8.29-31.25,6.77-5.39-.6-10.97-4.26-16.08-4.92-10.64-1.39-21.46-.16-32.41-3.59-6.19-1.94-10.47-7.05-16.72-9.28-5.61-2-12.73-2.34-18.18-4.82-4.59-2.09-9.44-7.02-14.42-9.58-10.75-5.53-19.75-5.91-29.33-15.17-12.42-12.02-9.51-14.66-27.03-24.47-12.38-6.94-8.07-18.44-15.48-27.52-2.91-3.56-7.34-5.04-10.49-8.01-8.95-8.41-8.3-21.53-14.32-32.18-2.83-5.01-8.53-10.08-10.51-15.49-2.99-8.18-1.44-17.37-3.59-25.41-1.69-6.33-7.62-11.89-8.7-18.3-1.25-7.38.66-16.26-.32-23.68-.7-5.26-4.32-12.16-5.44-17.55-2.05-9.88.97-17.89.57-27.58-.37-8.79-3.55-18.92-3.04-27.94.56-9.98,4.82-17.34,6.73-26.3s.87-18.8,3.11-26.89,11.56-13.86,15.98-21.02c3.72-6.04,5.67-12.67,10.36-18.64,6.15-7.83,13.8-11.06,20.84-17.16,5.31-4.6,9.79-12.28,15.05-15.95,28.69-20.02,78.72-33.33,113.73-38.27,11.22-1.58,14.87,2.22,22.68,1.76,2.59-.15,4.69-1.67,7.12-1.96,20.31-2.36,54.23,3.76,73.67,11.15,7.22,2.74,14.21,8.1,20.92,10.08s16.07,2.11,22.52,5.48c5.19,2.71,10.18,11.62,15.02,13.98,6.87,3.34,15.73-1.21,23.22,3.78,6.69,4.46,6.4,12.74,10.5,18.5,4.51,6.33,13.88,9.06,19.19,14.31ZM806.59,208.45c-54.57-50.31-153.67-67.96-223.11-43.47-100.56,35.46-149.68,138.47-56.95,216,57.16,47.79,111,56.68,182.36,67.42.91.14,5.03.46,5.63.4,24.67-2.57,52.45-8.05,76.01-16.78,36.45-13.5,64.93-42.61,74.19-80.81,13.3-54.91-19.37-107.03-58.12-142.76ZM487,400c2.7-15.48,1.92-30.92-10.5-41.98-2.15-.04-1.66,12.3-1.54,14.52.21,3.76,3.47,24.39,5.27,26.23.59.6,6.43,1.57,6.77,1.23ZM514.76,395.24c-1.73-1.73-7.72-1.67-9.51.02-2.55,2.42-5.47,15.69-9.82,19.67-3.77,3.46-8.4.1-7.39,7.49.59,4.33,3.82,6.29,7.7,4.33,2.12-4.18,5.26-8.66,8.29-12.22,3.46-4.08,16.65-13.38,10.73-19.29ZM613.72,515.28c-1.59-2.46-9.71-7.77-12.55-11.94-14.56-21.39,1.92-35.28,4.4-56.35-19-8.31-38.06-16.82-56.24-26.82-5.31-2.92-11.96-10.66-17.89-7.22-3.3,1.91-14.44,15.75-17.4,19.59-2.21,2.87-11.8,15.54-12.04,18.01-.39,4.06,6.7,15.89,9.18,19.76,2.63,4.1,7.13,12.22,11.8,12.7l-2.99,1.98c11.19.7,15.02-21.74,23.72-22.78,6.02-.72,11.85,5.2,17.22,6.35,3.4.73,6.84-.16,10.05,1.44-.93-2.53.78-5.28-.9-7.56-1.34-1.82-21.38-14.04-23.67-14.41-8.02-1.3-18.6,19.42-24.7,17.84-4.19-1.09-7.66-10.21-5.79-14.44,1.23-2.79,10.66-15.2,13.11-17.89,3.7-4.07,5.11-6.59,11.24-5.3s24.58,13.68,31.68,17.32c4.43,2.27,19.5,6.1,18.89,11.69-.7,6.46-6.61,14.81-7.59,22.52-2.01,15.87,10.92,31.46,21.17,42.27,5.84,3.53,14.09.68,9.29-6.75ZM813.35,484.4c3.76-2.9,10.02-11.25,13.06-15.49,10.53-14.65,20.52-32.44,20.58-50.91-16.14,13.98-18.31,38.12-34,52.56l-1.35.36c-10.97-6.83,0-17.43.35-26.92-28.37,4.34-16.02,31.1.51,41.99.8.32.24-1.12.85-1.59ZM640.25,487.76c6.48,5.6,19.96-4.07,17.93-14.35-3.07-15.51-22.09-18.93-33.67-10.41-30.76,22.63,1.66,56.13,30.56,49.56,12.38-2.81,29.79-25.17,39.41-34.59,2.79-2.74,6.95-4.28,8.33-8.49-2.87-4.5-13.66-6.28-17.7-3.92-4.47,2.61-4.12,6.34-6.27,9.76-6.42,10.23-18.04,27.4-31.33,27.76-4.86.13-20.74-6.3-22.81-10.35-6.82-13.32,8.57-29.97,22.33-22.03,3.1,6.46-1.49,11.99-8.01,10.29-.03,1.76-.1,5.61,1.24,6.76ZM770.58,482.42c5.08,6,17.22,19.41,13.29,26.95-2.18,4.19-24.13,19.89-28.85,21.18-5.45,1.49-5.95-5.29-13.39-1.43-2.16,1.12-15.83,17.34-17.14,19.86-.7,1.35-.68,1.54.48,2.54,1.07.71,2.23.54,3.42.43,8.63-.75,49.1-26.02,57.55-32.53,3.25-2.51,12.17-10.92,12.03-14.83-.47-12.57-25.83-24.56-23.92-38.02.43-3.02,3.34-5.27,2.95-8.58l-13.83,2.17c-6.98,13.39.53,14.11,7.42,22.25ZM737.66,474.66c5-3.91-1.24-10.15-7.91-8.41-1.06.27-5.11,2.9-6.24,3.75-9.31,6.99-32.37,35.22-40.48,45.52-1.5,1.91-7.02,8.34-7.04,9.99-.05,4.38,7.8,5.12,10.54,2.5,14.23-13.81,27.38-36.38,42.56-48.44,2.61-2.07,6.65-3.42,8.57-4.92ZM557.71,501.3c3.74,2.95,12.33,20.48,16.46,26.03,1.91,2.57,8.02,10.57,10.72,11.18s6.27-1.81,5.95-4.75c-.53-4.91-11.45-18.16-14.66-23.44-5.37-8.81-13.31-34.44-27.2-22.85-3.1,2.59-11.94,15.6-9.77,19.32l8.18,3.27,4.8-9.91c1.33-.76,4.32.17,5.53,1.13ZM753.65,491.35c-1.04-.99-4.66-3.27-6-3.15-5.36.49-28.31,27.21-33.17,32.79-5.99,6.87-22.3,30.46-29.46,32.6-8.68,2.59-20.04-13.31-26.01-18.09-19.2-15.38-40.2-4.43-54.01,11.98l7.31,5.37c9.53-3.53,19.55-17.46,30.13-15.79,8.17,1.29,17.87,19.02,27.04,22.97,8.48,3.65,20.21,3.72,28.53-.52,7.56-3.85,5.9-9.03,9.14-14.86,1.26-2.27,5.92-7.7,7.88-10.12,7.79-9.59,17.88-18.54,25.99-28.02,6.95-3.23,10.34,9.97,19.28,7.28,2.58-.78,5.29-5.37,4.55-8.06-.24-.88-10.07-13.32-11.19-14.38ZM635.01,560c3.31-1.39,7.54,5.06,11.04,2.57,5.27-3.74-9.03-17.77-11.04-2.57Z"/>
  <path class="cls-1" d="M424.32,679.69c-16.48-18.42,17.9-45.94,32.38-54.5,16.16-9.55,43.64-17.81,60.24-5.63,22.12,16.23-11.34,47.17-26.26,55.61-15.14,8.56-53,19.45-66.36,4.52Z"/>
  <path class="cls-1" d="M604.76,670.26c11.69-1.72,19.79,2.76,19.85,15.41.06,11.54-13.33,19.99-23.9,16.12-16.89-6.2-14.3-28.83,4.05-31.52Z"/>
  <path class="cls-1" d="M525.75,731.22c10.84-1.62,17.26,13.72,10.29,20.33-17.59,16.68-35.34-16.59-10.29-20.33Z"/>
  <path class="cls-1" d="M341.03,361.93c.61-2.3.92-8.41,3.61-8.84,11.45,5.55,10.39,16.83-3.61,8.84Z"/>
  <path class="cls-1" d="M205.99,249c-1,1.37-23.29-17.38-24.53-21.06-1.52-4.5,10.95-13.47,16.06-8.95,2.66,2.35,10.3,27.51,8.48,30.01Z"/>
  <path class="cls-1" d="M629.8,167.31c81.68-6.63,160.64,26.87,204.23,97.16,29.07,46.88,23.68,116.43-27.36,145.7-83.11,47.66-223.18,13.78-285.64-55.7-77.79-86.52,16.79-179.7,108.77-187.16ZM792.62,283.36c-18.19-22.45-63.67-72.83-90.41-81.07-5.85-1.8-22.02-3.68-27.5-2.08-1.79.52-4.8,4.54-5.74,6.26-14.72,26.85,11.85,84.23,33.51,102.56,14.06,11.9,33.55,12.76,47.05,24.95,5.39,4.86,9.09,11.41,15.15,15.85s14.73,8.12,22.33,9.18c.31,2.41,0,1.59-1.39,2.1-4.32,1.59-11.8,1.78-16.15,0-4.11.54,2.8,7.36,4.61,8.32,8.01,4.27,21.8,1.94,29.25-2.6,30.91-18.85,5.86-63.01-10.7-83.46ZM615.62,242.39c-15.88-15.33-29.16-14-47.64-2.91-36.78,22.09-27,71.83-9.15,103.19,25.75,45.25,90.97,66.37,140.66,62.31,23.55-1.92,52.56-18.36,40.71-45.68-12.5-28.83-47.85-36.56-70.4-54.36-21.16-16.7-35.25-44.28-54.17-62.55Z"/>
  <path class="cls-1" d="M691.66,336.33c.38.43,1.48,2.54,1.34,2.66-28.3-10.59-54.64-27.76-63.99-57.99,10.18,9.84,17.18,21.93,27.98,31.51,8.77,7.78,29.13,17.56,34.67,23.82Z"/>
  <path class="cls-1" d="M562,294.5c1.05,11.91,6.95,27.92,12.47,38.53,1.92,3.69,5.64,6.98,6.54,11.46-1.48.26-3.62-2.44-4.52-3.48-11.72-13.54-25.9-46.92-18-64.03.73-1.58,1.76-3.4,3.51-3.99.45,6.98-.61,14.61,0,21.5Z"/>
  <path class="cls-1" d="M707.99,383c.53,2.49-.54,1.77-1.86,2.6-5.66,3.55-18.79,5.17-25.37,4.14-4.32-.68-7.37-3.6-11.75-3.75,0-1.73,4.38-1.1,5.54-1.04,11.8.64,21.76,2.03,33.45-1.95Z"/>
  <path class="cls-1" d="M615.99,269l-4.99-3.5-10.99-16.5c1.01-1.1,18.99,14.88,15.98,19.99Z"/>
  <path class="cls-1" d="M584,244.01c-1.23,2.28-3.98,2.75-6.03,4.46-3.95,3.32-8.06,10.33-11.48,12.53-1.28.83-2.17,1.1-2.5-.52,1.83-8.18,12.3-14.46,20-16.47Z"/>
  <path class="cls-1" d="M727,367.99c-4.54,2.03-13.38-11.48-11.99-12.99,1.88-.43,2.37,1.07,3.5,1.99,1.3,1.07,10.1,9.51,8.49,11Z"/>
  <path class="cls-1" d="M586.98,318.01l8.01,16.99c-6.24-4.39-9.38-8.73-10-16.49l1.99-.5Z"/>
  <path class="cls-1" d="M602,366.99c-1.17,1.18-10.87-8.36-9.99-10.99,1.72.67,10.83,10.14,9.99,10.99Z"/>
  <path class="cls-1" d="M653.99,379.01c.02,2.1-3.81.61-4.81.3-2.34-.73-6-2.03-7.18-4.3,4.56-.48,8.05,2.47,11.99,4Z"/>
  <path class="cls-1" d="M726.99,311.99c-10.83-5.08-19.55-14.35-26.22-24.27-7.19-10.72-13.93-23.62-14.77-36.72,9.75,12.02,14.95,27.05,23.76,39.73,4.52,6.5,10.35,11.84,15.24,17.76.93,1.13,2.43,1.61,1.99,3.5Z"/>
  <path class="cls-1" d="M801.99,348.99l-7.51-27.98-15.48-30.01c1.39-1.41,9.82,9.26,10.83,10.66,9.3,12.9,17.54,31.47,12.16,47.32Z"/>
  <path class="cls-1" d="M761.99,276c-5.79-5.21-13.16-10.51-13.98-19,5.13,5.09,12.58,11.76,13.98,19Z"/>
  <path class="cls-1" d="M682.98,217c1.94,5.14,3.66,9.85,1,14.99-2.33-1.35-2.81-7.87-2.97-10.51-.12-2.03-1.03-5.27,1.97-4.48Z"/>
  <path class="cls-1" d="M732.42,238.58c.57.69,6.75,8.28,1.56,4.94-1.53-.98-11.27-11.22-9.98-12.51,3.62.65,6.23,4.94,8.42,7.57Z"/>
  <path class="cls-1" d="M774,318.99c-5.87.27-6.85-7.9-9-11.98,2.96-.39,9.6,11.51,9,11.98Z"/>
</svg>