<?xml version="1.0" encoding="UTF-8"?>
<svg id="Camada_1" data-name="Camada 1" xmlns="http://www.w3.org/2000/svg" viewBox="0 0 1024 768">
  <defs>
    <style>
      .cls-1 {
        fill: #413253;
      }
    </style>
  </defs>
  <path class="cls-1" d="M371.5,178c11.27,1.1,25.24,6.44,35.17,11.83,5.04,2.73,16.86,12.02,21.04,12.96,5.46,1.24,15.85.48,22.65,1.35,43.33,5.52,78.08,29.82,122.27,35.73,35.53,4.75,68.41,3.44,103.86.11,9.14-.86,18.59-3.18,27.97-3.94,93.97-7.58,154.89,43.74,158.59,138.41,1.06,27.12-7.08,56.95-3.93,82.93,1.53,12.6,17.89,22.8,23.08,36.92,6.82,18.55,2.84,59.72-14.86,71.52-12.54,8.36-6.87-10.41-6.74-16.23.53-23.55-21.42-35.09-19.58-64.08.91-14.41.72-19.82,0-34.03-1.44-28.57,5.76-56.13,4.03-85.03-1.05-17.47-6.13-34.57-14.01-50.05l-4,.66c7.5,27.58,7.63,55.1,3.82,83.29-4.3,31.84-18.45,65.99-7.58,97.87,3.08,9.05,10.42,17.44,11.82,27.26-3.42,31.51-18.99,71.58-15.97,102.89.63,6.49,6.37,21.29,5.69,25.92-.85,5.73-7.48,5.75-10.22,7.79-4.07,3.03-3.93,19.73-6.59,24.9,10.22,1.61,21.89.34,31.04,5.48,1.25,1.1,1.03,1,0,2.06-2.92,3.02-12.29,3.82-16.59,4.34-67,8.13-133.45,8.26-200.99,9.08-106.9,1.31-214.44,1.9-320.91-8.94-7.93-.81-21.29-2.48-28.79-4.27-11.22-2.67-3.11-16.08.07-23.42,13.35-30.79,35.73-48.77,38.22-84.78.88-12.71-1.56-25.38-1.09-38.09.65-17.56,3.94-35.58,1.59-53.5-1.04-1.9-2.25-3.72-3.57-5.43-3.9-5.1-10.13-10.69-13.96-16.04-23.72-33.18-25.36-121.77-60.5-136.5-25.3-10.61-48.1,24.2-80.82,4.82-6.45-3.82-8.12-9.4-10.99-11.51-2-1.47-8.17-2.3-11.65-4.86-8.36-6.15-13.39-32.93-11.82-42.69,2.15-13.42,15.7-19.63,23.72-28.27,6.83-7.36,24.53-31.72,27.31-40.69,1.87-6.03,1.41-12.16,3.19-17.81,3.3-10.5,15.81-15.46,22.51-23.47-23.47-14.56-41.99-34.38-44.53-63.2-1.63-18.52,8.22-41.04,20.57-54.78,2.47-2.75,12.24-12.86,16.04-10.1,1.13,1.09,1.03,2.62,1.02,4.07-.04,8.1-7.07,21-7.96,31.13-2.08,23.6,11.98,48.38,33.87,57.87,14.92,6.47,20.16.51,34.62-1.38,13.53-1.76,29.11-1,42.58,1.17,11.13,1.79,18.03,7.01,29.76,3.18,21.29-6.95,41.24-28.02,43.06-50.94,1.22-15.34-2.97-21.29-4.77-34.29-.38-2.73-1.32-7.57,1.38-9.11,5.25-1.76,15.02,8.36,18.34,12.39,15.82,19.17,22.01,47.85,14.74,71.69-6.44,21.1-22.81,33.23-37.72,47.78,5.34.37,11.24-.51,16.5,0ZM377.78,113.2c-4.94-3.81-8.91-2.5-9.3,3.85l7.41,3.88,1.89-7.73ZM370.88,131.11l-6.38-4.08-4.54,5.47c0,2.49,5.19,5.95,7.58,6.26,1.68-1.22,4.58-5.93,3.34-7.65ZM349.26,155.73c.86.83,2.53,1.42,3.71.81l5.09-6.09c-2.26-7.14-7.99-12.31-12.1-2.88-.27,1.76,2.2,7.1,3.3,8.16ZM219.15,302.14c5.71-1.51,6.73,7.21,11.09,6.71,16.36-5.84,34.97-8.45,51.27-13.83,19.55-6.45,31.83-26.55,33.47-46.53.46-5.61-1.89-26.54,3.01-29.03,5.24-1.89,8.04,3.77,11.68,6.37,22.79,16.3,51.01,16.62,72.8-1.86,8.49-7.2,10.3-10.08-.17-16.77-18.17-11.62-40.62-14.28-61.79-13.19-10.66.55-20.15,5.6-30.01-2.01-7.38-5.7-13.22-24.37-10.79-33.56-17.53-7.59-39.02-7.97-57.73-3.95-26.9,5.78-23.17,14.7-38.48,31.52-5.65,6.21-12.02,8-14.83,17.17-7.03,22.94-12.23,34.52-27.71,53.29-2.93,3.55-19.48,20.05-19.95,22.07-.32,1.37.75,1.73,1.67,2.26,12.14,6.99,30.54-10.92,41.84,5.16,8.55,12.16-2.23,22.81-11.52,29.54,13.87,19.22,38.92,3.84,46.13-13.37ZM337.86,165.86c1.05-6.05-3.6-17.36-10.82-11.33-4.21,3.52,1.23,9.18,2.09,13.34l8.73-2.01ZM441.86,227.14c-2.34-.36-5.29-.76-6.83,1.35,1.51,2.26,1.7,4.97,2.51,7.47,5.37,16.79,19.13,47.81,27.58,63.42,5.98,11.05,6.98-1.15,5.65-7.65-1.49-7.29-13.16-21.6-12.7-29.29.24-3.97,14.2-11.46,17.76-13.61l-.85-6.83c-6.88.26-18.38,17.44-24.21,7.72-1.89-3.15-7.9-21.92-8.92-22.58ZM463.65,234.74c4.77-4.23-7.54-11.78-10.6-5.12l6.48,7.36c.7-.57,3.94-2.09,4.12-2.25ZM655,281h-17c.79,1.83-2,5.01-2,5.5v15c0,.36-1.02,1.62-1.17,2.34l-49.83-.84v-21.5c0-1.75-5.25-3.2-7-2.49-.17,8.43,1.48,16.81-.58,25.1-22.23,3.46-45.04,4.66-67.48,4.45-1.31-.91-1.54-15.7-1.99-19.01-1.75-12.97-4.61-25.9-8.68-38.32-2.18-6.64-3.24-17.37-12.27-15.23,3.3,13,8.13,25.57,10.7,38.79,2.69,13.8,3.09,27.18,4.46,41.03l141.84-4.82-1-22c5,.3,8.27,6.11,13.98,3.48,1.27-.59,5.7-5.41,6-7.01,1.04-5.4-2.53-10.99-1.91-16.4,4.16-.45,13.27-3.6,16.66-.81,1.03.85,4.31,9.67,4.03,11.12-.23,1.18-13.84,14.67-16.19,17.7-32.85,42.3-32.01,100.34-7.75,146.59,1.83,3.5,7.84,14.2,10.13,16.59.99,1.04,2.05,1.54,3.46,1.78,1.84-1.93,1.75-4.67,1.13-7.06-1.3-5.03-10.84-18.48-13.73-25.31-20.71-48.86-14.42-100.61,22.13-139.22,1.88-1.99,5.93-3.88,7.11-5.91,3.14-5.37-5.08-19.72-7.21-25.4-4.36.41-27.91,2.2-29.43,4.82l3.57,17.04ZM397.01,305c1.49.33,2.19-.55,3.31-1.18,8.37-4.78,18.52-11.09,26.6-16.4,5.15-3.38,10.33-6.79,14.54-11.37.86-2.28-13.2-33.64-15.02-34.03-3.99,1.79-6.98,5-10.76,7.16-4.23,2.42-16.66,5.34-12.03,10.9,4.58.55,17.23-9.3,20.36-7.63,2.22,1.19,10.55,19.16,9.54,21.54-1.85,4.39-29.08,17.16-34.23,21.33-2.01,2.93-2.69,6.15-2.31,9.69ZM532,251c-2.21,6.01,6.3,18.99-1.72,20.78-15.75,3.51-6.6-27.44-21.27-27.77l6.02,30.47c.41,1.47,1.62,3.39,3,4,3.34,1.48,24.91-.05,25.9-3.13.69-2.16-3.95-29.14-11.92-24.36ZM339.78,256.22c-2.85-2.64-5.42-1.41-8.71-2.15-2.74,40.86-34.13,61.95-68.08,77.43-3.24,7.48,3.12,6.32,8.23,5.23,10.48-2.23,33.77-15.66,42.25-22.75,16.27-13.61,28.72-36.03,26.31-57.75ZM782.98,280.98c.76-3.38-1.19-9.14-5.32-8.75-1.79.17-13.14,5.22-16.66,6.27-4.61,1.38-19.68,6.37-23.28,5.32-9.63-2.83-5.68-33.72-20.72-29.81,3.17,9.93,5.74,22.49,9.52,31.97.87,2.18,2.98,7.16,5.17,7.84,8.38,2.59,40.54-13.02,51.28-12.84ZM517.99,298.01c6.41.28,46.52-2.31,48.59-4.95-.44-11.87-2.02-23.57-5.06-35.08l-9.52-1.97c.97,10.16,7.9,19.67,5.54,30.03-12.43,5.32-26.37,3.46-39.55,4.95v7.01ZM707,259.99c1.29-1.91-10.96-4.3-12.91-1.89l8.94,31.23c-5.81,4.71-11.55,9.84-15.03,16.66,8.08,2.87,8.33-2.68,12.48-6.01,9.77-7.82,8.81,12.3,19.52,4.49-6.85-13.33-13.14-27.28-16.8-41.86l3.79-2.63ZM763,263.99c-2.12-3.92-20.88-9.61-21.7-4.54l3.3,10.62c4.8,1.35,13.4-5.16,18.39-6.08ZM597.99,261.01c-7.12-1.43-7.86,10.6-14.51,5.01-3.41-2.87-3.36-5.14-8.99-7-5.71,8.65,9.24,11.74,14.87,14.83,2.27-1.22,10.74-10.73,8.64-12.84ZM327.65,398.65c30.15-30.53,51.79-67.39,62.28-109.22,1.51-6.01,5.64-22.1,5.67-27.37.02-3.47-5.52-1.91-7.46-.91-3.58,29.14-11.5,56.61-26.73,81.76-13.1,21.64-34.2,47.02-52.89,64.11-2.12,1.94-12.96,9.49-13.36,10.64-.33.96-.5,4.69-.05,5.22l5.84.66c8.14-9.05,18.19-16.28,26.69-24.89ZM482.91,267.86c-1.23-12.85-15.7-6.4-8.29,3.07l8.29-3.07ZM355.99,297c.82-4.88,6.13-32.97,4.59-35.06-.54-.73-1.3-.75-2.1-.93-1.02-.23-2.36-.02-3.45.03-.63,9.23-5.78,20.56-6.07,29.52-.15,4.71,3.05,5.42,7.03,6.44ZM378,262l-6.85,1.14c-.98,15.33-4.88,30.14-9.21,44.78l-5.51-.83-1.76,1.81c-3.18-.68-7.78-5.72-10.23-5.93-1.81-.16-5.09,2.14-5.34,3.68-.4,2.39,18.57,15.13,21.52,16.27,1.74.67,1.22-.37,1.61-1.17,9-18.57,13.05-39.39,15.78-59.74ZM638.99,262.01c-2.04-.07-4.06-.18-6.05.44-4.28,1.33-15.52,22-17.17,26.84-.46,1.34-1.48,2.01.19,3.24l6.79-.79c.71-4.47,18.12-27.95,16.24-29.74ZM617.99,263.01c-4.01.02-6.39-.95-9.54,1.95-2.56,2.35-17.45,27.16-15.45,29.04l8.94-.06c-1.4-4.74,17.37-29.78,16.05-30.93ZM403.02,278.98c1.73,1.22,18.81-8.37,18.91-9.46-1.35-2.02-2.11-4.93-4.95-4.13-.79.22-11.18,6.3-12.02,7.06-2.2,2.01-3.13,3.68-1.93,6.53ZM484.92,282.08c-1.25-.86-6.48.86-6.86,2.52l3.95,10.4,5.99-1.01-3.09-11.92ZM675,324h43.5c.42,0,3.16,1.13,3.52,1.72,1.77,2.9,3.32,15.33,4.72,20.05,3.49,11.8,9.16,22.58,12.27,34.23l60-43.52,2.37-.42c1.96.56,3.28,6.55,3.52,8.55.56,4.74,1,11.98,1.16,16.84.47,14.24-.59,29.63-3.06,43.55-1.53,1.13-24.67-26.78-24.84-28.67-.37-4.23,17.72-10.61,17.43-14.39-.57-7.64-7.88-1.53-11.5.64-2.68,1.61-15.99,9.99-16.16,11.94-.18,2.07,1.61,3.79,2.67,5.38,6.77,10.13,17.12,19.76,24.38,29.62,1.58,2.14,5.27,6.82,6.09,8.91,2.25,5.71-2.29,25.38-2.16,33.06.06,3.15,1.57,10.42,4.07,12.51,1.33-19.29,6.93-38.23,8.99-57.52,3.7-34.59,3.19-71.02-10.5-103.47-3.25-7.69-7.6-18.33-15.2-7.53,5.48,10.1,11.43,20.27,14.27,31.54l-56.3,38.8-2.1.04c-8.09-14.98-9.93-32.58-16.11-48.41-10.87-.29-21.67.81-32.58.58-7.35-.16-15.88-4.64-18.46,5.96ZM431,317c-2.86,4.52,8.28,19.04,11.5,19.04,1.43,0,11.34-11.08,12.92-13.12,6.2-8,5.43-9.04.76-17.59-1.46-2.68-8.46-14.19-10.72-14.38-2.5-.21-38.82,21.15-39.31,23.68,8.49,17.76,20.89,33.3,33.36,48.35,5.06-2.51,51.92-51.44,48.5-53.97l-6.55.94c-11.24,10.65-21.18,24.05-32.92,34.08-8.6,7.35-9.56,8.76-17.5-.55-3.02-3.54-13.7-18.97-15.26-22.78-.43-1.05-.96-1.71-.63-2.99.98-3.78,24.44-16.82,28.43-16.69,2.54.08,8.02,11.16,8.28,13.75.37,3.68-6.82,7.86-7.86,11.23-5.35-2.66-6.03-10.55-12.98-9ZM132.48,292.05c-3.52.31.34,14.83,2.01,14.92,6.97-4.87,7.91-12.9-2.01-14.92ZM163.75,294.21c-7.49,1.13-12.16,12.39-3.99,11.11,4.72-.74,13.32-4.75,8.75-10.34-1.36-1.5-3.04-1.04-4.76-.78ZM771.84,298.17c-4.62-2.9-30.85,9-37.84,7.84l12.95,43.53,4.14-1.18c.68-1.51,1.03-3.07.88-4.74-.49-5.49-11.12-28.98-8.85-32.49,7.48-2.25,15.29-4.89,23.22-3.96,2.91,1,9.21,19.68,10.74,20.77,1.12.8,5.26-.99,5.79-2.61,1.81-5.56-9.37-21.16-11.03-27.15ZM356,331.01c-7.44-.62-19.29-12.46-24.76-13.84-.86-.22-1.66-.38-2.52-.03-3.22,2.38-5.06,3.04-1.74,6.39s14.22,9.02,16.12,11.94c2.3,3.53-9.2,18.08-11.7,21.43-12.17,16.34-26.22,31.2-41.95,44.13l1.57,5.97c.97.75,10.91-7.73,12.46-9.02,14.83-12.34,30.52-30.61,41.34-46.66,1.72-2.55,12.25-18.88,11.18-20.3ZM760.84,318.16l-5.85-.17c-2.07,3.37,5.91,22.95,7.5,22.98l5.49-5.45-7.14-17.37ZM386.99,444c.31-12.55.7-33.43,7.16-44.35,4.34-7.34,34.35-27.97,34.75-30.29l-35.39-49.34c-2.4,1.73-3.38,4.1-1.95,6.92l26.5,40.51c-.22,2.48-22.77,20.57-26.57,25.53-5.86,7.64-11.62,34.81-11.34,44.57.11,3.89,3.7,5.46,6.86,6.45ZM630,384c-.06-14.6.42-29.91,3.3-44.21.68-3.4,6.01-15.07,2.76-17.36-15.71-1.34-31.79-2.25-47.61-1.48-3.93.19-13.03.72-16.28,1.72-7.96,2.43-2.12,15.91-5.18,22.33l-2.19-2.8c-6.88,0-1.83-15.32-4.99-18.01-4.92-2.11-5.04.13-8.81.82.27,2.8,3.56,5.29,3.99,7.51.89,4.58-1.25,12.55,1.01,16.74,1.82,3.35,15.2.79,18.57-.19,1.55-4.09-1.62-17.37,3.1-18.91l31.8-2.2c8.02,1.13,18.1-3.98,17.59,7.57-.65,14.87-6.11,27.85-4.1,44.02.56,4.52,2.98,4.74,7.05,4.46ZM499.5,369c3.37.96,17.23,0,22,0,.18,0,2.5-2.32,2.5-2.5v-31c0-.37,1.13-3.33,1.69-3.52l14.31-.99-1.67-6.04c-4.73.56-19.31-.98-20.31,4.56l-1.55,31.45c-2.88,6.53-15.69-.31-19.46,5.52,0,.18,2.31,2.45,2.48,2.5ZM508,327l-6.89.11-1,25.78c1.66,1.27,7.89.62,7.89-1.39v-24.5ZM332.78,339.2c-6.26-2.85-14.97-16.8-20.74-7.62-.41,1.44.97,1.6,1.63,2.25,1.44,1.44,11.89,9.71,13.09,9.99,3.11.72,8.19-.75,6.01-4.62ZM488,332l-3.99.51-20.68,24,18.18,23.49c1.11.24,2.03-.68,2.34-1.65,2.36-7.36-11.87-16.03-10.88-22.79.79-5.43,18.88-14.05,15.02-23.56ZM608.5,336c-6.43-1.13-15.71.83-22.5,0,.32.98-1,2.17-1,2.5v20l-2.5,1.5-38.83.84c-7.98-6.59,4.96-11.29.19-18.69l-7.95,1.25c-1.43,1.85-2.46,23.39-.76,24.46l56.86-.86v-14.5c0-2.47-.9-6.74,1.4-8.6l9.71-.32c1.14,4.13,2.01,32.81-.78,33.46l-104.4,3.39-.94,5.56,115-2.01c-2.5-14.1.62-28.39,1.93-42.45.43-2.51-3.5-5.21-5.43-5.55ZM727,381.99l-13.99-45.51-43.54.49-5.49,28.01,7.87-.14c.18-3.32.3-16.34,2.8-17.93,5.36-.67,30.12-3.75,32.86-.95.51.52.65,1.39.98,2.02,3.87,7.42,5.07,19.04,8.49,27-.77.86-21.86,2.12-23.01,1.53-3.55-1.81-2.73-9.17-.25-11.53l7.27-2-1.06-4.93-15.23.93c-3.03,1.59.94,14.36-1.19,18.11l-19.54,1.91c-1.97,9.31,8.3,5.19,13.51,5.01,16.49-.56,33.11-.68,49.49-2.02ZM306.65,339.35c-1.74-1.47-3.79-2.6-6.16-2.47l-3.45,3.55c4.48,5.4,15.06,9.18,12.5,17.61-1.11,3.64-14.65,19.01-18.29,19.78-8.64,1.81-9.03-19.03-11.13-24.24,6.53-7.09,11.25,13.79,17.98,5.98,2.22-2.57-7.65-13.77-9.83-14.39-2.06-.59-13.89,2.17-14.81,3.78.27,14.75,6.56,28.16,10.55,42.06,2.91,2.15,23.38-19.45,25.96-22.53,1.98-2.37,12.26-15.65,10.99-17.43-6.21-1.09-10.28-8.29-14.32-11.69ZM370.83,421.82c.71-5.74,2.27-11.89,4.13-17.36,1.23-3.61,4.34-11.85,6.21-14.79,3.37-5.31,22.94-21.3,23.74-24.36l-17.41-26.29c-1.03-.48-3.82,3.57-4.02,4.04-2.06,4.98,14.12,14.71,12.9,20.75-.9,3.44-12.81,11.92-15.91,15.16-8.11,8.47-10.78,19.54-15.48,30.05-5.44-.92-10.91-12.8-14.7-13.86-3.39-.95-8.03,3.32-5.34,6.4,4.77,3.02,17.34,21.02,21.59,21.47.89.09,3.93-.63,4.3-1.2ZM488.99,354l-5.99,1.01c-.61,3.34,1.17,5.01,3.5,6.97l2.49-7.98ZM369.01,368.99c9.58,2.13,21.86-5.22,7.6-10.05l-7.6,10.05ZM455.83,366.19c-2.44-1.43-6.45,1.68-6.81,4.29-.06,2.05,8.85,11.82,10.95,14.05,3.6,3.8,14.35,11.95,14.98,16.04,1.27,8.28-7.31,21.26-6.99,30.39-1.68.13-3.61.33-5.24-.17-4.85-1.48-16.83-18.17-21.2-22.8-1.34-1.42-5.38-6.02-7.01-6.02l-35.05,31.98c-2.21,2.25-1.94,5.07-.49,7.61,2.84,4.96,16.02,18.94,20.64,23.35,1.94,1.85,5.86,5.8,8.38,4.63,2.83-1.31,17.6-19.35,18.62-22.51.41-1.27.53-1.7-.06-2.98-.74-1.6-11.25-12.89-13-14.1-1.05-.72-1.08-1.23-2.53-.5-1.68.85-9.1,11.02-8.01,12.55,5.56,3.59,10.25-4.66,13.24,2.27,2.63,6.09-4.36,15.63-10.66,14.74-3.15-.44-11.22-8.77-13.62-11.49-3.78-4.26-6.87-6.14-2.96-12.03,2.84-4.28,11.57-13.46,15.49-17.5,2.15-2.21,5.45-6.36,8.79-5.83,3.57.56,11.23,11.68,14.21,14.86,5.46,5.82,14.39,9.86,13.45,18.38-1.29,11.67-24.95,27.75-32.5,37.54-1,1.29-1.56,2.38-1.44,4.07l-30.96-29.54c-3.11-1.63-4.72,4.75-3.85,6.81,19.05,17.57,37.43,35.86,55.31,54.74,4.24,14.45-6.04,21.2-12.48,31.97l16.99-3.74c6.17-32.74,11.2-65.9,18.32-98.44,2.04-9.32,5.28-18.35,7.4-27.6,1.26-5.51,5.73-22.65,3.35-26.76-3.27-5.64-13.66-14.18-18.57-19.43-1.27-1.36-6.18-8.54-6.66-8.82ZM798,374.99c-2.94-.3-5.24-.06-6.98,2.51,2.39,2.08,3.46,5.42,6.89,3.39l.1-5.89ZM364.98,377.01l-8.91,6.63,2.95,5.36c1.59,1.12,6.21-6.53,7.88-7.63l-1.92-4.36ZM458.3,411.69l2.21,1.02c2.16-.9,5.13-5.63,4.05-7.71-9.95-7.75-18.48-17.17-25.56-27.57l-1.33-.34c-3.77.3-36.28,28.13-37.43,32.64-.74,2.9-.03,6.27-.23,9.26l33.63-32.85c10.36,5.57,16.14,17.46,24.65,25.53ZM744,393.5v18l-2.5,1.5-38.56,1.62.05,4.39,47.87-.14c1.11-1.11,2.03-20.22,1.18-23.32l1.57-1.37,2.28.64,1.1-1.8c.74,4.77,11.9,11.22,12.87,14.71,1.21,4.32-9.29,9.84-6.85,16.28,2.4,2.51,15.84-11.77,17.03-14.5-3.44-4.35-17.44-23.01-21.75-24.31s-13.4,4.19-14.29,8.31ZM611.99,394.01c-7.62-3.35-12.12,8.67-15.53,9.03-4.43.46-8.8-6.54-11.98-9.02-2.23-.93-1.71,3.43-1.46,4.47.58,2.45,10.85,12.83,13.42,12.58,1.29-.13,13.48-11.78,14.6-13.51.8-1.23,1.24-1.99.95-3.54ZM731,394c-9.16,3.22-27.03-1.47-34.95,1.56-2.13.81-6.01,5.57-7.48,7.52-2.19,2.91-11.51,18.18-12.17,20.93s2.81,4.26,2.62,6.99c6.2-5.5,14.45-24.97,20.59-28.89,3.68-2.35,6.23-.12,9.86-.07,7.17.11,14.38-.18,21.55-.04v-8.01ZM573,395l-57.76,2.25-3.38,38.11-9.38,49.63c1.53-1.33,3.86-.65,5.51-1.49,2.55-1.3,6.43-17.83,7.33-21.67,4.43-19.08,6.03-38.61,5.92-58.19l1.26-1.63h41c6.12,10.05-.02,24.03,1.46,35.33,2.16,2.47,5.4,1.46,8.04.67v-43ZM604,437.99c1.91.39,2.88,1.11,4.99.6,7.64-1.83,19.16-11.45,27.61-13.56l-4.83-27.3c-1.07-3.39-4.83-2.82-7.77-2.73-1.64,1.64,5.65,21.71,3.79,25.8-8.58,4.61-17.47,9.57-23.79,17.19ZM505,400c-.48-6.55-11.91-4.57-6.41.88l6.41-.88ZM677.89,396.1c-15.78-4.07-9.25,16.36-3.95,11.85-.46-4.89,6.13-7.47,3.95-11.85ZM617.99,406.01c-2.85-.56-1.76.95-2.06,2.88-8.98-.66-11.45,10.98-18.67,13.99-3.98.59-10.76-11.14-14.78-12.86-1.96-.84-2.46,4.19-2.31,5.28.38,2.66,11.63,13.23,14.27,14.75,5.74,3.3,6.52-2.06,10.54-5.55,6.23-5.42,15.27-8.52,13.01-18.48ZM506,407h-11.01s0,8.01,0,8.01l9.86-.14,1.15-7.86ZM366.65,440.35c-5.42-6.09-17.08-16.08-23.63-21.87-1.46-1.29-8.54-7.44-9.57-7.54-3.1-.3-13.38,11.72-16.43,14.57-3.99,3.73-9.49,6.63-12.81,11.12-.26,1.34,9.23,23.09,10.56,25.1,1.68,2.54,4.36,3.73,6.88,5.15,3.79.39,2.13-9.44,2.64-12.11.67-3.51,2.99-8.88,7.22-8.88,5.56,0,16.76,19.2,24.49,20.1l.83-9.81c-5.58-1.86-18.84-18.9-22.54-20.01-6.03-1.81-13.28,9.77-17.29,13.21-.7.6-.48,1.02-1.98.61-.43-4.22-3.81-6.64-2.48-10.95.96-3.11,14.4-13.36,17.18-16.85,8.18-2.47,22.31,15.65,28.27,21.32,6.49,6.17,9.76,4.04,10.07,15.02s-3.37,25.23-3.07,36.97c.15,2.12,8.71,8.07,9.02,4.02-2.74-20.93,8-41.92-7.36-59.17ZM553.85,413.17l-19.81.87-11.63,67.99,6.59,1.97,11.14-64.87,8.92,1.53c.95,8.04-5.33,22.83-4.08,29.82.55,3.06,5.09,3.82,7.78,4.26,12.35,2.02,40.88,4.72,52.66,3.17,5.48-.72,25.22-9.85,31.26-12.74,1.66-.8,6.19-2.69,6.84-4.12,1.18-2.57-2.6-6.71-5.78-4.85l-35.21,15.82-49.53-4.02c-2.3-2.22,3.19-24.23,3.06-28.55-.02-.76-1.95-6.07-2.2-6.29ZM790.72,464.29c-4.21-2.75-17.76,2.99-19.51-3-.91-3.11-1.85-12.09-.26-14.85,3.38-5.87,18.71-15.71,21.32-21.73,1.6-3.7-2.71-8.8-4.24-7.71-5.36,9.35-23.69,20.4-25.04,31.47-.67,5.49.12,12.99.51,18.54,2.12,3.58,23.36,3.52,28.05,4.04l1.35-.15c1.84-1.16-.94-5.82-2.17-6.62ZM503,424c-7.51-.92-10.93,2.51-10.01,10.01h10.01s0-10.01,0-10.01ZM750.99,430c-11.15,1.3-22.31-.12-33.52-.06-2.58.01-5.11,1.11-7.95,1.14-8.02.09-18.86-5.58-19.51,6.92l52-.5c1.64.93,1.85,2.25,2.06,3.97.77,6.31-1.39,16.62-1.1,24.08.1,2.62,1.58,18.37,2.24,19.25,8.3,3.67,17.51,1.7,26.29,2.22,4.35.26,23.15,3.07,25.54,1.52,2.27-1.68-.38-5.95-2.42-6.71-8.47-3.19-38.38-1.66-41.67-5.25-1.17-1.28-1.74-4.3-1.93-6.07-1.41-12.57.39-27.72,0-40.5ZM592,440.99c1.21-1.12-8.87-12.11-11.53-8.04-3.1,9.75,4.47,8.99,11.53,8.04ZM791.8,452.78c2.84-17.29-7.46-11.09-11.77-.27.06,1.27,6.67,1.36,7.73,1.28,1.42-.11,2.84-.08,4.04-1.01ZM499,445c-5.96-.85-9.99,6.43-8.03,11.55,1.92.71,6.66.48,7.52-1.52l.51-10.03ZM806.87,518.87c2.1-3.29-7.17-18.06-10.64-19.6-3.88-1.72-15.67-1.75-20.76-2-9.09-.43-32.61,3.02-38.55-1.68-4.68-3.7-2.58-20.01-2.88-26.13-.1-2.13-.91-4.01-1.03-5.97-.19-2.98.83-13.81-.95-15.05l-42.06.57c-.39.35,2.43,7.46,4.69,6.77,5.02-.56,26.65-2.26,29.32.7,3.68,4.07,1.33,30,1.54,36.58l37.46,36.44,6.98-.51c2.53-3.65-19.59-17.41-17-23.98.73-.72,18.43-.17,20.55-.04,4.58.28,13.71.57,17.53,1.48,7.86,1.87,6.51,13.69,12.33,13.55.63-.02,3.29-.83,3.48-1.11ZM655,467.99c-2.05-6.07-4.46-17.47-12.94-13.91.67,6.98,3.94,18.44,12.94,13.91ZM637,473.99c-2.35-5.64-2.31-17.6-10.85-12.84-1.29,3.16,1.87,14.96,5.31,14.88l5.54-2.04ZM582,488.99l-3.97-20.51c-5.76-.95-30.59-6.29-33.51-1.46-.84,1.39-4.17,18.21-3.46,18.94l5.94,1.04c-.22-3.07.89-14.92,3.64-15.86,1.76-.6,19.95,1.23,21.33,2.39,3.1,2.61,1.74,11.68,2.02,15.48h8ZM713.99,480.99c.67-9.86.78-19.19-11.99-14.98l11.99,14.98ZM616.99,466.01c-11.65-4.72-7.19,15.59-5.33,16.03,10.56,2.52,5.4-10.59,5.33-16.03ZM351.64,480.35c-1.76-1.92-11.49-11.37-13.09-12.4-1.21-.78-2.02-1.26-3.54-.94-7.28,8.27,16.6,24.64,19.99,21.98-.76-4.01-.43-5.45-3.36-8.64ZM494,468l-6.11.62c-1.35,1.7-4.1,13.57-4.51,16.36-.23,1.57-.49,2.08,1.2,2.96,7.26,2.16,8.5-15.35,9.41-19.94ZM601,486c-1.58-6.47.76-18.67-9-17l1.05,16.95,7.95.05ZM563.94,483.06l-5.98-.64-.96,5.58,6.06-.44.88-4.5ZM412.01,553c5.33-.82,8.94-5.36,12.51-8.98,2.11-2.14,13.03-14.16,13.33-15.75.16-.85.25-1.67,0-2.52l-39.84-39.74c-1.37,7.6,1.94,11.6,6.48,17.01,3.44,4.1,23,21.23,23.26,23.63.97,8.99-19.54,15.23-15.75,26.36ZM684.96,487.06c-2.78-4.47-33.41,3.79-38.96,5.44-28.86,8.63-43.08,26.24-75.38,22.37-18.81-2.25-34.2-9.18-54.16-7.92-7.15.45-29.02,4.55-34.44,8.56-11.27,8.36-13.26,40.72-17.3,53.7-1.8,5.79-6.13,11.61-8.18,17.82-4.8,14.51-6.08,38.14-4.41,53.33.7,6.34,4.6,17.52,3.83,23.04-.9,6.48-8.84,5.79-10.47,8.58-.98,1.68-.5,5.82-1.49,8,14.13-.58,28.33-2.4,42.42-3,19.33-.82,38.84-.76,58.01-1.02,6.88-.1,37.67,1.18,41.13-.9,1.89-1.13,16.6-25.43,20.02-29.98,19.45-25.93,47.03-51.26,49.45-86.55,1.4-20.37-5.27-19.02-13.42-32.65-1.45-2.42-8.53-17.07-7.48-18.76l50.87-17.14-.04-2.93ZM786.86,516.14l-11.85-1.14c-1.16,7.18,6.54,7.05,6.95,13.63.18,2.96-3.13,16.21-1.96,17.38l5.52-.99c2.92-10.08,6.82-18.88,1.34-28.88ZM408.86,520.09l-3.94,1.55c1.82,4.42-.84,10.69,5.44,11.2l4.57-5.2-6.07-7.55ZM654,675.99c16.57,1.17,33.99,3.65,50.45,1.98,11.17,1.81,22.51,4.4,33.86,3.84,2.94-.89,11.37-17.46,13.87-21.13,11.78-17.23,19.67-20.46,22.69-43.31,4.58-34.64-7.08-57.07-31.86-79.89-2.71-2.5-17.88-15.49-19.98-16.07-1.7-.47-5.37.57-5.94,2.25-2.02,6.02,6.86,22.89,1.4,30.33-13.27,25.87-39.77,54.64-43.37,83.63-.59,4.77,1.08,12.98-2.06,16.69-2.09,2.47-8.58,1.07-11.37,1.88-3.94,1.14-6.48,15.65-7.69,19.8ZM337.25,661.24c-.95.85-3.46,12.91-3.62,14.98-.06.84-.89,1.53.32,2.31,10.82,1.44,21.65-1.72,32.56-.53,4.43.48,6.71,3.57,10.83,2.87,2.32-.78,14.46-26.87,16.86-31.18,5.88-10.52,9.46-11.48,11.67-25.33,3.73-23.43-2.35-28.76-8.01-48.72-3.89-13.73-2.88-30.83-7.13-43.87-1.8-5.51-4.43-2.51-8.24-5.56-1.6.04-11.82,21.58-12.96,24.8-2.07,5.84-2.69,12.34-4.8,18.2-6.54,18.21-17.89,40.6-17.8,60.29.03,6.65,5.49,25.21-.97,28.93-1.81,1.04-7.52,1.73-8.7,2.79ZM618.99,656.01c-2.56-.58-1.75.69-2.58,1.88-1.56,2.21-10.37,18.94-9.4,20.12,9.88-1.07,9.98-14.1,11.98-21.99ZM286,682.99c.31.28,3.23.07,4.04-.45.72-.47,5.31-13.63,5.52-15.49s1.06-2.62-1.06-4.03c-1.09.07-9.31,19.25-8.5,19.97ZM398.85,694.84c1.05-.65,6.62-20.96,6.92-23.6.23-1.96.68-2.9-1.27-4.23l-12.53,26.4c.1,1.09,5.69,2.16,6.88,1.42ZM758.01,691.99l5.52-.97c1.19-6.4,5.53-13.42,6.25-19.78.22-1.96.69-2.9-1.27-4.22-1.7.09-9.72,21.51-10.49,24.97Z"/>
  <path class="cls-1" d="M207.25,260.75c-.65-.66-1.21-2.4-1.21-3.32-.01-2.65,11.25-25.16,13.44-29.45,12.53-24.52,19.46-42.39,51.76-37.72,3.99.58,15,4.58,13.62,10.03-1.64,6.46-12.74,2.56-17.37,2.65-5.05.09-23.31,5.35-24.45,10.64-1.39,6.41,12.56-.99,14.7-1.33,6.73-1.06,23.31-.5,19.48,9.48-3.21,8.35-14.67,15.65-23.66,14.21-5.16-.83-11.75-8.37-13.85-7.83-10.67,10.17-17.61,24.97-29.18,33.84-1.06-.16-2.53-.45-3.28-1.2Z"/>
  <path class="cls-1" d="M394.99,217.98c-11.63,8.48-32.91,10.64-46.53,6.06-4.45-1.5-11.5-4.96-13.09-9.55-.33-4.45,12.85-6.2,16.14-6.47,13.49-1.13,33.45.3,43.48,9.97Z"/>
  <path class="cls-1" d="M458.99,465c-.45,11.67-3.39,21.31-12.97,28.53l-.02,1.45c7.46,2.21,7.38,9.34,3.5,15.01-5.26-4.54-18.04-11.58-16.31-19.27,1.17-5.19,18.33-18.54,21.23-24.79l4.56-.93Z"/>
</svg>