<?xml version="1.0" encoding="UTF-8"?>
<svg id="Camada_1" data-name="Camada 1" xmlns="http://www.w3.org/2000/svg" viewBox="0 0 1024 768">
  <defs>
    <style>
      .cls-1 {
        fill: #413253;
      }
    </style>
  </defs>
  <path class="cls-1" d="M365.34,115.27c-2.8,3.48-6.73,4.77-8.84,9.52-1.55,3.49-1.45,7.57-2.75,10.94-2.22,5.79-6.03,7.92-7.92,16.03-.15.64-1.57,2.18.59,1.45,2.44-.83,7.68-6.35,11.53-8.15,2.7-1.26,7.14-1.86,8.85-2.91,2.85-1.75,5.91-9.77,10.08-12.37,3.5-2.18,8.93-2.38,12.33-4.78,3.65-2.58,4.19-7.77,6.67-10.01,1.62-1.46,5.43-2.11,7.35-3.35,5.23-3.36,11.05-8.57,14.49-13.73,4.06-6.1,6.82-19.17,16.86-9.74,9.41,8.84,1.1,19.74.38,29.57-.52,7.06,2.16,11.52-1.27,19.23-1.03,2.31-3.96,4.53-4.51,6.61-1.12,4.21-.29,10.81-1.45,14.8-1.06,3.65-10.67,13.13-13.19,18.45-3.49,7.35-2.05,17.4-8.09,23.12-2.25,2.13-6.96,4.33-9.13,6.93-4.15,4.97-4.57,13.74-9.39,19.45-3.36,3.98-8.01,4.63-11.99,7.68-6.64,5.07-10.01,15.13-16.78,19.14-3.81,2.26-9.23,2.61-13.42,5.4-4.82,3.2-6.79,8.43-13.8,9.28s-11.37-3.26-15.61,4.92c-3.8,7.32-.24,10.3-.16,16.88.05,4.4-1.91,8.48-.39,13.33s5.76,6.21,7.64,10.13c1.81,3.78.96,7.22,2.28,11.4,1.12,3.54,3.42,6.79,6.22,9.17,2.27-5.53,9.07-4.29,11.99-6.82,3.22-2.78,2.35-8.26,6.95-11.01,5.34-3.19,15.31-1.67,19.08-4.87,1.85-1.57,5.06-9.79,8.14-12.38s9.61-2.95,13.29-3.82l5.11-7.71c2.9-1.42,5.94.41,8.6.06,4.23-.56,6.72-5.33,11.51-5.67,6.8-.47,12.63,7.24,20.76,4.14,2.53-2.8,1.84-7.45.38-10.7-2.94-6.54-15.02-6.96-17.57-17.49-2.19-9.03.33-15.5,9.22-18.68,6.02-2.15,9.69-2.71,14.95,1.36,6.03,4.67,6.84,10.88,10.14,17.22,1.06,2.03,2.93,3.09,4.03,5.38,1.7,3.55,1.64,14.4,5.06,14.52s7.07-4.75,11.59-5.62c7.47-1.43,13.64,2.95,19.11,2.79,3.93-.11,9.15-3.79,13.91-3.89,3.01-.06,6.89,1.5,10.14,1.65,10.32.5,20.5-.62,30.6.17,5.57.44,8.39,7.02,15.19,4.93-.06-2.33-.14-4.59.37-6.9,1.56-7.01,8.02-22.95,13.26-27.77,6.29-5.78,11.74-6.56,19.16-1.98,4,2.46,5.72,8.02,6.34,12.48,2.47,17.82-24.01,13.06-18.66,32.28,2.08,1.98,7.31,1.55,9.74.26,1.44-.76,1.43-2.55,4.2-3.42,7.02-2.2,7.83.82,13.28,2.5,2.79.86,6.17.75,8.52,1.74,2.77,1.16,5.35,5.91,7.98,7.42,4.04,2.32,9.47,1.39,13.57,4.39,3.19,2.34,4.98,7.48,7.76,10.2,5.45,5.34,9.46,3.69,15.57,5.81,8.36,2.89,9.62,12.1,16.12,17.24.73.57,5.89,3.62,6.35,3.62,3.68.02,4.58-5.53,6.02-7.38,2.54-3.27,7.96-6.68,9.17-10.56.96-3.04-.71-5.47.14-9.2.84-3.67,4.63-6.65,5.85-10.38s-1.42-18.14-3.48-21.8c-2.82-5.03-10.89-4.26-16.15-6.94-3.05-1.56-5.22-4.47-7.99-5.74-3.24-1.49-9.48-1.46-13.67-3.38-8.18-3.75-8.83-12.59-14.51-17.99-4.41-4.19-11.99-4.73-16.27-10.24-3.55-4.57-4.86-15.03-8.78-19.01-2.15-2.19-7.71-3.46-10.41-7.12-3.27-4.44-1.91-10.71-3.71-15.96-2.73-7.98-11.01-12.8-13.28-19.21-2.08-5.88-.6-13.04-2.32-18.98s-6.72-9.83-8.14-15.88c-1.17-4.97-.17-10.55-1.12-15.06-1.99-9.4-8.56-15.77-4.8-26.01,2.18-5.92,6.2-7.61,12.34-5.54,4.01,1.35,10.12,11.7,14.15,14.92,3.3,2.64,9.33,4.75,12.13,7.96,1.6,1.83,3.13,5.89,5.04,8.22,5.22,6.33,7.69,4.41,14.27,7.1,7.27,2.98,5.87,7.25,10.42,11.82,5.86,5.87,17.25,8.85,22.28,17.06,2.27.19.81-.4.65-1.51-1.4-10.25-7.31-14.92-9.06-21.73-.92-3.59-.15-6.4-.64-9.63-.89-5.93-9.71-10.5-12.99-15.21-2.67-3.83-5.66-13.6-7.95-16.02-1.92-2.03-8.31-3.26-11.09-5.16-5.1-3.49-10.12-13.84-16.72-18.34-3.1-2.11-7.17-2.86-10.49-4.9-3.08-1.89-6.33-6.02-9.51-7.6-4.41-2.19-21.82-4.76-12.49-14.12,7.52-7.55,39.62-8.24,49.85-6.12,5.85,1.21,11.41,4.6,16.91,6.19,9.15,2.66,18.06,1.83,26.43,7.75,2.32,1.64,3.64,4.24,6.57,5.4s4.85.53,7.42,1.13c7.24,1.71,11.04,11.48,17.1,13.68,4.39,1.59,7.81.43,12.54,3.71,6.35,4.41,7.05,12.53,11.68,17.39,5.14,5.4,13.46,8.47,18.68,15.53,5.75,7.77,6.94,19.13,13.71,26.49,2.01,2.18,6.29,3.99,7.52,7.02,1.38,3.4.87,8.94,1.9,12.64,3.11,11.22,14.85,16.47,15.88,31.15.35,4.99-1.48,10.1-.83,14.52,1.02,6.87,6.08,12.45,5.09,21.45-.53,4.82-4.39,7.05-5.61,10.64-.76,2.22-.4,4.46-1.48,7.07-1.71,4.13-6.13,4.62-5.72,10.45.29,4.13,5.16,5.35,6.77,7.95,5.07,8.22.12,12.99.89,21.16.5,5.32,3.84,8.02,3.47,14.56-.31,5.29-3.05,7.45-4.46,11.81-2.16,6.66-1.52,17.34-5.82,22.4-2.55,2.99-6.38,4.7-8.93,8.18-3.95,5.4-3.46,10.81-9.48,15.32-4.3,3.22-11.16,4.38-14.56,6.82-3.17,2.28-6.22,10.34-11.58,14.08-2.78,1.94-12.47,4.84-13.2,5.61-.41.44-2.61,7.47-2.64,8.12-.12,2.91,4.13,7.36,3.89,11.07-.26,4.06-7.33,9.94-6.81,15.02.58.56,14.11-3.01,15.59-3.65,4.86-2.09,8.47-8.45,12.88-11.06,6.14-3.64,13.5-2.24,18.48-5.46,4.11-2.66,7.75-10.28,12.04-13.62,2.57-2,4.99-2.3,7.27-3.85,9.03-6.12,9.6-11.7,15.48-19.58,2.8-3.75,8.69-8.34,10.53-12.55,2.69-6.16.88-12.16,2.38-18.14,1.63-6.52,7.28-8.86,9.04-14.88,1.67-5.7-.96-10.47-.17-15.58.51-3.29,3.63-6.46,4.14-10.39.47-3.62-.6-6.43-.54-9.66.07-3.47,1.47-6.41,1.54-9.93.17-9.78-13.68-31.32,7.17-27.76,11.75,2.01,14.35,19.26,18.95,28.08,3.35,6.41,9.94,12.26,9.81,20.19-.09,5.65-1.52,7.91.03,14.44,1.35,5.71,6.66,11.54,6.82,16.34s-3.05,11.46-3.49,17.12c-.35,4.51.66,10.09-.2,14.33-.67,3.26-4.45,8.33-5.55,12.41-1.17,4.34-.53,9.16-1.9,12.64-1.28,3.25-8,7.81-8.91,9.97-1.28,3.06-.72,7.48-2.41,11.21-3.7,8.17-13.37,8.47-17.69,15.66s-3.52,11.82-12.39,15.92c-1.97.91-6.24,1.39-9.04,2.84-5.19,2.7-11.39,11.27-15.72,13.35-4.88,2.35-11.24,1.55-16.03,2.78-5.54,1.42-14.09,8-20.29,9.64-7.87,2.09-12.35-.2-19.45-.15-8.94.07-19.26,2.39-29.03,2.9-2.37.12-4.93,1.48-7.59.86l-4,11.15c3.54-.51,8.31,1.89,11.51,1.68s9.82-3.93,14.59-4.24,10.19,1.74,14.41,1.44c4.66-.34,10.49-4.36,15.5-4.86,7.14-.71,11.34,2.44,17.85,3.13,5.5.58,9.53-2.78,15.28-2.05,8.23,1.04,13.18,7.3,20.35,9.59,8.88,2.84,14.41-.04,21.35,8.58,1.65,2.04,2.4,4.63,4.37,6.75,5.72,6.16,18.2,7.66,21.35,16.28,1.49,4.08.24,8.08,1.37,12.31,1.3,4.85,6.21,9.8,8.13,14.11,3.07,6.87,1.5,15.16,3.5,22.15,1.03,3.59,4.78,7.85,4.94,11.37.21,4.52-3.24,12.48-4.11,17.32-2.53,14.15-2.51,17.07-7.76,30.8-1.71,4.48-.16,8.41-5.55,11.48-6.98,3.97-10.47-1.59-12.05-7.76-2.2-8.56-.93-19.81-3.32-27.67-1.32-4.34-10.67-23.46-13.42-26.77-3.26-3.92-8.01-6.55-11.11-10.26-2.9-3.47-4.46-9.52-7.68-11.99-4.27-3.28-15.69-3.98-18.37-8.99-.93-1.74-.65-4.18-1.83-5.87-1.61-2.31-7.48-3.7-10.23-3.58s-3.44,1.45-5.15,1.76c-5.44.97-10-2.25-15.32-2.55s-9.97,1.37-15.42.88c-4.35-.4-8.94-2.84-12.9-3.34-4.58-.58-9.69.5-14.27-.27-8.35-1.42-15.86-7.17-25.89-6.23-2.16.2-4.32,1.97-7.69,2.19-4.52.3-8.68-2.63-12.8-2.67-6.02-.07-6.86,5.6-10.67,9.05,0,1.05,8.51,2.89,9.82,3,8.88.73,16.32-2.07,25.06.59,3.91,1.19,6.63,3.36,11.08,4.31,5.62,1.2,13.49-.67,17.9.92,2.85,1.02,5.19,3.66,7.96,4.87,6.51,2.84,13.39,2.2,19.61,6.9,4.45,3.36,6.3,9,10.75,12.34,5.09,3.82,12.5,4.94,15.99,11.37,2.63,4.85,2.29,11.31,4.32,16.21,1.59,3.86,5.3,6.6,7.34,9.76,7.75,11.98.93,15.15,1.86,26.37.67,8.05,5.43,12.78,4.19,22.17-.75,5.7-4.72,10.04-6.35,15.02-3.37,10.3,1.86,14.09-6.42,25.22-4.44,5.97-11.3,17.62-15.8,21.83-3.84,3.6-3.99,4.24-7.29,8.11-8.77,10.27-19.22,6.26-16.88-8.33.7-4.37,4.63-10.79,4.9-14.84.24-3.63-1.19-10.15-1.2-14.43,0-3.7,1.46-7.11,1.03-10.88-.79-6.82-6.56-13.68-8.11-20.17-1.15-4.83-.17-11.72-2.36-16.42-2.62-5.62-11.63-9.79-13.08-16.01-.51-2.21-.05-4.42-.77-6.93-2.56-8.99-12.31-7.27-18.85-11.08-3.14-1.83-6.18-5.91-9.44-7.66-4.63-2.48-10.58-2.71-15.51-5.02-6.14-2.87-9.99-9.96-15.73-11.64-4.66-1.36-7.6-.28-12.62-2.77-7.06-3.5-9.26-11.75-19.15-10.66-3.19.35-7.64,6.43-5.71,8.96s10.9,4.03,14.53,6.05c3.5,1.94,6.12,5.07,9.79,7.32,3.45,2.11,10.83,4.19,13.02,5.8,4,2.93,7,12.04,10.65,15.86s9.32,5.91,12.51,11.44c3.89,6.73.42,10.8,1.35,17.41,1.07,7.59,7.77,13.71,7.44,21.49-.26,6.24-3.96,12.43-4.98,18.17-1.08,6.04,1.49,10.65-.5,16.61-2.01,5.99-7.65,8.35-9.89,11.71-1.53,2.3-2.7,8.53-4.34,11.69-3.77,7.3-24.82,21.06-32.66,25.5-6.76,3.82-35.83,19.61-29.39-.32,2.92-9.04,14.32-15.55,18.3-27.02,1.56-4.51,1.32-8.89,2.33-13.07,1.27-5.24,5.36-9.92,5.54-15.05.21-6.08-4.21-9.81-2.91-16.55,1.04-5.43,4.07-8.35,2.78-14.8-.58-2.9-2.36-2.33-3.69-3.93-3.72-4.47,1.39-10.38-3.79-16.53-2.83-3.37-8.04-4.36-10.72-6.62-3.12-2.62-3.92-8.25-6.4-11.56-3.43-4.58-9.39-5.81-12.82-10.27-2.28-2.97-3.74-10.75-6.6-11.41-1.67-.39-2.59,1.9-3.17-.96-7.95.75-14.17,4.18-21.02,6.38-7.71,2.47-15.88-1.61-23.55-1.31-5.26.21-12.57,3.35-17.1,3.04-2.68-.18-7.23-2.68-10.2-3.04-9.95-1.19-17.79,3.34-28.05,1.54-2.58-.45-5.15-2.33-7.88-2.37-5.28-.08-10.24,3.14-16.27,2.58-3.37-.31-6.7-2.29-10.26-2.56-3.15-.24-5.82.78-8.33.64-3.93-.21-16.66-6.58-18.6-5.42-2.23,4.85-2.39,8.54-6,12.87-3.18,3.81-8.5,5.82-10.84,8.4-2.02,2.23-3.74,8.7-6.53,11.43s-8.87,3.95-11.13,7.34-2.15,11.69-3.53,16.05c-1.05,3.31-4.49,5.33-4.65,9.03-.18,4.04,3.27,8.13,3.4,11.93.16,4.71-2.65,11.16-2.54,16.08.16,6.82,4.15,10.36,5.68,15.76,1.08,3.81.37,9.47,1.29,13.26,1.49,6.16,7.55,9.81,11.36,14.29s10.09,12.05,6.75,17.9c-5.2,9.11-15.91-1.38-21.53-3.97-3.97-1.83-8.51-2.32-12.46-4.64-3.77-2.22-5.86-6-8.69-8.41-7.83-6.67-17.38-7.11-21.61-18.58-1.38-3.73-1.54-9.08-3.25-12.14-1.34-2.4-5.43-4.91-7.2-7.34-5.57-7.61-2.24-16.72-2.56-24.76-.22-5.5-3.86-9.92-3.45-15.41s5.42-11,6.54-16.41c.79-3.84-.06-8.74.34-12.67.99-9.79,7.53-9.22,13.26-14.96,7.3-7.3,7.79-16.77,19.02-20.31,4.85-1.53,9.19-1.83,14.1-4.72,2.88-1.69,5.73-5.18,8.72-6.67,3.23-1.61,10.83-1.65,9.52-6.8-.44-1.72-2.54-5.64-4.34-5.98-12.12-2.34-15.75,7.77-24.38,11.55-5.06,2.21-11.77,1.84-16.03,3.64s-5.99,8.39-11.06,11.17c-4.46,2.45-8.33,1.81-12.85,3.4-4.96,1.75-8.43,5.85-12.66,8.72l-1.26-1.7c-.1,2.77-7.32,2.1-10.31,2.95-10.38,2.95-6.33,11.11-9.33,18.89-1.88,4.87-6.75,7.16-9.07,11.46-3.3,6.13-1.72,10.81-3.35,16.32-2.23,7.52-11.02,11.24-9.8,21.7,1.08,9.28.67,14.4,1,23.14s3.21,10.91,5.15,17.74c3.29,11.63-5.23,19.21-15.63,10.51-10.04-8.4-12.17-13.62-18.79-23.98-2.22-3.47-7.27-8.11-8.63-11.04-2.36-5.08-2.38-12.87-3.95-18.29-2.73-9.41-6.94-11.13-6.24-22.81.34-5.69,3.49-11.4,3.48-16.26-.02-5.86-3.33-10.18-2.64-17.11,1.1-11.02,9.89-15.51,13.46-24.16,2.67-6.46,1.17-12.9,6.23-18.57,4.42-4.95,11.14-4.42,15.07-8.44,8.27-8.46,8.33-16.09,23.53-17.95,3.7-.45,5.8.56,10.31-.81,2.74-.83,5.71-3.35,8.13-3.84,3.98-.82,8.67.12,13.11-.58,7.32-1.15,11.43-5.6,19.58-6.16,2.14-.15,4.49.62,6.31.43,5.91-.61,11.7-2.4,17.67-2.45.35-.27-2.8-7.43-4.03-7.72-2.23-.52-9.68.89-12.61.92-15.82.19-16.5-.61-31.2,3.85-5.52,1.68-12.13.5-17.53,1.29-2.8.41-6.71,2.91-9.51,3.32-6.57.96-11.95-2.06-16.95-1.62-4.12.36-7.54,3.83-11.2,4.26-7.38.88-14.11-4.74-21.59-1.92-5.72,2.16-6.35,7.82-10.56,10.82-4.27,3.04-10.25,3.24-14.18,7.62-2.2,2.46-3.35,6.59-5.83,9.14-2.61,2.7-6.25,3.88-9.01,7.24-7.17,8.76-8,14.49-11.81,24.1-2.08,5.24-6.8,8.39-8.47,13.77-3.13,10.1-.36,14.06-.22,22.88.11,6.67-1.56,4.55-4.11,5.81-.21.1-.27,1.49-1.82,1.92-4.5,1.24-7.83-1.81-10.2-5.35-1.74-2.61-9.75-21.12-10.2-24.01-.73-4.67.3-9.75-.2-14.33-.35-3.14-2.12-5.22-2.51-7.75-1.38-8.88,2.9-14.28,3.28-22.34.14-2.93-1.14-5.27-1.18-7.49-.16-10.18,9.26-18.29,13.12-27.53,3.42-8.2,1.76-17.32,10.34-22.16,2.68-1.51,6.57-2.06,9.03-3.8,3.38-2.39,4.95-8.03,7.77-11.04,8.22-8.78,16.58-7.16,26.53-9.34,6.45-1.41,15.55-7.42,22.01-6.94,4.21.31,7.99,2.71,12.96,2.57,4.32-.12,8.88-2.59,13.55-2.33s11.65,3.96,15.5,3.99c4.04.02,10.15-2.03,14.51-1.75,8.69.54,16.94,8.77,26.12.41-1.81-2.12-3.16-8.99-5.66-9.56-.92-.21-5.06.25-7.02.02-4.6-.54-10.58-1.96-15.08-2-5.18-.05-9.96,1.55-15.35.83-8.31-1.11-19.47-8.62-26.79-9.98-3.3-.62-6.69.16-9.98-.28-8.53-1.13-13.34-10.88-21.67-14.24-4.94-1.99-10.5-1.31-15.56-4.1-6.22-3.43-6.65-11.19-11.13-16.24-4.73-5.32-13.94-7.31-18.34-13.31-4.5-6.13-5.88-16.45-10.32-23.89-1.97-3.3-7-8.24-7.74-11.08-1.16-4.45.23-9.44-.61-13.93-.96-5.18-6.9-9.3-7.53-13.85-1.7-12.25,5.63-19.5,6.78-30.93.57-5.69-.61-12.16.31-17.65s6.92-12.1,8.75-17.76c1.21-3.75.84-6.95,1.71-10.27,1.64-6.25,12.14-14.37,15.38-20.53,19.56-6.54,11.46,12.74,10.74,22.71-.37,5.1.83,9.2.92,13.67.07,3.46-1.26,6.15-.83,10.16.66,6.09,4.89,8.3,6.51,13.15,2.49,7.48-2.44,14.61,1.76,22.19,1.52,2.74,3.76,3.56,4.73,7.25,1.99,7.61-1.24,11.91,4.15,19.8,3.05,4.46,8.82,8.34,11.83,12.35,2.65,3.53,4.92,10.73,7.65,13.49,2.32,2.34,7.84,2.19,11.07,5.17s5.89,8.91,10.42,12.67c6.43,5.35,11.81,2.97,18.48,7.18,4.07,2.57,8.53,8.53,12.75,10.34,5.09,2.19,11.53,2.61,16.59,5.21.38-.42-.68-10.05-1.07-11.32-.87-2.88-4.13-5.55-4.09-9.64.03-3.19,4.98-8.78,3.08-11.56-.8-1.18-6.11-1.66-8.32-2.82-3.9-2.03-7.77-7.95-11.42-10.81-3.41-2.66-8.33-4.28-11.22-7.17-3.86-3.86-5.66-10.76-9.26-15.13-5.11-6.2-13.08-5.86-16.12-15.5-3.49-11.09-2.24-5.62-7.99-12.96-6.88-8.79-.22-17.23-1.16-26.64-.59-5.96-4.2-13.88-3.32-20.43.95-7.07,8.88-13.67,8.55-18.92-.3-4.78-7.78-5.8-9.28-13.02-1.14-5.48.58-8.85.43-12.47-.1-2.43-2.3-4.43-2.94-6.4-1.19-3.64-.3-16.26.78-20.08.82-2.89,4.21-6.6,5.35-10.05,2.09-6.34.57-10.88,1.68-16.28,1.34-6.46,7.43-11.15,9.43-17.07,1.55-4.59.84-9.39,2.68-13.57,2.51-5.7,11.13-13.2,14.9-19.31,2.96-4.8,5.88-14.8,9.36-18,2.41-2.21,7.24-2.85,10.28-5.97s8.47-15.39,10.64-16.72c2.7-1.65,8.61-1.67,11.91-3.48,4.34-2.38,5.74-8.93,10.02-12.21s10.25-3.91,14.92-6.46c6.2-3.38,10.57-10.92,18-11.93,3.24-.44,6.32.19,9.8-.47,4.92-.93,10.94-5.39,15.98-6.25,3.81-.65,7.37.45,10.61.15,8.79-.81,27.27-5.92,34.77-4.07,2.52.62,5.68,3.03,7.67,3.49,4.25.99,6.89-.83,10.94,2.74,10.26,9.04-6.52,15.91-13.42,19.17-3.33,1.57-8.8,2.51-11.78,4.46s-4.35,6.38-6.94,8.45c-5.17,4.14-15.94,4.65-18.22,11.71-.77,2.37-.29,4.6-1.52,7.03-2.09,4.11-8.82,5.72-11.86,9.51-3.4,4.25-4.24,10.78-8.04,15.5ZM387.92,54.88c-6.84,1.84-14.51,3.54-21.18,5.72-10.65,3.48-25.19,9.13-34.8,15.62-2.89,1.95-5.75,3.97-8.57,6.02l4.7,49.59c9.38-10.02,14.45-23.16,22.38-34.47,10.19-14.53,22.68-25.17,34.51-38.18.5-.54,3.16-4.14,2.95-4.3ZM685.18,75.75c-9.77-5.61-23.84-11.73-34.55-15.58-5.47-1.97-13.29-3.75-18.99-4.43,4.77,4.24,10.86,7.18,15.8,11.13,14.69,11.7,25.8,26.73,35.23,42.57,1.33,2.23,4.89,11.78,6.79,12.1l4.1-3.45,15.84-22.47c-.21-1.24-13.34-13.3-16.13-13.45l.8-1.61c-3.14-.36-6.17-3.24-8.89-4.8ZM312.57,97.56l-1.18-4.2c-1.09,1.25-3.4,1.76-4.44,2.74-12.15,11.46-23.24,26.26-32.74,40.64l-5.14,9.21c-.18.59,2.12.91,2.66.84,7.75-1.01,18.24-5.79,26.29-7.39l.11-9.28c-1.45-.1-.66,1.74-2.27,2.42-.55.23-8.01,1.77-8.41,1.61-2.66-1.24-.28-4.76.91-6.54,2.75-4.11,8.72-8.34,9.8-12.88,2.22,1.86,1.52-2.79,4.76-.08.69.57,1.07,1.35,1.18,2.23-.56,4.92,4.09,30.35,1.35,32.92-7.57,2.15-15.4,3.75-22.92,6.05-.45.14-1.75.74-3.18,1.2-4.18,1.34-14.69,4.05-17.15,6.83-1.23,1.4-6,9.03-2.91,9.82l55.76-18.96-2.52-55.87-1.58-.82,1.63-.5ZM722.05,112.82c1.19-2.83-1.79-8.76-4.91-7.1-2.84,4.7-7.12,8.48-9.94,13.17-.88,1.46-3.5,5.43-2.5,6.99s20.74,4.48,23.92,5.19c1.59.35,2.87,1.21,4.4,1.67l1.67-1.76c.59,2.8,2.37.89,4.7,1.72l-6.1-10.15-8.93-.93c-1.5,4.44-2.06.06-2.64-.07-.96-.22-3.88.89-5.42.03-.21-3.04,5.38-7.88,5.75-8.75ZM639.33,178.87c-2.31.22-3.27-2.29-4.17-3.95-6.44-11.94-9.34-33.38-19.33-42.24-.58-.52-6.96-4.56-7.29-4.25,3,6.3,4.33,13.44,6.91,19.85,6.5,16.14,16.57,36.03,26.83,50.28,1.31,1.82,5.19,11.17,8.19,9.04l7.05-12.7c2.07-8.63,19.7-25.28,4.18-28.69-3.66,5.52-6.32,11.7-9.49,17.53-.57,1.04-.14,2.25-.36,2.63-.37.63-3.9,3.79-4.82,4.48.1-10.3-1-20.8,1.26-30.91-1.1-4.05-6.63-6.48-9.81-9.28,1.22,4.57-.39,11.4.24,15.7.11.73.91,1.34,1.46,1.84l-1.59.8.73,9.88ZM412.71,132.7c-1.52-1.39-19.55,14.98-21.66,16.45l-1.01,2.75-.4,32.1c2.45-1.99,6.62-8.94,7.32-11.91,1.23-5.22-1.4-13.44.13-16.94,1.73-3.95,7.34-4,9.53-6.75,2.37-2.98,2.21-8.52,3.61-11.75.53-1.23,3.3-3.21,2.49-3.95ZM753.07,160.06c.55-.56-5.04-13.15-7.46-13.47-15.63-2.76-30.49-8.39-46.4-9.61l.43,42.8c-1.04,1.09-12.29,1.19-13.7.64-.84-.33-1.35-3.12-2.97-3.24-1.25,2.78-4.78,4.78-5.14,8.54l29.09,5.58c3.85-14.94,4.34-29.56,3.41-44.91,6.03.1,11.36,1.62,16.09,5.29l.25,1.1c-3.17,7.24-4.13,15.37-5.13,23.27-.34,2.7-.57,5.7-.86,8.48-.77,7.36-.17,14.82-1.74,22.09-1.17.07-3,1.04-3.86,1-6.03-.28-35.2-10.8-39.2-15.01-.96-1.01-.83-3.86-2.73-3.46-1.43.3-12.79,22.48-13.92,25.48-1.56,2.99,4.52,13.34,7.48,11.29.41-2.99,6.04-23.76,7.35-23.99l15.35,6.96c3.11,1.32,8.03,1.28,10,3.61l24.64,7.09c2.08-9.16,4.71-18.21,5.83-27.58.36-3.03-.28-7.36.22-10.89,1.19-8.55,4.04-17.43,4.55-26.22,2.33-3.43,15.32,3.83,18.44,5.18ZM381.07,156.64c-5.33,1.6-9.56,4.52-9.05,10.53.28,3.23.67,6.84.5,10.42-.09,1.87-1.04,3.64-.85,5.56-1.35,1.41-4.79-4.36-5.52-5.18-.8-.9-2.1-1.19-2.74-1.94-1.1-1.3-1.75-4.92-3.91-5.98-3.57-1.74-2.88.62-3.88,1.07-2.21.99-4.74,1.84-7.03,2.65l27.79,27.33c1.37-.7.45-1.61.79-2.33.1-.21,1.31-.16,1.34-.72.03-.65-.73-1.6-.66-2.48,1.09-12.98,3-25.9,3.22-38.93ZM761.32,180.03c-2.03-1.99-15.87-13.21-17.65-11.42-.54,15.08-3.9,29.22-5.89,44.15-.56,4.21-.69,20.75-3.21,22.63-.69.52-2.34.81-3.25.75-2.42-.15-14.33-3.88-17.42-4.84-5.5-1.71-11.61-4.21-16.39-5.8-6.39-2.12-12.68-4.67-19.21-6.36-1.01.43-.97.97-1.14,1.85-.89,4.64-.97,9.74-2.33,14.38l5.54,3.36,4.79-11.04c3.96,1.78,33.67,10.53,33.7,12.33-5.57,12.1-19.52.8-29.06,1.29.47,2.38,1.39,2.97,1.66,5.53,8.41,2.34,14.75,7.62,23.56,4.78,3.11-1,8.87-3.59,10.9-5.74l13.49-3.73-.86-1.7,17.79-4.86c1.55-3.17,3.2-.34,6.05-2.11.2-10.22,3.52-19.75,2.73-30.06-1.86-.81-6.03-5.61-7.1-2.98-.93,2.29-1.89,13.48-2.03,16.51-.07,1.71,1.29,3.39.91,5.93-.78,5.22-4.5,8.43-9.42,9.86-2,.36-2.04-3.3-2.13-4.66-.82-11.96,2.61-25.66,3.53-37.72l-1.77-2.07c2.81.38,1.55-4.27,2.56-6.33,1.19-2.28,1.99,1.15,3.07,1.92,2.06,1.47,11.66,7.33,13.53,6.92l1.09-1.67c.56-2.59-4.16-7.29-6.02-9.12ZM255.58,232.54c2.05,2.19,8.37,3.52,11.35,4.46,1.67.53,3.32,1.84,4.65,2.18,7.62,1.96,20.32-6.23,27.66-9.16,3.75-1.5,16.3-4.33,18.51-6.29,3.38-2.99,1.18-13.99,1.39-18.48.13-2.95,1.17-5.76,1.25-8.82.19-7.54.2-15.19-2.58-22.29-2.85-3.13-14.19,1-18.02,1.73-5.65,1.09-13.72,1.96-20.06,4.32-4.2,1.56-5.7,2.01-5.63,6.8.05,3.69,2.76,20.59,4.2,24.05.42,1.01.67,1.34,1.84,1.18l-1.7.85,1.25,1.53,17.3-7.36c6.18-2.9,6.59-7.81.68-11.28-1.27,3.53-6.3,3.02-8.79,3.69-.14.04-.17,1.3-.74,1.43-7.22,1.61-6.1-9.99-2.61-12.57.49-.36,8.44-3.03,9.83-3.43,2.09-.61,14.87-3.55,15.58-2.82l1.34,11.72-.91,20.79-29.29,13.43c-1.79,2.55-6.03,2.38-7.49,5.39-.83.29-3.12-2.51-3.24-2.79-1.73-4.24-1.92-8.73-2.71-12.65-2.05-10.2-4.01-20.45-5.62-30.73-5.68-.84-9.41,2.39-8.35,8.11.09.46,1.23.35,1.33.83,2.01,9.76-1.42,5.92-3.19,8.19-.08.1.75,1.36.44,2.5-.74,2.67-2.65,4.36-1.31,7.71,2.28.54,3.62-2.57,4.47-3.17.23-.17,1.19.61,1.39.44.45-.37-.47-1.89.97-1.53l3.31,14.16-2.88,2.94c-.14-2.29-4.02-2.46-5.18-.88-.61.82.92,5.13,1.55,5.8ZM338.85,180.08c-1.71-1.14-3.5-2.21-5.66-2.06-.73,21.13-1.19,42.33-4.28,63.27,1.32-.95,4.39.12,4.95-.15.27-.13,3.07-3.24,4.3-3.85l1.9-26.41c-1.32-2.38.47-3.99.74-5.98.5-3.68-.6-8.06,2.23-10.62l11.28,11.36c1.6,5.49,7.05,7.43,9.26,12.57,9.71-5.33.23-10.51-3.6-14.85-4.95-5.61-15.29-19.39-21.1-23.28ZM351.14,216.5c-1.7-.06-1.73-.43-1.67,1.29.16,4.15-.07,8.23-.03,12.39.65.74,7.1-3.8,6.88-5.6.35-3.3-5.89-4.45-5.18-8.08ZM317.78,237.88l-26.5,8.55c8.08.04,14.7,9.65,22.42,5.09,3.81-2.25,2.34-6.34,2.56-6.65.28-.4,1.93-.4,2.31-1.53.54-1.57-.96-3.75-.8-5.45ZM274.86,259.52c-.47-.2-1.31.25-2.1-.09-3.96-1.68-7.73-3.86-11.78-5.36-5.72,11.41-6.3,25.41-5.63,38.17.94,17.72,9.07,26.95,20.83,38.55,1.14,1.12,2.46,2.43,3.46,3.37s12.8,11.27,13.34,10.61l1.59-11.85c-7.08-4.13-15.55-9.28-21.66-14.68-9.19-8.12-4.39-8.48.76-15.45,5.93-8.03,12.22-15.54,17.98-23.04,4.5-5.86,2.67-10.47-3.18-13.86-3.71-2.15-9.97-4.81-13.62-6.37ZM765.88,256.76l-3.31-.85c-1.64,1.11-4.97,14.45-3.68,16.9l-4.54,3.54c-2.31-2.98-5.06-14.58-8.67-15.25-1.57-.29-10.35,3.33-10.56,6.29,4.09,4.31,9.27,8.98,12.88,13.67.44.57.03,1.62.27,1.93,1,1.28,6.95,6.44,8.22,5.34.71-8.34,12.12-10.06,10.96-18.4-.08-.57-1.44-.05-1.62-1.63-.38-3.36.02-8.03.06-11.54ZM740.74,289.58c-2.62-2.61-6.16-4.53-7.77-8.09-2.07,2.42-3.05,7.66-.37,9.83,2.95,2.39,9.42,9.95,12.28,14.18,1.43,2.11,5.99,10.07,5.49,12.17-1.54,2.32-4.22,3.93-6.44,5.57-2.89,2.15-11.47,6.46-13.11,8.27-.78.86-.85,1.92-.85,3l-1.27-1.7c-5.45,4.89-8.06,2.73-13.24-.86-.06,1.91-2.8,4.03-2.12,6,.34.98,7.83,8.99,8.72,9.24,4.52,1.31,5.02-1.93,7.73-4.13,8.04-6.54,17.22-11.39,24.68-17.41.52-.42,5.85-6.04,5.95-6.46.89-3.57-1.1-4.08-1.35-6.54-.47-4.61,3.99-3.82,5.28-7.01l1.5.64,2.6-14.52c-.29-.34-6.2,3.43-6.78,3.9-7.51,6.01-5.31,10.88-16.1.2,1.42-2.75-.47-.82-1.7-1.7-.23-.17-1.77-3.22-3.14-4.58ZM181.81,296.9c-.02-1.41-1-8.45-2.99-6-4.09,5.03-6.59,36.77-2.74,41.66,2.77,3.51,8.13.45,11.73-.18l.83-1.66c-2.21-6.13-4.49-12.68-5.77-19.08-.88-4.36.32-10.6-2.75-14.35l1.69-.41ZM845.43,315.69c5.67-5.68,2.23-12.56,1.11-19.49l-2.82-6.15-3.35,12.47,1.62,1.2c-.66-.1-1.33-.09-1.67.63-1.08,2.32-1.3,8.6-2,11.58-1.13,4.77-2.26,9.7-4.02,14.3,3.35.43,9.31,5.21,12.05,2.18.27-.3,2.46-7.24,2.21-7.76-.5-1.04-1.92-1.01-2.58-2.35-.8-1.63-.18-4.89,1.16-6.18l-1.71-.42ZM525.36,294.57c-1.77-1.46-24.49-1.74-26.27-.67-4.38,6.11-9,12.49-13.99,18.08-15,16.82-26.23,27.67-50.45,23.26-15.01-1.29-24.6-10.03-33.63-21.16l-7.88,1.72-5.4,61.3c-13.93,1.16-27.97-4.17-41.51-7.31-1.56-.36-3.21-.03-4.75-.38-2.2-.5-5.55-3.56-8.93-1.81-3.92,2.03-.33,6.68,1.46,9.24,3.69,5.27,9.68,12.79,13.84,17.83,2.02,2.45,13.22,12.77,13.34,14.67l-2.67,4.42-22.01,16.32.08,5.36,1.7-.86c-.78,1.94-.37,5.75,2.55,4.72,3.38-1.18,8.43-7.32,11.59-9.83,2.76-2.2,21.18-15.24,21.41-17.03l-2.27-5.2-2.47.83c1.54-4.7-4.95-8.35-7.68-11.75-.46-.57-.51-1.62-1-2.24-3.4-4.31-8.7-8.32-9.27-14.19,2.6-3.69,26.78,6.24,31.44,7.42,2.87.73,15.73,4.1,17.16,1.83l-.67-11.49,1.57-.72c-.32-8.14-.85-18.89.51-27.02,1.71-10.24,4.53-9.12,13.86-9.87,18.06-1.45,37.45.84,55.48-2.88,13.86-11.16,23.9-26.75,38.63-36.61,2.62-1.29,5.45-1.7,7.87.25l19.74,17.96,2.53-.47c-1.75,4,3.36,5.32,5.61,7.65,3.38,3.49,6.02,7.67,10.22,10.3l.78-1.66,4.76,1.66c1.41-1.92-4.17-8.63-5.54-10.27-9.07-10.83-22.1-19.27-29.75-31.38ZM556.74,300.8c-.81-.72-1.19-2.05-1.99-2.68-2.66-2.09-9.36-2.36-12.9-2.52,4.35,4.19,8.12,9.03,12.38,13.29,2.53,2.54,3.57,2.76,5.28,5.08,1.96,2.66,10.16,8.55,13.08,7.26,1.28-.56,10.1-8.53,10.29-9.4.42-1.99-1.74-1.34-3-1.3-3,.11-8.26,2.09-10.68,1.41s-9.78-8.77-12.45-11.14ZM293.97,312.16c-1.41-2.2,4.37-12.24,1.58-16.12-4.36,2.95-7.67,6.69-10.98,10.81,3.22,7.21,8.67,12.82,14.86,17.39l1.5-4.82c-1.67-5.81-6.38-6.36-6.96-7.26ZM467.8,312.63c5.24-4.34,10.06-9.77,15.02-14.46-8.1-4.91-13.99,4.68-20.44,8.72-7.33,4.6-13.79,6.32-22.64,5.3-8.92-1.03-15.04-8.44-24.47-5.89-.7,8.26,9.42,9.66,13.87,14.28,15.83,1.9,25.44,3.01,38.65-7.94ZM730.18,307c-.19-.2.83-2.36-1.04-2.41-.8,6-9.8,13.1-3.86,17.86l12.19-8.01c-.41-4.76-5.63-5.75-7.28-7.44ZM611.42,312.58c.64-.76,2.6-.88,2.25-2.42-3.4-2.81-10.16-3.93-13.97-1.19-5.79,4.17-12.76,15.66-17.85,21.17l-3.24.54,1.56.52-.68,2.38c2.57.31,6.27,5.1,8.5,3.98.38-.19,5.64-4.93,6.27-5.58,5.4-5.62,11.91-13.2,17.15-19.39ZM516.49,317.11c-1.69-1.55-3-6-6.27-4.43l-18.02,17.94-.74,3.82c10.3,4.47,14.25-6.72,21.74-10.83,1.62.12,5.6,7.95,8.5,9.27,2.6,1.19,11.58.93,9.47-2.68-4.97-4.24-9.87-8.67-14.7-13.09ZM649.24,332.32c-3.86-3.45-17.61-15.92-22.31-15.43-3.63.38-5.15,4.66-6.94,6.41-7.25,7.06-14.9,14.15-22.38,20.79l-.26,1.09c3.24,18.77.9,37.57,1.28,56.38.08,4.14.03,20.45,2.24,22.31s16.84,1.51,20.62,1.78c2.43.18,4.85,1.03,7.16,1.2,6.51.47,14.17-1.54,19.66,2.57,1.27,2.08-1.19,22.54-1.35,26.94-.23,6.06,1.16,25.78-1.59,29.78-1.17,1.7-8.51,2.26-10.74,2.36l-25.72-1.72.53-37.63c21.49-2.42,12.29,13.09,15.4,26.4l8.78.09c.92-.22,1.27-2.25,1.33-3.1.39-5.31-.96-13.11-1.13-18.74-.27-8.48,3.46-10.73-7.2-12.73-4.67-.87-18.55.72-20.23.22-.48-.15-.23-1.39-.81-1.45-.93-.09-2.96.91-4.61-.07-.68,1.61-1.65,2.74-1.88,4.59-1.51,11.99.18,27.03-.82,39.36-.17,2.05-1.44,10.6-2.5,11.84-3.47,4.05-34.75,1.42-41.56,2.27-2.71.33-8.74,2.45-10.41,4.51-.17.21.53,1.09.36,1.3-6.44,8.14-12.3,16.87-18.6,25.2-4.34,5.74-9.67,11.19-14.11,16.92-.96,4.41,1.52,5.09,4.14,6.78.78.51.56,1.66.64,1.71.57.36,3.51-2.23,4.23-2.97,9.25-9.64,19.76-26.86,28.68-37.15,3.6-4.16,4.37-6.13,10.33-6.79,7.21-.8,21.63-.88,28.99-.48,1.34.07,3.29.34,4.33,1.19,3.83,3.11,7.06,24.88,10.55,30.34.12.79,1.69.69,2.18.54.4-.12,5.26-6.01,5.3-6.43.19-1.8-6.54-19.6-7.2-24.17-.48-3.3-.44-6.48.71-9.62,3.68,1.72,7.1.06,10.6-.05,8.48-.26,17.04.3,25.49-.15,3.13-1.03,13.92-14.58,15.51-17.86,1.89-3.89,3.21-24.23,2.7-28.61-.1-.87-1.63-1.59-1.32-2.08.07-.11,1.25.19,1.52-.4.41-.88-.02-6.84.18-8.58.63-5.39,1.46-10.86,2.56-16.18-2.65-1.67-2.59-6.01-6.33-7.26l-30.91.65-.88-1.6-13.43.03c-2.94-9.65-.21-20.37.29-30.35.42-8.34-.09-14.69-.06-22.21.03-5.98.19-11.92.16-17.9l3.02-3.99c4.19-1.59,13.3-14.48,16.24-15.27,2.45-.65,2.98,2.27,4.52,3.78,7.75,7.57,15.95,14.95,23.09,23.06,2.08,2.36,10.29,11.37,10.31,13.7l-13,14.73c-3.64-1.08-8.39,5.85-11.63,7-.43.15-6.18.88-6.49.76-3.79-1.49-4.27-23.76-3.96-28.07,4.77-.72,6.34,8.5,9.15,9.29,2.55.72,6.38-1.82,6.97-4.44-4.17-5.87-10.51-10.9-15.85-15.89-2.74-2.08-9.2,3.11-9.67,5.5l-.72,40.44c3.9,3.7,5.19,1.93,8.89,2.06,4.21.14,10.51.85,14.51.26,3.34-.49,17.49-11.92,21.11-14.98,5.65-4.79,11.28-10.86,16.89-15.85l-34.54-35.94ZM379.36,325.97l-10.98,6.97c-.26,3.28.04,15.6-2.89,16.79-1.86.76-10.58-4.43-12.62-5.79-.26,2.84-5.25,3.43-5.15,6.83l29.92,10.27,1.71-35.06ZM310.87,336.31c-5.08-.94-5.58.2-6.54,4.83-.2.97-1.17,8.54-1.05,9.14.18.85,2.73,4.75,3.01,4.8,3.56.66,2.21-2.7,2.77-4.83.65-2.44,2.8-3.65,1.03-6.32h2.58s-1.8-7.61-1.8-7.61ZM839.31,352.59l-11.86-5.7c-4.97,3.35-3.77,8.89-5.11,14.13.65.61,15.98-4.75,16.7-5.95.42-.7.71-1.72.27-2.47ZM201.65,365.17c-.09-.25.79-2.27.37-4.18-.83-3.81-3.68-8.17-4.83-11.95-9.43,4.05-20.46.72-10.12,13.57,2.12,1.22,5.73-4.66,8.51-1.02,2.19,6.42,1.01,10.1-5.19,12.67l14.52,13.26c-.48-5.38.27-15.72-1.25-20.57-.59-1.89-1.95-1.66-2-1.79ZM556.93,358.84c-14.24-6.55-30.42-10.61-46.07-6.99-1.74.4-7.78,2.24-7.51,4.04l-1.27-1.7c-4.65,4.22-12.38,6.82-16.96,11.08-.21.2-2.84,3.39-3.6,4.26-11.8,13.41-16.22,32.1-10.19,49.62,1.01,2.92,1.89,7.32,5.52,6.88l-2.56,1.69c4.3-.45,1.39.77,2.14,2.5,2.21,5.08,4.33,4.48,6.7,6.85.79.79.45,1.92,1.18,2.58,23.9,21.88,60.89,18.14,75.42-11.62,4.95-19.24-4.59-40.27-24.69-45.24-4.54-1.12-14.06-1.8-18.22.46-1.5.82-1.29,3.28-1.5,3.43-.14.1-1.7-1.07-3.42-.54-5.72,1.77-11.05,12.06-10.2,18,.1.69,2.97,8.34,3.3,8.66,1.11,1.07,2.7.93,3.25,1.48.85.84,1.38,5.84,5.11,4.27,7.92-3.34-.52-15.42,6.9-19.86,11.04-6.6,23.89,3.35,24.99,14.93,1.68,17.73-13.83,27.45-30.25,25.97-25.16-2.26-40.23-29.03-29.22-52.1,16.15-33.84,64.85-29.32,84.3-.41,11.82,17.57,13.53,31.56,4.99,51.21-14.66,33.71-57.36,41.87-88.23,25.19-16.9-9.13-27.88-21.81-33.38-40.26-.48-1.61-1.25-3.37-1.27-3.58-1.71-18.56,1.78-35.19,9.85-51.77,1.99-4.1,6.08-7.02,6.24-11.94l-2.31-.55c-6.55.86-46.26.04-48.91,4.06l-1.59,86.05c12.31,1.73,25.3-.31,37.67,2.1,23.48,35.55,72.38,46.35,108.63,23.59,8.63-5.42,22.24-20.03,26.14-29.45,6.79-16.4,5.92-38.19-1.52-53.15-2.21-4.44-4.93-8.47-6.93-13l-1.69,1.7c-.31-3.79-4.71-6.81-7.53-9.35-4.14-3.73-9.08-7.13-13.31-9.07ZM588.87,365.29c-.36-2.62.66-10.99-1.7-12.41l-12.83-1.27c-1.22,1.58,4.57,4.93,5.59,5.95.94.94,1.53,2.35,2.55,3.48,2.45,2.72,1.06,1.85,1.42,2.38.33.49,4.46,2.4,4.97,1.86ZM835.77,370.23c.33-.59.67-2.2-.16-2.35-3.12,1.51-10.67,2.64-12.81,5.15-2.54,2.97-1.83,9.9-3.03,13.64,7.54-.52,11.29-9.8,14.56-15.62.31-.55,1.34-.65,1.44-.81ZM811.23,392.66c-1.99-7.15,2.68-15.16-.43-22.22-5.32,7.37-10.85,14.82-18.4,20.09.05.95,17.97,3.04,18.83,2.13ZM216.87,374.71c-.96-.23-2.15.28-2.29,1.24-.06.43.65,8.26.86,8.64.47.88,1.36,1.2,2.29,1.24l-2.57.85,1.86,12.26,7.55,3.98c-1.27-5.7.58-13.65-1.45-18.65-1.53-3.79-5.33-5.46-6.26-9.57ZM698,388.94c2.14-3.63-2.12-12.22-3.07-11.66-1.01,1.7-3.91,5.11-5.44,6.54-2.78,2.58-17.32,16.29-18.75,17.17-.88.54-2.4.14-3.67,1.02-2.42,1.68-2.61,5.47-.75,7.72,2.49,3.01,7.56,6.75,10.36,9.73.54.58.55,2.15,1.51,3.17,2.12,2.27,8.23,9.77,10.65,6.26.81-1.17,1.62-2.76,2.58-4.01l-12.35-15.14c-2.33-5.24,10.42-12.43,13.84-15.66.66-.62,4.91-4.83,5.1-5.14ZM326.04,386.98c-1-.97-2.67-1.54-3.55-2.85-8.47,9.2,7.09,17.38,7.23,23.61.08,3.56-5.35,4.14-5.15,8.35,2.3,1.37,3.32,4.31,6.48,3.99.63-.06,9.13-7.23,9.82-8.14,3.69-4.89-4.37-11.33-7.65-15.5-.59-.75-2.02-.9-2.43-1.38-.43-.51-2.44-5.82-4.75-8.08ZM235.81,408.8c1.17.74,12.72-2.37,12.7-3.74l-13.66-9.83.96,13.57ZM398.94,402.15c-3.95.37-17.39-5.51-19.6-3.96-1.24.87-.98,1.83-.41,3.03,1.61,3.34,9.29,8.77,11.95,11.94l-.66,3.2-44,34.88,4.88,6.04,17.59,12.38c2.26,4.95-5.23,7.9-4.4,11.11l12.08,14.52c1.23-8.04,4.24-22.01.2-29.28-1.63-2.94-3.26-4.44-6.62-3.22-.43-1.26,3.33-.63,1.7-2.54-1.01-1.18-9.37-4.76-11.4-6.14-1.9-1.3-2.74-1.75-1.2-3.92l23.17-15.52.56-2.64,1.27,1.7c4.45-5.68,14.54-7.15,14.78-15.17.05-1.65-.76-3.19-.68-4.89.11-2.31,1.62-10.04.78-11.5ZM697.5,412.32c2.91-3.1,3.32-8.08,2.54-11.96l-6.02,5.63,3.48,6.33ZM806.94,402.93c-9.89.83-22.78-5.82-17.88,11.03,3.38,1.35,3.59-1.77,4.38-2.27,1.66-1.04,5.18-.35,9-3.93.42-.39.08-1.74.34-2.12.15-.22,5.09.22,4.17-2.72ZM777.01,402.93l-3.68,1.05-12.56,10.05c5.93,1.98,11.08,4.3,17.02.74l-.78-11.85ZM269.9,418.33c-3.55-.33-5.21-2.99-8.96-3.45-2.64-.32-14.16-.7-14.88,2.26-.96,3.92,6.2,3.39,8.03,5.45l1.26-1.69c-.61,2.14,3.1,2.18,4.74,2.09,1.25-.06,11.88-2.46,9.82-4.66ZM758.21,425.17l-10.64-2.62-7.31,4.75c-.04,1.72,9.31,1.06,11.11.86s3.49-.57,5.11-1.29l.85,2.57.87-4.26ZM674.36,433.73l-2.51-.02c-2.72,8.59-3.56,16.68-4.29,25.66l2.16.78c1.6-3.13,5.78-6.83,5.62-10.12,3.93.22,1.65-.76,2.13-1.85,1.12-2.55,2.83-3.53,2.05-7.02-.15-.68-6.14-4.87-5.16-7.42ZM399.72,466.96l-1.55-29.82c-1.68-.16-.35,2.03-1.03,3.23-.18.31-5.12,4.21-5.57,4.5-.43.27-2.18.98-3.38,1.67-2.68,1.53-3.95.27-5.4,4.72,2.47.6.81,1.8,1.77,3.25,1.42,2.14,4.15,4.77,5.78,7.01-.64,14.56-.99,30.16-.93,43.9l-1.49.52c2.01,5.5,8.06,7.81,11.55,12.42l1.11-18.37-.84-31.68-1.56-.82,1.55-.53ZM460.28,478.51c-.98-1.01-2.42-1.61-3.56-2.86-2.39-2.6-6.33-10.32-9.79-11.6-8.96.33-19.03-1.72-27.8-1.32-3.21.15-4.05-.19-5.57,3.07l1.65.77c-2.46,19.41-.98,38.97-.12,58.43.07,1.66-.8,3.24-.72,4.91.37,7.42,9.37,7.14,14.97,7.31,22.98.69,46.2-1.16,69.13.69,2.82-.81,18.82-20.63,21.95-24.49s7.13-8.58,9.78-12.73c.18-.28.93-.29,1.33-.34.1-.17-.95-2.26-1.23-2.5-1.31-1.1-24.75-1.39-25.93-.64-.42.27.21,1.63-.58,1.5-.48-3.06-3.17-1.88-2.68.88,1.16,6.42,10.95,6.69,10.83,10.56-3.51,2.37-5.32,6.46-9.8,7.41-4.3-5.74-8.58-10.6-14.63-14.62-7.27-4.83-19.64-16.67-27.24-24.42ZM585.46,482.03c.35-3.99-.25-8.36,0-12.4-6.72,5.21-12.18,12.59-20.53,15.83-.33,1.86.87,1.31,2.17,1.29,3.34-.04,16.4-.7,18.07-2.78-.05-.65.23-1.31.29-1.94ZM776.16,480.75c-4.45.61-9.81-1.8-13.67,1.28,1.56,1.25,11.1,11.73,12.81,9.83l.86-11.12ZM266.48,481.61c-4.8,1-16.52-3.28-19.72,1.21-2.33,3.27,1.68,12.49.92,16.74,8.17.41,5.62-6.04,9.4-9.84.83-.84,11.37-6.39,9.4-8.12ZM743.53,481.79l-8.41,1.53c-1.2,1.65,8.63,9.75,10.03,11.3.17.19-.54,1.11-.36,1.31,3.24,3.61,7.96,4.11,12.55,4.48.37-.62-2.24-5.3-2.76-6.24-.96-1.73-3.8-4.73-4.94-6.37-1.08-1.54-3.37-7.83-5.12-5.6l-.84,1.1-.14-1.52ZM294.7,483.32c-3.11-.55-5.78-1.54-8.78.2l-20.29,15.17c6.03.31,11.79-.91,16.69-3.36l12.38-12.01ZM225.43,485.89c-3.32-.61-9.76,1.52-11.31,4.49s-2.71,14.4-3.16,18.25c-.25,2.09.63,3.09.7,4.25.02.28-3.02,1.12-1.6,4.64l5.13-.86-.75-1.58c7.8-1.86,3.87-10.59,6.81-16.29,4.98-1.87,3.71,4.51,5.49,5.05,4.66,1.39,1.77-9.02,1.02-11.28-.49-1.46-2.31-5.17-4.01-4.98l1.7-1.69ZM722.58,489.85l-3.28-3.73-4.79,2.73c-2.39-.07-7.1,1.44-3.79,4.56,2.92-1.79,4.04.86,4.41.94.42.1,1.32-.41,2.12-.24,4.79,1.01,9.53,2.3,14.43,2.87l-9.1-7.13ZM806.09,486.74l-5.4-.92c-.52,1.95-3.46,4.01-4,4.95-.75,1.3-5.68,12.75-5.84,13.69-.76,4.75,5.17,5.41,7.94,1.9,1.55-1.97,8.2-18.61,7.3-19.62ZM308.18,488.68c-4.14-1.75-9.12,4.91-8.34,5.74,3.39.33,8.3,1.08,11.11-1.29,1.46-1.23.38-1.14-.49-2.1-.33-.36-2.13-2.29-2.28-2.36ZM827.58,508c-.11-.09.57-1.44-.17-2.73-2.24-3.9-7.42-6.61-11.52-8.1-1.45,1.55-6.98,10.35-5.53,11.79l23.95,4.27c.25-1.63-1.72-.46-2.51-.91-.17-.1,1.21-1.58-1.31-3.4-.98-.7-2.57-.65-2.91-.93ZM201.49,497.86c-1.22-.17-2.26.38-3.15,1.13-.3.25-5.02,5.54-5.17,5.91-.54,1.33-.2,2.7-.24,4.07l-2.41-.75-2.3,2.45.85,1.69,11.45-2.63.96-11.87ZM629.03,510.72c-9.77-2.97-15.79,3.93-9.78,12.78,1.3.29,12.11-10.06,9.78-12.78ZM585.32,519.37c-.74-.46-15.55-.34-17.41.03-6.97,1.37-13.69,15-19.77,18.94-2.1,2.86-4.48,5.51-6.67,8.32-1.38,1.76-.65,4.05-3.9,3.36l.87,2.56c-3.05-.43-10.26,9.07-4.27,9.03,5.99-.04,7.83,1.61,11.98-3.44,8.32-10.11,13.73-19.33,23.36-28.38,3.6-3.39,5.95-5.87,8.68-.3,3.02,6.15,4.3,15.59,6.42,22.24,4.13.35,4.3-4.74,8.57-5.62l-7.87-26.73ZM841.68,528.13c-2.41-1.31-5.03-2.1-7.55-3.16l-18.62-4.88c-.88.7,1.84,2.94,2.27,3.31,6.27,5.32,16.7,9.35,24.89,11.85,5.73,1.76-.07-3.31,1.91-5.75-2.06.74-2.49-1.15-2.9-1.37ZM197.8,530.1c4.24-7.2-12.01-3.11-16.19-3.12-3.64,3.08-5.03,8.14-5.77,12.76,1.64,1.64,18.84-8.56,21.96-9.65ZM345.1,538.1l-9.38,1.19c-2.13,4.09-4.34,8.92-8.11,11.57l-.4-1.69c-4.27,1.08-7.68-3.67-10.74-4.24-1.87-.35-5.64-.23-7.62,0s-5.11,2.06-6.02,2.39c-.77.28-3.52-1.79-2.99.56l26.52,10.26c1.21.33,3.8.25,4.97-.11,1.99-.62,1.77-1.58,2.52-1.95,3.41-1.68,5.36-1.11,7.78-5.73.9-1.72,4.75-11.32,3.47-12.23ZM363.97,539.76l-5.97-.87-1.73,5.98,2.57-2.56,1.27,1.7,3.85-4.26ZM672.68,540.61c-3.08.96-8.04-1.58-10.25,1.7l2.37.43c-1.77,2.42,2.58.08,3.43,2.92l7.02,3.5c.46-3.64-4.26-4.93-2.57-8.54ZM693.04,541.63l-9.23-1.02c-.71.68,4.9,12.57,5.97,14.11,2.43,3.48,9.52,6.49,7.4.62-.08-.23-1.12-.21-1.21-.61-.89-3.99-.11-9.16-2.94-13.1ZM718.01,546.58c-.74-2.1-10.8-2.84-12.05-2.16l.08,8.15c1.54.84,7.72-2.2,9.07-3.41,1.63-1.47-1.11-3.2,2.9-2.58ZM566.8,560.92c.53.2,8.88-3.57,9.18-4.62l-4.64-11.4c-.37,0-3.3,3.94-3.88,4.72-.89,1.19-1.53,2.05-2.53,3.36-1.11,1.47-6.14,6.81-5.13,8.15,1.26-.65,5.26-1.82,6.43-1.57.52.11.4,1.29.57,1.35ZM848.74,550.96c-.25-.36-7.37-3.3-8.44-2.24l9.39,18.38c3.32-5.52.22-9.04-1.34-14.26-.19-.65.49-1.73.38-1.89ZM173.27,573.95c-1.23-7.37,5.48-14.52,6.99-20.81.26-1.07,1.23-.95-.58-2.25-8.4,4.4-6.75,7.76-7.7,15.85-.27,2.28-3.68,6.7,1.28,7.21ZM452.92,554.29l-.02-3.41c-1.4-.37-.4,1.5-1.39,1.73-3.6.82-17.44-1.26-18.98.12l-.99,3.27,2.56-1.7c-.42,4.32,7.62,5.07,10.93,6.59l50.29-.55.71,1.57c2.78-.77,4.59-.73,6.53-2.99-2.53-8.9-10.77-5.54-17.65-5.63-10.17-.14-20.38-.8-30.61-.68l-1.37,1.68ZM720.87,562.19c.54-.78,4.37-2.31,2.7-4.47-3.54,2.39-8.13,3.16-12.25,4.9-1.03.44-2.29-.37-1.83,1.46s4.26,5.15,6.2,4.66c1.68-1.34,3.56-3,4.93-4.62.54-.64.03-1.62.24-1.93ZM312.66,563.71l-13.68-5.14,5.09,9.84c.89.4,4.8-1.29,5.93-1.86,1.33-.68,3.18-.9,2.66-2.85ZM753.43,567.61c-2.48-2.88-4.68-6.48-8.94-6.96-3.65,6.1-13.43,12.36-12.46,20.16.37,2.99,1.56,5.17,4.78,4.27-.97-3.86,1.34-3.15,2.56-4.68,2.94-3.69,10.41-15.63,11.83-3.22.97,8.48-7.28,12.99-8.9,18.13-1.16,3.69,2.67,7.54,4.33,10.77,1.24,2.41.84,5.48,2.99,8.53l23.11,16.65c-1.24-2.44-.4-8.05-1.66-9.84-1.38-1.97-4.63-3.07-6.44-4.71-3.14-2.86-13.22-11.83-13.77-15.32-1.45-9.22,11.56-15.5,11.3-19.29-.04-.59-4.64-9.35-5.38-10.57-1.08-1.78-2.2-2.56-3.36-3.9ZM282.98,566.88c-1.66-1.6-2.52-5.3-6.24-4.53-3.37.7-10.56,8.73-12.13,11.87-2.76,5.5.07,7.59,1.94,12.55l1.64-.83-.76,2.18c1.51.04,1.98,4.58,2.1,6.32.78,10.84-3.77,14.86-12.54,20.07-1.71,1.01-3.97.59-4.36,2.87l-1.54-.66c.41,3.7-1.68,8.03,1.28,11.11.98-2.99,2.56-1.75,3.92-2.8,3.71-2.84,6.48-6.2,9.71-9.22,3.98-3.71,12.51-9.94,12.86-15.73.41-6.75-4.96-10.43-5.55-16.27-.24-2.34-.34-13.91,3.73-13.19,2.96.52,7.06,12.44,9.11,15.32,1.82,1.02,4.35-7.57,3.91-9.4-.11-.45-3.8-8.03-4.13-8.37-.62-.64-2.18-.52-2.98-1.28ZM402.45,584.21l-1.27-1.68c-4.53,2.82-9.51,4.71-14.38,6.83-1.19.52-1.84.71-3.13,1.25-2.61,1.1-8.1,2.35-8.59,4.71l-2.54-1.7-1.71,3.84c.78,1.2,1.67,1.2,2.94,1.34,2.8.31,12.67,1.04,14.83.22,2.59-2.94,6.83-5.23,9.35-8.16.18-.2-.59-1.17-.45-1.35.47-.58,2.51-.95,3.35-2.27.92-1.43-1.28-3.33,1.6-3.04ZM632.49,599.61c.65.45,15,0,15.86-.32,1.58-.6,1.63-1.83.86-3.13l-26.12-11.93c2.55,4.98,5.64,10.23,10.06,13.84l-.66,1.53ZM258.63,601.13c.2-.29-.18-6.16-.34-7.06-.15-.83.05-2.38-1.21-2.14-.71,3.99-2.91,6.98-1.71,11.11.71-.56,2.99-1.53,3.26-1.91ZM769.31,593.63h-2.56s1.7,1.28,1.7,1.28l-5.16,5.98c2.18.48,1.41,2.2,1.86,2.83.16.23,3.88.23,5,1.88l-.65-2.52-1.04-.89,1.56-.09v-3.81s-1.49-.75-1.49-.75l.77-3.91ZM368.97,608.38c-.61-.23-4.17,1.58-5.85-.22l-.87,3.42c.44.47,7.42,2.16,7.96,2.52.69.46.59,1.66.66,1.71,1.62,1.02,12.76-8.97-1.4-6.05-.49-.04-.35-1.31-.51-1.38ZM661.56,610.74l-15.38.41c1.68,3.74,1.34,5.44,6.45,5.43,2.85,0,2.86-2.07,3.11-2.19.73-.33,6,.32,5.82-3.65ZM368.91,633.19c-1.13-1.12-10.39-3.44-12.32-3.6-5.17-.43-2.66,2.37-3.78,5.28-.36.94-3.27.96-.87,4.59l-1.64.78,1.96,1.14c2.56-1.65,9.31-5.58,10.07-.29.53,3.73-2.88,5.91-4.7,9.06-3.99,6.92-7.9,11.89-3.04,19.6,1.26,1.2,2.82-2.36,3.23-3.15,3.99-7.69,11.14-19.42,12.1-27.33.13-1.05-.29-5.36-.99-6.06ZM668.31,631.31l-16.19,3.92c.31,3.19-.56,6.55.51,9.67.75,2.19,9.91,14.91,11.86,17.19.7.82,1.5,1.54,2.63,1.68,2.12.31,2.2-4.88,1.99-6.21-.81-5.04-9.16-12.73-9.27-13.93-.12-1.3.81-2.55.9-3.82h9.39s-1.81-8.5-1.81-8.5ZM260.49,662.89c-1.42-2.44.24-3.49.49-5.08,1.37-8.54,2.58-17.13,3.78-25.7-1.33,1.09-10.09,7.66-10.26,8.3-.68,2.5,1.92,19.54,3.41,21.2.78.87,1.25,1.57,2.58,1.28ZM768.98,651.56c1.6-7.35-3.36-14.07-10.78-15.17l5.14,29.92c1.15-.47,2.09-3.59,2.48-4.77,1.12-3.36,1.12-6.13,1.82-9.16.15-.67,1.31-.7,1.33-.82ZM647.03,699.66c1.62.38,2.02-.92,2.99-1.71,3.08-2.51,11.08-13.8,11.48-17.62.59-5.67-5.16-10.19-8.06-14.87-1.13,11.54-2.32,23.29-6.41,34.2ZM374.23,696.24l-6.41-27.34c-4.53,3.17-1.16,8.51-7.19,9.48.82,1.28.4,3.35.83,4.39.31.75,8.71,10.83,9.75,11.75.94.83,1.41,2.08,3.01,1.72Z"/>
  <path class="cls-1" d="M442.49,365.58c1.72-.04,7.36-.14,7.82,1.91-10.63,20.59-14.38,44.64-5.14,66.56-.55,1.79-13.89,2.57-15.77,2.2-3.77-.72-4.53-7.36-4.68-10.72-.54-12.72.55-34.08,1.81-46.86.32-3.24.84-9.75,3.86-11.51,1.03-.6,10.42-1.55,12.09-1.59Z"/>
  <path class="cls-1" d="M399.9,339.64l.85-11.97c1.25-.93,4.96,2.73,5.95,3.89,3.22,3.74-3.97,7.27-6.8,8.08Z"/>
  <path class="cls-1" d="M446.56,478.54c3.59,2.94,6.56,6.7,9.28,9.1,8.28,7.32,17.11,14.16,24.87,22.17l1.27-1.7.09,3.37,2.49.05c.08.05-.79,1.13-.63,1.52.91,2.16,8.58,8.27,10.42,10.48.56.67,1.81,2.25.49,2.98-9.92,1.16-20.09,1.73-30.09,1.63-2.05-.02-4.26-1.17-6.35-1.22-10.35-.27-21.37,1.9-30.93-2.77-1.53-1.34-2.94-19.84-3.15-23.31-.24-3.76-.81-17.25-.29-20.52.6-3.85,2.19-7.97,6.77-7.69,6.69.42,10.72,1.77,15.77,5.9ZM442.22,510.68h14.11c-1.69-8.91-11.62-11.27-16.67-17.1-1.47.93-.81,1.3-.75,2.39.15,2.67.88,13.98,3.31,14.71Z"/>
  <path class="cls-1" d="M283.53,273.02c1.21,1.74-8.44,11.34-9.72,13.7-1.71,3.15.05,1.89-2.61,5.04-.85,1.01-5.33,7-6.43,5.98-3.19-10.73-3.66-22.46-.85-33.35l19.61,8.63Z"/>
  <path class="cls-1" d="M360.85,73.13c-5.63,6.51-11.12,13.82-16.52,20.68-1.1,1.4-10.26,14.77-11.13,14.08-.44-5.32-2.39-20.33.08-24.28,2.94-4.7,25.94-11.79,31.13-16.76,1.98,3.78-2.11,4.6-3.56,6.28Z"/>
  <path class="cls-1" d="M683.49,83.42c2.28,1.54,7.43,5.48,9.31,7.35,2.31,2.3,4.51,4.34,3.82,7.99-.11.58-1.26.64-1.33.82-1.32,3.32-2.19,6.59-5.95,8.15-1.22-.17-10.02-16.99-11.62-19.64-1.8-2.99-6.9-7.09-5.48-10.96,3.88,1.83,7.7,3.9,11.24,6.3Z"/>
</svg>