<?xml version="1.0" encoding="UTF-8"?>
<svg id="Camada_1" data-name="Camada 1" xmlns="http://www.w3.org/2000/svg" viewBox="0 0 1024 768">
  <defs>
    <style>
      .cls-1 {
        fill: #413253;
      }
    </style>
  </defs>
  <path class="cls-1" d="M710.41,515.62c8.45,8.66,37.38,32.91,48.32,35.16,8.54,1.75,18.6-6.03,26.75-8.8,41.12-13.97,86.4,8.53,93.39,52.66,2.26,14.3-1.08,14.64-2.8,25.92-1.31,8.61-.1,11.05-3.89,20.11-7.13,17.06-24.28,35.44-42.38,40.62-6.26,1.79-13.17-.47-14.56,7.44-1.89,10.76-.08,14.13-5.85,25.15-30.88,59.03-137.79,29.55-125.12-42.12,1.68-9.52,7.05-18.1,5.49-28.03-2.48-15.77-28.84-45.95-40.74-57.25-2.6-2.47-14.71-13.06-17.06-14.02s-9.68,5.7-12.65,7.33c-31.19,17.15-40.64-23.04-65.27-29.33-4.88-1.25-11.1-.21-14.41-1.56-6.27-2.55-9.6-11.47-15.92-15.11-5.62-3.24-30.08-11.73-36.46-12.54-8.37-1.07-20.17,1.79-27.2-2.8-8.51-5.56-6.38-7.48-18.83-11.17-15.04-4.46-43.92-11.85-58.96-14.05-11.07-1.61-13.9,3.35-24.59-4.41-2.66-1.93-5.94-6.55-8.62-7.38-3.94-1.22-9.17-.06-13.44-.56-12.23-1.43-14.51-9.82-22.92-15.08-8.97-5.62-22.48-10.14-32.36-15.64-8.52-4.73-16.81-11.41-25.31-15.69-4.9-2.47-15.56-5-18.56-7.44-3.18-2.59-6.9-14.3-11.92-19.08-6.96-6.62-17.67-2.84-22.03-13.97-2.65-6.77-3.12-11.86-6.99-19.01-9.23-17.07-22.23-32.28-28.55-51.45-3.43-10.41-2.42-19.59-11.48-27.51.3-13.53-7.79-29.94-7.37-42.62.3-9.06,5.24-18.07,2.39-27.42-.68-2.24-2.8-4.42-3.28-6.7-1.89-9.04,7.56-27.03,8.65-37.9.7-6.99-2.05-23.46,2.19-27.82,2.71-2.78,8.63-3.19,10.97-6.03s4.82-12.94,6.79-17.21C216.44,42.44,317.32,1.39,410.01,24.49c17.14,4.27,31.78,13.09,50.29,10.71,3.33,1.48,3.96,5.31,6.17,7.83,6.88,7.84,17.66,5.75,25.87,11.13,4.38,2.87,8.01,8.55,12.19,11.81,3.78,2.94,8.86,4.42,11.99,7.01,4.03,3.33,5.34,9.3,8.51,13.49,8.78,11.59,21.86,23.06,31.37,35.63,7.01,9.26,13.71,22.18,20.63,30.37,3.47,4.1,11.79,7.45,13.22,10.78,1.67,3.85.29,8.99.84,13.16.93,7.2,12.28,26.43,15.68,35.32,5.69,14.89,8.99,34.27,15.03,47.97,2.35,5.32,7.73,7.51,8.8,13.27.91,4.91-2.88,10.17-2.5,16.38,1.1,18,13.13,62.66,20.14,79.91,3.69,9.08,11.57,17,14.26,23.74,2.11,5.28.6,10.46,3.09,14.91s9.66,6.55,12.32,12.68c1.92,4.44,1.41,10.3,3.67,14.33,5.49,9.8,19.26,16.31,25.28,30.72,6.53,15.64,2.26,24.35-7.52,36.86,0,1.42,9.23,11.23,11.07,13.12ZM334,56.01c-39.61,2.05-80.69,26.71-105.97,56.52-20.83,24.56-38.39,56.81-40.02,89.47,12.78-7.74,15.18-23.1,20.81-35.68,16.4-36.64,46.83-70.33,83.5-87.5,9.84-4.61,30.6-8.63,37.07-14.93.91-.89,5.54-7.07,4.6-7.89ZM431.65,112.35c-8.28-8.13-21.54-12.38-32.86-9.07-16.14,4.72-32.12,28.4-13.74,40.17,9.33,5.98,6.35-4.74,6.95-9.95,1.97-17.04,23.39-17.92,29.89-2.89,12.39,28.67-21.62,47.83-46.17,39.17-25.81-9.11-35.15-36.94-23.6-61.15,19.5-40.87,70.61-39.13,100.4-10.65,7.25,6.93,13.41,21.33,19.98,26.02,10.31,7.35,6.39-10.75,4.25-16.25-20.1-51.76-105.29-64.23-136.79-16.27-37.96,57.81,24.74,125.19,81.95,89.95,24.41-15.04,30.85-48.34,9.73-69.07ZM284.73,104.19c-6.16,1.31-6.14,8.98-2.29,12.87,4.46,4.5,18.84,7.29,17.52-2.47-.91-6.75-8.69-11.79-15.23-10.39ZM505.71,165.7c5.85-4.98,7.09-32.5,6.18-40.09-.78-6.51-6.51-19.83-13.88-20.61-.49,15.52-.87,30.98-.96,46.54-.01,2.35-1.16,4.47-1.01,6.84.31,4.81,4.84,11.44,9.68,7.32ZM278.74,148.74c8.91-9.55-17.65-20.5-27.25-12.76-4.93,3.98-3.26,9.29,2.24,11.79s20.38,5.94,25.01.97ZM590.99,265c.19-8.69-3.22-17.35-5.97-25.52-8.86-26.36-25.29-60.09-40.99-83.01-1.5-2.19-11.07-16.67-11.1-6.99,5.53,12.94,14,24.91,20.6,37.5,11.16,21.3,19.38,43.73,29.62,65.38,1.99,4.21,4.15,9.94,7.85,12.64ZM367,212.01c-2.05,1.82,10.74,10.97,12.62,11.87,27.55,13.13,66.49.27,85.35-22.41,10.23-12.3,21.56-36.13,8.72-49.75-4.79-2.24-7.01,13.14-8.2,16.27-12.16,31.83-42.33,48.97-75.98,47-3.25-.19-21.66-3.74-22.51-2.98ZM335.34,299.34c-65.57,66.46-153.08-23.62-97.32-89.82,35.87-42.58,92.77,1.29,74.17,42.17-11.79,25.89-51.44,17.21-39.7-11.7,1.89-4.65,9.83-12.04-1.98-12.08-22.22-.07-23.59,31.91-12.02,46.09,17.01,20.86,49.12,13.54,65.02-5,41.2-48.01-30.73-129.92-88.53-82.53-36.87,30.23-43.72,89.22-11.5,125.53,38.58,43.49,114.77,27.34,137.53-24.5,3.38-7.7,8.92-25.6,1.69-32.2-6.05-5.53-8.48,13.51-9.42,16.47-3.89,12.26-9.26,18.77-17.94,27.56ZM518.71,181.21c-11.55,2.65-17.64,26.1-17.78,36.28-.23,16.79,11.04,40.51,25.14,49.94,7.36,4.92,11.99,1.68,18.95-1.91,2.93-1.51,18.77-11.27,20.06-12.96,2.4-3.16-1.96-8.77-5.48-8.57-7.5.42-18.51,15.35-29.1,8.01-14.9-10.32-19.75-33.21-13.69-49.69,1.79-4.85,10.48-15.03,10.21-17.77-.39-4.04-5.41-4-8.31-3.33ZM541.72,210.2c-7.16,1.59-11,17.89-5.01,19.63,7.95,2.31,15.07-12.1,11.38-18.43-1.45-1.83-4.31-1.66-6.37-1.2ZM474.72,225.18c-8.73,2.58-4.01,20.53,5.57,17.66,5.93-1.77,2.94-20.17-5.57-17.66ZM429.78,253.28c-48.01,5.72-52.89,73.84-9.83,94.27,8,3.79,16.98,1.64,9.49-7.48-9.23-11.23-21.84-16.34-22.48-34.54-1.35-38.18,35.87-43.55,60.57-20.55,10.1,9.41,13.49,17.09,6.65,29.69-15.96,29.41-40.59,60.19-59.19,88.81-5.56,8.55-24.49,34.83-26.51,42.49-2.39,9.03,10.43,9.28,14.95,3.94,8.12-9.59,17.11-28.07,24.57-39.43,19.6-29.84,41.1-58.78,59.83-89.17,9.57-15.52,13.52-19.13,2-35.63-12.74-18.25-36.87-35.16-60.03-32.41ZM435.71,467.7c2.51-2.13,7.85-15.36,10.12-19.37,5.23-9.25,10.72-18.63,16.36-27.64,21.03-33.63,55.94-92.82,88.29-113.71,15.43-9.97,24.94-10.43,40.87-.81,2.3,1.39,7.91,8.46,7.61,1.46-.85-19.97-20.91-27.98-38.19-22.37-43.37,14.06-83.59,84.11-105.93,122.07-7.68,13.05-16.59,27.34-23.18,40.82-3.54,7.25-10.91,18.34,1.65,20.67.91-.17,1.71-.52,2.42-1.12ZM447.65,300.35c-11.23-10.47-28.55,1.97-17.05,14.55,12.36,13.51,29.73-2.72,17.05-14.55ZM583,374.5c1.7-7.87-1.26-21.44,0-30,0-2.51,6.29-.23,7.78.22,5.98,1.82,11.71,5.33,17.69,7.28,4.08-4.38-1.7-15-5.45-18.52s-26.68-12.11-31.46-11.5c-2.04.26-3.15,1.57-3.53,3.55-.96,5.02,1.21,32.47-.97,34.05-7.01,1.58-27.41-9.66-32.66-5.67-6.28,4.78-.77,40.71-2.84,49.15-1.02,1.46-7.96,1.08-10.11.98-7.58-.35-16.48-1.9-23.97-2.05-4.32-.09-5.32,2.05-5.03,6.05.43,5.88,9.27,39.27,8.12,41.01-7.75,5.92-48.26.04-35.45,18.32,3.5,5,13.2.46,18.51-.24,6.53-.86,29.72-1.88,33.36-4.64.78-.6,1.54-1.2,1.84-2.2,1.86-6.25-10.02-38.58-8.83-40.27,10.58-3.15,21.92,1.43,32.55.03,4.39-.58,5.26-3.53,5.53-7.56.55-8.2-1.77-21.25-2.11-29.95-.13-3.2-.17-6.43,1.16-9.42,3.65-2.29,25.18,8.26,30.42,7.47,1.21-.18,5.2-4.93,5.46-6.09ZM365.72,332.14c-.94.26-4.29,3.48-4.38,4.33,3.29,10.75,10.59,19.52,17.69,28,2.91,3.48,8.85,6.28,6.44,11.48-6.69,5.71-20.37,31.7-26.48,34.52-6.79,3.13-22.1-9.54-29.5-9.51-4.65.02-9.11,5.82-7,10.04.73,1.46,25.36,13.79,28.83,15.17,9.16,3.64,10.66,4.64,17.65-2.71,9.44-9.92,26.51-32.05,34.44-43.56,7.29-10.58-5.13-14.06-11.88-19.94-8.54-7.43-13.31-20.25-20.01-25.98-1.6-1.37-3.63-2.44-5.79-1.84ZM312.76,362.25c-5.13-5.2-13.84,8.43-15.63,12.37-2.13,4.68-7.58,22.06-2.12,24.94,9.96,5.24,23.64-31.34,17.75-37.31ZM271.85,364.15c-7.76-3.74-21.24,10.23-13.42,15.93,5.61,4.09,18.65-9.1,13.42-15.93ZM351.65,366.34c-8.65-8.35-15.29,5.43-6.66,14.16,10.61,10.73,16.66-4.51,6.66-14.16ZM625.75,380.25c-4.33-3.75-12.07,1.68-15.66,4.34-30.01,22.2-73.14,70.3-88.9,104.1-3.3,7.08-2.39,16.65,6.85,11.84,24.93-43.51,58.27-82.43,98.03-112.96,1.52-1.53,1.1-6.09-.32-7.32ZM634.67,410.23c-2.69.23-7.74,4.24-7.63,7.28.07,1.86,14.49,26.44,16.4,27.54,4.71,2.69,14.49.27,11.78-6.77-.76-1.99-14.25-23.55-15.78-25.22-1.24-1.35-2.76-3.01-4.77-2.84ZM606.77,434.17c-5.35.66-8.69,5.63-7.32,10.85.71,2.71,13.98,21.12,16.26,21.8,4.67,1.39,10.86-5.77,9.88-9.82-.64-2.65-13.32-21.46-15.63-22.52-1.3-.59-1.88-.48-3.2-.31ZM670.75,459.24c-6.53-6.44-23.69,8.8-28.77,13.24-14.48,12.69-39.45,42.9-46.37,60.63-2.57,6.57.33,15.39,8.13,11.62,12.76-24.12,27.63-46.16,48.24-64.25,4.09-3.59,19.12-13.03,19.84-17.21.21-1.2-.23-3.2-1.07-4.04ZM581.73,461.13c-3.15.46-10.79,9.08-8.22,12.86,5.2,5.06,24.56,32.17,28.27,13.28,1.13-5.75-8.18-15.92-12.27-20.27-1.86-1.98-5.21-6.23-7.78-5.86ZM580.7,511.29c-1.28-1.61-17.52-13.03-19.28-13.27-5.8-.78-12.12,7.62-9.95,11.98.65,1.31,21.11,13.81,23.14,14,6.16.58,9.67-8.22,6.09-12.71ZM789.1,666.1c23.82-3.34,52.14-17.92,58.61-42.88,12.2-47.03-42.86-70.82-76.72-42.72-21.9,18.17-10.09,55.1,20.4,51.4,7.92-.96,22.59-9.37,15.47-18.25-5.94-7.4-10.35,2.15-14.9,3.81-11.81,4.33-17.46-14.91-8.5-23.5,11.35-10.87,32.1-10.87,42.07,2.02,14.68,18.98-.19,44.36-19.84,52.21-45.27,18.06-90.18-33.21-57.7-72.68-29.76-14.11-52.3-36.88-74.06-60.98-3.06-4.69-16.62,9.67-17.46,11.51-1.63,3.6,9.35,17.51,11.54,21.52,2.68,1.36,9.06-5.79,15.43,2.5,7.58,9.86,2.11,21.06,5.1,29.9,1.73,5.11,21.58,27.6,26.48,35.52,7.1,11.49,12.85,22.82,10.89,36.93-.68,4.87-4.44,11.02-5.62,16.38-10.4,47.39,58.42,58.44,67.44,14.44,1.08-5.28.75-11.74,1.36-17.14Z"/>
  <path class="cls-1" d="M682.72,177.23c24.99-5.16,30.95,32.23,5.66,34.67-22.87,2.2-26.11-30.44-5.66-34.67Z"/>
  <path class="cls-1" d="M416.71,606.21c22.97-5.22,26.05,27.86,4.79,27.87-17.44,0-20.37-24.33-4.79-27.87Z"/>
  <path class="cls-1" d="M747.35,665.35c15.96-14.67,34.23,11.79,19.18,23.68s-33.64-10.38-19.18-23.68Z"/>
  <path class="cls-1" d="M704.65,568.11c5.53-1.82,11.47,13.24,6.73,14.82-5.82,1.93-12.9-12.78-6.73-14.82Z"/>
</svg>