<?xml version="1.0" encoding="UTF-8"?>
<svg id="Camada_1" data-name="Camada 1" xmlns="http://www.w3.org/2000/svg" viewBox="0 0 1024 768">
  <defs>
    <style>
      .cls-1 {
        fill: #413253;
      }
    </style>
  </defs>
  <path class="cls-1" d="M547.5,20.38c3.21,2.96,6.78,8.41,10.02,11.29s8.41,4.63,11.17,8.13c4.18,5.28,6.42,16.99,10.06,20.5,1.33,1.28,3.47,1.95,4.81,3.23,4.67,4.44,2.34,11.43,2.91,17.2.91,9.24,5.23,19.95,6.36,29.44,9.13-10.17,15.77-21.22,26.95-29.74,10.87-8.29,34.61-18.99,48.22-19.36s-1.36,14.88-3.75,21.21c-1.17,3.1-.91,7.04-2.08,9.19-.97,1.79-4.45,3.69-6.17,5.89-6.96,8.89-3.62,13.65-6.65,22.3-1.49,4.24-5.23,8.5-7.06,13.05-2.07,5.16-2.98,10.73-4.43,16.06l15.91-10.22c12.45-6.27,26.79-9.24,40.77-8.26,4.44.31,16.63,1.06,14.75,7.45-.62,2.11-15.77,10.28-19.08,13.12-3.52,3.02-5.62,7.59-8.07,9.62-4.75,3.95-9.74,2.9-13.34,10.8-3.25,7.13.72,4.06-6.44,11.24-12.69,12.73-21.83,23.53-30.27,39.69-.96,1.85-4.73,9.2-4.65,10.63.2,3.66,7.17,5.62,9.56,7.25,5.15,3.51,5.74,7.74,8.9,12.01,3.33,4.49,9.59,7.68,13.2,12.54,2.6,3.51,3.37,7.3,6.12,10.77,2.04,2.56,8.42,6.6,9.21,8.48,1.18,2.8.1,8.29.43,11.64.88,9.09,9.25,17.57,10.38,25.81.83,6.07-.81,12.1-.8,17.62,0,5.02,3.85,15.69,1.57,20-8.03,7.7-15.79,15.96-24.02,23.44-3.43,3.12-8.52,7.65-12.07,10.45-.81.64-1.03,1.55-2.42,1.19.97-2.28,1.25-6.02.78-8.42-.81-4.19-27.35-26.54-31.36-32.17-1.1-.61-2.24-.62-3.42-.26-1.94.58-17.33,17.05-20.28,19.99s-17.66,15.23-17.34,18.82c.41,4.65,33.42,28.51,37.82,34.62l-12.88,11.29c-.57.42-1.14.37-1.8.27-1.25-.18-17.53-13.53-19.9-15.57-4.83-4.13-12.03-12.72-16.47-15.69-1.04-.7-2.67-1.54-3.92-1.41-2.11.23-15.62,15.46-18.58,18.32-6.41,6.17-13.45,11.81-19.66,18.19-.19,1.08,7.81,8.65,9.17,9.96,7.2,6.98,17.61,14.51,23.76,22.07.83,1.02,2.34,2.15,2.02,3.66-.33.73-10.99,10.54-11.72,10.87-.87.4-1.52.51-2.4.06-8.35-6.95-16.63-13.97-24.92-20.98-3.89-3.29-6.08-7.91-11.92-8.29l-26.87,33.01c-3.89,6.97-2.85,8.66,2.2,14.28,2.81,3.13,20.57,18.26,20.97,20.02.81,3.53-11.21,10.57-12.65,13.65l-2.27-.71v3.21c-2.45-.2-2.94-2.87-4.87-4.38-2.42-1.88-5.57-2.84-8.42-5.25-5.68-4.81-9.17-11.79-14.06-17.3-1.71-1.93-5.26-3.51-6.8-6.07-1.71-2.84-2.1-8.12-3.5-11.78-2.51-6.54-8.24-11.32-9-18.35-.51-4.69,1.12-10.33.62-14.22-.72-5.56-4.07-11.06-4.62-17.16-.74-8.18,1.06-16.35.78-24.51l-8.29,21.06c-2.18,6.41-7.58,12.09-10.22,17.94-1.67,3.7-1.07,6.84-2.47,10.38-2.06,5.23-7.35,7.72-10.25,12.27-2.38,3.73-3.32,9.32-5.39,12.3-2.37,3.43-9.64,6.8-13.26,10.87-4.03,4.54-6.57,11.28-11.65,14.89-3.44,2.45-6.78,2.34-10.21,4.29-6.08,3.46-6.32,6.98-15.77,8.41-4.92.74-11.39,2.09-15.83,2.59-10.97,1.22-16.84-6.13-25.01-6.36-5.17-.15-8.02,4.26-14.22,2.96-2.31-.48-4.18-2.76-7.11-2.61-3.45.18-8.83,4.12-13.53,4.85-8.38,1.3-9.45-1.03-15.77-2-3.96-.61-8.24.44-12.46-.4-5.89-1.18-20.19-10.35-24.89-14.51s-7.56-9.32-11.61-13.32c-2.45-2.42-6.65-4.21-8.81-6.47-2.65-2.78-4.23-8.1-6.93-11.56-5.3-6.79-9.72-7.89-13.46-17.1-4.05-9.98-3.45-10.72-9.7-20.05-5.21-7.78-3.78-12.14-6.35-20.19-2.23-7-6.03-12-8.03-20.12-5.1-20.75-6.04-44.47-2.43-65.48.63-3.67,2.5-7.61,2.9-11.58.8-8.08-1.97-10.12,3.13-17.78,5.61-8.42,6.01-9.75,10.24-18.71,2.89-6.13,7.93-8.49,11.99-12.94,2.11-2.31,3.73-5.92,6.08-8.39,4.17-4.37,26.95-17.34,32.6-17.33,2.69,0,4.83,1.26,7.98.82s6.73-3.25,9.9-3.79c8.64-1.45,26.45,1.27,34.96,4.07,8.12,2.66,15.64,7.82,23.57,11.03,7.64.08.04-16.6-1.87-19.86-8.97-15.31-17.84-11.96-32.49-15.76-30.12-7.82-51.55-26.76-64.06-54.97-5.31-11.98-8.47-25.93-15.06-37.22-2.78-4.77-12.53-13.17-4.74-16.93,6.9.11,14.96-1.74,21.69-1.7,5.03.03,17.7,1.8,23.25,2.55,4.13.56,6.8,3.65,10.07,4.41,5.97,1.38,8.19-.88,14.48,3.21,17.98,11.68,35.7,19.51,46.04,40.01,5.95,11.79,10.27,32.88,9.49,45.98-.19,3.18-1.65,7.2-1.54,10.34.08,2.37,2.22,9.9,4.38,10.98,1.33.66,1.31-.94,1.56-1.61,9.93-26.14,16.12-51.17,38.66-70.74,1.3-1.13,10.82-8.3,11.61-8.54,2.11-.65,4.23.11,5.94,1.4,1.18.88,11.37,12.03,11.84,13.09.59,1.33,1.64,5.74,1.17,6.88s-16.89,12.88-19.74,15.69c-3.47,3.41-5.48,7.84-8.31,10.59-1.74,1.69-5.42,3.21-7.36,5.11-4.82,4.74-4.41,8.79-6.69,14.22-4.92,11.7-10.52,16.21-13.57,30.66-.4,1.91-3.48,12.78.59,11.87,17.59-13.51,34.53-18.24,56.71-17.36,12.63.51,18.52,5.87,28.32,7.06,3.25.39,9.99-1.32,12.25-.23,1.19.57,3.54,6.01,5.61,8.07,3.33,3.31,9.48,5.09,12.09,8.02,3.58,4.02,3.76,13.96,10.07,16.51,4.57.53,5.58-7.32,7.6-10.89,5.05-8.95,6.22-8.18,9.89-19.06,1.66-4.94,7.87-6.96,11.46-10.25s4.68-7.34,7.67-10.02c4.34-3.89,18.03-5.61,17.65-12.84-.19-3.65-12.95-23.25-16.07-26.63-2.49-2.69-5.91-4.48-8.06-7.22-3.04-3.88-4.72-9.29-8.43-13.28-3.44-3.71-8.9-6.3-12.1-10.42-6.82-8.77-7.4-11.74-17.81-18.37-3.95-2.52-13.61-6.15-16.3-8.62-6.39-5.88,3.67-9,8.34-9.58,21.64-2.71,42.79,2.22,59.96,15.65.86-1.11-5.42-17.92-6.64-20.29-2.14-4.17-6.27-6.35-7.99-9.7-2.91-5.65-1.22-9.54-6.29-16-5.11-6.52-7.24-11.08-11.7-17.48-2.36-3.38-12.47-11.84-11.03-15.12,2.14-3.65,8.12-2.83,11.88-2.62,17.97.99,38.18,11.91,50.79,24.4,3.09,3.06,6.73,8.93,9.93,11.38.81.62,1.02,1.56,2.41,1.2,1.38-7,.44-14.13,1.16-21.16.56-5.47,2.7-11.47,2.89-17s-2.36-9.77-1.6-14.47c.52-3.21,3.49-5.02,4.59-7.47,1.26-2.79,1.03-6.32,2.19-9.07.68-1.61,2.32-2.66,2.65-3.78,1.66-5.59-4.76-16.26,3.37-18.35,5.03-1.29,7.48.67,11,3.92ZM564.67,132.29v17.29c-4.12-4.25-6.92-9.9-10.85-14.48-3.11-3.63-7.24-6.84-10.46-10.43-6.57,7,3.77,13.96,7.6,19.12,3.07,4.13,8.62,11.54,10.11,16.23.92,2.89.24,6.06,2.01,8.86,1.84,1.34,7.61-13.44,8.06-14.85,7.84-24.34-2.58-66.95-12.76-90.24-2.55-5.83-5.63-12.03-9.4-17.15l-1.21,4.44c.06,12.78,7.96,23.63,9.66,36.15l-1.6.83c-2.07-1.21-7.48-6.38-9.68-4.86-1.76,1.64.86,5.88,2.08,7.61,2.2,3.12,6.39,5.85,8.81,8.89,4.19,5.28,5.58,11.87,6.02,18.5-1.54,1.78-14.72-12.54-16.93-13.27-2.57-.85-4.26,1.68-3.98,4,.59,4.98,19.09,18.28,22.53,23.35ZM637.05,94.9c-1.9-2.11-19.12,15.28-20.51,16.87-18.6,21.26-43.69,75.47-46.13,103.45-.34,3.92-.77,8.3,4.21,8.41.56-2.06,2.99-2.76,3.53-3.44s2.58-13.49,3.63-16.13c1.24-3.14,14.92-15.25,18.28-17.9.81-.64,1.03-1.55,2.42-1.19-1.51,7.9-9.96,31.15-7.68,37.83,1.02,2.98,5.88,3.68,8.09,1.58,5.74-29.11,11.85-58.49,19.92-87.04,2.65-9.39,5.33-19.07,8.81-28.19,1.82-4.78,5.41-9.07,5.44-14.26ZM550.99,221.15c2.46-18.28-3.64-37.77-11.25-54.28-7.39-16.03-20-34.68-31.75-47.86-2.3-2.58-20.5-21.32-22.93-19.28,13.43,19.8,22.73,42.14,30.57,64.71,6.6,19.01,12.33,38.19,14.01,58.37l5.96.64c1.53-.95.29-11.68.02-13.86-1.87-15.24-6.45-31.76-11.75-46.15-2.83-7.69-6.67-14.87-9.06-22.7,17.95,23.29,27.84,51.3,33.69,79.95l2.48.47ZM249.43,168.87c-.95,1.04-8.75-6.09-10.2-7.09-8.86-6.13-18.69-11.21-29.2-13.81,7.66,8.02,18.24,13.53,26.71,20.91,1.86,1.62,10.38,9.51,10.97,10.97.51,1.25.54,1.98-1.08,1.9-8.92-.45-19.54-5.31-28.95-4.84l-.39,1.6c1.99.01,1.91,2.04,3.77,3.07,2.14,1.19,8.15,2.77,10.88,3.59,5.64,1.7,21.55,4.09,25.18,6.18,4.14,2.39,10.93,12.04,14.04,16.11-4.4-.11-8.85.19-13.26,0-5.6-.24-12.87-2.54-18.1-.4,5.67,3.64,14.03,5.31,20.74,6.6,3.88.75,12.22.67,14.86,2.03,2.13,1.09,9.47,13.99,11.83,11.88,1.66-4.81-.17-9.03-2.26-13.41-1.23-2.57-6.24-8.65-6.56-10.33-.68-3.57.31-8.9-.03-12.84-.49-5.8-1.26-16.83-8.03-18.1-1.34,7.03.42,13.96,1.21,20.91-2.73-3.94-9.82-9.26-11.83-13.1-2.98-5.7-4.5-20.01-7.85-24.32-.49-.63-4.35-3.34-4.85-2.78l2.4,15.27ZM628.21,193.81l34.56-39.41c-14.63,8.2-35.82,20-34.56,39.41ZM509.18,205.07c2.54-22.77-22.22-37.09-40.2-45.03l22.93,23.31,17.27,21.72ZM579.96,242.87c-2.72-.28-6.46-1.6-9.12-.68-1.56.54-7.66,10.08-10.62,10.36s-9.89-9.1-13.18-10.14c-2.52-.79-6.51-1.04-7.92,1.64-.1,1.42,17.22,17.81,19.18,18.5,2.14.75,2.93.34,4.74-.84,2.3-1.49,14.86-13.99,16.16-16,.63-.99,1.01-1.6.77-2.85ZM589.91,297.24c5.88,5.73,15.9,16.92,21.82,21.22,1.54,1.12,3.46,2.43,5.47,2.32.59-.15,4.86-5.34,5.72-6.4,4.97-6.11,17.31-21.51,20.46-27.79,1.13-2.24,1.33-4.35.55-6.77-.3-.93-7.94-9.52-9.26-10.84-4.17-4.19-17.57-15.84-22.57-17.64-6.32-2.28-6.97-1.12-11.66,2.77-8.88,7.37-17.84,18.22-25.21,27.15-.35,1,.2,1.51.65,2.26,1.65,2.8,11,10.78,14.03,13.73ZM523.38,257.62c-1.95-1.75-5.2-5.32-7.57-5.72-6.79-1.15-20.26,9.31-25.13,13.88-1.65,1.55-12.4,13.58-12.72,14.66-.52,1.76.02,3.62,1.11,5.02,8.75,8.39,16.44,22.59,24.86,30.62,1.7,1.62,3.59,3.13,6.04,1.99.6-.28,8.27-7.54,9.68-8.85,9.06-8.37,17.13-17.79,25.61-26.73.6-2.21-1.38-4.22-2.7-5.86-4.49-5.58-13.73-14.12-19.19-19.01ZM366.24,279.25c-4.54,4.72,7.81,14.67,10.92,18.84s6.41,9.48,8.6,13.91c1.47,2.98,5.71,15.88,7.2,16.62l2.03-.21c2.76-3.47,19.93-24.19,20.13-26.5.23-2.73-3.71-6.05-6.44-4.77-3.61,1.68-11.49,16.9-14.01,16.46-5.58-8.53-10.12-17.98-16.58-26.09-1.91-2.39-7.04-9.12-9.92-9.06l-1.92.8ZM174.74,379.48c3.7.79,6.63-1.13,7.56-4.7,1.41-5.44.46-14.82,1.72-21.54,5.84-31.14,25.13-58.09,57.85-63.64,16.82-2.85,23.71,3.44,37.57,9.7,4.11,1.85,8.48,4.23,12.24.69,1.48-2.3-2.87-4.67-4.71-5.82-51.5-31.99-97.54-5.58-111.31,49.84-2.78,11.18-2.42,24.12-.93,35.46ZM393.14,280.82c-5.79.04-6.87,11.21-1.73,11.93,6.69.94,6.78-11.96,1.73-11.93ZM336.57,354.36c1.8,1.68,12.45,2.82,15.96,3.74s21.94,7.3,23.39,6.9c3.55-.99,6.6-19.83,6.7-23.76.3-11.94-5.74-26.31-12.7-35.91-4.47-6.17-22-25.53-30.41-19.42-5.1,3.71-8.49,21.51-11.35,27.65-6.82,2.2-14.19-15.29-17.33-15.88-3.03.45-5.62,3.31-4.78,6.32,1.25,4.5,20.16,22.19,24.97,21.73s8.34-18.37,10.07-22.95c.98-2.59,2.18-5.06,3.3-7.58,1.63-1.12,11.63,9.39,13.21,11.2,3.25,3.74,12.88,16.96,13.24,21.38.07.87-.44,3.42-1.32,3.62-4.02-.17-11.17-1.68-12.16-6.26-.75-3.46,1.14-10.58-5.37-9.91-8.71.91-2.74,18.05.45,22.46,10.12-1.06,24.67,1.67,20.08,15.01-.88.53-1.82.39-2.78.32-5.91-.48-16.84-5.5-23.79-6.83-3.05-.59-12.76-2.81-12.88,2.42-.03,1.19,2.57,4.9,3.49,5.77ZM595.54,342.09c1.96-1.89,5.11-2.61,4.41-6.15-.47-2.36-16.17-17.48-19.17-20.31-6.34-5.96-13.26-11.51-19.76-17.32-1.66-.16-5.67,3.51-7.22,4.85-11.01,9.47-20.77,22.08-31.79,31.74-.44.47-.74,1.04-.8,1.69-.22,2.45,10.51,13.52,12.89,16.06,2.93,3.13,23.29,23.73,25.35,23.73,12.86-10.54,24.13-22.79,36.09-34.3ZM460.14,370.73l30.17-29.73c.79-1,2.53-3.31,2.51-4.45-.05-3.24-24.38-29.82-27.46-34.97-.75-.33-3.11,9.18-2.68,10.67,1,3.49,17.87,16.08,18.35,22.72-.08,2.67-11.61,12.9-14.08,15.65-1.59,1.78-8.21,9.12-8.85,10.49-1.3,2.78,1.79,6.68,2.03,9.62ZM653.66,320.59c1.1-1.18,6.69-7.35,6.71-8.14-2.54-10.33-4-9.54-10.42-2.41-7.4,8.22-13.58,17.97-20.82,26.37.22,2.56,27.62,29.97,31.64,33.55,1.15,1.02,4.79,4.81,6.03,3.98,5.15-12.29-5.54-15.94-12.87-22.91-4.66-4.43-9.12-9.12-13.53-13.8,2.03-7.18,8.65-11.68,13.26-16.65ZM238.69,323.57c4.92,5.11,6.78,13.44,15.61,12.24,4.44-.6,24.85-13.33,26.13-17.3.76-2.35.84-5.22-1.82-6.36-6.31-1.72-18.38,15.49-20.62,15.11-3.85-3.03-5.07-8.23-8.22-11.93-5.69-6.67-13.73-7.92-21.14-3.19-2.09,3.29,7.96,9.26,10.07,11.45ZM420.72,318.46c-1.73.18-3.55.79-4.84,1.99-4.77,4.46-17.39,26.98-20.22,33.66-2.92,6.89-9.09,21.28-1.76,26.97,1.86,1.44,19.2,7.32,21.64,7.4,7.55.24,7.03-9.42-1.86-11.17-1.65-.33-3.17.47-4.33.22-10.67-2.24-12.65-3.01-8.76-14.47.94-2.79,11.75-21.74,13.31-22.08,2.78-.6,3.82,8.73,3.57,10.82-2.7,5.02-9.71,8.14-7.11,14.83,7.63,1.13,16-3.95,15.22-12.34l-4.86-35.83ZM311.28,353.77c-3.63,2.44-9.19-9.16-11.21-11.57-2.58-3.09-7.44-8.34-11.7-5.3-7.09,5.04,4.64,12.94,7.68,16.57,1.96,2.34,9.64,14.85,10.47,15.26,6.41,3.14,12.25-8.99,13.46-13.89,2.67-10.81-1.7-19.06-9.02-26.73-2.26-2.37-5.05-6.07-8.65-5.48-9.86,1.62.9,7.34,3.44,9.89,5.59,5.61,8.12,13.6,5.53,21.26ZM209.79,326.67c-2.89.85-4.03,5.22-2.25,7.54,11.44,6.73,14.24-11.05,2.25-7.54ZM457.72,343.38c2.16,1.87,10.59-6.64,12-8.55l-8.4-8.32c-1.74-.28-.94.26-1.21,1.15-1.58,5.13-1.44,10.6-2.39,15.72ZM666,344.99c-.71-5.63-1.31-25.13-9.22-12.8-1.71,2.66-.23,4.12,1.56,6.39.7.89,6.86,7.3,7.65,6.41ZM254.12,397.12c5.52-12.01-8.45-17.45-18.62-12.58-17.62,8.44-14.96,33.1.51,42.63,17.28,10.65,38.29,3.71,48.14-13.29,26.39-45.57-38.45-92.8-76.14-47.99-32.82,39.01-12.19,92.01,21.89,122.14,1.57.4,4.13-.93,4.26-2.7l.63-40.84c-.49-2.13-2.12-3.49-4.28-3.77-7.29.17-.52,23.56-5.6,27.31-25.08-22.37-32.72-71.86-7.26-96.51,31.66-30.64,76.57,6.07,54.97,38.08-6.23,9.23-14.03,11.88-25.15,10.14-8.76-1.37-15.17-11.54-12.93-20.08,2.62-9.97,14.49.47,19.58-2.54ZM478.29,401.63c6.15,6.87,16.49,19.2,23.24,24.61,4.42,3.55,4.78,2.63,8.88-.8,11.3-9.46,21.3-22.82,32.61-32.56l.65-2.26-2.27-3.44c-11.12-8.74-21.29-23.83-32.19-32.14-1.22-.93-2.56-2.33-4.27-1.89l-35.37,35.52c-1.5,3.63,6.28,10.22,8.74,12.96ZM328.7,390.48c13.8-13.47,35.69-4.17,41.8,12.39,6.07,16.47.18,34.15-14.88,43.08-16.23,9.62-30.69,7.01-46.11-2.19-3-1.79-11.13-8.7-13.36-9.11s-4.27,2.5-3.95,4.65c1.48,9.85,22.17,20.33,31.02,22.1,56.74,11.36,84.67-60.31,38.55-84.39-23.12-12.07-53.89,1.56-52,29.49s45.6,33.43,43.45,6.4c-.52-6.52-4.42-9.55-10.57-6.28-1.9,2.67,1.05,8.07-4.01,11.08-13.16,7.83-21.18-16.27-9.94-27.24ZM407.58,405.48c-6.31.6-5.13,9.35.53,9.3,6.98-.06,4.46-9.77-.53-9.3ZM472.69,424.91c-5.48-5.75-10.75-11.78-16.57-17.19-.44,5.1-1.26,8.02,1.28,12.79,3.33,6.26,20.91,18.05,21.23,23.06.14,2.22-3.09,6.34-4.49,8.32-2.38,3.36-13.14,14.42-13.84,16.72-.89,2.89.49,7.73,2.71,9.88l3.88-2.49,24.42-31.69c-6.37-6.3-12.44-12.91-18.61-19.39ZM400.39,432.76c-4.57,1.29-2.75,9.74,2.07,8.62s4.04-10.35-2.07-8.62ZM457.73,452.76c6.45-5.17,6.56-11.98-1.61-15.27-.31,5.21.15,10.27,1.61,15.27ZM256.87,456.17c3.02-3.13,9.62,6.99,12.3,3.06,4.15-6.07-6.56-13.82-14.38-8.75-4.21,2.73-9.58,13.07-9.42,18,.09,2.86,2.91,6.38,5.28,3.58l6.23-15.89ZM390.72,454.5c-3.13.28-21.36,14.87-15.85,20.39,1.26.84,2.7,1.5,4.26,1.07,3.75-1.02,10.71-13.57,14.12-16.54.75-1.8-.38-5.12-2.53-4.92ZM317.16,505.66c1.78,1.8,8.46-1.47,8.72-3.45.84-6.36-13.54-24.42-18.54-28.95-2.61-2.36-13.57-10.72-16.49-10.91-4.63-.3-20.57,10.7-24.55,14.13-5.37,4.63-10.91,11.76-14.08,18.09-1.06,2.11-4.17,6.86-2.28,8.94l7.38,2.22c4.8-7.27,10.27-15.58,16.61-21.62,2.38-2.26,14.38-11.37,16.84-11.25,2.68.13,15.2,11.49,17.34,14.1,2.42,2.95,4.72,7.08,6.34,10.55.76,1.62,2.4,7.85,2.7,8.15ZM364.24,475.47c-6.75-6.76-8.61,12.69-9.5,16.24-.84,3.35-4.12,5.94-.24,9.23,10.08,1.6,13.6-21.61,9.75-25.48ZM339.26,476.18c-4.82,2.52-6.23,15.04.64,14.41,3.69-.34,6.56-12.6,1.46-14.41h-2.09ZM295.27,509.05c1.33-7.51-.91-17.9-10.67-15.9-5.32,1.09-16.15,12.99-9.85,18.28,1.24.14,9.02-10.05,13.56-8.73,1.51.44,3.14,7.13,6.95,6.35Z"/>
  <path class="cls-1" d="M583.47,467.54c61.24-55.52,122.53-110.86,183.46-166.77,11.8-8.7,17.82,10.1,22.56,17.64,1.48,2.36,4.5,4.68,6.14,7.53,2.59,4.51,3.5,10.22,6.41,14.5,4.23,6.22,8.06,7.28,10.76,15.77,4.33,13.61,9.29,27.7,14.22,41.27,2.9,7.97,8.11,14.34,7.9,23.54-.08,3.54-1.42,7.06-1.64,10.44-.64,9.91,4.33,18.33,3.2,28.14-.44,3.81-2.52,6.09-3.47,9.39-2.73,9.46,2.25,17.17-1.31,26.83-1.75,4.74-5.89,9.08-7.66,14.05-2.56,7.18-1.93,15.54-4.85,22.49-2.33,5.55-7.99,9.79-10.48,15.25-2.09,4.57-2.32,9.82-4.88,14.42-3.53,6.36-10.5,9.52-14.64,15.92s-6.4,12.59-11.79,18.76-10.79,8.37-16.51,13.25c-4.55,3.88-7.77,9.61-12.47,13.26-5.37,4.17-10.76,4.84-16.5,7.63-9.49,4.61-17.85,12.81-27.69,16.54-7.15,2.7-14.86,3.03-22.14,5.2-12.02,3.58-19.81,8.28-33.38,9.25-18.28,1.3-37.18-.62-54.28-6.02-6.17-1.94-11.38-.57-17.29-1.21-6.6-.71-12.12-7.26-18.34-9.81-11.57-4.74-19.36-3.26-30.23-12.4-9.92-8.34-9.77-7.59-21.01-13.57-8.55-4.55-28.73-25.14-34.09-33.46-8-12.4-4.83-14.28,5.14-23.66,34.09-32.07,70.14-62.7,104.86-94.17ZM746.95,590.8c75.79-65.72,88.23-182.66,23.92-261-1.6-1.95-3.22-4.72-5.55-5.44-.86,0-6.63,4.77-7.64,5.75-2.77,2.66-2.48,2.76-.65,6.3,4.37,8.46,11.61,17.42,16.36,26.26,40.63,75.63,23.37,162.1-42.66,216.33-65.4,53.7-149.29,45.94-213.07-5.63-2.05-1.66-11.39-10.84-12.26-11.1-4.05-1.21-9.64,6.84-12.97,9.23-.23,1.23,1.16,2.59,1.87,3.52,6.33,8.21,22.72,21.18,31.52,27.18,69.59,47.42,157.2,44.04,221.13-11.39ZM733.21,367.18c2.18-2.2,13.74-13.3,13.75-15.34s-2.59-4.12-4.78-3.5c-.63.18-8.93,7.17-10.24,8.32-18.35,16.13-36.15,36.15-54.15,53.21-38.81,36.76-78.69,72.28-117.95,108.43-11.72,10.79-23.03,22.07-35.01,32.59.79,9.88,4.86,6.44,10.1,2.02,10.19-8.59,20.55-20.47,30.54-29.78,55.7-51.91,114.09-102,167.74-155.94ZM771.29,422.93c2.26-1.97-4.11-24.01-5.35-27.89-2.14-6.67-6.62-23.78-15.67-21.7-6.05,1.39-18.62,10.16-20.9,16.11-1.39,3.63-.02,9.76,4.42,8.51,3.9-1.1,13.88-20.25,19.77-11.43,1.31,1.97,5.34,13.03,5.59,15.4.2,1.95-.27,4.03-2.63,4.14-1.69.08-8.83-2.76-12.2-3.07-12.98-1.19-23.34,2.2-31.21,12.82-17.14,23.14,3.53,58.75,32.95,46.62,15.31-6.31,14.84-32.15-3.45-34.4-7.16-.88-15.01,2.32-12.33,10.72,3.48,2.78,6-1.28,10.54-.11,9.82,2.53,5.48,15.2-4.41,15.76-7.22.41-14.24-2.83-16.9-9.7-9.49-24.48,14.5-38.01,35.98-29.55,5.73,2.26,9.79,7.93,15.81,7.78ZM698.1,419.06c-6.76-.91-7.94,8.73-1.08,9.59,3.82-1.86,2.46-6.43,1.08-9.59ZM681.05,435.22c-6.98,2.1,3.22,13.29,4.72,16.75,6.8,15.7-2.84,28.86-19.98,23.13-4.34-1.45-13.96-9-17.04-8.69-2.25.22-5.96,4.83-4.88,7.23,1.3,2.9,16.15,9.7,19.76,10.85,25.43,8.1,42.27-14.52,31.23-37.67-1.96-4.1-8.83-13.1-13.81-11.6ZM674.84,468.84c1.31-4.9-3.89-22.43-10.79-17.62-6.54,4.57,3.67,18.6,10.79,17.62ZM745.9,534.27c13.58-11.86,29.41-55.95,30.27-73.88.15-3.16.87-7.26-2-9.23-4.69,4.68-6.88,11.19-11.25,16.08-7.21,8.06-19.94,12.22-30.56,11.24-5.2-.48-13.52-5.15-13.11,4.22,8.77,16.14,15.94,33.12,20.15,51.06l4.34,2.56c1.39.3,1.43-1.42,2.16-2.05ZM631.36,510.57c-6.76,6.18-22.27-6.93-27.32-1.16-6.4,7.31,9.01,9.77,13.55,10.66,4.83.95,18.16,3.17,21.96-.09s.87-12.43-.31-16.74-6.07-23.84-12.22-15.09c-4.16,5.93,4.87,15.64,4.34,22.41ZM659.36,498.8c-.58-.61-3.72-2.03-4.62-1.48-1.61,1.75-2.55,5.28-.46,6.98,3.81,2.52,8.4-2.04,5.08-5.5ZM706.82,514.48c2.95-6.3-.76-11.58-6.21-14.7-4.69-2.68-10.72-4.84-9.66,3.17.59,4.43,11.86,16.18,15.88,11.52ZM591.8,526.15c-5.22-5.59-11.14,4.26-4,6.04,4.32,1.08,6.27-3.61,4-6.04ZM679.2,534.48c-2.24-4.96-4.86-8.63-10.54-9.99-3.34-.05-3.65,6.53-3.27,8.89,1.12,7.07,13.51,15.92,15.02,4.93.54-3.88-.84-3-1.21-3.82ZM718.46,530.14c-2.92,3.02,2.98,7.08,5.07,3.05,1.77-3.41-3.64-4.52-5.07-3.05ZM580.52,540.66c-3.74-3.02-11.24-.45-14.98,1.83-4.28,2.62-17.89,15.53-19.54,19.86-2.73,7.15,9.93,13.22,15.44,16.28,19.42,10.77,45.08,18.23,65.99,7.25,19.86-10.42,22.87-44.02-.82-50.71-20.84-5.88-37.04,13.07-30.83,33.24,3.2,10.39,23.78,6.33,26.45-2.23.77-2.47-.4-9.9-3.98-8.82-1.38.42-10.72,17.65-13.73,3.24-3.6-17.25,30.75-25.68,28.49.32-.79,9.05-7.42,16.29-15.65,19.73s-24.7,2.49-32.82-.99c-7.93-3.4-2.86-12.99-7.49-19.19-4.92-1.07-7.68,8.33-7.58,12.1-1.38.21-2.65.07-3.96-.42s-8.8-6.79-8.57-7.64c3.22-5.7,6.86-9.9,12.53-13.26,3.08-1.82,13.18-4.46,12.74-7.87-.52-.73-1.09-2.23-1.69-2.72ZM700.29,548.57c-7.62,5.68,12.86,19.92,12.91,10.1.04-7.09-6.15-11.65-12.91-10.1ZM662.98,568.37c2.56,2.55,8.82.52,6.66-3.83-2.56-5.16-11.1-.59-6.66,3.83ZM684.29,568.67c-7.24,2.7-.44,10.68,4.66,6.34,1.61-2.54-2.23-6.66-4.66-6.34ZM653.68,583.93c-5.52,1.76.99,10.41,5.89,6.79,2.96-3.13-2.88-7.75-5.89-6.79Z"/>
  <path class="cls-1" d="M591.1,446.22l-29.13,24.91c-4.24-5.88-27.01-21.59-27.12-27.6-.05-2.61,5.62-8.77,7.67-10.9,2.61-2.71,12.56-12.09,15.26-13.69,2.55-1.51,3.71-.77,6.02.5,3.92,2.16,24.23,20.41,26.63,24.03.55.82,1.22,1.77.65,2.75ZM573.49,448.72c3.24-2.32-8.64-14.65-12.02-15.74-2.38-.77-6.6,3.46-7.44,5.51-2.77,6.72,3.37,13.29,9.48,15.04,1.63.47.96-.4,1.2-1.17,1.32-4.24-1.89-4.66-2.44-8.44,4.1,1.12,6.37,5.6,11.23,4.8Z"/>
  <path class="cls-1" d="M633.5,400.15c-2.19,2.44-15.47,16.72-17.65,16.34-3.81-3.78-27.66-20.84-26.89-25.11.17-.95,4.1-6.62,5.05-7.79,2.79-3.43,17.93-18.6,21.59-18.3,6.21.51,20.54,19.72,25.91,23.96,1.01,2.05-6.3,8.99-8.02,10.9ZM615.74,381.54c-3.11.01-9.83,5.7-9.72,8.9.12,3.36,6.51,8.48,9.72,8.48s9.11-4.41,9.33-7.68c.26-3.97-5.81-9.72-9.33-9.71Z"/>
  <path class="cls-1" d="M526.54,487.68c2.37,2.19,9.26,6.55,7.8,9.88l-24.96,22.64c-1.41.34-7.84-5.63-9.47-7.1-4.29-3.88-13.48-12.06-12.42-18.07.5-2.81,15.52-20.37,18.24-21.21.98-.3,1.98-.26,2.98-.13,3.66.49,14.51,10.94,17.83,13.99ZM508.17,489.09c-7.99,1.67-5.96,13.88,1.44,15.12,1.03-.03,5.53-4.27,6.06-5.17,2.22-3.77-2.75-10.94-7.5-9.95Z"/>
  <path class="cls-1" d="M373.93,596.09c13.27-.94,21.66,13.75,14.17,24.69-6.3,9.2-21.05,10.73-27.06.62-6.69-11.27-.22-24.39,12.88-25.31Z"/>
  <path class="cls-1" d="M584.79,191.39c1.52-5.16,3.59-15.15,6.86-19.27,3.6-4.54,12.41-8.15,16.45-12.9,0,5.11-1.48,10.61-3.64,15.25l-19.66,16.92Z"/>
  <path class="cls-1" d="M598.45,158.42c4.06-7.83,9.04-15.46,16.08-20.9l-3.16,11.71-12.92,9.19Z"/>
  <path class="cls-1" d="M613.73,129.46l5.62-7.23c-.61,3.28-1.27,8.27-5.62,7.23Z"/>
  <path class="cls-1" d="M567.61,357.58c-2.42,2.19-7.27,7.67-10.16,6.32-3.06-4.58-23.99-21.84-24.84-25.1-.53-2.06,4.7-7.72,6.3-9.5,5.89-6.54,14.03-12.97,20.86-18.52,3.59-.81,25.61,20.52,28.11,25.11.06.7-2.87,4.24-3.59,5-4.99,5.28-11.36,11.88-16.68,16.69ZM558.82,326.62c-2.9.47-9.46,7-9.5,9.91-.05,3.85,5.71,9.79,9.36,10.06,3.21.23,11.32-5.52,11.63-8.44.44-4.14-7.9-12.11-11.49-11.52Z"/>
  <path class="cls-1" d="M522.5,400.96c-4.72,4.99-10.42,9.13-15.28,14.04-.92.8-2.05.96-3.22.79-3.26-.48-18.85-19.32-23.02-22.11-.69-.67-.8-1.34-.65-2.26.47-2.94,13.46-15.67,16.37-18.3,1.74-1.57,7.95-7.34,9.49-7.12,4.02,2.8,7.88,6.22,11.47,9.53,2.65,2.45,13.56,12.62,13.14,15.52-.22,1.52-6.67,8.19-8.29,9.91ZM512.89,393.78c5.41-8.96-10.7-18.71-15.52-5.51-2.54,6.96,5.1,11.46,11.24,9.8.29-.08,4.13-4.03,4.29-4.29Z"/>
  <path class="cls-1" d="M631.14,277.73c1.52,1.66,3.9,4.04,3.11,6.11-.87,2.28-11.05,15.43-13.3,18.11-1,1.2-5.86,6.78-6.82,6.64l-26.91-25.89c-.1-4.65,17.88-22.57,22.24-22.75,1.79-.07,7.04,4.13,8.68,5.45,3.7,2.98,9.79,8.81,13.01,12.32ZM617.5,290.86c.24-.18,3.55-4.47,3.69-4.81,1.25-2.95-4.97-9.55-7.5-10.59-4.19-1.72-10.99,4.4-9.26,7.61,4.16,1.7,8.53,11.13,13.07,7.79Z"/>
  <path class="cls-1" d="M519.27,265.74c2.37,2.22,13.54,13.57,13.92,15.52.14.69.25,1.35,0,2.04l-22.76,22.34-3.08.65-18.94-21.85c2.5-6.54,19.81-25.05,26.65-22.95.83.25,3.09,3.2,4.22,4.26ZM504.65,280.95c-.59.62-1.92,2.47-1.8,3.21,3.11,3.59,4.22,7.55,9.3,4.69,8.66-4.86,8.19-7.56.66-13.63-.5-.04-7.42,4.95-8.16,5.72Z"/>
  <path class="cls-1" d="M642.49,623.4c1.65-.24,7.11.32,6.62,2.65-.61,2.86-11.86,3.09-11.25.02,1.09-1.43,2.88-2.42,4.63-2.67Z"/>
  <path class="cls-1" d="M739.99,587.07c-1.01,3.01-10.36,6.58-11.25,2.79-.82-3.45,8.96-4.26,11.25-2.79Z"/>
  <path class="cls-1" d="M604.08,623.25c3.95-.23,7.5-1.77,10.43,2.01-2.59,3.54-9.77,2.89-10.43-2.01Z"/>
  <path class="cls-1" d="M761.5,566.78c-.88.94-4.56.49-4.65-.26-.86-1.82,4.28-7.22,4.83-6.81.62,2.07,1.5,5.25-.19,7.06Z"/>
  <path class="cls-1" d="M537.01,595.94c2.07-.56,7,2.81,4.36,5.21-2.77,1.96-8.23-4.17-4.36-5.21Z"/>
  <polygon class="cls-1" points="780.9 538.7 776.99 538.41 782.6 529.96 780.9 538.7"/>
  <path class="cls-1" d="M571.92,614.42l3.99-.45c5.12,5.04-4.28,6.75-3.99.45Z"/>
  <path class="cls-1" d="M795.47,499.41c1.41,2.95.37,6.76-3.21,7.23-.13-2.56-.3-7.04,3.21-7.23Z"/>
  <path class="cls-1" d="M559.64,607.36c3.05,2.72-2.88,4.64-4.62,1,.15-2.65,3.22-2.24,4.62-1Z"/>
  <path class="cls-1" d="M754.25,486.68c1.4-.29,2.71-.38,3.91.58,3.96,3.18-2.45,15.44-7.27,8.08-2.32-3.54-.68-7.82,3.36-8.66Z"/>
  <path class="cls-1" d="M741.6,497.8c-7.84,2.48-11.01-10.95-3.92-9.24,4.15,1,4.33,5.73,3.92,9.24Z"/>
  <path class="cls-1" d="M748.64,507.64c2.77,4.12-.81,5.97-3.42,8.63-4.21-3.91-3.49-11.99,3.42-8.63Z"/>
</svg>