<?xml version="1.0" encoding="UTF-8"?>
<svg id="Camada_1" data-name="Camada 1" xmlns="http://www.w3.org/2000/svg" viewBox="0 0 1024 768">
  <defs>
    <style>
      .cls-1 {
        fill: #413253;
      }
    </style>
  </defs>
  <path class="cls-1" d="M361.67,75.08c5.42,5.39,1,18.49,2.63,25.73,1.78,1.85,15.81-8.24,18.37-9.59,8.91-4.7,21.26-8.98,26.44,2.98,5.22,12.06-2.1,25.38-8.56,35.38-2.35,3.64-9.18,11.05-10.45,13.96-.56,1.28-.79,2.59-.63,3.98,10.55,7.54,19.3,20.01,25.65,31.26,12.66,22.42,14.01,39.64,21.88,62.41,19.24,55.72,114.22,53.58,158.27,33.48,46.99-21.43,53.48-67.09,84.1-102.59,14.09-16.34,35.56-33.74,54.63-43.84,12.54-6.65,32.58-17.19,44.67-5,7.65,7.71,5.28,18.72,2.91,28.16-.88,3.51-3.87,7.07-2.34,10.64,1.92,4.47,6.27,1.32,10.06,1.02,22.41-1.79,17.45,24.94,12.77,38.76-.97,2.85-4.17,6.92-3.76,9.65s8.92,4.15,11.81,6.37c13.07,10.04,3.75,40.65-3.08,52.76-2.35,4.16-5.76,7.51-7.9,11.77,6.57,2.61,11.66,4.86,12.51,12.71,1.78,16.43-13.95,44.21-23.69,57.28-2.1,2.82-12.66,14.62-13.08,16.07-1.07,3.7.44,12.73-.26,17.87-1.61,11.77-5.54,34.56-10.6,44.53-.7,1.39-2.26,1.86-2.97,4.12-1.01,3.22.06,6.46-.87,9.37-.48,1.5-2.2,2.65-2.95,4.14-2.66,5.28-3.26,9.92-5.17,14.53-.79,1.91-3.79,3.71-4.96,6.07s-1.15,4.93-2.18,7.27c-1.29,2.95-4.04,4.67-5.54,7.07-1.49,2.39-1.72,5.22-2.94,7.3-3.2,5.41-13.63,16.36-18.31,22.65-11.75,15.76-21.03,23.58-37.11,35.36-2.56,1.88-9.83,8.56-11.89,9.37s-3.95.14-6.07,1.02c-2.55,1.04-3.26,4.23-5.42,5.61-3.31,2.1-11.63,3.72-14.73,5.56-.86.51-1.05,2.32-2.09,2.82-1.52.73-4.13.31-6.2.91-3.18.92-6.58,4.78-8.78,5.47-1.63.51-2.88-.28-4.04-.03-6.61,1.45-10.61,10.22-15.29,14.51-4.1,3.76-16.03,9.12-18.1,11.84-1.85,2.44-3.76,12.75-4.25,16.23-.93,6.59-2.01,16.14-2.45,22.76-.63,9.44-.15,9.93,7.83,14.2,9.68,5.19,24.06,6.01,21.3,20.84-2.62-2.49-6.35-.35-9.84-.44-3.18-.09-9.51-.2-12.38-.5-2.68-.29-5.52-2.46-7.28-2.62-2.99-.28-9.26.73-12.4,1.45-5.29,1.2-11.31,4.36-15.38,6.04-12.87,5.3-25.33,11.63-38.42,16.43-6.19-.27-4.28-5.15-2.14-9.09,4.11-7.59,17.55-15.23,25.13-19.77,2.59-1.55,8.2-3.41,9.99-4.82.91-.72.42-1.5.48-2.42-3.7,1.09-6.98.84-10.77,2.22-6.78,2.46-14.94,9.85-20.54,11.75-4.4,1.49-11.75,1.75-16.89,2.8-4.79.98-9.66,4.2-14.85,2.57-3.12-2.13,4.17-10.52,5.95-12.25,13.8-13.35,32.64-10.4,49.29-14.52,2.97-.73,7.6-4.27,8.43-7.32,2.11-7.77,3.87-21.6,4.79-29.87.25-2.28,1.48-9.15.53-10.56-6.55-1.33-10.94-7.17-16.53-9.46-2.89-1.18-9.55-2.85-12.65-3.1-4.27-.34-9.25,1.22-12.53.75-2.39-.34-3.99-2.75-5.68-2.94s-12.52,6.5-15.52,7.82c-4.04,1.78-11.79,3.42-14.35,6.13-4.16,4.39-13.44,26.58-15.7,33.14-4.32,12.55-.62,11.14,9.53,16.43,1.35.7,2.99.69,4.18,1.34,4.42,2.42,5.06,8.54,3.05,12.78-5.35,1.26-10.59.41-15.99.1-3.24-.18-9.95-1.44-11.61-1.35-4.7.28-14.22,3.74-19.14,5.31-16.2,5.16-31.84,12.28-48.17,17.14-5.64.06-2.67-7.43-.91-10.28,6.23-10.08,32.89-18.32,43.98-22.59-.14-.41-1.64-2.12-1.77-2.18-.73-.32-13.61,2.15-15.63,2.68-2.8.73-7.93,2.36-10.6,3.41-4.34,1.71-10.62,7.14-13.54,7.73-5.33,1.08-12.9,1.11-18.62,1.86-4.1.54-7.98,2.15-12.32,1.47-.51-6.21,5.99-11.68,10.78-14.82,7.49-4.9,20.97-7.06,30.02-8.58,5.85-.98,27.45-2.43,30.52-4.93.8-.65,5.91-8.94,6.8-10.53,3.01-5.42,7.14-13.95,9.46-19.68,1.05-2.58,4.99-13.73,4.47-15.72-2.09-3.04-5.98-4.79-8.56-7.25-2.39-2.29-7.43-9.22-9.68-10.08-1.93-.74-3.15.52-4.7.12-1.04-.27-2.09-2.05-3.7-2.67-4.39-1.69-12.13-1.97-15.49-3.43-1.58-.68-1.78-2.32-2.42-2.47-1.42-.33-3.28.24-5.15-.19-2.65-.62-6.6-3.87-10.66-5.09-8.56-2.56-17.69-6.5-26.16-10.08-1.71-.72-2.59-3.59-3.73-4.35-1.75-1.17-5.68-1.62-8.02-2.81-3.26-1.66-3.1-4.62-6.47-6.13-1.86-.83-4.99-.82-6.01-1.48-2.87-1.87-6.34-7.97-9.22-10.51s-7.41-3.59-9.89-5.43c-2.68-1.99-7.37-7.11-10.65-9.81-4.18-3.44-2.89-5.45-5.11-8.88-1.38-2.13-5.01-4.38-6.96-7.43-1.71-2.67-3.6-8.53-5.61-10.74-.82-.91-2.26-.6-3.58-2.13-1.22-1.41-5.79-9.58-7.06-11.86-2.99-5.35-11.9-22.79-13.29-28.45-1.13-4.59-.82-9.14-2.5-14.04-11.26-32.84-9.44-70.21-1.59-103.98,3.44-14.8,8.24-28.35,14.6-42.1-.26-2.69-6.92-5.09-9.48-7.11-15.73-12.45-11.27-31.78-3.28-47.41,1.55-3.03,9.02-13.42,8.85-15.57-.1-1.23-.81-1.68-1.65-2.37-9.01-7.36-26.23-4.28-37.28-5.25-2.83-.25-8.47-.51-8.15-4.09.94-10.4,32.88-30.7,41.11-38.37s4.41-7.61,1.39-16.31c-4.45-12.84-7.58-35.8,4.52-45.52,5.99-4.81,7.92-2.01,14.19-.37-.04-11.67,11.15-28.59,23.92-19.58,2.72,1.92,6.06,9.44,6.96,9.97,5.23,3.06,12.61-12.98,15.28-16.31,6.61-8.24,22.2-14.64,30.78-6.1ZM379.93,139.3c.84-2.09-6.91-5.92-8.54-6.59-21.23-8.71-43.24-6.45-62.93,4.81-18.86,10.78-33.21,32.9-22.18,54.3,2.26,4.39,6.39,8.04,8.58,11.9,11.87,20.95,22.35,58.63,5.91,79.62-3.09,3.95-8.63,5.98-8.14,12.81,26.06-6.28,24.94-38.39,25.21-59.86,22.06,3.84,43.09-9.56,51.87-29.65,6.48-14.83,3.92-35.91-10.18-45.53-17.25-11.76-41.92-11.74-57.47,3.08-3.53,3.36-5.75,8.37-9.83,11.42-4.9-5.5,2.03-16.18,5.89-20.88,15.6-18.99,35-21.75,58.51-18.3,4.68.69,18.03,5.2,21.28,4.51.13-.03,1.98-1.54,2.03-1.66ZM706.97,262.69c.2-4.69,0-9.47,0-14.18,0-1.67-2.58-8.8-3.52-10.66-4.5-8.96-15.39-12.13-24.84-11.39,9.59-13.65,19.94-26.58,31.48-38.62,4.63-4.83,10.03-10.56,14.98-14.96,7.82-6.94,18.02-11.79,23.29-20.82.54-.93,2.05-1.74,2.34-2.4,1.66-3.88-5.71-1.66-7.76-.66-13.28,6.5-34.21,24.95-44.26,36.08-11.91,13.2-29.5,37.85-36.66,53.93-.42.94-1.06,1.56-.75,2.79,10.37-1.08,17.31-9.62,28.39-4.37,9.61,4.55,9.39,15.97,8.62,25.23-.23,2.72-3.27,13.67-2.41,14.99l1.62.81c8.53-5.39,19.5-11.27,29.11-4.7,14.85,10.14,4,35.85-2.31,48.39,36.8-7.58,30.55,23.25,16.4,44.37-5.64,8.42-13.21,15.32-19.39,23.12l12.82,22.34c1.1.91,2.12,1.65,3.58,1.25,3.44-.94,13.12-17.48,13.79-20.89.25-1.3-.69-2.41-1.6-3.2-5.49,2.92-10.93,14.06-16.49,6.23-5.16-7.27,2.76-9.97,7.04-14.9,16.49-18.99,37.94-63.26-1.98-68.55,5.06-13.28,8.59-36.39-5.25-45.55-9.6-6.35-15.83-3.77-25.87-2.49-2.4.31-.4-.9-.39-1.19ZM738.02,189.36c6.78-6.39,17.3-13.35,15.82-23.96-17.77,14.3-35.97,28.81-47.66,48.83,1.31.13,2.53-.04,3.74-.58,5.68-2.54,22.46-18.97,28.1-24.29ZM421.8,271.75h-13c-10.52,0-27.57-24.17-29.36-33.66-.8-4.25,1.11-10.75,6.3-8.89,6.86,11.6,15.23,26.83,29.7,29.11,2.36-6.83-2.54-7.22-5.85-10.19-5.64-5.07-14.44-14.04-16.43-21.44-.58-2.17,0-3.29.3-5.34,1.65-1.49,11.69,7.1,13.82,3.97,1.51-2.23-2.66-9.29-3.73-11.72-3.23-1.89-9.54,6.72-12.58-5.2-2.16-8.47,7.26-5.31,6.11-13.08-.71-4.79-8.49-18.75-12.64-21.29-3.07-1.87-3.79-1.26-3.61,2.02.21,3.89,2.02,7.89,2.38,11.82,2.3,25.25-12.88,49.24-36.47,58.03-4.1,1.53-8.36,1.76-11.97,3.78-.94,10.1-1.99,19.31-6.01,28.65-1.93,4.49-8.87,13.86-7.61,18.05,3.03,4.26,23.83,31.48,27.02,31.31.56-2.23,1.49-.84,1.78-1.05,3.75-2.62,12.16-14.14,15.01-18.42,4.33-6.5,7.93-13.62,11.18-20.73,2.1,1.93,4.27,2.73,6.89,3.73,2.27.87,18.3,6.58,19.29,6.37,2.33-.48,12.43-12.27,14.31-14.9,2.43-3.4,4.76-6.66,5.19-10.96ZM774.5,186.11c-3.26-1.23-13.97,5.4-17.06,7.33-8.95,5.59-19.71,14.18-27.65,21.19-1.73,1.53-12.6,11.43-12.97,12.24-1.45,3.14.93,10.37,5.09,8.26,11.83-11.31,24.16-22.22,37.1-32.23,4.22-3.26,16.62-9.53,17.2-15.06.01-.12-1.6-1.67-1.72-1.72ZM268.19,186.67c-.83-.58-11.07,5.48-12.71,6.58-.7.47-4.27,3.04-3.83,3.65,6.19,1.52,12.54,1.81,18.91,1.58l-2.37-11.81ZM737.69,241.02c2.8,1.21,5.46-.49,8.16-1.68,4.82-2.13,10.31-5.91,14.62-9.02,7.26-5.23,12.61-9.22,15.8-18.06-.24-3.78-10.8,4.14-11.73,4.8-6.89,4.89-16.46,12.61-22.52,18.47-.57.55-4.55,5.2-4.33,5.48ZM749.71,260.51c.49.4,2.67.93,3.36.89,1.6-.08,23.22-13.27,26.3-15.32,3.01-1.99,16.93-11,6.01-10.35-5.54.33-12.33,3.59-17.21,6.24-3.23,1.75-17.2,10.38-19.01,12.5-1.46,1.71-.98,4.78.56,6.03ZM715.63,341.07c.91.61,11.21-.46,13.39,0,1.56,3.38-2.54,5.64-2.92,6.51-.53,1.23-.09,2.45-.99,4.16s-8.15,10.64-9.45,11.08c-4.18,1.39-4.7-7.16-6.19-10.46-2.3-5.08-9.3-16.78-12.76-21.11-6.3-7.87-39.59-33.55-47.6-34.64-1.07-.15-2.41.53-3.58.35l1.57-1.56-14.6-5.52c-.57-.82-.43-1.68-.24-2.58.57-2.77,14.59-14,17.73-16.2,3.42-2.39,22.23-13.92,25.47-11.16l-4.61,34.55c1.41.61,4.13,1.52,5.46.56.81-.59,4.67-14.07,5.11-16.17,1.15-5.49,4.13-22.13,1.19-26.28-5.89-8.33-29.35,6.78-34.99,11.42-7.33,6.03-18.72,20.09-26.86,23.51-3.96,1.66-11.53,1.1-10.67,7.06,21.23,3.09,41.63,10.77,59.02,23.31,15.86,11.45,35.58,31.27,33.07,52.62-.78,6.65-5.03,11.86-6.09,18,8.06,13.12,17.5,24.32,23.64,38.67,1.12,2.61,5.38,11.81,2.5,13.99l-33.3,9.47c3.04,18.63,3.92,37.83-.93,56.26l2.83,3.51c1.62-2.33,4.28-4.56,5.78-6.81,4.02-6.01,3.5-23.13,3.31-30.63-.12-5.01-3.51-14.15,1.78-17.06,5.74-3.17,25.96-5.62,28.94-8.87.45-.49,2.21-4.14,2.31-4.83.5-3.22-5.79-18.47-7.56-22.28-5.33-11.47-13.34-21.13-19.89-31.85,6.7-11.55,17.7-18.24,24.66-29.75,2.76-4.56,12.54-22.18,4.44-24.8-2.79-.9-18.83.66-20.54,2.4-2.23,2.27-.15,2.55,1.08,3.62.49.42.41,1.45.5,1.51ZM788.1,257.57l-7.36,3.27c-5.48,3.66-10.83,8-16.07,11.67-6.57,4.61-9.04,1.86-4.92,12.63,1.01,1.01,19.17-13.19,20.9-14.93s9.47-10.49,7.44-12.64ZM661.09,287.32c.75-.8,3.64-11.18,1.35-11.64-1.82-.37-10.41,8.1-12.19,9.85,2.16.95,9.15,3.58,10.84,1.78ZM462.7,315.95c-4.31-2.44-8.63-5.27-11.63-9.3l1.07-13.65-17.26-11.75c-15.12,25.21-38.18,44.31-63.75,58.38-21.12,11.62-45.08,21.37-68.92,25.61-8.18,1.46-16.7,1.51-24.58,3.77-.63.64-1.49,9.11-1.59,11.02-1.41,26.19,3.33,51.78,15.06,75.19l3.94-1.06c6.44-9.63,15.04-17.66,21.97-26.86,3.43-4.55,9.07-10.77,4.77-16.56-1.88-1.17-7.22,4.82-8.68,6.57-2.99,3.56-14.46,20.44-17.88,21.35-2.99.35-4.07-3.54-4.98-5.81-3.99-9.96-5.7-23.41-6.08-34.1-.26-7.3.91-14.9.57-22.22,21.36-1.78,43.08-7.6,63-15.41,27.02-10.59,56.46-29.31,76.05-50.77,2.08-2.28,13.23-17.1,14.32-17.37,2.28-.56,5.85,1.65,6.43,3.75.82,2.98-4.64,6.66-4.66,10.03.25,2.89,9.49,9.04,11.91,11.04.93.77,1.28,2.33,2.08,2.83,3.29,2.04,8.82-.58,8.84-4.68ZM717.74,286.96c-3.04-3.38-10.27-.66-13.93.93-2.76,1.21-15.66,8.94-16.37,11.2-.53,1.7-1.4,8.1,1.64,7.98s20.08-13.51,21.81-11.69c-.59,3.39-1.33,7.24-2.54,10.45-1.4,3.74-8.78,13.82-6.78,16.99,1.39,2.19,4.91,1.1,6.5-.72,3.81-4.35,10.7-18.73,11.92-24.37.54-2.52-.57-8.88-2.26-10.76ZM767.77,310.19c1.5.88,14.8-4.32,16.62-5.52,3.53-2.35,1.72-5.1-1.6-5.94-4.01-1.01-15.2.14-17.68,3.57l-1.42-.62c-.57,1.3,3.67,8.27,4.08,8.51ZM488.76,304.84l-25.21-4.73c-1.6,5.03,7.66,10.43,11.53,10.8,2.57.25,12.6-2.86,13.68-6.06ZM389.2,305.16c-6.64-4.6-8.26-3.48-11.92,2.81-1.63,2.81-2.53,7.96-5.09,8.69v1.56s1.57.4,1.57.4c.06.39-3.24.59-1.58,1.97,1.34,1.11,15.87-8.06,17.3-9.87,1.76-2.23,1.87-4.06-.28-5.55ZM314.39,306.69c-1.1-1.09-3.22-2.62-4.82-2.72-2.1-.14-19.35,3.73-20.48,4.82-.47.46-2.82,5.25-2.81,5.81l2.69,2.05c3.74-.49,17.05-5.55,19.67-3.89,2.19,4.2,15.65,18.49,13,22.67-12.6,6.13-26.84,7.09-40.28,10.52l-1.99,1.95-.15,6.55c1.17,1.15,28.49-4.83,32.31-5.9,4.28-1.2,22.82-7.64,24.82-10.63,1.27-1.89-2.46-4.52-3.87-6.41-5.03-6.72-12.74-19.58-18.09-24.84ZM445.58,424.42c-2.22-1.3-5.69-12.47-6.24-15.41-5.1-27.57,5.76-50.32,28.23-65.89,5.18-3.59,17.61-11.71,23.53-7.91s11.49,11.41,16.97,16.1l31.52-40.15-.4-2c-3.45.37-7.73-1.12-10.29,1.56l-20.53,27.93c-3.44.2-4.74-3.64-6.49-5.17-1.4-1.22-9.34-8.24-9.98-8.53-7.25-3.28-24.09,6.41-30.18,10.75-16.73,11.92-31.52,31.92-32.86,53.01-.91,14.41,2.77,42.24,19.36,46.6.94-.14,8.23-8.1,9.8-9.55,2.38-2.2,14.86-9.7,7.91-11.87-6.49-2.03-16.4,12.87-20.36,10.55ZM513.96,313.48c1.41-2.29-15.46-2.74-14.58,2.47.67,3.95,3.91,5.86,7.42,6.97,1.97-2.95,4.11-8.08,7.15-9.44ZM614.8,319.81c-2.27-.8-3.86-2.05-6.29-2.79-11.32-3.43-40.62-7.17-51.43-3.35-5.99,2.12-10.3,9.22-15.15,13.2l-31.11,40.58-4.38-.35c-4.84-3.17-17.7-20.06-22.08-20.51-5.35-.55-11.85,6.92-15.31,10.61-4.46,4.75-18.28,20.28-16.37,26.63,5.32,4.55,9.99,11.18,15.24,15.51,2.03,1.67,6.12,4.99,8.63,4.04,3.18-3.16,14.93-12.14,15.99-15.61.42-1.39.36-2.82-.25-4.15-.94-2.04-11.38-11.42-13.63-10.1l-2.98,4.62,7.07,6.99.5,1.63-9,7.14c-2.54-.35-12.94-11.8-13.01-12.99s.87-2.94,1.54-3.97l16.23-19.22c2.38-1.75,3.81-.28,5.74,1.17,7.34,5.49,15.59,16.82,22.49,20.84,2.96,1.73,5.56-2.24,7.49-4.4,12.19-13.67,22.61-30.97,35.07-44.49,2.28-2.47,5.85-6.26,8.82-7.72,8.05-3.96,28.94-.82,38.33.72,7.67,1.26,12.92,5.7,17.85-4ZM441.92,325.69c-1.27-1.07-8.31-7.2-8.87-7.35-3.48-.94-8.02,1.75-4.57,6.21,3.69,4.77,10.17,11.7,16.23,6.52,1.72-3.38-.87-3.76-2.79-5.37ZM780.22,321.38c-7.62,1.22-9.44,2.99-8.66,11.02,2.19,2.24,8.28-9.23,8.66-11.02ZM623.77,331.9c-17.72,31.65-36.69,62.67-58.19,91.92l-.3,2.54,2.76,2.87c2.47.42,14.67-15.85,16.69-18.58,16.73-22.6,30.43-47.22,46.11-70.47,5.37-7.96,16.59-15.57-.57-17.28l-6.51,9.01ZM283.16,334.77c1.23,1.23,23.64-4.57,23.62-6.7-5.15-6.09-15.34-1.13-22.32-1.22l-1.3,7.91ZM425.48,349.47c1.74-1.55,4.92-5.24,3.81-7.6-.62-1.33-10.19-8.59-11.89-8.69-3.65-.22-6.26,5.99-4.32,8.94,2.12,3.23,12.37,1.88,10.31,8.41.09.11,1.76-.76,2.1-1.05ZM587.62,333.98c-6.56-.58-13.83.43-20.48,0-1.76,0-1.34,13.28-1.17,15.35.78,9.7,7.03,25.84,5.45,34.63-1.13,6.29-13.19,18.34-17.29,23.73h-1.55s-20.92-18.55-20.92-18.55c-1.05-2.34,8.61-11.96,9.55-14.59.56-1.6-1.3-7-1.26-9.06-2.25-.58-2.44,1.12-3.88,2.19-1.3,4.68-14.77,17.02-15.03,20.32-.1,1.26.65,2.31,1.33,3.29,2.27,3.27,26.12,26.08,28.85,27.15,1.1.43,2.13.78,3.33.71l23.26-29.62.78-2.78,1.55.8c-1.68-4.12-.03-8.3-.21-11.99-.32-6.74-3.41-13.39-4.41-20.01-.71-4.65-.41-9.77-.89-14.48,6.53.33,13.01-1.63,19.35.76.65.88-2.02,7.23-2.75,8.14-1.62,2-3.28-.28-3.89,4.96-.4,3.42-.42,6.84,2.75,8.94,1.17.2,4.16-3.36,4.9-4.42,1.8-2.58,9.43-16.65,10.05-19.17.16-.64.35-.88-.02-1.58-1.01-1.94-14.65-4.48-17.39-4.73ZM666.79,349.73c-1.51-5.47-6.42-9.23-11.44-11.5-.75-.04-11.37,7.1-12.19,8.01-.69.77-.31,1.8-.78,2.65l24.41.83ZM550.38,392c4.12,2.22,9.63-7.05,10.1-10.32.99-6.97-2.73-18.81-3.87-26.14-.36-2.3-.61-13.37-2.09-13.68-12.06,7.18-2.39,26.09-.53,36.78-.85,4.11-8.35,6.14-6.43,10.28.09.19,2.63,2.99,2.81,3.09ZM409.2,351.32c-6.66,2.28-10.69-7-17.29-2.72-8.39,5.45,10.09,10.88,13.7,13,2.93-3.1,2.49-6.51,3.6-10.28ZM676.24,363.92c-.6-.8-14.7-2.25-16.94-2.36-6.45-.34-17.48-.74-23.64-.03-3.19.37-5.22,1.97-5.89,5.17.04,1.97,2.74,2.65,4.32,2.74,11.13-.9,22.87,1.89,33.89.78,4.72-.48,6.51-2.03,8.27-6.3ZM410.58,379.07c-7.83-4.01-23.08-16.76-31.7-16.8-6.07-.02-19.4,7.34-25.63,9.88-3.13,1.28-20.17,6.79-21.04,7.71-2.62,2.78.62,27.89,1.48,33.17.96,5.87,2.34,12.32,4.05,18.01.99,3.3,4.41,15.17,8.04,15.27.69.02,5.45-1.32,6.72-1.65,6.83-1.79,15.59-4.52,22.26-6.88,2.5-.89,18.87-7.33,19.54-8.24.55-.74.48-1.76.38-2.64-.79-7.02-3.91-15.68-5.07-23.32-.58-3.84.41-10.82-2.1-13.66-4.7-5.32-27.93.25-33.85,3.91-1.73,9,1.73,17.81,1.98,26.8.51.53,13.19-1.96,14.4-2.54,3.56-1.72-.04-6.35,2.14-9.27l-9.36,1.47c-.74-3.22-2.56-6.13-1.51-9.6,1.15-3.76,15.91-4.34,19.43-2.8l4.67,24.87-.97,1.82-32.93,12.44c-.94-.29-2.16-.49-2.93-1.08-1.66-1.27-4.58-13.22-5.18-16.08-2.32-10.95-3.78-23.14-2.01-34.19,10.46-1.89,28.79-15.03,38.89-12.92,2.74.57,20.46,11.07,21.43,13.22,1.63,5.15-.47,11.3-.41,16.1.37,29.32,16,55.96,40.27,71.65,48.74,31.51,112.53,24.1,163.53,2.17,28.18-12.11,50.16-30.58,71.57-52.11,1.76-1.77,9.6-11.56,10.36-11.76,1.05-.28,1.5.06,2.27.66,1.64,1.27,8.75,11.47,8.29,13.73-2.6,2.21-6.35,1.87-9.13,3.65-4.62,2.96-6.21,7.99,1.39,6.92,2.97-.42,12.27-3.29,15.22-4.49,1.01-.41,2.31-1.04,2.59-2.18.7-2.82-5.53-13.25-7.45-15.93-1.25-1.74-9.86-12.1-10.91-12.71-1.34-.78-2.27-1.11-3.83-.62-1.22.38-14.08,16.69-16.58,19.29-47.63,49.65-135.22,83.79-202.38,57.59-41.41-16.15-56.47-46.08-55.76-89.25.05-3.17,2.04-6.47-.17-9.62ZM616.37,388.34c12.58-.07,25.56,1.82,38.2.77,4.25-.35,8.33-1.23,11.42-4.32l-8.26-2.75c-11.98,1.27-26.18-3.05-37.83-1.65-2.19.26-4.33,5.59-3.52,7.94ZM295.98,416.53c.22.29,2.45,1.59,2.93,1.39,8.63-9.78,16.02-20.06,20.34-32.49.34-.97,1.48-1.28.16-2.24-1.5-1.26-8.68.42-9.4,1.27-.59.69.67,2.76.27,3.9-.18.51-5.44,8.68-5.82,9.06-1.09,1.09-2.45,1.07-3.59,1.92.13-6.21,5.35-19.37-5.97-13.65-1.19,1.87-.9,11.97-.76,14.87.08,1.72,1.35,15.31,1.82,15.96ZM525.45,411.51c-4.31-4.21-8.8-8.25-13.08-12.52-1.81-1.8-2.73-4.98-5.87-5.06-2.67-.06-7.03,3.95-9.11,5.79-9.32,8.24-21.62,21.74-30.31,31.14-1.66,1.79-10.35,11.2-10.46,12.34-.06.65.17,1.06.4,1.61,1.52,3.68,21.3,12.9,24.86,11.93l19.81-21.99c.64-.74,1.33-.78,2.24-.64,4.71.71,22.76,21.79,28.16,25.48,3.82,1.05,7.16,1.22,11.01.41v-2.36s-1.57.8-1.57.8c.53-2.91-3.53-4.1-5.44-6-5.63-5.63-10.75-11.81-16.61-17.26-2.05-1.9-10.75-10.08-12.38-10.45-2.05-.47-5.15-.55-6.97.58-4.34,2.63-18.44,21.18-21.4,21.98-2.74.74-11.73-3.73-10.28-6.83l36.44-35.6c1.2,0,3.72,2.27,4.76,3.14,9.58,8.06,18.67,19.34,27.9,28.01,7.6,4.48,13.4,14.39,19.77,19.63,4.93,4.06,8.28-1.29,13.36-1.16.27-1.44-1.48-.42-2.13-.97-.6-.51-.94-1.77-1.76-2.59-13.51-13.42-27.74-26.14-41.34-39.43ZM458.03,407.22c.45-.63-3.62-5.57-4.32-6.3-1.52-1.58-2.99-3.16-5.12-3.93.21,7.27-.11,15.5,9.44,10.23ZM651.79,403.35c-.14-.22-2.83-.78-3.5-.84-9.88-.91-21.24-.12-31.55-.83-5.72-.39-13.07-4.14-13.18,5.43l-1.35.51c2.4,2.98,5.97,1.54,9.05,1.98,7.83,1.13,29.26,3.68,35.6-.27.43-.26.81-1.41,1.52-1.98,1.23-.99,4.79-1.84,3.41-4.02ZM628.19,421.42c-6.15.98-13.06,1.14-19.33.82-7.2-.37-20.41-6.06-18.93,6.33.93,1.29,24.75,2.69,27.58,2.26,2.46-.38,13.13-6.67,10.68-9.4ZM324.14,436.38c-1.88,5.01-8.49,8.35-7.51,14.22l13.34,1.45c.86-.36,1.19-.96,1.28-1.87.23-2.34-5.78-14.7-7.11-13.79ZM596.68,441.91l-16.92-2.38c-6.92,2.54-.23,7.32,3.12,10.05l13.78-5.36.03-2.31ZM399.52,442.92c-1.96-1.7-8.68-.23-8.23,3.18.51,3.84,10.75,18.05,9.68,20.2-1.2,2.42-18.07,16.65-20.7,17.21-3.17.68-4.67-1.15-6.52-3.41-3.79-4.61-6.47-11.05-10.24-15.76l10.56-3.6c.61,2.13,4.21,8.77,6.37,8.75,10.23-4.47,1.16-13.39-1.93-20.12l-4.76.79-22.03,8.73c-.94,3.06,10.58,19.06,13.05,22.29,2.17,2.83,12.53,16.01,16.09,14.65l31.36-27.73c.84-3.1-4.52-9.95-6.23-13.01-.25-.45-1.09-.56-1.47-1.23-1.4-2.41-3.19-9.37-5.02-10.96ZM517.11,461.61c-4.16-2.37-9.51-7.15-11.03-11.83h-.77c.36,2.38-1.84.49-3.6,2.3-.22.22-3.25,5-3.32,5.32-.28,1.38-.21,2.8-.18,4.19l18.51,1.58.4-1.57ZM675.46,450.56c-7.18-.84-14.48,5.11-19.86,9.46-1.14.92-6.86,5.9-6.74,6.7,1.33,1.89,6.7,4.9,8.74,4.24,2.69-.87,1.32-4.31,1.46-4.53.31-.49,9.55-6.19,10.1-5.63.83,8.86,4.47,19.1.7,27.51-.79.58-8.59-2.11-10.14-2.71-7.2-2.79-18.88-10.68-26.22-9.65-.89.13-4.92,1.05-4.51,2.56.91,2.26,15.95,9.35,19.15,10.78,9.36,4.18,19.21,7.53,28.89,10.89,3.88-16.48.59-33.25-1.57-49.63ZM340.63,464.78l-32.49-2.42c-.59.14-5.4,9.03-5.73,10.25-1.12,4.1,3.98,10.77,7.14,13.38l3.51-13.77c3.93-1.68,28.52,3.46,29.25-.11l-1.67-7.34ZM723.43,464.82c-1.53-2.15-9.39,1.64-11.61,2.41l.59,12.92c.71.51,1.89.52,2.7.25.68-.23,7.29-10.59,7.77-11.94.34-.94,1.08-2.88.54-3.65ZM421.59,476.67l-31.71,28.28c-1.2,2.91,5.38,8.79,7.5,10.62,3.59,3.11,9.14,7,13.16,9.69s13.92,9.25,17.79,10.58c3.1,1.07,3.64.62,5.72-1.74,1.81-2.07,9.84-15.81,10.23-18.09.83-4.88-15.09-9.46-18.33-12.49-2.08-1.24-7.54,2.11-7.21,4.06,8.22,7.58,20.49,6.34,7.43,19.27-3.66-3.77-23.74-14.73-24.74-18.53-.3-1.15.23-1.94,1.05-2.65l20.52-17.76,36.65,19.77.82,1.59-22.1,43.37c-.71.44-5.7-.66-6.88-1.06-4.79-1.62-18.88-10.98-21.93-11.18-1.69-.11-16.08,4.66-16.08,5.88,2.66,2.56,9.76,5.23,13.37,5.59,2.82.28,4.32-1.34,6.32-.92,4.63.98,14.29,7.71,20.49,9.48,10.63,3.04,11.26-.26,15.62-8.76,6.84-13.33,15.39-30.66,20.98-44.4,3.48-8.55-3.65-6.72-9.83-9.07-9.81-3.74-19.8-9.8-28.62-15.49-2.53-1.63-7.41-6.82-10.22-6.05ZM617.95,483.65c-11.08-.87-7.83,5.68-8.77,12.9-2.07,15.95-5.74,31.55-10.15,46.97-1.88.29-3.25-1.03-4.64-2.04-5.19-3.79-10.81-10.21-16.25-14.48-6.24-4.89-22.33-17.36-28.53-20.07-.21-.09-.23-2.63-3.11-.18-10.81,13.37-20.86,27.62-32.92,39.93-2.64,2.7-13.45,13.69-16.51,13.42-4.11-.97-19.04-21.27-20.52-21.29-5.52,5.17,3.74,16.4,7.5,20.84,6.73,7.94,19.6,20.97,30.69,18.52l-9.94-10.21.06-1.57c4.8-4.42,9.78-8.61,14.23-13.4,9.48-10.22,17.95-23.27,27.54-33.11,1.14-1.17,2.28-2.46,3.95-2.87,18.13,11.92,33.01,28.48,51.92,39.06,3.11-.72,10.31-31.27,11.28-35.99,2.48-11.95,4.64-24.18,4.16-36.42ZM329.64,508.07v-13.79c1.32-2.76,14.66.07,15.41,1.14,2.43,11.31-8.64,23.31,5.47,29.96l2.74-21.65c-.43-5.99,1.51-11.97-.49-17.76l-31.01-1.54c.75,6.26-2.79,12.47,1.28,18.07l6.6,5.57ZM597.4,493.17c-1.6-.36-3.13-.01-4.69.29-7.67,1.5-16.79,6.03-24.3,7.88-.84.21-1.62-.37-2.44-.37-1.86,2.28,7.98,8.31,9.85,9.26,1.53-.11,5.6-7.78,7.21-8.34,5.16-1.8,10.23,3.63,12.38,2.98,2.27-.69,2.81-11.24,2-11.7ZM685.7,514.38c-18.74-5.27-37.38-10.9-55.13-18.92-1.97,14.54-4.12,28.57-8.11,42.71-1.78,6.3-4.33,12.43-6.07,18.73,4.91,1,7.26.31,10.75-3.34,3.34-14.79,7.14-29.51,9.02-44.62,1.84-.37,3.66-.1,5.47.27,9.73,1.95,21.68,9.37,31.86,11.49,4.65.57,9.24-3.04,12.21-6.33ZM372.27,530.03c-2.76-1.74.84-18.49-.26-22.19-.64-2.16-5.76-4.85-6.53-7.64l-3.18,32.34,14.05,6.82c5.11-2.05,11.18-3.15,16.22-4.98.64-.23,4.15-1.69,4.34-1.82,2.83-1.97-5.21-6.09-7.82-6-3.05.1-15.29,4.44-16.82,3.47ZM509.54,525.93c-1.07-3.02-1.63-5.25-3.31-8.15-1.13-1.96-7.17-11.13-8.38-12.11-1.61-1.31-9.18-2.38-10.33-.81-2.75,3.78,7.51,10.99,9.89,13.86,3.17,3.82,9.41,10.54,1.61,12.63-4.77,1.27-9.91-8.04-13.82-10.66-.94-.33-2.97,2.85-3.1,3.17-1.93,4.79,5.16,9.07,8.26,12.16,2.73,2.71,4.76,8.11,9.44,7.5l-.8-1.56,2.26.64c1.26-3.29,6.63-6.42,8.04-8.87.52-.91,1.66-6.18,1.55-7.02-.06-.49-1.22-.53-1.31-.77ZM529.72,505.71l-15.25.19c-2.85.97,2.28,9.23,3.57,11.1.54.78,1.09,1.5,1.84,2.09,1.01,0,7.36-9.04,8.32-10.61.4-.66.02-1.43.23-1.83.2-.37,1.63.34,1.29-.93ZM591.95,525.39l1.53-9.74c-3.29-4.49-9.64.27-8.5,4.45.38,1.38,6.26,6.05,6.98,5.29ZM642.37,543.51c1.5,1.38,18.81-9.28,20.46-12.2.01-1.85-14.68-5.06-17.28-5.89l-3.18,18.09ZM556.26,535.11c-.7-.52-2.89-1.17-3.69-.69l-26.79,33.52c16.7,2.42,33.51,5.9,50.42,3.15.68-.75-5.25-12.23-6.17-13.91-1.7-3.1-12.22-20.92-13.77-22.06ZM577.51,588.16c-.41.61-2.05.94-2.08,1.44,2.41,2.6,8.18-.97,10.6-2.78,3.26-2.44,11.57-12.48,12.08-16.31.92-6.82-11.65-12.09-16-16l-1.96,1.2c1.77,3.66,6.98,9.9,6.89,13.95-.09,4.1-6.92,14.59-9.54,18.48ZM550.99,582.91c5.25,7.58,12.82,8.8,14.96-1.58-4.71,2.23-9.92,1.48-14.96,1.58ZM461.98,616c-4.07-.6-8-2.01-9.11,3.18l1.57,2.05c4.4-.49,6.43-.5,7.53-5.24ZM573.03,622.33c-1.85-.49-4.59-1.54-6.35-.46l-.73,7.51h6.31s.77-7.06.77-7.06ZM454.1,632.54l-7.15-.38-1.48,5.05c2.23.96,4.16,2.18,6.58.79l.93-.74c-.93-3,1.6-1.9,1.12-4.71ZM570.63,638.88l-7.82-.84-.47,5.56c5.79,2.71,9.36,3.22,8.28-4.72ZM446.88,647.62h-7.62s-.57,4.65-.57,4.65l7.55.73c-.79-1.93-.28-2.79,1.58-3.52l-.93-1.86ZM559.66,653.8c-1.73,7.74,9.03,10.45,7.53,1.54l-7.53-1.54Z"/>
  <path class="cls-1" d="M334.87,200.57c-11.94,10.95-31.62,4.98-34.19-11.33-2.16-13.66,11.35-25.57,24.6-24.65,5.85.41,14.99,9.44,16.42,15.13,1.89,7.54-1.24,15.72-6.83,20.84ZM318.4,178.95c-8.02,1.75-3.29,13.52,1.33,13.25,1.31-.08,5.57-3.01,6.3-4.01,3.58-4.92-2.22-10.42-7.63-9.24Z"/>
  <path class="cls-1" d="M353.78,165.69c6.04,3.75,9.35,15.41,9.76,22.13,1.46,23.87-19.92,43.35-43.66,39.71-6.69-1.02-10.47-3.7-10.72-10.93,25.06,8.92,49.98-14.51,40.98-39.81-1.77-4.97-6.47-8.25-6.33-13.75.95-.93,8.5,1.74,9.96,2.65Z"/>
  <path class="cls-1" d="M372.17,241.03c2.88,8.55,9.47,23.92,16.22,29.87,4.56,4.01,13.5,6.02,18.34,9.26.62,2.72-2.26,7.93-4.96,8.08-3.5.2-17.43-5.44-20.53-7.82-4.29-3.3-6.54-9.13-10.63-12.59-3.02,16.61-9.78,35.05-22.89,46.16-1.99-.5-16.81-17.28-17.13-19.13,6.41-12.42,11.68-26.2,10.86-40.42l10.24-2.37c1.04,10.22-1.33,20.75-4.7,30.34-1.41,4.02-6.72,10.98-3.13,14.13s4.82-.22,6.27-3.11c4.62-9.19,7.8-22.08,8.65-32.31.28-3.37-.72-9.86.15-12.48.95-2.88,5.38-2.58,7.11-3.69s2.56-4.7,6.13-3.91Z"/>
  <path class="cls-1" d="M562.81,564c-7.89,0-16.25.29-23.63-2.75l13.78-13.81c2.56,0,11.58,14.8,9.85,16.57Z"/>
</svg>