<?xml version="1.0" encoding="UTF-8"?>
<svg id="Camada_1" data-name="Camada 1" xmlns="http://www.w3.org/2000/svg" viewBox="0 0 1024 768">
  <defs>
    <style>
      .cls-1 {
        fill: #413253;
      }
    </style>
  </defs>
  <path class="cls-1" d="M350,373h12.01c-.68-34.66,21.48-69.83,49.27-89.22,17.43-12.16,41.42-22,61.71-10.78-5.49-26.81-2.58-63.03,31.53-65.98,44.45-3.85,87.3,55.85,86.49,96.98,1.17,1.29,7.21-5.95,8.52-6.97,12.84-10.02,20.54-6.43,31.95,3.01,29.8,24.66,45.28,73.29,37.52,110.96l9.03.53c4.66-2.81,4.34-23.73,4.02-29.05-1.42-24.03-8.89-47.71-10.08-71.92-4.46-90.55,46.35-159.27,124.02-200.06,5.97-3.14,25.1-13.87,29.9-6.86,3.34,4.87,9.86,25.09,12.14,31.86,30.8,91.84,31.68,194.18-48.55,260.49-20.11,16.63-42.13,24.94-64.45,37.53,8.22,10.27,8.26,23.97,10.12,36.36,34.77,2.02,93.39,35.82,89.9,75.69-1.69,19.24-23.55,38.7-39.37,47.63-34.26,19.33-80.42,24.02-119.03,20.74-11.06,29.64-37.01,31.01-63.02,18.96-6.68-3.1-8.48-7.94-17.54-4.79-1.18,13.85-11.12,23.98-21.77,31.73-22.14,16.14-54.56,24.26-81.34,16.71-27.33-7.71-15.08-20.94-1.49-35.54,1.4-1.51,11.82-9.81,10.51-10.98l-30.27-.85c-28.05,27.09-75.7,41.08-112.69,25.31-16.36-6.97-28.83-19.24-27.17-38.33l-25.39-7.1c-3.85,8.34-10.86,14.8-18.8,19.13-36.04,19.66-92.84,9.4-119.69-21.64-8.23-9.51-17.79-25.19-10.61-37.67,9.28-16.14,50.56-22.31,67.64-18.87-18.65-24-3.9-57.78,12.6-78.89,19.78-25.3,47.25-43.08,80.41-42.62l-2-10c-48.87-24.03-91.76-61.39-114.19-111.81-26.88-60.4-22.81-136.36-4.32-198.67,1.56-5.25,7.52-26.67,11.51-28.48,3.66-1.66,6.46-.17,9.66,1.3,16.2,7.4,44.42,30.43,58.34,42.67,71.59,62.94,106.27,154.85,82.98,249.51ZM251.01,206l21.82-47.25c-.99-1.96-2.41-3.6-3.8-5.27-5.28-6.32-35.75-27.84-43.45-31.55-9.63-4.64-3.33,11.52-.13,15.12,6.11,6.87,22.78,13.84,30.59,19.62,2,8.08-10.06,21.97-10.84,30.07-.49,5.12,5.78,13.68,5.81,19.26ZM806,135.01c-1.86-1.47-25.21,12.99-25.83,15.69,4.55,19.21-.69,38.88-1.15,58.3l26.99-73.99ZM230.99,206l-24.49-63.99c-5.89,14.39-7.14,31.83-8.34,47.34l32.83,16.66ZM795.01,218l33.56-18.94c-.27-5.56-7.01-41.89-11.07-42.04l-22.49,60.98ZM762.99,165.01c-.63-.74-7.11,4.7-8.01,5.48-12.11,10.52-23.84,23.95-32.86,37.2-.25,1.62,8.59,9.25,10.29,11.4,10.55,13.4,14.24,34.47,11.58,50.91,2.9.57,1.6-.85,2.25-2.19,4.58-9.35,7.46-19.39,9.43-29.61,1.61-8.36,9.7-70.38,7.31-73.18ZM331.8,344.19c-9.12-7.2-29.86-9.75-25.33-25.22l22.1-44.96c1.21-4.96-1.39-8.22-5.52-10.56-13.45-7.61-30.43-13.09-43.72-21.28-6.17-3.8-9-6.06-6.86-14.2l21.12-44.93c.44-2.94-4.26-8.95-7.08-10.03-2.39.59-20.13,38.85-22,44.01-1.75,4.84-3.84,9.82-3.1,15.02.35,2.43,5.19,16.09,6.62,17.42,6.64,4.91,42.96,18.15,44.77,24.26.88,2.96-.39,5.57-1.33,8.26-2.58,7.38-17.62,31.49-17.44,36.42l24.98,65.6c1.96,1.36,6.89-3.86,7.72-5.76,1.16-2.64,5.94-32.56,5.07-34.04ZM304.98,205c-2.33-.51-1.6.32-2.22,1.28-4.25,6.56-7.45,15.47-11.66,22.23.12,1.57,25.03,11.94,28.9,12.47l-15.02-35.99ZM235.99,330c5.03-20.45,16.01-39.3,20.3-59.78l-16.26-41.75-41.54-18.44c-2.76.16-1.77,18.53.92,21.06l44.39,26.6-.29,9.32-20.13,46.51c-.12,2.61,7.59,12.61,9.8,14.8.88.87.85,2.19,2.81,1.68ZM831,218c-.95-1.01-17.2,8.42-19.67,9.83-17.29,9.87-35.49,19.61-41.33,40.16l61.9-28.09-.9-21.9ZM506.01,227.01c-1.51,1.32,13.51,16.74,14.97,18.52,17.68,21.5,32.42,45.13,47.53,68.45,6.1-11.35-.63-28.43-5.64-39.34-9.48-20.6-31.82-48.97-56.85-47.64ZM701.01,360c1.49-.25,1.93-1.83,2.49-3,5.44-11.37,11.48-28.61,15.21-40.79,9.15-29.89,14.12-62.07-5.21-89.19-24,39.72-20.48,89.03-12.49,132.98ZM495.98,235.01c-8.47,2.96-5.96,16.18-4.71,23.22,4.98,28.08,33.68,63.47,63.73,64.77.17-1.43,0-2.61-.55-3.95-3.86-9.53-20.61-33.09-27.23-42.77-8.92-13.03-19.36-27.43-30.25-38.8-.6-.63-.91-1.6-.99-2.47ZM212.01,293c1.84.38,1.97-.49,2.75-1.73,1.37-2.18,9.45-24.17,9.1-25.57-1.84-2.27-21.85-13.52-22.86-12.68l11.01,39.99ZM820,298.5c.49,4.59-.35,9.83,0,14.5,5.36-6.77,7.11-18.2,8.68-26.82.96-5.22,4.11-23.21,2.56-26.95-.43-1.04.13-1.68-1.54-1.07-33.41,18.45-78.59,27.12-88.04,69.99-8.37,37.96,36.82,36.89,57.35,17.35,11.2-10.66,4.18-27.97,2.98-41.51-9.68,4.83-30.33,9.18-26.05,23.56,5,3.52,16.32-9.37,18.67,1.4,3.14,14.41-30.39,24.93-37.09,6.03-4.54-12.82,3.68-27.59,14.18-34.8,4.97-3.42,30.87-16.1,36.05-16.95,9.18-1.52,11.44,7.47,12.26,15.26ZM284.01,296c3.89-3.28,4.97-9.34,7.89-13.52l-13.89-7.48c.14,7.42,5.27,13.63,6,21ZM383.01,365.99l74.01-76.51c-13.65-2.28-27.51,6.14-37.91,14.12-18.47,14.17-35.88,38.42-36.1,62.39ZM283.99,342l-17.98-45-11.91,30.34c.7,2.4,25.9,13,29.89,14.65ZM472.5,299.02c-12.1,9.81-24.05,19.86-35.01,30.97-11.98,12.14-30.85,31.99-40.48,45.52-2.41,3.39-2.26,4.93,2.44,5.54,23.6,3.08,57.03-25.53,68.35-44.75,5.99-10.18,12.6-26.81,4.7-37.28ZM335,301c-2.32-.56-1.65.43-2.29,1.26-1.33,1.71-8.77,16.02-8.57,17.1l9.37,6.62c.31.11,1.49-2.35,1.49-2.49v-22.5ZM641.98,420.99c18.84-30.68,2.72-83.9-24.51-104.96-7.48-5.79-9.29-1.45-12.95,5.99-13.56,27.55-11.2,67.37,8.5,91.46,3.55,4.35,9.02,9.91,14.97,9.53,2.44-18.13.44-35.43-3.31-53.19-1.57-7.42-5.82-17.8-6.46-24.57-.16-1.74-.32-2.09,1.27-3.22,15.84,22.06,24.63,51.91,20.5,78.97h1.98ZM304.99,396l-13.46-32.03-46.52-20.97,7.48,10.01c16.23,15.83,33.65,30.34,52.5,42.99ZM550.99,346.01c-36.87-12.09-85.82,10.09-92.99,49.98l29.08-20.41,26.89-15.11,37.01-14.47ZM778,376.01c-15.64,4.55-30.32,1.9-42.47-9.04-3.57-3.22-5.28-7.12-8.1-9.9-.82-.81-.88-1.44-2.42-1.06l-23.94,57.9c4.83,1.08,8.48,6.84,13.86,4.55,21.54-13.32,44.06-25.5,63.06-42.45ZM559.76,358.25c-13.6,1.67-43.93,17.16-56.79,24.23s-26.28,15.32-36.95,26.02c6.89,8.24,21.41,8.32,31.46,7.48,24.21-2,54.91-20.24,65.33-42.67,2.88-6.2,7.38-16.35-3.05-15.07ZM332.01,423c8.72,29.34,49.34,45.25,77.53,43.03,25.84-2.03,34.26-21.82,17.98-42.05-16.59-20.61-50.14-34.42-76.16-27.14-6.72,1.88-14.64,6.53-17.34,13.14,28.39,8.42,58.89,18.64,81.99,37.53l-1.54,2.44-82.45-26.96ZM605,454c-.06-7-6.37-13.7-11.67-17.82-22.3-17.34-58.11-17.38-82-3.34-5.4,3.17-17.43,12.25-18.34,18.67-.33,2.31,1.78,1.65,3.55,1.54,21.01-1.31,41.9-2.8,63.01-2.08l45.46,3.04ZM693.76,433.24c-4.72-4.56-20.74,1.14-26.11,3.9-24.6,12.62-46.6,43.94-44.62,72.35.35,4.99,2.17,15.23,7.96,8.99,9.82-10.59,20.17-29.51,30.06-41.93,9.12-11.45,19.76-21.75,28.93-33.07,1.96-2.42,6.73-7.38,3.78-10.23ZM710.76,447.25c-1.2-1.21-4.03-1.69-5.3-.33-23.14,24.4-44.07,50.72-65.12,76.91-6.67,12.28,13.01,7.73,19.34,5.35,16.82-6.34,34.22-21.45,42.84-37.16,4.51-8.22,15.49-37.44,8.24-44.77ZM292.65,518.65c12.33-12.25,28.45-38.13,26.26-56.07s-25-12.82-36.89-8.06c-22.74,9.09-46.53,33.53-54.05,56.95-.87,2.69-4.66,14.51-1.36,15.48,2.04.29,3.39-.89,4.89-1.96,8.16-5.83,19.01-19.48,26.98-27.02,12.83-12.16,26.31-23.7,39.04-35.97l2.49,1.52c-17.63,28.52-42.08,52.57-65,76.98,19.97,5.84,43.76-8.05,57.65-21.86ZM604,466.01c-5.25.84-10.53-.84-15.46-1.05-25.68-1.1-58.56-1.46-84.08,0-2.83.16-7.14.65-9.97,1.05s-1.42,2.57-.35,4.36c18.22,30.62,93.07,28.88,109.87-4.36ZM412.99,492.01c-25.15-14.99-60.22.69-80.01,18.47-16.02,14.4-41.6,53.13-3.47,56.5,34.25,3.02,83.52-24.71,89.48-60.97-3.25-2.39-25.22,7.76-29.68,9.81-18.83,8.68-38.8,23.9-57.34,30.66-.81.3-9.37,3.42-7.97.03,19.35-20.09,44.38-34.04,68.63-47.37l20.35-7.13ZM465.76,501.26c-1.04.15-8.67,1.81-7.28,3.75,20.7,14.62,41.92,31.2,59.03,49.98,5.52,6.05,10.67,14.24,16.08,19.92.57.59,1.44,2.52,2.41,1.61,9.89-16.24-1.7-35.78-12.49-48.53-13.72-16.21-35.61-29.95-57.75-26.73ZM445.08,514.08c-8.07,25.38,14.43,50.68,35.25,62.09,12.62,6.92,31.33,13.18,45.21,7.86,1.21-1.56-2.54-5.41-3.52-6.56-11.97-14.09-32.57-31.91-47.01-43.99-4.08-3.41-25.87-22.25-29.93-19.41ZM788.99,528.99c-2.13-6.6-14.44-9.57-20.77-10.72-23.36-4.27-49.25.31-67.7,15.76-2.86,2.4-16.84,16.91-14.52,19.97,31.75-14.66,67.8-24.67,102.98-25.01ZM646.99,603c4.01-24.1-16.01-51.06-33.46-66.02-15.89-13.61-53.04-32.74-50.56,4.56,1.98,29.81,28.31,66.49,56.81,76.18,4.06,1.38,22.12,6.27,21.27-1.18-17.33-21.66-41.55-43.95-54.56-68.52-.94-1.77-3.4-4.68-.98-6l61.49,60.98ZM795,542c-30.11.57-63.16,6.31-90.68,18.82-2.39,1.08-15.82,7.23-15.29,9.6,5.42,6.16,16.49,8.53,24.48,9.56,23.52,3.05,51.69-3.42,69.96-19.02,5.35-4.57,12.04-11.53,11.53-18.97ZM177,598.01c19.27,19.27,70.32,30.99,92.93,14.42,9.23-6.76,1.99-14.2-4.4-20.46-21.02-20.58-61.55-32.41-89.52-21.46-12.82,5.02-8.14,8.56.97,14,22.13,13.23,41.62,12.13,64.21,18.81,4.85,1.43,3.52,2.6-.62,3.74-14.24,3.95-32.71.47-46.79-3.36-5.7-1.55-11.17-3.93-16.78-5.71ZM341.01,618c24.34-5.24,48.41-12.18,72.97-16.52,5.3-.94,22.41-4.57,26.37-3.31.99.31,1.89,1.2,1.66,2.32-1.25,5.31-49.39,17.26-56.99,19.02-11.26,2.61-24.46,3.77-35.26,6.74-9.85,2.71,4.15,9.17,7.97,10.52,28.95,10.21,77.15-.16,94.3-27.25,6.45-10.19,7.79-15.85-2.9-23.15-25.63-17.5-73.26-9.46-96.03,10.23-5.97,5.16-12.86,13.11-12.1,21.39ZM535.78,622.28c-19.91,2.39-37.85,20.52-48.78,36.2.92,1.45,1.95,1.39,3.45,1.56,19.67,2.24,46.67-3.73,62.86-15.23,3.63-2.58,14.4-10.91,12.22-15.78-3.48-7.74-22.64-7.61-29.75-6.76Z"/>
  <path class="cls-1" d="M442.79,109.22c19.79-2.02,18.16,31.24,15.56,43.63-4.64,22.05-25.02,48.79-45.31,58.69-33.86,16.52-34.73-20.75-28.3-43.3s33.61-56.53,58.05-59.02ZM439.65,129.12c-7.6.73-27.56,25.37-31.44,32.59-5.04,9.37-10.6,23.38-8.26,33.87,4.09,2.97,20.14-12.68,23.03-16.1,9.05-10.73,21.47-33.75,19.03-47.97-.23-1.36-.67-2.54-2.35-2.38Z"/>
  <path class="cls-1" d="M145.78,354.28c25.8-3.27,51.2,10.91,67.19,30.25,10.33,12.49,25.66,42.36,1.28,48.22-31.84,7.65-75.07-19.01-84.53-49.97-4.85-15.86-1.75-26.24,16.06-28.5ZM196.65,393.35c-11.59-12.24-33.47-24.67-50.62-21.3,2.79,14.28,17.49,27.62,29.66,34.75,9.24,5.42,21.52,11.03,32.41,8.6,3.17-4.3-8.26-18.68-11.45-22.05Z"/>
  <path class="cls-1" d="M798.31,467.69c-5.56-6.09-.78-18.04,2.52-24.36,13.76-26.4,50.21-43.26,79.41-39.07,16.88,2.42,16.22,17.81,9.56,30.04-14.46,26.57-55.02,47.87-84.78,37.18-1.48-.53-5.78-2.77-6.71-3.79ZM816,458c20.38-.86,40.8-13.46,53.51-28.99,3.04-3.71,6.08-6.82-1.01-7.1-13.57-.53-37.67,12.42-46.47,22.62-3.18,3.69-6.68,8.3-6.03,13.47Z"/>
  <path class="cls-1" d="M707.79,639.29c14.14-1.44,48.53-1.53,36.61,21.61-8.49,16.47-40.27,31.2-58.02,32.98-19.66,1.97-50.82-1.94-30.79-27.79,10.41-13.45,35.48-25.08,52.21-26.79ZM720,657c-16.75.08-36.76,5.66-47.97,18.5,1.69,2.22,4.96,1.64,7.46,1.48,10.54-.68,27.08-5.91,35.43-12.57,2.25-1.8,5.53-4.24,5.08-7.41Z"/>
  <path class="cls-1" d="M845.65,629.65c-7.43,7.98-22.24,16.24-33.16,17.34-50.98,5.14-29-35.61,1.53-47.47,27.51-10.69,59.5.2,31.63,30.13ZM831.99,614.01c-7.31-.08-15.31,3.28-21.67,6.82-14.9,8.29-13.32,14.67,3.65,8.65,6-2.13,17.8-8.25,18.02-15.47Z"/>
  <path class="cls-1" d="M623.66,153.66c-15.08,15.1-37.93-5.65-24.19-21.69,14.12-16.48,39.73,6.14,24.19,21.69Z"/>
  <path class="cls-1" d="M169.73,465.23c18.48-3.8,22.62,23.02,3.79,23.83-15.91.68-17.42-21.03-3.79-23.83Z"/>
  <path class="cls-1" d="M623.75,207.21c12.66-2.43,18.64,14.71,7.97,20-15.34,7.6-23.9-16.94-7.97-20Z"/>
</svg>