<?xml version="1.0" encoding="UTF-8"?>
<svg id="Camada_1" data-name="Camada 1" xmlns="http://www.w3.org/2000/svg" viewBox="0 0 1024 768">
  <defs>
    <style>
      .cls-1 {
        fill: #413253;
      }
    </style>
  </defs>
  <path class="cls-1" d="M795.87,281.91c4.46,3.77,11.72,4.02,16.81,8.98,1.47,1.43,14.7,21.22,15.05,22.53.83,3.11-.25,7,.26,10.22.35,2.18,1.98,3.63,2.37,5.49,2.04,9.57-5.34,15.09-8.08,22.99-1.49,4.29-1.42,9.05-2.63,13.1-1.3,4.39-4.74,9.86-5.49,14.61-2,12.79-.34,16.85-5.43,30.4-4.5,12-3.18,10.18-4.4,22.69-1.04,10.59-9.47,18.97-11.63,27.7-1.18,4.77-.42,9.39-2.16,14.44-2.61,7.57-9.4,13.88-11.94,22.14-1.54,4.99-1.63,10.33-3.14,15.21-3.06,9.81-14.24,15.23-18.74,24.96-2.28,4.93-2.67,10.86-5.3,15.67-4.11,7.5-12.39,10.73-16.51,15.82-3.14,3.88-4.52,11.15-8.34,15.26-3.53,3.79-10.71,7.65-14.86,11.36-6.54,5.84-10.7,13.34-17.06,18.77-8.65,7.39-29.95,14.92-31.69,26.91-1.84,12.74,16.47,26.85,8.41,39.83-.92,1.48-8.13,11.16-9.02,11.96-3.29,2.94-10.3,4.51-14.37,7.48-2.69,1.96-4.86,5.55-7.62,7.24-7.33,4.5-15.08,2.75-22.39,4.7-3.6.96-7.39,4.12-11.31,5.3-7.78,2.34-14.58,2.62-23.43,5.41-6.69,2.11-9.96.08-16.15.46-6.72.41-14.07,3.7-21,4.34-13.74,1.28-28.25,1.21-41.9.93-12.75-.27-21.23-2.4-34.13-1.81-9.17.42-16.54-3.06-25.44-4.24-13.41-1.77-13.61-.71-26.56-5.78-9.01-3.53-14.16-3.32-23.06-4.91-9.49-1.69-8.44-3.06-15.1-7.62-5.26-3.61-10.29-4.25-14.72-8.88-2.47-2.59-4.33-6.36-6.57-9.17-3.16-3.96-7.85-5.89-8.64-11.46-1.43-10.1,7.89-23.07,9.35-33.37-.77-8.14-8.12-11.02-12.93-15.48-2.53-2.35-4.28-5.42-6.55-7.43-3.22-2.86-6.96-3.34-10.33-5.4-6.75-4.11-11.24-11.37-17.27-15.94-4.34-3.28-10.81-4.92-14.38-8.35-5.18-4.97-6.75-12.48-10.89-17.95-3.03-4-10.96-9.5-13.1-13.31-1.36-2.42-1.32-5.55-2.44-7.86-1.21-2.49-4.29-4.33-5.79-7.32-1.39-2.79-1.31-5.07-3.29-8.08-2.79-4.23-9.04-7.39-11.09-10.76-2.76-4.52-3.11-12.43-5.49-18.1-4.01-9.53-12.11-14-14.51-23.95-1.37-5.68-4.54-13.66-5.26-18.34-.52-3.38.24-6.86-.41-10.08-1.17-5.76-8.26-15.24-10.04-21.42-1.65-5.72-.5-10.71-1.33-16.15-.96-6.22-5.97-12.07-7.41-18.8-1.97-9.2.31-17.2-3.57-26.15-2.02-4.66-6.6-10.01-7.65-15.07-.84-4.06.13-7.99-.44-11.79-.72-4.77-4.88-9.98-5.21-15.82s2.52-11.14,3.42-16.67c.45-2.79-.27-5.82.15-8.59.74-4.94,8.13-9.76,11.75-13.59,2.29-2.42,3.33-5.23,6.13-7.85,5.79-5.42,9.67-5.04,15.58-8.02,2.8-1.41,5.41-5.06,8.42-6.44,3.77-1.73,8.1-1.29,11.57-2.42s7.25-4.94,11.17-6.31c5.86-2.04,15.33-2.1,20.29-4.18,2.11-.88,4.31-3.45,6.76-4.61,2.81-1.33,13.64-3.36,17.13-3.84s8.85.71,12.01-.23c1.57-.47,2.67-2.78,4.16-3.7,7.7-4.74,12.53-1.74,21.22-3.25,11.78-2.05,22.83-6.72,35.99-7.71,6.75-.51,13.99,1.37,19.99.76,3.62-.37,6.6-2.42,9.97-3.14,10.7-2.29,19.06-1.32,29.49-1.97s20.09-1.79,30.14-2.28c1.2,5.67.7,9.7,2.81,15.58,5.17,14.43,20.03,31.37,36.85,29.42,21.82-2.53-1.96-32.22,3.26-42.21,3.27-6.26,12.34-3.7,18.03-3.38,20.31,1.14,41.32,3.05,61.78,3.67,6.07.18,14.33-.62,20,.1,6.66.84,14.42,2.62,21.76,3.67,4.27.61,8.43,3.55,12.53,4.06,4.34.54,7.53-.98,11.25-.83,5.34.22,12.93,4.05,18.66,5.02,7.64,1.29,15.91.17,23.81,2.41,4.19,1.19,6.31,4.07,9.57,5.29,5.8,2.16,13.92.93,20.16,2.56,5.17,1.35,9.01,5.39,13.69,7.29,10.27,4.16,18.9,1.81,29.01,9.45,1.84,1.39,4.83,5.41,6.21,6.03,3.74,1.67,10.24.54,16.03,4.07,2.66,1.62,3.6,4.36,5.2,5.72ZM583.22,248.99l-47.19-3.5c-.27,1.67.68,2.35,2.18,2.61,6.75,1.17,14.25.39,20.96.89,7.35.54,15.37,2.67,22.75,1.74,1.22-.15,2.51-.46,1.29-1.74ZM411.94,252.46c9.4-1.09,19.02-.84,28.39-1.75,1.7-.17,10.89-.98,10.91-2.18-1.03-1.52-3.03-.94-4.6-.9-9.44.21-21.23,1.33-30.8,2.21-1.62.15-4.61.33-3.91,2.62ZM357.74,257.72c-14.55,2.98-29.35,4.87-43.86,8.13-19.99,4.5-42.65,11.88-61.61,19.67-21.86,8.98-44.8,32.7-19.43,52.96,2.86,2.28,18.28,12.77,20.99,13.97,3.31,1.45,7.07,1.29,10.64,2.47,5.97,1.98,12.57,7.1,18.11,8.97,3.2,1.08,6.2.32,8.3.83,11.89,2.89,21.97,10.78,34.1,11.84,6.1.53,11.89-.73,18.12.24,8.74,1.36,17.87,6,26.56,7.52,24.42,4.27,46.12,2.71,69.83,4.46,15.19,1.12,29.02,3.18,44.54,3.53,16.76.37,33.33-.07,49.77-.03,13.74.04,26.69,1,39.7-2.08,14.53-3.44,23.94-.42,36.98-1.65,9.49-.9,19.12-4.24,28.65-5.4,6.99-.85,15.56.03,22.23-1.38,3.46-.73,7.38-3.21,10.79-4.07,15.98-4.01,32.79-4.48,48.88-10.55,9.61-3.63,7.84-3.95,18.98-5.49,5.72-.79,11.5-6.75,16.94-9.28,9.92-4.63,15.92-4.4,25.45-12.13,12.3-9.98,16.54-21.49,6.19-34.88-3.11-4.03-21.15-18.36-25.59-19.86s-10.14-1.37-14.61-2.87c-3.89-1.31-6.91-4.35-10.68-5.92-19-7.9-65.11-17.05-86.01-18.86-1.86-.16-3.71-.18-5.56-.11-.41,2.49.52,1.46,2.02,1.87,14.14,3.84,29.75,5.84,44.48,9.75,25.04,6.65,52.25,13.48,73.51,28.74,7.74,5.56,18,14.06,16.28,24.7-.86,5.31-16.26,19.09-21.52,19.57-2.8.26-4.86-6.25-6.4-8.16-15.02-18.73-54.77-29.89-77.75-34.99-52.14-11.58-99.8-17.86-153.36-18.78-61.67-1.07-128.75,4.05-188.59,18.62-21.81,5.31-60.33,16.57-75.76,33.48-2.16,2.37-3.19,5.97-3.61,9.07-18.54-2.47-28.94-23.33-14.85-38.01,29.57-30.81,74.8-31.95,112.78-42.78,1.51-.43,5.03-.82,4.35-3.07ZM236.5,386.8c-2.29-2.57-4.97-11.81-7.4-15.74-1.33-2.14-3.15-5.72-5.94-5.85-.74.83,3.05,19.2,3.75,22.03.83,3.38,2.66,12.44,5.06,14.16,7.68,5.52,19.03-10.3,24.39-14.78l-9.98-5.74c-1.39,2.83-6.45,9.76-9.87,5.91ZM794.72,371.33c-5.52-.13-8.44,18.84-13.54,13.98-.9-.85-4.44-10.91-7.5-7.33-1.31,2.71-3.37,4.21-1.13,7.22,3.31,2.32,9.74,15.04,12.29,15.73,1.07.29,1.87.26,2.48-.78l7.42-28.82ZM774.51,421.02c1.58-4.12,5.4-3.74,2.24-8.57-2.24-3.43-18.17-19.05-21.82-21.87-2.21-1.7-3.72-3.21-6.74-2.47-5.49,1.35-14.42,20.49-17.78,25.97-6.06,9.88-12.11,19.81-18.7,29.36.11,2.24,6.77.63,8.02.17,8.89-3.3,19.11-26.18,24.81-34.62,1.09-1.61,3.81-6.52,5.35-6.95,4.13-.92,4.35,1.93,6.33,3.84,3.8,3.65,11.45,11.89,15.29,14.45.89.59,1.93,1.33,2.99.71ZM282.1,394.52c-5.85-5.25-9.24-1.95-14.79,2.17-7.64,5.67-14.85,13.57-22.28,19.65,1.93,1.44,4.76,6.25,7.23,5.58,7.21-4.2,13.13-11.48,19.9-16.01,6.05-4.05,7.16-.91,10.45,4.3,7.76,12.27,12.77,34.98,29.69,35.41,1.45-1.42-5.9-13.76-7.16-15.99-4.08-7.26-17.79-30.37-23.04-35.09ZM709.31,400.4c-1.6,4-8.89,19.43-12.44,20.4-3.91,1.07-15.18-12.64-19.89-13.5-2.65-.48-10.37,1.97-9.7,5.42.42,2.19,17.5,14.25,20.56,16.13,2.84,1.74,9.55,6.13,12.75,5.28,3.91-1.04,20.7-32.36,25.03-37.11l-1.23-2.06-15.08,5.45ZM323.01,436.64c2.94,2.75,6.93-1.52,9.4-3.68,7.24-6.32,12.67-15.51,20.06-21.86l-3.22-2.87-44.25-7.98-1.46,2.07,19.46,34.32ZM458.92,424.48c2.31-4.97-9.07-4.28-11.66-2.53l-28.72,28.08c-1,.87-2.22,1.05-3.5.86-3.7-.55-14.46-17.79-17.62-21.79s-10.81-14.24-15.14-15.45c-8.5-2.37-11.07-.79-17.15,4.82-6.76,6.24-23.8,22.97-28.83,29.72-.72.96-1.56,1.57-1.34,3.02.28,1.84,10.04,3.25,12.09,2.91,4.54-6.33,10.55-11.27,15.96-16.79,3.38-3.44,10.4-14.29,15.82-13.12,4.4.95,21.2,30.69,27.38,36.29,3.24,2.93,8.02,3.37,12.25,2.56,1.24-.24,7.29-5.63,8.78-6.95,11.1-9.84,20.62-21.75,31.67-31.65ZM689.85,449.98c.36-1.59-.48-1.71-1.45-2.47-5.11-3.97-11.8-7.62-17.17-11.67-5.8-4.36-24.43-20.75-29.92-21.64-12.34-2.01-19.93,12.5-27.03,20.07-7.53,8.01-16.65,16.04-23.15,24.92-1.22,1.67-2.94,3.36-2.64,5.65,20.72.78,30.2-20.35,42.37-33.22,3.94-4.16,5.73-5.55,11.4-2.63,8.49,4.36,26.48,23.71,35.57,23.41,3.38-.11,8.41-2.12,12.03-2.42ZM606.82,418.53c-1.19-1.75-13.65.41-15.7,1.32-4.05,1.8-10.75,15.02-16.27,15.29-4.15.2-16.5-14.42-22.91-13.75-14.64.43-29.57.98-44.31,1.01-9.76.02-21.1-3.46-29.71,2.24-5.03,3.33-15.51,13.71-20.13,18.33-2.7,2.7-19.22,20.09-18.77,22.29s10.57,1.52,12.03.25c.84-.73.67-2.67,1.19-3.17.14-.13,1.27.46,1.7.24,7.13-3.75,16.99-16.89,23.84-22.77,7.44-6.38,9.01-6.93,18.91-8.6,11.14-1.88,25.74-1.21,37.19-.48,3.3.21,14.21.66,16.23,1.42,1.69.63,12.47,7.27,14.69,8.72,3.7,2.42,7.61,9.08,12.52,8.12,3.72-.73,13.29-11.05,16.4-14.27,2.53-2.62,10.82-10.87,12.26-13.09.69-1.06,1.1-1.76.83-3.09ZM421.27,419.67c-2.72-1.89-8.69-.9-11.96-1.14-1.23,1.1,6.49,10.52,8.27,11.02,4.59.26,7.15-7.48,3.69-9.88ZM758.89,428.99c-7.81-15.95-13.66-5.35-16.59,6.13l16.59-6.13ZM282.58,435.12c-.42-9.74-11.74-19.04-14.79-5.31l14.79,5.31ZM242.67,440.9c-.47-.34.18-1.76-1.15-1.4,1.01,4.68,2.3,12.92,8.73,11.35.5-8.42-2.83-6.56-7.57-9.96ZM732.95,473.86c4.27-3.64,20.4-7.85,26.86-11.16,7.27-3.73,17.38-9.29,16.14-18.82-12.46,3.85-23.28,11.53-35.42,16.15-5,1.9-17.22,4-20.58,7.39-3.01,3.04-2.41,13.74-3.13,18.71-1.22,8.4-3.33,25.17-7.06,32.27-1.31,2.49-5.34,3.44-7.49,2.19-.53-.31-5.58-8.16-7.14-9.89-9.3-10.3-32.09-26.34-46.02-27.44-15.58-1.23-42.53,11.35-52.58,23.23-39.43,46.58,21.59,93.64,60.06,60.97,20.57-17.47,16.35-49.35-12.85-51.75-11.81-.97-28.01,14.11-21.54,25.98,2.38,4.38,9.27,4.61,11.64.41,1.18-2.09,2.36-10.37,5.55-11.44,10.36-3.46,18.08,9.6,14.41,19.16-11.54,29.99-58.11,18.12-54.82-15.49,2.99-30.56,39.54-46.82,66-32.81,59.79,31.67.95,108.4-54.68,92.26-35.34-10.26-60.76-46.53-40.89-82.03,2.07-3.71,13.48-16.26,13.75-17.76.18-.98-.56-1.52-1.18-2.11l-57.67.87-1.25,4.04c9.27,9.8,15.96,21.25,21.26,33.63,8.07,18.85,10.97,33.78,25.36,49.8,12.61,14.04,37.53,28.46,56.81,27.07,33.79-2.44,63.8-24.18,73.44-56.79.71-2.41,1.76-10.28,2.6-11.38,1.49-1.97,5.65-1.11,5.82,1.63l1.13.16c.58-.08,4.35-1.9,4.79-2.28,2.04-1.77,5.59-15.07,6.64-18.71,1.84-6.43,3.54-13.72,5.07-20.27,1.52-6.47,2.37-21.86,6.99-25.78ZM519.26,445.86c-8.28.09-21.97-.63-28.21,4.14-2.33,1.78-17.71,15.22-18.4,16.56-2.32,4.52,9.2,2.52,10.71,1.96,5.28-1.95,13.2-12.49,19.86-13.34,3.57-.45,6.43.87,9.62.95,11.03.27,22.5-2.05,32.4,3.43,3.17,1.75,8.6,7.68,10.85,8.38,2.43.75,11.73,1.28,12.24-1.9-1.22-2.52-3.98-5.04-6.06-6.9-1.96-1.74-12.13-9.93-13.78-10.69-5.51-2.52-22.43-2.68-29.23-2.6ZM380.17,448.53c-1.79-1.73-4.28-2.71-6.68-1.6-.51.23-7.59,6.58-8.35,7.39-.79.86-1.6,1.24-1.28,2.64,3.65,1.13,22.02,3.85,23.59,1.75-2.69-2.49-4.97-7.93-7.29-10.18ZM652.26,455.25c-7.07-2.22-10.65-12.24-18.04-5.84-1.23,1.06-7.6,8.4-8.22,9.69-.51,1.06-1.12,1.78-.81,3.11,5.09-1.12,23.16-1.59,26.26-4.75.71-.73,1.05-1.12.81-2.21ZM252.2,472.5c1.29,1.3,4.1,1.49,5.48.22s6.29-10.56,7.91-13.07c1.05-1.63,4.15-2.87,2.6-5.31-.29-.46-4.84-3.3-5.43-3.36-2.74-.27-4.71,5.87-6.04,7.67-1.05,1.41-6.22,7.14-6.35,7.68-.25,1.01,1.16,5.5,1.83,6.17ZM299.83,463.33c-1.89-2.37-12.04-2.2-15.14-4.62-1.07-.19-1.78.2-2.6.82-1.43,1.08-6.59,8.26-8.08,10.28-2.7,3.64-10.31,14.38-11.71,18s-.25,6.9,3.19,8.47c3.02-.68,15.29-20.97,20.6-24.96,2.74-2.06,4.86-.78,5.29,2.66,1.25,10.12-2.36,46.91,4.27,53.41l36.34,11.73c17.07,16.82,30.25,37.67,45.9,55.48,2,2.28,6.82,8.15,8.66,9.7,3.66,3.09,12.81,3.96,17.53,3.87,1.75-1.35-4.74-4.34-4.99-4.61-17.31-18.31-32.78-39.32-49.64-58.3-6.58-7.4-7.46-12.43-17.69-16.39s-21.05-5.92-30.64-10.84c.45-3.11-1.44-6.07-1.58-9.19-.38-8.03-.7-19.01-.39-26.96.17-4.2,3.06-15.6.7-18.55ZM539.45,466.69c-3-.4-6.12-1.59-9.11-1.83-3.92-.32-17.66-1.26-20.95-.7-2.36.4-4.85,1.05-6.55,2.87,3.81,4.16,8.94,1.29,13.49,1.27,7.62-.04,15.11,1.45,22.76.92l.37-2.53ZM330.65,480.58c-.23-2.9,2.2-5.65-.39-7.92-1.82-1.6-9.87-3.21-11.37-.8-1.16,1.88-3.78,10.24-4.59,12.9-1.46,4.79-4.46,15.89-3.61,20.51,1.36,7.38,22.15,8.62,28.13,11.2l29.95-35.46-.76-1.99c-13.63-5.06-14.62,2.49-22.04,10.34-2.82,2.98-7.99,8.65-10.94,10.89-1.45,1.1-2.75,2.42-4.79,2.19-.73-.08-5.34-3.32-5.77-3.9-3.27-4.38,4.96-13.8,4.44-18.86l1.73.88ZM703.73,489.21c1.48-1.02,3.27-16.46.15-17.79-1.62-.7-21.01,4.54-21.01,6.1,2.5,3.16,17.7,13.88,20.86,11.69ZM764.13,476.21c-1.36-1.37-17.6,6.94-19.67,8.72-4.6,3.96-5.18,14.95-6.98,20.98-4.02,13.43-9.73,26.53-12.66,40.21,5.22-1.64,6.27-6.99,8.88-10.77,1.61-2.33,4.65-5.17,5.84-7.27,6.29-11.13,5-28.22,13.65-37.04,3.95-4.03,5.69-3.17,8.66-8.5.78-1.41,3.52-2.55,2.28-6.33ZM406.68,485.82c-5.27-.47-10.64-3.57-15.69-.4s-19.23,18.79-24.09,23.98c-3.63,3.88-6.71,8.43-10.97,11.78-1.8,2.73,2.28,8.32,4.05,10.9,6.62,9.64,17.22,21.68,24.87,31.06,10.49,12.88,25.04,31.81,36.69,42.84,10.87,10.3,27.69,8.24,41.67,9.42,3.69-2.92,8.85-5.02,12.44-7.74,13.15-9.99,27.34-24.12,39.86-35.3,3.8-3.4,17.3-12.31,16.79-17.8-.09-.97-2.03-5.36-2.59-6.92-4.76-13.29-15.39-31.13-24.43-42.03-5.73-6.91-9.45-11.3-18.54-12.94-18.08-3.27-39.59-1.35-57.94-.91-10.81,9.92-22.54,20.56-32.17,31.63-6.01,6.9-7.45,6.92-1.27,14.41,11.8,14.3,24.55,27.95,36.73,41.93,3.78,2.79,18.33,4.9,22.72,3.58,4.73-1.41,28.63-20.56,33.58-24.97,10.4-9.29,6.41-11.46.3-22.09-1.88-3.26-7.41-12.52-10-14.47-5.38-4.03-27.26-4.51-33.56-2.34-2.1.72-15.31,12.84-15.51,15.03,1.87,5.06,13.81,19.17,19.3,17.66,1.02-.28,4.83-4.17,6.7-4.78.94-2.91-5.99-9.2-7.69-11.39,1.38-8.44,14.97-8,20.42-4.7,2.9,1.75,10.98,12.82,10.83,16.21-.09,1.87-6.17,8.15-7.78,9.6-1.96,1.76-17.87,14.33-19.28,14.81-4.34,1.49-10.63.49-14.39-2.14-6.05-4.24-21.57-23.9-26.16-30.65-.96-1.42-3.2-4.86-3.13-6.42.18-3.73,19.49-23.73,23.43-26.72,8.73-6.64,12-3.92,21.6-3.51,7.13.3,26.94.02,32.22,2.74,1.65.85,8.13,7.66,9.73,9.5,5.39,6.17,21.57,30.66,21.46,38.07-.05,3.32-8.65,11.34-11.41,13.96-8.92,8.48-21.32,19.09-31.06,26.62-2.76,2.13-10.02,8.14-12.69,9.15-5.25,1.99-23.8.39-28.5-1.95-3.71-1.85-7.77-6.5-10.77-9.63-14.41-15.03-31.75-35.86-44.08-52.68-2-2.72-7.08-9.39-6.49-12.39,5.06-6.63,10.79-13.19,16.44-19.46,5.31-5.88,12.18-11.53,17.08-17.89.67-.88,1.69-1.11,1.3-2.62ZM276.9,501.56c-5.18,2.47-6.39,14.64.87,14.02,4.88-.42,3.11-12.31-.87-14.02ZM362.49,593.82c-9.4-12.44-21.84-27.34-32.26-38.97-1.34-1.49-4.69-5.19-6.12-6.12-7.66-4.98-24.27-6.69-32.78-12.22,1.87,15.89,15.75,13.25,26.46,18.54,6.13,3.03,15.64,19.23,20.71,25.37,2.17,2.63,9.1,11.26,11.17,12.92s13.91,6.71,15.95,5.21c-.39-2.19-2.08-3.34-3.13-4.73ZM319.29,568.84c-1.52-5.51-5.81-8.55-11.35-6.1-.43.57,8.61,9.15,11.35,6.1ZM586.73,610.8c-.13-.15-2.46-.2-3.81-1-14.12-8.4-28-23.83-40.28-34.88l-3.56-.93-49.36,40.73c1.51,3.16,11.67,2.44,14.82,1.72l34.71-28.25c15.27,8.73,26.05,32.23,46.62,25.68.99-.42,1.14-2.74.86-3.07ZM549.14,616.91c-.9-3.52-8.19-10-11.77-9.64-1.71.17-8.83,7.25-9.21,9.64h20.98ZM369.98,622.14c9.86,6.75,22.58,22.78,34.95,10.92.82-3.73-12.97-1.94-15.09-2.37-5.27-1.07-11.54-8.53-17.22-9.91-1.55-.38-2.09-.29-2.64,1.35ZM646.15,624.78c-1.05-.89-9.87,1.07-11.6,1.94-3.12,1.57-5.7,6.37-8.53,8.07-7.51,4.52-9.74-1.46-16.11-2.17-7.67-.86-14.51,2.27-20.49,6.65-3.21,2.36-7.4,7.99-11,8.3-5.84.49-7.67-4.53-12.86-6.44-12.72-4.69-21.16-.01-29.09,9.7-1.77.04-10.15-11.58-17.47-11.26-7.27.32-13.21,13.73-20.13,13.26-4.87-.33-11.5-11.26-17.84-12.82-2.84-.7-10.6-1.55-13.41-1.04-4.77.86-12.84,8.05-15.92,8.18-3.44.14-5.51-4.05-7.88-5.76-7.15-5.15-12.72-5.89-21.42-4.89l-15.71,9.67c6.15,9.27,17.16-3.41,22.75-2.67,6.18.82,9.19,7.56,14.2,10.29,12.43,6.77,23.39-7.97,30.57-7,6.28.84,16,14.1,22.92,14.74,12.23,1.12,15.79-13.96,21.85-13.97,3.95,0,13.1,11.97,17.55,12.19,3.99.19,13.91-11.69,19.23-12.25s11.24,5.58,15.88,7.64c16.17,7.16,25.76-17.72,36.95-14.25,2.19.68,4.09,3.48,6.57,3.95,11.37,2.13,13.55-3.9,20.49-10.02,1.01-.89,12.17-8.61,10.5-10.03ZM643.52,658.87c-1.64-1.15-6.87,6.29-6.1,6.98,3.31-.52,5.31,2.02,7.86,3.5,1.56-4.35-.05-6.65-1.75-10.48ZM385.29,660.61c-1.86,1.17-.73,1.77-.6,3.15.41,4.32,2.54,19.16,6.27,20.86,8.01,3.66,3.69-5.8,2.39-9.38-.85-2.33-5.6-15.09-8.07-14.64ZM411.93,672.84l-2.38-3.29-8.08-.64c2.21,4.57,5.74,5.84,10.46,3.93ZM635.6,680.64c3.65-3.32-7.87-11.11-10.9-12.12-2.68-.89-5.45-1.08-8.25-.91-.48,2.79,1.5,3.62,3.21,5.09,2.02,1.73,14.06,9.66,15.94,7.95ZM435.31,677.43c-1.73-1.39-8.59-2.06-10.99-1.39-1.11.31-15.24,7.54-16.2,8.28-4.43,3.39-.12,7.08,3.84,6.53,1.06-.15,11.94-5.42,13.75-6.37,1.23-.65.99-2.11,1.5-2.01,8.09,2.89,2.92,16.37,13.86,13.84,1.47-.53,1.54-1.32,1.31-2.72-.16-.99-6.39-15.59-7.08-16.15ZM571.87,699.06l8.36-.81,16.08-21.48c-2.44-2.8-6.3,1.15-9.51-1.25-.83,3.39-16.72,21.82-14.93,23.54ZM563.7,686.52c1.24-1.31,2.1-3.37,3.8-4.51.95-4.23-10.45-.03-12.17.95-2.48,1.4-15.15,13.05-17.25,15.51-.76.89-1.31,2-1.16,3.21,3.26-.45,8.44.87,11.34-.45.97-.44,13.73-12.89,15.44-14.71ZM460,681.59l-9.61-.88c1.48,8.93,6.18,8.57,9.61.88ZM509.55,695.83c-2.03-2.53-9.34-9.42-12.25-10.95-13.07-6.85-21.51,2.15-31.6,8.96l-6.57,6.09c12.39,6.19,18.6-9.96,29.25-8.77,9.27,1.04,14.21,17.1,24.91,10.09-2.17-1.24-2.53-3.91-3.75-5.42ZM523.08,684.05c-.48-.43.43-1.96-1.02-1.59l-.57,1.76-8.17.41c2.76,3.62,5.61,7.5,10.06,9.19l10.02-9.19c-1.41-3.1-9.6.05-10.31-.59ZM617.15,685.22c-.32-.55-5.4-2.64-6.49-2.73-6.93-.55-8.15,6.06-11.7,10.45l18.3-5.3c.03-.77.3-1.71-.12-2.42Z"/>
  <path class="cls-1" d="M496.17,97.44c6.45,6.86,14.94,11.49,21.08,18.68,11.52,13.49,16.13,33.57,12.42,50.9-6.37,29.76-46.25,44.03-32.27,79.07,1.17,2.93,9.96,11.83,4.11,12.53-18.09-5.61-24.57-21.74-23.2-39.83,1.51-19.86,22.66-34.58,24.5-55.04,3.32-37.09-48.3-48.33-48.13-91.75.11-28.02,24.69-40.71,36.92-61.91,1.34-2.32,4.75-12.53,7.27-11.95,7.77,11.17,3.25,24.83-2.59,35.85-3.11,5.86-8.43,11.75-11.11,17.73-7.79,17.43-1.17,32.79,11,45.72Z"/>
  <path class="cls-1" d="M567.61,189.43c-2.14-1.35-1.21-7.49-.74-9.69,2.33-10.98,10.84-19.29,11.97-31.72,2.88-31.64-25.22-38.84-27.86-61.26-2.41-20.49,8.72-38.45,23.92-51.05,16.94-14.04,1.57,16.43.33,21.3-8.8,34.51,20.87,42.54,26.11,72.03,4.02,22.59-8.2,41.05-24.23,55.71-1.7,1.56-7.27,6.09-9.5,4.68Z"/>
  <path class="cls-1" d="M407.35,82.26c2.57,2.56-.1,14.86.3,19.29,1.99,22.16,21.35,27.68,26.37,47.98,2.58,10.42,2.08,18.69-2.72,28.37-2.41,4.86-11.94,19.59-18.11,13.44-3.46-3.45,3.07-10.91,3.75-15.57,3.34-23.14-12.89-27.98-23.57-44.14-6.76-10.24-6.11-21.38-2.65-32.76,1.48-4.87,9.64-23.57,16.62-16.61Z"/>
  <path class="cls-1" d="M457.59,305.58c-5.68-10.49,12.52-11.91,19.56-12.8,46.31-5.81,140.57-2,180.65,22.77,12.68,7.84,23.17,20.67,12.68,35.09-11.69,16.07-51.21,23.41-70.15,24.21-9.83-4.76,10.57-8.28,14.6-9.84,8.18-3.18,30.78-13,34.62-20.44,8.05-15.63-23.7-25.27-33.79-28.04-37.36-10.28-88.04-14.52-126.43-11.5-10.38.82-21.72,5.18-31.74.56Z"/>
  <path class="cls-1" d="M414.05,328.9c-7.11,6.17,2.61,9.95,7.9,11.87,31.99,11.61,66.65,7.5,99.66,7.46,5.74,0,18.42,1.37,17.05,9.5-.91,5.39-15.04,6.3-19.68,6.59-29.46,1.89-91.68,1.18-116.4-15.55-12.06-8.16-12.54-18.73-.55-27.11,7.44-5.2,36.89-16.38,45.11-13.95,3.01.89,5.78,5.66,2.31,8.08-10.27,5.01-26.81,5.64-35.42,13.11Z"/>
  <path class="cls-1" d="M499.33,332.86l5.74,1.69.3,3.03c-.35,1.06-1.15,1.22-2.11,1.4-6.67,1.23-38.36-2.19-42.86-6.95s3.88-7.64,7.48-9.21c10.89-4.75,27.81-7.19,39.76-8.31,20.14-1.88,71.96,1.53,87.75,13.62,8.1,6.2,13.06,15.56,4.87,23.95-10.16,10.41-29.83,13.26-43.64,13.99-10.12-5.76,9.84-10.11,13.98-12.19,6.59-3.32,17.06-10.16,7.67-16.5-14.06-9.49-54.68-11.52-71.41-9.65-3.14.35-8.16.73-7.54,5.12Z"/>
  <path class="cls-1" d="M415.43,297.05c.23,1.32-.1,2.04-.82,3.11-4.71,6.97-47.82,18.66-58.91,25.87-23.94,15.55,12.58,29.72,25.67,34.35,6.06,2.14,19.6,4.62,24.19,7.27,1.01.58,2.07.91,2.05,2.36.03,5.75-14.47,2.71-17.9,2.22-18.98-2.72-63.06-10.98-66.7-33.88-.33-2.1-.63-4.3.24-6.33.72-1.69,8.21-10.31,10.02-11.82,7.6-6.36,35.52-17.55,45.6-19.95,5-1.19,34.26-5.92,36.57-3.19Z"/>
  <path class="cls-1" d="M299.5,334.93c-9.62,10.98,11.93,15.91,11.96,21.1l-1.42,2.16c-9.25-3.18-24.57-5.55-29.58-14.87-3.62-6.74-.67-8.54,4.84-12.55,9.19-6.69,19.83-8.08,30.29-11.72.97-.54,2.67.39,2.84,1.17.67,3.14-16.42,11.86-18.92,14.71Z"/>
  <path class="cls-1" d="M554.12,373.38l4.62,1.91c.25,1.19,0,1.78-.85,2.6-3.19,3.09-28.77,2.78-34.57,3.01-14.55.6-37.46,2.95-51.34-.15-6.25-1.39-2.49-4.5,2.44-5.05,25.63-2.87,53.81.05,79.69-2.32Z"/>
  <path class="cls-1" d="M697.78,345.02c3.53-16.43-11.54-23.3-23.4-30.33-2.46-1.46-5.56-2.24-7.7-3.66-.75-.5-2.9-2.18-1.32-3.08,2.45-1.39,17.11,2.76,20.58,3.92,8.43,2.8,24.04,9.17,24,19.7-.02,5.31-5.32,17.27-12.16,13.46Z"/>
  <path class="cls-1" d="M614.39,327.71c1.82-.54,9.53,2.18,11.4,3.24,6.92,3.94,7.48,10.62,1.14,15.52-5.61-.65-4.24-7.72-7.01-10.52-.48-.48-11.68-6.43-5.52-8.24Z"/>
  <path class="cls-1" d="M729.18,338.99c.88,4.7-4.09,6.47-7.79,5.16l-.08-5.17h7.87Z"/>
  <path class="cls-1" d="M453.88,373.96l-.38,2.66c-12.89,3.15-13.15-6.67.38-2.66Z"/>
  <path class="cls-1" d="M379.58,329.38c2.93,12.56-8.57,1.95-2.94.1l2.94-.1Z"/>
  <path class="cls-1" d="M435.53,297.03l-8.73.88c.47-4.04,7.17-4.49,8.73-.88Z"/>
  <path class="cls-1" d="M556.89,501.67c1.95,5.13-3.13,9.36-4.2,14.21-1.84,2.59-6.3-4.72-7.06-6.01-6.84-11.57,2.74-9.31,11.26-8.2Z"/>
  <path class="cls-1" d="M333.12,417.47c-.11.24-3.18,2.95-4.44,2.65-5.49-1.32-5.95-10.43,2.3-7.6,1.24.47,2.56,4,2.14,4.95Z"/>
</svg>