<?xml version="1.0" encoding="UTF-8"?>
<svg id="Camada_1" data-name="Camada 1" xmlns="http://www.w3.org/2000/svg" viewBox="0 0 1024 768">
  <defs>
    <style>
      .cls-1 {
        fill: #413253;
      }
    </style>
  </defs>
  <path class="cls-1" d="M703.4,164.79c-.08.03-.16,1.14-.71,1.32-1.97.62-4.11-.19-5.32,2.04-.36.67-1.78,4.94-2.01,5.9-.93,3.84-2.05,7.66-3.05,11.65-7.36,29.32-3.03,46.16,3.24,74.48,3.13,14.13,5.39,28.62,8.65,42.61.49,2.1,2.43,3.92,2.8,6.25.63,3.97-.82,7.22-.77,10.51.07,4.31,1.62,9.97,1.64,14.32.04,9-2.39,15.41-4.24,23.72-2.71,12.18-4.74,21.78-8.67,33.54-10.52,31.48-21.54,62.82-32.04,94.61-10.67,32.3-22.2,64.46-33.15,96.51-3.77,11.03-7.44,27.68-13.71,36.36-.24.33-.9,6.2-1.52,7.97-5.05,14.57-9.75,27.46-15.85,41.45-8,18.35-12.82,34.54-32.98,43.16-20.93,8.96-47.96,5.4-69.19-1.69-16.56-5.53-33.25-10.1-49.76-15.83-3.67-1.27-10.04-5.06-13.16-5.69-16.34-3.31-31.67-9.44-47.36-15.21-25.21-9.26-53.72-18.39-72.98-37.46-1.82-1.8-5.75-4.12-7.17-6.02-5.28-7.03-9.52-25.88-9.61-34.65-.16-17.21,6.83-33.71,12.31-49.89,6.72-19.83,13.07-40.01,20.95-59.71,3.09-7.72,3.86-8.03,5.84-16.79.07-.32,1.94-3.97,2.54-5.65,11.37-31.76,24.55-62.08,35.17-93.83,1.08-3.24,1.17-5.66,2.83-9.08s.97-3.43,1.85-7.35c.75-3.35,4.6-8.25,6.06-12.03,2.27-5.91,3.58-15.75,6.7-21.2.97-1.7,2.64-2.07,3.14-3.64.58-1.84.07-3.77.48-5.56.47-2.05,3.88-6.59,4.88-9.45,11.93-34.12,28.26-64.22,56.84-87.9,1.88-1.56,4.9-1.93,7.29-3.26,6.82-3.8,14.24-11.55,20.6-16.35,8.41-6.36,20.16-13.86,27.86-21.14,10.38-9.82,27.52-35.78,32.18-49.24,1.61-4.66,2.94-8.2-.81-11.98-.33-.33-1.4-.09-2.01-.74-5.33-5.7-5.5-18.07-3.36-25.12.92-3.01,10.04-24.76,11.36-26.34.94-1.12,6.31-5.34,7.68-5.89,2.4-.96,4.06-1.05,6.61-.99,5.07.12,15.8,3.1,21.2,4.45,26.59,6.66,53.64,16.11,79.77,25.02,17.76,6.06,43.05,14.38,57.65,26.03,3.53,2.81,6.02,14.26,5.36,18.83-.31,2.18-1.57,2.77-1.93,4.1-2.64,9.83-6.26,33.16-18.27,35.32-1.63.29-3.53-.57-3.82-.45ZM602.89,78.83c-.34-.14-1.65.73-2.9.31-8.79-2.91-20.86-7.79-29.83-8.05-2.77-.08-7.34,3.64-8.57,5.91-.94,1.73-5.6,13.38-5.92,15.05-1.66,8.71,8.29,9.19,13.81,11.47,30.97,12.84,65.54,24.35,97.61,34.32,3.35,1.04,25.3,8.79,26.34,7.88l1.23-6.02c-14.64-7.03-30.05-12.4-45.28-18.07-18.36-6.83-37.37-12.72-55.93-19.46-8.69-3.15-17.33-6.73-25.83-10.35l-2.15-2.33c1.04-3.21,2.72-8.87,6.79-8.42,5.91.65,14.61,4.72,20.62,6.6,20.98,6.57,43.48,16.29,64.42,21.52,5.72,1.43,6.81.89,8.36-5.29l-.22-.97c-.92-1.57-13.1-6.34-15.71-7.29-15.87-5.78-31.63-10.45-46.84-16.82ZM688.79,111.24c-1.01-1.6-7.67-2.34-9.66-1.65.22,3.87-.56,8.14,3.79,10.18,2.04.96,6.25-1.46,6.66-3.16.09-.39-.65-5.14-.8-5.37ZM613.65,150.19c.18.13,3.3-1.33,4.46-.34l45.87,15.92c3.39.34,6.6-6.65,2.29-8.26-33.49-11.25-66.06-25.46-100.46-33.53-4.84,5.15-5.3,12.64-8.51,18.69-2.9,5.48-7.74,11.27-10.98,16.92-.83,1.45-5.24,8.59-4.39,9.55l7.56,1.93c1.65-2.67,3.99-5.36,5.55-8.04,1.04-1.78,1.37-4.16,2.43-5.87,4.32-6.96,10.59-12.57,11.98-21.21l.87-.65c3.9.23,11.75,1.33,11.47,6.35-.03.49-3.1,6.55-3.65,7.53-3.45,6.16-9.31,16.82-13.23,22.21-.63.87-1.54,1.45-2.62,1.53l10.78,4.35,1.84-.8,18.39-33.66c5.84,1.34,13.93,2.11,19.05,5.31.95.59,1.1,1.92,1.3,2.06ZM625.9,175.61c-.5-.49.09-1.46-1.02-1.19l-2.27,6.02,2.53.62c3.05-2.69,3.13-3.12.76-5.45ZM547.24,194.75l-.36-11.27c-.65-1.26-8.5-5.03-9.98-5.1-.99-.05-9.52,5.9-10.72,7.05-.63.61-3.61,4.15-3.09,4.81,2.37,2.03,11.42-5.27,12.05-4.51.07,3.59,2.84,14.03,6.04,15.44l13.06,2.44,11.44-6.57,1.87,2.25.76-2.26,4.53,12.44,13.98,4.83c3.54-.64,11.25-10.62,14.21-9.69,2.96,5.3,3.61,13.73,9.71,16.72.8.39,7.94,2.63,8.59,2.66,3.32.18,11.39-11.71,16.38-11.81,1.17.27,7.63,14.55,10.21,16.74.87.73,3.96,1.66,5.14,1.83,9.31,1.34,12.99-9.02,17.51-15.24-7.56-3.48-10.98,4.67-16.88,7.12l-10-15.84c-.57-.37-11.03-2.73-11.62-2.61-.71.14-1.6,1.02-2.46,1.33-.68.25-1.67-.1-1.86.04-2.68,2.02-5.93,10.66-11.05,5.79-1.58-4.79-3.27-12.58-8.39-14.22-12.34-3.94-13.54,4.36-23.95,6.78-.65-.13-4.46-10.6-5.4-12.1-1.09-1.71-11.72-3.92-14.18-3.75-6.11.42-10.11,5.57-15.54,6.72ZM648.2,188.73c.39-1.89,4.94-8.17,1.15-9.03-2.57-.59-1.91,6.99-4.13,7.92l2.98,1.12ZM670.71,185.86l-4.35-1.61c-2.72,5.21-3.01,8.7-3.4,14.33-.12,1.71-2.1,3.76,1.52,5.22,1.18.48,2.54-2.99,2.85-3.88.51-1.47,3.75-13.42,3.39-14.05ZM519.33,203.07c-4.25-.24-7.48-3.82-12.05-1.87-.45.19-6.96,4.9-7.92,5.64-8.7,6.66-16.9,12.92-25.82,19.36-17.06,12.33-36.82,37.89-45.8,57.53-1.06,2.32-3.32,7.09-1.48,9.02l205.79,69.37c3.14-2.84.03-3.54-.36-4.3-1.51-2.91-6.49-10.42-5.75-13.04,1.33-4.68,20.6-18.69,26.01-20.4,1.23-3.13-4.95-9.14-7.45-7.89-9.66,7.4-17.1,17.51-28.69,21.93-1.36,1.33.47,3.01-.1,5.08-.23.82-2.62,3.21-3.45,3.44-6.22,1.75-9.68-6.99-7.03-11.61.49-.85,10.5-7.7,11.58-8.06,1.2-.41,2.56.35,2.79.18.06-.05-.58-1.07-.32-1.51,1.28-2.15,7.95-4.88,8.41-8.69-6.42-7.13-11.96-15.28-14.88-24.47l3.4-.08,16.21,19.28c2.22,1.68,7-.97,7.42-3.11.56-2.87-14.37-18.6-15-25.52-.79-8.72,9.7-12.21,14.25-18.25.58-3.66-7.29-13.62-4.1-16.1,2.95-2.3,6.06,3.7,7.7,5.98,3.14,4.38,8.6,10.89,4.56,15.69-4.43,5.27-12.59,5.86-9.97,14.59.78,2.6,11.9,16.94,14.42,20.26,1.82,2.4,12.33,14.18,12.45,15.5.15,1.68-.16,3.52-1.25,4.88-2.56,3.2-11.64,9.08-15.42,12.47-1.28,1.15-8.74,7.79-8.86,8.39-.64,3.27,4.17,7.98,5.72,10.6,1.94,3.28,3.92,9.07,7.14,10.95,2.67,1.56,8.31,3.44,7.18-1.85-.31-1.47-6.45-10.49-7.83-12.58-1.17-1.77-4.23-3.54-3.27-6.33.07-.21,2.88-3.22,3.08-3.33.29-.17,1.27.58,2.09.21,1.26-.57,8.57-7.42,10.65-9.01,1.32-1.01,3.47-1.61,4.65-2.68,3.81-3.47.84-8.57.23-12.71-.18-1.23.51-2.65.32-4.16-.6-4.76-4.19-7.16-6.81-10.66-1.55-2.07-.56-.72-1.95-2.08s-13.3-18.07-13.64-19.21c-.31-1.05-.21-2.14-.18-3.21,3.13,1.78,4.82-2.87,6.75-4.93,2.09-2.24,5.21-2.8,5.23-6.77-2.79-7.12-4.48-15.36-7.83-22.23-.7-1.44-.95-2.02-2.43-2.84-4.78-2.66-13.86-3.28-19.22-4.91-21.01-6.37-41.78-14.88-63.21-18.96l-34.13-11.55c-4.66,1.02-6.98,5.72-9.93,8.11-5.24,4.27-11.7,7.68-16.91,11.74-15.78,12.32-30.28,27.08-42.24,43.13-2.02,2.71-7.94,13.5-9.4,14.55-3.94,2.83-9.32-1.7-8.42-5.33.15-.59,1.63-3.91,2.02-4.68,12.18-23.91,31.29-38.87,51.77-55.61,5.47-4.47,12.05-7.74,17.31-13.06.68-.69.56-2.04,1.13-2.64,1.23-1.3,3.43,1.05,2.86-1.66ZM670.77,249.13c-14.03-2.4-7.08,6.82-4.84,14.26,7.61,25.27,13.88,50.37,13.03,77.08l-10.22,32.49c1.37,3.56,5.02,2.88,7.04,3.64.59.22-.13,2.03,1.85,1.36,3.99-17.28,9.55-32.11,9.08-50.16-.27-10.58-1.74-27.23-3.98-37.48-1.14-5.22-4.63-11.45-6.08-16.54-2.28-8.04-3.51-16.6-5.88-24.65ZM662.55,283.73l-2.28,2.64,3.42,4.88c2.63-2.54-.84-4.96-1.14-7.52ZM446.78,316.4c-5.77-1.88-12.79-3.97-18.83-5.75-6.69-1.97-13.13-4.77-12.32,5.51,11.66,4.41,23.95,7.62,35.81,11.71,47.69,16.41,95.37,34.15,143.29,50.46,24.01,8.17,48.89,14.18,72.12,24.44l.86-.04c3.07-2.96,2.93-4.57,3.09-8.87-10.2-2.82-20.33-6.4-30.31-10.03-47.29-17.2-95.35-32.88-143.02-49.22-16.72-5.73-34.31-12.86-50.69-18.21ZM546.27,373.73c-41.9-14.61-84.41-28.55-126.61-42.73-2.9-.98-5.68-3.91-9.57-2.7-1.43,3.68-2.87,8.21-4.45,11.75-10.84,24.31-18.68,50.36-28.06,75.22-1.76,4.66-3.39,12.46-5.4,16.47-.45.89-1.15,1.27-2.12,1.28l1.43.8-.54,4.69,254.34,90.01c.76-.12,2-2.56,2.37-3.4,2.27-5.24,8.85-24.82,8.2-29.58-.31-2.26-2.34-4.09-2.94-6.12-2-6.75,3.59-28.48,5.9-36.06.49-1.61,1.87-3.19,2.05-5.11.76-.77,9.21-1.67,11.33-2.62,2.66-1.2,7.07-13.41,8.13-16.74.71-2.22,3.4-11.14,2.91-12.72-1.72-2.96-6.06-2.45-8.22-3.26-35.67-13.39-73.02-26.73-108.75-39.19ZM666.34,354.59c-2.08-1.9,2.86-9.81,2.25-10.55-4.7,3.23-9.41,4.74-6.77,11.31l4.53-.76ZM620.19,546.67l1.49-6.28c-.21-1.19-10.15-3.35-12.28-4.09-62.95-22.08-126.22-43.97-189-66.49-15.16-5.44-31.99-13.49-47.34-17.56-3.09-.82-5.91-1.4-8.99-.35l-.83,5.61.78,1.51c18.29,5.34,35.69,13.11,53.57,19.56,38.55,13.91,77.97,26.6,116.8,40.01,25.22,8.71,52.6,20.64,78.09,27.45,1.67.45,6.67,2.12,7.72.64ZM650.49,457.13c-.29-.28-4.02.38-4.71.75-2.37,1.27-4.54,16.18-5.83,19.3l1.22,2.47,2.48.03,6.84-22.55ZM365.81,478.7c-2.12-2.09-4.07-4.25-6.7-5.74l-3.7,3.08c-3.69,11.39-8.49,22.5-12.12,33.9-.39,1.21-1.04,2.61-1.08,2.78-.44,1.77,0,3.76-.8,5.47l17.74-10.53c1.79-4.45-3.04-7.04-3.15-11.07-.09-3.04,2.07-6.4,2.76-9.3,3.38,1.57,4.21,5.34,6.03,7.9,1.58,2.22,9.44,11.45,8.95,13.43-.67,2.7-23.01,15.5-26.99,18.32-6.31,4.46-15.29,9.65-14.39,18.4.44.49,10.4-5.49,11.53-6.17,10.64-6.44,21.77-13.19,32.12-19.89,3.7-2.4,7.54-20.21,9.84-25.59,1.37-3.22,4.54-5.78,4.49-9.69l-5.61-3.47c-1.71,3.62-6.14,7.15-4.9,11.25l-3.32.81c-2.76-3.47-5.17-8.45-7.98-11.72-.88-1.02-1.93-1.37-2.74-2.16ZM406.99,489.55c-3.28.11-5.35-3.16-7.89.03-3.97,4.97-5.03,14.38-8.85,19.8l-2.11,8.81c11.63,1.28,26.1,9.92,30.68,20.96,1.79,4.32,3.48,14.97,2.49,19.25-.14.59-1.44.46-1.42.82.88,14.67-15.07,29.4-29.77,28.23s-21.51-11.72-24.26-24.74c-.44-2.07-1.8-9.4-1.81-11.09,0-1.38.23-1.6,1.04-2.58,1.36-1.64,14.3-9.12,16.61-9.78,4.62-1.32,11.11-1.45,14.77,1.89,7.96,7.26,9.14,22.34-2.3,26.41-6.93,2.47-13.66-2-8.28-7.52,1.34-1.38,4.45-2.25,4.59-3.77-.37-11.63-10.46-1.55-15.86.44,1.38,8.31,2.61,16.3,11.05,20.11,9.63,4.35,23.1-8.47,25.64-17.02,1.11-3.73-.21-3.71-.5-6.61-.19-1.98.19-4.05-.1-5.93-.89-5.77-7.35-12.24-12.37-14.77-16.37-8.25-29,5.22-42.85,12.04-1.72,2.45-1.32,5.58-.93,8.38,1.42,10.27,7.24,29.53,15.31,36.16,19.87,16.33,53.92.1,59.17-22.81,5.18-22.61-7.05-49.62-31.1-54.11,4.52-6.77,6.82-14.83,9.05-22.6ZM425.84,498.57c.34-2.17-7.65-5.84-8.29-5.26l-2.26,9.05,10.55-3.78ZM443.72,501.01c-2.74.37-8.88,4.16-11.86,5.49-1.39.62-8.81,2.1-8.25,4.46,2.32,2.09,3.3,6.23,7.1,5.78,2.72-1.34,18.8-8.49,19.67-9.85,1.97-3.09-3.55-6.3-6.66-5.88ZM488.94,551.15c2.15-2.55-.21-7.24-1.27-9.98-1.75-4.5-11.67-26.54-14.04-28.94-1.43-1.45-3.06-2.47-5.17-2.4-1.01.03-11.49,4.79-13.26,5.68-5.96,3-11.44,8.14-18.06,9.47.72,6.71,3.88,11.26,6.91,16.84,1.29,2.37,2.47,7.77,5.15,8.38l17.3-7.94-3.35-8.99c-.58,2.23-2.32,1.27-3.92,2.09-2.29,1.17-4.25,3.33-7,3.94-.2-4.04-4.17-6.88-2.9-11.19l16.86-9.19c1.09.61,3.86,3.86,4.63,5.15,2.8,4.65,4.94,10.97,7.49,15.9,1.13,2.19,4.62,4.4,2.55,6.49-13.49,5.35-25.46,13.63-37.73,21.17l24.65,46.68c-.02,3.62-16.61,11.13-20.05,13.25l.06.91c6.85,15.73,17.34,29.44,25.49,44.47,1.6,1.28,7.35,4.03,8.75,2.08v-2.31s-22.96-41.09-22.96-41.09l20.19-11.77-.38-4.5-24.42-43.28c0-1.37,1.75-2.53,2.77-3.25,9.56-6.75,21.93-11.03,31.69-17.68ZM496.47,519.94c-2.07-1.7-4.97-1.49-7.29-2.51l.2,6.96,33.73,60.53c.03,2.59-10.92,7.11-13.33,8.53-3.88,2.28-9.03,6.35-12.48,7.89-1.33.59-3.03.48-4.34,1.28.16-1.05.5-1.66.18-2.78-1.34-4.68-10.69-18.34-10.74-20.98s9.1-5.72,10.94-7.82l5.59,7.94c.24,1.56-2.59,1.4-2.8,3.81-.18,2.03,1.17,3.58,1.37,5.51,1.21-1.76,3.18-.78,3.62-.96.14-.06.21-1,.69-1.27,2.04-1.17,4.26-2.04,5.93-3.8,1.22-2.28-9.79-18.12-10.26-21.86l-26.8,13.56,4.33,10.81c5.48,7.36,8.8,16.42,13.59,24.11.89,1.43,2.2,4.16,3.96,4.26,14.35-5.99,27.27-15.25,40.04-24.1l.21-1.68-17.76-34.72,1.03-3.62c3.09-1.41,24.72-11.84,25.06-13.21.59-2.38-5.96-4.58-7.53-4.45-2.36.19-17.95,8.08-21.06,9.79-1.4.77-2.43,1.81-3.74,2.66-3.7-5.9-7.25-19.71-12.31-23.88ZM519.32,526.49c-2.54.21-8.3-3.16-8.29.75l1.49-.29,1.19,2.51,5.6-2.97ZM561.54,601.11l-21.11-38.86,1.55-3.69c3.07-2.49,21.14-11.92,22.22-13.97,1.47-2.77-5.15-4.92-6.8-4.98-1.95-.07-11.11,7.01-13.72,8.59-4.73,2.86-9.83,5.3-14.59,8.11l24.27,46.2,8.18-1.4ZM587.93,550.61l-10.76-2.14-22.32,15.47c-.19.73,4.3,11.78,5.06,13.56,2.25,5.27,10.8,19.93,11.3,24.19s-3,6.44-5.96,8.78c-1.5,1.19-5.94,2.86-5.97,4.55,1.73,2.53,9.09,20.5,10.3,20.8,3.75.95,11.07-4.46,14.24-6.81,1.29-.96,3.57-2.44,4.41-3.12,3.12-2.51,5.27-5.46,4.97-9.71-1.02.7-5.6.82-5.87.98-.28.17-.46,1.36-1.44,1.85-4.33,2.15-8.74,4.97-13.3,6.15-1.36-.39-3.87-7.14-3.42-8.89.41-.65,12.1-5.63,13.47-7.26.9-1.08.89-1.6.76-2.93-6.54-13.27-14.71-26.5-18.9-40.68,7.9-3.6,15.31-8.16,22.44-13.13.65-.45,1.4.13.99-1.67ZM343.66,550.6c-6.02.04-14.99,6.26-17.53,11.53-3.12,6.49,8.77.39,9.5.6,10.41,12.38-17.18,9.62-13.08,22.56,6.92.73,10.19-7.56,16.85-8.23,4.36,6.93,8.6,14.85,11.06,22.56,2-1.6,1,.97,2.58.78l7.1-4.16c.15-1.79-5.05-7.04-5.86-8.54-3.53-6.51-5.62-14.91-8.32-21.05l-2.3-16.05ZM606.01,583.77c.3-3.68,3.54-8.36,3.51-11.78s-2.42-12.56-5.22-14.01c-3.12-1.61-4.6-.9-7.48.38-6.73,2.98-13.04,9.89-20.2,12.6l18.3,34.89c3.02,1.42,5.06-4.24,4.29-6.59l-9.41-21.52c-2.41-6.53,2.64-8.5,7.95-8.73,3.02,4.73,3.24,11.47,8.25,14.75ZM445.72,615.73c1.19-.83,7.99-4.51,8-5.19-3.97-2.7-12.5-24.49-15.54-25.14-5.38,2.71-10.13,7.35-15.41,10.75-7.21,4.64-14.99,8.49-22.55,12.52l14.76,24.9c2.94.25,21.69-11.34,25.43-13.75,1.78-1.15,3.69-2.97,5.32-4.1ZM335.37,592.07c-12.03,4.18-11.1,8.05-5.07,17.88,5.12,3.26,8.79.9,13.4-1.73-1.39-6.06-6.68-10.74-8.33-16.15ZM571.19,660.78c-.09-.16-1.64-.59-2.55-2.32-6.44-12.23-11.23-27.55-17.76-40.29-3.34-6.52-7.13-12.76-11.66-18.52-.7-.17-7.25,4.09-8.54,4.9-10.43,6.53-21.26,13.19-32.21,19.06-7.33,3.93-15.19,7.47-22.86,10.7-.23,1.02.21,1.87.56,2.78,1.26,3.31,5.93,12.17,7.82,15.55.97,1.72,3.05,3.36,4.27,5.53,2.73,4.88,9.2,19.21,12.18,22.29,4.04,4.17,10.66,3.56,7.61-3.63-5.36-10.89-15.07-22.96-19.56-33.96-.54-1.32-1.21-2.85-.86-4.3.28-1.18,18.74-9.35,21.65-10.96,7.57-4.18,17.12-9.56,24.35-14.13.51-.32.69-1.19.82-1.79,1.28-.91,4.89,3.98,5.65,5.19,6.44,10.38,13.08,24.33,18.06,35.46,1.21,2.71,1.59,6.35,1.93,9.31l-33.16,21.97.77,1.83c11.91,2.55,20.06-6.1,29.06-11.87,2.83-1.82,13.46-6.64,14.16-9.08.05-.18.36-3.58.27-3.75ZM405.8,652.06c1.48,1,4.58,3.3,6.15,1.09,2.24-3.16-10.58-19.75-12.81-23.45-4.56-7.6-8.65-15.51-12.91-23.28-1.97-2.41-9.24-5.06-12.25-5.13s-7.69,4.74-10.47,6.48c-7.81,4.9-15.87,9.25-22.1,16.35-.59,1.41,3.57,1.79,4.26,1.81,6.23.24,17.68-9.74,24.21-12.56,6.79-2.93,7.76-3.86,12.09,2.59,5.98,8.91,15.67,30.58,23.84,36.1ZM377.14,630.22c-.89-1.26-1.41-4.3-3.06-4.86-6.76-2.27-8.02,2.7-12.13,6.08-1.07,4.19.17,2.88,1.76,3.88.34.21.37,1.16.84,1.24,1.99.35,4.71-1.16,8.03.13,1.59.62.42,1.8.63,1.99.2.18,4.16,2,4.85,2.29,2.78,1.15,5.62,1.87,8.58,2.35-3.12-4.38-6.42-8.71-9.5-13.1ZM547.22,656.89c-1.27-4.37-11.4-27.89-14.81-28.52l-28.97,15.47c-.6,2.83,10.66,22.87,13.29,25.07,1.16.97,2.98,1.6,4.49,1.58,4.45-.05,18.46-10.34,23.19-13.02.81-.46,1.88-.56,2.8-.58ZM455.99,666.7l-2.13-5.78-14.89-24.31c-1.38-.83-2.55-1.12-4.05-.44-1.41.63-7.86,4.7-9.34,5.77s-2.65,2.38-3.9,3.63c.94,7.37,10.51-1.34,13.07.16,6.62,7.7,8.88,21.53,21.25,20.96ZM583.4,642.58l-7.53,4.37c-1.59,2.81,2.2,8.03,3.82,5.73l3.71-10.1Z"/>
  <path class="cls-1" d="M507.83,379.65c2.65,2.14-1.81,17.26-5.83,18.37-3.31.91-3.87-2.99-5.29-4.61-2.22-2.54-12.31-6.55-14.91-3.95-.58.58-5.02,13.35-4.63,14.03,2.38,1.1,5.45,2.77,8.07,2.98,3.39.26,5.26-2.74,9.11.25.62.98-1.08,6.22-1.58,7.64-.63,1.8-4.75,11.48-5.62,11.76-6.05,1.97-6.8-5.34-10.01-6.35-1.45-.46-4.04-.76-5.33.02-2.07,1.25-4.83,15.06-7.52,17.36,5.41,2.93,11.8,5.87,18.14,4.56,2.46-.51,7.42-4.37,9.4-1.18,1.18,1.89-4.68,15.86-6.75,17.41s-6.61-.16-9.06-.86c-5.95-1.68-12.26-4.58-18.36-6.52-4.36-1.38-17.6-2.34-16.52-8.94,1.59-1.85,4.48-3.27,5.64-5.4,4.57-8.4,8.15-23.23,11.67-32.8,2.49-6.77,8.77-18.65,9.86-24.88.93-5.32-5.06-11.64,6.69-9.38,4.76.92,12.32,3.77,17.23,5.39,5.2,1.71,10.35,3.62,15.61,5.12Z"/>
  <path class="cls-1" d="M638.99,442.6c-3.58,4.34-6.66-1.55-9.24-3.55-3.75-2.91-8.19-5.02-13.08-4.44l-4.26,15.01c.93,2.04,7.65,3.36,9.76,2.97,1.51-.28,2.58-2.22,4.19-1.16,4.86,4.24.44,8.91-1.28,13.09-1.52,3.69-1.67,10.59-7.62,9.04-1.86-4.85-5.18-7.9-10.71-7.81-.75.46-5.88,14.66-6.27,16.43-.2.87-.29,2.03.41,2.67,1.42,1.3,11.61,4.06,13.81,4.02,2.96-.05,10.05-5.65,10.2,1.03.03,1.53-4.59,13.71-5.68,14.75-.51.49-1.58,1.24-2.26,1.21l-38.9-14.36c-2.96-6.7,2.51-6.34,4.93-8.76,2.91-2.92,7.63-20.61,9.62-25.81,5.25-13.7,12.35-26.85,14.11-41.69.78-.57,1.65-.33,2.51-.18,2.09.36,10.02,3.13,12.61,4.02s20.15,7.7,20.79,8.62c1.08,1.57-2.47,13.49-3.64,14.91Z"/>
  <path class="cls-1" d="M577.44,421.76c-5.25,12.13-8.63,24.88-12.68,37.45-1.11,3.45-3.78,8.25-4.43,11.46-.81,3.98,2.73,10.95-2.57,13.2-4.34,1.83-14.69-3.88-19.45-5-2.2-6.37,3.85-6.7,5.92-10.03,2.99-4.79,3.76-12.52,5.65-17.72.93-2.56,2.85-5.02,3.74-7.57,3.15-9.07,5.66-18.4,8.67-27.52.08-.36-5.53-1.55-6.41-1.5-2.97.14-7.88,5.91-9.81,1.88-.69-1.44,4.91-18.91,5.81-19.46,2.71-1.67,13.31,3.48,16.61,4.62s6.23,2.18,9.44,3.38c3.72,1.38,17.1,5.09,19.07,7.31,3.19,3.62-3.54,15.51-5.7,19.22-6.33-1.64-6.17-10.64-13.83-9.72Z"/>
  <path class="cls-1" d="M417.71,355.97c-1.7-2.79,2.1-4.55,4.65-4.37,1.57.11,16.4,4.88,17.06,5.62,3.9,4.39-4.35,7.95-5.86,10.74l-18.28,51.16c-.25,4.23,12.35,5.34,15.64,4.25,2.18-.72,3.47-2.59,5.26-3.84,2.28-.09,4.05.92,4.06,3.27,0,.89-6.45,14.91-7.29,16.16-2.53,3.76-7.5,1.47-11.47.3-6.6-1.94-13.67-5.2-20.47-7.43-2.28-.74-9.49-1.38-9.86-4.49-.55-4.67,3.35-5.03,5.25-6.84,5.48-5.22,8.31-20.83,11-28.2,1.77-4.84,13.58-32.35,12.2-35.11-.45-.9-1.67-.9-1.87-1.23Z"/>
  <path class="cls-1" d="M539.45,401.91c-4.63,3.83-5.09,10.99-7.28,17.17-3.46,9.75-12.4,28.59-13.53,37.73-.76,6.17,2.82,15.49-7.18,13.84-2.2-.36-3.17-1.98-4.94-2.6-4.3-1.48-9.46-.73-10.25-6.4-.74-5.3,3.6-4.66,5.75-7.15s6.64-17.01,8.11-21.29,2.15-8.86,3.57-13.01c1.86-5.42,9.35-20.57,8.63-25.22-.17-1.07-1.25-1.79-1.29-2.91-.16-4.03,2.31-5.54,6.04-4.89,1.03.18,15.02,5.68,15.65,6.24.88.77.73.91.44,1.92-.1.36-3.42,6.34-3.71,6.58Z"/>
  <path class="cls-1" d="M624.86,510.65c.39.41-1.57,10.43-3.69,10.18-6.14-1.59-12.3-3.02-17.47-6.92,1.14-9.74,8.57-2.66,13.51-2.17,2.45.24,5.11-1.34,7.65-1.09Z"/>
  <path class="cls-1" d="M653.33,432.06c-.91.93-3.91,1.45-4.16-.16.94-2.94.84-7.46,2.58-10.05.92-1.36,2.39-.53,2.89-2.42,3.93,1.15.06,11.24-1.31,12.63Z"/>
  <path class="cls-1" d="M596.22,509.89c-3.9,1.09-4.71-.28-7.18-2.99l.58-2.09c2.6-2.46,7.58,1.87,6.6,5.09Z"/>
  <path class="cls-1" d="M611.12,314.06c2.47,2.05-.07,8.23-4.34,6.28-1.79-.93-2.96-6.28-1.12-7.96l5.47,1.68Z"/>
  <path class="cls-1" d="M621.41,248.69c2.68,2.73,4.78,5.95.06,7.94-3.93-1.57-2.81-6.09-1.11-9.08,1.09-.26.56.63,1.05,1.14Z"/>
  <path class="cls-1" d="M486.9,264.89c-1.6,2.97-3.39,7.05-7.53,6.77-.47-.43,4.11-5.99,4.46-6.28,1.05-.88,1.88-.48,3.08-.49Z"/>
  <path class="cls-1" d="M442.39,608.59c-2.75,1.74-5.98,2.84-8.77,4.44s-12.84,8.5-14.99,8.42c-2.48-.09-4.58-7.58-6.21-9.42l23.61-13.95c2.45-.02,5.24,8.3,6.36,10.5Z"/>
  <path class="cls-1" d="M531.21,641.24l5.43,12.2-15.32,7.19-6.42-13.44c.39-.67,13.08-6.26,14.17-6.5.8-.17,1.51.07,2.15.55Z"/>
</svg>