<?xml version="1.0" encoding="UTF-8"?>
<svg id="Camada_1" data-name="Camada 1" xmlns="http://www.w3.org/2000/svg" viewBox="0 0 1024 768">
  <defs>
    <style>
      .cls-1 {
        fill: #413253;
      }
    </style>
  </defs>
  <path class="cls-1" d="M488.81,81.58c2.72,1.86,5.6,7.03,6.04,10.29.21,1.55.27,12.19,0,13.65-.86,4.73-.28,2.03.1,6.61.81,9.72-.09,25.49-13.12,24.39-1.74,6.43.07,11.92.47,18.04.96,14.51,2.39,24.48,9.1,37.79l1.2-.48c4.63,10.17,15.44,16.11,21.91,24.45,1.24,1.59.73,2.87.85,2.96.57.41,2.22.2,3.5,1.22,20.42,16.18,34.46,34.75,42.74,59.75,3.8,11.47.48,19.74,1.62,31.09.11,1.08,1.82,7.82,2.16,8.06,2.26,1.37,3.89-1.05,4.13-1.1.78-.19,2.65.55,4.05-.07,1.69-.75.26-3.4,4.18-.74-.08-1.86,1.87-2.12,3.31-2.18,4.43-.19,9.35.64,14.57.65.33,0,.11-1.12,1.37-1.42,10.07-2.41,17.91.48,27.68.6,9.11.11,16.85-1.81,26.82-.47,1.89.25,4.18,1.26,5.91,2.12l.34-1.44h1.45s-.36,1.45-.36,1.45h.72c.56-2.35,4.89-1.58,7.27-1.45,5.7.32,11.19,2.18,16.79,2.89,15.27,1.91,28.45,3.62,43.37,7.46,7.93,2.04,13.98,3.54,18.82,10.28.56.78,1.91,1.04,2.08,1.69.19.73.75,6.76.75,7.81-.05,6.71-2,16.22-2.98,23.13-.03.19-.45.51-.75,2.97-4.92,41.59-6.2,84.13-13.75,125.13,2.35.57,1.6,5.55,1.45,7.97-.51,8.03-2.78,16.03-3.62,24-1.18,11.15-1.29,22.06-3.21,33.02-1.76,10.05-1.12,19.37-1.89,30.2-.27,3.74-1.53,7.8-1.44,11.63l-1.45-.37c-.67,8.28-.7,16.77-1.56,25.04-.54,5.19-2.29,10.59-2.8,16.04-.86,9.18,1.34,11.63-4.5,20.21-4.9,7.2-13.23,12.24-21.33,15.1-1.2.42-2.43-.15-2.49-.04-.25.47.41,1.68-.5,2.18-1.48.81-6.23,1.18-8.28,1.76-10.86,3.08-24.81,4.66-36.04,5.4-21.13,1.39-53.49-2.69-73.47-9.97-6.9-2.51-17.77-10.88-17.68-19.04l-1.44.73c-3.04-10.09-2.61-20.59-3.65-30.89-4.25-42.19-8.14-83.76-12.36-125.74-1.04-10.39-1.18-21.13-2.14-31.17-.05-.53-1.36-.09-1.55-1.49-1.86-13.95-2.3-28.24-3.55-42.24-3.12-3.08-1.54-1.8-1.47-5.06.38-18.43-3.93-40.73-5.08-59.61-.55-8.9.99-18.74.06-26.94-.15-1.35-1.32-.9-1.38-1.38-.03-.23-.06-3.68,0-3.86.39-1.04,3.98-2.11,4.69-2.6,3.47-2.37,6.48-5.5,10.14-7.67,1.82-.73,1.15,3.33,2.15,3.61l2.49-.05-1.45-1.44,3.62.72,1.36-8.99c-1.08-5.93-.7-12.22-1.43-18.18-.17-1.35-1.36-11.14-3.55-9.17l.72,2.17c-.32.3-1.5-.78-2.05-.56-29,11.88-55.47,13.21-87.03,13.62-36.99.48-75.04-.9-110.93-11.11-3.25-.92-2.52-.91-5.97-1.24-.28-.03-1.75-2.78-4.8-1.43.64,1.62-.08,4.23.52,5.59,1.63,3.73,11.74,7.91,15.63,9.14,6.06,1.93,13.92,2.9,20.2,4.17-.7,3.49-3.57,5.5-5.27,8.17-6.66,10.49-14.11,21.68-16.68,34.14-1.17,5.68-3.36,5.24-8.58,4.93l.75-1.75c-2.4-.77-1.54-4.21-1.44-6.62.28-6.75,3.54-16.32,6.97-22.18.58-1,1.9-1.13,2.23-1.64.95-1.51.87-4.03,3.11-5.24l-2.66-3.28-16.23-3.63c.14,2.73-1.47,5.5.4,7.96,2.65,3.48,8.86-1.68,5.77,8.76-2.13,7.19-8.5,13.86-5.52,21.75l-1.37.07,1.44,1.44-1.49.41c1.06,2.85,1.29,6.2.04,9.04,2.12-.33,3.63.97,5.5,1.43,1.66.41,4.31-1.01,3.96,1.48l1.02-1.38c3.74,1.17,7.54,1.47,11.34.65-.63-3.2,1.6-8.03,2.89-11.27,5.42-13.6,9.11-20.05,17.44-31.99,1.79-2.56,3.34-6.48,5.39-9.14,1.51-1.31,12.37-.72,14.5.2,1.33.58.94,1.98,1.58,2.05l2.27-2.86,5.37,2.13c-.26,4.62-2.86,3.86-5.36,5.94-8.63,7.17-15.89,14.34-20.96,24.08-6.32,12.13-9.38,25.36-12.16,38.73-1.76-.18-4.73.38-6.18.24-5.18-.51-14.47-4.2-19.42-3.9-1.08.07-5.48,1.1-6.06,1.77-1.95,3.39-.67,6.66.45,10.07,4.36.86,9.06,1.26,13.4,2.18,5.66,1.2,11.16,2.55,15.83,3.79.34.09.62,1.72,3.03,1.36,1.32,12.46,5.24,24.21,11.31,35.09,7.57,13.55,20.56,25.94,35.39,31.04,1.15.39,2.87.11,4.12.83l1.12-1.49c-.01,2.61,4.04,2.51,6.28,2.81,5.59.73,12.02.83,17.73,1.29,1.16.09,1.81.05,2.88-.46.37,1.87-.38,1.28-1.41,1.82-21.45,11.41-29.44,10.29-52.7,9.89-14.12-.24-24.24-1.83-37.84-2.99-5.81-.49-11.99.67-17.79-.73-.36.35,1.68,6.54,2.16,6.92,1.15.9,3.95.36,4.24.56,1.07.76,4.59,3.05,5.6,3.3.56.14,5.26-.71,5.48.55l-.73,43.58c-1.28,3.01-.08,5.43-.04,7.98.16,9.33-.13,19.39,2.08,28.36-.15,1.91-5.55,1.2-6.82.89-.39-.1-.29-.98-.71-1.08-3.7-.89-7.38-1.24-11.11-.05-2.14,5.43.96,9.63,6.34,11.17,3.15.9,14.49,3.3,17.17,3.15,1.25-.07,2.84-1.98,4.68-1.38l-1.44-1.05c3.16-7.5.41-15.8,2.09-23.34.02-.37-1.34.02-1.45-1.38-.87-10.9,1.83-22.87.15-33.52l1.34-.61-.73-30.61c8.02-1.18,16.3.8,24.38,1.14,5.08.21,10.23-.2,15.32-.06,7.29.21,13.68,1.9,20.31-.06,2.42-.71,7.78-.54,10.52-1.43l.07-2.1c1.3.54,2.58.21,3.88-.11,9.03-2.18,16.1-9.43,23.5-14.26,9.46-6.18,19.63-11.49,28.75-18.34.95-.71,1.09-2.03,2.43-2.85.99-.61,2.7-.58,3.1-.89.07-.06-.48-1.05.04-1.73,4.56-5.92,10.77-10.89,14.48-18.28,2.58-5.14,3.37-12.06,5.88-17.39l-1.41-1.03c3-.21,1.65-3.72,3.65-5.82,2.88.96,1.73,3.47,2.24,5.41,5.25,19.9-2.96,31.08-15.69,45.47-11.84,13.39-23.56,20.13-36.34,31.23-5.17,4.49-10.72,9.18-13.4,15.57l60.8,65.33c.79,4.02-1.68,4.57-4.97,5.94-2.47,1.02-5.29.17-8.33,1.05l-.65-1.29-1.84.65c0-.48.15-1.18-.09-1.56-2.44-3.82-8.75-9.5-12.63-13.72-1.13-1.22-2.44.25-1.08-2.89-.95-.14-1.95-.29-2.71-.95-3.51-3.03-7.74-10.21-11.14-13.92-5.07-5.55-10.99-10.88-15.95-16.03-3.13-3.25-6.77-9.27-11.64-7.63l.63-2.04-2.97-2.84c-1.99,1.13-1.12-.91-2.42-2.34-2.06-2.27-6.36-4.08-9.41-4.4-13.3-1.42-32.52-1.45-45.53.41-.74.11-3.41.87-3.57,1.53l.7,10.12-1.35.62.73,2.16c-3,5.11-.46,15.22-2.91,21.94l1.34.61c-2.37,12.62,1.96,25.59.78,38.21l1.81-1.44,1.23,3.48c5.07,1.08,10.35,3.09,15.46,2.31,16.33,1.85,33.03.35,49.41.78l25.13-2.93c.56-2.42-1.15-.52-1.81-1.39-1.66-2.21-3.67-6.34-5.42-8.45-1.31-1.58-2.95-.05-1.5-3.24-3.34,1.15-4.08-3.03-5.38-4.41-.82-.87-2.04-1.29-2.9-2.2-3.76-3.98-7.21-8.33-10.98-12.28l-1.08,1.45c.86-3.78-2.57-4.06-3.98-5.84-.9-1.14-.76-2.68-1.34-3.39-1.3-1.59-8.61-9.11-10-9.95-6.5-3.93-14.32-.43-21.03-1.17-.82,9-3.34,17.77-2.91,26.9l10-1.63c1.9-5.12,1.12-10.49.9-15.81l2.9.73.04-2.18c1.81.43,3.56-.08,4.33,2.17l-2.18.73c4.13.32,7.83,5.62,10.29,8.62l1.27-.57c1.62,5.49,7.12,8.12,10.84,12.05.89.94,2.9,4.81,3.22,5.12,1.42,1.34,5.99,1.78,4.84,5.99-6.33,2.51-12.96,1.25-19.51,1.15-7.71-.11-15.79-.32-23.69-.78-1.95-.11-4.23.84-6.53.4-3.07-.59-8.34-6.69-8.92-9.97-2.03-11.35-1.77-18.99-1.29-30.52.12-2.78-.66-14.4,1.29-16.06.4-.34,1.51.03,1.89-.21.12-.07-.8-1.68.56-2.04,4.3-.19,8.66-1.2,13-1.11,4.59.1,19.38,1.75,23.09,3.39,6.9,3.05,9.12,7.98,13.85,12.68,8.41,8.35,18.28,17.06,26.68,25.45,7.6,7.59,18.93,23.42,29.58,25.5,4.81.94,13.86-.68,18.69-2.05,3.04-.87,12.69-5.89,14.59-3.6.45.54,3.87,12.39,3.94,13.56.17,2.63-1.35,4.66.08,7.12l-1.49,1.12c1.74-.25,1.92,1.94,2.08,3.36.69,5.81,1.66,19.88-.43,24.82-.26.61-2.71,4.23-2.94,4.89-.3.84-.1,3.5-.92,4.72-2.46-2.17-1.44,2.61.01,2.91,1.15-1.97,2.76-3.8,4.16-5.62.47-.61,0-1.32,1.65-.91,2.55,5.7,3.33,11.79,4.06,17.97.24,2-.33,4.88-.15,6.99.16,1.93,2.53,4.52.53,7.29-.55.76-13.16,5.65-15.1,6.93l-1.67-1.37c.04,2.84-2.47,1.38-3.3,1.6-1.02.27-4.32,2.5-6.78,3.24-15.03,4.52-38.31,9.85-53.56,9.35-10.15-.34-20.03,1.57-30.54,1.11-3.68-.16-7.57-1.37-11.49-.75l-.83-1.46c-.6.78-1.22,1.26-2.22,1.42-7.87,1.22-33.06-3.81-41.94-5.96-4.88-1.18-25.77-6.85-28.87-8.93-1.13-.76-1.34-2.23-1.58-2.39-.38-.24-5.67-1.67-8.13-3.17-13.41-8.17-21.8-16.59-27.16-31.71-4.53-12.79-1.74-19.73-2.5-31.67-.31-4.9-2.07-11.11-2-16.16.04-2.57,1.34-5.22,1.4-7.9.35-16.16-1.31-29.63-.12-45.86.92-12.58-3.37-27.92-.62-39.81.14-.59,1.38-.45,1.36-.8-.29-6.7-1.99-13.64-2.14-20.38-.11-4.94,2.09-9.65,1.84-14.58-.16-3.16-1.7-6.59-1.85-10.14-.32-7.19,2.13-15.88,1.86-23.29-.14-3.74-1.75-9.08-1.85-13.06-.2-8.4,2.06-16.77,1.5-26.17-.49-8.2-.38-10.66.04-18.87.48-9.52-1.12-18.53-.71-28.34.04-1.04,1.03-2.01,1.07-2.91.22-5.6-2.04-11.95-1.91-16.75.07-2.87,2.51-7.71,2.58-10.13.42-13.4-1.47-15.75,4.29-28.73,2.36-5.32,2.39-10.22,3.68-15.36.18-.73,8.55-11.44,9.09-11.96,1.14-1.09,2.84-.96,2.95-1.07.08-.09-.91-1.33-.4-2.16.27-.43,1.38-.55,1.64-.94,10.81-15.93,30.63-29.14,43.49-43.38,4.48-4.96,6.09-8,9.02-13.33.1-.18,2.63-2.55,2.77-3.04.18-.62-.47-2.75.2-4.16.93-1.97,2.75-3.06,3.54-6.82,1.05-4.97-.58-12.43,2.97-15.93l-1.51-.79c1.38-4.17,2.02-8.57,1.78-12.97-.16-2.99-1.45-5.11-1-7.66-.3-.32-7.12-1.71-8.47-2.48-2.73-1.57-5.02-8.8-5.27-11.86-.81-10.16,1.09-22.15.67-32.55,4.53-8.7,7.95-11.81,17.85-12.45,26.9-1.74,62.54-2.54,89.31.5,2.27.26,6.2,1.86,8.09,3.16ZM401.46,100.58c-1.88-1.65-6.23-7.14-7.56-1.87,2.53-1.96,1.31,2.34,2.26,3.54.06.07,1.05-.48,1.73.04,5.21,4.03,12.61,14.39,18.9,16.12,1.15.32,1.38.14,2.55-.08.68-.7-9.15-7.99-9.85-8.68-2.95-2.86-4.59-6.06-8.01-9.07ZM417.99,97.8c-.35-.21.19-1.39-.48-1.28l-.83,1.48h-4.62s.34,1.45.34,1.45c4.61,4.43,9.43,8.37,14.35,12.37.89.73,3.42,4,3.66,4.14.67.4,1.82.06,2.69.59.58.35.54,1.61,1.26,1.8,1.25.33,3.18-.22,4.58-.02.46-2.59-2.6-3.53-3.39-4.6-2.03-2.75-11.16-14.31-13.47-15.6-1.11-.62-3,.33-4.1-.33ZM445.5,97.99c-2.75.39-5.78-.39-8.37-.37-.63,0-2.02.11-1.8,1.08l2.89.36-.64,2.46c3.47.73,4.34,4.57,5.97,6.42.78.89,2.65,1.77,3.82,3.1,1.01,1.14,2.11,4.17,3.56,5.12,1.94,1.28,4.7,1.61,6.93,2.17.23-4.52-4-6.6-6.07-9.52s-3.91-7.42-6.84-9.51l.56-1.31ZM462.78,98.11c-.41-.49-2.25-.8-3.03-.79-.59,0-4.08.41-4.08,1.38.79-.07,1.25.29,1.69.9,4.28,5.77,7.65,11.81,13.75,15.83.51.34.43,1.23,1.03,1.41,5.84,1.68,1.59-9.47,1.99-11.99.13-.83,1.52-1.37,1.79-2.29.7-2.41-1.88-4.89-4.26-4.57-.21,2.24.13,4.48.22,6.71.03.75.98,1.02-.58,2-.6-1.42-5.88-3.45-6.06-3.75-.41-.68.2-2.17-.22-2.66-.3-.34-1.73-.04-2.45-.81-.22-.24.34-1.21.22-1.36ZM394.6,108.18l-1.45.35,1.46,9.06,7.27,1.47c.13-4.35-5.63-6.75-7.28-10.88ZM466.1,187.94c-3.28-7.7-6.52-25.71-7.13-34.35-.25-3.56,1.34-8.03-1.08-11.63l-50.18.36c-.22,3.95.28,8.04-.01,11.99-1.18,16.15-3.26,30.17-10.91,43.8-1.4,2.5-2.46,5.53-3.62,8.17.44.49,5.04.47,6.03.76,1.77.5-.03.43,3.7.76,22.05,1.93,43.41,3.17,65.51.68,2.1-.24,4.31.14,6.42.02l1.86-4.06c-3.76-1.41-.32-2.5-2.47-4.69l-1.47,2.91c-.53-.94.22-2.01-.07-2.94-1.1-3.49-5.28-8.8-6.55-11.78ZM384.27,219.57c-2.61-1.14-7.87,1.8-6.03,4.96,6.77,1.41,12.63,3.52,16.98,9.14,1.92,2.48,5.36,10.94,7.79,11.18,1.97.44,5.17-4.96,5.08-6.53-.26-4.27-18.94-14.93-23.11-17.52-.46-.28-.53-1.15-.71-1.23ZM492.74,221.56c-9-4.56-13.74,4.76-20.85,8.21l-7.12,15.03c-3.87-1.71-5.31-5-7.65-8.33l-5.07-4.73c2.23-1.18,7.82-.24,8-2.91l1.43,1.44.74-2.91,2.17.73v-2.91c.95.64,3.44-.18,3.64-1.44l-69.05-1.83c4.4,3.23,11.99,4.27,14.55,9.08h.71c-.59-2.74,4.08-.17,5.47-.28,1.01-.08,1.84-1.21,2.87-1.21.35,0,.32,1.21.95,1.44,4.54,1.66,11.66,1.85,16.91,4.03,10.16,4.22,13.36,10.28,20.33,17.46,3.95,4.07,8.97,7.47,11.76,12.57,2.38-1.28.68.43,1.47,1.41.42.52,11.11,5.29,12.13,5.58,8.36,2.34,14.46.94,21.5-3.26.66-.39,1.64,0,1.71-.08.28-.37.15-1.44.53-1.95.76-.99,1.78-1.72,2.33-2.8,3.34-6.61-4.08-21.71-8.01-27.64-7.16-4.52-14.74,2.96-18,8.96-.27,2.54,2.37,3.57,4.39,2.85.66-.23,2.34-2.15,2.64-2.74.17-.34-.54-1.13-.45-1.21.22-.21,4.46-1.63,5.26-1.42.47.13,6.6,6.28,6.99,6.89.49.76,1.34,3.56,1.33,4.43,0,.32-1.25,5.71-1.42,6.23-.64,1.97-4.08,3.14-4.21,5.61l-1.08-1.46-.69,1.33-11.12.35c-3.1-4.3-13.39-7.72-14.49-12.76-.66-3.02.07-7.14-.28-10.3.23-.81,1.72.06,2.26-.88,1.61-2.8,2.53-8.31,4.06-11.09.81-1.47,3.46-2.16,3.71-2.43.41-.44,0-1.6.62-2.06,1.7-1.24,8.8-.56,9.02-5.01ZM379.79,238.53c-1.77-.72-11.64-2.87-13.17-2.83-3.79.09-8.25,3.89-9.95,7.14-4.65,8.85-3.76,18.47.74,27.18,3.08,5.94,5.03,5.1,10.01,7.48,1.23.59,1.93,2.12,2.26,2.19,3.28.66,16.66.32,19.41-.78,1-.4,1.8-1.08,2.63-1.73,4.75-3.66,11.45-10.78,16.02-15.22,1.37-1.33,2.39-2.28,3.68-3.6,1.62-1.65,6-7.13,6.98-7.79,1.38-.93,8.77-1.31,10.48-.99,6.37,1.18,12.14,11.09,16.23,15.6,2.29,2.53,4.94,4.76,7.29,7.25,1.98,2.1,3.6,5.47,6.01,7.27,5.33,3.98,10.05,2.77,16.14,3.63-2.09-2.64-5.39-4.45-7.74-6.79-3-2.98-12.59-13.32-14.23-16.67-.53-1.09-.59-2.25-.57-3.43l-1.44,1.44c-.24-1.26-1.17-2.47-1.97-3.44-5.54-6.75-16.27-13.72-25.35-13.91-1.66-.04-5.48-.21-6.68.86-.28.25-.1,1.34-.68,1.94-3.03,3.06-6.22,5.98-8.98,9.09-1.42,1.6-.35,3.54-5.04,3.3l1.44,1.44-5.09,1.47c1.59,3.12-.63,2.64-1.44,5.46l-1.45-1.1c-.59,3.14-5.24,4.12-5.83,7.26l-1.08-1.45c-1.27.47.45,1.95-2.14,2.92-6.5,2.42-15.82,1.07-21.11-3.66-4.28-3.83-6.52-12.61-4.01-17.82l-1.45-.69c3.47-5.8,13.69-11.52,18.21-3.68,2.54,4.41-.12,4.29-1.94,5.77-.42.34-.51,1.05-1.2,1.38-1.99.96-5.66.56-5.61,3.05.02,1,1.61,2.03.71,3.27,2.29-1.16,3.89.62,5.53.7,7.58.39,16.39-3.33,14.47-12.33-1.16-5.47-5.03-6.03-9.25-8.05-.57-.27-.7-1.07-.86-1.13ZM533.45,267.34c.25-3.05-1.43-3.55-2.93-5.44-1.9-2.41-2.32-2.25-3.24-3.26-1.49-1.62-1.84-5.69-5.47-5.11,1.63,2.23-.44,3.09-.7,4.75-.28,1.77.11,3.5-.33,5.47-.39,1.73-2.61,8.12-4.66,7.29l-.56,5.03c2.33,3.27,9.91-3,11.71-5.11.72,3.09,4.04-.82,6.9.73l.06-2.1c3.09.89,1.93-1.69,1.38-3.72l-2.16,1.45ZM424.42,258.62c-2.87-.06-.71,3.47-4.36,2.93.47.16-.76,3.99-.92,4.19-.48.62-2.8.94-2.83,2.95l-1.34-.64.3,2.2c-3.1,4.52-8.01,6.64-10.49,11.61,1.72-.67,2.2,1.21,2.77,1.39,3.41,1.09,6.86.88,10.35.5,4.38-.49,10-.39,14.87-.28,1.86.04,11.28,1.31,12,.58.15-1.08.1-1.36-.53-2.2-2.07-2.79-5.66-5.93-7.77-8.76-2.85-3.8-5.23-7.9-7.65-11.97-1.23-1.3-3.11-1.72-4.75-1.05l.35-1.45ZM349.55,276.06c-1.08-2.93-3.23-5.41-4.51-8.2-.63-1.38-1.36-8.26-4.22-6.32-.11.08.65.96.51,1.28-.36.83-1.18,2.45-1.73,3.64-.45.96-1.62.66-1.94,2.44-.91,5.09,7.81,7.91,11.88,7.16ZM679.5,336.46c-10.54-.06-21.08-1.55-31.59-1.83-27.62-.74-63.12-.67-89.91,5.61-1.29.3-11.61,2.77-10.03,4.86,3.98,1.39,7.99,3.22,12.14,4.12,13.41,2.92,30.21,4.5,44.16,5.31,7.35.42,19.9-1.03,26.16.07,1,.18,1.63.62,2.22,1.41l.81-1.44c6.6.2,13.69.91,20.29.76,16.6-.37,49.05-1.41,64.52-6.01.82-.24,1.3-1.24,2.03-1.6,1.4-.69,3.85-.27,3.56-2.61-8.51-1.93-17.14-4.45-25.89-5.73-5.75-.84-12.91-2.22-18.44-.81l-.05-2.11ZM723.15,401.81c0-10.62-.13-21.13,1.98-31.66-.77-4.29-16.99.52-19.97.94-14.63,2.04-29.57,1.99-44.11,2.41-37.64,1.07-75.29.34-112.32-7.66-1.96-.42-3.22-2.67-5.84-.73l-.61.85,2.07,32.48,1.46,1.18c-1.96-.25-.76.87-1.45,2.18.54.33,10.46-.51,11.96-.75.99-.16,9.28-1.98,9.69-2.27,4.05-2.96,3.73-1.12,8.26-1.72,44.99-5.91,86.55-4.96,131.03,1.9,4.5.69,9.32,2.35,13.97,2.86l1.02-1.42c2.36-.68.46,1.98,2.88,1.42ZM345.02,407.78c-1.05-1.89-14.74-3.7-16.48-2.26-.5.41.12,3.99-2.25,3.57l1.53,1.78-1.53,43.27c2.07-1.09,2.48,2.62,5.52,2.08l36.87,4.37,1.21-2.08c-3.07.68-2.09-2.07-3.34-4.29-3.4-6.02-9.75-12.62-13.01-18.97-1.48-2.88-3.97-8.71-3.27-11.63l-1.44.74c-1.8-5.44-3.41-10.78-3.81-16.57ZM629.43,409.02l-.4-2.14-.37,2.19c-11.91-.42-24.03-.36-35.93.82-9.86.98-20.23,3.46-28.92,5.16-1.07.21-1.7,1.82-3.46.56l.73,2.91,2.9-.74.03,2.18c.48-.11.97-.42,1.49-.29,38.2,9.9,76.31,9.04,115.14,4.65,7.21-.82,14.38-2.66,21.71-2.15l.48-1.47,1.44,1.44,2.19-2.54-.73-1.47,4.36.37c.18-.99-1.3-1.11-2-1.26-2.03-.43-4.3-.91-6.32-1.28-4.41-.79-7.5-1.03-11.28-2.17-2.03-.61-3.8-2.06-6.13-1.12l-1.16-1.43-.31,1.38c-10.15-1.22-20.49-2.64-30.74-3.26-3.5-.21-21.94.47-22.71-.36ZM547.99,433.06l-.73-2.17c-.48,2.25-.69,4.62-.36,6.88,1.5,10.21,9.71,21.31,14.52,30.19,1.6,2.96,2.13,6.77,4.52,9.46,4.67,2.98,12.58-8.98,15.49-12s7.09-5.43,8.81-9.7l1.33.62v-2.91s1.45,1.45,1.45,1.45c-.81-1.24,4.87-6.53,5.42-6.54,4.31,1.04,6.9,4.31,9.56,7.46,5.84,6.91,13.89,12.51,20.79,18.75,5.59,5.05,9.13,10.04,15.76,14.25.53.33.59,1.29,1.38,1.67,8.36,4.01,15.77-13.34,22.65-15.27l-.71-1.4h2.2s-.73-1.44-.73-1.44c2.9.63,1.84-1.34,2.38-1.94,2.29-2.52,7.71-5.01,9.75-7.74.6-.81.77-3.27.96-3.42,2.49-1.87-.19,1.99,1.8,1.45,1.96-3.5,6.32-5.11,9.12-7.61,5.19-4.62,10.33-11.49,13.79-17.46-2.07-.55-3.11,2.38-5.52.42l-.31,1.38-1.81-1.45c-.69,2.8-1.77.53-3.55.68-.45.04-.48,1.11-.64,1.18-.72.29-2.88.48-3.31,1.16-.09.14.6,1.41.09,2.57-.86,1.94-2.44,1.89-2.98,2.55-7.57,9.26-19.1,17.71-27.75,27.1-3.6,3.91-6.76,8.61-10.34,12.58-3.17,1.84-7.42-4.95-9.63-7.12-1.55-1.52-2.93-2.81-4.44-4.29-9.49-9.32-18.65-18.75-28.45-27-3.72-3.13-7.1-4.78-12.15-4.82-6.32,4.35-10.82,11.46-16.02,17.24-1.39,1.55-4.69,3.8-5.99,5.29-1.21,1.38-1.68,4.82-3.75,5.22-3.93.75-3.12-3.12-4.58-5.7-5.54-9.72-12.71-18.83-16.16-29.68-.23-.73.14-1.36.27-2.03l-2.17,2.17ZM719.42,443.14c.12-.16-.91-2.81-1.01-3.91-.19-2.15.93-6.22-1.07-7.62-4.07,5.32-3.12,13.18-8.54,17.79-.04.46,2.84,5.71,3.42,6.36,1.27,1.41,3.65,1.4,3.66,3.45l1.45-.36c-.32-2.67-.79-13.13.4-14.88.41-.6,1.53-.64,1.67-.84ZM566.73,436.93l-4.57-1.69c-1.53,1.79.65,2.03,1.02,2.75,1.03,1.94,4.67,10.24,6.05,10.79,1.76.71,5.37.54,4.92-2.17l1.44.28-1.44-2.18,2.87-.05.76-4.32-7.86-.19c.11-3.55-1.32-.99-2.35-1.63-.39-.24-.48-1.39-.84-1.59ZM678.09,439.61c-3.57-1.78-2.95,2.04-3.3,2.22-.9.46-8.56,2.37-9.33,2.17l-1.18-1.48-.09,1.34-1.37-.62c1.13,7.98-8.1,12.19-14.2,15.02-2.7.04-8.57-8.18-6.84-9.89.3-.29,3.19.46,2.86-3.66-2.35-.21-4.6-.14-6.19-2.18-.7,2.99-3.13.04-5.2-.46-.98-.24-3.31.3-4.62-.26l.74,1.44-2.91-.36,4.33,2.63-.62,1.76,1.31.65-.66,1.86,2.8-.65c.31,1.15,1.18,1.91,1.79,2.86,1.23,1.93,4.67,5.89,7.02,8.35,1.28,1.33,5.44,5.74,6.9,5.47,2.38-.44,1.04-1.93,1.25-2.1.35-.28,1.52-.11,1.96-.52,2.09-2.02,2.58-4.54,6.63-3.96l-.73-1.43c3.28.24,2.54-2.2,3.06-2.73.44-.46,2.38-.47,3.49-1.28,3.63-2.67,6.31-6.75,9.82-9.84,1.4-1.24,3.36-.36,3.27-4.33ZM703.92,464.65c-1.82-1.33-3.31-3.14-5.48-3.97.65,3.23-1.83,2.03-3.41,3.16-1.15.82-13.37,12.21-13.83,13.04s.04,2.15-.34,2.6c-.21.25-4.22.86-3.52,4.46l-1.44-1.44c-1.28,2.29-3.03,3.51-2.91,6.54l3.63-1.47-.74-1.43c2.76.62,6.66.81,9-.85,2.15-1.52,6.67-5.22,8.47-6.93.94-.89,2.53-4.13,3.41-4.66,1.11-.67,2.13.74,2.81-1.39l1.75.74v-2.19c4.28.92,5.67,4.6,6.92,8,2.71.73,5.54-4.75,4.37-7.25-.67-1.44-7.07-5.75-8.71-6.95ZM603.15,465.12c-1.85-1.55-7.15,2.69-8.1,4.51-2.37,4.53-8.7,8.35-12.57,12.81-.86.99-1.89,2.28-1.79,3.68,2.27-1.1,5.36,1.68,6.72,1.36.39-.09,6.65-3.59,7.08-3.91,1.54-1.15,1.94-3,4.25-4.47,2.08-1.32,5.57-2.67,7.87-1.45l12.97,12.83,1.11-1.4,1.43-.05-.36,1.45c1.08.09,6.3-1.2,4.25-2.96-4.23-3.62-7.76-7.58-11.88-11.27-1.18-3.76-7.06-3.89-8.88-8.16l-1.29.57-.83-3.54ZM550.89,472.31c-.43-.54,1.56-3.32-.73-3.63,0,3.26-.91,7.91,3.62,7.99l-.73-5.09-2.17.73ZM556.56,492.13c-.61-.38-1.35-.15-2.04-.2-.54,3.84.52,6.75,2.35,10,4.43,1.18,8.16,3.95,12.91,3.82-1.83,6.44-7.42,5.03-11.27,8.71l-1.08-1.45-1.45,5.8,1.39.31c-1.76,2.71.7,4.8.41,7.69,3.14-2.37,6.2-4.97,9.07-7.62,3.65-3.37,6.75-7.21,9.69-10.34.77-.82,7.72-6.12,6.33-7.47-3.87-.12-7.21-2.69-10.92-3.99-4.09-1.43-10.51-2.24-14.2-3.56-.91-.33-.9-1.53-1.19-1.71ZM712.05,502c.39-.87-.1-8.09-3.36-5.86-.24.16-3.21,1.48-3.45,1.54-.55.15-3.08.14-3.89.08,1.29,4.77,6.16,8.36,9.08,12.34,1.75.07.41-6.62.47-7.63.02-.35,1.08-.32,1.15-.47ZM332.07,548.57c-.04-3.78-.18-8.2-.02-11.94.21-5.02.27-9.67.32-14.66.08-7.93,4.08-23.14-6.08-25.67-.68,8.63.26,17.11.03,25.83-.15,5.57-.49,7.4-.09,13.11.36,5.11-.95,10.67,3.43,14.15l2.41-.82ZM682.88,503.14c-1.14-.79-4.02-3.09-5.12-3.14-.97-.04-6.4,1.37-7.67,1.89-3.07,1.26-4.95,3.03-7.46,4.8-14.5,10.2-27.15,21.94-39.39,34.7-2.22,2.32-5.1,3.98-7.37,6.84-.99,1.24-1.5,3.74-3.18,4.37.78,4.81,18.8,19.16,23.2,23.33,4.79,4.54,9.09,10.4,14.43,14.85,2.18,1.81,9.27,7.36,11.42,8.36.32.15,1.04,0,1.47.25l.7-1.24c2.39,1.57,1.57-.41,2.89-1.56,9.36-8.14,15.97-15.75,24.71-23.99.98-.92,2.56-1.04,3.13-1.62.69-.7.59-2.25.99-2.64.16-.16,2.19.79,4.29-1.17,3.28-3.05,3.74-7.94,2.54-12.03-2.19-7.48-14.92-18.59-21.25-23.24-1.19-.88-4.3-.85-4.62-3.59-6.75,1.42-10.99,5.99-16.15,9.93-.57.43-1.83-.02-2.5.38-.44.26-5.21,6.02-6.8,7.39-.47.4-1.4.34-2.03.51-1.38,5.73,6.35,7.59,5.03,12.22,2.96-.35,2.35,1.87,3.15,2.71,1.56,1.64,4.21,3.14,4.83,5.35h.71c-.4-2.26,1.71-1.03,2.74-1.61.39-.22.6-1.47,1.24-2.02.85-.72,2.9-1.47,3.04-2.52.62-4.76-5.79-6.83-6.6-9.08-.55-1.52.31-4.7,2.52-3.68l-.74-1.44c3.78,1.45,8.69-6.76,11.66-5.45.31.14,3.95,3.01,5.03,3.72.44.29.58,1.22.93,1.48,1.22.87,6.59,1.65,5.65,4.62l1.3-.57c.33,2.41,4.72,2.71,5.09,4.65.53,2.74-5.52,7.66-7.59,9.58-3,2.78-5.58,4.38-8.62,6.68-2.39,1.8-5.42,4.2-7.64,6.17-1.14,1.01-6.72,6.38-7.34,7.26-.9,1.3,1.57,2.45-.28,4.02-.47-2.18-1.65-.57-3.26-1.8-7.46-5.74-24.18-22.57-30.21-30.16-1.61-2.02-1.18-4.5-3.96-5.48,2.69-1.77,4.44-4.61,6.8-6.65,11.5-9.95,22.69-18.3,35.17-26.9,1.62-1.11,4.83-4.89,6.53-5.2,4.52-.82,4.73.76,7.3,2.78,4.28,3.38,7.52,7.79,10.78,10.07,1.12.78,2.7,1.05,3.88,1.96,3.82,2.93,7.78,7.19,9.85,11.22,1.4-1.35,1.99-3.33,1.1-5.08l2.18.35v-2.54s-1.45,1.45-1.45,1.45l-.04-1.81,1.49-.72c-1.71-1.49-1.81-3.85-2.94-5.64-.39-.61-3.88-4.57-4.59-5.38-5.33-6.11-12.23-11.3-18.93-15.95ZM609.58,503.83c-1.9-.28-7.39-1.1-8.94-1.04-1.9.07-2.71,2.06-4.68.78-.4,1.95.43,1.07,1.44,1.81-1.74,1.55-3.03,3.52-4.61,5.18-4.71,4.95-11.11,10.66-14.32,16.99-2.65.69-9.18,7.2-11.97,10.17-5.67,6.04-8.21,9.56-4.64,17.75s12.02,15.84,17.85,22.53c.98,1.12,3.79,3.89,4.37,4.98.18.34-.55,1.21-.49,1.26.18.14,1.37-.34,2.24.48.8.76,2.54,4.33,3.58,5.71,4.67,6.22,10.54,12.17,15.24,18.37,2.54,3.34,5.82,6.76,5.85,11.06-.43.41-6.78-.45-7.64,1.45l-1.08-1.45.3,2.23c1.98,2.57,23.73,4.52,28.03,4.3-2.99-3.61-4.76-8.36-7.67-12.33-4.68-6.38-12.75-14.68-18.73-20.47-5.01-4.84-11.07-9.12-15.5-14.74-5.2-6.58-8.79-14.79-13.46-21.05-3.74-5.01-10.28-7.39-4.25-15.18.89-1.15,2.52-1.27,3.17-1.96,10.88-11.55,22.55-23.37,34.91-33.94.72-.62,3.74-.73,2.28-2.42-1.23,1.31-1.09-.46-1.27-.49ZM627.51,519.13c2.02-1.78,12.81-10.5,12.76-12.3l-5.4-1.75c-2.65.88-5.99,1.01-8.36,2.51-11.88,7.5-19.76,17.15-29.06,26.88-3.16,3.31-9.62,7.93-12.17,11.47-2.78,3.87.45,5.03,1.53,7.11,8.59,16.55,23.7,30.04,36.97,43.34,3.68,3.69,17.47,18.05,20.64,19.79,1.23.67,2.33-.05,2.4.05,1.24,1.8-1.74,1-1.44,2.17,2.82-.62,2.52,2.09,4.06,3.58,7.53,7.25,11.77,3.19,20.06,1.29,1.8-.42,3.48.56,5.84-.54.27-.13,4.39-3.47,4.6-3.78,1.86-2.61,3.37-7.85,5.17-10.61,2.73-4.21,7.69-7.96,9.32-12.46l4.74-5.43-1.46-.73c.46-1.19,1.9-.33,2.05-.52,1.01-1.26,2.65-6.09,2.31-7.84l1.44,1.45.73-3.62c-3.33-.87-2.69,1.25-4.38,2.5-9.23,6.84-13.72,14.49-21.05,23.1-2.88,3.38-10.88,12.01-15.17,12.55-.94.12-5.15-1.76-5.9-2.31-4.87-3.52-13.12-12.96-18.05-17.62-10.75-10.18-22.32-21.11-32.87-31.68-2.91-2.91-10.53-8.61-11.22-12.64-.05-.28.43-5.49.54-5.75.07-.15.96-.25,1.23-.68,5.04-8.12,22.21-20.5,30.13-27.51ZM567.35,580.12c-.3-.42-1.27-.65-1.81-1.42-1.43-2.04-2.47-5.2-4.47-6.81-1.16,8.21,2.1,16.52,2.91,24.7,1.51-.66.99-3.37,2.76-4.35,4.13-2.29,8.47,5.39,10.3,8.18.42.64,1.49.77,1.79,1.28.48.84,1.11,4.34,1.08,5.4-.18,5.99-12.56,3.65-13.76,8.38,1.69.32,5.06.95,5.11,2.9l1.44.02-.37-1.45c3.16,3.44,19.44-2.01,19.14-5.31-1.26-1.84-1.43-4.5-2.48-6.26-3.8-6.42-11.02-11.7-15.88-16.79-2.07-2.17-4.02-6.06-5.75-8.46ZM373.79,639.96c-10.5-10.61-19.4-29.33-28.56-41.58-4.89-5.47-10.69-5.14-17.47-5.41-1.24,3.63-.25,6.54,0,10.18,1.75-.08,10.59,1.64,11.46,2.36.52.44.45,1.68.89,2.2,1.74,2.03,4.58,4.59,6.08,6.57.72.95.74,2.61.86,2.73.81.8,2.22.51,2.49.75.11.1-.48,1.43-.06,2.54.58,1.5,4.57,6.27,5.77,8.06,6.68,9.97,9.23,14.34,19.18,21.32.7.49,3.87,3.94,4.39,4.2.2.1,4.31.61,4.54.59,2.13-.13,6.45-2.35,8.07-3.61,11.6-9.01,21.64-22.38,34.36-31.47,1.77-1.26,5.77-2.11,5.25-4.55l20.8-.23c.73.23,7.83,5.89,8.62,6.67,4.59,4.58,8.87,10.6,13.74,15.33.96.94,8.2,7.29,8.77,7.23.65-.47.74-1.5,1.35-1.93,7.71-5.54,22.72-22.32,27.65-30.83,1.38-2.38,3.65-7.52,2.61-10.1l2.18-.36c-3.02-4.15-8.59,3.3-10.88,5.99-3.81,4.46-7.8,8.84-11.94,13.35-3.59,3.91-6.57,8.53-10.31,12.33-2.82-.08-2.21-2.27-3.14-3.36-5.35-6.21-14.74-12.65-19.47-19.48-.37-.53-.24-1.3-.22-1.93l-1.09.57-.37-2.02-1.08,1.44c-.84-.82-1.88-1.2-3.01-1.4-6.18-1.11-14.66-.9-20.96-.81-2.72.04-13.65-.43-14.93,1.52-.26.39.78,1.59.61,2.05s-6.58,5.13-7.63,6.16c-4.6,4.52-9.47,9.96-13.65,13.6s-9.92,7.07-13.54,11.19c-1.33,1.51-1.78,2.8-2.2,4.72-2.24,1.51-7.56-2.99-9.13-4.57ZM377.81,606.14c-2.36-.48-4.87-1.44-7.15-1.95-1.12-.25-2.22.49-3.15.28-1.49-.34-1.93-3.21-3.4-.97,1.79,1.58,1.32,5.23,2.38,6.7.34.47,1.5.6,1.98,1.26,1.98,2.71,10.03,16.04,12.72,16.12,6.78-2.36,10.4-9.13,15.15-14.01,2.45-2.52,6.13-4.04,7.74-7.52-2.21.94-14.65-.14-15.26.32-2.04,1.58.81,3.13.41,4.03-.16.35-4.76,5.65-5.09,5.86-4.58,2.97-3.03-1.27-3.38-2.49-.09-.32-2.76-4.35-2.83-4.64-.24-.97.2-2.04-.11-3.01ZM489.5,607.93c4.52-5.95-1.34-3.04-4.73-2.98-.85.01-1.37-.7-2.24-.68-3.59.07-7.25.65-10.87.34-.06,3.04,3.1,3.24,4.21,3.87.4.23,2.97,2.34,3.56,2.67.87.49,6.02.92,6.59.58.22-.13,3.11-3.31,3.48-3.8ZM700.44,613.92c.14-.2-.37-1.31-.22-2.05.4-1.99,1.7-3.98.04-5.81-.91,2.22-10.91,13.08-9.81,14.53,1.21-1.26,6.08-1.6,6.82-2.2,1.44-1.16.89-2.34,1.59-3.6.3-.54,1.4-.6,1.58-.87ZM524.47,621.87c.2-.37-.18-1.19.1-1.77.67-1.41,4.31-6.29.53-6.62-2.39-.21-2.99,3.98-4,5.29-7.49,9.75-15.6,19.46-23.25,29.09-1.2,1.52-4.29,2.07-3.33,4.73l7.67.69-.73-1.44c1.47.8,5.05-2.08,5.64-3.05.15-.25-.7-1.52.25-3.05,4.94-8.01,12.63-15.36,17.12-23.88ZM343.34,631.89c-.94-1.33-2.2-2.45-3.12-3.8-3.08-4.51-4.32-12.28-10.92-10.31-1.72,3.73-.86,6.42.92,9.78.64,1.21,9.28,11.18,10.31,11.82,2.32,1.44,5.55,1.44,7.7,2.36.83.35,3.93,4.08,5.67,4.29l-10.56-14.14ZM445.5,625.68l-3.96-.77-.71,1.42c-1.85-.87-4.95-1.23-6.65,0-1.16.85-1.22,2.79-1.94,3.52-4.86,4.91-15.11,9.76-19.45,16.73l-7.26,11.06c.43.37,10.01-.02,11.29-.64,2.53-1.22,7.05-7.32,9.39-9.56,2.16-2.07,6.91-5.37,8.95-7.41.54-.54.46-1.79,1.1-2.53,2.48-2.84,8.15.13,10.86,2,2.47,1.7,4.71,5.91,7.09,8.35,3.64,3.73,8.14,7.03,10.93,11.24l1.44-1.44v1.45c2.58-2.58,9.14.8,10.2-2.9l2.89,1.44-1.44-1.45-.74-4.36-1.13,1.49-3.23-.78.74-1.44c-2.35.82-5.14-1.5-6.62-3.27-.54-.64.06-1.59-.06-1.72-2.07-2.12-8.92-4.51-7.89-8.77l-4.32-1.52,1.45-1.08c-2.5-.75-4.11-2.89-5.09-5.45l-1.44,1.44c.2-3.21-2.45-3.7-5.1-3.64l.74-1.44ZM568.2,630.97c-.55-.42-1.37-.15-2.05-.2l.74,4.35-2.19.72,2.22.48c.5,3.34-.4,6.84.56,10.13s3.26,4.06,3.52,7.3c.07.87-.46,1.61-.5,2.45,2.24,2.29,9.77-4.54,11.99-5.82,2.74-1.59,17.18-8.46,17.82-9.81.56-1.19-2.69-2.13-3.45-2.35-5.71-1.62-12-1.67-17.62-3.81-.04,1.15,2.03,3.15,2.15,3.43.27.68-.2,1.86.06,2.58.21.6,2.03.74,1.28,3.32l-7.83,3.75c.89-2.81-2.58-3.96-2.85-4.83-.4-1.3.66-2.8.62-4.2-.1-3.18-3.4-4.47-2.87-7.69l-1.44,1.44c-.02-.35.05-1.1-.14-1.24ZM696.86,631.68c-2.48-1.07-6.34,3.86-6.31,6.76,0,.35,4.66,3.65,4.27,5.4l1.83-.71-.3-2.84,2.1-1.17c-2.18-.59-1.45-1.98-1.44-3.99l2.17,2.9c-1.18-1.35.18-3.86-.07-4.66-.38-1.2-1.43-.48-1.93-.73-.19-.09-.17-.89-.31-.95ZM681.71,635.85c-2.02-.3-2.31,1.42-3.05,1.69-3.64,1.31-7.69,1.82-11.47,2.31,2.11,2.29,4.39,4.34,6.9,6.19s6.89,5.38,9.15,6.84c1.36.88,10.82,4.79,11.56,4.06-.11-6.87-1.03-4.81-5.47-7.24-2.52-1.39-2.98-3.23-4.2-4.15-.75-.57-8.21-4.1-5.81-5.31l2.07-.67.31-3.69ZM621.71,644.89c2.15-2.34,2.33-3.06,1.19-6.52-5.08-1.7-7.3,2.58-10.71,4.66-1.93,1.17-3.49,1.86-5.21,3.12-.26.19-1.54,2.83-3.81,4.58s-18.04,9.89-15.94,12.74h5.08s-1.44,2.19-1.44,2.19c7.6-1.96,13.8-6.95,19.99-11.62,4.2-3.16,7.06-5.03,10.85-9.15ZM654.52,643.43c-9.31-6.33-10.23-.89-17.92,4.36-8.74,5.95-12.38,9.9-19.33,16.44-2.48,2.34-4.96,1.31-3.86,6.51l3.75-3.5,3.5,2.04c-.31-2.45,1.25-.73,2.19-1.15s2.61-1.94,3.06-3.01l1.29.54c-.28-3.32.39-1.55,1.5-1.92,4.13-1.35,1.93-2.05,2.81-2.81,1.17-1.01,4.44-2.54,5.65-4.22.63-.87.57-3.01,1.05-3.32s2.26.03,3.48-.5,4.38-3.3,4.75-3.31c6.54-.18,6.61,3.43,10.17,6.61,1.08.96,2.52,1.23,3.68,2.2,1.75,1.46,2.23,4.57,5.43,3.63l-2.17,1.44c4.07-.08,7.43,2.34,11.5.61,1.68-4.94-.6-3.59-2.7-5.4-6.21-5.36-10.92-10.53-17.83-15.24ZM441.85,651.86c-1.77-2.27-8.88,5.5-8.62,6.43,1.04.01,1.23,1.16,1.97,1.46,4.44,1.81,2.12-1.53,5.94-.98l.71-6.92ZM650.46,669.29c.84-3.2-2.42-3.82-2.92-6.54l-6.52,3.64,1.05,1.94,7.22-.47,1.17,1.43Z"/>
  <path class="cls-1" d="M467.79,318.53c.24.1.23.78.61.94.26.11,1.18-.17,2.05.23,18.33,8.5,39.18,27.18,40.78,48.26.1,1.36-.63,2.84-.35,4.3.15.75,2.19-.03,1.48,1.92h-2.89c-.1-.74.18-1.69-.05-2.33-3.17-8.68-13.74-22.03-21.2-27.47-27.16-19.8-51.01-20.73-79.79-2.14l.53,1.27c-25.42,23.61-27.94,68.47,5.49,86.07,15.2,8,34.67,8.48,49.16-1.28,11.69-7.88,14.68-18.29,18.21-30.49-2.68-.62-.49-3.48,0-5.1.12-.39-1.3-.23-1.46-.82-.57-2.14.28-6.14-.31-9-1.45-7.04-6.14-10.58-11.11-14.77-.28-.24-.06-1.35-.4-1.69-.64-.65-11.86-5.56-13.34-5.96-5.17-1.39-18.68-.33-23.01,2.81-3.37,2.44-7.83,11.31-9.65,15.22-.2.95.75,1.74.77,2.56.03,1.12-.55,2.22-.34,3.57,1.45,9.06,11.36,19,18.24,8.58l1.34.63c.25-5.33-1.06-10.34-2.89-15.27l1.43.73.8-2.86c1.8,1.13,2.78-.63,4.63-.82,2.95-.3,7.44.55,10.31,1.37,1,.29.92,1.19,1.36,1.4.26.13,1.3-.35,2.01.14,5.24,3.58,8.36,11.57,7.74,17.72-.76,7.54-2.95,10.93-8.48,15.76-9.87,8.63-29.76,11.36-41.1,3.66-.86-.58-1.19-2.11-2.31-2.98-.65-.5-1.67-.14-2.58-.97-2.66-2.43-8.79-14.77-9.38-18.3-.38-2.23.03-5.96.33-8.32,1.85-14.7,6.26-25.14,19.05-33.47,2.92-1.9,11.24-6.11,15.15-7.18,2.8-.76,5.35-.53,8-1.44l.31,1.37c1.54.24,1.58.05,1.45-1.44l2.16,1.45.46-1.49c4.52.26,8.18,1.17,12.4,2.82,16.9,6.59,42.17,28.34,37.82,48.26-5.55,25.39-11.81,42.5-37.08,55.08-13.61,6.77-35.87,7.36-50.21,1.38-16.22-6.76-36.16-21.8-40.8-40.26-2.62-10.43-2.14-26.5-.57-37.3,2.93-20.17,7.05-26.63,22.55-38.86,3.39-2.68,3.9-3.3,5.97-6.56,1.64-2.59,14.11-10.86,17.3-11.97,12.31-4.32,37.44-1.79,49.39,3.06Z"/>
  <path class="cls-1" d="M518.18,463.23c-.8,3.99-8.28,9.53-10.78,12.48-2.81,3.31-4.82,7.7-7.64,10.89-4.35,4.91-14.28,10.24-10.17,18.44,3.06,6.1,12.01,14.2,16.56,19.64,4.96,5.93,9.32,12.7,15.19,18.62,1.61,1.62,3.63,1.78,5.45,4.37,4.05,5.75,3,13.96,3.75,20.59-2.48-.08-4.14-.43-6.04-2.16-5.73-5.21-12.83-11.6-18.34-17.44-4.32-4.58-8.22-9.7-12.68-14.2l1.45-1.08c-3.93.11-3.91-2.46-5.49-4.31-5.03-5.91-9.12-12.84-13.68-18.69-1.34-1.72-4.1-3.24-5.21-4.65-1.89-2.41-1.51-6.99-.18-9.61,1.05-2.06,2.75-2.15,3.28-2.85.21-.28-.48-1.52.38-2.56,1.02-1.22,4.92-3.19,6.51-4.61,7.09-6.35,12.15-11.95,19.67-18.18l17.98-19.58c-.6,4.39.82,10.81,0,14.9Z"/>
  <path class="cls-1" d="M521.81,478.12c.36,3.29-.02,6.55-.06,9.8-.01,1.33.74,2.67.7,3.69-.08,1.94-2.36,2.83-1.37,4.68-1.79-.77-4.29.72-4.72-1.45-4.61,5.28,2.67,10.97,5.01,15.33,4.03,7.49,4.66,16.99,4.79,25.37-.7.95-5.92-5.59-6.45-6.28-2.07-2.7-6.23-6.06-8.65-10.21-1.15-1.97-1.83-4.99-3.05-7.16-2.61-4.62-6.09-6.3-6.14-12.6-.03-4.31,1.23-3.96,3.69-6.16,1.38-1.23,1.26-3.37,4.6-2.67l-1.44-1.44c3.48.08,2.9-2.4,3.74-3.51.09-.12,1.12.42,1.7-.08,2.02-1.76,3.47-4.42,6.15-5.23l-.7-2.09h2.18Z"/>
  <path class="cls-1" d="M500.6,313.26l-.59,1.3c3.23-.1,7.76,8.25,8.87,11.15,1.63,4.28,1.9,8.44,2.76,12.86-.14.16-1.76-.89-2.11-1.18-4.27-3.56-8.59-7.84-13.19-12.22-1.44-1.37-3.81-4.88-5.29-5.98-2.72-2.03-7.78-3.59-10.65-6.07.06-1.22,3.99-.47,4.72-.33.62.12,1.07.6,1.46,1.07.55.23.13-1.29.82-1.46,2.03-.5,12.06-.93,13.21.87Z"/>
  <path class="cls-1" d="M534.06,303.8c1.4,7.28-3.5,8.63-8.27,11.49-3.06,1.84-4.7,4.98-8.9,3.18-1.76-.76-4.47-6.83-3.03-8.95,4.53,1.38,9.72-4.11,13.03-4.85,2.37-.53,2.39,1.56,4.09-1.68l3.08.8Z"/>
  <path class="cls-1" d="M582.05,382.27l.06,2.06-25.38,6.55c-1.66-3.87-.09-8.46-.37-11.99-.05-.6-1.69-1.81-1.12-2.51,1.25-1.54,1.45,1.48,1.81,1.46l1.4-2.01,23.59,6.45Z"/>
  <path class="cls-1" d="M707.31,381.24l6.39-1.24-1.38,1.75.65,10.6-1.33-.56-.12,1.27-2.54-2.17-.72,1.45-7.32-5.05-1.76,1.41-.12-2.09-2.06-.09.64-2.84-1.36-.78c2.02-1.12,4.32-3.16,5.44,0l.4-2.14,4.74-.71.45,1.17Z"/>
  <path class="cls-1" d="M676.92,383.38c.37.46,1.74-.13,1.16,1.71l-1.34-.64c-1.56,5.15-5.05,1.54-8.72,1.21l-.22-1.89-2.08-.5,3.96-3.17c4.37,1.02,4.45-.17,7.24,3.28Z"/>
  <path class="cls-1" d="M426.23,150.32c4.34.92,3.78,9.82,3.23,13.4-.72,4.7-1.68,7.58-2.26,13.02-.64,6.01-4.76,11.61-7.08,17.02-.51,1.19-.12,3.72-1.67,5.09-3.57.9-5.64-.12-8.44-1.38-.77-2.28.47-4.32.91-6.38,1.02-4.74,2.54-10.22,3.11-15.79.19-1.85-.66-5.32-.51-7.96.31-5.63.79-11.41,1.45-17.02,3.31.47,8.21-.65,11.27,0Z"/>
  <path class="cls-1" d="M450.58,151.76c.4,9.63,3.2,18.57,5.28,27.8.45,2,.43,4.55.94,6.73.8,3.38,7.07,14.6-1.52,13.9-3.52-.29-3.15-5.32-4.2-7.85-3.06-7.36-3.21-9.52-5.05-16.75-2.08-8.15-5.27-16-4.89-24.55l9.45.72Z"/>
  <path class="cls-1" d="M338.62,416.34c.87,2.47.14,4.75,1.11,7.26.66,1.71,2.26,2.97,2.85,4.43.89,2.21.72,5,1.51,7.21,1.28,3.57,2.74,7.3,4.73,10.56l-1.38.68.65,1.82c-2.95,2.09-4.03.42-5.45.33-.52-.03-4.16,1.62-5.05,1.87-1-.17-1.59-3.08-1.77-4.07-1.71-9.1-1.31-20.86-.8-30.09h3.61Z"/>
  <path class="cls-1" d="M428.36,272.11c2.29,2.11,4.43,5.09,4.77,8.31-1.21.3-.39-1.06-1.05-1.32-2.12-.81-8.39-.52-10.97-.84-1.09-.13-1.81-.01-2.5-1.11,2.17-2.29,4.41-7.67,8.3-6.78.66.15.93,1.26,1.44,1.74Z"/>
</svg>