<?xml version="1.0" encoding="UTF-8"?>
<svg id="Camada_1" data-name="Camada 1" xmlns="http://www.w3.org/2000/svg" viewBox="0 0 1024 768">
  <defs>
    <style>
      .cls-1 {
        fill: #413253;
      }
    </style>
  </defs>
  <path class="cls-1" d="M841.35,205.65c24.53,23.56,44.58,45.78,62.46,75.04,14.07,23.02,35.79,66.47,28.92,93.53-4.2,16.53-3.62,27.66-12.55,43.45-6.44,11.38-14.05,14.64-24.61,21.39-7.48,19.74-12.01,42.36-24.13,59.87-2.49,3.6-6.56,7.82-9.46,11.58-7.4,9.61-13.14,20.87-21.46,30.49-20.22,23.38-53.22,30.96-81.74,17.72-6.28-2.92-11.16-8.45-16.71-11.29-18.59-9.48-44.61-8.99-65.07-13.93-97.75-23.62-151.24-98.74-145.99-199.09,1.49-28.47,5.74-59.42,14.5-86.43,8.23-25.36,19.47-49.45,31.96-73.04,2.8-5.28,7-9.92,9.72-15.28s4.15-12.06,6.98-17.02c10.03-17.56,33.71-38.23,54.45-40.55,14.19-1.59,16.92,3.76,28.41,8.38,63.28,25.43,114.5,47.31,164.33,95.17ZM677.99,132.99c2.35-2.05-9.03-6.12-10.04-6.45-3.53-1.18-11.84-3.98-14.98-2.05-.46.28-4.64,7.35-6.01,8.98-6.52,7.73-16,15.36-15.96,26.53,13.19-12.21,27.24-28.17,46.98-27.01ZM592.39,199.39c6.6-6.04,16.28-26.96,20.47-36.03,2.87-6.22,6.16-13.34,8.17-19.85.24-.76,1.77-2.64-.53-2.49-.44.03-4.64,4.64-5.32,5.66-10.22,17.36-18.69,35.57-27.16,53.84,3.6,2.51,2.6.5,4.37-1.12ZM731.86,158.13c-29.97-15.07-58.57-10.89-84.33,9.89-5.33,4.3-30.66,27.12-32.26,31.74-.52,1.5-1.85,9.43-1.26,10.23,8.44-2.03,13.57-11.92,19.48-18.01,10.94-11.29,20.16-20.61,34.84-27.16,19.79-8.82,43.02-10.34,63.66-3.83l-.13-2.87ZM764.99,185.99c2.38-2.14-9.8-6.4-10.75-6.74-36.66-13.3-77.87.58-106.72,24.78-4.89,4.1-8.76,10.36-14.52,12.98v.97c2.79-.21,2.35,3.54,3.78,5.73,3.02,4.63,5.44,5.82,8.74,9.26,8.82,9.17,18.12,17.88,26.92,27.08,6.4,3.67,19.93-5.43,27.04-8.07,30.05-11.17,60.68-14.7,91.94-20.87.3-10.95,12.11-34.89-8.3-30.98.12,5.06-1.02,19.99-4.38,23.61-3.98,4.29-27.48,5.04-33.68,3.2-1.2-1.24,1.65-15.1,3.39-17,2.97-3.23,4.46-.23,7.1,0,3.49.32,7.02-.26,10.49.62.94-2.35,3.53-9.3.28-10.39-6.48-2.18-20.85,1.11-28.22-.08-2.84,8.45-2.76,20.42-11.77,24.73-10.28-4.55-18.32-12.62-27.65-18.7-7.94,5.91-18.99,8.39-27.43,12.66-.95.48-1.61-.26-1.24,1.69l8.47,10.44c9.62-5.17,16.15-10.45,27.73-6.64,6.33,2.08,8.4,10.37,2.71,14.14l-30.49,11.55-3.72-.98-27.25-28.05c-.56-.72-.38-1.17-.01-1.9,2.74-5.48,13.99-12.37,19.53-15.56s25.32-13.36,30.78-14.29c6.03-1.02,17.44,7.45,21.74,11.79,3.48-4.42-.14-11.84,5.93-15.05,8.69-4.6,29.65-1.24,39.57.07ZM826.99,229.99c.37-1.61-.55-2.04-1.46-3.03-4.18-4.5-11.17-9.18-15.52-13.97-.22,5.16-.31,10.11,2.23,14.77l14.76,2.23ZM598.25,238.76c.79.68,7.22,2.92,9.26,4.23,8.92,5.69,18.58,13.43,26.96,20.04,5.13,4.04,11.1,12.33,18.01,12.03,5.65-.24,6.87-3.46,3.96-8.01-4.73-7.4-35.6-33.59-43.75-38.23-6.11-3.48-15.52-4.83-15.73,4.74-.03,1.41.25,4.32,1.28,5.21ZM863,268.99c-3.59-7.48-12.99-11.94-20.74-13.75-50.04-11.7-125.56,7.3-169.18,33.35-32.58,19.46-78.71,61.03-95.9,95.1-2.55,5.05-6.18,13.13-1.19,17.32.06-1.17.51-2.38,1.15-3.35,51.92-77.8,146.5-141.35,243.34-135.63,13.7.81,29.07,4.2,42.52,6.97ZM602.65,321.65c2.17-2.37,4.18-5.76,6.45-8.05,7.51-7.57,17.02-14.75,24.96-22.03,1.56-2.04,1.46-4.98-.54-6.61-7.66-4.42-14-10.8-21.22-15.78-2.56-1.76-19.6-12.99-20.82-12.99-3.36,0-4.44,8.03-2.18,10.5,9.37,6.78,18.8,14.61,26.2,23.38,1.11,2.45-1.05,5.39-2.52,7.43-7.24,10.01-21.88,21.71-30.51,31.49-8.27,9.36-13.31,15.63-10.48,29.01,4.59-2.66,6.47-7.93,9.58-11.91,6.58-8.45,13.96-16.66,21.06-24.43ZM584.84,287.2c-.83-.48-1.89-.18-2.78-.15l-6.06,20.95,15.99-11.01c-.32-1.4-6.63-9.47-7.16-9.78ZM866.79,294.27l-3.77,1.23c12.23,11.8,20.44,26.41,23.72,43.26,4.31,22.11,7.02,48.15,9.35,70.66.1.95.44,3.76,1.9,3.58,1.04-6.94,3.46-14.55,4-21.51,1.94-25.18-7.93-68.89-24.96-88.01-3.1-3.48-6.8-6.17-10.24-9.2ZM839,310c-1.1-10.05-17.28-21.51-23.06-9.04-12.89-7.46-30.26-1.92-44.17,1.31-24.67,5.74-56.31,16.27-77.08,30.92-6.44,4.54-11.2,10.8-17.78,15.22-5.28,3.55-11.82,6.23-17.22,9.78-1.43.94-14.87,9.86-12.69,11.8,7.81.39,14.8-3.73,21.68-6.81,41.45-18.56,69.38-43.42,117.13-51.87,18.16-3.21,34.94-2.27,53.18-1.32ZM856.41,339.59c-7.2-7.29-14.89-8.54-24.92-9.58-41.11-4.27-79.81,9.2-115.34,28.64-20.25,11.08-39.95,26.87-62.93,32.07-11.48,2.6-23.83,2.5-35.2,5.76,1.64,6.82,8.11,4.96,13.44,5.57,56.37,6.49,89.76-39.98,138.78-54.32,24.12-7.05,54.52-9.48,78.98-3.45,4.1,1.01,7.92,3.91,11.78,2.71.43-3.61-2.46-5.26-4.59-7.41ZM800.7,453.69c3.87-3.17,6.34-16.01,8.29-21.21,5.69-15.18,11.42-30.66,17.34-45.66,1.55-3.93,9.85-19.11,9.23-21.91-.76-3.41-5.04-6.35-8.26-3.61-6.31,5.37-14.56,39.61-18.81,49.68-3.85,9.15-8.95,17.84-14.59,25.94-2.69,1.91-36.15-24.18-40.99-27.33-4.57-2.99-9.52-5.09-14.21-7.79-4.97-2.85-10.76-9.95-16.66-6.26-5.48,3.42-6.13,21.51-7.33,27.66-3.24,16.66-8.18,34.97-10.44,51.56-1.19,8.73-4.4,22.67,6.09,26.11,6.87-4.28,3.93-12.71,4.65-19.37,2-18.48,6.28-48.07,11.44-65.56,1.58-5.36,3.91-5.42,8.44-3.34,21.36,9.81,39.04,31.12,57.78,40.21,2.59,1.26,5.45,2.98,8.02.87ZM789.76,404.77c3.28-7.24,5.18-15.08,8.04-22.46,1.65-4.27,13.05-21.53,1.91-19.12-7.21,1.56-12.39,21.82-19.18,26.57-3.03.48-19.43-11.03-24.32-12.55-2.32-.73-3.72-1.47-5.64.77-1.13,10.08,12.72,13.95,19.72,18.22,6.04,3.68,11.77,11.73,19.46,8.57ZM855.01,371c-2.61,2.73,5.38,9.5,7.5,10.99,1.54,1.09,6.46,4.58,8.02,2-.61-8.44-7.19-13.51-15.52-13ZM870,411.99c1.81-2.38-10.72-14.57-12.99-16.51-4.01-3.44-8.25-7.94-14.01-7.49l-.84,7.82c10.24,3.27,16.48,18.18,27.83,16.17ZM662.28,467.73c1.24,1.98,17.49,12.3,21.01,11.12,6.23-1.87,6.84-24.96,7.98-31.07,1.53-8.19,3.84-16.35,5.47-24.52.78-3.93-.52-7.4,2.93-10.75l-2.18-3.5c-.87,3.18-3.72.27-7.03,2.97-4.62,3.76-4.59,17.34-5.75,23.24-.85,4.31-4.3,25.66-7.38,26.66-4.62,1.5-11.52-5.3-16.32-5.87-1.63,1.22.39,10.32,1.27,11.72ZM837.75,412.29c-4.52-1.94-5.82,1.11-5.81,5.27,0,4.74,9.5,5.88,12.53,9.47l18.52,18.97c1.53-7.53-4.79-15.47-9.58-20.91s-8.58-7.67-14.67-11.12c-.6-.34-.72-1.55-.99-1.67ZM619.99,438c-.79-4.11-8.61-21.22-14.03-17.53-3.83,2.61,8.29,13.69,10.53,15.54,1.13.93,1.61,2.43,3.5,1.99ZM658.63,436.38c2.11,1.45,4.59,6.86,7.81,2.57,4.15-5.54,3.73-12.4,3.55-18.95-8.05,4.96-19.33.63-26.64,7.35-5.63,5.17-12.68,27.04-1.88,30.59l3.32-1.17,4.21-22.76c4.35-.56,6.23.03,9.63,2.37ZM847.42,454.58c-5.5-6.14-13.65-8.82-18.48-14.02-1.75-1.89-1.28-3.89-2.93-4.55-1.05,3.9-4.46,10.08-2.52,14,2.76,5.59,27.99,12.72,26.52,23.99,9.17-3.05,1.51-14.85-2.58-19.42ZM776,459.01l-33.31-21.27-3.09.16c-2.42,13.78-8.68,28.11-6.59,42.1,10.25,2.67,12.13-23.34,15.66-24.07,4.53-.87,12.97,8.56,15.82,8.68.88.04,9.12-2.76,10.24-3.38s1.69.04,1.27-2.22ZM668,497.99c.44-2.07-1.05-2.27-2.27-3.22-12.87-10.06-30.32-16.7-43.2-27.8-8.49-7.32-15.17-17.43-23.52-24.97,1.05,7.68,6.97,16.59,11.96,22.53,13.65,16.22,35.96,30.3,57.02,33.47ZM842.99,494.99c1.43-1.38-8.49-11.29-9.98-12.51-25.85-21.17-61.4-7.1-85.93,9.1-4.72,3.12-20.56,14.16-18.95,20.71,2.4,9.82,15.66-7.02,18.39-9.27,10.37-8.56,30.8-18.99,44.08-20.92,19.5-2.84,35.06,5.59,52.39,12.9ZM826,515.99c-1.41-8.95-13.75-14.58-21.75-15.73-15.92-2.3-40.13,7.51-48.08,22.06,2.32,3.52,3.17,6.55,8.11,5.5,3-.64,14.44-12.4,20.05-15,9.82-4.56,22.52-4.9,32.08.32,1.1.6,1.38,2.28,1.81,2.56.54.35,6.46.05,7.79.3ZM783,537.99c8.66.85,16.98-1.82,25.01-4.48,2.04-1.93.82-3.67-1.08-4.96-6.15-4.17-24.19-.18-23.93,9.43Z"/>
  <path class="cls-1" d="M109.65,478.35c-3.85-4.17-10.14-7.98-13.48-13.02s-9.2-18.95-9.1-24.67c.12-6.65,5.02-32.77,7.14-38.95,2.54-7.41,11.56-11.46,14.66-16.34.74-1.17,10.15-24.21,10.46-25.56,1.38-6.14-2.17-17.76-1.34-25.32,1.66-15.08,12.43-18.57,21.55-27.46,4.35-4.24,5.24-8.94,8.93-13.06,5.58-6.23,14.88-9.38,17.09-18.91,2.44-10.51-1.45-12.57,6.9-23.1,14.34-18.06,33.58-24.09,48.54-37.46,8.21-7.33,25.7-27.57,31.02-36.98,6.22-11.01,8.05-22.51,12.78-33.22,1.98-4.49,6.37-9.05,8.58-13.42,5.16-10.19,2.73-20.09,12.59-28.41,2.57-2.17,6.08-3.12,8.43-5.57,4.04-4.21,4.71-9.62,10.59-14.41,11.32-9.24,18.21-4.69,30.27-6.73,4.9-.83,10.41-5.26,15.49-6.51,25.92-6.4,50.11,12.34,60.77,34.73,6.33,13.3,2.96,23.46,7.7,36.3,3.26,8.84,12.63,15.62,15.83,24.17,2.93,7.85,1.39,15.93,3.67,24.33,2.4,8.83,8.63,16.4,11.23,24.77,2.03,6.55,1.22,11.8,2.17,17.83,3.73,23.56,23.19,40.93,21.92,67.15-.28,5.84-3.18,12.18-3.12,17.96.26,24.76,18.22,35.42,21,57.08,2.01,15.69-10.41,28.34-11.47,41.37-.5,6.22,3.72,13.76,4.47,19.64,2.37,18.57-8.83,25.27-10.64,41.19-.94,8.33.65,17.4-.52,25.48-2.71,18.76-21.55,44.77-37.84,54.16-8.99,5.18-22.11,7.23-29.83,13.17-7.13,5.48-12.27,17.56-18.59,22.41-3.08,2.37-7.22,3.41-10.43,5.57-8.87,5.97-12.01,14.73-23.36,18.64-7.27,2.51-13.01,1.13-20.09,1.91-6.5.72-12.42,4.13-19.13,3.94-8.54-.24-14.56-5.04-22.27-6.79-20.92-4.75-33.43,16.3-57.9,5.9-10.86-4.61-11.03-4.14-22.38-6.62-8.66-1.88-20.62-11.97-26.45-18.55s-10.5-16.61-17.01-21.99c-9.66-7.97-22.29-4.32-31.99-17.01-5.17-6.76-3.64-12-6.27-18.73-3.1-7.95-10.95-13.5-13.92-23.08-2.25-7.27-1.17-10.12-1.24-16.67-.11-9.38,1.32-11.92-5.4-19.19ZM354.85,103.18c-11.46.92-23.35-1.61-34.53,3.65-14.57,6.85-35.6,49.23-38.09,64.92-.46,2.92-.95,7.45,3.03,5.21,19.57-10.99,23.46-52.01,54.25-53.93,11.04-.69,11.76,5.44,17.07,5.97,2.78.28,12.34-2.59,11.98-6.05-.55-5.33-3.26-12.02-7.63-15.37-2.18-1.67-5.59-1.6-6.08-4.39ZM384.52,120.01c-6.43,1.37-.99,14.52-.6,17.58.56,4.42-.28,9.06.34,13.66,1.57,11.64,11.09,25.59,15.22,36.78,6.38,17.29,4.54,36.25,9.01,53.99,5.05,20.07,21.66,33.02,25.38,53.62,1.9,10.49-2.04,24.57,8.61,30.37,2.62-.55,1.32-15.35,1.47-18.54,1.44-28.97-1.81-26.42-12.13-50.79-5.93-14-13.57-31.31-15.72-46.28-1.64-11.37.33-25.65-5.26-35.74-3.27-5.91-11.93-13.33-14.08-19.92s-1-14.07-4-22c-.8-2.12-6.19-13.17-8.24-12.73ZM374.58,533.58c18.01-22.44,31.37-35.02,40.71-63.79,18.76-57.79,10.65-103.57-5.57-160-4.04-14.06-10.51-26.89-14.04-40.96-8.38-33.38-4.77-94.69-41.97-110.03-33.3-13.73-58.22,29.88-77.69,48.71-24.19,23.4-56.39,41.45-77.43,68.57-9.64,12.43-16.98,34.2-29.05,41.95-6.08,3.9-10.16,4.22-15.51,10.49-15.83,18.57-6.24,39.1-17.81,59.19-3.49,6.05-9.21,10.93-12.39,17.61-4.96,10.42-8,24.59-5.58,35.95,2.94,13.82,22.62,20.01,24.77,39.23.86,7.63-1.48,13.7-1.63,20.16s9.54,24.24,13.8,29.68c9.03,11.54,20.77,11.73,30.25,21.72,7.65,8.06,12.24,18.86,21.07,25.95,19.19,15.42,36.59,15.37,59.69,10.68,7.09-1.44,16.6-5.48,23.37-5.72,12.82-.44,19.16,6.71,34.62,1.7,20.01-6.48,37.13-34.56,50.41-51.09ZM448.64,349.41c-2.79-1.99-4.37-.46-4.5,3.03-.22,6.07,4.32,15.82,4.89,23.02.37,4.71.21,11.24-.05,16.03-.47,8.9-5.42,27.34-3.52,34.54.38,1.44,5.05,8.81,6.52,6.96-.92-12.46,3.02-21.69,7.83-32.67,3.67-8.37,7.34-10.06,6.17-20.83-.74-6.82-11.87-26.16-17.36-30.08ZM427.65,523.65c16.91-15.99,31.07-44.93,18.9-67.4l-3.58,1.46c-4.99,14.6-7.78,31.33-14.58,45.18-7.38,15.03-27.92,31.11-32.37,45.63-.2.66-.21,1.69.48,1.47,7.06-4.42,12.32-10.99,18.49-16.51,3.81-3.41,9.03-6.4,12.66-9.84Z"/>
  <path class="cls-1" d="M418.35,663.65c-5.09-5.6-1.87-11.48,2.13-16.68,15.04-19.57,44.35-40.94,62.55-59.45,16.76-17.04,36.87-46.22,60.76-53.24,25.71-7.56,56.75,20.85,72.62,38.81,14.89,16.86,27.32,35.09,8.62,55.42-35.16,38.24-111.43,63.2-162.09,53.04-9.06-1.82-38.86-11.6-44.59-17.91ZM587.99,587c-3.89-13.62-17.57-22.76-31.51-23.98-31.45-2.76-47.07,29.53-65.46,48.51-8.13,8.39-19.45,12.96-26.03,22.46,33.01-4.82,55.57-57.08,86.51-59.98,14.29-1.34,24.62,6.64,36.48,12.99ZM566.65,591.37c-1.81-1.13-2.97-1.47-5.14-1.45-19.08.21-35.82,25.53-48.56,37.52l-.94,6.56c1.41.19,2.67-.08,4.02-.47,6.57-1.89,21.49-19.7,27.96-25.04,9.95-8.21,17.92-11.44,26.45.58l4.54,7.92c-.61-2.53,2.35-1.48,3.05-2.66,2.96-5.03-7.17-20.34-11.38-22.95ZM592.99,625c3.26-8.03,8.99-14.4,8-24-7.37,4.65-6.99,15.93-10,23.49l2,.51ZM563.99,648c5.54-5.7.02-29.42-8.34-27.84-1.08.2-12.87,13.6-15.12,15.87-1.5,1.52-3.88,2.4-5.02,3.98-1.87,2.6-4.8,15.09-.04,15.02,6.05-1.26,15.68-18.48,20.44-18.58s5.9,13.18,8.08,11.54ZM485.83,647.13c-7.84,2.21-15.78,4.74-23.78,6.42-4.28.9-11.05.15-14.05,3.44,17.91,3.17,35.76,6.63,53.99,7.01.65-2.34-.6-1.69-1.27-2.28-5.16-4.56-10.57-9.43-14.89-14.58Z"/>
  <path class="cls-1" d="M499.31,150.31c14.23-12.05,31.71,9.59,18.72,21.21-15.62,13.98-31.87-10.07-18.72-21.21Z"/>
  <path class="cls-1" d="M693.74,634.23c19.24-3.86,22.46,24.23,4.69,26.73-17.05,2.4-18.95-23.87-4.69-26.73Z"/>
  <path class="cls-1" d="M359.65,184.35c16.94,16.31,14.86,53.24,18.48,76.02,5.23,32.92,20.62,62.33,28.58,94.42,9.73,39.22,4.59,90.49-15.54,125.88-12.57,22.11-50.55,61.45-71.84,75.16-13.51,8.7-28.89,4.44-43.71,7.29-5.37,1.03-10.77,4.13-16.23,4.77-25.62,3-35.57-8.49-51.92-24.87-5.22-5.23-6.95-13.74-11.97-19.03-5.58-5.87-13.72-8.63-20.44-12.56-14.1-8.25-13.83-34.42-15.22-48.78-.49-1.56-4.22-2.66-5.87-4.13-11.08-9.88-.8-13.67-.95-22.97-.11-7.1-5.11-15.1-5.92-22.16-1.48-12.95,4.43-14.99,8.38-25.41,2.03-5.36,2.61-11.15,4.47-16.53,6.12-17.69,19.09-26.66,28.45-41.55,5.41-8.6,7.71-17.75,12.42-26.58,15.02-28.23,50.73-53.2,74.19-74.81,11.83-10.91,46.16-49.7,59.72-52.27,8.62-1.64,18.71,2.14,24.91,8.12ZM378.99,362c-1.06-30.77-27.42-47.71-24.97-79.48,1.35-17.48,11.98-39.45-5.52-52.51-24.54-18.32-53.36,13.84-66.72,32.28-8.99,12.4-15.25,26.06-24.81,38.19-11.54,14.64-28.06,26.35-38.95,40.05-5.31,6.69-13.87,21.87-18.19,29.81-18.38,33.7-19.58,81,3.34,113,26.64,37.19,64.21,55.64,109.35,38.68,10.43-3.92,20.47-9.92,27.48-18.52-7.35-.3-13.99,5.69-21.01,7.99-26.55,8.68-61.89,3.76-84.89-12.07-3.46-2.38-9.69-5.91-7.04-10.39,14.92,4.03,28.54,11.64,44.47,12.96,10.43.87,35.74-.79,44.17-6.75.85-.6,1.88.18,1.31-2.22-7.76-.12-21.65.43-20.99-10,36.01.06,67.58-22.2,75.55-57.95,10.58-47.4-12.75-60.54-30.73-96.38-11.78-23.49-7.18-43.16,4.18-65.66,1.94-.21.61,1.94.5,2.99-1.43,13.55-5.03,20.63-2.04,35.04,3.54,17.07,13.64,25.01,22.34,38.66,4.64,7.27,7.78,15.96,13.18,22.31Z"/>
  <path class="cls-1" d="M318.66,324.34c16.41,16.97,40.08,54.29,40.38,78.21.65,52.63-56.17,88.45-98.06,51.98-38.57-33.58-7.97-91.97,22.01-120.04,2.75-2.58,19.64-16.76,21.78-17.28,4.5-1.11,10.95,4.09,13.9,7.13ZM297.73,350.23c-16.31,2.97-29.77,34.26-30.78,49.22-4.3,63.55,75.42,54.67,76.07,4.99.19-14.46-12.55-39.15-23.56-48.42-6.97-5.87-12.39-7.5-21.74-5.8Z"/>
  <path class="cls-1" d="M256.57,342.58c-10.25,15.01-20.03,27.46-26.32,45.18-14.31,40.35,1.26,73.53,38.37,92.12,2.84,1.42,10.38,1.92,7.9,6.15s-19.89,1.56-24.52.47c-37.73-8.92-54.33-33.45-49.99-71.98,1.71-15.14,16.41-46.92,26.01-58.99,3.22-4.05,8.16-7.52,11.49-11.51,15.8-18.93,30.2-39.28,44.99-59.01.94,2.79-.55,6.84-1.46,9.54-6.32,18.56-15.65,32.2-26.47,48.04Z"/>
  <path class="cls-1" d="M336,241.01c.49,2.35-.32,1.6-1.29,2.24-5.42,3.53-12.18,5.95-18.03,9.94-6.77,4.62-12.58,10.42-18.68,15.81,5.16-15.08,20.86-31.19,37.99-27.99Z"/>
  <path class="cls-1" d="M320.01,305c.54-2.7-2.27-4.04-2.67-5.97-.43-2.09,1.34-7.59,1.67-10.02l2.86,9.6c-.46,2.07.81,5.58-1.86,6.4Z"/>
  <path class="cls-1" d="M307.19,371.16c-.21.17.89,2.15-2.19,4.46-1.85,1.39-2.92.25-2.99.38-.27.47.76,2.04.45,3.1-1.07,3.68-4.46,8.23-5.5,12.35-2.66,10.46-1.81,26.61,9.04,32.04-14.77,6.49-23.94-7.38-24.03-21.04-.08-12.83,12.53-46.91,30.01-33.95-.86,2.18-4.01,2.02-4.79,2.66Z"/>
  <path class="cls-1" d="M331.98,402c.41,1.84,1.2,3.23.86,5.25-.2,1.16-2.51,5.99-3.83,6.74.31-3.41.52-7.11,1.01-10.49.2-1.36.39-3.03,1.96-1.51Z"/>
</svg>