<?xml version="1.0" encoding="UTF-8"?>
<svg id="Camada_1" data-name="Camada 1" xmlns="http://www.w3.org/2000/svg" viewBox="0 0 1024 768">
  <defs>
    <style>
      .cls-1 {
        fill: #413253;
      }
    </style>
  </defs>
  <path class="cls-1" d="M574.67,69.33c4.13,3.71,11.23,13,14.75,17.75,13.71,18.53,22.91,39.81,34.07,59.88,14.33-10.37,28.57-22.26,44-30.98,84.41-47.68,135.51,13.96,144.28,94.82.86,7.92-.49,48.87,3.19,51.78,13.12-2.39,25.66-7.61,38.64-10.5,3.44-.76,23.72-4.3,25.4-2.09-1.69,2.99.43,5.5,2,7.98-12.8,4.36-22.97,13.9-34.83,20.18l.84,1.82c-2.9.03-6.99,1.56-7,5.01l2.4-1.02c1.17,1.91,1.06,2.12,3.31,2.76,11.27,3.18,26.53,2.83,38.1,5.95,8.35,2.25,24.22,8.16,31.84,12.16,1.24.65,9.57,6.64,9.85,7.18.24.48.26,5.53,0,5.95-3.31,5.45-12.46,1.95-16.97,2.01-3.58.05-20.84,1.89-22.05,4.01-.87,1.52-.5,3.68-.55,5.4.39,1.39,13.29,5.74,15.38,6.84,10.6,5.55,45.5,41.4,52.71,52.26,2.85,4.29,7.53,9.21,1.47,12.37l-2.48-1.83c-.96,5.26-8.87.35-12.47-.5-3.93-.93-8.52-1.26-12.56-2.52l1.01-1.98c-3.64.06-7.73-.27-11.27-1.09-.85-.2-.78-1.57-1.23-1.68-4.04-.96-29.18-5.7-30.51-4.23-1.83,2.03,1.68,2.29,2.99.98,1.27,7.07,8.23,11.49,12.44,17.08,8.97,11.92,13.43,21.88,20.02,34.97,3.19,6.33,11.48,15.99,9.47,23.36-.5,1.82-2.36.65-2.72.9-1.57,1.1-.81,4.99-5.75.69-4.52-3.93-12.3-8.41-17.57-11.34-5.68-3.16-11.23-7.61-17.8-7.78l-.1-2.88-5.99.02c3.36,3.41-.25,4.74.11,7.26.2,1.39,2.48,3.83,3.19,5.93,4.19,12.36,8.8,28.72,9.23,40.92.08,2.4,2.58,8.7,2.43,9.31-.6,2.44-6.52,1.56-8.44.59-3.97-2-13.44-16.6-17.59-21.21-.51-.57-2.83-3.79-3.93-2.81-.39.35,1.68,1.44.29,1.95-2.81,1.03-2.8,1.29-3.93,4.88-2.98,9.4-9,41.45-12.91,47.19-1.18,1.73-4.77,1.09-2.43,4.97l-4.06-.57c-.94,1.2-.99,2.91-1.93,4.09-5.54,7-10.96,10.14-15.66,17.82-.64,1.04-.43,2.34-1.34,3.18l5,.5-1.02,1.98h1.99s3-3.98,3-3.98l.6,1.99c10.37-1.02,20.72,1.39,30.92,2.99,2.44.38,5.05-.26,7.76.24,3.47.64,14.11,5.43,8.03,8.98l.72,1.78c-1.05-.02-2.16-.05-3.18.32-18.18,6.68-42.02,11.48-59.5,15.66-7.36,1.76-11.5-2.45-17.66,5.25-2.55,3.19-2.67,3.2-5.1,5.8-1.08,1.16-6.38,6.78-6.55,7.49-.37,1.63,2.85,1.67,3.85,1.8,2.67.36,9.46-.7,9.15,2.67l1.54-2.06c7.65,2.21,14.83,4.62,22.12,7.9,2.14.97,15.71,7.6,16.19,8.38.33.52-.68,1.93-.32,2.82.87,2.13,4,2.08,4.45,3.97-13.58.35-26.99-3.29-40.5-3.98-15.58-.79-36.38-.34-51.88,1.1-3.19.3-15.64,2.68-18,4.03s-3.24,5.33-3.61,7.86c7.02-.6,12.32,3.36,19,4.02l-1.99,1.98c3.42-1.12,6.78,3.61,7.75,3.95,1.57.55,3.75.03,5.81,1,7.96,3.75,16.74,8.12,16.43,18.05-21.32-.97-42.44-9.01-63.59-10.9-4.51-.4-9.51,1.18-14-1.01l-.91,1.91c-1.38-2.13-2.83-1.55-4.99-.98l.49-2.01-5.55,1.99-1.05-1.98-28.4,1.99,1.1,2.89,1.7-.66c13.11,12.35,35.78,13.36,44.18,31.26-.13,2.29-9.34,1.54-11.24,1.25-27.91-4.25-53.57-14.64-82.02-18.05-8.75-1.05-20.7-4.65-26.71,2.79,2.04,1.34,3.56,1.64,3.01,4.52l1.82-.83c1.78,5.65,10.64,11.02,12.7,15.89.86,2.03-.48,3.07-.53,4.94l1.98-1.02v2c-12.53,2.64-24.09-6.81-35-11.48-20.33-8.71-37.21-11.1-59.43-11.5-5.28-.09-10.39.38-15.57,1-.2,1.92,2.73,2.94,2.81,3.15.24.67-1.14,2.09-.75,2.72.32.52,8.11,6,9.6,7.48,3.24,3.22,12.64,12.58,13.28,16.22.37,2.09-.04,4.33.06,6.43-6.76,1.03-7.86-2.05-12.11-4.39-13.74-7.55-27.09-16.02-40.96-23.04-6.18-3.13-24.47-9.22-31.27-10.22-18.38-2.72-45.9,18.64-62.93,25.89-12.95,3.35-15.76-1.89-9.94-12.94,3.09-5.87,11.53-10.28,16.87-14.52,5.88-11.8-19.25-9.36-26.2-8.82-17.98,1.41-41.8,11.47-58.46,17.39-1.69.6-12.35,2.61-13.4,2.42-1.8-.33-3.92-4.29-3.47-6.06.17-.68,8.09-7.76,9.36-8.71,8.87-6.65,19.37-11.44,29.01-16.74l2.48,1.75,1.12-4.88,4.9-.12v-2.99c-12.61-2.51-21.26-5.32-34.57-5-29.82.7-59.84,11.03-89.43,13.99-.39-.34,2.61-8.9,3.29-9.71s16.17-9.48,18.71-10.88c1.57-.86,3.18-.64,4.53-1.37,4.19-2.26,7.76-7.67,12.48-6.05l-.79-1.8,6.66-4.31c.11-5.76-1.18-11.76-7.88-10.89l1-1.98c-.95,0-1.8-.5-2.72-.64-17.49-2.68-39.79-1.69-57.77-2.38-2.52-.1-4.94-1.57-7.15-1.64-3.87-.14-22.4,3.01-22.34-1.85,2.82-2.48,4.92-6.09,7.76-8.46,13.2-11.02,26.99-8.43,42.27-12.5,1.62-.43,4.05-.9,3.95-3.04-.13-.52-8.14-5.69-8.97-5.91-11.69-3.03-23.32-6.3-35.25-9.89s-26.25-4.77-36.78-12.74c1.17-.96,1.81-4.42,2.21-4.76.38-.32,8.37-2.72,9.53-2.98,6.77-1.52,18.89-3.54,25.7-4.29,3.33-.37,7.15.36,10.55.04.37-1.53-1.37-.58-1.96-1.72s-.75-2.95-1.05-4.28l-2.98,1.02c-.29-1.32-.5-3.22-1.2-4.32-1.29-2.05-6.57-8.11-7.48-9.92-.71-1.41.51-7.79-4.33-5.76l-.11-3.96-2.9-.07c1.24-2.71-.47-4.18-.89-6.59-.85-4.82-.76-9.09-1.24-13.77-.3-2.91-3.46-10.34.09-9.65v-1.94c-2.89.25-1.95-3.43-3.01-5.48l2.04-1.54c-.66.08-1.81.15-2.02-.65-1.26-4.76,3.13-15.97-5.5-17.36-.46-.07-.39,1.5-.76,1.66-1.12.47-2.28.17-2.88.45-10.12,4.74-25.82,14.25-34.51,22.2-2.95,2.7-2.31,7.88-8.29,5.15-6.44-2.94-1.59-13.04.08-17.68,5.1-14.16,25.2-56.52,35.89-68.01,1.26-1.36,11.41-7.55,10-8.77l-7.91.89-1.07-1.88c.47,3.11-2.93,1.66-5.06,2.43-11.25,4.07-22.68,6.44-33.75,10.27-4.8,1.66-18.96,10.49-23.15,7.2-.51-3.83.86-5.72,1.58-8.61.28-1.11-.81-1.94.27-3.81,1.28-2.22,7.62-6.37,10.13-8.96,7.64-7.91,16.64-17.92,22.9-25.02,4.63-5.25,8.18-6,12.02-9.1,7.32-5.93,13.51-13.34,22.04-17.9l-2.49-2.5-.99,1.99c-7.88-7.99-22.96-5.99-33.66-5.43-3.17.17-18.79,3.86-19.45-1.02-.54-4.01,1.52-7.72,4.66-9.98,12.23-8.8,25.57-17,40.49-21.52,9.05-2.74,20.03-4.61,29.43-6.09l.52-2.96c1.3,5.2,4.09-4.38,7.49-2.01.83-1.34-5.49-8.72-7.03-9.46-8-3.81-15.19-4.34-23.18-6.82-4.21-1.31-7.89-2.65-2.79-6.22l-1.99-1.98c.78-.87,1.5-1.95,2.7-2.31,3.52-1.05,21.02-.5,25.83-.25,17.6.92,34.5,6.2,51.45,11.04,2.9-19.43,1.49-39.01,5.08-58.43,10.59-57.36,51.86-129.65,120.92-103.05,21.37,8.23,41.29,23.62,58.03,38.97,4.79,1.75,1.94-.88,2.18-1.3,5.13-2.4,5.52-9.54,7.88-14.39,18.72-38.49,37.46-70.4,77.14-91.51,31.34-16.67,69.43-5.27,95.44,18.05ZM547.59,75.41c-6.36-4.38-21.19-11.96-28.75-10.89-1.8.25-3.36,2.03-4.35,2.08-.73.04-6.66-2.56-7.99-2.54-15.81.17-43.07,22.85-53.53,34.42-9.62,10.64-20.35,28.2-26.85,41.15s-10.16,25.61-15.92,38.09c-.44,2.92,9.47,11.97,11.44,14.64,22.07,29.93,38.65,63.96,43.34,101.16.29,2.29-.03,13.24.18,13.9.37,1.13,1.73,1.56,2.84,1.61-2.07,2.34-3.9,1.96-2.99,5.98l2.94.48c-.48,1.88-2.05,6.41-1.96,7.95.02.38,3.69,1.94,2.12,6.46,1.1,1.17,4.49.2,4.72.35.6.39.55,2.41,3.12,3.32,12.6,4.48,36.37,4.08,49.33,1.21,7.17-1.59,15.96-6.91,23.69-7.85v-6.89s-2.95-.05-2.95-.05c-.42-1.62,3.6-.46,1.97-2.97-.09-.14-2.54-1.98-2.7-2.01-4.34-.84-12.1,4.46-17.02,5.75-12.24,3.21-20.86,3.41-32.85,1.35-4.71-.81-9.46-1.51-14.15-2.35-2.54-1.44-1.01-5.87-1.41-6.54-.31-.52-3.82-1.89-3.79-4.73.25-3.81,18.66,2.12,21.58,2.39,13.22,1.22,34.32-4.61,44.87-12.87,5.07-3.97,5.24-6.98,6.5-12.99-2.65-.9-1.73,1.41-2.16,1.72-.24.18-3.62-.26-6,.6-4.76,1.72-8.61,5.12-14.06,6.95-10.48,3.54-23.23,5.24-34.21,3.64-8.41-1.22-13.91-3.9-15.57-12.92,3.71-2.11,5.8.91,8.49,1.46,8.67,1.77,20.17,2.91,27.46.83,17.29-4.94,42.96-24.99,48.72-41.53,3.03-8.71,11.02-33.93,16.47-40.63.13-.16,1.84.85,2.4-.1,2.99-17.98,0-36.61-3.67-54.35-1.52-7.31-3.8-14.46-4.87-21.71-2.93,2.7-3.93-4.2-.49-2,.71.46,1.93,1.77,2.5,2.5,7.96,10.17,13.77,25.08,19.05,36.95,1.72,3.86,2.48,10.55,7.93,11.54,1.88-3.91,3.41-8.59,6.07-10.56-1.59-2.57-1.64-7.61-3-9.74-3.54-5.56-6.59-13.56-9.68-20.04-12.2-25.67-23.3-46.05-46.79-62.24ZM753.57,130.42c-33.31-24.99-83.82,3.56-110.1,27.55-2.41,2.2-5.55,9.03-10.44,9.09.86,2.71-6.17,7.49-8.69,10.28-40.63,45.14-71.75,115.65-47.82,175.64,20.57,51.57,83.54,74.9,131.61,49.16l2.88.85-1.02-1.99c1.75-.12,3.58.29,5.33-.04.43-.08,7.14-3.28,7.62-3.52,2.36-1.17,5.17-3.07,7.06-4.96l-1.94-.52c-1.88-2.25,6.55-4.48,5.96-6.96l1.48,1.99c1.44-3.86,5.81-2.91,6.26-3.18,1.52-.92,18.76-24.92,21.07-28.49,22.32-34.47,31.69-80.14,30.22-120.87-1.22-33.61-11.27-82.87-39.47-104.03ZM369.89,164.15c-.11-.15-1.52.63-2.4-.07-18.16-14.42-45.82-33.87-70.07-28.23-67.09,15.58-77.59,141.5-60.36,194.59s61.51,104.34,122.12,94.25c106.89-17.8,104.08-134.39,54.97-205.33-9.42-13.61-18-28.08-29.63-40.38-5.42-5.73-10.03-8.5-14.63-14.83ZM841.71,309.27c-5.72-1.25-16.21-2.18-22.15-2.29-4.95-.1-10.93-.45-14.11,4.02l.63,3.91c4.07.7,8.17.06,11.44,3.09,2.03-4.92,3.26-.5,4.23-.08,2.37,1.04,6.86,1.28,8.24,4.06-6.26,1.23-16.13,7.76-21.78,8.81-1.36.25-2.06-.51-3.21-.8-.31,2.18.55,3.99,2.69,4.8l28.8,4.68c1.04,1.52,21.43,8.41,18.49,11.52l-2.99-.99.48,3.01-4.49-1.03,1.01-1.98c-4.32,1.69-8.23.26-12.1.38-8.66.26-24.12,1.99-32.15,4.87-2.01.72-3.41,1.55-4.75,3.25l24,7.51-1.01,1.98,4.57.95,12.43,11.54-6,1.51,1.01-1.98-10.49-2.1-39.51,2.08-.02,4.01-4.98-3c-.41,2.91-.71,4.59-4.01,4.01l1.99,1.49-4.99,2.52c.79,2.25,8.26,1.46,8.9,2.09.35.35,1.61,7.7,3.02,9.48s6.66,2.64,8.96,4.04c6.85,4.16,14.26,10.71,17.11,18.38-5.31-2.28-10.61.87-15.51.5-18.75-1.4-32.26-6.79-52.54-3.05-5.8,1.07-17.7,2.7-12.44,10.55l1.49-2.99.66,3.09c13.15,6.4,25.86,9.41,34.71,22.05,1.16,1.66,7.39,11.9,6.64,12.86-5.21-2.47-7.28-5.54-13.57-6.93-2.98-.66,1.15,2.76-1.93,1.94-14.59-3.86-29.27-7.64-43.73-12.31-3.67-1.19-11.4-5.09-13.26-5.55-.79-.19-4.77,1.27-6.51-.16l1.01-1.98c-3.01.18-6.14-1.23-8.72-2.7-1.56-.89-1.68-2.73-2.92-3.14-4.59-1.51-10.76.21-15.35-1.17v4.99s1.78-.48,1.78-.48l.7-1.51,4.01,3.02.98-2.04,23.49,12.11-.98,2.88c5.27,2.03,10.65,5.06,15.36,8.15,6.07,3.99,6.67,3.31,13.83,5.97,13.71,5.1,30.29,8.48,45.31,12.34,5.98,1.54,12.49,2.47,18.51,4.09l.99-2.54-2.99.99c1.47-4.34-2.03-5.98,2.98-8.98-2.79.47-.88-1.83-1.95-2.51-.41-.25-1.73.53-1.9.33-2.46-2.9-8.01-17.77-12.73-23.75-2.51-3.19-6.53-3.14-4.52-7.96l-2.87-1.64,4.98-2.49-4.01-.51,1.86-.61-.85-1.88,55.57,6.7c5.14-5.53.54-16.04-2.99-21.32s-13.9-11.33-17.35-16.6c-.2-.3.77-1.38.59-1.61-.83-1.1-4.84-2.18-4.82-6.17,6.54-.74,12.94-.53,19.55.03,9.51.81,26.6,3.56,35.43,6.47,5.14,1.69,13.81,8.91,17.02,4.49l-3-.6.52-2.42c-3.93.04-2.82-3.18-5.1-5.92-2.4-2.89-7.86-6.66-10.94-10.06-5.68-6.26-10.88-13.14-16.46-19.52,2.44-3.36,7.39.71,8.45-3.5,3.68,3.01,9.84,2.56,14.1,1.1l.99,1.93c4.33-2.02,30.83,4.61,32.44,2.97,1.36-4.21-5.32-4.83-6.76-6.3-8.94-9.15-33.57-27.47-47.01-30.44-1.73-.38-3.5-.27-5.24-.26l.6-3.09c6.25-.74,11.52-10.2,17.38-11.5,1.2-.27,1.95.34,3.01.59l-1.98-2.99,3.99-1.52-10.42-3.55c-.06,2.12-4.37,2.39-5.88,2.05-.76-.17-.76-1.68-.98-1.73ZM209.9,314.09c-19.54-4.57-36.15,3.57-53.92,9.42-.97.32-10.4,1.12-7.98,3.48,10.99,3.14,20.01,9.51,31.21,11.11,7.54,4.24,21.4,8.79,30.37,9.83,3.74.43,7.66-.12,11.42.08-.01-2.92-1.54-10.04-4.04-11.46-3.7-2.1-15.34-4.29-20.47-6.08-3.57-1.24-7-4.05-11.5-3.46-.48-2.32.28-1.6,1.28-2.25,6.54-4.17,17.18-3.83,24.72-4.76l-1.1-5.9ZM169.01,362c1.22-3.4-4.41-1.3-4.02.99l-1.48-2-1.49,2-.47-1.98c-2.73,2.31-6.66.63-8.17,3.94l-2.2-.72c-.03,3.32-2.86-.09-3.7,1.76,1.47,3.93-1.22.66-2.52,1.47-.75.46-1,2.35-1.93,2.98-.7.47-6.46-.3-7.88,3.2s1.32,3.87,4.46,4.22c9.95,1.12,22.68-1.11,33.8.23,2.68.32,14.34,2.45,15.57,3.44,5.3,4.29-2.56,6.55-5.3,8.63-14.75,11.18-22.38,22-32.27,36.73-1.57,2.35-10.84,12.22-9.39,14.1,17.84-3.61,33.04-14.2,50.77-17.76,2.86-.58,3.64-1.17,3.88-1.22,1.53-.33,14.44-1.29,15.9-1.09,1.67.22,1.73,2.97,4.44,2.09l-3.01,3.51c1.55.88,2.51-.05,2,2.48-5.69-2.79-7.76,4.57-10,8.54l2,.96c-.83,1.99-3.92,2-4.7,2.8-.9.92-1.21,4.37-4.29,5.21l1.51.66.49,1.82h-3.02c1.84,2.65-5.81,17.19-4.98,18,12.32-2.33,24.8-4.65,37.02-7.47,2.06-.47,3.83-1.8,5.76-2.24,5.29-1.19,32.85-8.09,36.26-5.84,1.11.82,1.01,1.61.81,2.84-.24,1.43-4.82,9.06-5.89,12.18-4.27,12.38-6.22,25.53-6.96,38.53,3.9.5,4.73-2.52,6.62-3.83,22.6-15.68,42.69-29.43,70.82-32.31,2.52-.26,5.08-.34,7.55-.86-1.11,5.06-4.75,8.71-6.5,13.99-1.01,3.06-2.96,12.46-3.08,15.69-.12,3.47.66,6.05,1.59,9.31l3.98-3,1,2.99,3.01-1-2-2.98,3.99,1.98c.04-1.09-.4-2.31.63-3.12,4.17-3.26,11.73-6.47,16.51-9.24,10.19-5.9,17.43-10.71,27.97-14.19,8.23-2.72,12.52-7.83,20.26-10.24,6.16,3.17-1.57,9.8-3.56,14.1-4.22,9.11-6.62,18.53-8.69,28.32l3.37.35.53,4.01,2.5-4.99,1.06,2.02c1.93-1.21,4.38-.19,6.13-.8,2.99-1.04,4.45-4.23,6.11-5.18,2.05-1.17,11.97-4.24,12.98-5.32.49-.53-.24-1.98.88-2.74,3.02-2.06,22.64-6.23,27.31-7.69,8.98-2.8,17.61-6.76,26.8-9.01.95-.23,2.23.51,2.77.38,1.31-.32,1.01-2.58,2.04-2.68,7.46-.78,25.66,1.98,32.95,3.53,16.39,3.48,40.15,9.95,52.95,20.57.81.67,2.18-.06,2.33.14.45.58,2.32,4.99,3.18,5.78l2.43-1.96c2.12,1.74,14.32,10.21,15.55,8.96-.28-12.44-5.65-21.03-11.2-31.29-.76-1.4-.52-3.32-1.35-4.65-1.04-1.65-4.24-1.94-3.44-6.05l3.48,1.01.02-2.03c2.05-.49,2.1,2.58,2.6,2.88.32.19,3.27-1.22,7.15,1.11,6.06,3.64,14.61,5.66,21.63,9.63,7.12,4.02,13.88,10.62,21.37,14,2,.9,5.69-1.48,4.75,3.39l2.99-2c-1.08,5.95,4.85,5.69,8.4,8.12,1.47,1.01,1.05,2.95,2.6,2.88l1.02-11.95-3-.05,1.93-1.42c-3.73-13.05-11.84-23.53-19.92-34.08.77-.94,1.14-1.41,2.45-1.52,6.53-.56,16.6,3.65,22.41,6.64,13,6.71,29.02,16.53,38.75,25.45l14.36,7.93-11.57-12.38c-1.93-5.92-8.12-8.33-12.49-12.07-3.74-3.2-3.79-4.77-5.85-8.11-7.78-12.58-66.27-28.13-81.71-28.28-11.4-.11-9.73,3.57-1.42,8.39,7.86,4.56,18.2,7.14,24.98,14.02,2.62,2.67,4.7,8.37,7.98,11.08l-2.55,3.25c-12.72-5.84-25.63-12.01-38.67-17.09-9.87-3.84-19.77-7.97-30.3-9.7-10.93-1.8-15.77-1.65-25.64,1.12-1.48.42-2.76,1.05-3.73,2.27l7,1.5-1.01,1.98,4,.02c.76,1.27-4,.86-1,2.49,9.88,5.38,18.39,5.25,26.42,14.59,2.78,3.24,9.19,12.18.87,9.14-49.49-18.09-83.18-31.32-133.6-5.04-3.57,1.86-17.85,12.36-20.69,10.35-2.43-2.21,1.33-4.7,2.2-6.85,6.17-15.19,10.68-15.44,22.72-24.27,4.23-3.1,7.85-6.83,12.08-9.92-15.26-3.37-29.95,3.36-44.33,7.67-7.07,2.12-13.11,3.09-19.32,5.6-4.34,1.75-4.77,2.15-7.91,4.14-6.23,3.95-18.06,7.69-25.32,11.7-4.23,2.34-5.17,6.89-11.12,4.38-.04-2.06,1.46-3.56,2.23-5.32.43-1-.21-2.47-.11-2.55.46-.36,2.3-.15,3.41-1.06,1.67-1.37,2.35-4.18,3.81-5.72,6.06-6.41,17.7-4.59,25.56-7.94,4.8-2.05,9.54-7.71,15.42-8.62,2.85-4.42,10.2-3.66,11.17-9.79-2.5.68-2.78,3.59-5.57,4.49s-4.87-.87-7.43,3.52c-.81-2.34-1.19-1.42-3.35-1.85l-1.65,3.85.51-2.99c-4.73-2.01-5.15.86-5.67.98-1.67.39-16.06,2.11-16.85,1.82-.56-.21-.43-1.85-1.04-1.86-8.59-.25-32.2,3.6-41.23,5.68-17.74,4.09-32.84,11.87-49.2,19.38,2.84-6.65,3.66-14.27,8.55-19.94,2.4-2.79,15.22-9.6,12.32-12.98l-6.46-3.02.57-3.06c-3.1,2.23-4.88-.65-7.55-.96-15.41-1.75-32,.95-46.89,5.01-3.3.9-12.75,5.37-14.48,5.51-1.93.16-2.89-3.17-6.07.43-.43-1.87.17-2.2,1.07-3.41,5.25-7.02,14.74-13.81,19.77-20.24,2.54-3.24,1.67-7.01,6.14-8.86l-1.99-1.49c6.67.95,7.17-2.52,4.85-7.87-10.25-.09-20.29,1.1-30.36,1.85-3.61.27-7.41-.34-10.97.03-9.45.96-20.35,5.17-30.48,6.48-1.58.21-1.73.85-3.04-1.01,3.51-1.05,3.95-5.88,6.03-7.96.36-.36,7.57-5.44,8.25-5.84,11.86-6.86,28.02-8.42,40.71-13.72v-2.97c-12.5-1.33-25.23-.87-36.99-6.03-.27-1.38.34-2.39,1.68-2.8,4.08-1.25,11.23-.51,15.72-1.29,2.78-.49,13.66-3.91,15.12-5.89l-.97-2.06-54.54-1.95ZM528,374.01l-10.79,6.9c-3.98,1.69-9.84,2.12-11.71,6.08l-1.49-1.99c0,1.26-.09,2.5-.99,3.51-1.33,1.48-11.52,6.5-13.95,8.05-1.42.9-2.31,2.65-3.56,3.46s-6.83,2.34-7.34,3.17c-2.16,3.52,1.45.9-3.66,4.78-1.73,1.32-15.7,13.72-16.5,13.03l-1-1.99c.37,3.84-3.49,5.08-5.01,7.99l2.88-.82.15,1.78,1.96.02c-.15-2.06,1.68-2.72,3.48-3.05l1.11,2.14c18.73-5.16,32.7-20.45,47.23-32.25l-.81-1.81c3,.09,5.89-2.1,4-5.01,5.02.73,5.95-2.26,8.77-4.96.67-.64,2.32-.76,3.16-1.6,2.06-2.05,2.98-4.85,4.07-7.44ZM563,403.01c-4.46,1.6-11.93-.36-15.79.7-4.73,1.31-12.41,6.95-16.71,8.04-1.39.35-6.93-.2-7.45.33l-.07,2.91-1.11-1.86c-3.18-1.15-5.46,3.22-6.09,3.55-.82.42-2.9-.15-5.19,1.44-4.69,3.27-1.96.97-4.43,2-.12.05-.29,1.57-1.38,2.22-2.8,1.68-5.88,1.82-6.79,5.65h9.01s-1.02-2.47-1.02-2.47l1.99-.49,3.03,5.97c-.84-2.01-1.95-1.37.5-1.97,13.95-3.44,23.34-8.9,35.29-15.69,3.68-2.09,11.66-5.19,14.49-7.28.58-.43,1.89-2.91,1.71-3.04ZM855,447.01c1.58-9.82-2.45-22.76-6.81-31.69-.59-1.21-4.68-8.75-6.17-7.32-2.71,4.76-.11,6.55.03,10.55.06,1.64-.75,3.23-.67,4.79.3,5.4,2.64,11.09.85,16.25l2.78,1.92-2,1.49,4.22,2.66,7.77,1.35ZM189,440.01c-1.44-.28-1.84-.05-2.95.68-3.89,2.55-11.47,11.11-13.47,15.38-.9,1.92-.42,4.63-2.31,6.45l2.74,3.47-2.99.99c5.07,2.46,6.05-.14,9.99-1.01-2.34-5.16.66-4.51,2.58-7.89,2.68-4.73,3.59-13.05,6.43-18.07ZM825.92,460.88l-4.9-1.88c-.31,3.32-2.77,5.59-4.24,8.3-.74,1.37-.38,3.07-1.08,4.41-.78,1.49-4.84,4.69-5.53,8.03-.49,2.38,2.69,18.5,4.34,19.26,2.76-4.91,5.75-9.6,8.35-14.64,1.86-3.61,4.98-9.56,5.91-11.84.18-.44-.5-1.68.3-2.89,1.4-2.11,5.29-2.71,3.87-7.54-.79-1.15-6.69.11-5.94-3.07l-1.07,1.87ZM245.38,486.36c.67-.87,2.21-.57,2.64-2.84.28-1.48.29-5.2-.96-6.1-10.62-1.01-14.25,6.2-7.94,14.47,3.2-.84,4.47-3.18,6.26-5.53ZM220,482.01l-11.01,2.47-.99,1.51,3.01.51c-.1.94-2.77-.41-2.03,2.98,4.78,3.89,6.55,8.92,12.54,11.58,1.6.71,4.05-.39,4.47,1.92l-1.99.47c.88,3,7.34,11.21,10.29,10.43l7.63-5.03c-1.54-3.31.43-3.92,1.08-6.85-3.13.62-5.54-3.32-7.74-3.8-3.02-.65-4.64,1.58-8.77-2.21-1.97-1.8-8.03-11.25-6.49-14ZM188.45,492.56c-1.64-1.27-1.66-3.53-5.45-2.55l2,2.5c-4.2.9-.71,6.69,2.08,8.11l-1.07,3.38,3.99.51-2,.98c12.04,15.45,25.1,30.72,37,46.06.68.88,1.91,1.16,2.86,1.61l-.83,1.81,3.95.61c4.89-4.69,1.15-10.6,2.02-16.56-4.52-.96.92,4.27-1.98,4.99-.57-2.04-.31-5.29-3-5.01l1.99-1.48c-1.61-3.87-4.78-2.27-4.95-2.53-.31-.49-.03-3.11-.8-4.72s-3.86-4.89-5.27-6.73c-6.47-8.44-13.96-13.05-20.7-19.81-2.76-2.76-5.75-8-9.83-11.16ZM753.99,495l-2.98-2c.53,5-3.12,4.58-3.72,5.28-1.12,1.32-3.45,8.86-2.89,10.23.64,1.55,7.08,5.86,9.13,3.6l1.46,1.88c.53-4.86,4.38-12.7,2.01-17.27-.36-.69-2.91-.96-2.01-3.72l-1,2ZM535,505.02c-9.06-5.26-19.41-2.11-28.99-4.01-.78,2.25.85,1.81,1.13,2.17.49.63,7.8,7.56,8.27,7.89,1.62,1.12,3.91.63,4.45,1.14s-.76,2.96,2.1,3.31c4.82.59,10.28-7.06,13.04-10.5ZM832.62,511.66c1.03-1.69,1.27-5.39,3.24-7.32l-2.36-3.32c-6.45,10.63-16.49,19.54-26.15,27.33-1.95,1.57-2.93,5.55-7.34,4.64-1.92-2.03,5.5-19.34,5.99-22.99l-9.99-2.01c.6,3.42-5.99,10.77-6.01,12.47-.02,1.43,1.47,2.69,1.57,4.01.19,2.54-2.3,10.38-2.56,14.03-.28,3.87-.78,19.61,2.1,21.44l2.83-.88,1.04,1.92,2.03-5.99,1.48,1.99,1.51-4.01,2.98,1.01-1.99-2.99,2.76-.53-.6-1.32c3.68-.47,3.49-3.94,4.78-5.52.76-.93,2.28-.48,2.71-.94,7.57-8.01,12.6-17.63,18.72-26.35.29-.41,1.1-.47,1.63-.37l-1.98-1.97c1.01.02,3.21-1.68,3.62-2.35ZM317,526.99c-1.79-5.75,2.48-21.86-5.52-23.97-14.1-3.71-32.93,14.77-43.13,23.31-1.68,1.41-3.12,2.32-4.06,3.09-3.6,2.94-8.45,5.42-8.3,10.88l6.02,4.69-1.01-2.98c1.87-.94,5.33-.5,6.75-1.28,6.74-3.69,16.6-14.89,24.77-19.72,2.1-1.24,9.1-4.92,11.11-5.04,1.64-.1,1.09,1.41,2.17,1.93.95.47,2.41.06,3.78,1.02,1.08.75,5.75,9.75,7.43,8.07ZM781.76,504.24l-11.76-2.25c.18,9.34-2.64,18.12-6,26.63,3.37,4.57-.72,8.75,2.5,12.36,1.99-1.47,1.93-4,3.12-5.9,4.15-6.66,5.86-12.55,9.43-19.34.39-.74,1.19-.88,1.94-.76l-2.99-1.48c4.38-1.17,5.5-5.06,3.75-9.26ZM504.58,520.42c-3.45-3.33-7.54-6.2-11.13-9.37-2.69-2.37-4.24-6.33-8.42-7.63l-17.49,2.88c-3.12,3.21-7.74,3.85-11.87,6.87-8.06,5.9-15.13,18.23-17.67,27.82l2.99-3.99c-1.88,9.06,7.84,7.33,8.02,15l3.98-1c-.24,2.19.15,3.34,1.43,5.08,3.21,4.36,21.27,20,26.3,23.98.81.64,2.27.64,3.27,1.02.42.57-2.45,3.01,1.97,4.49,3.98,1.34,2.76-1.14,3.21-1.34.29-.13,3.77.18,5.35-1.15,4.7-3.95,14.05-15.39,19.55-17.59,2.15-.86,6.95,1.22,9.94-.49-3.37-4.67,7.84,1.34,8.68,1.82,9.41,5.44,14.47,13.56,21.82,21.18l1.49-1.99c.22,3.99,5.75,6.06,4.02,10.96,2.05-.38,4.64,1.26,6.34,1.07.65-.07.68-1.68,1.42-1.98,1.87-.77,3.72-.24,5.25-.75,9.6-3.16,44.04-44.54,52.47-54.31,4.76-5.52,10.85-9.87,14.27-16.51l-3.92-5.31-1.83.85-.99-3.01c.49,3.11-2.43,1.56-4.26,2.21-3.35,1.2-3.76,6.16-7.59,6.95l.75,1.73c-4.55,1.98-10.7,1.48-8.95,8.47.23.93,2.34.38,2.04,1.13-1.76.87-4.86,6.97-5.23,7.28-.59.51-2.76.2-4.33,1.16-8.63,5.32-20.61,24.21-30.83,31.68-4.26,3.12-9.55,5.39-13.32.08-3.85-5.42-2.42-4.91-8.83-9.72-9.56-7.18-19.05-15.09-28.74-23.01-.6-.49-.8-1.17-.8-1.92l-1.39-.02c-3.73,2.03-6.26,6.2-8.9,8.61-3.04,2.77-8.56,6.56-11.05,9.45-2.91,3.37-4.01,8.38-8.24,10.83-1.39.24-13.77-12.79-15.99-14.75-2.85-2.52-7.48-4.88-10.43-7.64-1.46-1.37-10.03-11.59-10.48-12.57-2.08-4.61,6.65-12.48,9.58-15.72.54-.6.45-2.16,1.24-2.95,1.75-1.74,7.15-6.08,9.71-4.68.86.47,12.04,10.71,12.45,11.45.44.81.29,3.75,1.06,5.02l-1.17,2.01-8.35.9,1.01-1.98c-3.67-.41-7.37.88-9.99,3.56-.39,1.78,5.8,7.68,7.41,9.06,1.08.93,3.57,3.1,4.57,3.86,11.43,8.59,21.54-10.06,26.26-17.77,2.27-3.89-3.02-6.74-5.68-9.3ZM691.61,507.48c-2.53-1.64-6.86-5.75-9.59-1.71-1.34,1.99-2.32,8.4-1.76,10.72.14.58,1.38.47,1.64,1.28.84,2.59,1.56,5.54,2.12,8.23l4.62-4.35,6.35-12.15c-1.41-.56-2.28-1.31-3.37-2.02ZM381.89,515.09c-3.64-1.27-7.31-.95-10.92.38-.23,5.72-7.93,12-5.68,17.28.35.83,8.56,7.36,9.67,7.65,1.8.48,4.89-.97,7.04-.42-2.5-7.87,1.42-16.57-.11-24.9ZM578.99,528c.39-1.67-.52-2.03-1.51-2.98-3.99-3.85-10.76-9.92-16.49-8.01.85,4.98.34,9.21,4.51,12.99.94-3.1,1.49-1.08,3.43-1.43,3.32-.6,7.04-2.01,10.05-.56ZM547.62,526.34c-.42-.58-1.54-.78-1.93-1.35-1.04-1.54-1.3-5.63-4.18-6.83l-9.07,8.85c1.23,4.23-1.75,1.76-1.43,5l1.84-.87c4.03,6.54,10.44,11.61,15.66,16.9,3.53,3.57,14.93,17.38,19.01,17.58,2.84.13,8.68-6.45,10.86-8.72,5.02-5.22,9.9-11.2,13.63-17.37l-3.01-.51.99-2.99c-10.86-2.26-15.16,9.96-23.39,12.93-4.87-6.7-12.27-12.49-17.17-18.9-1-1.3-1.08-2.69-1.82-3.7ZM720.37,527.35c1.07-1.28,3.43-.73,1.65-2.87-1.5-1.81-9.6-8.04-11.9-6.36-6.82,12.16-18.86,21.51-24.28,34.67-4.25.99-3.63-1.47-4.9-2.19-7.17-4.05-10.36-7.09-16.42-11.58-7.05-5.23-8.32-5.33-15.17.33-12.54,10.35-23.85,26.94-36.32,37.17-1.76,1.45-4.86,2.29-5.03,2.52-1.43,1.93,3.77,5.35,6.32,4.9,8.78,7.1,17.21,20.15,25.66,26.58,1.4,1.06,2.61,2.29,4.49,2.48l1.53-1.99-1.99-.99c1.49-1.25,5.96-3.56,6.96-4.53,1.26-1.22,1.34-2.74,2.18-3.88,1.46-1.98,3.98-1.34,2.85-5.6-2.21-1.76-1.98,4.07-3.5,1-.48-.97.44-2.26,1.02-2.99,2.09-2.61,1.03.88,2.14,1.01,4.31.53,4.66-2.06,4.96-2.08,1.34-.12,2.55,1.23,4.33.57,2.6-.96,5.7-6.16,8.63-7.5l-.93-6.36-15.64-13.65-8.81,10.67,1.81,9.33c2.16-2.17,5.18,3.04,3.98,4.99-3.68-1.43-5.73,6.48-10.08,6.56-1.81-.2-6.66-7.76-8.39-9.61-1.35-1.44-2.48-2.27-4.48-4.49-1.09-1.21-3.24-1.27-3.63-3.39-.44-2.89,8.58-6.41,6.58-10.06l4.02-.02-.77-1.79c4-1.9,7.24-9.19,10.25-11.29.99-.69,2.32.07,2.4-.02.55-.73.18-3.12,1.4-4.62.9-1.11,5.05-2.65,6.39-4.1.95-.14,2.75,1.17,3.56,1.83,4.91,3.99,14.15,15.63,19.02,17.79,1.04.46,4.49-1.61,6.26,1.2,3.17-4.43,6.57-9.93,10.05-14.02,6.82-7.99,16.06-18.36,23.81-27.61ZM350.99,524l-18.35,8.91-.61,2.05,4.4,3.08,6.56-4.04c0,1.68-.08,3.43.43,5.06.94,2.96,9.76,15.66,11.99,17.55,3.72,3.14,1.01.98,2.79,4.16.27.49,5.7,5.82,7.24,8.32,1.4,2.27-.13,5.37,5.56,5.39l28.99-20.5-.99-2.51-3,.04,2.09-3.42,2.9.91.99-5.99c-7.32,1.2-20.09,15.11-27.36,14.05-.65-.09-.47-1.76-1.35-2.01-1.27-.36-3.09.32-4.33-.49-.57-.38-7.07-9.25-8.18-10.83-1.78-2.55-8.37-12.55-9.24-14.76-.65-1.65-.66-3.24-.54-4.96ZM182,530.01v-3.01s-2,2.49-2,2.49l5,1.52c-2.1,2.25,3.57,4.91,5.02,6.75,1.82,2.32,2.64,5.68,4.96,7.76l-1.98.47c-1.88,7.49,5.89,4.86,6,11.02l2.98-1.01c.98,2.8-1.82,1.77-1.98,2.01-1.58,2.37,2.1,1.64,3.45,3.05,4.21,4.37,6.86,11.86,12,16.97s10.99,8.87,15.96,11.87c4.2-2.85,6.79,1.53,10.57.1-1.34-2.91-2.03-10.6-4.01-12.49-2.36-2.26-12.26-4.21-15.5-7.51-2.05-2.08-2.72-5.18-4.49-7.22-3.72-4.3-9.32-7.32-12.02-11.76-1.63-.27-.57,3.88-2.48.98-1.01-1.53-1.53-3.17-1.52-5l-1.82.84c-2.21-3.17-2.13-6.04-5.67-7.82l-1.48,1.99c.23-3.35-1.52-7.3-5-8.01l1.98-1.98-5.49-4.99-.63,2.49-1.87.49ZM746.64,541.64c3.77-6.47-4.61-10.14-9.39-8.37-1.09.4-2.88,4.7-3.54,5.44-20.43,22.92-41.39,46.5-62.2,69.3-3.37,3.69-8.87,7.36-11.58,10.45-1.59,1.81.44,3.54-3.45,3.52l.47,2.96-6.94,2.09,1,1.96c-2.88-.83-6.98,2.25-8.01-.98l1.99-2.01-4.51.1-35.98-34.09c-2.3-.07-28.77,27.09-34.24,27.86-3.77.53-16.36-10.72-19.82-13.81s-9.21-8.07-12.05-11.47-3.01-9.19-9.28-8.37l-1.12,1.77c1.29-5.59-5.94-1.87-6.03-5.98-1.97,3.63-3.9,2.27-5.7,3.25-.45.24-6.8,6.61-5.77,7.73l-1.02,1-1.48-1.99c.23,3.82-1.53,4.32-5.01,4l1,2.99-2.81-.85-8.18,9.39c-2.18,1.16-12.91-6.75-13.71-7.82-.87-1.17-.53-3.43-1.51-4.54-.6-.68-13.02-7.2-15.29-9.13-3.54-3.01-9.71-17.1-17.01-20.02l-23.22-14.85c-3.89.68-8.14,1.87-8.62,5.89l-4.52,1.11-.12,2.83c-5.12-2.15-3.2.06-5.08,1.42-.83.6-2.16.37-2.71.75-.27.19.92,2.21-.71,2.82l-.99-1.99c-1.31,4.64-3.92,3.96-6.53,6.47-6.9,6.64-13.27,14.16-20.02,20.97-7.57,4.25-5.8.59-8.22-2.17-1.23-1.41-6.19-3.47-8-5.23-10.85-10.53-23.34-22.16-33.72-33.28-3.94-4.22-12.51-10.72-17.65-13.62-2.32-1.31-5.56-.29-5.41-3.09-8.09,3.6-14.42,8.77-21,14.39-3.4,2.9-4.2,4.05-6.99,6.78-5.02,4.91-10.33,9.59-13.96,15.78l-.93-8.28c-2.79-2.08-5.46-4.68-8.91-2.58.35,3.37-1.66,5.59-1.22,9.4.16,1.41,1.97,10.74,2.27,11.76.42,1.41,3.83,7.18,5.79,5.72l-1.99,2.48,9.01,12.5c5.21-5.23,4.66,1.84,6.53,2.94.92.54,6.03,1.03,6.29.85.38-.26.65-2,1.62-2.78,8.21-6.61,21.1-14.81,26.95-23.09,2.02-2.86,2.84-6.13,5.57-8.41-3.03-1.78-8.59-6.58-12-5.02-3.13,1.44,2.18,1.61,1.01,2.5-.41.32-2.01.4-3.07,1.45-1.95,1.93-3.91,5.11-5.89,7.11-4.11,4.15-18.47,16.13-20.78,19.74-.45.71-.21,1.85-.26,2.71-2.19-1.09-5.39-7.54-4.81-9.48.16-.52,1.45-.55,1.72-1.29,4.77-13.16,16.17-25.54,27.09-34.74,1.96-1.65,8.39-6.93,10.49-6.49,1.69,5.73,7.62,7.08,11.76,10.05,2.49,1.79,3.02,6,6.76,3.96l.47,3.08,2.53-.09-1,2.99,4.02,1.02-1.02,2.98c4.35-.79,2.83,2.05,4.03,4.29.63,1.17,2.33.15,1.97,1.71-2.53,1.02-2.97.5-4.98-.99l-.08,2.95c-.82-.27-1.61-.62-2.44-.03-6.14,4.37-9.82,9.96-15.99,15.1-1.88,1.57-5.09.75-4.55,4.99-2.71-2.37-2.32,2.38-5,3.54-1.23.53-2.86-.67-2.95-.55-.22.27.57,1.97-.63,3.08-2.42,2.24-10.6,2.7-10.18,8.72,2.62,1.45,2.99,3.72,6.69,3.38l.67,2.89c2.15-.27,4.8.39,6.82-.24.83-.26,10.95-9.83,13.02-11.43,3.93-3.05,9.67-6.32,13.52-9.99,1.45-1.38,5.67-7.81,6.25-8.2.24-.16,4.43.84,5.86.16,4.12-1.96,5.48-8.1,11.98-1.59,9.21,9.24,17.22,23.86,26.35,33.87,6.13,6.71,21.02,17.07,25.35,22.56.24.31-.72,1.63.7,2.8.6.49,5.66,3.03,6.15,3.04,3.85-2.72,7.61-5.91,11.54-8.49,1.05-.69,2.96-.19,3.72-.8.97-.77,6.27-10.34,6.73-10.81,1.21-1.21,3.43-.79,5.02-1.89s2.84-5.03,4.41-6.6c.99-1,5.64-5.55,6.3-6.13,1.46-1.29,4.37-.28,4.46-5.01.08-4.07-15.69-15.75-19.28-20.27-1.71-2.16-1.72-4.58-3.5-6.56l-8.81-1.33c-.64,1.35-1.16,2.95-2.19,4.07-3.7,4.01-8.57,8.77-12.54,12.73-2.16,2.16-8.13,2.85-5.75,7.82,1.49,3.11,8.9,1.36,7.82,7.21,4.66-.73,2.42-2.63,3.49-3.45.59-.45,1.98-.3,2.68-.88,1.6-1.34,9.43-8.67,10.81-8.65,2.74.03,8.95,4.86,8.41,8.27-.06.36-2.97,6.18-3.21,6.45-1.84,2.07-8.48,7.69-11.01,9.93-3,2.65-8.16,5.29-9.67,8.33l-1.48.03-.93-1.94-3.57.93,1.99-.99v-1.99c-4.13-1.59-25.05-20.78-24.83-23.33l11.01-16.51c2.42,1.82,2.02-2.31,4.43-5.08,1.71-1.96,17.91-15.7,20.14-17.08,4.61-2.83,7.06-3.31,11.94-1.21,8.22,3.55,11.22,11.31,16.66,16.83,5.7,5.78,12.35,11.15,18.3,16.7,4.61,4.3,9.23,12.08,16.35,11.66-1.39,5.07-7.3,6.69-10.67,9.31-8,6.23-15.35,12.33-23.09,18.68-1.64,1.35-5,2.28-5.97,3.26-1.29,1.31-2.46,5.74-5.01,7.21,1.46,5.86,8.62,2.48,13.2,4.51l.54-2.98c6.51,1.99,8.35-3.88,11.74-6.09,1.14-.74,3.08-.11,4.51-.89,3.83-2.1,13.86-13.96,18.13-17.64,10.63-9.17,21.73-17.89,32.54-27.02.72-.6.98-2.09,1.25-2.24,1.24-.68,2.49.71,3.39.78.28.02.63-3.78,4.44-1.41,2.22,1.38,2.57,5.09,8.26,4.43l33.24,36.02c3.26-3.79,8.66-6.74,9.51-11.96l2.98,1.02.08-2.92c4.29,1.37,6.69-5.29,8.47-7.02,3.4-3.31,8.62-7.75,11.96-10.03.94-.64,2.38-2.9,2.99-2.89.78.01,3.14,3.63,5.47,1.87l.05,3,2.99-1.02v3.02c1.71-1.92,4.74,2.56,6.24,3.69,5.48,4.13,6.9,8.93,11.76,14.8,1.48,1.79,4.23,3.35,5.95,5.27,2.13,2.37,1.64,5.78,6.45,4.28,1.08-.34.44-2.65,1.58-3.63.25-.22,6.1-1.52,6.43-1.5.4.02,1.97,4.75,6.59,3.66,2.15-.5,7.08-4.48,9.02-6.09,3.7-3.07,19.01-17.64,21.09-20.99.96-1.55-.36-2.99-.05-3.41.15-.2,2.93-.77,4.39-2.18,3.4-3.3,7.86-12.53,11.13-16.87,1.68-2.23,4.11-3.13,5.12-4.37,1.69-2.06,1.98-5.98,4.81-7.68l29.47,27.42c.31.1,6.21-.59,6.52-.7,1.67-.62,2.48-4.14,2.78-4.41,1.43-1.28,5.23-1.24,5.74-5.31l-10.51-6.01-1.49,1.99c.57-4.95-8.32-5.44-11.92-7.58-2.91-1.73-4.83-5.18-6.53-6.5-1.28-1-3.31.71-4.55-1.43s4.29,0,2.98-3.48l-2.99.5c5.85-6.05,10.67-14.18,17.85-18.66l-.86-1.84,4.01-.02-.92-2.83c1.88-.93,6.58-5.83,7.56-7.52ZM745.99,568.99c5.55-8.07,12.4-15.56,16.97-24.5-7.64-7.12-10.84,3-14.67,8.23-2.69,3.68-6.36,6.08-7.3,11.76.64,1.49,3.32,1.12,3.82,1.73.73.88-.7,3.11,1.17,2.78ZM776,557c-5.93-.29-12.57,10.14-13.73,15.29-.7,3.11,2.81,12.21,1.74,16.71h2.99c-3.13-3.88,5.05-6.17,5.89-7.52.41-.66,3.11-9.46,3.11-9.98v-14.5ZM713.42,619.42c5.89-6.26,4.99-11.64-1.97-16.47-.9-.13-1.67.12-2.46.52-.48.24-6.19,7.11-7.04,8.26-.71.95.05,2.5-.3,3.03-1.21,1.89-6.21,4.13-6.44,4.46-.5.71-.17,2.71-1.15,4.33-1.52,2.52-6.74,6.04-8.06,9.44l11.01-3-1.01-1.98c6.3,1.93,13.24-4.13,17.43-8.59ZM342.99,608.01l-.98-4c-4.09,6.32-12.69,9.33-18.45,14.06l-8.57,11.41,14.99,5.53.49-4.09c7.99-3.35,20.28-13.13,16.45-22.86l-3.94-.05ZM529.65,625.35c-2.42-2.42-6.99-3.89-6.66-8.36-5.5,1.32-9.92,4.82-14.34,8.2-8.41,6.41-16.75,15.72-25.17,22.78-4.59,3.85-3.82,1.2-8.48,7.26-1.27,1.65-3.87,1.41-2.99,4.77,4.16-2.22,7.56,2.8,10.58,3.03,5.85.44,15.09-10.95,19.77-14.66.81-.64,2.22-.64,3.12-1.34,6.84-5.31,11.87-13.15,21.53-10.02l.53,4.9c6.71,6.1,11.63,13.86,19.95,18.08.72-3.24,3.79-3.73,3.53-7.01l2.98,1.03c3.53-7.06-4.57-10.36-9.06-14.46-5.09-4.64-10.09-9.01-15.28-14.2ZM604.91,623.08l-2.91-.08,1.01,1.96c-4.06.03-3.88,3.97-8.53,3.93l-.48,5.1c-6.85-5.02-4.79.17-6.57,3.97-1.62,3.46-12.97,5.09-8.42,12.02l-2.99-2.98-2,6.93,6.47,4.06c7.68-2.66,10.11-9.32,15.16-14.87,2.81-3.09,11.52-9.51,11.37-13.51-.03-.71-1.8-6.35-2.09-6.54ZM368.61,634.44c-6.12-3.11-8.27-6.52-13.59-10.43-2.75,2.97-.52,3.9-1.14,6.27s-8.22,6.58-2.82,10.15c3.9,2.58,5.57.72,8.49.71.48,0,3.67,1.72,8.74,2.06,1.91.13,5.38,2.74,7.7-1.19l-3.58-.93-.43-6.08c-3.49,2.14-2.65-.19-3.38-.56ZM621.78,647.73c1.54-3.5-1.57-9.29-4.28-11.71-3.49,3.64-6.47,7.95-7.5,12.98l3.99.02-2.99,1c.88,3.72,9.98-.48,10.78-2.28ZM522,661.98l2.5.72,1.42-2.09c-5.67-9.58-9.34-9.48-14.53.38-.48,2.94,1.74,3.33,4.15,3.66,2.16.3,4.35-.79,6.46.35v-3.02Z"/>
  <path class="cls-1" d="M422.99,363.01c1.46,6.04-6.7,16.37-10.96,21.23-17.45,19.9-66.52,35.37-91.1,24.29-3.15-1.42-1.89-1.28-6.18-2.57-.73-.22-3.21-4.45-5.74-3.99l1.39-1.84c7.79.34,16.4,2.48,24.11,2.85,9.06.43,25.14-.51,33.55-3.45,2.12-.74,3.82-4.11,4.14-4.23.87-.32,3.65.84,4.56.37,18.61-9.71,31.49-27.79,39-47.41,6.85-17.9,8.48-51.78,3.97-70.5-1.27-5.3-5.03-12.88-5.72-18.31-.2-1.56,2.13-2.45,2.48-2.44,1.45.07,8.83,18.33,9.78,21.2,6.82,20.6,8.22,38.06,5.85,59.34-.71,6.35-1.18,19.26-5.63,24.46-.87,1.02-2.3,1.02-3.51,1Z"/>
  <path class="cls-1" d="M387.01,368.99l19.98-36.99c0,7.2-3.66,17.96-7.17,24.32-1.01,1.84-10.89,14.65-12.82,12.67Z"/>
  <path class="cls-1" d="M773.62,279.67c-1.19,2.12-7.14,5.73-9.15,7.35-.95.77-1.16,2.36-2.17,3.03-2.44,1.62-6.27.63-6.32,5.96-3.7-2.28-3.61,2.62-7.95,3.06l.96,2.92-3.99-.99,1.01,2.99c-2.11.28-9.08,2.59-9.72,4.31-2.34,6.29,3.76,7.67,6.93,10.76,3.7,3.6,6.58,5.51,9.81,8.32,1.34,1.17,5.8,6.16,5.48,7.71-.27,1.29-4.95,9.12-6.07,10.85-9.17,14.23-16.93,22.75-30.44,31.72-4.33,2.87-8.58,5.94-12.64,9.18-1.26-1.19-6.86-1.89-7.15-2.11-2.87-2.21-6.36-9.63-8.57-12.36-1.11-1.37-3.22-2.64-4.28-4.27-3.91.59-20.01,5.95-22.89,4.71-.87-.37.01-1.89-.95-1.82l-1.14,2.04c-16.39.17-34.97-5.1-44.35-19.54-.23-2.65.47-.93,1.76-.76,5.71.75,7.69,3.46,12.69,5.32,20.64,7.68,36.41-1.85,57.04-1.54,6.15,4.98,11.59,10.94,15.99,17.5,6.86-5.4,14.65-11.04,20.55-17.48,2.27-2.48,15.56-18.99,15.81-20.25.95-4.77-3.51-5.21-5.89-7.73-3.69-3.92-3.75-3.68-7.51-6.93-2.05-1.77-10.77-8.28-9.97-10.59,2.59-3.7,6.52-7.04,10.04-9.99,6.78-5.67,23.06-14.65,27.46-20.54,9.26-12.38,11.9-19.54,16.4-34.41,1.24-4.08-1.21-6.81,5.11-10.08,0,12.35.18,32.85-5.88,43.66Z"/>
  <path class="cls-1" d="M595,344l.43,4.07c6.34.77,4.91,3.67,6.7,8.81l4.81.19.08,4.93,2.97-1.99,4.11,6.97,2.9-.98-1,2.99c5.94-1.26,7.05,4.44,8.96,5.52,1.19.68,5.7-2.21,6.73.97l-.67,2.51c4.42-2.76,5.35,3.05,7.93,3.63,2.22.5,3.27-.64,4.48-.63.72.01.58,1.63,1.27,1.99,9.83,5.17,28.58-.9,39.3,2l.49-2.99,4.51,4.5-1.99.5c1.6,4.42,7.95.89,8.99,6.48-.16.75-7.35,2.93-8.76,3.25-39.87,8.81-77.85-7.53-93.43-46.02-1.04-2.56-2.98-6.95,1.19-6.71Z"/>
  <path class="cls-1" d="M697.04,346.93l.96-1.92c-5.5-1.74-10.98-.39-16.5-.15-1.55.07-2.96-1.52-3.99-1.48-2.58.1-12.43,4.18-14,4.41-3.38.51-9.87-.5-13.52-.81,1.21-2.77,5.71-1.17,8.07-1.61,5.25-.98,20.02-6.24,23.65-6.13,1.56.05,2.37,1.68,3.74,1.81,1.37-2.51,3.43-4,6.06-5.05.68-.27.24,1.77,1.13,2,2.16.58,5.96-.31,8.74.1,3.25.48,13.99,5.45,15.58.31,1.29-4.16-10.71-10.72-13.99-11.92-.84-3.79,1.63-1.8,2.7-2.76,2.86-2.54,2.36-6.99,8.69-3.61,2.09,1.11,15.46,13.24,15.21,14.91-4.18,8.06-12.24,13.15-18.49,19.51l-14.04-7.62Z"/>
  <path class="cls-1" d="M769,218.01c-2.51,5-1.61,12.45-3.03,17.29-.32,1.08-3.24.11-1.05,3.61l-3.91,2.61,1.99,1.98c-4.43,1.55-3.56,7.83-4.91,11s-5.01,10.45-6.81,13.23c-2.29,3.53-8.58,9.59-11.83,13.28-1.4,1.59-1.67-.3-3.44-.02,1.79-3.29,4.11-6.23,6.15-9.38,9.93-15.32,18.31-33.68,24.59-51.42.57-1.61-.52-2.68,2.26-2.18Z"/>
  <path class="cls-1" d="M764.99,323c-1.69,1.35-5.03-6.32-4-6.98-5.44.87-3.22-1.26-4.48-3-1.11-1.53-4.34-.21-3.5-2.51.5-1.34,16-11.02,17.98-13.51l-6,26Z"/>
  <path class="cls-1" d="M529.99,263.01l1.01,1.98c-4.04-.72-5.68,3.2-8.08,4.44-2.25,1.17-12.24,5.17-14.55,5.45-3.59.45-20.6-.49-20.36-5.39.16-3.34,6.42.49,7.37.7,4.58.99,9.08.84,12.12-3.19l.5,1.99,3.49-2.03,1.79,1.93,9.72-4.91-1.02-2.98c3.16.96,3.64-2.53,4.2-2.87.65-.39,2.14.9,3.76.38,2.26-.73,5.38-5.02,8.56-5.49,4.07.3-3.65,9.07-5.23,9.76-.89.39-2.26.14-3.28.22Z"/>
</svg>