<?xml version="1.0" encoding="UTF-8"?>
<svg id="Camada_1" data-name="Camada 1" xmlns="http://www.w3.org/2000/svg" viewBox="0 0 1024 768">
  <defs>
    <style>
      .cls-1 {
        fill: #413253;
      }
    </style>
  </defs>
  <path class="cls-1" d="M970.21,411.86c.29,2.68.3,8.58,0,11.24-.32,2.9-2.16,7.95-3.2,10.86-12.51,35.15-40.7,46.63-76.33,45.36-19.7-.7-36.97-7.89-54.41-16.35-6.14,30.37-9.7,61.3-16.62,91.49-14.1,49.27-57.42,84.5-108.87,87.43h-392.67c-44.49-1.85-82.8-26.3-102.84-65.85-13.42-26.48-15.2-57.1-20.23-86.09-1.56-9.01-3.49-17.96-4.97-26.98-8.49,3.45-16.57,7.84-25.29,10.74-43.47,14.49-95.95,3.49-107.37-46.52-5.96-26.09,13.74-50.13,40.27-38.73,20,8.6,6.27,28.53,22.2,39.65,4.76,3.33,11.02,4.25,16.72,3.62,12.56-1.4,17.4-16.09,30.7-15.81h692.76c13.33.13,17.08,14.35,30.2,15.81,10.05,1.12,18.38-2.5,23.11-11.54,5.52-10.55-1.45-21.11,11.7-29.71,17.9-11.72,42.86.06,45.15,21.37ZM213.59,452.75h7.16c.07,0,.07.84.49,1.27,6.52,6.67,26.07,28.93,34.14,30.3,2.06.35,5.17.31,7.15-.28,1-.29,5.55-3.43,5.76-3.18l1.54,8.69c6.11-2.85,9.36-7.94,7.95-14.85-2.07-10.12-18.13-12.44-19.69-1.17-.14.99,1.04,2.63-.27,2.22-3.19-1.02-8.89-5.13-11.52-7.4-5.33-4.6-10.44-10.53-15.33-15.6h8.44c1.21,0,6.74,3.79,7.93,4.85,1.99,1.77,4.36,4.35,5.11,6.91,2.9-4.34,5.92-8.21,10.89-10.31s9.75-1.36,15.15-1.42c5.03,20.38,15.93,38.85,29.17,54.91,10.13,12.29,23.1,25.77,36.12,34.94,5.34,3.77,11.33,6.46,16.53,10.3l-34.76,33.74c-1.01-6.44-4.31-13.56-7.58-19.25-9-15.64-26.13-28.51-40.53-39.21-15.63-11.62-32.67-19.38-46.22-34.04-2.37-2.57-16.27-20.36-17.89-20.44-.93-.05-.42,1.15-.41,1.41.38,10.94,4.42,15.65,11.39,23.39,14.55,16.16,33.32,25.74,50.62,38.32l-14.42-5.52c-12.7-4.22-26.01-4.75-39.26-3.43l2.05,10.22c15.82-2.63,33.34-.1,47.53,7.4l-3.58,7.41c-12.91-5.42-27.67-6.22-41.4-4.09l3.04,8.98c32.05-7.18,73.13,12.61,68.53,50.05-.5,4.06-1.63,7.23-3.06,10.99,2.78-.26,7.16,2.41,9.49,1.05.79-.46,5.44-5.04,6.63-6.15,16.27-15.17,31.1-32.03,47.34-47.23.98-.92,4.95-4.85,5.56-5.18.49-.26.96-.37,1.51-.23l2.01,4.5-56.17,55.54c-.22,1.23.56.62,1.28.74,2.72.48,5.48.85,8.2,1.34,19.37-19.06,38.73-38.15,57.24-58.05l4.44-6.03,6.54-.1c-3.31,3.3-6.17,7.14-10.22,9.59-.2,4.64-2.95,9.98-3.39,14.29-.4,3.89.84,9.46.34,13.72-.09.74-.06,1.31-.79,1.76h-18.15v16.87h-10.22v7.16h10.74l6.13-5.88v-11.5l18.92-.51v-16.36h9.71c-1.29-2.99-1.78-5.99-5.42-6.6-1.06-.18-4.03.53-3.73-.75l3.29-10.51,9.6-7.11,10.27,7.12,3.87,11.47-6.65.5-3.58,5.88h10.22v14.57c0,.31.28.9.27,1.3l18.65,1v11.5l6.39,5.88h10.48v-7.16h-10.22v-14.57c0-.46-.27-1.98-.77-2.3h-17.64v-16.1c0-2.45-3.95-10.15-3.87-13.51-3.32-2.64-6.35-5.58-9.41-8.5-.59-.56-3-1.24-.78-1.75,4.55-1.03,8.41-2.19,12.72-3.99l24.86,24.95c.37,1.41-.83.87-1.78,1.51-3.12,2.12-5.91,4.71-8.95,6.91.54.83.81.57,1.52.55,1.44-.03,8.69-1.25,9.21-.8-2.99,9.62,5.58,19.09,15.34,17.38-.99,8.81,3.8,16.6,13.02,17.4l71.58-.03,66.45-69.52,4.56,2.13,12.59,22.93c-26.45-1.77-50.21,18.48-53.68,44.47h9.71c2.22-13.72,13.77-26.97,26.59-31.94,2.05-.8,9.09-2.82,10.99-2.82h8.69l.55,1.04-3.33,7.92c-7.48-.53-14.53.95-20.65,5.44-6.91,5.07-10.64,11.91-12.1,20.35,5.8.3,8.16-6.68,12-10.23,4.97-4.6,11.86-7.31,18.67-7.14l-1.02,2.04c9.39.3,16.81,7,20.45,15.34h17.89c-2.5-2.03-5.2-3.85-7.81-5.74-4.49-3.24-3.6-2.68-7.03-6.78-4.61-5.5-10.55-10.07-17.88-11l18.91-37.31c-.16,6.13.66,12.39,2.43,18.28,5.81,19.38,22.89,29.3,36.65,42.58,2.55,1.11,7.99-.49,11.03-.29-4.83-5.12-9.43-10.8-14.55-15.61-10.64-9.98-19.8-15-24.55-30.15-1.71-5.45-2.16-10.72-2.81-16.35.88-.23,1.02.35,1.54.76,2.45,1.94,6.01,5.59,8.44,7.91,18.05,17.2,35.31,35.25,53.64,52.17,2.65,1.54,7.59-1.4,10.51-1.56l-65.44-64.39c15.75-6.01,29.67-15.93,41.93-27.35,9.55-8.9,19.41-20.14,26.99-30.77,9.52-13.35,17.01-28.13,21.08-44.1,10.47-1.39,19.97,2.01,24.77,11.74,1.25-3.23,3.65-6.27,6.43-8.39.61-.47,5.01-3.37,5.32-3.37h7.92c-8.12,8.2-15.28,17.69-25.82,23,.72-12.34-14.93-12.7-18.75-2.39-2.78,7.51,1.25,12.85,7.76,16.19l1.54-8.69,3.9,2.49c6.44,3.17,11.58-.44,16.31-4.52,8.33-7.18,16.51-16.85,24.29-24.81.42-.43.43-1.27.49-1.27h7.16c-.36,1.07-1.74,2.47-2.53,3.33-18.19,19.71-41.38,39.75-61.86,57.29-.35.3-.52.76-.55,1.22-.47.08-.64.05-1.02-.24-1.32-1.02-3.27-4.56-5.1-5.63,6.79-1.98,5.78-11.82-1.34-12.5-5.4-.51-8.65,5.44-6.84,10.2-7.83-1.55-15.68,5.44-16.73,13.17-1.34,9.75,5.68,19.94,16.23,16.73,6.73-2.05,19.72-16.23,25.56-21.47,11.57-10.39,23.47-20.49,34.78-31.16,2.46-2.32,15.64-16.33,17.13-16.61s3.34.37,4.88-.23c2.87-10.44,1.23-25.91,16.07-26.07,8.07-.09,27.34,10.82,36.29,14.03,30.72,11.03,72.6,5.92,81.69-30.79,1.4-5.64,1.58-16.56-6.06-17.74-9.59-1.49-7.26,8.83-8.65,14.79-5.72,24.39-34.92,36.91-57.51,27.84-8.92-3.58-13.67-11.49-22.74-13.56H172.92c-7.11.05-11.3,6.42-16.63,9.95-23.16,15.38-61.21,1.74-65.27-26.68-.72-5.07.52-13.58-8.01-12.37-7.84,1.11-7.55,11.91-6.05,17.75,9.46,36.82,50.59,41.59,81.68,30.8,9.52-3.3,28.5-14.4,37.33-13.83,13.54.88,12.17,16.75,14.57,26.57,2.03.5,4.12-1.24,5.89,0,15.1,15.86,32.18,29.53,48.8,43.72,7.35,6.28,14.69,13.81,22.25,19.67,6.49,5.03,15.56,9.34,21.98,1.56,9.21-11.15-.03-29.05-14.58-26.08,1.98-5.03-.88-10.97-6.77-10.11-7.07,1.03-7.27,10.86-.39,12.41-2.42,1.51-4.13,3.84-5.36,6.39-14.25-12.32-29.26-23.87-43.21-36.54-7.01-6.36-19.32-17.14-24.79-24.28-.39-.52-.99-.64-.76-1.54ZM735.04,576.44h7.92c.41,0,.96-1.23.79-1.76l-.98-12.49,18.27-5.24c.88-1.36-.66-7.26-.46-8.85s5.41-4.07,6.99-4.81c10.71-4.99,23.69-7.07,35.43-5.73l1.56-9.68c-17.03-2.43-34,2.78-48.92,10.65-.7.06-1.77-.91-1.65-1.63.25-1.54,18.84-13.73,21.59-15.76,10.4-7.66,20.57-15.86,28.97-25.73,6.94-8.15,7.23-9.97,9.13-20.53.13-.73.2-.81-.68-.67-3.96.62-15.36,17.14-18.91,20.97-12.89,13.94-30.07,23.25-44.98,34.76-5.44,4.2-10.63,8.85-15.89,13.28-.81,1.58,4.12,4.05,4.64,5.63l8.65-6.13,3.4,5.33c-13.54,9.8-25.27,24.14-29.18,40.66l-3.07-1.78-35.8-34.78c-1.99-.9-4.93,2.78-7.14,2.84l61.16,61.23,7.86-2.72c-.07-2.8-13.41-12.8-14.21-15.43-1.38-4.54,3.63-17,5.52-21.62ZM224.57,512.29c-5.75.15-5.37,9.07.99,8.44,4.85-.49,4.39-8.58-.99-8.44ZM802.29,512.27c-5.89-.56-6.86,7.87-1,8.45,5.55.55,5.52-8.02,1-8.45ZM722.03,548.04c-4.38-4.58-9.03-8.86-13.56-13.28l-4.07,2.64.45,1.49,21.76,21.18,2.77-4.27c-2.44-2.6-4.9-5.2-7.35-7.77ZM309,548.51c.66.78,1.08,1.76,1.98,2.37l12.52-13.02-3.31-2.68-12.52,11.9v.48c.08.37,1.04.6,1.34.95ZM333.5,544.99c-.54-.41-1.01-.92-1.67-1.19l-.66.14-13.08,13.07v1.02s2.59,3.06,2.59,3.06l13.81-13.79c.76-1.08-.15-1.68-.99-2.31ZM717.64,573.37l2.35-3.52-.34-1.23-25.33-24.83-4.78,2.51c-.36,1.32.79,1.01,1.54,1.75,7.39,7.3,15.48,16.79,23.24,23.3.53.45,2.77,2.41,3.32,2.02ZM763.15,573.88c7.31-10.88,21.4-16.14,34.28-16.08l3.54-9.23c-.06-.75-5.28-1.27-6.35-1.29-11.29-.26-22.99,4.31-32.5,10.01l.02,10.71,1.01,5.88ZM328.11,573.89l19.17-19.94-2.83-2.33h-1.02s-17.78,17.76-17.78,17.76c-.81,1.73,2.49,2.79,2.45,4.51ZM245.8,586.67c1.96,4.02,22.64,21.47,25.31,21.47h15.85l.77-.77v-8.18c0-7.48-7.85-18.22-13.63-22.66-10.55-8.1-26.76-10.22-39.02-5.44l3.65,6.33c8.78-2.48,18.08-2.56,26.45,1.38s14.33,11.63,16.42,20.64h-10.74c-.44-4.48-4.45-7.91-8.17-9.98-1.27-.71-5.76-2.8-6.91-2.8h-9.97ZM395.33,572.36l-4.31,4.41,4.31,4.78,4.85-4.85-4.85-4.34ZM750.38,601.74v-9.71c0-.47.21-2.31.77-2.29l12.27,12.75c7.81-6.31,15.44-13.38,21.42-21.5,1.08-1.46,4.19-5.31,4.41-6.85.15-1.04-.09-.67-.76-.77-5.43-.77-11.8,1.19-17.39.52-8.91,1.02-17.94,1.16-26.71,3.19-4.19,7.63-5.29,16.3-5.73,24.89,1.8.36,11.25,1.32,11.73-.23ZM424.73,622.44l-28.96-28.59-29.32,28.59h17.38l-2.99-4.44v-1.11s14.49-12.86,14.49-12.86l15.07,13.56-4.08,4.86h18.4ZM758.04,605.07l-6.91-2.03c-1.21.7-.19,1.32-.29,2.21-.17,1.59-.85,2.65.05,4.41.6.43,7.67-3.92,7.15-4.59ZM606.89,616.47c-3.28,3.56,2.45,8.42,5.47,4.71,2.75-3.38-2.09-8.38-5.47-4.71ZM623.44,615.39c-2.39.73-2.75,5.87.13,6.83,6.63,2.2,6.48-8.86-.13-6.83ZM398.15,618.86h-5.63v3.58h5.63v-3.58Z"/>
  <path class="cls-1" d="M193.14,397.55c4.31-39.17,23.11-76.69,47.56-107.07,35.93-44.65,88.82-76.11,143.64-92.02,27.94-8.1,56.88-11.56,85.88-13.55-18.34-22.24-8.41-54.4,20.02-60.99,38.59-8.94,65.44,28.56,41.84,60.99,34.06,2.4,67.79,4.75,100.93,13.33,70.98,18.39,136.72,59.67,174.2,123.82,13.42,22.97,23.02,48.9,25.98,75.48h-213.18l16.86-18.66c-1.05-.71-2.81-3.75-4.08-3.1l-15.33,15.62c-.04-1.5-2.73-1.83-2.34-3.62.47-2.1,9.13-8.49,10.01-11.45l-3.34-3.82-10.74,11.23-7.92-7.91c4.57-5.44,9.88-10.25,14.57-15.58.74-.84,5.88-6.56,5.36-7.16-1.94,1.36-4.55-.66-6.39.5-2.42,1.52-5.78,6.28-7.91,8.46-1.16,1.19-8.8,9.1-9.46,8.93l-2.82-3.32,9.97-9.96,3.07-4.1-3.33-2.29-.86.11-12.18,11.89-42.18-42.41h39.88l-11.61-10.11-31.06-.12c-1.05-.2-5.35-4.41-4.86-5.09l3.71-2.69,38.97-.38,13.04,12.52,1.02.24c2.14-3.63,6-6.76,9.22-9.56-.65-6.57,1.86-14.03-2.57-19.57l8.08.61,4.98,7.56,9.43-7.42-21.46-15.58,29.14-10.22-33.53-9.16-.72-1.06c2.47-.5,16.65-11.54,16.83-12.6l-9.67-9.38c7.04-.26,14.19-.4,21.21-1.03.62-.06,2.73-.19,2.81-1.01-3.05-1.46-5.91-3.86-8.63-5.94-2.02-1.54-5.38-4.99-7.25-6.04-.99-.56-6.79-1.92-7.77-1.75-.78.14-10.41,8.25-10.57,8.93.85,2.15,6.97,5.46,6.65,7.56-2.77,1.35-5.67,6.02-8.23,7.21-.56.26-.96.4-1.51,0l-9.97-8.86-26.32,20.6,18.39,17.38c-2.8,2.12-6.46,8.04-9.95,8.45-6.15.72-13.63-.55-19.94-.02l-6.59-5.57-8.76,8.12-5.37-4.87h-1s-19.44,16.65-19.44,16.65l.32,1.05,9.86,9.86-18.62,17.18-18.15-16.36c-.2-.75.2-.85.5-1.28,1.25-1.8,9.81-8.95,9.7-10.22l-17.11-15.57-2.45-1.47-5.72,5.02-8.18-8.18-7.16,5.62-19.66-.25-9.21-8.17,17.38-17.63-26.08-20.44h-1s-8.79,9.08-8.79,9.08c-1.73.8-8.58-6.42-10.12-7.81l6.66-7.17-6.18-5.62c-1.52-.71-10.4,2.51-12.52,3.32-3.05,1.17-6.27,2.56-9.09,4.2-.63.37-5.74,3.3-4.95,3.99l23,1.03-9.16,9.38,16.83,13.61c-9.39,2.34-19.23,4.78-28.24,8.31-1.11.44-2.88.82-3.45,1.91,5.11,1.09,10.52,2.9,15.46,4.73,2.86,1.06,8.62,2.97,10.97,4.37.69.41,1.37.61,1.18,1.63l-31.48,12.23-.73,1.06,23.28,8.18c1.12.13.6-.09.73-.76.4-2.06.58-4.28.52-6.39l11.25-1.02c.19.55-.51,1.12-.51,1.27v17.89l9.53,9.42,12.3-12.24h33.15s5.85,3.6,5.85,3.6c.19.78-.11.82-.54,1.24-.53.52-3.52,3.3-3.8,3.36l-28.02.1-11.1,10.12h40.39l-17.71,18.88-13.84-12.73h-24.42c-1.83.35-3.26,3.54-4.72,3.97-2.19.64-5.43-.5-7.82.61l10.21-10.97-21.46-20.21v16.36l-20.96-18.91v13.03c0,.23.55,1.12.91,1.27l14.43,6.15-15.34,10.47v12.52l21.47-18.4v15.85l2.27-1.05,33.15.02c1.55,3.14,13.55,12.03,14.11,14.17.47,1.79-6.64,6.63-7.4,8.88-1.98.3-8.46-8.52-10.93-9.55l-4.12,2.62c-.3,1.27,9.95,9.56,10.99,11.49.24.44.46,1.01.19,1.47l-2.75,2.62c-.65.16-6.9-6.35-7.92-7.4-1.84-1.89-7.14-8.93-9.42-8.99-1.35-.03-3.26,1-4.88.54l18.35,21.13-8.38,9.01-9.27-9.14-4.04,3.01,9.47,9.97-3.31,3.31-15.34-15.32-3.34,3.82,16.89,18.15h-196.31ZM510.61,183.89c-1.5-8.21,7.12-10.48,9.44-17.39,5.75-17.14-11.55-29.07-27.32-23.23-9.02,3.34-13.94,13.9-10.77,23.01,2.51,7.2,10.94,9.66,9.73,17.62h18.92ZM439.04,263.63h11.5c.42,0,.98-.69,2.42-.42,1.78.33,3.11,2.21,4.74,2.86l7.18-7.07,7.2,5.61,18.58-16.57-10.7-10.15,19.13-17.72,19.67,17.67-10.71,10.21,17.87,16.36c1.79,1.11,6.01-4.31,7.5-5.33l8.11,6.95c1.14.07,2.71-2.82,5.12-2.83.46,0,.86.45,1.02.45h12.53l-16.87-18.39,40.14-20.96-5.35-6.32c.72-1.45,9.55-7.85,8.65-9.01-3.24.75-7.4-1.56-10.71-.24l-53.45,45.12-5.86-5.79,45.49-41.14c-5.82-.86-11.77-1.59-17.64-2.05-19.6-1.52-39.15-1.64-58.76-1.01-6.48.21-12.96.3-19.44.5l-29.91,3.07,46.01,40.38-6.38,6.13-5.38-3.83-47.26-40.7-10.5,1.6,8.18,6.9-4.06,4.61c-.46.6-2.73,1.12-1.56,2.02l39.86,21.48-16.35,17.63ZM665,228.88c-3.2-.06-12.4-5.47-14.81-4.36l-29.16,27.86,26.95-2.69,17.01-20.81ZM378.72,251.87l-22.86-21.89-2.2.15-14.81,7.19c-.3,1.31,11.92,10.89,13.78,12.29l26.1,2.27ZM504.68,236.34c-1.8-1.93-3.82-3.7-5.81-5.43l-6.07,6.81,6.32,6.98,6.89-6.91c.19-.88-.88-.98-1.32-1.45ZM688.52,239.61c-2.29-.35-9.02-4.62-10.72-3.86l-28.64,28.38c6.19-.36,11.32,3.59,16.87,5.62l-.24-8.17c5.86-5.53,12.08-10.78,17.9-16.35.8-.76,5.33-4.96,4.84-5.63ZM320.95,373.78v14.57h20.19l13.55-11.24v11.24h11.25v-15.59l-9.45-7.93-.53-13.78-21.2-20.72,2.81-.76h7.92l-30.06-29.22-.05-1.4c4.93-1.86,8.69-5.77,12.99-8.65l16.61,15.75c-.08-4,.11-8.03.02-12.03-.04-1.82-1.28-3.93-.05-5.64.94-1.3,6.32-3.47,8.08-4.19l20.57-6.51-18.65-13.54-1.01,3.06c-3.93-3.27-14.07-14.02-19.3-12.66-.92.24-6.51,4.5-7.03,3.97l.51-13.79-20.95,21.21,5.88,4.76,7.4-7.06-.59,20.36c-6.6,2.75-12.51,6.89-18.05,11.34-10.87,8.72-20.68,18.95-30.93,28.35l50.09,50.09ZM651.2,268.74h-12.27v18.66l9.71,3.06-12.02,12.01-1.53-3.06h-9.71l-.77.77v8.18l-14.83,13.81,15.1,15.6.24,14.3h9.2v-11.5c0-.26,2.03-1.57,2.5-1.24,3.14,4.26,7.49,8.59,11.8,11.73l-.31,1.05-17.06,9.94,13.3,15.07,5.24-6.27c.14-5.15.77-10.79,3.7-15.18,5.81,5.29,12.66,8.98,20.2,11.24-1.13,3.95.46,8.08.08,12.18,3.53.61,15.68,14.41,17.56,14.41l16.13-14.17.5-12.4c8.2-1.71,15.41-6.44,21.7-11.77,1.75,0,3.45,14.08,4.13,15.79.43,1.09,2.89,4.31,3.76,5.34.51.6.47.45,1.06.08s7.4-6.77,7.55-7.27l.08-12.4c-1.85.13-13.25-3.93-13.26-4.88l11.51-12.52c.47-.12,5.86,4.49,5.86,5.37v7.41h10.22v-9.46c1.63-1.54,4.53-.47,6.65-.77v-7.16h9.46l.77.77v9.97h8.44l.77-.77v-14.57h-17.89c-.22-.89.37-1.02.76-1.54,1.66-2.17,4.72-4.69,6.91-6.39l-13.8-14.31c0-.4,4.94-4.62,5.63-5.61,1.11-1.6-1.45-2.66-2.81-2.85-3.22-.44-12.54-.34-15.88.02-.62.07-1.44.14-1.95.47-.87.55-.47,2.54-1.61,2.08l-12.02-12.01c7.12-1.37,14.44-1.82,21.72-1.78l.25-1.02-19.17-16.36c-1.14,0-4.46,12.85-4.86,14.81l-11.23-7.93c-3.9-1.87-7.88-3.88-12.26-4.36l-.65-13.16-15.21-12.65-16.26,12.65-.14,13.16c-9.09,1.17-17.11,6.01-24,11.78-.98-5.42-1.24-10.83-1.03-16.36ZM305.61,278.45v-21.47l-12.71,9.29c3.88,9.96-5.72,18.41-14.73,12.75l-.66.16-21.22,23.3c-.49,1.06-.46,8.02-.16,9.34.43,1.9,3.23,3.29,3.48,5.47l7.66-6.9v-19.68l11.25,10.48,1.02-.52v-10.48l5.88,4.05,20.19-15.81ZM491.36,276.74c10.64,9.76,27.73-4.57,16.97-15.69s-28.44,5.17-16.97,15.69ZM718.18,270.27c3.47-1.5,7.27-3.43,9.2-6.88-3.05-2.08-6-4.53-9.45-5.9l.26,12.78ZM499.18,293.31l-6.45,6.35,6.82,6.35,6.45-6.35-6.82-6.35ZM569.4,337.74h41.41c.22-.89-.37-1.02-.76-1.54-1.18-1.55-7.61-7.57-9.2-8.68-2.63-1.84-3.11-.53-5.6-.49-5.08.08-10.17-.11-15.25-.03l-10.59,10.74ZM259.86,330.08h-19.68c1.41,4.81-1.52,10.7.77,15.33h7.67l.77-.77v-9.46l6.54.11,4.96,5.51h9.46l-10.48-10.73ZM220.75,388.34h12.78c1.96-3.86,5.56-7.01,8.44-10.22h14.57l-4.6,10.22h11.76v-12.27c5.07,4.14,9.81,8.83,14.32,13.54.32.34.52.81.52,1.28l16.35-12.78v10.22h13.29v-12.01l-15.09-9.45-.76-7.67c-5.82.07-12.99-5.53-12.27-11.76-1.48.13-2.87-.44-4.32-.53-3.62-.23-13.75-.57-16.88.03-2.23.43-7.16,6.26-8.66,8.21s-4.92,6.72-5.96,8.87c-.3.62-.66,1.06-.47,1.82l17.37-.51c.29-2.82-1.12-6.53,2.05-7.92,9.69-4.27,17.03,9.8,7.19,14.86-5.62,2.89-9.37.21-14.61-.28-6.26-.59-13.47.34-19.83.1-4.07,4.85-10.72,9.88-14.42,14.71-.39.52-.99.64-.76,1.54ZM758.3,365.85h7.92c-.77-4.2,1.23-6.79,4.35-9.23,2.55,2.1,5.75,5.15,3.83,8.72l8.69.52c.77-9.06-6.51-13.78-12.97-18.37-3.94,4.13-10.15,6.31-11.85,12.21-.33,1.14-1.33,5.74.02,6.16ZM385.87,348.48h-20.96v13.8h20.96v-13.8ZM220.75,365.85h20.45l-12.53-15.34-1.37,1.18-6.55,14.16ZM786.67,365.85h19.43c-2.04-4.51-3.95-10.54-6.52-14.68-.23-.37.13-.89-.88-.66l-12.02,15.34ZM671.65,387.33c-1.54-.77-6.82-5.38-7.4-6.66-.93-2.05,1.09-12.52-3.62-9.73-4.66,5.4-12.63,10.38-16.85,15.87-.39.51-.99.65-.76,1.53,4,.48,8.15-.45,11.99-.53,4.64-.1,10.74.72,14.94.37.51-.04,1.8-.07,1.69-.84ZM732.31,380.35c-3.44-3.27-7.19-6.28-10.57-9.62-6.21-2.83-2.39,8.15-3.68,10.36-2.59,1.84-5.03,3.99-7.41,6.09-.35.3-.98-.03-.65,1.17h29.65c.23-.89-.37-1.02-.76-1.53-1.51-1.96-4.65-4.63-6.57-6.46ZM808.66,388.34l-15.05-15.87-32.14-.39-15.18,16.26h11.76c-1.64-2.5,7.22-11.76,8.43-11.76l9.21,11.76h8.44l-7.67-10.22h11.5c.95,0,9.5,10.22,10.22,10.22h10.48Z"/>
  <path class="cls-1" d="M410.16,244.72l6.07-6.1,11.56,9.94-16.84,16.38c-.06.26,2.26,2.67,2.71,3.11,1.62,1.57,8.7,7.11,9.27,8.37.64,1.41-.02,6.36.27,6.63,10.2,1.6,20.44-.62,30.65.28l45.26,41.12,45.37-41.01,35.12-.41-.4-7.03,10.61-10.51-18.37-16.94,11.5-10.47,6.13,6.64h12.53l-9.7,8.94,12.76,12.27-13.27,12.78,12.77,14.06h-57l-13.54,12.01c-.02.71,6.1,5.34,6.8,6.4.26.39.56.49.35,1.22l-8.68,7.71,37.56,37.05,5.04-4.55,5.95,5.84-4.89,4.87v1s32.5,33.24,32.5,33.24h-48.57l16.36-17.38h-9.2v-9.71l-29.16,26.3c-2.34,1.49-5.48.54-8.15.79l4.6-9.96,26.34-25.31c.88-1.91-3.05-4.1-4.11-5.59l-31.97,30.37c-1.55,3.28-1.84,6.91-2.03,10.5-5.43,1.23-8.14-3.22-11.75-6.39l37.82-39.61c-1.68.13-3.03-.58-4.34-1.54-5.19-3.81-9.99-9.88-15.08-14.06-.76-.62-1.55-1.21-2.4-1.7-1.87-.28-10.62,10.36-12.94,11.67v-27.09l-10,9.68.02,28.21-3.64,3.97c-1.52.26-6.53-5.81-7.33-7.37v-25.95s-9.21-8.54-9.21-8.54v27.09l-10.97-10.25-1.81-.48c-1.1,4.37-2.47,8.71-2.05,13.29l-7.16.51,24.53,23.78v.74c-1.88.22-2.38,2.17-3.55,3.35s-2.75,1.84-3.11,3.3l-27.07-24.52v9.97l19.67,19.18.77,11.24-32.71-30.16v14.31h-9.2l16.87,17.38h-45.5l22.49-25.3-5.1-5.36,5.95-5.08,3.61,2.98,1.45-.43,39.56-43.29-10.18-9.64,6.12-6.13-14.56-12.52h-51.89c.26-2.99,10.95-12.43,10.68-13.98l-13.74-12.85,11.62-12.27-9.58-8.94h11.5Z"/>
  <path class="cls-1" d="M529.2,360.41c-4.39,4.37-8.6,8.93-13.22,13.1-1.01-1.48-5.36-4.59-5.77-5.97-.31-1.05-.28-5.81.16-6.79l16.35-16.36,9.96,8.94c0,.57-6.53,6.13-7.48,7.08Z"/>
  <path class="cls-1" d="M511.12,380.16c-3.89,2.69-7.82,6.7-10.99,10.24l-11.01-10.01c-.11-.64.19-1.03.51-1.52.57-.86,9.37-9.78,10.06-9.9,2.7,2.3,5.57,4.66,8.12,7.11.66.63,3.78,3.42,3.31,4.09Z"/>
  <polygon class="cls-1" points="522.11 283.57 528.98 290.53 522.56 296.81 515.22 289.95 522.11 283.57"/>
  <path class="cls-1" d="M476.62,283.58l6.89,6.37c-1.24.93-6.38,7.03-7.33,6.86l-6.44-5.9,6.88-7.34Z"/>
  <path class="cls-1" d="M432.39,343.37l-3.83,4.58c-3.3-3.61-7.46-6.43-9.97-10.72,1.42.74,5.05-.93,5.62-.77,2.44.69,5.43,6.23,8.18,6.9Z"/>
  <path class="cls-1" d="M481.98,397.55v-12.27l6.64,6.39c-2.13,2.05-4,4.44-6.64,5.88Z"/>
  <path class="cls-1" d="M447.73,385.79c1.47.48,3.93-.79,5.09-.28.51.23,4.16,4.03,4.07,4.55l-2.25,2.86c-.62.06-5.51-4.76-6.15-5.59-.39-.51-.99-.65-.76-1.53Z"/>
  <path class="cls-1" d="M561.22,385.28c.73.78-4.52,6.12-5.34,6.67-1.99,1.32-2.87-1.1-3.32-2.77,1.33-.32,3.37-3.62,3.65-3.79,1.17-.69,3.59,1.13,5.01-.1Z"/>
  <path class="cls-1" d="M382.8,323.94c-1.36.13-1.64-1.47-2.53-2.32-.78-.75-1.91-1.11-2.57-2.02l3.89-3.29,4.27,3.8c-1.02,1.49-3.3,1.75-3.06,3.83Z"/>
  <path class="cls-1" d="M483.49,358.16c-.88.61-6.53-5.8-6.1-6.1,4.41-.62,5.92-.18,8.68,3.32l-2.58,2.79Z"/>
  <path class="cls-1" d="M308.17,464.5l37.82,37.57-4.85,4.34-20.45-18.92c-.69,0-4.69,3.52-4.12,4.61l19.19,18.66-5.89,5.88c-19.2-16.86-33.99-38.62-41.63-63.13l1.75-.79c22.25,2.17,51.06-3.31,72.49,1.18,13.16,2.76,23.09,15.71,14.91,28.45-6.8,10.6-17.28,5.01-23.73-2.51,3.21-.34,6.24.72,9.45.49,12.3-.87,11.43-14.87.98-16.3-2.38-.33-9.92-.4-12.23-.05-.43.07-.79.13-1.06.51-.31.37.3.64.3.77v10.22l-1.02.52-12.53-11.51h-29.4Z"/>
  <path class="cls-1" d="M741.69,452.75c-6.97,25.27-22.56,46.02-41.17,63.88l-5.86-6.11,19.41-19.19-4.33-3.84-19.17,18.7c-1.28.66-3.47-2.86-4.59-3.61l36.8-38.08h-43.71l-13.55,12.27v-12.78c-16.42-2.58-20.14,17.56-2.05,16.36l-10.04,8.61c-15.44-8.8-12.21-28.49,4.31-34.02,2.32-.77,7.83-2.19,10.08-2.19h73.87Z"/>
  <path class="cls-1" d="M653.24,495.17h-55.98c-.63,0-5.63,3.11-6.9,3.32.24.54,7.15,3.32,7.92,3.32h20.45c.14,0,.54-.47,1.01-.52l.26,1.03-15.33,8.19c1.48,1.26,5.5,4.45,7.15,4.9,1.23.34,3.33-1.33,4.36-1.33h13.04l-8.39,11.29c-5.15,8.97-3.94,17.44,1.24,26.02-9.52-2.93-18.19-8.37-25.04-15.58l9.16-10.15-38.31-40.19h68.76c3.74,0,12.85,5.61,15.76,8.27.5.46,1.09.46.86,1.44Z"/>
  <path class="cls-1" d="M455.91,485.46l-37.79,40.19,9.68,10.4c-2.71,1.38-4.93,4.19-7.43,6.13-4.78,3.7-10.07,6.81-15.84,8.7-.26.08-.83.14-.75-.25,5.33-7.66,5.55-18,.21-25.77l-7.88-10.78c5.35.72,11.77-1.5,16.52,1.46l8.01-5.04c.26-.39-6.52-3.24-7.31-3.67-2.73-1.49-5.73-3.43-8.03-5.52h21.73l6.39-3.06c-1.87.58-6.57-3.07-7.41-3.07h-57.51c.69-1.82,3.32-4.44,4.94-5.54,1.41-.96,9.29-4.17,10.65-4.17h71.83Z"/>
  <path class="cls-1" d="M525.11,552.6c-4.78,4.82-9.24,10-14.24,14.63l-25.27-25.22,25.2-25.33,25.37,25.26c-3.46,3.77-7.47,7.04-11.06,10.66ZM519.01,539.43c-1.29-1.51-7.05-8.25-8.61-8l-10.02,11.03,10.43,10.44,10.33-10.19c.57-1.11-1.45-2.49-2.12-3.28Z"/>
  <path class="cls-1" d="M596.5,548.85c.21.75-.21.85-.5,1.28-1.3,1.91-6.21,6.62-8.18,8.69-17.09,17.98-35.41,35.02-51.4,53.9l-21.71,8.7,74.22-77.08c1.97-1.14,5.45,4.27,7.58,4.51Z"/>
  <path class="cls-1" d="M432.38,544.76c.06.6.34,1.1.75,1.54,19.41,20.34,39.74,43.03,60.09,62.1,4.79,4.48,10.16,8.41,14.83,13.02-5.34-1.16-9.93-4.21-14.84-6.37s-4.94-.87-8.92-4.88c-19.86-20-39.45-40.26-59.56-60.05l7.64-5.36Z"/>
  <path class="cls-1" d="M306.12,605.57c.44-1.98.24-5.26,0-7.4-2.2-18.9-12.99-33.77-29.94-42.15-.39-.64,4.37-11.04,5.2-11.23,18.66,9.92,33.46,28.02,36.93,49.19-.17.74-9.42,9.87-10.65,10.84-.51.4-.66.99-1.54.76Z"/>
  <path class="cls-1" d="M675.74,521.24h-19.43l19.42,14.57c-6.3,5.6-13.17,10.64-20.95,14.05-.43-13.59-8.2-25.38-16.87-35.27h30.93l6.9,6.64Z"/>
  <path class="cls-1" d="M334.49,470.64l25.59,25.05c.74,1.45-4.2,4.2-4.38,6.12,10.64-.17,21.33.24,31.97.03,4.44-.09,3.94-1.29,8.57,1.1,2.4,1.24,5.34,3.34,7.51,5.01h-44.73l-7.74,6.6-4.78-3.55v-.75s7.94-7.93,7.94-7.93v-1.54s-30.44-30.16-30.44-30.16h10.48Z"/>
  <polygon class="cls-1" points="608.26 464.5 549.98 464.5 543.33 452.75 593.69 452.75 608.26 464.5"/>
  <polygon class="cls-1" points="708.97 470.64 677.78 502.34 683.91 510.49 678.11 514.56 670.88 507.95 620.53 507.95 632.03 501.82 677.27 501.82 674.43 498.24 674.43 497.22 700.53 470.64 708.97 470.64"/>
  <path class="cls-1" d="M387.41,514.6c-8.32,9.65-16.49,20.94-16.87,34.24-.68.71-8.38-4.69-9.57-5.51-3.6-2.46-7.12-5.12-10.36-8.04l17.88-14.06h-14.83l6.39-6.64h27.35Z"/>
  <path class="cls-1" d="M537.2,512.04l-7.43,12.76-1.25.53c-3.48-5.26-9.11-9.26-13.27-14.12-.29-1.67,11.26-11.29,12.16-13.82l-11.68-11.67c3.61-5.3,7.48-2.58,12.58-1.85,2.66.38,5.68.55,8.37.57-.18,5.54.41,11.08,1.45,16.52l-9.89,10.06.52,1.02h8.44Z"/>
  <path class="cls-1" d="M506.52,485.97c-.9.05-1.62.48-2.3,1.03-2.21,1.75-8.13,7.09-9.73,9.18-.32.41-.76.66-.76,1.3l12.76,13.73-14.78,14.13c-1.43-3.39-3.53-6.52-5.42-9.67-.53-.89-2.07-2.43-2.25-2.86-.44-1.04.71-.72,1.26-.76,2.81-.19,5.64-.26,8.44-.51l-9.58-10.6.9-16.48,16.09-2.08c1.03-.44,5.58,3.34,5.38,3.6Z"/>
  <path class="cls-1" d="M506.01,571.83c-4.68,2.69-7.75,8.05-12.31,11.04-.14.88,2.76,4.18,3.59,5.1,2.17,2.43,5.28,5.38,7.68,7.67.43.41.93.71,1.54.75.19.78-.12.82-.54,1.24-1.34,1.34-5.26,4.05-7.19,3.61l-17.28-16.93,11.21-12.96c-2.82.84-6.19-.24-9.19-.25l7.93-13.05c1.9,0,12.54,11.74,14.56,13.8Z"/>
  <path class="cls-1" d="M528.51,571.33c-.22.89.37,1.02.76,1.54,2.27,2.96,5.6,5.55,8.21,8.15.92.91,1.35,2.39,2.76,2.61v.72s-15.8,15.88-15.8,15.88c-.62.55-1.49,1.03-2.33,1.03-1.54,0-7.68-3.7-6.88-4.85.43-.08.91-.23,1.2-.57,3.62-4.24,7.91-7.79,11.01-12.42l-11.7-11.8,14.04-13.57,7.93,13.3h-9.2Z"/>
  <path class="cls-1" d="M403.25,477.79l6.99-7.11c.25-.13,5-.61,5.54-.6,4.3.05,8.42.09,12.75.02,13.87-.2,27.88-.19,41.69.54l-6.39,7.15h-60.58Z"/>
  <path class="cls-1" d="M532.53,452.82c4.31,9.94,10.63,18.78,16.93,27.53-13.08-.9-27.81-1.92-37.32-12.01,8.69-.75,15.21-7.63,18.38-15.35l2.01-.16Z"/>
  <path class="cls-1" d="M619.5,477.79h-59.05l-6.39-7.15c4.51-.05,9.05.04,13.57.02,12.66-.08,25.6.15,38.34,0,1.97-.02,3.91-.95,6.1-.52s5.59,6.12,7.42,7.65Z"/>
  <path class="cls-1" d="M493.7,452.8c2.35,7.87,9.17,14.41,17.43,15.54-7.4,7.01-17.82,10.55-27.87,11.49-2.62.25-5.43-.53-7.91.52l16.09-27.09,2.26-.46Z"/>
  <path class="cls-1" d="M480.45,452.75l-6.13,11.76h-36.81c3.98-4.16,8.06-8.07,12.53-11.76h30.42Z"/>
  <path class="cls-1" d="M559.69,494.15c.06.04.08.85.49,1.27,9.05,9.27,18.2,18.5,27.11,27.86h-14.57l-8.44-8.94v-10.99c-2.69-.24-5.82.32-8.45.01-3.36-.4-7.91-6.81-10.47-9.21h14.31Z"/>
  <polygon class="cls-1" points="477.38 494.15 473.8 498.49 468.68 503.09 458.47 503.35 458.47 514.85 450.54 523.28 436.48 523.28 463.84 494.15 477.38 494.15"/>
  <path class="cls-1" d="M478.41,528.4c-2.21-6.45-4.9-4.94-10.47-5.11-1.61-.05-2.97-.78-4.86,0-.23-.89.37-1.02.76-1.53,3.2-4.17,8.92-7.47,12.27-11.74l12.52,20.69c-1.69.84-2.02,2.07-2.63,3.75h-19s-4.43-6.05-4.43-6.05h15.85Z"/>
  <path class="cls-1" d="M463.07,556c-.63-.61,3.29-5.94,4.34-6.14h17.79s2.37,3.25,2.37,3.25c-4.76,6.59-8.96,14.22-11.72,21.8-3.63-2.41-6.12-5.96-9.16-8.96-1.5-1.49-4.2-2.57-4.64-4.84h13.04l2.81-5.11h-14.83Z"/>
  <polygon class="cls-1" points="557.65 528.4 553.19 534.54 536.02 534.54 533.35 530.95 545.13 509.99 558.67 522.77 545.72 523.37 542.31 528.4 557.65 528.4"/>
  <path class="cls-1" d="M557.65,556h-14.83l2.56,5.11h13.04c.09,0,.91.82.77,1.01-2.49.5-12.61,12.77-13.55,12.78-3.57-6.58-6.52-14.34-10.59-20.6-.47-.72-1.43-.84-1.43-1.12l2.42-3.33h17.28c1.27.25,3.79,4.67,4.34,6.14Z"/>
  <path class="cls-1" d="M633.12,522.3c1.28-.23,9.01,10.17,8.87,12.44-.22,3.44-9.62,12.06-12.01,15.11-7.77-8.89-6.14-20.52,3.14-27.55Z"/>
  <path class="cls-1" d="M389.67,524.52c.69-.74,1.46-1.43,2.09-2.25,4.81,4.65,9.14,8.84,8.43,16.09-.39,3.96-2.73,8.07-5.36,10.99-2.88-4.5-12.1-10.63-10.88-16.49.47-2.23,4.07-6.57,5.72-8.34Z"/>
  <path class="cls-1" d="M690.56,470.64l-4.58,5.38c-6.8,5.45-13.2,14.89-19.95,19.94-1.4,1.05-2.26,1.75-4.08,1l-3.59-3.04c6.8-7.5,14.09-14.59,21.24-21.73.59-.59.65-1.54.73-1.54h10.22Z"/>
  <path class="cls-1" d="M458.47,554.97c-.89.22-1.02-.37-1.54-.76-4-3.07-7.81-8.43-11.72-11.83-.15-.88,10.88-11.52,12.74-12.45l.52,10.22c4.99-1.1,10.4-2.47,14.3,1.79-4.39,4.01-8.95,2.67-14.3,2.3v10.73Z"/>
  <path class="cls-1" d="M561.73,531.72c.08-.63.63-1.62.76-2.3l12.52,12.52-12.52,12.52c.03-.76-.76-2.25-.76-2.81v-7.92c-4.99.94-10.81,2.49-14.32-2.3,1.87-.4,4.13-2.67,5.91-2.79,2-.14,6.33,1.39,8.41,2.02.24-2.85-.33-6.16,0-8.94Z"/>
  <path class="cls-1" d="M730.81,514.71c8.19-1.67,12.82,9.08,5.9,12.55-10.38,5.2-15.17-10.66-5.9-12.55Z"/>
  <path class="cls-1" d="M295.79,514.72c10.56-1.28,10.46,14.89-1.05,13.04-7.62-1.23-5.93-12.2,1.05-13.04Z"/>
  <path class="cls-1" d="M510.43,489.59c.97-.17,7.48,7.34,8.87,8.4l-8.94,8.42-7.89-8.87,7.96-7.96Z"/>
  <path class="cls-1" d="M519.3,584.61c-3.09,1.84-6.1,5.33-8.43,8.19l-8.95-9.19c1.73-.31,7.7-7.84,8.88-7.64l8.51,8.64Z"/>
  <path class="cls-1" d="M439.55,452.75l-10.99,11.76h-13.55c1.83-1.5,14.62-11.76,15.59-11.76h8.95Z"/>
  <path class="cls-1" d="M520.84,605.07l-9.97,10.22-10.48-9.97c3.62-1.13,8.06.32,10.49-3.31,2.43,2.9,6.48,2.95,9.97,3.06Z"/>
  <path class="cls-1" d="M389.71,452.75c3.53,3.63,3.47,9.07,3.33,13.8l-4.82.03c-.97-5.55-4.1-10.36-8.48-13.83h9.97Z"/>
  <path class="cls-1" d="M642.51,452.75c-3.88,3.62-6.81,8.36-7.18,13.78l-5.09.02v-7.41c0-1.13,2.15-6.39,3.32-6.39h8.95Z"/>
  <path class="cls-1" d="M476.36,616.82c-7.25.44-15.28-.76-14.25-9.9.21-1.87.43-4.27,2.5-2.62,4.26,3.41,7.86,8.65,11.75,12.52Z"/>
  <path class="cls-1" d="M457.85,596.98c.17.29.18,1.34.1,1.43-.13.15-3.39,1.02-3.83,1.06-6.44.62-10.29-6.65-7.17-11.79.59-.97.8-.04,1.28.27,3.29,2.12,5.65,5.29,8.17,8.21.37.43,1.35.66,1.45.82Z"/>
  <path class="cls-1" d="M621.55,452.75c.92,3.91.86,7.79,1.29,11.75.08.7.76,1.17-.52,1.03l-12.02-12.78h11.25Z"/>
  <path class="cls-1" d="M693.41,519.94c.43.41.65.78,1.24,1.04l-5.95,6.35-6.28-5.91,5.84-6.31c1.54,1.79,3.46,3.21,5.15,4.82Z"/>
  <path class="cls-1" d="M335.26,520.74l6.39-5.14,5.9,5.9-5.9,5.38c-.38,0-5.18-4.24-5.85-4.91-.42-.42-.73-.45-.54-1.24Z"/>
  <path class="cls-1" d="M412.46,452.75l-7.34,8.51-4.42,3.76v-7.92c0-.29,1.34-3.79,1.79-4.34h9.97Z"/>
  <path class="cls-1" d="M635.35,559.06c.12.6-.06.98-.28,1.5-.77,1.83-3.76,7.39-4.9,8.9-.44.58-.54,1.04-1.45.85l-5.63-11.75c3.93.42,8.42,1.74,12.26.51Z"/>
  <path class="cls-1" d="M509.95,452.35c7.23-1.64,8.46,6.71,2.92,7.54-5.98.89-7.7-6.45-2.92-7.54Z"/>
  <path class="cls-1" d="M379.73,541.69l6.66,10.72-9.17-1.56c-.4-.47,1.14-7.26,1.48-8.42.22-.74-.29-.89,1.03-.74Z"/>
  <path class="cls-1" d="M646.59,541.68l1.48,9.66-8.63,1.07c2.1-3.29,4.07-6.65,6.08-9.99.27-.46-.27-1.01,1.07-.74Z"/>
  <path class="cls-1" d="M516.23,476.78c.71,1-4.89,3.74-5.37,5.09l-4.34-3.58c-.6-.86,4.17-4.65,4.85-5.6l4.85,4.09Z"/>
  <path class="cls-1" d="M758.55,320.37c.6.86-5.44,5.8-6.4,6.62-10.45,8.93-23.72,17.84-35.69,24.63-7.55,4.29-15.63,8.71-24.37,9.62l8.05-9.46-9.33-9.44-9.45,9.45c1.83,2.06,4.07,3.8,5.88,5.87.43.49,3.16,3.74,2.8,4.1-24.6-7-46.8-22.44-64.88-40.19l.71-1.22c18.24-18.3,38.37-36.02,64.17-42.41.87.83-3.68,4.41-4.09,4.85-1.49,1.63-2.76,3.68-4.59,5.11l9.01,9.42c1.73-1.29,10.14-8.16,9.84-9.86-5.75-6.44-12.17-12.21-16.75-19.59l8.92-8.37c1.9-.17,6.91,6.3,8.29,7.94,0,.41-4.54,5.61-5.26,6.4-1.04,1.14-4.13,2.72-3.1,4.11.26.35,6.02,1.6,7.2,2,17.43,6,36.29,19.58,49.83,31.96,3.02,2.76,5.68,6.5,9.19,8.45ZM711.82,297.58c-.69-.59-3.59-3.33-4.06-3.24l-5.4,5.77,20.41,20.76-20.09,19.07-.12.88,5.64,5.6,26.83-25.8c-7.97-7.32-15.03-16-23.21-23.04ZM674.14,294.88c-.54-.31-1.31,0-1.75.42l-25.75,25.4,26.29,25.73,5.33-6.31-19.35-19.93,19.89-20c-1.23-.49-4.33-5.1-4.66-5.3ZM687.71,331.39c.83.81,1.85,1.23,2.33,2.53l.75.22,13.57-13.53-13.54-13.54-13.57,13.54c0,.99,8.92,9.28,10.46,10.78Z"/>
  <path class="cls-1" d="M688.33,378.83c-2.18-1.96-4.51-3.78-5.88-6.49l8.84-10.05,9.46,10.9-8.91,9.01c-.24,0-2.98-2.89-3.51-3.37Z"/>
  <path class="cls-1" d="M545.89,212c-2.72,2.25-7.24,8.7-9.94,10.25s-15.19.21-18.82-.15l-10.09-10.1h38.85Z"/>
  <polygon class="cls-1" points="492.21 212 482.13 222.12 463.09 221.95 452.84 212 492.21 212"/>
  <path class="cls-1" d="M299.99,316.27l10.48-9.22,4.31,4.8c-.13.74-6.79,6.55-7.89,7.99-.39.52-.99.64-.76,1.54h12.01c.51,0,3.89-2.96,4.6-3.56l6.38,5.86-6.89,6.38c-.53,0-2.16-3.17-3.32-2.32l-8.43,7.86c-1.24,0-7.34-7.11-8.95-8.35-.52-.39-.64-.99-1.54-.76v14.31l-17.42-16.66c-.21-1.28,3.36-4.36,4.37-5.33,4.19-4.03,8.64-7.95,13.05-11.74v9.2Z"/>
  <path class="cls-1" d="M333.6,361.87c10.05-1.46,15.08,12.78,5.78,17.56-13.26,6.8-20.27-15.45-5.78-17.56Z"/>
  <path class="cls-1" d="M332.57,266.31c12.97-2.18,15.35,16.22,3.85,18.15-12.23,2.06-15.68-16.17-3.85-18.15Z"/>
  <path class="cls-1" d="M348.04,350.53l-.32,1.05c-1.85.39-3.56,4.34-5.31,3.85l-17.36-16.93,5.29-4.31,17.7,16.33Z"/>
  <path class="cls-1" d="M320.18,338.77l12.52,12.51-4.92,4.31c-.91.16-12.16-10.66-12.4-11.57-.49-1.87,3.88-3.77,4.8-5.26Z"/>
  <path class="cls-1" d="M307.5,342.91c.71-.19.94.08,1.45.43.99.66,9.57,9.55,9.75,10.23.39,1.45-3.06,2.8-3.65,4.62l-11.45-11.06,3.9-4.22Z"/>
  <path class="cls-1" d="M501.16,152.48c11.89.18,14.52,16.27,4.02,20.61-3.13,1.29-4.92,1.37-8.05.01-10.65-4.63-7.62-20.8,4.04-20.62Z"/>
  <path class="cls-1" d="M651.2,242.67c-4.66,1.39-9.45,1.84-14.31,2.04,4.03-4.93,9.03-9.17,14.31-12.77v10.73Z"/>
  <path class="cls-1" d="M349.06,235.77c-.02-.14-.77-.58-.51-.76,6.33-.9,10.57,5.46,14.83,9.19l-14.31-1.02c-.22-2.34.31-5.15,0-7.41Z"/>
</svg>