<?xml version="1.0" encoding="UTF-8"?>
<svg id="Camada_1" data-name="Camada 1" xmlns="http://www.w3.org/2000/svg" viewBox="0 0 1024 768">
  <defs>
    <style>
      .cls-1 {
        fill: #413253;
      }
    </style>
  </defs>
  <path class="cls-1" d="M828.91,89.96c9.08,7.57,10.82,10.8,14.48,21.63,2.38,7.04,13.14,10.6,15.79,14.84,1.1,1.76,2.91,8.72,4.12,11,7.58,14.33,13.48,31.43,15.7,48.07.76,5.72-1.15,9.86-.97,14.15.32,7.88,4.82,19.48,5.11,27.7.08,2.28-1.12,4.24-.86,6.18.24,1.81,3.33,7.31,3.33,9.22-.03,10.6-.49,22.06-.54,32.87-.06,14.25,1.48,26.85-.14,41.08-.7,6.13-5.96,13.67-6.27,18.43-.27,4.2,1.91,8.65.46,14.16-1.16,4.4-7.12,10.58-9.08,14.69-1.26,2.64-1.52,5.69-3.12,8.76-5.82,11.2-13.91,19.2-20.68,29.61-2.69,4.15-2.71,5-7.46,8.04-1.46.94-6.63,2.54-7.45,4-.99,1.76-.28,5.91-.88,7.82-1.87,5.93-11.72,8.52-15.41,13.84-1.9,2.73-.96,4.2-4.06,6.73-4.04,3.32-11.43,6.07-15.58,10.2-5.19,5.16-9.59,14.77-16.97,17.77-3.61,1.47-7.07.7-10.39,3.33-3.64,2.88-4.54,9.36-9.75,12.2-1.66.9-3.56.64-4.66,1.29-.95.56-1.25,2.3-4.2,3.56s-7.14,1.09-9.37,2.51c-2.36,1.49-6.12,9.15-7.01,9.91-1.57,1.34-15.55,4.22-18.96,6.19-5.21,3-6.15,9.09-15.6,12.74-13.85,5.35-26.81,10.02-40.4,15.37-14.68,5.79-13.87,5.21-29.53,5.13-7.55-.04-10.74,3.84-15.6,4.6-11.4,1.78-22.82,1.11-34.45,4.87-1.42.46-2.04,2.21-3.95,2.52-6.06.99-23.19-2.1-29.48,2.98s-7.01,3.14-14.08,5.5c-7.53,2.52-24.6,8.96-29.58,14.31-1.74,1.87-2.34,5.04-4.48,6.49-3.62,2.45-10.64,3.21-14.14,5.06s-5.32,7.78-8.76,10.44-8.55,3.34-11.48,5.89c-2.49,2.18-4.72,10.89-7.61,14.23-4.76,7.09-21.48,11.17-25.28,16.88-8.14,12.26-13.31,15.4-26.18,23.19-10.61,6.42-14.91,7.2-24.16,16.07-6.72,6.44-15.89,4.91-23.95,8.05-6.02,2.34-9.22,6.42-16.65,7.51-10.68,1.57-12.33.65-23.51,5.18-3.39,1.38-4.19,1.24-7.58,2.24-1.83.54-4.28,2.68-5.63,2.87-3.38.5-15.39-2.98-19.98-3.35-10.32-.83-15.6,1.29-27.15-1.2-28.13-6.07-44.26-12.39-66.63-30.28-1.88-1.5-5.93-3.28-7.19-4.69-1.43-1.6-1.16-3.85-2.82-5.41s-6.01-2.42-7.62-5.14c-2.97-5-4.28-6.5-7.37-10.96-7.19-10.36-4.9-13.29-7.31-23.78-.64-2.8-4.5-8.3-4.82-10.59-.22-1.55.92-3.91.68-6.24-.83-7.95-6.65-14.37-6.85-21.38-.41-14.59-2.26-29.73-4.18-44.46-.78-5.96-4.1-15.86-3.71-21.03s3.21-10.66,4.4-15.79c.53-2.26-.08-4.64.42-6.89.59-2.68,3.86-4.87,4.35-7.55.86-4.76-2.56-9.17-.65-13.4.98-2.18,3.28-3.26,4.53-5.57,6.81-12.55,8.5-24.06,16.83-37.11,3.85-6.03,6.48-13.66,9.99-18.37,6.63-8.9,21.89-17.91,26.68-29.97,1.79-4.51,3.36-14.35,6.6-17.85,1.64-1.78,6.24-4.1,8.28-6.59,5.53-6.75,6.06-15.08,12.42-20.91,2.44-2.24,12.03-13.59,13.57-16.19,4.77-8.05,8.67-19.89,13.14-28.01,2.46-4.47,7.55-8.45,9.84-13.02,3.23-6.46,2.09-12.29,6.97-18.63,2.27-2.96,7.66-6.23,8.99-8.57,5.23-9.24,11.7-20.83,17.51-29.84,4.63-7.17,16.88-13.01,20.92-19.35.93-1.46.99-5.52,2.04-7.99,5.08-12.01,12.53-12.8,21.21-19.92,5.47-4.48,10.65-10.09,15.6-14.57,2.72-2.46,3.68-9.05,6.43-12.77,5.48-7.39,11.19-7.52,17.3-11.96,3.8-2.76,6.46-7.67,9.57-10.54,2.33-2.15,5.56-3.14,7.81-4.99,9.29-7.63,11.76-11.72,23.58-17.39,4.45-2.13,3.32-1.1,8.32-1.91,1.91-.31,9.11-2.5,9.52-2.84,6.06-5.05,18.63-18.71,25.74-21.33,6.04-2.23,12.64-6.13,17.92-7.68,5.62-1.65,9.44-.18,14.61-3.72,2.09-1.43,10.71-8.48,12.94-9,1.47-.34,3.06,1.04,5.05.61,11.33-2.49,23.86-9.04,36.12-10.62,7.54-.97,15.56,2.16,25.18-.4,5.05-1.34,8.44-5.17,11.72-6.57,4.67-2.01,9.85-2.73,14.71-1.2,3.01.94,7.48,4.32,9.44,4.44,5.35.31,7.83-6.29,10.43-7.02s12.44-1.17,16.05-1.35c16.29-.79,35.67,1.06,52.04,2.89,15.29,1.71,43.33,7.6,57.86,13.45,7.97,3.21,17.41,7.08,24.97,10.69,1.22.59,3.1.25,4.56.93,3.65,1.72,5.15,11.82,11.98,14.57,1.22.49,2.44-.29,3.63,0,13.08,3.06,20.41,7.79,30.71,16.38ZM826.89,126.71c-83.87-100.94-246.1-83.73-351.7-30.48-30.7,15.48-57.18,35.34-81.66,57.72-75.53,69.07-128.12,162.04-182.49,247.73-25.04,39.47-69.53,100.79-36.41,146.44,23.94,33,61.39,42.64,99.03,47.75,1.15.16,19.51-2.16,22.94-2.54,70.11-7.81,117.59-71.45,174.46-106.05,23.48-14.29,49.91-27.79,77.29-33.53,21.3-4.46,56.29-6.66,75.16-14.42,2.94-1.21,4.65-3.62,8.13-4.51,6.37-1.62,14.65,3.65,23.94-.06,2.48-.99,4.47-4.83,6.1-5.99,9.41-6.67,24.72-12.77,35.28-19.33,30.64-19.03,60.99-43.38,85.65-69.78,8.96-9.59,18.55-19.36,26.89-29.8,33.87-42.38,54.62-83.97,40.33-139.83-4.56-17.82-11.48-29.51-22.96-43.32ZM853.74,338.08l10.76-47.29-.51-24.73-3.03,2.03c-1.18,9.87-4.55,20.6-5.17,30.44-.31,4.84,1.59,22.78-3.35,24.91-.87.37-2.99-.43-3.96-.71l-.92,2.75c2.15-3.37-6.65-13.66-8.49-13.57-4.44.2-3.32,2.73-4.3,3.97-1.94,2.45-5.94,4.55-3.76,7.38l-1.64.84c2.67,17.36-5.55,35.45-6.49,53.06-.19,3.45.22,6.27.91,9.59,2.05,1.72,6.63-5.11,7.21-6.95,2.45-7.76,4.45-22.67,5.46-31.1.86-7.17.54-14.23.56-21.39.89-1.1,1.07-1.09,2.31-.46.7.36,9.52,8.28,9.83,8.86.24.45-1.42,2.62.75,3.47l3.85-1.1ZM811.44,341.95c-1.51.36-3.2,8.98-3.68,10.96-4.71,19.61-7.63,39.72-13.05,59.23l1.25,3.81,6.27-3.66c5.2-17.51,9.75-37.02,11.23-55.28.24-3,.66-10.1.24-12.75-.18-1.18-.86-2.63-2.25-2.3ZM790.51,376.45c.5-1.98.9-4.07.95-6.1.03-.93-.19-5.47-1.51-5.54-3.3,5.71-11.17,8.82-13.36,15.52-1.59,4.86,6.59,7.58,10.49,6.3.99-.64,1.73-7.9,2.18-9.48.12-.44,1.19-.42,1.26-.69ZM754.42,409.74c8.44-.59,17.07-.54,25.03,2.21,6.78-4.27,6.14-8.44-1.23-11.19-7.01-2.62-24.48-4.06-29.92,1.49-2.96,3.02-8.36,19.84-10.71,24.95-.55,1.2-1.74,2.01-2.29,3.2-1.65,3.59-9.07,22.57-11.2,23.59-3.86.2-9.05-.78-13-1.65-4.25-.93-22.21-8.19-24.96-4.36-1.46,2.03-.24,6.46-.63,7.72-.35,1.14-2.05,1.12-2.53,2.15-5.45,11.73-11.26,22.95-17.12,34.72-.48.97-1.63,1.17-1.73,1.38-.99,2.03-5.87,13.4-4.93,14.39,2.18-.1,5.43-1.23,7.23-2.36,8.41-5.29,16.63-26.68,21.87-35.73,1.06-1.82,5.36-9.16,6.56-9.9,3.43-2.11,22.66,5.82,27.15,7.58,1.71.67,3.04,1.84,4.56,2.8,4.84.78,11.78-22.27,13.55-26.38,4.94-11.46,10.95-22.48,14.3-34.61ZM705.03,435.09c.5.86,8.32,4.41,9.94,3.37,1.73-1.11,7.71-12.72,5.99-15.19-2.45-3.52-5.89,1.86-7.37,2.85-.78.52-1.76.09-2.04.3-1.66,1.24-7.69,6.66-6.52,8.68ZM775.19,428c-3.91.55-10.06-2.09-12.7,1.23-1.22,1.53-7.08,18.93-6.37,19.68,4.26.42,25.2-17.09,19.07-20.91ZM675.83,451.39c-.54-.44-.86-2.41-1.55-2.47-3.65.88-3.93,5.91-4.68,6.51-.59.47-9.29,1.39-11.39,3.23-4.41,7.75-8.05,16.11-12.53,23.81-2.8,4.81-8.15,9.04-9.03,15.37,2.2,3.05,3.68,5.03,7.7,3.46,2.32-.9,11.8-16.79,13.76-20.11,3.29-5.58,10.44-22.41,15.18-25,4.1-2.24,7.59-.67,6.93-7.28l-.91,2.73c-.75-.39-3.29-.1-3.48-.25ZM643.65,459.89c-11.18-1.63-15.61,9.36-21.52,16.48-2.5.71-2.02-1.29-2.92-1.83-2.23-1.33-11.82-7.95-12.8-8.13-3.35-.6-12.33,1.17-15.78,2.14.88,1.06,1.16,2.25,2.38,3.1,4,2.78,10.79,5.6,15.32,8.49,1.04.66,1.37,2.06,2.19,2.59,2.59,1.68,9.79,6.68,12.52,6.42,4.67-1.28,22.24-27.84,20.61-29.28ZM570.17,474.88c-1.59-.7-5.77-2.08-7.3-1.93-.55.05-9.09,3.33-9.47,3.66-2.31,1.98-7.54,12.69-9.9,16.14-1.25,1.83-3.17,2.28-4.39,3.93-2.37,3.22-2.72,7.93-4.31,10.95-3.67,6.97-9.68,12.72-14.19,21.66-1.8,3.56-5.57,5.23-3.11,11.05l7.08-1.11,12.14-20.15c3.82-5.55,10.15-10.78,11.02-17.44,2.99-2.2,12.09-17.4,14.22-17.81,3.19-.61,5.8,3.39,7.47,4.31,3.82,2.11,8.29,3.68,11.99,6.1,5.69,3.72,10.71,8.72,16.52,12.28.11,1.53-1.99.83-3.23,1.77-2.13,1.61-5.71,7.05-7.98,7.13s-7.33-3.46-9.58-5.02c-2.72-1.88-9.59-8.87-12.48-8.52-.76.09-.78,1.8-1.43,2.22-1.49.94-3.77.02-4.21,4.18-.25,2.73,12.36,10.69,15.36,12.9,1.25.92,2.33,3.11,3.71,3.86,8.62,4.73,13.58,2.3,19.9-4.33,1.94-2.03,6.01-9.62,7.69-9.65,4.35-.09,21.95,20.72,27.5,8.25.58-1.29-2.83-4.57-3.93-5.47-11.11-9.07-28.67-19.22-41.13-27.19-4.86-3.11-12.88-9.55-17.95-11.79ZM696.69,491.88c3.55.31,16.41-6.7,13.32-11.01l-6.91-3.61c-2.23,5.17-8.65,7.73-6.41,14.63ZM536.17,482.28c-.42-.36-.36-1.36-.82-1.31-10.5,1.51-20.03,13.3-10,21.84,2.32.49,6.17-8.93,7.68-11.14,2.26-3.31,8.35-4.95,3.15-9.39ZM511.07,491.89c-8.02,6.29-11.49,19.06-12.64,28.95-.23,2.01-1.48,5.32.31,6.69,3.79-3.36,7.14-10,8.95-14.8,1.23-3.25,6.05-18.84,3.38-20.83ZM467.15,527.5c.34-1.46,3.33-10.98.51-10.91-4.85,3.24-3.8,5.93-4.11,10.95l3.6-.04ZM555.63,525.99c-.88-.73-1.91-1.02-3.02-1.18-3.16-.06-9.46,6.58-6.87,9.66,3.2,3.82,10.61-1.29,14.73-.53l-.45-1.67-1.37.76c.07-1.86-1.68-5.94-3.01-7.05ZM456.23,527.55c-1.8-.42-2.17.93-3.11,1.91-7.39,7.68-15.32,38.44-17.68,49.97-1.14,5.55-5.02,18.98,4.27,16.6.74-4.88,3.74-8.97,5.12-13.62,5.17-17.38,4.71-37.5,11.41-54.87ZM418.6,557.86c-3.53-2.2-6.77,3.17-9.08,4.8-3.46,2.42-9.54,4.98-10.69,9.45s2.21,6.5,6.18,5.27c2.18-3.96,15.08-11.06,15.38-14.79.06-.7-1.53-4.58-1.78-4.73ZM460.8,571.42c2.48.42,4.02-1.36,5.3-3.18l-3.03-4.12c-2.31-1.17-1.52,6.52-2.27,7.3ZM170.79,578.99c-.38-.25-.57-.61-1.18-.25-3.01-.39.02,3.6.25,5.24,1.77,12.81,4.05,24.3,8.17,36.65,1.63,4.88,2.55,11.64,8.83,11.09,1.09-.39,1.36-1.19,1.52-2.25.43-2.87-6.46-18.87-7.71-23.19-2.05-7.07-2.02-16.82-6.15-23.3-.15-.23-3.51-3.83-3.74-3.98ZM422.4,581.5c-11.36-2.37-10.94,14.78-14.65,21.93-3.6-1.51-8.56-4.1-12.36-2.89l-.95-1.76c-4.18,1.97-2.46-.39-4.24-1.12-4.9-2.02-11.48-2.87-16.63-4.31l-14.26,25.61c-3.62-2.54-10.51-12.79-14.38-13.56s-8.29,1.97-12.13,1.68c-.59,5,3.93,8.14,7.43,11.32,4.5,4.08,10.99,9.01,15.66,12.45,1.26.92,1.6,3.37,4.61,2.61,4.88-1.92,19.08-28.57,21.34-28.99l27.72,9.5c.34.05,5.99-2.27,6.27-2.53,1.14-1.03,7.59-28.8,6.57-29.95ZM198.13,599.12c-1.03-1.47-6.41-5.46-7.95-2.47,1.28,4.61,4.12,27.88,8.79,28.63,2.67.43,18.96-14.54,18.63-15.9-2.67-3.1-7.55-3.11-11.24-2.27-.49.11-2.42,3.94-5.16,2.68-.9-.63-1.98-9.11-3.07-10.67ZM264.83,637.57c-4-4.52-13.68-17.71-17.5-20.44-1.2-.86-9.14-4.56-10.07-4.53-.8.03-9.45,5.05-10.44,5.96-2.01,1.86-2.26,4.09-2.96,4.76-1.37,1.32-8.76,5.42-11.41,7.85-1.37,1.26-10.47,10.8-10.83,11.57-.49,1.06-.75,1.91-.37,3.07.1.31,4.16,4.55,4.45,4.69,1.13.56,3.34.88,4.42.26.83-.48,7.25-9.19,8.87-10.77,4.06-3.96,10.53-9.25,15.03-12.56,2.72-2,2.66-4.66,8.63-3.05.46.12,3.71,6.82,4.73,8.23,10.82,14.89,24.75,28.95,36.7,43.01,5.68-.79,12.57,1.87,17.85-.23,11.61-4.62,16.17-14.88,23.88-23.21,1.29-1.39,4.22-2.87,5.61-4.66.97.98,4.47,2.55,5.07,3.16,1.68,1.73,6.16,9.81,7.08,10.34,3.74,2.15,8.46-4.87,11.16-6.87l-38.24-36.25.78-1.68c-3.21,1.48-5.61-2.18-6.82-2.38-1.39-.23-8.01,2.09-7.81,2.82l21,23.78c-4.63,1.71-4.97,4.88-7.75,7.78-1.66,1.73-9.26,7.74-9.44,8.34-.2.67,1.13,2.25.75,2.61-6.51,1.4-9.42,11.41-17.91,6.47-7.95-9.53-16.25-18.78-24.47-28.09ZM280.47,617.41c-1.2-.44-8.43-.26-9.43.54-3.24,2.64-.39,3.31.13,4.15.41.65.27,1.7.64,2.09.47.48,1.77.09,2.52.88,2.87,3.04,17,19.81,20.16,19.08l4.98-2.24c1.96-4.91-3.65-7.11-5.97-9.69-1.83-2.03-11.9-14.4-13.03-14.81ZM394.76,627.42c-1.77-1.96-7.5-3.26-9.92-.74-1.09,1.14-7.5,12.22-7.81,13.3-.6,2.12,1.01,3.28,2.9,3.72,1.46.14,9.08-6,10.79-7.53,2.14-1.92,6.69-5.8,4.04-8.75ZM241.98,662.27c5.63,4.2,8.67,16,18.57,10.19l-17.3-25.61c-4.35-2.6-19.29,13.13-19.31,14.62-.02,1.61,2.86,3.82,4.32,3.94,5.71.46,6.94-8.2,13.72-3.14Z"/>
  <path class="cls-1" d="M807.63,127.68c8.67,9.68,16.48,17.22,22.07,29.59,33.75,74.65-21.31,137.77-72.08,186.18-33.92,32.35-87.81,70.95-133.87,81.44-29.18,6.65-59.57,8.33-88.75,15.48-22.89,5.6-60.76,25.02-80.52,38.34-59.7,40.24-105.44,104.28-187.04,100.94-50.9-2.09-107.56-44.1-83.01-100.33,22.15-50.75,50.44-89.03,80.16-135.19,35.46-55.06,70.95-114.08,118.49-159.9,29.29-28.24,62.45-57.28,99.32-75.31,95.85-46.87,245.95-69.7,325.23,18.77ZM659.54,103.65c3.3-4.18,11.72-9.55,4.55-13.91-9.56-5.81-12.79,6.9-17.27,12.64-16.67,21.39-30.02,39.85-45.38,62.49-1.75,2.58-4.31,4.02-5.84,6.96-5.71,10.94,3.39,11.37,10.48,16.18.73.49.94,1.62,1.7,2.16,1.89,1.36,4.99,2.07,6.62,4.14.43,1.79-9.31,9.35-5.53,11.89,1.4.94,9.19-1.4,10.56-2.29,1.51-.97,6.19-7.77,6.62-9.43,2.23-8.71-18.46-12.89-18.11-20.34,4.22-9.06,11.95-16.97,17.82-25.18,11.16-15.62,21.8-30.14,33.77-45.32ZM610.36,121.23c4.26-6.02,8.99-12.4,13.01-18.54,1.35-2.06,7.35-11.5,6.16-13.12-.73-.9-1.73-.8-2.74-.92-8-.92-23.84,1.79-31.94,3.8-1.09.27-8.2,2.57-8.56,2.84-2.93,2.19,5.21,8.36,6.85,8.8,3.2.85,11.15-3.01,14.87-1.68,1.44,2.01-10.97,17.66-13.42,19.99-5.47-.1-20.77-9.5-24.8-8.43-.91.24-1.76.58-2.41,1.28-9.4,16.39-21.13,32.76-28.37,50.26-3.25,7.84-5.48,11.9,3.17,16.44l30.18-54.46c1.19.07,7.69.6,8.06.76.15.07.28,1.45,1.31,1.86,5.51,2.18,10.93,4.52,16.64,6.17,1.2-.09,2.1-.96,2.86-1.82,2.41-2.72,6.66-9.71,9.15-13.24ZM805.48,200.23v18.29c-6.68.59-14.93-2.44-15.62,6.73,2.73,4.29,22.66,4.26,24.32,2.46,3.52-21.73,2.64-43.9-7.34-64.04-3.56-7.19-7.32-11.89-14.62-15.55-.47,4.9,4.38,9.37,6.23,13.88,3.78,9.2,4.57,20.23,6.1,30-7.37-1.14-14.77,3.65-22.4,3.63-1.33-.36.46-1.99.46-2.26v-13.71c0-3.6-5.07-13.3-7.31-16.46-19.2-27.03-72.86-19.54-70.34,18.15.94,14.12,18.09,26.08,31.66,21.8,4.89-1.54,13.84-9.08,14.06-14.36.08-1.93-2.72-10.18-3.85-11.25-.22-.21-5.78-.15-6.08.01-3.32,1.89-1,10.2-8.13,14.36-4.57,2.66-13.85-2.19-14.87-7.72-2.41-12.97,8.45-22.81,20.64-24.07,7.84-.81,13.21-.21,19.51,4.03,19.85,13.37,15.51,41.16-3.67,52.96-25.34,15.59-56.67,3.98-67.41-23.02-5.89-14.79-1.54-28.76,6.36-41.69,15.97-26.15,45.12-32.23,73.39-23.53l1.41-2.21c-6.16-5.94-13.65-11.39-21.3-15.28-12.95-6.58-29.13-12.14-43.2-16.23-2-.58-8.75-2.66-10.19-2.13-5.71,4.37-8.96,10.98-13.39,16.39-1.69,2.07-5.77,5.45-7.49,7.57s-4.53,4.63-4.11,7.78c.47,3.49,6.59,5.33,9.13,2.75l19.7-21.44c3.13-.65,22.15,5.78,23.17,7.46l.21,2.99c-4.49,2.36-9.61,3.71-14.05,6.18-24.32,13.53-39.23,48.48-29.72,75.01,9.85,27.5,33.44,40.08,62.21,37.03,9.69-1.03,25.52-8.57,31.81-16.01,2.16-2.55.68-4.4.9-4.77.06-.1,1.37.82,2.3.11,1.91-1.47,3.57-6.84,5.93-7.87,1.89-.83,3.9-.13,5.72-.68,1.24-.37,2.06-1.65,3.33-2,4.98-1.37,11.39-1.81,16.55-3.27ZM543.66,105.45c-8.01.6-14.76,17.05-18.11,23.76-2.55,5.1-9.1,17.84-10.32,22.59-.24.93-.33,5.87.04,6.38l6.48,4.48c1.59.24,3.41-3.57,4.11-4.8,6.02-10.48,9.65-22.39,15.56-32.9,3.44-6.12,18.29-20.71,2.24-19.51ZM508.76,122.08c-.43-.44-.41-1.46-.85-1.38-7.77,5.01-17.21,7.61-24.9,12.6-2.86,1.85-2.84,3.07.43,4.51,2.21.98,15.98,5.65,17.34,5.07,3.72-1.6,5.45-14.98,9.23-18.31l.2-1.48c-.05-.48-1.06-.61-1.45-1.01ZM662.62,143.78c-6.41-6.87-17.85,5.71-15.81,9.82,1.05,2.12,8.54,3.21,10.54,2.29.42-.19,6.35-6.13,6.43-6.58.27-1.44-.16-4.45-1.16-5.53ZM582.62,146.78c-.22-.08-.22-1.36-.62-1.34-5.07.61-5.04,6.31-6.95,9.26-4.61,7.15-15.96,22.61-18.48,30.24-.69,2.07-.89,3.03.14,5.14l-2.63,1.46c2.54,3.15,18.73,8.72,18.97,11.87-2.35,1.96-3.27,5.6-4.46,7.25s-4.68,4.5-5.8,6.05c-2.29,3.18-7.76,12-.56,13.3,2.45.44,17.4-14.26,19.72-16.97.96-1.12,6.57-8.34,6.69-8.88s-.76-6.22-.94-6.5c-.34-.53-9.65-4.66-11.28-5.63-1.72-1.03-7.72-4.32-7.75-5.93.92-2.56,2.16-5.17,3.48-7.54,4.07-7.29,12.21-17.81,15-25.25,1.82-4.87-1.16-5.32-4.54-6.54ZM579.07,253.6c13.38-8.89,35.69-18.54,50.88-24.56,5.14-2.03,32.93-9.79,33.77-13.83-.49-2.25-3.45-4.62-5.7-4.65-4.39-.06-15.8,3.45-20.77,4.75-12.19,3.18-25.21,7.53-36.78,12.59-20.85,9.11-39.25,22.47-57.84,35.4-3.62-3.66-.62-8.38-.47-12.34,1.27-33.9-17.65-72.8-47.8-89.31-10.05-5.5-24-11.23-35.38-8.03-2.02,2.74,13.24,8.73,15.24,9.89,19.31,11.22,34.04,26.99,43.92,47.51,9.21,19.14,8.63,45.36,2.95,65.51-6.78,24.07-27.81,44.11-39.99,65.15-1.24,2.14-4.02,5.89-2.02,8.05,3.03,3.26,7.44,2.49,10.34-.43,9.6-9.67,19.59-28.18,29-39.77,12.73-15.66,27.21-30.48,43.17-42.78,4.82-3.71,12.73-9.98,17.48-13.13ZM656.18,177.63c-.92-1.1-18.18-9.65-19.78-9.87-4.07-.55-5.83,5.3-5.45,8.55l12.65,6.62c-6.96,20.51,18.92,2.31,12.58-5.29ZM474.14,193.32c-12.54-11.42-29.09-17.14-44.8-22.35-5.05,2.5-35.45,29.68-35.22,32.48,2.36,2.01,7.72,5.54,10.63,4.36,3.27-1.33,11.64-12.15,15-15.24,1.68-1.55,9.96-8.36,11.44-8.54,13.26,3.6,27.1,9.76,37.4,18.93,4.5,4,12.09,11.84,15.24,16.76,8.79,13.74,11.39,29.98,15.82,45.43,4.47-1.11,4.32-13.24,2.33-16.97l1.83-.9c-2.24-16.25-9.77-30.54-19.22-43.6l-10.45-10.35ZM454.09,212.43c-1.75-1.37-14.72-9.42-16.22-9.91-1.61-.53-1.81-.44-3.33.22-1.88.82-19.15,17.76-22.15,20.86-4.22,4.35-7.49,9.65-11.32,13.82-1.1,1.2-3.81.82-3.97,5.32l48.81,36.88c2.46.42,5.24-2.7,7.13-4.38,8.92-7.94,16.4-17.55,24.93-25.84.54-4.43-2.46-6.95-5.92-8.82-1.02-.16-9.22,7.95-10.41,9.48s-2.23,3.51-4.43,5.53c-1.41,1.3-9.52,8.79-10.14,9.07-1.03.48-2.07.64-3.19.59l-31.58-24.32,26.09-25.76c4.29,2.73,9.66,5.04,11.47,10.24l-12.7,13.83,6.71,5.79c5.05-1.92,7.48-6.96,11.43-10.54,1.63-1.47,10.67-7.51,10.76-8.18.58-4.07-7.09-8.63-9.89-10.98-.97-.81-1.37-2.36-2.08-2.92ZM354.75,266.99l2.19-.99,30.02-36.83c2.17-5.7-3.55-6.85-7.08-9.57-12.4,16.97-27.53,31.89-39.08,49.49-.59.84-.75,1.47-.27,2.42,1.51,3.02,13.71,10.21,17.25,12.08,1.79.94,10,5.17,11.14,5.22,3.46.17,8.55-9.79,11.04-12.63,2.24-2.55,4.57-5.61,8.18-6.16l31.59,23.94c.18,1.91-2.56,4.77-3.76,6.35-7.58,10.06-20.79,22.4-26.94,32.56-1.01,1.66-1.01,3.03-1.38,4.83,8.68,5.75,17.69,11.45,25.79,18,1.72,1.39,8.28,6.64,9.02,7.68.58.81,1.26,1.28.44,2.32l-40.72,31.09c-.89-6.15-14.56-10.7-11.24-17.17l14.44-14.82c2.17,1.98,2.81,6.16,5.8,6.83,2.5.56,8.17-2.85,8.18-5.28,0-1.26-1.2-3.32-2.1-4.32s-12.24-9.18-13.32-9.57-1.68-.7-2.95-.34c-3.29.91-13.65,16.31-16.22,19.51-2.91,3.63-11.7,9.48-9.19,13.77l26.1,24.2c8.13-5.2,16.38-10.38,24.16-16.09,16.67-12.22,35.51-28.96,48.54-44.06,4.79-5.55,13.03-15.37,16.85-21.29.57-.88,1.5-1.89,1.28-3-3.15-5.45-9.16-7.92-14.02-11.56-2.45-1.84-6.28-7.09-8.98-7.02-4.28-.12-5.57,4.87-7.51,6.96-.9.97-2.27,1.35-3.16,2.35-2.16,2.41-11.91,13.79-11.39,16.01.87,1.85,3.96,4.63,5.83,5.06,3.48.79,13.14-15.37,17.92-16.72,2.08,1.84,7.52,4.99,6.7,8.25-6.64,6.49-12.18,16.37-18.56,22.64-.75.73-5.5,4.78-6,5.04-2.85,1.45-6.36-3.97-7.98-5.09-3.7-2.55-22.4-14.59-23.09-17.84l32.48-38.85c.31-.88-4.43-7.03-5.36-7.9-5.28-4.98-15.74-10.37-22.09-14.94-7.32-5.27-14.53-10.71-22.09-15.9-.52-.36-.27-1.41-.33-1.46-1.63-1.06-16.33,19.22-18.86,20.85-1.85-.49-12.23-6.77-11.29-8.04ZM760.4,316.99c.9-1.1,1.22-2.41,1.21-3.81-.17-1.51-1.19-2.39-2.29-3.24-6.81-5.29-17.97-12.06-25.59-16.46-6.09-3.51-12.59-6.2-18.68-9.68l13.25-29.64c-1.52-2.4-15.16-4.77-18.79-5.93-13.69-4.36-31-12.78-45-10.32-2.33.41-17.23,3.86-14.95,7.15,8.41,4.25,18.97,2.99,28.14,4.8,11.51,2.27,22.89,8.05,34.54,9.82,1.14,1.27-11.41,25.59-13.7,28.71,3.3,5,8.28,4.51,12.76,6.5,8.27,3.68,15.45,7.89,23.18,12.48,3.8,2.26,7.53,3,10.64,6.69-9.06,11.99-21.73,20.44-32.93,30.15-3.68,1.99-5.78-1.19-8.49-2.45-7.72-3.58-16.04-9.22-24.39-13.04-10.11-4.63-22.09-8.89-32.9-11.45,1.55-4.23,12.36-24.44,10.76-27.22-1.6-.38-2.23-2.4-3.27-2.95-8.73-4.62-37.32-8.67-48.18-11.16-.62-.14-.4-1.32-.88-1.42-5.39-1.21-13.24-3.68-17.82-.62-8.06,5.38-18.2,16.43-25.04,22.95s-14.29,12.32-19.45,20.36c-.82,1.28-4.55,1.67-.59,5.6,4.4,4.36,20.79,12.75,27.03,15.68,4.15,1.95,30.09,12.06,32.58,11.24.67-.22,2.79-1.74,3.19-2.35,5.07-11.32,10.41-22.34,16.09-33.08.86-1.62,5.1-3.1-.04-6.61-1.68-1.15-16.51-5.55-19.45-6.23-1.17-.27-5.81-1.17-6.61-1.16-1.18,0-7.69,7.1-8.64,8.54s-4.03,8.72-3.63,9.26c.33.45,4.03,1.02,3.63,3.74,1.55.21,2.72-2.38,2.89-2.47.48-.24,1.66.92,3.05-.15,1.9-1.44,2.5-6.31,5.64-7.25,4.55-1.36,7.91,1.86,12.15,2.57l-12.5,21.98c-14.12-2.26-27.97-8.75-39.62-16.98,5.84-10.38,15.17-19.29,24.29-26.91,2.88-2.41,2.7-2.15,5.82-4.22,4.59-3.04,2.94-4.84,10.64-4.09,1.19.12,4.56.9,6.1,1.21,12.9,2.58,25.07,8.64,38.11,10.79,2.44,2.94-9.77,20.27-8.95,24.88,3.96,5.03,11.12,5.31,16.54,7.3,16.68,6.14,30.24,12.52,45.44,21.31,3.81,2.2,9.64,8.65,14.25,8.66,2.9,0,9.81-6.13,12.53-8.33,10.8-8.73,20.04-19.01,30.38-27.94,1.55-1.34,6.35-3.72,7.54-5.19ZM783.15,287.62c7.63-8.98,15.31-20.9,20.29-31.36.85-1.78,4.92-5.29,2.06-7.99-2.71-2.56-22.6-9.88-26.51-10.18-3.24-.24-4.24,2.51-7.34,2.39.27,1.34.5,3.76,1.54,4.61,2.66,2.2,17.96,6.45,18.3,8.57-.03,5.66-5.26,8.32-7.47,12.44-2.63,4.89-1.72,4.49-5.82,9.67-3.69,4.66-2.21,8.02-9.54,6.53-2.5-.51-19.37-9.83-19.81-11.34l4.53-8.55c5.58,2.69,12.75,8.96,16.14.46-1.33-1.45-2.1-4.33-3.31-5.53-3.06-3.03-17.79-7.44-21.54-4.08-.79.71-9.53,17.76-9.62,18.82-.13,1.53,3.11,5.81,4.37,6.82,2.7,2.15,13.5,8.18,17.1,10.08,2.45,1.3,8.77,2.88,10.32,3.87,1.26.81,1.38,3.83,5.73,2.49l-2.73,1.81c1.54.05,3.13.27,4.59-.44.57-.27,7.75-7.91,8.73-9.08ZM679.31,299.88c-.74-.83,3.71-8.91,4.33-10.75.96-2.89,1.15-6.01,2.03-8.94,1.22-4.08,5.71-7.52,1.34-11.31-18.08-4.08-38.29-10.53-56.73-11.84-6-.43-15.7-1.44-13.53,7.3l58.7,11.98.72,3.47-9.51,21.7c-.22,1.3.25,4.55,1.01,5.47.84,1.03,21.1,7.75,24.79,9.5,7.14,3.39,13.49,7.87,20.3,11.79,3.71.51,8.48-3.72,8.43-7.68-12.47-9.11-27.2-15.61-41.88-20.69ZM480.65,303.28c4.14-5.24-.66-9.28-4.28-13,2.88-4.8,12.35-12.43,11.58-18.13-.1-.74-2.3-4.89-3.03-5.13-3.47-1.11-6.06,4.96-7.98,6.93-2.4,2.47-14.91,13.71-14.91,16.32,1.54,3.2,12.74,15.22,15.52,14.87.41-.05,2.81-1.51,3.1-1.88ZM354.38,300.27c-7.29-4.69-15.84-8.31-23.17-13.05-4.75-1.19-12.96,14.79-15.37,18.1-6.48,8.9-16.45,19.97-21.81,29.39-2.02,3.55-3.76,5.98-.97,9.96,2.44,3.49,24.66,13.62,29.99,16.63,5.98,3.39,9.75,6.88,16.36,9.99.7.33.72,1.37,1.18,1.51,1.29.41,5.02-.73,6.17-1.59,2.88-2.14,9.67-13.05,12.56-16.68,1.15-1.44,1.98-3.09,2.12-3.25.77-.9,3.15-1.24,4-2.31,4.76-6.05-1.2-10.72-5.68-14.33-2.68-2.16-17.05-12.1-19.39-12.68-2.05-.52-8.22,7.12-8.89,9.04-3.05,8.7,5.74,12.76,10.03,4.54l1.29.11c.12,1.91,2.47,1.51,4.56,3.16,2.33,1.85,4.44,4.21,6.39,6.45.19,1.13-11.07,15.86-12.25,15.86-7.37-5.92-15.72-11.44-23.91-16.3-2.08-1.23-4.91-2.91-6.96-4.02-2.27-1.23-5.75.42-4.79-4.29,7.02-8.92,12.98-18.75,19.83-27.78,1.64-2.16,4.88-7.46,7.59-7.58l29.15,17.14,11.91,9.89,25.24-29.68-1.82-.46c3.66-3.38-1.09-5.44-4.58-5.49l.92-1.81c-1.25-.08-2.47-.11-3.65.46-3.62,1.76-12.47,16.9-16.04,20.55l-1.76.93c-4.6-.45-7.42-5.29-10.35-7.33-2.53-1.76-5.3-3.43-7.89-5.1ZM570.18,356.93c-12.18-5.17-26.57-14.15-38.08-18.17-9.35-3.27-10.98,1.57-17,8.1-4.06,4.4-9.07,9.43-12.83,13.69-6.66,7.55-12.73,15.68-19.07,23.51-1.28,3.57,3.72,4.96,5.25,6.35,11.63,10.63,24.55,21.11,35.49,32.41.91.94,1.59,1.86,1.89,3.15,2.9-.07,9.78-4.38,8.94-7.51-.11-.41-4.65-5.96-5.34-6.63-1.38-1.35-3.31-1.65-4.55-2.8-2.34-2.15-4.53-4.64-6.96-6.74l-.06-.98,21.58-25.08c-2.75-.53-5.9-4.88-7.27-5.49-5.12-2.26-19.37,21.02-24.28,23.3l-11.39-9.59c7.19-7.17,12.8-15.88,19.62-23.34,1.53-1.67,10.02-10.13,11.39-10.6,3.86-1.31,6.38,1.96,9.61,3.34,3.46,1.47,6.98,1.27,9.92,4.71l18.93,9.44c.46,2.12-16.49,16.86-19.23,20.07-2.14,2.51-3.56,5.47-5.94,7.79-.81,1.82,4.4,6.72,6.42,7.01,2.46,0,17.28-17.3,20.56-20.28,1.98-1.79,9.92-8.92,11.67-9.38,2.84-.74,11.61,2.55,15.01,3.74,6.11,2.14,13.39,5.38,19.36,8.07,4.41,1.99,12.01,7.87,16.51,7.15,6.84-1.08,27.27-20.21,33.91-25.58,2.45-1.99,6.64-2.67,7.64-7.01.23-2.62-11.88-8.57-14.48-9.92-3.34-1.73-25.89-12.27-27.53-11.92-6.57,1.41-7.32,14.01-11.51,18.34,7.03,13.09,11.24-.57,18.42-4.73,2.78.93,16.22,7.71,15.83,10.23-6.2,4.33-20.23,19.56-27.74,18.35-1.17-.19-1.99-2.15-3.23-2.76-16.46-8.12-35.02-13.29-51.46-20.28ZM340.69,395.34c-13.53-12.34-30.2-21.83-46.29-30.08-7.56-3.88-11.61-10.24-18.81-1.13-.23.29.16,1.3-.37,2.01-4.46,5.96-8.55,12.45-13.72,17.69l-.02,5.65c3.54-1.12,5.71,2.42,9.91,1.62,2.22-2.52,10.39-17.09,12.26-17.8,1.54-.59,2.88-.39,4.37.16,22.34,10.82,42.7,25.46,58.26,44.83-.12,1.52-17.67,14.35-20.39,16.85-1.63,1.5-4.94,4.98-6.84,6.88-5.25,5.27-9.89,11.72-15.19,16.98-11.11-4.81-20.96-12.87-31.71-17.58-3.61-1.58-7.46-2.55-11-4.31-2.22.37-13.7,17.04-15.6,20.08-8.68,13.94-19.95,36.6-13.97,53.13,2.32,6.42,13.4,14.13,19.63,16.03,44.96,13.69,75.42-.03,109.44-28.07,4.56-3.76,9.57-7.16,13.91-11.27,2.62-3.42-2.48-6.53-5.01-8.81-2.29-2.07-16.4-12.38-16.58-13.43-.24-1.14.69-1.52,1.31-2.16,1.72-1.8,10.71-9.36,12.78-10.09,5.35-1.88,6.71,2.1,10.18,4.46,7.46,5.06,23.37,16.62,29.21,22.97,2.15,2.34.47,4.62,6.25,4.34,13.89-11.03,28.08-21.4,43.2-30.7,4.75-2.92,9.91-6.34,14.77-9.19,10.25-6.01,22.12-9.86,32.86-14.93,3.12-2.55-3.13-7.51-5.18-9.43-1.5-1.41-2.77-2.72-3.68-3.54-3.8-3.46-17.57-15.59-21.53-17.02-5.6-2.02-12.15,4.75-16.42,8.31-2.02,1.69-13.2,11.96-13.33,13.28-.18,1.82,3.16,5.65,4.64,6.4,3.95,1.98,18.3-15.82,23.29-16.55,3.13-.46,3.21,2.11,4.55,3.23,3.69,3.06,8.07,6.14,9.56,10.89-18.89,9.6-36.86,21.09-54.54,32.81-6.25,4.14-12.13,9.87-19.01,12.64-2.64-.12-10.84-9.83-13.48-12.06-.28-.24-1.38.21-2.04-.34-9.44-7.81-18.14-18.02-30.65-21.07,2.01,2.73-1.23,1.53-3.62,3.23-4.27,3.03-16.41,14.48-19.75,18.68-1.6,2.01-1.8,4.29-4.76,5.95l1.9,3.85,17.88,14.11c1.25,2.15-5.92,8.44-7.68,9.92-2.94,2.48-7.3,5.49-10.55,7.74-16.37,11.35-35.19,21.57-55.71,20.63-.36-4.48,2.51-7.96,4.22-11.78l12.72-17.47c.44-1-.7-2.52-1.37-3.22-1.16-1.2-10.11-6.76-12.16-7.95-3.06-1.77-8.85-5.05-11.91-6.37s-6.09-2.95-8.52.15c-1.57,4.14-11.63,17.31-6.77,20.64,8.2,2.68,8.19-8.38,15.07-9.6l10.44,8.78c-3.76,6.99-7.62,13.44-10.91,20.65-.33.72-1.51.74-1.56.85-.47,1,2.27,2.69-.66,2.61-8.83-.25-28.45-4.55-29.73-15.09-2.62-21.58,10.37-33.44,20.36-50.52l3.06-1.14c9.23,4.71,18.69,9.13,27.68,14.28,4.62,2.65,8.9,9.16,14.5,4.63,7.79-6.3,15.6-19.96,23.06-25.84,1.17-.92,2.2-1.41,3.71-1.35l-.75-1.64c6.96-3.33,12.19-10.21,17.65-14.8,2.64-2.22,7.58-2.75,9.13-7.29.38-1.36-1.4-3.91-2.26-5.03-4.36-5.69-12.41-14.46-17.71-19.29ZM478.17,368.47l-11.32-6.38c-2.64,3.52-6.54,5.74-7.87,10.01,5.19,1.01,9.01,8.07,15.07,3.65l4.13-7.27ZM690.2,374.05c-3.44-1.35-3.72-4.02-7.91-2.16-2.98,1.33-13.23,8.82-16.22,11.22-1.09.87-11.44,10.28-10.53,10.94,4.41.5,9.18-.65,13.06-2.74.57-.31.7-1.43,1.33-1.79,4.12-2.35,15.13-8.27,18.08-10.98.84-.77,2.82-3.59,2.19-4.49ZM424.76,428.26c-3.1-2.56-7.21-3.65-9.66-7.24l37.53-29.22c2.44-2.1-2.02-7.57-3.75-8.29-4.13-1.73-16.79,12.03-20.56,15.1-7.7,6.27-16.62,13.06-24.94,18.23-3.84,2.39-10.3,4.87-14.24,7.51-5.76,3.86-2.35,9.51,2.79,9.77,2.94.15,12.53-8.55,15.41-6.33l8.43,8.77c-.85,4.17-8.13,5.88-8.01,10.11.05,1.63,5.41,5.07,6.84,5.04.48,0,.5-1.39.71-1.48.79-.31,1.52.02,2.6-.67,2.61-1.66,13.05-10.53,13.43-13.16.24-1.67-5.03-6.85-6.59-8.14ZM299.56,397.14c-2.79-1.86-8.53-6.06-11.31-3.75l-12.78,19.89c-5,1.23-17.61-7.34-23.33-8.56-1.56-.33-2.12-.21-3.4.77-18.95,27.6-51.29,68.67-46.6,104.15,2.21,16.68,21.34,36.75,36.5,43.04,52.35,21.7,105.84-7.22,143.95-41.62,3.82-3.45,23.12-18.02,7.83-16.87-30.1,25.98-66.65,53.49-108.36,54.91-23.55.8-57.85-11.36-66.53-35.28-2.44-6.72-2.23-15.98-1.08-22.98,3.18-19.35,23.87-54.56,36.99-69.12.56-.62.44-2.16,1.12-2.76,4.02-3.51,20.43,8.91,24.74,7.87,3.44-.82,12.59-16.14,14.4-19.94,4.93-.16,7.08,5.78,11.79,6.44l-.86,1.73,3.62,1.5c.21,4.03-3.87,5.24-6.37,8.12-1.33,1.53-3.29,3.92-4.53,5.47-6.02,7.5.05,10.9,7.24,7.29,2.76-4.41,19.18-17.02,19.18-20.98,0-2.06-2.13-4.17-3.58-5.5-4.16-3.85-13.69-10.51-18.63-13.81ZM579.13,409.98c2.45-1.79,6.31-5.42,9.38-5.67,2.51-.2,7.51,4.88,10.75,5.33,5.01.7,8.51.04,11.47-4.16.01-.89-7.41-5.08-8.8-5.82-2.02-1.08-15.28-7.1-16.33-7.1-.29,0-5.31,1.24-5.54,1.41-.7.55-.94,1.93-1.64,2.5-3.27,2.71-17.74,13.81-15.05,18.42,6.86,4.99,10.99-1.45,15.75-4.93ZM331.29,488.53c.41-.63,1.99-.76,2.34-1.79,1.43-4.16-5.94-7.45-9.04-8.58l-5.53,10.29-6.25,7.5c1.79,8.14,5.36,7.58,10.79,2.73,3.01-2.69,5.58-6.92,7.68-10.16Z"/>
</svg>