<?xml version="1.0" encoding="UTF-8"?>
<svg id="Camada_1" data-name="Camada 1" xmlns="http://www.w3.org/2000/svg" viewBox="0 0 1024 768">
  <defs>
    <style>
      .cls-1 {
        fill: #413253;
      }
    </style>
  </defs>
  <path class="cls-1" d="M834.58,232.58c21.55-19.75,72.88-59.85,101.17-64.33,30.5-4.83,11.01,19.22,5.49,34.49-8.77,24.26-11.59,50.31-19.78,74.22-8.4,24.53-23.18,48.61-31.2,72.8-3.09,9.31-4.45,17.36-2.8,27.29,14.52,35.43,29.08,69.67,39.26,106.74,4.69,17.07,7,34.51,14.1,50.9,2.56,5.9,12.9,21.57,12.02,26.58-1.57,8.95-14.02,4.66-19.61,3.01-30.67-9.04-71.85-38.88-95.25-60.75-15.79-14.76-50.08-57.97-69.72-61.28-9.29-1.56-17.75.31-25.93,4.6-1.88.99-13.86,8.85-14.24,9.76-.26.61-.53,2.41.51,2.48,38.99,9.08,10.66,27.82-1.99,46.04-18.35,26.44-33.02,63.17-22.64,95.42,2.74,8.53,15.86,24.07-2.47,22.48-8.97-.78-27.57-12.23-35.63-17.38-28.49-18.19-50.78-43.33-77.84-63.21-11.5,3.16-22.67,8.3-34.27,11.84-5.96,1.82-12.72,3.73-18.76,5.24-4.57,1.14-30.97,5.25-32.01,6.51-2.46,2.98,7.1,5.61,9.34,7.15,25.15,17.29,5.08,63.63,11.16,87.84,1.59,6.31,7.28,12.84,3.89,19.05-9.23.04-18.44-4.29-26.41-8.54-44.05-23.47-74.45-64.54-104.01-102.99-35.2-5.28-69.93-13.82-103.97-24.03-51.74-15.51-106-41.86-150.32-72.68-10.68-7.42-43.56-31.96-49.11-41.89-2.9-5.18-5.01-16.32,1.68-19.18,8.09-3.45,33.34,6.04,43,8.48,7.12,1.8,14.44,3.64,21.74,4.76.45-1.73-.72-2-1.49-3-8.5-11.08-44.9-21.97-58.88-29.12-7.78-3.97-10.18-9.3-7.15-17.91,1.91-5.44,14.83-18.54,19.5-23.49,70.03-74.26,164.39-145.53,265.21-169.79,7.23-1.74,15.07-2.25,22.04-3.96,10.52-2.58,20.53-16.63,28.77-24.23,45.53-42.05,103.49-84.15,161.05-107.95,11.6-4.8,43.23-19.32,31.52,7.52-4.75,10.88-20.95,21.31-7.57,33.47,4.37,3.97,12.87,5.12,14.58,10.43,2.4,7.49-7.99,17.46-3.8,27.8,3.08,7.58,19.5,11.87,21.79,19.2,2.72,8.69-6.15,17.71-5.61,25.54.59,8.61,15.38,11.95,16.89,19.25,2.27,10.96-20.78,20.88-3.84,35.78,28.7,16.01,79.86,66.26,113.4,62.38,21.66-2.5,51.79-38.28,68.19-53.31ZM576.98,75.02c-2.98-1.25-5.77.63-8.66,1.81-20.95,8.58-53.83,32.38-72.65,46.34-14.06,10.43-38.88,29.45-49.18,42.82-.77,1-1.94,1.27-1.49,3,10.97,4.3,13.99-4.45,20.98-10.51,21.11-18.28,45.18-36.12,68.49-51.51,11.05-7.3,30.49-16.53,39.45-24.55,1.94-1.74,3.54-4.74,3.05-7.4ZM594.73,105.74c1.95-2.34.76-6.68-1.75-8.28-1.04-.71-2.08-.38-3.19-.26-5.76.59-29.93,14.77-36.47,18.63-25.25,14.92-49.5,32.5-69.33,54.16l9.99.49c22.92-20.39,48.94-38.47,75.99-53,3.68-1.98,23.88-10.69,24.75-11.74ZM603.77,129.24c-2.75-2.81-10.64.78-14.03,2-8.72,3.13-19.25,8.98-27.41,13.59-3.48,1.97-43.59,27.1-41.33,30.16,1.54.13,2.96,1.05,4.53,1.07,6.09.07,26.73-15.32,33.8-19.22,13.29-7.34,31.63-12.55,43.36-19.63,3.27-1.97,3.91-5.06,1.06-7.97ZM613.83,155.18c-3.6-2.22-21.72,5.96-26.19,7.96-2.25,1.01-32.96,16.56-30.64,18.85,11.51,4.11,19.27-3.48,29.03-7.46,4.82-1.97,27.07-8.96,28.66-10.82,1.78-2.08.67-7.59-.86-8.54ZM591,192.99c4.58.73,7.52,2.49,12.41,1.93,1.62-.19,17.74-4.57,18.88-5.13,4.38-2.16-.14-8.05-5.65-7.74s-19.1,6.23-24.22,8.86c-1.04.54-1.89-.53-1.42,2.08ZM440,197c-13.7-.64-27.86.74-41.36,3.15-5.58.99-15.31,2.9-20.48,4.52-1.14.36-2.66.67-3.09,1.97l29,60.8c1.76.66,3.67,1.24,5.54,1.46,4.87.57,11.77.9,16.84,1.16,12.41.63,10.98-1.14,12.42-12.67,2.46-19.7.45-40.51,1.13-60.38ZM456.7,197.2c-1.54.46-2.47,1.75-2.67,3.32.63,5.72-.79,11.3-1.03,16.9-.3,6.79-1.42,21.16-.81,27.1.14,1.34.61,3.29,1.82,3.98,1.78,1.03,20.69,3.06,24.51,3.49,8.34.94,17.41.9,25.86,2.14,6.31.93,18.21,4.92,23.17,4.92,1.62,0,2.46-.15,3.43-1.54-6.23-10.54-16.57-11.03-27.49-12.5-5.17-.69-37.84-2.81-39.51-4.47l-.12-41.9-1.5-1.5c-1.82-.26-3.89-.47-5.66.06ZM486.85,198.14c-2.6.02-9.79-1.31-10.71,1.5l.35,28.38c1.71,3.43,25.7,6.38,29.52,4.49.95-.47,1.41-1.28,1.76-2.24.84-2.33,4.15-21.66,4.07-24.08-.17-5.18-5.26-7.28-8.89-4.74-5.07,3.55,3.48,34.12-16.97,20.88-.92-4.01,3.48-22.54.88-24.18ZM528.55,205.03l-1.53,2.44,12.47,13.53c1.53-.35,4.24-10.35,3.08-12.04l-14.02-3.93ZM914.99,206c-1.75-.31-3.12.24-4.71.78-17.25,5.78-46.43,28.96-60.75,41.25-16.6,14.23-31.03,30.7-47.29,45.2-.41,3.34,1.41,8.98,5.32,5.82,27.84-29.27,60.28-52.82,93.54-75.46,7.72-5.25,14.61-5.49,13.91-17.58ZM406.31,283.31c-2.3,3.11-1.93,10.3-9.36,5.24-11.91-25.94-18.71-54.3-34.96-78.1-3.55-.51-9.39.37-7.79,4.82,15.71,24.18,25.85,52.24,32.7,80.13,8.77,2.88,17.78,4.39,27.06,3.55.4-3.49,2.35-14.52.61-17-1.55-2.21-6.96-.38-8.25,1.36ZM562.87,213.13l-6.42-1.83c-1.07.16-1.63,1.78-1.97,2.68-5.48,14.67-9.44,40.77-12.17,56.83-4.54,26.73-8.24,55.66-8.35,82.75-.01,2.88-.01,14.64,1.99,15.98,24,1.24,48.42-.29,72.49.49,3.72.12,23.63.99,24.38,2.14,1.92,8.56.44,17.71,1.28,26.22,1.01,10.19,5.1,26.99,7.76,37.24,2.19,8.41,7.88,28.15,11.91,35.09,2.76,4.75,7.52.8,8.84-3.19-9.27-23.11-16.46-46.3-19.49-71.15-.67-5.49-1.18-29.61-3.03-31.97-3.13-4-83.98-3.02-95.21-5.98-2.35-23.74.66-49.04,4.4-72.63,3.86-24.33,11.13-48.21,13.58-72.66ZM601.77,319.78c-1.28,1.62-28.25-1.98-31.16-3.89-4.17-2.73-2.13-13.63-1.59-18.38,2.79-24.81,9.89-49.63,14.84-74.06-.15-4.77-7.68-7.76-9.6-2.7-7.65,35.25-16.19,70.49-18.27,106.66-.18,3.09-1.01,13.52.18,15.87,2.44,4.8,24.76,3.32,30.32,3.72,14.26,1.03,32.21,4.39,45.97,4.01,2.32-.06,5.82.29,7.55-1.51,1.94-2.02,5.23-31.66,6.46-37.54,3.06-14.6,11.36-32.31,13.32-45.72.88-6.01-2.28-10.78-7.85-7.82l-9.57,28.49c-14.44-1.72-28.56-6.13-43.01-7.77-3.44-.39-10.84-1.9-13.35.37-1.86,1.68-5.13,26.36-3.42,27.6,2.32,1.68,6.76.72,8.47-1.56,3.56-4.76-.7-15.25,8.53-16.52,6.32,1.29,34.5,3.82,37.97,6.9.58.51,1.08,1.02,1.29,1.79l-6.78,43.85c-12.61,1.71-25.07-1.52-37.58-2.56-5.36-.45-25.36.73-28.51-2.48-3.39-3.46-.11-8.68,4.58-9.46,7.43-1.25,33,4.74,36.81,2.02,3.01-2.15-.1-13.03,3.68-15.54,12.35-4.12,8.47,7.03,9.91,12.8.62,2.48,3.17,1.65,4.22-1.66,1.78-5.57,1.19-11.75,3.52-17.19-.37-3.67-20.22-4.63-23.56-4.35l-3.37,16.65ZM277,512.01c-2.24,3,11.07,5.72,13.69,5.2,9.75-1.94,36.01-20.91,43.83-28.19,43.05-40.03,53.06-115.81,43.18-171.24-4.42-24.8-20.74-77.14-37.29-95.7-4.39-4.92-5.48-2.36-11.34-1.01-1.65,2.4,4.19,8.11,5.72,10.62,31.3,51.05,44.44,109.46,33.46,169.1-9.58,52.05-38.38,96.19-91.26,111.21ZM522,222c-2.61,5.67,5.12,18.04,9.95,19.58s5.74-4.43,3.92-7.94c-.97-1.88-12.19-13.37-13.87-11.64ZM633.23,246.22c-2.78,3.09-1.09,14.88-6.95,16.59-1.73.5-22.18-3.36-24.23-4.36-7.55-3.7,1.06-21.97.78-28.87l-7.34-4.48c-1.86.14-3.52,8.99-3.99,10.88-1.24,5.02-5.13,22.18-4.08,26.09.74,2.75,5.16,3.61,7.74,4.28,8.3,2.17,27.77,6.82,35.66,7.43,1.7.13,3.62.21,4.94-1.05,1.04-1,6.33-19.33,6.32-21.27-.03-3.91-6.69-7.62-8.83-5.25ZM308.68,231.14c-2.74,1.65-17.94,8.58-18.58,10.51-.98,3,8.15,12.39,10.47,15.3,1.54.34,2.04-1.29,2.65-2.25,1.7-2.7,8.17-19.84,7.72-22.16l-2.25-1.41ZM613.01,234l-2.87,13.28c4.58,5.16,9.61,4.19,10.58-3.05s-1.09-8.41-7.72-10.23ZM332.01,255c2.82-2.7-6.13-14.96-8.17-17.34-.89-1.04-.97-2.1-2.83-1.66l-11.83,31.74c3.53,16.47,24.93,15.37,36.81,23.25,2.1-1.72-1.96-13.28-3.96-15.56-1.53-.97-3.08,1.42-5.51,1.66-4.77.48-14.14-3.21-16.26-7.88-2.84-6.25,4.57-16.22,11.75-14.21ZM819.42,314.42c26.44-18.08,51.53-38.37,80.1-53.41,4.32-3.39,4.08-9.06,6.46-13.53l-2.36-1.41c-31.9,19.36-63.2,39.93-90.67,65.37-1.79,1.9-.82,3.79,1.09,5.09,3.32,1.6,4.02-1.18,5.39-2.12ZM184.36,470.63c14.41,4.83,29.59,18.98,45,18.2,104.22-5.27,106.96-163.96,51.61-225.3-9.18-10.17-12.25-8.62-23.5-2.56-36.65,19.76-81.28,57.53-111.03,86.98-2.79,2.77-19.94,20.95-20.39,22.61-.55,2.05.49,1.14,1.35,1.52,15.86,6.94,28.78,12.68,42.93,23.08,8.72,6.42,28.24,21.77,27.7,33.29-.12,2.5-2.44,12.59-4.7,13.37-3.65,1.26-18.56,1.36-22.87,1.22l-37.45-4.03,51.35,31.62ZM457,311l5.92-47.38c-.75-2.64-8.65-1.75-10.98-1.19-1.84,1.28-.67,11.05-.95,14.05-1.06,11.53-4.15,25.74-4.08,37s12.32,7.01,20.63,7.46c7.88.43,16.04,1.68,23.92,2.08,10.08.51,20.31.76,30.4.82l3.92-51.66c-6.97-3.69-45.42-9.41-50.79-6.72-1.99,1-2.75,5.84-2.97,8.03-.36,3.66-1.31,19.88-.79,22.97.27,1.57.44,3.12,1.26,4.53l24.06,2.84c6.9-.19,6.07-11.17,4.87-15.97l-6.4-.87c.21,7.79-3.18,9.33-10.52,7.98-5.43-1-3.79-15.7-2.35-19.86,4.88-.13,30.63.91,32.37,3.85.97,11.53-.24,23.63-1.97,35.05-2.33,3.33-32.42-1.47-38.05-2.03-5.65-.57-11.81-.51-17.5-1ZM673.2,298.77c-1.21-1.63-.62-3.36-.17-5.16.98-3.96,7.03-16.8,6.98-19.16s-5.34-4.53-7.54-5.14c-3.25.36-10.91,27.21-10.56,31.2.71,8.18,14.14,7.15,19.99,6.4l-.39-4.93-8.31-3.21ZM689.24,445.75c2.05,2.53,7.3-.51,8.3-2.79.61-1.39-.77-8.4-.53-11.46.36-4.53,2.92-10.85,5.17-14.82,1.79-3.17,6.58-6.74,5.67-9.97-.33-1.2-14.15-16.36-16.34-18.73-6.37-6.88-17.46-15.47-22.51-22.49-1-1.39-2.37-2.87-1.87-4.79.67-2.61,35.62-30.17,40.88-35.2,2.14-2.05,6.03-5.01,6.07-7.99.05-3.8-7.01-12.06-8.81-16.3-1.4-3.31-1.64-7.7-2.82-10.18-.81-1.69-10.13-9.04-11.91-9.08-.86.51-1.45,2.77-1.49,3.65-.38,8.32,14.09,26.92,12.81,31.66-11.88,10.53-25.31,19.29-36.87,30.21-4.34,4.1-13.69,10.78-10.03,17.07,2.42,4.18,15.69,15.25,20.08,19.92,3.15,3.35,19.72,20.39,20.48,22.58s-7.7,17.1-8.42,22.53c-.45,3.42.08,13.62,2.15,16.17ZM438,283c-13.15-2.01-11.17,8.43-10.9,17.91l7.75.96c2.82-5.88,3.5-12.44,3.15-18.88ZM890.99,289.01l-3.71.78-67.35,42.95c-1.42,2.18.41,5.82,3.33,5.12l62.98-34.84c3.36-3.82,5.3-8.87,4.76-14.01ZM321,295.01c1.67,6.8,4.6,13.26,6.5,19.98.98,3.46.43,10.04,3.98,11,1.15-.25,13.52-16.91,14.39-18.67,4.22-8.52-19.26-12.29-24.87-12.32ZM735.29,327.69c5.25,4.27,12.98-4.71,16.22-8.68,1.88-2.3,5.34-5.68,1.47-7.51-6.41-3.04-10.09,5.5-14.26,4.36-2.5-.68-6.01-7.99-8.7-10.38-1.92-1.7-9.39-7.1-8.3-1.73.87,4.3,10.34,21.31,13.57,23.94ZM422.75,322.25c1.29,1.23,1.61,5.44,3.75,6.73,5.41-2.77,12.22-12.97,3.71-15.72-9.81-3.17-25.3-.44-35.73-3.35l-2.49.58c-2.58,1.95-2.38,7.31.67,8.35,2.84.97,14.53.65,18.82,1.18,2.29.28,10.13,1.15,11.26,2.24ZM783.96,310.04c-1.91-1.33-13.23,8.16-15.43,9.99-5.39,4.47-25.38,25.63-29.25,26.79-8.06,2.4-13.45-17.38-21-14.07l-32.9,30.23.07,1.99,30.26,28.89c8.29.35,13.51-17.96,21.28-14.35,2.03.94,8.48,8.76,11,11,8.65,7.67,21.5,20.41,30.5,26.5,1.18.8,5.42,3.24,6.55,2.55,11.07-20,20.2-42.64,16.84-65.95-2.32-16.15-10.83-29.34-17.93-43.58ZM358.01,337.01c.8-2.87-1.33-21.14-4.51-20.99-3.5,6.63-18.42,21.27-19.46,27.6-.76,4.6,2.44,11.11,5.13,14.71,2.71,2.64,15,18.3,17.31,18.7,1.99.34,1.51-.68,1.98-2.03,1.16-3.36,2.42-12.19,1.39-15.35-1.09-3.35-6.44.86-11.35-2.66-10.08-7.22-3.42-23.41,9.51-19.99ZM676,320.01c-4.58-.38-14.74-4.06-18.59-1.1-2.42,1.86-5.47,16.33-3.92,19.11,1.29,1.73,1.44.33,2.52-.52,3.03-2.39,5.38-5.92,8.67-8.33,4.16-3.05,11.03-3.98,11.33-9.16ZM408.64,339.64c1.41-1.52,3.85-5.57,1.4-7.19l-16.11-1.03c-2.06,1.44.63,15.46,1.08,18.57l13.63-10.35ZM873.99,331c-7.87,3.44-15.13,8.03-23.03,11.46-6.82,2.96-21.39,6.49-26.32,9.67-3.93,2.54-2.16,3.92-1.63,7.86,12.63-4.35,29.07-7.34,40.67-13.81,5.95-3.32,10.15-8.11,10.31-15.18ZM455.5,384c5.92.92,13.82-.67,20,0,1.92,0,2.5-8.91,0-10h-22c-.68,0-6.11-3.42-6.41-4.69-1.93-8.07,16.01-6.41,20.47-6.34,3.1.05,19.4,1.02,20.45,1.53.87.42,1.51,1.29,1.79,2.21,1.16,3.96,3.51,24.72-.77,26.81-1.02.5-9.49,1.39-11.48,1.52-8.15.54-27.05.82-34.28-1.81-2.47-.9-6.09-3.98-8.28-5.72-3.16-2.52-19.66-17.58-20.02-20.07-.66-4.47,10.38-13.08,14.12-15.86,14.97-11.11,24.19-9.25,42.45-8.63,10.6.36,25.75.84,35.98,2.02,8.43.97,4.61,5.06,4.44,10.48-.81,25.75,3.08,47.28,5.02,72.05.5,6.34,1.14,9.61-5.73,11.24-14.08,3.34-43.58,4.94-58.7,5.27-3.96.09-17.17,1.43-18.35-2.72-2.13-7.51-.05-32.17-11.83-32.98l-30.43,1.11-14.93,44.57,11.48-4.01c2.39-5.95,5.34-26.13,9.02-29.98,2.39-2.51,20.3-4.23,22.96-.99,3.92,4.76,4.09,31.32,5.48,32.45,15.42,3.54,31.47,3.75,46.3,9.76,10.91,4.42,16.14,7.44,9.56,19.09-9.28,16.45-45.77,45.68-64.56,48.43-16.2,2.37-46.91-15.56-63.01-21.51-9.92-3.67-14.02-7.44-13.29,6.3.34,6.37,2.39,13.3,3.05,19.71.53,1.15,6.07,2.45,7.56,2.69,2.95.48.44-1.15.44-1.44v-16c0-.47-2.65-2.95.48-2.5,7.75,1.12,24.73,11.61,31.82,16.19,12.9,8.34,10.66,13.36,28.89,9.51,23.83-5.04,78.46-41.91,81.71-67.28,1.77-13.8-4.81-13.89-14.58-18.25-.52-.23-4.86-2.15-3.84-3.18l50.37-8.13c1.83-1.55-2.33-24.23-2.73-28.49-.81-8.61-.92-17.28-2.17-25.83l-.06-53.45c-12.07-.8-24.33-3.24-36.41-4.08s-33.19-2.52-44.48,1.5-28.03,18.36-37.02,26.98c-1.47,1.41-4.6,3.69-3.93,5.88l40.46,36.61c20.29.35,40.55.28,60.54-3.42l-1.05-44.57c-13.56-.17-27.95-1.94-41.44-1.38-2.35.1-5.96.05-8.02.44-3.84.73-17.65,9.71-16.41,14.22,1.11,4.01,17.03,14.05,21.36,14.72ZM334.01,397.99c1.15,1.2,16.04-7.23,16.03-10.5,0-1.34-10.68-12.97-12.55-13.48-2.24-.56-1.75,3.09-1.95,4.52-.87,6.33-.37,13.07-1.52,19.46ZM875,404.99c-1.13-4.86-3.75-11.63-8.08-14.41-6.3-4.03-23.04-11.24-30.38-13.62-2.23-.72-13.38-4.13-14.54-2.97-.01,2.69-.71,5.92,2.05,7.46l29.17,11.83,21.78,11.71ZM411.99,395.99c1.17-1.02-7.83-9.51-8.98-10.51-1.61-1.4-7.15-6.78-8.54-4.52-4.79,18.44,2.84,16.42,17.53,15.02ZM627.87,428.88l-5.8-46.45-86.07-1.44v11.01h78s1.83,26.83,1.83,26.83c-2.03,3.33-35.98,5.5-42.05,6.44-3.26.5-8.49,1.14-10.64,3.36-1.54,4.54,3.93,33.78,5.34,40.41,1.38,6.47,10.24,41.36,14.53,43.5,2.63,1.31,5.04-.57,7.05-2.13-6.52-20.03-14.16-42.94-15.92-64.04-.55-6.58-1.65-10.4,5.62-12.12,14.75-3.49,32.96-2.64,48.12-5.37ZM669,397.99c.69-.91-10.92-13.05-12.45-14.04-1.23-.8-1.99-1.24-3.54-.95,1.63,13.91-1.02,20.57,15.99,14.98ZM888.99,446c1.22-1.63-2.73-14.52-5.47-16.02l-62.51-35.98c-.66,2.84-2.25,7.01-.02,9.51l68,42.48ZM718.73,430.73c.56-.46,4.65-10.35,6.45-13.05,2.51-3.76,5.35-7.42,9.49-9.48,4.13-.47,10.64,9.22,12,9.67,1.67.56,9.2-.96,9.3-2.37-4.1-5.38-16.45-19.79-23.21-18.28s-24.37,28.31-22.76,36.77c.31.35,8.37-2.97,8.73-3.26ZM335.77,453.76c.84-.96,2.25-7.7,2.04-9.06-.74-4.79-8.41-6.99-5.36-16.76,2.63-8.44,14.67-7.78,18.02-10.97,1.75-1.67,5.54-15.59,4.52-16.97-4.76,4.6-23.71,13.65-25.73,18.76-1.16,2.94-4.62,15.01-5.04,18-.18,1.29-.35,2.32-.2,3.65.36,3.07,8.27,17.3,11.75,13.36ZM548.2,416.2c3.42-5.91,40.81-3.43,48.18-4.31,3.93-.47,11.28-3.3,6.13-7.91-3.05-2.73-32.76.06-39.06-1.03-5.77,2.49-23.01-1.9-25.81,4.03-1.37,2.9,3.58,33.38,4.63,39.25,4.65,25.99,10.98,53.43,23.22,76.76,1.55-1.75,7.64-2.67,7.39-5.31-.16-1.73-5.76-12.92-6.9-16.16-9.51-27.05-14.89-56.85-17.78-85.32ZM677.73,409.25c-3.75-.04-18.17,1.11-18.78,5.28-.48,3.28,7.27,28.27,9.01,33.01,1.02,2.78,3.27,10.38,6.51,10.45,2.13.05,6.1-2.68,5.37-5.22l-10.72-33.18c.65-2.6,9.51-1.94,11.43-5.57,1.16-2.18-.45-4.73-2.82-4.75ZM473.99,412c-3.95-2.93-14.39,19.94-3.39,20.98,11.28,1.07,4.93-14.82,3.39-20.98ZM493,430c10.19,1.21,15.12-.91,9.77-11.27-2.37-4.59-5.34-4.22-9.77-2.73v14ZM906,493.99c-.51-6.88-3.11-15.47-8.5-19.99-15.76-13.21-39.45-26.66-56.83-39.17-4.66-3.35-22.31-18.76-26.08-18.81-4.32-.05-5.84,4.67-2.5,7.4l48.01,37.98,45.9,32.59ZM454,433v-14.5c-1.36-2.24-8.47-2.12-9.56-.56-1.07,8.99-2.35,17.25,9.56,15.06ZM403,452l10.56-.94c1.5-2.15-.3-20.12-2.51-21.62-4.36-2.78-8.05,5.18-8.05,8.06v14.5ZM911.99,526.99c1.63-10.89-10.75-14.22-17.91-19.58-21.77-16.33-44.58-35.01-65.1-52.9-4.09-3.56-19.89-20.32-23.57-20.53-2.48-.14-4.48,2-4.18,4.34.21,1.62,19.85,20.47,22.75,23.19,18.23,17.09,39.48,35.87,60.1,49.9,2.96,2.02,26.32,17.28,27.91,15.58ZM631.87,441.13c-12.58,1.36-25.78,1.59-38.24,3.99-1.97.38-6.28.94-7.12,2.81,2.28,19.03,8.63,37.22,15.6,54.94l6.7-2.06-11.78-46.77c7.23-.42,21.64-5.21,27.69-1.27,3.77,2.45,9.36,19.5,11.33,24.68.97,2.57.18,7.01,4.04,6.07.97-.24,4.86-2.74,5.25-3.79l-13.47-38.6ZM302,473.99c5.54,1.29,12.63,2.37,17.5-.99,10.38-7.16,2.75-13-3-19.98l-14.5,20.97ZM511.01,481c1.6.36,2.04-.56,3.02-1.47,3.07-2.84,12.38-13.56,14.96-17.04.79-1.06,2.68-2.83,1.04-4.02-2.51-1.42-21.15,1.38-22.59,3.49-.97,6.26,2.11,12.96,3.57,19.04ZM619.99,463.99l-7.85,2.14c-1.94,2.99,4.59,22.06,6.98,25.25,2.52,3.36,7.71-.01,7.84-2.83.2-4.41-7.15-18.62-6.97-24.55ZM366,475.99c18.95,2.21,38.41.97,57.49,2.02,8.05.44,19.81,3.2,27.03,3.09s8.31-5.96.29-8.41c-13.47-4.11-45.68-3.79-61.25-3.72-5.7.03-15.65-.52-20.82,1.05-1.17.36-3.42,5.18-2.74,5.98ZM704.7,474.15c-8.4,2.08,4.69,10.09,8.04,10.67,4.73.82,5.74-3.55,3.27-6.33-1-1.13-9.68-4.74-11.31-4.33ZM500.36,501.65c1.62,1.75,11.95,11.01,13.38,11.22.96.14,1.37.05,2.24-.33,3.9-1.76,15.77-23.79,20.31-27.84l-.77-7.71h-3.04c-3.16,2.7-15.09,21.27-17.17,21.89-3.54,1.05-9.77-6.66-12.8-8.86l-5.24,7.49c1.15,1.25,1.97,2.92,3.1,4.14ZM301,487.99c.33-4.34-8.32-3.39-11.05-2.54-2.4.74-6.08,4.9-8.62,6.38-4.85,2.82-10.13,5.29-15.11,7.93-1.25.66-2.8-.69-2.2,2.25,13.81.59,24.76-9.15,36.99-14.01ZM423,509.99c.51-.65-2.76-2.6-3.47-3.01-8.8-5.08-49.18-20.04-58.07-19.02-1.5.17-2.49.1-3.43,1.55,2.12,2.5,5.13,3.67,8,4.98,11.08,5.07,27.53,11.25,39.2,14.8,6.7,2.04,10.9,3.65,17.78.7ZM439.75,496.76l.76-2.78c-.94-1.07-1.84-2.25-3.25-2.74-2.44-.86-25.74-2.58-27.25-1.23.07,4.24,5.31,4.31,8.46,5.11,4.19,1.07,18.53,4.16,21.29,1.65ZM703.81,497.19c-4.15-2.04-19.8-13.54-20.86-3.64-.34,3.2,14.18,11.41,16.58,11.46,2.63.05,5.56-5.61,4.28-7.82ZM543.95,500.05c-.59-.49-3.71-.16-4.43.97-3.45,3.51-19.78,28.27-22.2,28.89-1.87.48-4.32-1.85-5.79-2.94-7.91-5.87-15.75-14.22-23.03-20.95-2.56,3.46-6.54,6.3-3.19,10.69,9.16,6.17,20.79,23.82,32.94,22.07,1.2-.17,7.87-2.44,8.51-3.04,1.47-1.37,7.52-13.07,9.44-16.06,1.48-2.32,8.25-10.14,8.63-11.4.42-1.39-.38-7.83-.87-8.24ZM664.64,507.12c-.63.18-2.04,1.17-1.18,1.9.53,2.17,7.91,7.1,10.23,8.79,2.54,1.85,11.01,8.03,13.29,8.77,1.38.45,2.49.8,3.54-.56,2.55-3.91,1.86-5.76-1.58-8.45-4.12-3.23-19.57-11.77-24.29-10.45ZM330,514c-3.33-.24-16.99,9.08-17.01,11.49,3.07,1.1,11.92,4.55,14.58,4.5.93-.02,2.43-.92,2.43-1.49v-14.5ZM546.34,523.34c-.81.85-2.81,4.01-3.38,5.14s-1.28,2.16.56,2.52l8.4-3.58-1.93-6.42c-.17-.13-3.17,1.85-3.64,2.34ZM681.73,544.29l-35.41-23.15-2.24,1.48c-1.42,4.9,11.49,14.19,15.45,17.35,3.63,2.89,13.89,11.08,17.52,12.48,1.28.49,2.5.89,3.88.47.48-2.51,2.73-6.45.81-8.63ZM491.47,538.57c-2.13-2.53-14.18-14.06-16.51-15.09-3.06-1.34-6.9,2.45-5.49,5.5.43.93,13.63,14.12,14.57,14.54,2.45,1.12,5.45-.38,7.95-1.04,2.78-2.62.27-2.98-.51-3.91ZM376,539.99c-1.69-5.35-7.28-6.32-11.67-8.85-2.86.2-2.62,2.46-1.58,4.61,1.91,3.92,9.31,4.58,13.26,4.24ZM672.36,572.63c-7.84-7.69-19.92-15.23-28.84-22.65-3.93-3.27-12.93-13.27-15.97-15.03-4.02-2.32-7.6-1.01-5.82,3.72,2.82,7.46,24.27,26.32,31.35,31.74,3.44,2.63,19.24,13.57,22.4,13.6.76-2.08.95-6.33.33-8.34-.55-1.79-2.36-1.98-3.46-3.05ZM447,544h15.5c.15,0,2.62-1.2,2.49-1.49-5.5-9.66-9.44-6.52-16.73-.8-.82.64-1.83-.04-1.27,2.29ZM499.84,607.2c-.3-.18-1.74.81-2.76.29-9.78-5-36.48-29.28-40.81-30.26-1.74-.39-3.51-.26-5.27-.23-.77.65,5.62,7.89,6.35,8.64,4.28,4.45,10.97,10.79,15.64,14.86,3.34,2.91,29.32,23.26,32.01,20.48-.17-2.33.46-5.07-.2-7.29-.12-.39-4.6-6.29-4.95-6.5ZM487.39,584.58c6.06,2.34,11.06,8.12,16.96,10.59,1.24.52,2.18,1.03,2.63-.74,2.16-8.51-19.89-18.21-26.97-16.43l7.38,6.57ZM469.38,616.61c-3.37-2.98-6.73-6.37-9.89-9.6-2.29-2.33-23.77-28.96-26.48-26.01,2.86,10.31,12.23,21.02,19.48,29.01,13.64,15.02,31.19,29.3,49.51,37.98,1.98-10.14-5.61-11.06-11.9-15.59-6.74-4.86-14.55-10.35-20.71-15.8Z"/>
  <path class="cls-1" d="M203.29,468.72c-1.98-2.36-1.72-8.49,1.37-9.56,12.06,1.35,23.42,3.12,35.71.72,22.09-4.31,39.17-28.93,45.91-49.09,5.43-16.25,10.3-54.06,4.24-69.81-1.76-4.56-8.98-8.65-9.36-12.67-.29-3.07,4-2.81,4.61-3.53,2.07-2.41-.03-7.76-2.41-9.66-5.15-4.1-23.36-12.25-30.1-14.89-4.31-1.69-24.53-6.61-25.22-9.84-.44-2.08,16.14-12,19.04-13.81,4.12-2.56,14.43-9.6,18.21-10.84,4.97-1.63,8.71,3.34,11.68,6.78,29.68,34.4,37.21,100.75,24.28,143.24-10.74,35.32-43.75,71.64-84.04,59.52-2.41-.72-12.71-5.11-13.93-6.56ZM278.99,299.99c.8-.8-8.42-18.36-11.03-19.54-2.46-1.11-14.06,4.79-14.96,7.06-.71,1.78,1.12,1.56,1.94,1.99,7.66,3.93,16.33,6.59,24.04,10.49Z"/>
  <path class="cls-1" d="M253.65,314.35c23.38,22.48,13.21,67.66-22.17,70.63-32.02,2.69-50.48-26.12-40.26-55.26,8.93-25.45,43.03-34.02,62.42-15.37ZM226.5,323.57c-29.98-.42-31.75,46.12.99,45.51,27.72-.52,27.21-45.12-.99-45.51Z"/>
  <path class="cls-1" d="M275.82,391.19c6.5,3.71-2.02,25.78-5.01,31.12-6.5,11.59-16.85,21.74-29.97,25.03-6.3,1.58-23.12,3.71-21.8-6.74.16-1.3.85-3.39,1.98-4.08,2.69-1.64,14.39-2.4,18.96-4.04,7.41-2.66,15.59-10.57,19.85-17.15,3.07-4.74,9.4-22.89,12.89-24.15.93-.33,2.23-.48,3.11.02Z"/>
  <path class="cls-1" d="M782.77,403.77c-4.58,4.59-8.86-3.44-11.89-6.09-9.02-7.9-21.76-18.68-28.87-28.18-3.11-4.15-3.74-6.14-.54-10.54,7.91-10.91,26.07-21.77,34.48-33.5,5.75-5.58,10.18,7.82,11.82,12.28,5.22,14.18,6.11,28.65,2.94,43.47-.64,2.97-6.65,21.27-7.93,22.56ZM777.99,342c-1.5-.41-1.66.4-2.5.98-1.72,1.19-5.66,4.85-7.5,6.5-4.5,4.05-9.61,9.21-13.02,14.02.01,2.18,18.65,22.05,21.52,22.52,2.19.36,1.21-.43,1.53-1.48,1.16-3.74,1.55-8.17,2.89-11.96-.57-2.27-13.36-.9-12.97-9.1.3-6.39,8.44-5.65,13.07-5.47l-3.02-16Z"/>
  <path class="cls-1" d="M717.72,345.15c.92-.26,1.65-.3,2.58-.03,2.04.61,11.87,15.38,11.69,18.3-.19,3.14-12.06,16.67-15.49,16.68-2.2,0-13.36-10.47-14.55-12.55-1.53-2.66-1.5-5.5,0-8.11.97-1.69,14.15-13.84,15.78-14.29Z"/>
  <path class="cls-1" d="M390.08,212.09c1.32-1.87,30.18-5.03,34.39-5.14,2-.05,4.48-.41,6.1.99,2.01,2.88-.16,42.63-1.81,48.31-2.05,7.03-15.57,6.33-19.76,1.26-6.91-8.35-10.46-30.45-18.04-39.96l-.88-5.47ZM416.3,240.68c.86.75,2.01,1.17,3.14,1.3,3.3-.7,2.01-16.56,1.41-19.33l-1.49-1.5c-6.63-.6-9.11-1.12-8.29,6.26.27,2.37,3.59,11.84,5.22,13.27Z"/>
  <path class="cls-1" d="M224.64,331.32c17.34-.99,19.71,29.07.76,29.59s-19.19-28.53-.76-29.59Z"/>
</svg>