<?xml version="1.0" encoding="UTF-8"?>
<svg id="Camada_1" data-name="Camada 1" xmlns="http://www.w3.org/2000/svg" viewBox="0 0 1024 768">
  <defs>
    <style>
      .cls-1 {
        fill: #413253;
      }
    </style>
  </defs>
  <path class="cls-1" d="M796.58,575.58c-3.33,4.42-5.53,10.11-9.54,13.96s-9.66,5.72-13.95,9.05c-4.63,3.59-7.78,8.99-11.59,12.41-5.32,4.79-17.25,12.72-24.02,17.98-6.78,5.27-18.69,9.53-20.24,18.76-.76,4.49.25,9.24-.33,13.67-3.05,23.57-37.49,39.06-56.93,47.07-5.63,2.32-16.33,7.34-21.72,8.28-4.89.85-10.2.32-15.49,1.51-7.62,1.71-16.28,6.87-24.35,7.65-4.86.47-10.08-.43-14.83.17-4.97.62-11.08,3.75-16.34,4.66-14.19,2.48-31.98,1.55-46.73,2.27-11.98.58-15.44-.18-27.03-1-21.48-1.52-47.49.52-68.52-4.48-20.18-4.8-40.38-7.92-59.95-16.05s-39.18-20.27-53.51-35.49c-11.87-12.61-6.34-18.52-10.35-32.65s-19.85-18.34-30.48-25.52c-8.71-5.88-24.96-17.84-31.64-25.36-5.15-5.79-9.09-12.87-14.51-18.49-4.61-4.77-13.89-10.23-16.97-15.03-2.83-4.41-2.79-10.16-5.34-14.66s-8.11-8.87-11.18-12.82c-15.6-19.99-22.52-44.6-32.54-67.46-2.44-5.56-7.39-12.11-8.97-17.03-1.35-4.19-.99-8.89-2.18-12.82-.92-3.06-3.89-6.01-5.06-8.94-6.63-16.56-7.71-33.98-14.05-51.95-3.34-9.47-1.09-15.72-2.47-24.53-1-6.42-6.05-12.27-7.65-18.35-2.17-8.23-.99-18.98-2.23-27.77-1.1-7.8-5.7-17.27-6.44-23.57-.36-3.06.96-6.61.47-10.46-.57-4.49-3.59-9.08-3.54-14.26.06-6.29,8.74-30.69,13.08-35.37,2.73-2.95,8.28-5.45,11.57-8.43,2.35-2.12,3.61-4.92,5.96-7.04,4.32-3.93,11.8-5.63,15.09-8.91,2.57-2.57,4.06-8.13,6.94-11.06,7.8-7.96,23.28-8.6,32.99-12.01,5.68-1.99,10.47-6.9,16.75-9.25,7.06-2.65,14.97-2.78,21.55-5.45,4.04-1.64,7.77-5.22,11.84-7.16,14.32-6.85,36.74-6.04,53.11-12.89,5.85-2.45,9.3-7.79,15.78-10.22,14.69-5.49,27.56-.34,39.5-13.5,3.12-3.44,5.42-8.5,8.53-12.23,6.62-7.93,28.95-23.07,38.91-25.33,15.38-3.49,29.61,2.52,42.95-7.05,24.18-17.35,36.95-27.62,68.62-29.13,17.6-.84,20.01,4.7,33.43,8.25,11.34,3,18.37,2.38,28.95,10.05,9.07,6.58,21.01,15.71,30.55,21.45,11.71,7.05,17.81,3.59,29.78,5.22,16.57,2.25,36.53,14.13,48.77,25.23,11.11,10.07,7.42,14.94,24.77,18.23,21.74,4.13,48.21,7.75,69.21,13.79,7.31,2.1,10.75,5.96,15.99,8.01,4.86,1.91,11.41,1.19,16.99,3.01,4.93,1.6,10.36,5.63,15.34,7.66,29.84,12.17,58.85,20.15,79.69,47.31,5.42,7.06,5.18,11.84,7.78,19.22,1.5,4.28,5.71,7.77,6.73,12.27,3.4,15.01-5.49,36.99-7.38,52.64-1.16,9.57.22,15.83-3.09,25.91-1.46,4.44-5.23,9.57-5.85,14.24-.49,3.72,1.32,8.66,1.24,12.73-.2,10.75-6.88,14.68-9.19,23.23-1.69,6.25.2,13.33-1.48,19.52-1.39,5.15-6.38,9.93-8.08,14.92-2.18,6.42-.84,12.17-1.92,18.08-1.26,6.89-8.33,15.7-10.48,23.52-1.48,5.41-1.39,11.04-2.74,16.26-2.51,9.71-12.72,20.73-17.72,30.28-2.7,5.17-4.35,11.1-6.95,16.05-13.66,25.96-29.74,45.9-47.3,69.2ZM578.34,99.65c-5.46-4.7-10.48-11.64-16.87-16.63-25.56-19.91-63.93-24.57-92.49-8.55-13.44,7.54-21.85,24.72-38.52,25.58-11.24.58-22.04-2.32-33.46,3.62-15.55,8.09-17.63,21.14-26.7,33.06-5.6,7.35-11.92,9.38-20.81,10.25-15.25,1.48-26.15.29-38.99,9.95-13.57,10.21-12.55,19.29-20.3,31.76-7.94,12.78-22.65,16.65-34.21,25.79-10.92,8.64-24.4,24.11-28.46,37.54-2.09,6.91-4.09,17.02-.74,23.7,2.25,4.49,20.83,12.88,26.26,14.74,37.05,12.69,78.59,19.02,117.01,23.98,4.8.62,10.57,2.73,15.54,3.48l.91-1.91c62.3,12.28,127.55,9.74,191.03,6.03,12.08-.71,18.99-1.2,31.07-2.94,14.87-2.14,29.25-1.35,43.76-3.24,39.5-5.16,92.7-18.17,129.6-32.4,15.84-6.11,22.44-7.61,17.56-26.48-5.78-22.39-23.14-25.93-40.19-35.81-15.13-8.77-11.95-18.68-20.89-31.11-14.71-20.46-36.78-17.29-55.77-29.22-8.38-5.27-11.84-15.47-17.71-23.07-12.59-16.29-31.21-28.05-51.71-31.51-10.4-1.76-26.52.59-34.9-6.61ZM871.66,273.66c3.28-3.97,10.63-17.32,11.22-22.27,4.83-40.26-46.19-60.11-76.21-72.57-18.78-7.79-36.36-12.66-56.19-16.81-1.49.77-.11,1.73.5,2.5,2.04,2.62,12.97,14.16,15.33,15.67,7.15,4.58,20.22,4.48,28.26,8.75l1.41-1.94c-.01,1.31.61,2.13,1.69,2.82,13.8,8.81,29.08,9.19,44.8,22.21,12.43,10.29,25.02,23.83,18,40.96-12.62,30.78-60.66,47.44-87.99,57-22.31,7.81-43.54,14-66.64,19.36-18.03,4.19-32.33,5.4-50.26,7.74-5.6.73-12.61,3.74-19.25,4.75-59.67,9.06-132.43,8.55-192.73,6.05-22.87-.95-54.82-5.66-77.99-9.01-52.87-7.64-128.6-23.12-172.56-53.44-17.26-11.9-33.98-25.07-24.24-48.12,11.94-28.25,56.8-40.1,82.53-51.47l10.65-11.84c-16.26-2.04-33.15,8.43-48.48,14.01-12.99,4.73-19.57,5.21-31.85,13.15-18.33,11.86-36.6,28.4-38.59,51.41l1.84.83c-1.82,23.85,28.62,43.12,47.86,52.3,46.29,22.08,90.3,30.53,137.97,43.04,12.02,3.16,28.71,1.93,40.81,4.75,3.58.83,9.07,4.46,13.02,4.43l.91-1.92c4.4,3.72,12.32,1.62,18.05,1.96,16.03.94,31.32,3.35,46.95,5.05,7.57.82,16.11-1.23,24.05-1.05,24.31.56,48.38,5.82,73.41,2.59,18.43-2.38,38.18-3.82,55.54-6.33,38.24-5.53,73.24-4.96,111.52-14.73,38.94-9.94,94.37-25.83,128.33-46.66,4.23-2.59,25.57-19.84,28.32-23.18ZM883,312.01c-6.02-.49-8.47,6.75-14,8.49,1.21,1.21,4.29,4.81,6.01,4.04,2.26-1.01,9.12-11.71,7.99-12.53ZM156.7,325.29c-.73-.99-8.09-5.32-9.72-3.78l8.5,42.5c.23,4.45,16.41,15.55,18.94,14.92,1.42-.35,1.56-2.21,1.66-3.43.58-7.01-9.33-24.07-12.57-31.52-1.62-3.73-5.34-16.7-6.81-18.69ZM813,390.99c2.36,1.94,48.25-24.73,54.02-28.47,3.84-5.85,3.28-12.01-.16-17.88-2.64-4.5-15.19-16.35-19.95-10.24-4.27,5.48,2.76,6.53,6,9.19,4.34,3.56,6.08,7.78,3.41,13.16-1,2.01-24.94,14.61-26.31,13.24l5.99-30.99c-6.65-.09-9.35,4.52-11.45,10.04-5.02,13.18-7.96,28.36-11.54,41.95ZM222.63,385.59c-10.61,6.78-14.65-.53-19.82-8.9-6.77-10.95-14.29-34.73-25.28-40.72-2.03-1.11-4.11-2.13-6.52-1.97,5.4,10.92,9.47,22.76,14.82,33.67,6.77,13.83,17.14,39.22,36.06,33.75,10.22-9.8,25.28-17.06,35.29-26.51,2.47-2.33,2.57-2.08,2.68-5.8l-11.15-2.97c-7.18,5.97-15.25,10.67-22.93,15.91-1.08.74-2.23,2.95-3.15,3.54ZM229.99,357c-4.07,2.43-24.7-9.05-25.99-7.99,3.46,4.11,8.04,20.39,12.94,21.57,3.28-1.44,15.14-9.94,13.05-13.58ZM814,350.01c-2.19-.08-5.17.31-5.01,2.98l-1.48-1.99c-1.14.93-2.46,1.39-3.51,2.49-2.92,3.06-19.93,41.5-22.21,47.79-.45,1.25-1.1,2.28-.78,3.71,3.39-1.34,12.12-2.86,13.9-5.6l19.1-49.39ZM784,360.01c-13.23-3.51-15.25,12.32-21.19,21.3-13.03,19.69-30.66,20.18-49.14,6.52-7.7-5.69-9.62-11.99-21.66-6.34,11.76,15.82,33.46,29.95,54.05,26.07,15.26-2.88,35.14-32.59,37.94-47.55ZM749,369.01c-1.18-1.03-17.39,3.56-19.99,4.54-4.02,1.52-1.38,3.27,1.43,4.51,9.56,4.26,17.45,2.62,18.56-9.06ZM320.34,398.67c-5.72-7.31-10.25-15.85-17.36-22.16-6.84-.22-14.73-3.05-21.43-1.45-6.08,1.45-14.99,11.91-20.05,15.93-6.6,5.24-13.98,9.47-20.08,15.42-.74.72-4.33,3.77-3.42,4.58,5.79.79,10.97,3.49,17.05,1.56,3.24-1.03,8.49-7.47,11.43-9.57,2.13-1.52,5.18-2.28,7.84-4.16,5.23-3.69,14.65-14.9,21.39-9.52.53.42,5.28,6.24,6.25,7.47,6.2,7.92,21.98,34.82,30.79,36.97,4.57,1.12,10.5.94,15.25,2.24.34-1.69-.84-2.64-1.6-3.89-6.69-11.02-18.07-23.24-26.05-33.43ZM390.58,425.58c-2.98,1.96-5.4,3.94-9.16,1.48l-33.03-41.96c-1.96-1.28-12.39-3.12-14.93-3.15-1.67-.01-2.43.1-3.44,1.54,2.15,2.28,3.54,5.09,5.45,7.56,10.1,13.1,19.98,28.98,31.51,41.46,6.12,6.63,15.22,10.92,24.47,9.41,4.69-.76,11.59-9.96,15.54-13.45,8.46-7.48,17.22-14.66,25.52-22.34,5.2,6.31,6.97,15.92,0,21.87-1.93,1.65-4.61,2.04-6.45,3.55-2.83,2.34-5.46,8.01-9.07,10.42,8.3-.77,21.98,5.94,28.56.07,3.84-3.42,1.49-16.83,1.4-21.52s.96-22.14-1.93-25.07c-2.42-2.45-17.71-2.72-20.95-.88-2.73,1.54-11.69,10.86-15.02,13.93-6.03,5.55-11.32,12.35-18.47,17.07ZM710.99,422.99c.96-1.26-5.74-7.4-6.98-8.51-7.2-6.45-15.65-12.6-23.03-18.97-2.21-1.91-7.21-8.18-9.01-8.99-5.56-2.52-17.02,1.85-23.46.51l-2.58,1.42c-5.94,9.8-11.27,20.04-17.12,29.88-4.25,7.14-22.96,28.35-.37,19.63,10.95-4.23,19.34-30.16,27.71-40.29,1.31-1.59,2.4-2.97,4.52-3.51,11.32,8.29,19.15,22.03,32,28.68,8.06,4.17,10.12,1.67,18.32.17ZM396,390l-18.99-1,7.47,10.04.53,3.96c3.98,1.47,12.64-11.42,10.99-13ZM624,389.01c-11.87-1.86-14.3,6.16-21.64,12.89-8.29-4.78-13.85-13.46-24.34-6.39.02.72,8.74,8.77,9.99,10.27,8.53,10.21,11.81,25.27,23.41,8.14,1.94-2.86,11-17.79,11.8-20.2.53-1.6,1.09-2.96.78-4.71ZM562.64,403.38c-21.43-17.97-57.55-12.13-67.87,14.98-4.43,11.65-1.65,20.62,10.56,24.92s22.95.73,33.14.74c5.56,0,11.1.36,16.52-1.02l-12.35-14.64c-14.51-12.95-14.37,3.92-26.42,4.38-4.04.16-11.48-2.41-11.35-7.24.05-1.8,1.29-2.76,1.72-4.24.19-.63-.53-1.66-.32-2.06.4-.77,11.28-11.68,12.18-12.23,23.86-14.72,45.45,19.08,56.54,35.52,6.57,3.02,11.53-.88,17.99-1.5,1.48-1.92-27.51-35.22-30.36-37.61ZM487,395h-16c-1.85,3.78-5.18,5.56-6.3,10.2-1.66,6.89-2.8,27.23-.74,33.35,1.66,4.95,6.68,9.32,12.04,6.93,3.27-1.46-1.02-9.46-1.57-13.17-1.43-9.57-.37-20.05,5.32-28.07,2.08-2.93,6.19-5.03,7.26-9.24ZM862,398.01l-21.3,11.18c-2.33,1.71-4.93,3.06-7.23,4.81-1.45,1.1-.86,3.57-3.46,2.47l-.98,1.01,12.99,26.5c1.92,1.58,4.85-5.79,4.85-7.49,0-4.63-7.86-14.94-5.72-18.35l17.58-9.4,3.26-10.73ZM288.76,404.27c-.55-.26-6.61,1.23-7.26,1.64-4.73,2.97-7.97,10.17-13.5,12.59.98,1.92,10.31,5.41,12.62,5.45,3.13.06,5.34-2.96,8.73-1.81,1.24.42,1.45,2.23,2.4,2.88,4.89,3.31,8.88,3.28,14.66,3.95l1.17-2.05c.01-1.65-10.65-15.4-12.63-17.42-.59-.61-5.83-5.06-6.2-5.23ZM173.04,434.96c.76.63,3.41-.02,4.47-.96,1.29-1.14,8.81-13.46,8.35-15.32-.49-1.96-14.63-9.19-16.49-12.56l-4.36-1.13,2.18,11.76c4.25,1.14,2.47,5.46,3.33,8.78.38,1.48,2.16,9.1,2.53,9.41ZM651,433.99l6.37-.12,16.6-3.37c.06-2.39-11.39-10.77-13.34-10.38l-9.63,13.86ZM809.62,433.37c4.05,6.06,16.78,29.44,21.83,31.74,4.7,2.13,6.23-3.99,5.08-8.14-.5-1.79-17.91-29.73-19.54-31.44-1-1.05-1.75-2.46-3.46-2.5-2.92,1.53-9.92,2.54-7.53,6.5.94,1.56,3.04,2.98,3.62,3.85ZM208.64,429.36c-4.52-4.33-8.87,1.81-12.06,5.72-5.7,6.98-19.4,27.04-8.53,33.53,3.9-.99,10.73-13.18,13.47-16.62,4.28-1,5.33,12.74,5.46,15.51.32,6.85-.2,16.91-6.04,21.04l13.56,25.43c1.8-1.46,2.26-3.26,2.52-5.46,1.36-11.74,1.54-31.06.97-43.01-.46-9.58-2.31-29.39-9.35-36.15ZM795.58,526.58c7.71-10.25,18.4-25,24.43-36.07,1.28-2.35,4.27-7.51,4.01-9.98-.07-.69-6.1-10.55-7.03-12.01-7.37-11.48-18.16-21.85-25.49-33.51-5.01-4.17-21.67,5.63-27.5,7.49-8.55,2.72-18.44,3.29-26.62,7.47l-34.3,7.61-48.55,57.09c-3.21-.64-5.63-2.59-8.05-4.64-9.68-8.21-20.88-23.9-30.45-33.55-1.78-1.79-5.48-5.65-7.77-6.24-5.14-1.33-18.78,2.2-24.77,2.76-3.75.35-8.23-.16-11.84.18-7.28.69-14.32,2.95-22.01,1.81l-.66,2.01-2.44-2.1c-7.44,2.26-15.33.49-22.55,3.61-3.43,1.48-21.2,19.39-25.49,23.51-8.35,8.02-17.45,17.07-25.02,23.95-5.83,5.3-15.15,17.28-23.13,17.68-5.66.28-14.04-2.79-11.49-9.56l-1.86-1.07c9.44-5.52,16.01-14.3,23.98-21.52s16.21-13.04,23.53-20.45c1.89-1.92,11.67-10.79,10.03-13.07-9.26-2.26-15.7-2.12-23.07,4.01-10.37,8.62-19.95,21.94-30.47,30.53-1.19.97-3.99,3.42-5.34,3.32-2.53-.25-3-2.74-4.42-3.87-10-7.96-20.78-23.68-27.32-34.27-3.57-5.78-16.2-8.4-15.37-.54.9,8.52,24.18,35.04,30.27,43.52,4.57,6.35,8.05,8.81,3.62,16.28-6.71,11.31-27.7,32.86-37.53,43.24-3.4,3.59-22.45,19.69-21.78,23.17,7.45,7.74,12.72,4.74,19.76-.97,16.67-13.51,27.48-31.13,42.08-45.92,1.52-1.54,3-3.79,5.47-3.53s9.58,7.45,11.58,9.53c15.36,16.03,31.92,38.23,49.06,51.94,9.14,7.31,15.17,8.92,26.91,6.57l-16.51-18.01c-.75-.74-2.54-.71-3.14-1.31-7.78-7.75-28.49-27.19-33.36-35.14-6.43-10.48,4.42-18.85,11.3-25.18,9.6-8.83,22.92-19.18,33.74-28.83,7.79-6.95,21.09-23.48,30.85-25.91l60.17-3.18c1.15.46,2.09,1.21,3.01,2.03,5,4.45,13.13,13.96,17.88,19.36,10.06,11.42,18.05,24.93,30.57,33.93,1.67.14,9.01-7.5,10.49-9.26,8.92-10.62,17.17-23.81,26.08-34.68,4.32-5.27,17.55-22.15,21.96-25.26,4.03-2.84,12.74-4.75,17.77-6.26,13.28-3.98,31.81-9.57,45.18-11.81,3.84-.64,9.32-1.64,12.75.83.71.51,1.16,2.31,2.22,3.24,4.95,4.35,6.71,6.65,10.63,11.37,9.99,12.03,14,11.22,5.08,26.23-10.84,18.25-25.97,34.54-38.46,51.5-2.65,3.6.13,1.15.81,3.34-5.34-2.44-4.43,1.89-8.8.79-5.93-9.4-13.65-17.26-21.21-25.27-2.24-2.38-2.02-6.18-7.34-6.35-3.72,4.28-21.61,29.64-21.24,33.34.09.88,4.88,9.65,6.99,9.45l17.1-22.95c5.21,6.16,10.53,12.42,15.48,18.75,3.08,3.95,4.73,11,10.6,11.11,4.79-4.03,9.57-8.25,13.95-12.86,7.65-8.04,16.4-18.57,23.07-27.43ZM244.79,444.2l-10.78-4.2,1.01,98.48c.38,2.41.66,4.91,1.96,7.04,2.18,3.6,15.59,15.48,19.54,18.46,16.11,12.16,57.26,30.72,77.15,27.66,10.05-1.55,23.61-11.41,31.35-18.13,6.37-5.53,11.65-13.51,18.98-17.53l-2.99-1.98c6.44.45,15.22-15.56,15.94-20.58.34-2.37.02-4.2-.4-6.48-2.24-12.19-18.18-30.58-25.98-41.01-6.5-8.69-9.7-17.86-21.36-20.64-14.89-3.55-30.75-3.63-45.75-6.81-7.78-1.65-25.72-8.72-32-8.55-3.26.09-5.11,2.48-5.5,5.5-2.44,19.01,1.93,50.56,3.68,70.22.31,3.45-1.63,5.55.75,9.97,2.84,5.28,21.71,14.59,27.85,16.64,15.15,5.07,27.83,7.18,41.28-3.28,16.35-12.71,14.68-30.89,2.94-45.99-.81-1.05-1.94-.07-2.22-.31-.62-.55-.78-2.05-1.66-2.71-14.76-11.15-41.9-10.03-36.12,14.09,3,12.54,8.4-.62,10.71-3.42,6.43-7.77,16.71-2.26,20.42,5.29,6.85,13.95-6.81,28.41-21.01,28.09-6.9-.15-25.55-7.83-27.89-14.19-2.19-5.95-1.28-10.87-1.7-16.32-.46-5.91-3.31-43.03-1.53-45.58,2.09-1.6,5.39-1.04,7.95-.81,12.44,1.14,33.68,5.75,45.59,9.4,4.39,1.34,10.35,3.39,14.37,6.63,5.62,4.53,17.45,22.71,21.46,29.54,4.44,7.56,10.97,16.15,6.02,24.65-5.75,9.89-24.19,28.87-33.97,35.03-10.36,6.52-15.04,7.49-26.93,4.99-16.26-3.42-50.46-18.09-60.37-31.42-11.57-15.54-7.74-49.21-8.52-68.48l-2.25-33.25ZM670.99,463.01c-1.44-1.13-32.25,2.86-35.99,5.49,4.31,5.05,8.64,8.71,13.65,12.85,1.5,1.24,1.18,4.03,4.62,3.52,3.98-.59,6.56-7.09,9.71-9.39l8.01-12.48ZM779.62,501.64c2.28-3.2,7.73-9.95,6.94-13.66-1.27-5.95-11.27-16.56-17.55-17.59-3.9-.64-17.28,5.31-22.23,6.89-6.76,2.16-20.07,4.63-25.48,9.03-6.05,4.91-17.56,20.28-20.35,27.67l-1.79-.82c-6.31,11.22-17.73,21.67-23.99,32.52-2.68,4.65-4.74,11.69-1.85,16.42,3.29,5.4,19.39,26.94,23.61,30.47,5.03,4.19,12.79.42,18.25-1.88,3.07-1.29,25.63-12.7,25.76-14.17-1.88-2.95-5.43-9.6-9.46-9.5-2.57.07-15.67,15.26-24.51,12.58-4.64-1.41-17.96-18.51-18.76-23.34-1.16-7.02,2.56-8.93,5.83-13.78,6.25-9.28,15.15-18.94,22.39-28.53,4.51-5.97,7.46-12.85,12.84-17.27,2.56-2.11,14.33-7.74,17.73-8.97,2.59-.94,15.21-4.46,17.57-4.67,3.45-.31,6.1,2.07,7.3,5.3-3.67,4.09-5.25,9.34-7.9,13.95-.71,1.23-3.84,2.16-2.99,5.74-2.54,2.16-7.69-9.45-9.6-2.03-.95,3.7,8.03,12.9,11.27,14.84,1.61-.03,4.96-4.06,6.29-5.61,3.17-3.69,7.89-9.65,10.68-13.57ZM448.78,476.22c-2.87-2.24-23.55-2.2-20.47,6.09.91,2.44,5.72,9.02,8.44,9.54,5.61,1.06,15.67-12.79,12.04-15.63ZM574.79,506.3c-1.08-.82-24.14,1.15-27.2,1.8-7.5,1.6-12,5.59-17.61,10.39-8.14,6.96-27.56,23.85-33.51,31.49-3.02,3.87-6.3,9.8-3.53,14.58,16.22,14.37,29.17,32.84,47.73,44.23,2.36.36,11.01-6.38,13.35-8.26,6.82-5.47,23.6-20.68,28.41-27.59,10.11-14.52,1.12-31.32-15.97-32.95-.62-.06-9.33-.07-9.81.04-.78.19-.7,1.52-1.39,1.94-2.91,1.76-7.98,4.33-10.31,6.48-3.36,3.1-9.43,12.29-4.48,15.58,9.31,6.19,14.55-11.12,25.09-5.08,11.67,6.69-6.47,17.17-11.57,21.54-2.98,2.55-8.86,10.45-12.49,10.45-5.52,0-13.86-12.63-17.51-16.43-4.23-4.4-12.88-8.26-13.52-15.4-.33-3.72,13.15-16.39,16.51-19.62,3.71-3.57,16.07-15.15,20.1-16.92,4.52-1.99,29.68-3.68,35.19-2.34,1.85.45,4.96,2.26,6.66,3.34,7.19,4.56,19.83,22.22,22.77,30.23,3.12,8.5.53,11.56-4.7,17.7-1.84,2.16-4.83,1.36-3.02,5.43-4.66-.17-5.48,5.4-7.98,8.3-8.58,9.94-19.98,18.9-27.98,29.3-.72.94-3.76,4.67-3.02,5.47,1.53-.11,2.99.8,4.49.8,16.2,0,34.12-26.34,44-37.81,4.76-5.52,17.29-14.94,17.36-22.47.09-9.75-12.7-29.1-18.87-36.99-9.54-12.2-19.72-23.19-36.49-15.53-.75.2-.35-1.44-.69-1.7ZM678,600.99c-4.8-7.76-10.33-15.34-16.04-22.45-2.33-2.9-4.89-7.05-8.27-8.38-5.06.44-17.18,17.16-21.29,21.73-3.06,3.4-8.38,7.2-11.33,10.91-3.13,3.93-7.13,7.92-6.05,13.2,16.77.99,21.16-15.2,30.01-24.48,7.33-7.69,14.86,9.3,18.5,14.48l.48-1.99,14.01-3.02ZM463.45,617.6c-6.25-8.51-17.63-21.92-24.93-29.62-1.55-1.64-5.05-5.74-7.08-6.03-1.24-.27-2.26.16-3.39.58-4.13,1.53-19.18,21.65-23.08,26.72-.64.83-2,.55-1.99,1.24,9.61,13.26,18.64-5.87,27.58-9.51,2.93.15,13.34,16.63,17.47,18.48,2.08.93,16.19,2.29,16.98,1.52.8-3.08-.9-2.5-1.56-3.39ZM303.01,612.99c6.86,2.95,11.95,8.4,18.32,12.18,10.15,6.02,30.39,16.77,40.65,8.33l-55.96-21.03-3.01.51ZM699.99,622c-12.97,6.26-28.22,7.45-41.27,13.21-1.02.45-7.23,3.09-5.71,4.78,3.94-1.31,6.75,1.38,11.47,1.03,9.28-.68,26.08-10.84,33.63-16.45,1.12-.83,2.49.02,1.89-2.57ZM409,643.01c-14.52-6.41-27.61,6.37-41.99,7.48,4.62,2.75,9.83,6.03,15.39,5.44,3.88-.41,21.76-8.25,25.3-10.7.87-.6,1.85.16,1.3-2.22ZM635.42,644.53c-5.01-4.65-7.26-1.75-13.42-.52l7.77,13.02,12.22-2.04c1.14-1.64-4.92-8.92-6.57-10.45ZM464.35,657.65c-.86-.77-1.23-2.32-2.29-3.18-10.51-8.56-19.52-7.15-31.03-1.4l.97,1.93c-1.41-.05-2.55-.97-4.03-.58-.64.17-10.66,4.8-11.67,5.38-7.1,4.07,8.94,7.62,12.13,7.21,4.67-.6,12.6-11.05,17.68-10.54,2.71.27,10.34,8.04,13.58,10.35,6.3,4.49,12.12,8.53,20.31,7.18.45-1.73-.72-2-1.49-3-3.05-3.96-10.24-9.83-14.16-13.34ZM611,663.99c-4.33-5.71-6.37-11.27-13.31-14.17-14.07-5.88-19.24,9.26-21.68,20.18,7.54-1.64,11.5-8.1,17.51-12.07,1.53,0,4.53,5.1,7.2,5.85,3.03.85,7.08-.12,10.28.21ZM537.99,651.01l-14.3.19c-2.08,2.62-4.56,5.04-6.71,7.53-1.14,1.33.13,3.17-2.48,3.37-5.88.47-10.53-8.12-15.46-10.51l-14.04.9c8.52,5.53,22.45,25.91,33.99,19.96,5.39-6.06,12.59-12.04,17.51-18.45.77-1,1.94-1.27,1.49-3ZM569,650.01c-13.14-1.35-19.41,15.63-27,23.98,3.44-.28,8.93.96,11.71-1.29,1.23-.99,7.49-8.99,8.72-10.77,2.54-3.7,4.5-7.95,6.57-11.92ZM450.98,700.99c-6.62-4.12-15.78-4.93-23.75-6.72-13.75-3.09-28.08-7.06-42.01-10-2.96-.62-6.21-.97-9.22-1.27,1.31,2.78,4.72,3.89,7.33,5.16,21.91,10.69,40.38,11.95,63.21,15,.2.03.93,2.14,2.99,1.76l.47-2.94,2.48,2.74,9.51-1.75c-1.12-2.65-8.19-5.4-5,0h-3s.99-2.99.99-2.99c-3.01,1.95-1.67-.8-2-.98-1.61-.88-2.35.33-2.01,1.97ZM640,685.01c-3.86-.1-9.12,1.35-8.99,5.99.47.49,6.17-2.79,7.12-3.4,1.29-.83,2.4-.09,1.87-2.59ZM497,703.01c-4.55-.57-8.84-1.43-13.52-1.01-6.43.58-6.17,3.43,0,4.01,3.11.29,9.56.41,12.27-.75,1.43-.61,1.5-.25,1.25-2.25Z"/>
  <path class="cls-1" d="M609.64,204.64c-9.03,10.2-18.94,12.82-32.29,10.51-11.09-1.92-30.58-12.35-24.89-26.19,4.1-9.96,21.07,4.17,28.98,4.07,8.95-.11,19.92-10.43,28.09-3.06,5.41,4.88,4.47,9.76.11,14.68Z"/>
  <path class="cls-1" d="M658.69,268.31c9.52,8.67-6.75,27.76-16.25,29.63-12.35,2.43-27.14-3.33-35.96-11.91-3.91-3.8-9.45-9.6-5.4-15.44,4.95-7.14,13.3,2.23,16.99,4.85,2.55,1.81,10.43,4.53,13.33,4.46,12.33-.29,9.28-5.2,14.95-10.55,2.92-2.76,9.25-3.86,12.35-1.04Z"/>
  <path class="cls-1" d="M589.76,121.26c5.02-.64,14.29-.85,18.96.52,9.31,2.74,14.91,14.33,1.69,16.13-8.99,1.23-15.47-3.54-23.46,3.54s-4.9,18.48-17.46,17.63c-4.72-.32-8.83-4.99-9.45-9.67-2.08-15.62,16.47-26.48,29.72-28.16Z"/>
  <path class="cls-1" d="M470.99,192.01l-2.99,1.98c4.8-1.04,4.39,5.8,3.75,9.27-1.46,7.9-8.87,6.91-15.31,6.8-3.16-.05-4.29-2.29-4.94.96l-1.11-2.08c-8.47-.64-12,11.74-18.94,13.02-16.22,2.99-15.19-15.86-4.97-24.98,13.19-11.76,28.86-9.97,44.51-4.97Z"/>
  <path class="cls-1" d="M326.59,236.63c-3.46,6.88-16.11-.86-21.17-1.54-10.03-1.35-16.46,1.97-21.65,10.2-.66,1.05-.46,2.98-.9,3.57-.09.12-1.27-.46-1.84-.17-5.81,3.06-10.95,3.84-12-4.28-1.54-12.03,16.68-27.79,27.55-29.32s37.09,7.44,30,21.54Z"/>
  <path class="cls-1" d="M571.59,277.44c4.05,3.34,12.2,16.55,4.46,19.11-10.46,3.46-19.14-13.35-32.61-8.59-6.71,2.37-6.54,8.65-12.94,11.13-3.31,1.28-7.97.87-10.5-1.86-1.52-8.4,2.36-16.7,9.06-21.66,13.22-9.79,29.73-8.67,42.53,1.88Z"/>
  <path class="cls-1" d="M390.56,248.45c-3.74-4.13-6.86-14.38-12.05-17.56-1.77-1.09-2.8.08-3.33-.15-.17-.07-.07-1.59-2.13-2.28-5.04-1.69-13.32-.23-14.85-7.18-1.77-8.05,5.76-13.18,13.33-12.78,13.78.74,29.38,14.27,34.81,26.49s-6.52,23.66-15.78,13.45Z"/>
  <path class="cls-1" d="M472.72,276.28c1.98,2.02,3.45,6.98,1.75,9.64-4.05,6.35-21.97,17.69-29.27,19.79-6.79,1.95-14.41,2.9-21.2.79-6.02-1.88-9.27-5.13-5.43-11.42,4.22-6.93,20.91-8.35,28.43-11.57,7.01-3,17.74-15.38,25.72-7.23Z"/>
  <path class="cls-1" d="M692.38,241.63c.68.83,1.9,1.3,2.86,2.6,2.03,2.75,2,5.99,4.76,7.25-2.96,4.47-2.93,9-9.5,9.01-7.24,0-8.82-5.67-13.56-8.92-4.02-2.76-10.77-4.21-15.6-4.47-3.22-.18-7.15,1.53-10.26.4-13.73-4.99-2.43-21.56,11.43-21.57s21.95,6.12,29.88,15.7Z"/>
  <path class="cls-1" d="M466.58,170.42c-3.96-3.47-4.27-5.79-10.54-6.96-4-.75-15.79-.45-18.44-2.37-.63-.46-.53-1.79-1.02-2.68-.25-.45-1.55-.46-1.51-.86.53-6.46,9.46-11.88,15.43-12.54,12.49-1.38,23.24,3.46,31.02,12.99,4.36,5.34,10.53,14.15,2.04,19.06-6.67,3.86-12.65-2.84-16.97-6.63Z"/>
  <path class="cls-1" d="M355.68,275.32c6.08,5.49-3.06,15.74-9.25,16.62-9.9,1.4-18.07-.15-26.32-5.54-5.6-3.65-17.15-15.19-10.06-21.84s18.18,3.99,25.72,6.17c5.23,1.51,16.48,1.5,19.9,4.6Z"/>
  <path class="cls-1" d="M540.73,121.79c-.11.23-1.3.17-1.42.44-.22.48.65,1.35.49,1.58-.22.31-5.55,3.49-6.49,3.99-3.17,1.7-8.95,2.83-9.32,5.19l-1.4-1.9c-3.44,1.24-7.1,1.2-10.57,2.43-6.95,2.47-11.84,12.61-18.98,7.93-5.09-3.34-4.48-7.57-1.94-12.36l1.87.92c4.16-13.84,27.39-23.32,40.27-17.83,2.83,1.2,9.1,6.37,7.49,9.61Z"/>
  <path class="cls-1" d="M691.64,179.37c4.43,2.48,11.56,9.5,12.93,14.56,1.23,4.54,2.68,13.68.84,17.99-.2.48-4.48,5.96-4.86,5.95-13.61-.43-9.33-16.52-14.6-21.32-2.74-2.5-8.99-2.99-12.88-5.12-2.61-1.43-9.39-6.66-9.65-9.37-1.18-12.58,21.83-6.26,28.22-2.69Z"/>
  <path class="cls-1" d="M502.74,262.75c-.84.89-4.88,2.31-6.24,2.32-8.81.03-11.7-11.81-15.96-17.13-4.76-5.96-16.36-6.88-13.53-15.94l1.98,1.01c.85-12.25,18.82-6.56,24.53-.03,4.61,5.27,15.15,23.46,9.21,29.77Z"/>
  <path class="cls-1" d="M541.21,83.22c7.68-1.63,14.35,4.76,18.77,10.3,3.35,4.21,8.35,10.34,2.98,14.94-8.5,7.28-30.67-15.87-21.75-25.24Z"/>
  <path class="cls-1" d="M730.67,231.36c6.63-.06,15.53,5.2,10.78,12.59-4.66,7.24-17.31,9.42-23.98,4.08-8.55-6.84,5.42-16.6,13.21-16.67Z"/>
  <path class="cls-1" d="M399.35,132.65c-8.15-7.54,1.81-17.14,10.89-15.46,3.18.59,12,7.23,12.6,10.55,1.99,11.02-16.99,10.93-23.5,4.91Z"/>
  <path class="cls-1" d="M463.64,110.36c8.18,8.35-.49,15.9-9.9,14.4-21.09-3.36-9.99-34.72,9.9-14.4Z"/>
  <path class="cls-1" d="M352.51,164.48c11.43.43,19.7,26.18,1.21,22.3-15.57-3.27-15.54-22.83-1.21-22.3Z"/>
  <path class="cls-1" d="M543.37,243.36c-1.77,1.81-1.14,3.56-4.82,3.69-11.96.41-14.6-11.41-7.56-19.28,7.25-8.1,26.83.86,12.38,15.59Z"/>
  <path class="cls-1" d="M513.75,77.28c.5.21,7.15,6.93,7.7,7.76,2.9,4.41,2.7,9.01-2.71,11.2-11.51,4.66-26.32-10.53-17.48-16.56,2.56-1.75,9.58-3.62,12.49-2.4Z"/>
  <path class="cls-1" d="M760.73,248.17c6.33-1.79,24.27,7.11,18.71,16.72-5.78,9.99-23.9-3.14-22.94-11.03.24-1.96,2.29-5.15,4.23-5.7Z"/>
  <path class="cls-1" d="M652.79,159.77c-7.43,1.79-13.81-2.51-17.18-8.88-4.56-8.64,6.32-16.06,14.45-9.45,4.29,3.48,6.45,13.98,2.72,18.34Z"/>
  <path class="cls-1" d="M583.72,241.29c6.81,5.41,2.83,20.94-6.96,18.5-1.42-.35-7.13-4.98-7.82-6.23-1.5-2.72.21-5.21-2.94-6.06,2.31-6.59,11.81-10.92,17.72-6.22Z"/>
  <path class="cls-1" d="M503.48,195.4c1.03-.3,9.66-.55,10.97-.34,10.76,1.68,8.79,17.34.01,17.9-1.5.1-7.72-1.11-9.03-1.89-4.06-2.43-6.7-14.29-1.95-15.67Z"/>
  <path class="cls-1" d="M634.29,194.28c8.95-10.93,25.9,8.56,14.08,14.59-11.41,5.81-20-7.35-14.08-14.59Z"/>
  <path class="cls-1" d="M532.84,177.89c-4.01.04-14.15-4-15.82-7.61-9.04-19.51,32.34-10.35,15.82,7.61Z"/>
  <path class="cls-1" d="M327.65,189.35c8.92,8.4-1.1,19.55-11.41,11.91-13.02-9.63-.82-23.43,11.41-11.91Z"/>
  <path class="cls-1" d="M364.77,243.21c2.83,4.91-3.4,11.57-8.27,11.87-13.59.85-19.25-22.67.53-16.61,1.03.32,7.5,4.33,7.74,4.74Z"/>
  <path class="cls-1" d="M706.75,292.75c-2.34,1.91-14.4,3.46-16.8.54-9.77-11.85,21.4-20.39,21.03-7.76-.01.42-3.91,6.96-4.23,7.22Z"/>
  <path class="cls-1" d="M386.69,279.28c9.02-.03,11.63,18.8-.2,18.78-12.57-.02-12.36-18.74.2-18.78Z"/>
  <path class="cls-1" d="M433.49,244.43c1.91-.48,9.94,2.63,11.58,4,8.66,7.27-1.49,14.8-11.25,11.27-7.53-2.72-7.93-13.36-.33-15.28Z"/>
  <path class="cls-1" d="M396.73,163.72c-6.46,4.24-21.3-4.89-12.26-12.76,5.92-5.15,16.64-1.6,15.52,6.46-.16,1.17-2.52,5.82-3.26,6.3Z"/>
  <path class="cls-1" d="M396.3,178.29c6.85-8.42,22.7,3.75,13.65,10.16-8.82,6.25-19.78-2.63-13.65-10.16Z"/>
  <path class="cls-1" d="M254.72,251.28c3.23,3.21,4.04,15.3-2.32,15.68-7.97.47-13.24-11.54-7.12-16.66,2.46-2.06,7.34-1.11,9.44.98Z"/>
  <path class="cls-1" d="M614.77,159.2c10.12-1.44,16.13,18.6-1.05,14.58-6.58-1.54-7.03-13.42,1.05-14.58Z"/>
  <path class="cls-1" d="M728.65,272.29c-.26-.52-1.94-.02-1.65-.78,4-7.86,12.39-9.53,17.5-1.64.25,7.44-7.44,14.07-13.56,7.7-2.13-2.22-1.33-3.38-2.29-5.28Z"/>
  <path class="cls-1" d="M277.72,268.14c5.8.71,15.27,3.45,12.84,10.91-3.79,11.65-23.25-2.86-12.84-10.91Z"/>
  <path class="cls-1" d="M624.93,248.92c-6.68,2.34-13.46-.54-13.03-8.41.48-8.77,11.37-8.52,14.6-.46,1.16,2.88-2.52,5.99-1.57,8.88Z"/>
  <path class="cls-1" d="M487.91,97.86c-4.55,4.19-15.21,5.72-14.4-2.99,1.13-12.08,14.63-7.05,14.4,2.99Z"/>
  <path class="cls-1" d="M489.72,299.18c5.32-.81,14.82,6.51,7.84,10.87-10.98,6.86-17.91-9.34-7.84-10.87Z"/>
  <path class="cls-1" d="M721.22,201.23c10.01-5.36,15.55,7.9,5.37,10.78-4.83-.26-7.26-6.79-5.37-10.78Z"/>
</svg>