<?xml version="1.0" encoding="UTF-8"?>
<svg id="Camada_1" data-name="Camada 1" xmlns="http://www.w3.org/2000/svg" viewBox="0 0 1024 768">
  <defs>
    <style>
      .cls-1 {
        fill: #413253;
      }
    </style>
  </defs>
  <path class="cls-1" d="M311,499.5c-.37-1.3-3.41-2.72-4.76-3.24-16.63-6.49-41.15-7.76-58.69-13.31-9.02-2.85-16.25-8.96-14.31-19.22,1.71-9.06,13.47-17.27-2-20.47-11.15-2.31-23.3,2.53-28.23-10.77,7.73-.61,15.77-.87,23.53-.53,4.95.21,12.06.6,16.85,1.15,22.86,2.66.15,27.16,1.74,39.77,2.88,1.11,5.87,1.87,8.86,2.63,17.46,4.43,36.96,6.17,54.03,10.97,5.93,1.67,13.06,5.21,16.43,10.57,4.35,6.9-4.56,34.86,2.55,38.5l48.99-2.04c-9.47-10-21.55-17.09-32.01-25.99-27.49-23.37-52.08-50.31-70.16-81.84s-32.88-80.02-6.8-111.14c1.67-2,8.48-6.69,7.53-8.56l-78.54-51.47c27.44-20.69,63.88-29.41,98.04-27.06.9.63,1.66,4.8,1.82,6.18.56,4.63.99,12.06,1.16,16.84.1,2.71.41,7.69-.03,10.05-.68,3.6-12.39,6.14-16.06,5.03-4.08-1.23-18.45-13.71-24.03-16.96-2.04-1.18-5.07-3.05-7.4-3.11-5.89-.15-20.86,7.02-25.47,11.14-.46,2.67,25.2,20.79,29.22,23.61,6.01,4.22,27.28,19.78,33.15,19.7,6.4-.08,3.34-5.22.07-7.92-12.68-10.47-30.67-18.86-43.82-29.18-1.31-1.03-2.59-2.03-3.65-3.33,0-.67,10.07-6.47,11.99-5.1l46.67,33.41,5.53,1.96,29.31-9.75c-.25-10.93.73-25.17-1.36-35.7-.27-1.34-.2-1.79,1.32-1.3,4.55,1.44,13.12,7.32,18.16,9.84s10.79,2.37,14.1,7.9c4.6,7.66,2.54,21.25,15.25,18.24l-12.21-38.77-7.77-2.22.99,8.99c-3.5,3.23-31.89-16.31-38.88-12.88l.46,39.89-20.08,6.93-10.49-6.45c-.45-2,.77-1.4,1.99-1.94,2.96-1.3,13.18-3.18,13.87-5.18l-2.86-41.36c28.47.28,58.17,4.05,86.18,9.31,9.06,1.7,30.88,5.53,38.32,8.68,5.07,2.15,4.53,8.34,14.25,9.74,9.99,1.44,13.79-4.51,19.66-3.72,2.5.33,9.05,4.53,12.32,5.75,3.84,1.44,12.11,2.45,14.31,4.69,3.13,3.2,1.48,8.03,2.04,11.96,1.22,8.52,8.91,9.89,10.45,15.55.74,2.74.82,13.47,2.4,14.6l8.07.44.93-12.57c2.99-.99,6.09.06,9.12-.88,4.32-1.35,7.18-9.18,12.95-8.17,6.59,1.15,21.53,8.62,28.35,11.76,15.97,7.32,31.4,16.08,47.16,23.85.89,1.27-1.58,2.13-2.52,2.5-4.42,1.74-9.81,1.39-14.35,3.31-6.67-4.13-6.99-15.87-16.64-13.79l11,21.49c1.98.95,7.09.71,9.42.41,7.43-.94,18.54-8.01,24.85-6.69,8.25,1.72,35.69,21.12,44.04,26.96,6.68,4.68,20.93,13.81,26.04,18.95.67.68,1.85.92,1.7,2.34.01,3.46-10.31,8.03-12.99,10.09-4.67,3.58-7.78,8.13-12.63,11.42-.71,1.47,11.56,14.22,13.51,15.57,4.65,3.21,40.92,6.79,50.25,8.75s32.88,5.8,31.87,19.18c-.44,5.87-12.37,20.2-8.13,26.09,1.95,2.7,13.21,3.85,17.08,4.92,9.52,2.63,18.92,5.78,28.38,8.62,6.52,7.05,35.52,61.56,31.6,66.89-12.04-6.74-22.45-15.91-34.07-23.42-3.24-2.09-16.38-8.51-17.66-9.83-2.48-2.57,1.02-15.7-8.61-10.63-1.57.83-17.26,13.55-18.2,14.81-3.81,5.06.08,9.62,5.85,7.87,3.05-.93,6.31-8.17,12.14-7.79,3.93.26,17.99,8.45,22.09,10.97,6.77,4.15,37.01,25.49,40.49,30.51,4.21,6.09,3.19,15.6,2.55,22.56-1.41,2.01-28.77,5.39-32.54,9.5-.66,2.97,19.03,20.39,21.22,25.69,1.35,3.28,1.23,8.36-3.24,6.25-4.32-4.17-35.84-36.08-34.98-38.93.74-2.42,34.79-11,39.39-13.66,2.29-1.4,2.02-4.66,1.06-6.9-1.12-2.61-18.52-12.79-22.39-15.61-4.94-3.59-21.22-17.85-25.68-18.39-1.8-.22-3.52-.1-5.15.73l-19.78,15.26c4.34,47.41-51.27,67.96-89.46,73.99,3.77,4.99,8.93,26.26,12.61,28.87,1.88,1.33,8.42,3.57,9.3.49.97-3.4-5.73-16-6.52-20.34-.21-1.16-.77-1.64.59-2.53,3.11-2.04,18.88-4.71,24.27-6.74,9.53-3.58,18.39-12.24,28.22-11.75,2.22.11,5.34.89,7.73,1.28,6.57,1.07,47.88,12.39,49.79,10.7.45-1.73-.72-2-1.49-3-6.4-8.34-20.04-20.91-27.98-29.02-1.62-1.65-4.23-2.12-4.59-4.49,1.53-7.39,4.84-14.07,6.61-21.42.84-3.48,0-6.84,1.67-10.33,2.32-4.81,10.82-9.73,15.25-12.71,2.38-.08,19.04,13.82,22.62,16.39,3.99,2.87,9.49,4.45,11.88,9.1-9.73,3.81-20.93,8.25-30.91,11.06-4.87,1.37-11.24-.38-15.05,4.94,4.04,2.89,7.61,6.38,11.01,9.97,4.59,4.87,37.53,39.26,36.98,42-.25,1.21-2.14,1.52-3.36,1.47-11.07-.41-31.09-5.86-42.84-8.26-10.85-2.22-26.35-7.63-36.57-8.47-1.6-.13-2.75.53-4.23.79l27.94,51.35c-2.54,2.53-6.89,4.81-10.01,2.22-3.95-3.29-12.83-21.78-16.51-27.5-3.36-5.21-11.08-19.05-17.97-17.82-5.06,5.13,2.65,8.84,4.9,11.99,4.12,5.77,14.3,24.15,17.81,31.08.86,1.7,3.95,5.92,1.86,7.2-7.45,4.57-19.03-10.67-27.01-2.03l7.97,5.49c-10.76,1.5-24.8,5.88-35.56,4.17-6.94-1.11-15.32-9.57-21.52-13.57-9.41-6.07-19.47-10.32-28.27-15.73-6.52-4-6.74-11.14-15.06-.77-1.65,2.06-9.42,14.7-9.49,16.41-.05,1.1.52,2.36,1.15,3.26,1.25,1.23,7.13,1.86,8.55,1.03,2.58-1.51,7.18-15.12,12.61-14.81,2.23.13,34.74,21.57,35.58,23.53.42,2.26-.99,1.38-2.48,1.49-15.02,1.08-32.99-.52-48.01-2.01-7.8-.78-18.58-1.35-25.95-3.05-1.69-.39-2.78-.96-3.46-2.64l27.37-43.32c2.14-1.32,4.8-2.6,7.24-1.25,8.19,5.81,16.44,11.81,24.98,17.08,6.35,3.92,33.63,21.5,38.28,22.71,11.27,2.94,5.58-4.18,10.67-7.38,3.67-2.31,19.33-4.07,20.26-6.78,1.11-3.27-5.62-14.71-7.73-18.03-3.18-4.99-6.1-10.43-13.15-8.31-2.17,3.27,9.11,16.38,8.55,21.02l-22.92,7.68c-21.08-9.69-38.8-25.2-58.26-37.62-4.81-1.88-14.12-2.57-17.24,2.55l-30.62,49.46-1.81.65c-8.09-2.8-21.88-2.67-29.04-6.96-4.16-2.49-5.97-20.61-8.69-25.8l39.99,6,4.04-21.99,11.85.86c.39-2.68,2.31-4.92-.47-6.79-1.26-.85-21.56-3.34-22.48-2.67-2.41,3.44-.6,19.57-3.58,20.5l-30.61-5.17c-5.73-2.31-6.94-21.47-12.79-26.21-6.69-5.42-24.64-6.41-32.7-11.3-1.43-.61-7.86-.74-6.77,1.76,4.93,9.95,28.67,10.88,33.33,17.68,1.6,2.33,6.32,15.98,7.44,19.56,2.99,9.56,4.33,19.77,7.75,29.25-5.08-.3-10.55-1.14-15.46-2.54-15.37-4.41-38.62-13.9-53.54-20.46-1.44-.63-8.99-4.13-9-4.99,4.91-3.63,16.03-15.95,21.57-16.48,4.72-.45,30.44,10.31,31.4,8.98.67-4.22-1.51-7.36-4.02-10.47-8.67.32-24.99-10.06-32.24-9.32-3.25.33-8.45,4.72-11.2,6.82-3.93,2.99-14.67,14.71-18.08,14.95-1.2.08-2.15-.32-3.25-.64-5.12-1.49-24.6-11.94-29.86-15.17-2.16-1.32-6.07-3.58-7.36-5.64-2.62-4.17-5.44-25.55-7.46-32.54-.83-2.85-1.8-8.41-4.11-9.89-3.7-2.38-21.57-.82-26.77.03-3.52.57-8.93.34-9.66,4.37.02,2.75,10.08,9.3,12.63,10.39,8.27,3.52,4.4-.34,4.34-4.43-.07-5.15,9.84-4.09,13.96-4.35,1.06,8.47,4.6,18,5.08,26.41.08,1.33.84,5.39-1.47,4.47-23.43-14.63-46.47-29.8-68.41-46.59-20.56-15.73-44.62-34.99-61.62-54.38-1.05-1.2-7.88-8.54-3.99-8.03l47.52,9.5c3.31,2.8-2.06,30.12,3.65,33.59,1.58.96,4.53.74,6.33,1.92v-37.5ZM267.71,239.21c-9.72,2.87,9.1,15.01,14.86,7.85l-1.5-7.63c-1.06-.77-11.66-.73-13.36-.23ZM436.16,258.17c-1.71,3.21-4.38,13.61-7.86,14.66l-28.61-3.02c-6.43-1.86-2.63-26.21-15.14-24.79-1.81,1.07-1.03,1.46-.92,2.77.25,3.1,6.12,27.91,7.36,28.73l44.5,5.52c5.12-.94,3.68-12.13,9.06-13.03,2.64-.44,26.16,4.55,28.01,5.95,6.04,6.33,4.6,23.97,15.97,21.11,2.28-3.9-5.91-21.61-7.56-26.53l-39.72-11.28-5.1-.08ZM420.88,261.88c4.27-9.31-7.34-13.15-14.45-10.95-1.99,10.34,5.89,12.26,14.45,10.95ZM352.75,263.25c-1.17-1.28-10.19-4.48-10.75-1.72,3.98,8.39.47,22.62,14.59,17.53.79-1.06-2.81-14.68-3.84-15.8ZM463.77,280.23c-4.58-1.73-7.86-3.72-10.67,1.46-3.33,6.15,8.06,7.65,11.89,8.31l-1.22-9.77ZM721,572.99c11.3-4.95,18.61-17.6,19.88-29.61,5.3-50.16-50.51-113.02-85.86-143.89-71.9-62.78-191.07-113.27-287.56-108.53-37.02,1.82-87.6,16.24-98.17,56.83-.74,2.83-3.73,13.12-1.35,14.78l3.98.34c11.38-52.62,73.35-65.74,119.62-63.95,110.84,4.28,247.16,72.42,311.27,163.73,17.34,24.7,35.15,57.84,27.31,88.94-1.9,7.55-5.88,14.34-9.13,21.36ZM561.68,301.31c-7.32-8.72-25.27-5.7-33.62.26-3.06,2.18-8.24,6.98-2.11,8.99,7.9,2.58,19.51-9.53,25.76-6.82,4.84,2.09,14.45,24.18,18.81,29.24l8.47,2.03c.79-5.41-4.25-9.14-6.83-13.67-2.77-4.86-7.39-16.33-10.49-20.02ZM551.99,322.99c.2-5.56-2.31-9.11-8.27-7.79-9.9,2.2,3.75,8.66,8.27,7.79ZM378.79,316.29c-45.16,1.81-90.87,20.2-91.85,72.18-1,53.04,67.03,113.31,107.74,140.34,67.17,44.6,203.23,99,279.98,58.36,81.19-42.99,13.26-128.83-32.65-168.68-68.62-59.55-170.79-105.9-263.22-102.19ZM651.2,383.82c.1.18,3.26,1.96,3.57,2.01,2.72.49,19.25-12.53,21.16-16.19-.44-2.51-25.02-20.32-29.02-23.05-2.95-2.02-14.14-10.11-16.46-10.54-8.25-1.53-14.73,1.46-22.22,2.68-5.71.93-11.59.94-17.23,2.29-2.11,3.21,6.97,6.82,9.5,7.04,8.39.72,21.54-6.24,28.75-4.85,2.76.53,13.46,8.22,16.66,10.39,2.28,1.55,17.91,12.77,17.9,13.9-1.2,4.35-15.38,11.56-12.62,16.33ZM649,364.01c-6.78-1.44-12.71-10.35-19.62-10.97-3.69-.33-19.11,1.26-13.39,7.48,3.58,3.88,16.41-4.91,21,3.98-6.5,4.62-2.07,11.43,4.57,7.55.65-.38,7.78-7.61,7.44-8.04ZM809.99,518c.3-4.33-1.49-8.46-3.13-12.36-1.76-4.18-10.77-20.03-13.91-22.09-13.6-5.56-30.02-7-43.47-12.53-3.44-1.41-11.06-4.37-10.06-9.03.72-3.36,6.03-11.26,7.75-15.32,6.52-15.41,8.03-15.92-8.99-19.36-11.66-2.35-28.83-5.65-40.39-6.67-5.99-.53-.32,6.66,3.17,7.9,5.86,2.09,17.31,2.37,24.22,3.78,3.83.78,13.31,1.63,14.4,5.65-.48,11.34-20.55,27.95-4.14,36.09,14.19,7.04,36.17,8.36,50.89,16.11,9.81,8.26,11.61,21.91,23.65,27.84ZM721.83,449.82c.44-.25,3.69-6.6,2.76-7.86l-11.59-1.94c.92,3.28,4.06,12.57,8.83,9.81ZM761,492.02l-13.36-4.1c-4.99,5.74,2.79,8.48,4.85,13.07,3.29-2.48,7.87-4.33,8.51-8.98ZM290.98,518c6.07-10.33-5.49-9.85-12.98-9.99.89,2.45,11.31,11.23,12.98,9.99ZM469.89,585.09c-28.18-10.81-52.82-29.5-79.84-42.66l-60.35,5.55c-6.21,12.78,11.57,7.53,17.81,7.03,15.22-1.21,30.55-2.51,45.76-2.79,15.75,11.16,37.53,17.84,53.06,27.94,2.64,1.72,8,5.64,8.2,8.86-1.41,3.13-17.21,13.02-21.03,15.03-.9.48-1.5,1.27-2.78.79l-2.79-1.53c-5.57-10.54-6.68-33.09-20.93-34.31-.2,1.4.14,2.69.45,4.04,1.7,7.61,11.19,33.92,16.51,38.49,1.41,1.21,6.16,4.05,7.77,4.3,2.61.4,17.72-10.26,20.98-12.61,2.97-2.14,16.3-11.7,17.07-13.94.31-.91.57-3.66.11-4.19ZM792.81,556.82c1.8-3.09-2.53-7.35-6.22-6.84-7.92,1.1-11.05,13.29-2.17,12.02.9-.13,8.14-4.76,8.39-5.19ZM431.01,590c1.84-.06,10.62-1.89,9.99-4.48-3.02-2.91-6.88-3.99-11-3.5l1,7.99ZM552.88,622.88c5.5-13.4-13.97-20.05-7.97-1.52l7.97,1.52ZM660,630.99c-.54-6.24-3.53-12.83-10.71-12.77-8.61.08,4.39,16.62,10.71,12.77ZM510.77,638.24l-33.77-10.23c-.13,2.37-.12,5.07,1.52,6.97,1.53,1.77,26.08,9.1,29.03,9.08,2.77-.02,4.07-1.56,3.98-4.17l-.76-1.64ZM556,651c-.09,2.44.17,6.77,2.01,8.49,2.2,2.06,8.68,3.86,9.07-.97.56-7.04-5.38-7.23-11.08-7.52ZM643,671.01h-6.49c-1.75.2-.48,5.55,4.85,3.86l1.64-3.86Z"/>
  <path class="cls-1" d="M239.42,491.58c108.04,117.09,289.46,209.73,452.07,199.41,52.51-3.33,141.53-31.4,154.2-89.8,15.47-71.33-38.45-137.82-86.16-184.21-62.89-61.16-138.85-107.42-219.49-141.51-4.12-3.05-1.54-8.66.96-12.02,2.29-1.46,10.08,3.86,13.03,5.04,24.24,9.72,45.75,18.84,69,31,22.74,11.89,52.31,27.08,72.45,42.55,38.46,29.55,73.53,56.2,107.04,91.96,15.13,16.14,34.26,41.59,45.29,60.71,5.92,10.27,20.19,45.82,22.71,57.29,6.53,29.78,7.85,54.03-7.13,81.89-17.14,31.86-61.84,56.26-95.61,66.39-10.31,3.09-20.78,3.68-30.8,6.2-4.7,1.19-10.48,4.58-14.7,5.3-6.14,1.04-13.44-.26-19.75.25-102.39,8.16-198.58-1.34-299.87-16.15-51.93-7.6-116.11-17.51-164.89-36.11-11.47-4.37-43.53-17.62-26.77-33.27,18.51-17.28,90.52-23.68,116.53-25.48,1.49-.1,2.89.77,2.48-1.49-1.23-2.9-19.56-13.15-23.47-16.54-4.76-4.13-8.45-10.12-13.51-14.49-5.51-4.75-12.77-8.16-18.02-12.98-9.17-8.42-18.24-16.22-27.52-24.48-17.21-15.34-31.03-34.82-45.5-52.5-7.06-8.63-16.09-15.63-21.51-25.49-6.39-11.62-13.65-22.37-19.63-33.37-5.34-9.83-8.18-19.23-14.02-29.98-6.69-12.3-6.18-22.12-9.09-34.91-1.7-7.45-5.8-15.98-6.62-23.38-2.55-22.99,2.64-49.41,11.13-70.66,3.73-9.32,15.85-20.73,23.56-27.68,5.97-5.37,23.15-18.29,30.19-20.56,5.33-1.72,11.09-1.99,16.45-3.55,13.17-3.83,24.91-8.93,39.07-9.93,48.46-3.44,100.51.82,147.71,13.27,4.92,1.3,21.79,5.87,25.16,7.84,4.63,2.7,5.91,15.31-4.57,14.65-7.9-.5-20.89-4.9-29.62-6.46-63.06-11.31-161.52-23.09-211.2,27.17-10.59,10.72-9.57,15-14.21,27.79-3.53,9.72-6.98,13.47-7.82,25.18-4.92,68.65,38.04,134.98,82.46,183.12Z"/>
  <path class="cls-1" d="M191,325.5c.1-.6,1.55-3.75,1.96-4.03,1.39-.77,2.95-.64,4.46-.43,11.49,1.6,27.09,16.82,40.58,13.46-7.54-6.6-18.14-10.06-25.91-16.09-8.22-6.39-18.24-15.44-26.56-22.44-3.4-2.86-9.89-7.52-9.36-12.19,1.02-8.98,12.41-1.79,18.82-3.79.58-2.31-.45-1.65-1.26-2.28-2.32-1.82-11.29-6.1-11.66-8.35,1.32-3.04,5.7-8.67,9.18-8.21l57.74,36.37c.42,2.34-1.05,1.3-2.51,1.46-4.58.48-24.45,2.02-26.02,5.01l-.32,3.3,26.69,23.38c-.22,8.3-.68,16.51-.84,24.83-.53,27.38,10.32,55.93,24.98,79.04,1.49,2.34,7.45,8.89,7.84,10.18,1.73,5.65-9.78,20.51,3.18,19.84l5.5-7.55,15.5,21.99c-6.34-2.11-42.2-7.19-44.52-10.98-3.2-5.22,11.19-24.06,3.55-33.55-11.69-14.52-44.44-9.11-61.57-11.42-1.65-.22-2.26-.21-3.51-1.49-2.74-2.82-13.71-23.49-10.01-26.13l55.06,1.57c1.22-1.32-5.28-32.91-7.45-35.04-1.45-1.42-4.8-2.78-6.6-1.53-2.23,1.56.64,8.44.94,11.18.54,5.02.48,10.34,1.12,15.39-7.5-.17-15.04.21-22.55.04-6.63-.15-16.48-.08-22.61-.6-6.69-.57-9.09-8.76-4.14-10.24,6.94-2.07,31.05,2.69,34.35.36,3.02-5.27-3.78-25.06-1.6-28.62,5.71-1.4,11.57,2.47,17.54.04-5.85-7.37-17.51-8.9-26.34-8.83l-1.66,1.34v25.5c-5.51.56-23.85,2.57-28.01.51-3.24-1.6-7.73-26.34-8.03-30.97-.82-12.73-.42-27.58,4.1-39.49,1.06-.29,1.99-.06,2.94.45,3.61,1.91,10.01,11.07,14.55,13.51,1.32,2.59-3.18,3.78-4.78,6.26-3.46,5.34-3.55,23.69-2.79,30.26.99,8.52,10.02,7.98,10.02,3.98,0-7.02-1.04-18.71,0-25ZM219.99,292.98c-4.14-10.42-13.92-8.85-20.95-2.38,4.7,10.16,13.08,6.04,20.95,2.38ZM201.08,405.06c-4.6,6.66,9.86,11.63,12.49,8.01,2.28-7.11-7.45-7.63-12.49-8.01ZM245.97,415.96c.12-7.21-9.5-12-13.87-5.28-1.22,4.76,10.26,8.07,13.87,5.28Z"/>
  <path class="cls-1" d="M545.71,34.22c5.67-1.3,11.35.61,10.28,7.21-.42,2.56-8.1,11.34-10.16,14.9-4.11,7.13-9.03,19.05-9.82,27.18-4.42,45.26,44.17,68.44,29.29,117.29-7.33,24.06-36.12,41.08-42.01,62.99-1.41,5.26-1.29,20.84-10.85,15.26-9.02-5.27-5.7-20.27-2.3-28.41,9.28-22.2,30.41-33.99,32.73-60.27,3.26-37.01-39.31-55.64-31.77-102.77,2.21-13.81,20.33-50.1,34.6-53.39Z"/>
  <path class="cls-1" d="M622.76,93.2c1.47-.22,2.85-.52,4.23.29,1.08.7,1.9,1.6,1.96,2.97.25,5.77-10.17,21.98-11.5,30.49-4.48,28.78,10.43,35.02,18.26,57.84,8.1,23.6,2.32,42.08-12.74,60.68-4.06,5.02-17.48,21.35-24.43,13.49-4.79-5.42,7.3-18.22,10.26-23.65,27.3-50.04-39.68-72.4-7.43-123.43,2.99-4.73,16.19-17.91,21.39-18.67Z"/>
  <path class="cls-1" d="M474.75,86.25c4.42,4.41-5.86,17.97-7.93,23.07-13.34,32.8,8.35,41.69,15.48,68.88,5.49,20.97-1.67,34.26-14.78,49.81-2.3,2.73-12.39,13.46-15.06,13.92-2.45.42-5.91.47-8.02-.86-6.66-4.66,7.12-18.29,9.99-23.16,16.6-28.1,3.89-37.4-7.94-60.9-9.39-18.65-7.33-39.92,6.01-56.03,2.63-3.18,14.85-15.68,18.08-15.96,1.18-.1,3.36.39,4.19,1.22Z"/>
  <path class="cls-1" d="M807.96,638.04c.56,2.86-.25,3.65-2.02,5.41-2.91,2.9-32.87,19.58-35.04,19.11-1.16-.25-2.08-1.26-2.78-2.19-2.82-3.75-7.17-11.54-9.96-16.04-1.29-2.07-11.99-19.5-11.17-20.32l60.96,14.04ZM771,640.01c-.98,7.37,11.28,11.7,11.89,4.32.25-3.02-9.51-4.22-11.89-4.32Z"/>
  <path class="cls-1" d="M702,396.02c-2.03,2.2,6.28,3.9,7.5,4,5.4.44,9.55-1.97,14.05-2.05,5.94-.11,16.41,9.44,20.44,14.02-15.46-2.71-32-3.46-47.36-6.13-4.99-.87-15.52-3.44-12.12-10.84,1.09-2.38,15.24-13.4,18.21-15.87,2.95-.67,15.69,9.5,15.28,11.31-4.41,3.66-10.96,2.64-16,5.55Z"/>
  <path class="cls-1" d="M231,308.01l27.47-3.06c1.63.05,3.2,2.06,3.18,3.56-.02,1.79-11.34,15.53-13.16,15.52-6.7-4.24-12.42-9.98-17.5-16.02Z"/>
  <path class="cls-1" d="M792,465.99c-17.96-1.45-33.32-1.18-19.01-22.56,1.16-.95,1.67-.09,2.55.51,3.02,2.07,9.85,11.28,12.3,14.72.73,1.03,4.86,6.72,4.16,7.33Z"/>
  <path class="cls-1" d="M752.51,586.24c4.28,4.94,11.83,10.15,15.48,15.27,1.23,1.72,2.85,3.01.52,4.46-5.48-2.3-23.52-3.83-26.09-8.99-1.45-3.1,8.67-10.85,10.08-10.74Z"/>
  <path class="cls-1" d="M334,509.5l2.49-1.5,18.04,16.95,1.48,3.05h-14.5c-1.42,0-5.44-2.13-7.5-2v-16.5Z"/>
  <path class="cls-1" d="M821,593.01l15.03-3.57c2.35,2.17-.7,16.07-2.01,17.08-1.5,1.16-1.54.19-2.53-.51-1.69-1.19-11.49-11.68-10.48-13Z"/>
  <path class="cls-1" d="M486.5,240.41c4.25.12,4.5,6.32,2.56,9.15-4.47,1.6-9.08-.83-12.05-4.06.02-1.81,7.55-5.15,9.49-5.09Z"/>
  <path class="cls-1" d="M227,451.01c-.15,1.8-2.11,8.59-4.49,7.99-.94-1.36-6.62-7.82-5.5-9l9.99,1Z"/>
  <path class="cls-1" d="M434.8,354.3c68.06-5.34,149.63,31.76,187.62,88.79,34.74,52.16,17.94,102.99-47.87,106.96-65.7,3.96-160.72-35.31-194.35-93.74-30.25-52.56-4.42-97.38,54.6-102.01ZM582,531.99c4.46.05,9.34-1.24,13.37-3.12,24.71-11.46,29.62-37.11,20.39-61.14-20.98-54.63-106.43-99.52-163.25-95.72-40.73,2.72-72.61,27.91-54.37,71.35,21.01,50.05,102.91,88.79,154.87,75.15,12.63-3.31,26.01-10.58,30.27-23.73,18.38-56.81-98.08-117.13-139.61-89.61-24.22,16.05-6.54,48.15,10.32,62.34,17.32,14.58,69.37,35.64,85.45,12.42,16.91-24.41-27.96-51.32-48.9-51.99-27.94-.9-12.61,33.09,8.04,27.12,2.66-3.67-6.51-7.58.45-10.54,15.26-6.5,42.03,27.75,15.24,32.24-27.4,4.59-71.82-19.28-66.03-51.03,4.11-22.55,45.25-16.14,60.29-10.76,24.74,8.86,81.09,51.2,54.47,80.52-37.02,40.77-169.41-17.98-153.53-82.53,10.79-43.84,81.15-30.66,111.52-18.45,42.89,17.25,125.48,84.17,70.54,130.51-3.16,2.67-6.82,4.06-9.52,6.97Z"/>
  <path class="cls-1" d="M698.68,529.15c3.83-.31,4.48,5.54,4.32,8.32-.58,9.83-7.55,22.69-14.47,29.56-3.02,3-14.71,12.02-18.57,9.5-1.77-1.53-.93-1.69.02-3.04,2.63-3.76,8.4-7.66,11.53-11.47,3.58-4.36,7.18-10.5,9.25-15.75,1.72-4.37,3.21-16.73,7.91-17.11Z"/>
  <path class="cls-1" d="M374.53,325.5c2.89.22,4.72,1.86,6.45,4.03.39,1.75-1.93,2.44-3.14,2.81-6.92,2.1-16.64,2.7-24.27,4.73-4,1.07-15.95,6.58-18.53,5.46-3.94-1.72-3.75-5-.38-7.37,7.12-5.02,31.28-10.32,39.87-9.66Z"/>
  <path class="cls-1" d="M300.1,378.9c-4.23-3.64,5.4-21.92,8.49-25.81,4.08-5.13,13.08-14.19,17.35-4.72-3.53,4.13-7.14,8.38-10.16,12.9-2.15,3.22-9.18,16.78-11.47,17.53-.91.3-3.68.55-4.2.1Z"/>
  <path class="cls-1" d="M619,591.99c-2.83,3.82-29.84,1.43-35.01-.48-3.9-1.44-4.12-4.15-.53-6.1l31.02,1.62c1.57-.06,5.47,3.69,4.52,4.97Z"/>
  <path class="cls-1" d="M638.01,430.01c1.81-1.88,15.46,9.08,17.52,10.97,2.78,2.55,12.6,11.99,10,16.04-1.8,1.95-4.96-.31-6.56-1.47s-19.2-19.58-20-21c-.9-1.61-1.26-2.65-.95-4.54Z"/>
  <path class="cls-1" d="M298,391c7.95-1.47,10.97,21.97,9.49,25-3.48,7.16-7.83-3.97-8.65-7.34-1.42-5.83-1.68-11.78-.84-17.66Z"/>
  <path class="cls-1" d="M439.74,330.25c1.75,1.69,1.63,4.62-1.26,4.8-3.81-1.16-25.98-1.42-26.53-4.6-.1-2.95,1.72-4.33,4.55-4.54s21.63,2.78,23.24,4.34Z"/>
  <path class="cls-1" d="M673.53,466.01c4.13-1.21,13.66,14.13,14.29,17.73.78,4.43-1.5,5.32-4.87,2.8-2.82-2.11-14.89-18.94-9.43-20.54Z"/>
  <path class="cls-1" d="M690,499c7.69-2.99,15.77,17.97,10.04,20.52-6.17,2.74-11.06-19.5-10.04-20.52Z"/>
  <path class="cls-1" d="M565,587.99c-1.14,1.11-21.2-2.03-22.98-5.5.09-3.82,16.05-.5,18.65.33,2.89.92,4.74,1.57,4.32,5.17Z"/>
  <path class="cls-1" d="M630.01,589.99c-3.42-5.12,14.93-7.96,15.98-4.45,1.42,6.03-14.8,6.23-15.98,4.45Z"/>
  <path class="cls-1" d="M308.01,429.01c5.69-2.68,11.35,12.81,7.48,13.99-4.21,1.28-8.45-13.04-7.48-13.99Z"/>
  <path class="cls-1" d="M398.9,330.9c-3.89,2.04-7.42,1.1-8.83-3.27,2.8-4.92,10.23-2.4,8.83,3.27Z"/>
  <path class="cls-1" d="M653.09,583.91c-2.95-4.06,5.1-7.15,5.84-2.28.44,2.83-4.58,4.02-5.84,2.28Z"/>
</svg>