<?xml version="1.0" encoding="UTF-8"?>
<svg id="Camada_1" data-name="Camada 1" xmlns="http://www.w3.org/2000/svg" viewBox="0 0 1024 768">
  <defs>
    <style>
      .cls-1 {
        fill: #413253;
      }
    </style>
  </defs>
  <path class="cls-1" d="M814.34,99.66c6.74,5.15,17.92,5.56,22.51,12.99,2.11,3.41,3.9,11.21,6.45,14.05,1.67,1.86,6.74,3.39,8.93,5.28,5.96,5.15,5.78,16.11,9.94,23.34,4.98,8.66,14.95,12.89,19.38,21.62,3.85,7.6,2.19,16,5.25,23.75s11.21,14.23,12.74,22.26c2.09,10.91-4.07,21.88-4.5,32.61-.39,9.9,6.21,18.07,4.97,27.97-.8,6.36-7.58,14.22-7.96,21.11-.27,5,4.39,11.99,4.83,17.8.54,7.13-6.11,12.02-7.57,18.25-.55,2.37,1.76,12.63-.28,13.84-2.37-.04-7.03.7-9.05-.02-4.07-1.45-4.37-6.33-10-3.51l1.02-1.99c-5.84,1.32-20.15-1.13-22.77-6.8-1.56-3.38-.46-9.68-2.75-13.3l-2.43.04-.57-2.96-1.49,3.01-.02-4c-2.6,1.63-4.33-.35-6.75-.79-5.01-.93-1.57-.33-4.45-1.52-5.73-2.37-16.08-3.48-22.35-5.75-2.7,1.45-13.38,9.5-15.08,9.77-2.74.45-8.15-2.12-11.36-1.71-.55-5.6,8.37-5.6,7.1-9.92l2.9-.08v-2.99c-4.12-1.12-16.57-6.86-19.83-4.83-2.97,13.03-4.68,11.32-16.48,7.87l-1.55-10.6,1.86-.93-2.1-3.42-2.27.88c-12.15-10.21-7.59,3.99-12.09,10.98l-11.31-5.17-1.27-12.05c-3.36-4.12-9.68-3.76-14.75-5.43-4.41-1.46-9.96-3.97-12.89-5.29-10.28-4.63-14.05,3.37-21.35,8.47-2.15,1.5-4.62.72-5.46,3.52-2.95-1.13-.05-15.31.47-17.95-.77-1.07-6.37-.95-7.5-1.28-.62-.18-2.13-1.12-4.87-1.78-2.51-.61-6.06-3.37-8.66-1.55-5.3,3.71,7.87,10.11,11.06,9.57l-1.01,4.99c-4.69-1.38-12.87-5.74-17.36-4.02l-.64,4.01-1-4-9.04.53c-2.72-3.04,1.62-5.36,2.09-6.27.63-1.22,0-2.15.34-3.05.11-.29,1.69-.01,1.63-.7-.05-.53-3.17-4.16-3.8-4.42-10.4-4.27-9.87,5.78-13.23,12.17-.19.37-1.96,3.38-2.1,3.56-.18.23-3.39-.98-3.88,3.16,1.23,1.6,34.15,7.36,39.45,9.07,37.62,12.12,76.38,21.43,114.99,32.01,4.61,1.26,11.1,4.93,15.29,5.71,11.35,2.1,12.52.93,24.16,5.84,16.53,6.97,28,10.61,45.37,14.63,8.12,1.88,18.28,8.27,24.46,9.54,5.68,1.17,12.86-.71,18.55.45s12.43,7.69,18.04,9.96,10.56,1.5,15.03,7.08c7.53,9.41,2.94,16.52,3.62,27.27.8,12.66,1.88,8.84-1.47,21.46-4.47,16.89,4.42,19.85,4.51,30.49.05,6.28-4.53,14.76-4.98,22.03-.53,8.47,2.26,12.71,2.97,20,1.34,13.78-5.67,24.73-3.88,39.88.99,8.41,6.63,15.57,4.66,24.88-.92,4.34-7.07,11.99-8.3,16.69-2.26,8.63-2.73,8.59-5.87,16.13-4.07,9.76-2.43,12.28-11.66,19.34-4.1,3.13-15.86,9.56-18.6,12.9-2.21,2.71-3.22,8.7-4.91,11.59-2.16,3.67-8.16,6.02-8.44,11.08l-2.99-1,1.01,1.97c-.58.82-10.98,2.95-12.96,4.58-5.28,4.35-8.01,15.36-15.09,19.9-5.34,3.42-13.75,3.8-19.31,7.69-4.26,2.99-10.95,11.2-15.12,13.88-5.4,3.47-17.09,6.08-22.05,9.94-2.17,1.69-3.16,6.74-3.98,7.03l-1-2.01-1.49,2.01c.57-2.89-2.13-3.63-3.48-5.89l-8.52,5.41,1.99,3.47c-1.67-.56-3.72,1.67-4.52,1.67-1.01,0-2.56-2.4-3.98-2.34-4.27.18-8.6,11.2-18.05,6.72-1.84-.87-19.27-11.54-20.12-12.37-4.93-4.84-5.66-13.89-9.33-19.17s-11.62-8.54-15.65-12.86c-4.41-4.72-8.2-14.34-12.93-19.56-2.49-2.75-8.81-4.91-9.23-5.29-8.09-7.41-12.18-23.88-21.19-33.01-2.7-2.74-11.4-6.99-13.05-9.49-2.41-3.64-4.19-12.78-6.97-17.77-5.06-9.06-12.83-11.74-18-18-2.81-3.4-2.82-9.81-7.98-9.53l2.99-1.48c-3.22-4.69-5.26-9.61-8.97-14.03-2.43-2.89-6.73-5.53-8.69-7.81-1.27-1.48-2.22-6.55-4.85-7.66-1.99-.84-2.37,4.36-2.48,5.5-1.06,11.28.73,17.04,2.75,27.22,1.48,7.47-3.27,9.98-3.81,16.72-.53,6.57,2.31,10.21,2.92,16.18,1.38,13.39-6.5,19.12-2.59,33.6,4.15,15.4,5.71,10.15,2.8,27.36-.69,4.08.52,8.64-2.01,12.74-7.2,2.27-25.87,13.44-32.07,12.2-4.04-.81-5.99-3.09-10.52-2.58-3.46.39-6.7,3.93-11.15,4.68-5.94,1-10.56-1.64-19.01.03-2.43.48-1.66-2.26-3.81,3.36-2.16-2.64-.18-4.44.49-7-2.89.12-7.58-2.53-8.48.76-11.42.03-21.71,7.41-32.75,2.96-5.14-2.07-7.66-4.58-14.32-4.75-10.24-.27-13.16,8.73-25.85,4.99-10.12-2.99-16.37-6.98-28.14-7.98-10.07-.85-20.18,2.62-29.83-1.11-5.09-1.97-13.34-8.37-17.14-9.62-2.87-.94-15.37,2.03-19.84.66-.64-.2-.48-1.36-1.48-1.83-.69-.32-2.03.13-2.88-.38-3.49-2.1-7.03-7.71-11.46-9.05-6.62-2-14.95.95-21.45-.46-2.36-.51-8.82-3.64-11.14-4.96-4.01-2.29-8.09-6.76-14.08-8.97-2.19-.81-12.67-3.66-12.62-.29-11.02-4.16-18.05-13.72-27.07-21.01-5.83-4.71-2.52-1.89-8.48-3.47-2.22-.59-4.5-2.88-6.76-3.33-2.07-.41-3.78.51-5.39.29-.85-.12-7.29-4.37-7.6-4.72-.81-.92.81-3.68-3.25-2.76,2.1-3.34-1.73-8.49-4.44-10.04-2.42-1.38-6.03-1.32-8.76-3.04-1.16-.73-.72-1.85-.81-1.9-.67-.39-1.52,1.97-3.03,1.59-.88-.22-10.05-5.79-11.3-6.75-2.57-1.99-2.68-6.14-6.64-3.85-.09-6.48-5.35-16.61-9.59-21.91-6.86-8.57-16.05-8.53-21.84-19.16-6.61-12.13-3.2-22.49-16.55-34.45-1.63-1.46-4.77-2.38-5.55-3.5-.6-.86.19-4.92-.19-6.78-1.85-9-4.81-18.06-6.87-26.91-1.16-4.99,4.35-10.41,5.53-14.86.68-2.56,2.07-7.77-.94-7.93l3.02-4.01-2.02-.51,1.99-2.97c-3.77-.67-5.93-10.26-5.92-13.66,0-3.13,3.17-9.14,3.68-13.11,1.78-14.01-5.68-22.2-4.73-35.73.72-10.23,7.64-20.42,4.49-30.53-1.44-4.63-5.51-7.65-5.4-13.38.13-7.04,6.15-17.23,5.82-24.03-.21-4.43-5.5-8.99-5.91-13.16-.45-4.47,3.4-11.82,2.58-17.38-.72-4.87-4.17-11.25-4.22-16.34-.08-7.23,5.63-12.68,5.63-19.18,0-6.84-6.13-12.51-4.94-19.94.6-3.75,6.62-11.61,8.23-16.78,2.39-7.7,1.02-17.47,3.98-24.02,2.48-5.5,10.39-11.37,12.28-18.73,1.23-4.78-.2-9.85.53-14.47,1.26-7.97,12.55-14.1,17.91-20.09s8.33-15.83,11.33-19.17,11.45-5.58,14.74-8.75c4.81-4.63,6.86-13.48,14.61-18.39,4.44-2.81,9.5-2.87,14.02-4.98s6.63-6.08,9.97-8.03c3.81-2.22,9.34-2.73,13.87-5.13,9.54-5.05,15.94-17.94,26.27-19.81,4.14-.75,10.17,1.21,14.46-.38,4.71-1.75,8.37-6.92,12.03-9.11,3.17-1.9,20.48-9.99,23.46-10.49,5.57-.93,12.9,1.31,18.65,1.48,5.48-2.62,9.37-8.03,15.56-9.28,5.02-1.02,8.98.35,13.21,0,3.13-.26,14.8-2.78,18.09-3.7,10.81-3.05,12.38-10.03,26.25-8.73,3.4.32,6.21,2.06,9.72,1.78,5.82-.46,12.49-6.33,18.4-6.75,5.43-.39,12.57,3.4,19.87,2.95,8.38-.52,13.67-6.65,20-6.78,4.2-.09,9,2.4,13,2.8,6.23.63,11.88-1.66,17.93-.92,3.52.43,7.12,2.8,10.97,2.81,10.83.03,21.74-7.62,33.44-4.22,3.02.88,5.27,3.71,8.73,4.26,7.25,1.16,14.91-2.32,22.98-1.97,13.72.6,19.89,4.99,31.46,8.53,9.34,2.86,21.34-1.89,30.44-.43,5.25.84,10.87,6.8,15.29,7.71,7.31,1.51,15.45-.46,23.73,2.27,5.22,1.72,11.87,7.62,17.27,8.73,4.47.92,9.95-.19,14.67.33,18.98,2.08,25.47,20.61,42.22,22.78,5.39.7,10.89-.43,16.4,1.6,6.34,2.34,8.58,8.89,14.32,11.7,6.87,3.36,10.9-.5,17.11,7.87s10.3,13.02,18.9,19.59ZM516.63,42.38c-4.96-3.06-16.54-9.11-22.14-9.4-2.41-.12-17.9,1.33-18.41,2.12l.36,6.89c-7.29,6.55-16.23,3.56-13.45-7-5.19-.85-9.69.86-14.51,1.07-3.49.15-10.35-3.04-10.48,1.92l32.57,15c6.53,1.86,10.99-10.76,16.05-11.73,4.68-.9,27.75,10.36,28.17,15.41-4.39,14.64-8.43,29.71-8.56,45.13,3.36,2.75,6.73,3.49,10.77,4.72,14.82,4.5,30.43,6.84,45.44,10.56,5.36,1.33,10.86,5.5,16.85,3.73.52-.16,8.11-4.7,9.44-5.51,19.83-12.09,39.19-26.11,59.12-38.15,9.12-5.51,22.54-10.69,30.53-16.25.97-.68,2.31-2.36,2.57-3.44.49-2.05-7.24-3.19-8.69-4.2l-7,.54-90.73,55.81c-18.08-4.44-36.81-7.4-54.08-14.59-1-1.26.3-15.49.69-18.34.82-6.06,5.8-21.17,5.42-25.18-.36-3.81-6.44-5.92-8.83-7.49-.6-.4-.78-1.4-1.1-1.6ZM556,33h-21.5c-.21,0-3.34,2.28-1.51,3.51,2.25,1.51,10.28,3.63,13,2.5l-8.79,42.77c-.3,2.23,1.06,4.49,2.85,5.68,2.64,1.76,27.05,7.64,30.48,7.57,5.24-.1,26.19-15.19,32.16-18.83,5.03-3.07,10.94-5.37,15.63-8.36,1.28-.82,4.62-2.66,4.67-4.31-.7-1.52-12.12-2.77-14.8-3.24-3.56-.63-3.32-1.13-3.85-1.25-1.64-.37-7.78-1.03-8.33.49l2.07,1.1-1.09,7.39,4.01,1c-8.85,3.89-21.95,14.48-30.99,16.53-1.49.34-16.75-1.78-17.76-2.26-2.61-1.21-3-7.7-2.87-10.61.46-10.61,5.1-23.66,6.55-34.24.25-1.79.06-3.63.08-5.42ZM649,47.01c-2.09.08-4.15.08-6.22-.28-16.59-2.86-33.85-8.08-50.53-10.47-4.12-.59-20.81-3.21-22.23,1.49.76,7.53-6.82,25.37-4,31.49.8,1.73,5.65,2.21,7.26,1.78.23-.06,3.36-3.04,3.46-3.26.6-1.26.83-9.73,1.57-12.96.9-3.96,3.72-7.18,2.7-10.8,6.45-1.08,11.65,1.76,17.69,2.88,4.99.92,10.71,1.33,15.56,2.37,5.33,1.14,20.08,6.75,24.03,5.57,1.36-.41,2.45-2.27,3.99-3.04,2.41-1.19,6.83-.56,6.72-4.77ZM424.3,45.65c-.5-.23-.67-1.76-1.72-2.26-.34-.17-6.95-2.17-7.33-2.23-6.15-.92-7.6,6.42-10.43,10.16-4.01,5.31-13.8,16.47-16.11,21.96-1.21,2.89.81,7.5-1.72,10.7,3.12-1.16,9.1,4.39,10.93,2.93,1.49-12.75,10.93-21.73,17.1-32.41l6.98-.5-1.01,1.98c1.35-.01,2.73,0,4.02.49,8.25,3.09,19.4,8.55,27.35,12.66,9.94,5.14,18.71,12,28.64,16.88-1.7,6.57-7.23,9.19-11.05,13.42-7.75,8.59-15.81,16.92-23.46,25.54-2.9,3.26-21.98,24.98-22.28,26.69-.28,1.62,1.35,3.16,2.28,4.34,2.29,2.91,38.69,30.63,41.94,32.05,5.53,2.41,4.17.18,5.85-.84.82-.5,2.72,1.47,3.61-.73,1.73-4.43-16.85-14.94-20.11-17.5-5.32-4.18-10.88-9.65-15.66-13.6-1.63-1.35-3.95-.74-4.1-2.39,2.13.16,1.98-.04,1.24-1.8,15.06-18.77,33.17-36.42,47.91-55.03.12-.16,1.94.82,2.9-.55s4.06-13.01,3.54-14.67c-1.39-4.45-6.02-3.37-9.3-4.75-19.18-8.08-40.02-21.44-59.99-30.56ZM389.01,44l-1-1.99c.34,2.75-2.52,2.13-3.73,3.27-5.73,5.43-6.78,11.65-17.32,10.29l-2.44-7.41-18.28,4.59-1.25,2.24c1.24.02,2.59.21,3.7.78,8.23,4.23,17.21,6.93,24.06,10.59.28.15,1.58,2.85,3.2,2.63,4.99-9.18,11-17.79,18.04-25.5l-3.41-1.57-1.58,2.08ZM494.87,55.13c-3.49-1.35-12.13,6.11-10.42,8.86,7.95,7.67,13.25-.78,10.42-8.86ZM405.65,117.35c-18.48-16.85-38.54-32.02-60.63-43.87-4.85-2.6-21.08-11.14-25.52-11.53-9.53-.84-27.48,10.27-36.83,14.22-9.14,3.87-19.16,6.91-28.03,10.97-11.9,5.45-16.1,8.38-15.67,22.32.1,3.35,1.58,13.07,2.2,15.74.86,3.7,5.1,19.49,8.88,19.35,12.08-.43.61-16.68-.83-23.29-1.03-4.76-2.45-15.05.74-18.78,7.58-8.87,27.11-14.46,37.7-19.3,6.57-3,16.66-11.14,23.04-11.98,2.63-.35,11.9,2.57,14.78,3.79,4.13,1.74,19.8,10.9,22.49,13.8.85.91,3.58,3.87,2.49,5.23-4.9,6.43-43.34,21.5-44.29,26.62-.23,1.24,1.53,5.08,2.24,6.42,4.19,7.9,18.47,26.92,25.01,32.99,2.13,1.98,2.77,2.35,5.8,1.76,11.85-6.17,28.3-9.39,39.81-15.25,4.53-2.3,4.5-3.85,2.14-8.26-1.12-2.08-10.57-13.15-12.55-14.95-1.01-.92-3.85-3.09-4.95-3.56-4.61-1.97-22.83,5.63-21.28,11.23,1.74,6.3,6.82.8,10.32.19,5.65-.99,10.48,2.58,12.16,7.7-3.93,2.99-18.68,10.23-22.92,9.68-3.95-.52-12.26-8.84-14.98-12.09-1.42-1.7-8.85-12.36-8-13.47l43.99-22.05-1.99-1.98h2.99s.05,2.96.05,2.96c.86-.28,1.72-.63,2.63-.21,8.9,4.12,28.84,23.07,35.33,31.01,3.65,4.46,3.16,11.04,11.27,6.99,5.57-2.78,20.8-22.93,26.19-28.83l18.58-18.46c-.22-3.38-7-7.55-9.74-9.28-4.84-3.04-20.72-11.89-25.75-11.22-3.86.51-13.56,18.73-14.31,22.79-.85,4.6,3.02,7.66,6.77,5.77,2.16-1.09,10.74-15.36,11.69-15.58,3.2.08,16.29,4.31,15.19,8.36s-25.23,23.74-28.91,29.22c-3.83,1.84-5.36-3.39-7.33-5.18ZM712,161.5v-29c0-.41-1.43-1.66-.88-2.77,1.08-4.64,34.5-19.42,40.62-22.45,1.02-.51,1.07-1.7,2.05-2.2,2.39-1.2,15.79-4.65,15.17-7.51-2.72-3.14-6.77-6.12-10.82-7.02-2.58-.57-2.84,2.39-3.07-2.01-11.61-4.99-22.61-11.6-34.09-16.78-4.76-2.15-10.16-3.66-14.76-5.08-.21-.06.09-1.57-1.65-1.77-4.26-.48-13.73,4.87-17.97,7.23-1.11.62-1.41,2.37-2.33,2.89-22.5,12.78-54.06,28.19-74.18,43.56-3.56,2.72-9.56,6.56-6.87,11.64l32.71,44.43c.59,3.32-24.92,18.46-28.61,21.65-3.13,4.08,2.52,8.62,5.65,11.24,7.73,6.48,17.82,12.01,25.96,18.04,4.13,3.06,9.09,8.67,12.84,11.44,3.16,2.33,7.05,3.95,10.84,5.01l1.91-2.04,1.99,2.01c10.91-11.3,23.4-21.66,36.47-30.54,15.36-.14,31.25-1.57,46.54-1.03,14.28.5,17.34,4.73,28.34,10.45,9.76,5.07,22.05,10.53,31.04,16.74,5.54,3.83,12.42,15.06,19.17,8.85.7-.65-.31-3.2,2.94-3.97-4.35-2.72-7.46-6.27-11.68-9.31-11.15-8.02-23.3-14.16-34.64-21.36-6.15-3.9-11.62-9.22-18.51-11.98-.06-3.21-.94-9.58.75-12.18,2.61-4.02,24.67-4.29-.48-16.66.53-3.07-.93-12.72,3.61-11.57s18.21,10.61,21.49,10.54c2.16-.13,5.67-4.67,5.54-6.42-6.28-3.27-12.46-7.23-18.85-10.27-3.43-1.64-17.44-8.6-20.01-7.08-.51.3-1.69,3.15-1.89,4.06-.42,7.05.65,49.14-2.28,51.32l-15.44-.67-1.09,2.1-1.96-2.13c-11.34,4.05-29.43-1.81-39.78,2.38-3.08,1.25-15.29,13.55-19.28,16.72-4.34,3.44-10.49,6.57-13.64,10.85-1.83.67-19.06-14.1-21.92-16.24-6-4.49-12.62-8.54-18.91-12.61-1.57-2.23,19.97-16.27,22.38-18.13,1-.77,1.25-1.99,1.97-2.55,1.14-.89,3.47.81,2.7-2.79l-31.54-45.51c-2.11-4.49,1.55-4.15,2.17-5.2,2.99-5.05,4.65-6.03,10.01-9.6,18.36-12.2,50.77-31.56,70.61-40.38,1.97-.87,4.6-2.61,6.78-2.28,12.48,5.81,24.93,11.45,37.19,17.7,1.47.75,3.12.81,4.73.79l1.99,2-11.23,8.63c-17.48,7.12-36.76,16.75-53.42,26.19-4.87,2.76-10.4,5.78-14.33,9.68l1.93.51c2.42,5.34,10.87,19.37,15.79,21.75,3.59,1.74,21.24,1.91,22.27-1.27ZM325.73,92.74c4.2-5.87-4.99-9.67-9.97-8.56l-50.59,25-.24,1.27c-.1,4.26,8.69,23.14,11.22,27.9,9.53,17.91,32.03,40.93,46.86,55.14,3.99,3.82,1.45,5.91,9.27,3.27,13.93-4.71,28.26-14.43,43.51-19.48,5.63-1.87,21.05-7.15,25.93-5.54,10,7.79,20.66,14.62,30.76,22.28,3.2,2.43,8.24,5.62,10.3,7.24.81.64,1.37,2.72,3.24,3.22-.79,2.86-2.93,2.29-4.48,3.5-4.44,3.47-19.28,18.43-23.18,18.76-2.44.21-9.53-3.22-12.01-4.57-9.25-5.03-10.96-14.27-22.88-6.21-1,1.6-.53,2.26.57,3.53,2.05,2.36,10.94,5.64,14.33,7.65,5.76,3.43,11.36,7.51,17.1,10.93l6.54-.59c11.71-10.03,23.19-20.17,35.38-29.66,1.63-1.27,1.51-3.58,4.63-2.83v-.98c-3.04.44-.94-1.71-1.91-3.27-1.75-2.83-4.6-2.83-4.86-3.02-14.81-10.91-31.13-23.8-46.49-34.02-8.58-5.71-11.86-4.54-21.49-1.93-13.55,3.67-29.02,9.66-42.24,14.74-10.27,3.95-13.28,10.22-23.04-.27-9.75-10.49-29.76-36.28-35.85-48.87-1.35-2.79-5.65-12.47-2.44-13.57l-.68-1.77,42.72-19.29ZM728.85,176.85c-1.21,1.99-15.18.88-18.39,1.11-5.9.41-24.02,3.57-28.76.85-2.51-1.44-13.75-19.27-16.73-23.28-3.25-4.37-7.77-7.05-10.16-12.84-5.51-13.38,3.35-11.89,12.07-16.31,17.06-8.67,32.72-19.93,50.22-27.84,2.1-1.97-3.89-6.5-5.14-7.01-4.57-1.84-15.29,4.77-19.81,7.12-9.27,4.82-19.12,11.78-27.06,15.87-9.44,4.86-18.44,11.27-27.96,16.08,8.09,19.25,23.88,34.29,34.91,51.95.12.78-4.7,4.92-5.52,5.46-6.06,4.01-13.39,6.36-18.51,12.5,3.8,5.25,11.91,13.72,18.91,9.9,7.51-4.09-2.17-6.88-.52-10.17.39-.77,9.71-7.56,11.07-8.29,8.52-4.6,21.68-2.37,31.09-4.82l.87,1.76c5.68-3.12,24.46.36,27.82-2.85,2.51-2.39,2.86-6.86,3.29-10.12.4-3.02,1.4-10.76-1.55-11.44,3.43-.65,1.4-5.53,1.47-8.83.1-5.29.05-10.65.76-15.94,5.53-3.76,14.7-11.49,21.28-9.8,12.06,3.11,28.39,16.01,41.17,19.9,5.99,4.18,12.21,7.5,17.32,12.67l-12.49,10.52c-3.83,2.31-9.31,5.92-12.97,9-4.28,3.61-7.04,9.89-12.53,9.99,1.15,5.7,1.82,2.77,3.68,3.76,13.01,6.93,26.5,15.14,38.85,23.21,4.3,2.81,27.94,18.35,28.96,20.98l-.12,1.79-26.94,28.27c-2.92.53-2.31-1.47-4.05-2.85-6.49-5.16-13-10.51-19.84-15.2-12.79-8.78-26.92-15.76-40.04-23.97l-.5,1.99-2.47-1.98c-7.02,4.56-15.01,7.46-22.43,11.57-2.67,1.48-20.06,11.66-20.8,12.62-.15.2.15,2.97-.27,3.79,4.58-2.27,6.52,2.96,12.08,1.39,11.58-3.25,22.52-18.54,36.94-15,8.23,2.02,32.76,19.45,40.91,25.18,4.65,3.27,17.62,15.17,21.96,15.92,6.9,1.2,14.15-15.73,20.11-14.11,4.18,1.14,6.93,6.04,5.77,10.09-.43,1.49-7.48,4.6-5.64,8.36,2.28,2.13,14.26,4.02,15.93,1.77,2.45-3.3.12-16.82.92-21.59l-1.98,1.99c.21-3.8-9.62-6.11-9.81-8.48,2.34-5.93,8.77-7.74,12.65-12.2l-4.39-14.28c-16.89-11.23-33.31-25.92-50.13-36.87-3.55-2.31-7.02-3.28-10.31-5.67,10.34-9.57,21.66-18.11,33.52-25.5,1.04-1.84.22-3.64-.55-5.31-6.75-14.6-35.91-23.43-50.97-30.2-8.25-3.71-16.22-8.31-24.34-12.3l-30.21,16.84-.62,40.83ZM225.47,105.48c-.54-.69-.34-1.6-.97-1.49l-.58,1.96-2.92-.96c.02,3.59-3.74,7.32-4.01,10.61-.15,1.82,1.07,3.87.85,4.84-.26,1.12-3.35,1.5-2.87,3.54h-1.99s1.02-1.97,1.02-1.97c-7.63-1.96-10.62,1.74-15.92,6.07-.44,1.18.07,1.69.86,2.47,1.54,1.55,22.42,5.15,25.72,5.37,1.18.08,2.32.35,3.41-.35,3.23-2.31-1.85-17.29-.08-21.56l-2.99-.03c-.31-1.67,2.48-.97,2.75-2.41.38-2-1.13-4.64-2.28-6.11ZM789.35,110.65c-1.64-1.34-3.33-5.32-6.85-5.28-1.98.02-9.75,4.39-7.58,7.15l30.03,16.07c4.42.82,2.99-2.84.96-5-3.51-3.74-12.04-9.25-16.56-12.94ZM550.66,130.44c-19.28-5.09-38.55-10.29-58.08-14.45-1.65.22-6.54,3.81-7.97,5.11-4.23,3.82-16.4,17.69-19.6,22.4-1.25,1.84-4.33,6.58-3.55,8.47,11.59,8.7,23.3,18.38,36.04,25.14,2.94-.02,25.63-12.46,26.33-14.81s.34-7.52-2.81-7.32c-.99-3.87,2.25.65,1.97-2.46-.13-7.21-19.8-8.7-23.7-6.86-9.94,4.69,12.16,11.81,11.71,12.84l-13.34,8.31-22.48-16.01,1.23-4.43c5.7-3.69,12.67-15.75,18.59-17.9,1.87-.68,15.93,2.48,19.05,3.19,18.6,4.2,52.13,11.42,67.96,19.7.62.32,1.91-.47,1.98-.36-.26,7.12-3.97,5.71-7.69,7.8-4.37,2.45-20.9,14.22-23.78,14.28-4.48.08-8.32-4.16-5-8,1.45-1.68,6.08-3.96,7.02-6.06,2.18-4.86-15.32-7.73-18.54-7.02l.6,16.56c-.09.67-4.63,5.29-5.56,5.99-10.04,7.55-24.9,14.88-35.79,22.43-21.07,14.6-40.03,31.61-58.78,49.02-.56,1.27.84,2.63,1.63,3.43,11.27,11.44,33.95,23.42,47.85,32.15,2.36,1.48,4.78,5.41,7.8,6.19,9.67,2.51,12.68-6.4,20.04-9.96l-.79-10.79-1,2-3.93-1.94-11.1,9.52-40.62-26.93-2.43-5.05c4.07-2.16,1.64-4.82,6.92-4.83.24-1.69,4.13-5.39,6.42-7.35,5.73-4.91,10.46-8.5,16.25-13.4,3.98-3.37,8.79-8.96,13.5-10.03l-.91-1.89c2.86.08,4.76-3.34,6.61-3.9,4.97-1.51,11.33,2.31,16.25,3.34,13.39,2.81,27.06,4.63,40.46,7.42,2.32-.58.12-5.87-.63-7.25-2.38-4.36-16.27-6.16-21.31-6.72-1.76-.2-10.27-.84-11.91-.76-3.68.19-7.23,3.07-9.55-.74-.04-1.49,21.85-15,25.04-15.96,6.03-1.81,9.8.39,15.1-.09,4.05-.37,29.35-17.01,34.16-20.63,2.56-1.92,5.69-3.74,7.45-6.44.18-.87-5.34-11.15-6.09-12.05-4.38-5.23-29.98-9.81-37.67-11.87-1.46-.39-2.93-.91-3.34-1.02ZM309.66,205.34c-4.04-5.36-11.54-11.92-16.18-17.33-6.19-7.2-17.73-23.34-25.24-27.76s-28.25-6.8-37.46-8.56c-15.97-3.04-31.79-6.47-48.09-7.68-1.1,1.99-10.08,8.09-8.7,9.97,13.33,1.87,26.85,3.08,40.2,5.3,7.71,1.28,43.35,7.4,47.71,10.29,2.75,1.82,6.75,8.71,9.26,11.78,2.35,2.88,3.93,5.91,7.49,7.97l13.35,17.17,5.97,11.42-43.89,29.66c-10.42,6.79-20.1,16-31.05,21.48l.94,1.88c-8.04,3.97-14.6-1.8-22.25-4.3-2.97-.97-6.44-1.35-10.26-2.63-4.41-1.49-8.84-5.32-13.47-4.03,1.45-2.87.82-6,1.44-9.05,3.95-19.25,10.43-42.9,16.24-61.76.79-2.55,3.01-6.72,5.84-7.19.55-.09.27,1.74,1.16,1.99,5.42,1.53,12.89,1.66,18.07,2.94,4.07,1.01,21.31,4.32,23.58,6.01.39.29,3.58,6.74,4.83,8.41,2.82,3.74,6.31,7.07,8.74,11.18l-42.76,28.97-4.07-.55c-1.11-1.27,4.58-26.49,7.53-27.7,4.07-1.67,7.39,3.23,9.1,3.67,2.04.52,15-6.71,9.57-10.95-2.94-2.3-23.85-8.22-26.32-6.5-3.09,10.7-7.87,23.37-9.71,34.31-.42,2.51-1.81,15.9.45,17.28,5.13.98,10.1,3.8,15.31,1.97l-1.02,1.98,1.98-.03,56.51-41.81c.8-4.19-5.87-7.65-8.18-10.45-14.72-17.92-9.49-18.25-34.29-24.21-11.66-2.8-23.63-4.41-35.27-7.28-4.92.93-10.03,16.44-11.78,21.25-8.32,22.9-14.24,46.84-19.52,70.62,1.62,3.95,4.94,5.01,8.6,6.37,12.07,4.48,28.97,10.58,41.17,13.83,2.41.64,5.34,1.97,7.79,1.31,7.68-5.24,14.53-11.54,22.06-17.02,19.79-14.43,43.08-28.18,61.85-43.14,1.02-.81,7.59-6.19,7.77-6.67,1.65-4.48-.74-4.01-1.55-5.6-.91-1.78-2.46-5.48-3.47-6.81ZM149.14,206.87c4.31-.65,15.21,2.2,17.94-1.3l12.46-32.5c-2.96-10.35-20.53-8.5-17.63,3.23l8.08,4.18c-2.65,4.3-4.27,11.42-8.48,14.58-1.95,1.47-6.86-1.45-10.56,2.38-1.95,2.01-3.46,6.84-1.81,9.42ZM608.79,167.34c-3.7-1.32-8.72,4.65-12.06,6.89-5.1,3.43-30.44,18.12-30.78,22.32.02,1.93,1.2,3.7,2.41,5.1,3.57,4.14,22.76,22.2,26.86,23.64,5.13,1.81,17.21,5.22,10.33-3.33l-24.54-23.45,33.06-23.94c3.14-3.98-2.09-4.87-4.8-6-.24-.1-.25-1.15-.48-1.23ZM855.37,201.62c-2.05-2.19-4.15-4.09-6.35-6.12,6.02-3.93,4.33-11.35-1.54-14.5-.68,2.53-1.72,1.17-2.95,1.98-1.31.86-10.45,8.02-10.6,8.69-.65,2.99,2.11,5.04,4.06,6.85,6.47,6,16.29,10.63,22.53,17.48,2.69,1.01,1.31-4.95,1.01-6.02-1.26-4.46-3.59-5.61-6.16-8.35ZM418.41,203.79c-.31-.55.24-1.62-.35-2.28-1.91-2.14-13.12-10.87-15.73-12.32-7.3-4.04-15.13.32-22.52,2.94-.88.31-.82,1.44-1.3,1.62-10.81,4.09-29.81,9.87-39.23,16.02-1.54,1.01-2.52,1.96-3.08,3.76,9.26,8.68,19.39,16.31,31.07,21.5l27.81,17.66c.95,4.44-14.22,22.39-17.49,27.39-10.44,16.03-23.08,35.49-31.45,52.55-2.43,4.95-11.35,23.5-9.97,27.72.08.24,3.17,3.32,3.59,3.62,9.52,6.81,24.97,13.08,35.57,19.21,2.44,1.41,15.29,8.72,15.4,10.31-7.27,16.3-20.1,28.88-30.23,43.5-.22,4.07,5.67,5.69,9,5.03,3.66-.72,7.82-10.89,10.07-13.96,6.93-9.47,19.41-20.65,24.87-30.13,4.31-7.49,1.72-8.05-4.52-12.35-13.84-9.53-30.89-16.84-45.28-25.72-1-.71-1.82-1.62-2.21-2.81-2.26-6.81,10.05-26.51,13.8-33.36,5.72-10.43,13.06-23.44,20.47-34.44,3.1-4.59,13.84-19.92,17.27-22.78,5.48-4.57,9.88-.33,15.35,2.71,20.04,11.13,39.69,28.21,59.55,40.45,3.21,1.98,15.38,9.42,18.06,9.89,1.19.2,1.44-.13,2.37-.62,2.37-1.26,19.44-14.64,20.32-16.25,2.04-3.75.46-5.06-.64-8.64l-1.79.48-.69,1.53c-2.09-5.1-2.08-.86-3.48.5-2.99,2.91-5.59,3.74-8.23,5.56-3.12,2.15-4.75,6.01-10.08,4.93-.75-.15-.91-1.67-1.95-2.32-11.81-7.39-23.63-14.71-35.61-21.85l.84-1.8c-32.64-18.4-63.76-41.19-96.07-60.47-1.3-.78-13.36-4.06-8.92-7.06l42.89-16.03c3.58.65,18.69,13.88,21.1,11.52.21-.21-.34-3.9,3-4.5.21-.9-1.34-.26-1.59-.71ZM159.98,223.03l-17.96-1.03c-1.94,7.72-2.44,15.65-2.62,23.68-.2,8.74,1.36,17.27,2.11,25.79.45,5.11-1.24,11.94,1.7,17.34,2.1.86,4.73.15,6.77.73,13.17,3.72,26.41,8.31,39.03,13.48l-20.24,22.24c-2.15,3.9.49,7.61,2.76,10.58,1.33-.31,2.38-.19,3.51-1.22,6.59-5.99,14.35-17.19,20.93-24.16,2.63-2.79,14.24-9.3,6.77-13.68-4.67-2.73-13.87-4.29-19.19-6.09-.24-.08-2.84-2.37-3.02-2.43-7.61-2.56-20.78-3.41-27.55-8.71-3.17-2.49-4.76-6.55-7.96-9.04,5.5-2.84,2.08-12.34,3.02-17.85l-2.04-1.14,2.04-1.14v-19.33s11.98.97,11.98.97l-.02-8.97ZM734,225.01c-11.97-3.69-26.98,6.01-36.74,12.74-4.79,3.31-14.82,12-1.68,9.33l1.87,1.88c4.86-3.38,9.73-7.23,14.88-10.14s16.11-6.64,19.65-9.35c1.65-1.27,2.36-2.29,2.02-4.47ZM485.63,241.38c-4.55-2.47-10.65,1.51-8.02,5.65.73,1.14,12.77,9.45,14.15,9.8,3.32.83,14.3-6.62,12.78-11.33-3.09-5.98-2.91-12.94-6.65-18.44-2.88.63-7.76,3.88-8.42,6.83s4.13,9.36,3.52,10.1c-1.61,1.94-2.2-1.94-2.41-1.92-4.09,2.67-4.16-.27-4.95-.7ZM328.78,229.26c-3.05-1.42-8.02,4.84-10.18,6.34-7.51,5.22-20.1,11.55-23.68,18.31-.06.12-1.65-.66-2.61-.17-3.69,1.87-5.69,4.56-7.31,8.24l35.49,20.97c4.63.19,11.29-14.68,14.99-18l.39-2.83c-6.05-4.7-11.01-.28-16.09,3.87-1,.82-1.28,2.15-2.27,2.98l-14.51-9.97c7.7-2.3,21.08-19.86,29.51-16.11,2.08.92,21.76,13.44,22.55,14.53,4.09,5.59-3.79,10.67-6.5,14.64-5.28,7.71-10.72,17.32-16.21,24.68-3.59,4.82-5.4,5.7-11.06,3.44-12.96-5.17-27.24-17.25-40.26-23.73-3.74-1.86-9.17-5.03-13.3-4.25-1.12.21-15.88,11.96-18.22,13.81-14.16,11.24-26.92,23.73-40.31,35.97-1.12,1.02-4.73,2.77-5.02,3.52.79,8.45,4.15,16.53,7.52,24.24,3.74,8.57,14.39,30.03,20.63,36.91,11.41,12.58,23.67-1.39,33.74-8.08,3.1-2.06,11.49-4.2,10.93-8.58l1.98,1.99c1.34-3.3,5.54-5.39,7.99-8.51,3.07-3.92,4.47-7.29,4.92-12.32l-18.54-14.01-17.35,7.84,1.99-1.98c-1.9.43-6.05-7.39-6.05-8.46,5.27-4.22,16.61-17.05,23.56-14.61l35.57,21.5c1.91,2.56-.03,6.46-.82,9.32-3,10.85-9.07,22.4-12.74,33.26-3.18,9.41-5.32,19.18-8.49,28.6-1.01,4.83,5.12,5.8,8.52,7.38,1.89.26,3.1-4.86,3.61-6.33,5.01-14.34,8.42-30.25,13.12-44.88,3.26-10.14,7.6-20.15,10.73-30.26l-.94-2.08-50.36-31.7c-4.21-1.59-14.78,10.29-18.5,13.21-5.08,3.98-17.56,8.45-16.56,15.89,2.09,3.78,9.1,23.59,11.35,24.7,4.66,2.31,13.3-8.55,18.51-9.18l9.85,6.57c2.08,1.79-3.73,4.45-4.84,7.1l-30.88,17.84c-8.11-6.02-14.28-18.22-18.5-27.5-2.57-5.64-7.28-16.91-6.12-22.84s14.39-13.44,19.19-17.53c11.13-9.49,21.33-20.58,34.68-27.13l-.89-1.85,37.68,22.81,24.34,11.76c2.57-6.04,7.12-9.98,10.6-15.45,2.44-3.83,4.16-8.68,6.55-12.45,5.33-8.41,19.17-24.88,18.89-34.2-.05-1.53-.25-4.13-1.32-5.23l-38.96-21.99ZM537.01,246.99l-1.01-1.5-.73.96c6.07,19.92,8.09,42.44,16.26,61.55.53,1.24-.01,2.43,1.95,1.99,7.86-11.1,14.6-23.44,22.63-34.38.7-.96,1.65-1.61,2.87-1.63l-1.99-1.48,11.29-12.26,2.71-.74c-.78-1.62-2.12-.48-2.75-.87-9.7-5.96-32.67-10.17-44.45-11.93-1.84-.27-3.73-.77-5.37-1.66l-1.42,1.94ZM769.73,259.4c-.21-.15-4.18-2.17-4.44-2.23-1.11-.27-2.41.62-3.66.46-.81-.11-1.45-1.15-2.7-1.14-1.42.01-8.84,1.92-9.02,3.13-.86,5.89,7.29,4.38,11.3,5.64s7.62,4.62,12.3,4.45c2.41-1.04,1.33-4.71,1.48-6.72-2.27,2.2-3.42-2.31-5.26-3.59ZM609.89,263.17c-6.52-1.05-9.82-2.46-14.59,3.07-.2.23.61,1.3.42,1.53-6.04,7.09-18.03,17.33-19.41,26.37-.27,1.8-.47,7.34,1.6,7.28l-.91,23.57c-3.78-.04-3.88-1.6-5.74-3-.77-.58-2.18-.54-2.96-1.28-1.85-1.75-1.33-5.56-3.8-5.73-2.62.34-5.45,8.41-5.95,10.87-1.97,9.82,4.03,29.62,7.69,39.41,2.13,5.68,4.66,6.54,10.76,5.74-1.87,2.52.72,1.84.85,2.48.04.2.05,3.82,0,4.01-.19.6-1.82.07-1.96,1.97-.67,9.08.67,29.48,4.8,37.3.54,1.02,1.18,1.35,2.31,1.24l-1.99,1.48,5.01,13.5c2.7.41,1.94-.48,2.02-2.51.36-8.87-.77-18.13-.71-26.98.24-36.56,1.16-73.31.77-109.95.27-4.58,5.82-5.37,8.82-8.15,2.07-1.91,16.07-17.67,16.07-18.91l-2.87-.64-.22-2.68ZM461.46,339.44c6.32-6.85,10.66-10.03,7.05-20.45l-46.62-31.38c-3.25-1.22-7.25-4.29-10.37-1.59-13.56,20.47-27.31,41.07-37.58,63.41,11.68,6.07,21.9,14.5,33.34,20.61,1.42,2.72,5.25,1.23,7.23,4.95l1.48-1.99c2.56,10.36,16,2.21,11.05-3.47-1.52-1.75-5.86-2.47-7.6-4.49l-2.43,1.95c.02-1.28-.12-2.47-1.03-3.47-3.44-3.79-14.36-8.6-18.91-12.09-1.53-1.17-5.92-5.11-6.02-6.88-.13-2.47,6.15-14.25,7.78-17.22,3.48-6.35,10.77-20,14.74-25.26.73-.96,3.18-3.81,4.07-3.96l23.85,14.95c1.63.62,7.79,3.89,8.26,4.26,1.64,1.32,3.22,4.67,5.82,5.67l.29,1.34c-.62,1.91-2.24,3.24-3.08,5.01-1.18,2.49-2.12,6.46-3.76,9.19-1.86,3.1-7.1,5.66-9.57,8.44l-1.4-.03c.06-2.28-9.99-7.21-10.01-8.43,0-.24,1.53-1.25,1.72-2.23.4-2.01-.09-3.93.26-5.57.12-.55,6.48-6.37-.78-7.54-4.92-.79-10.71,7.06-12.43,11.16-1.27,3.02,1.41,6.26-1.8,5.69l24.46,17.07c1.8.02,3.04-.71,4.48-1.63,4.42-2.81,13.67-11.85,17.51-16.01ZM153.15,307.15c-1.9,4.38,2.64,9.93,6.79,8.37,11.49-4.32.19-11.55-6.79-8.37ZM525,320.01c-2.44-.28-4.17.04-6.36,1.13-11.6,5.76-25,21.49-37,28.05l-43.33,37.12c-2.51,3.04,2.78,8.2,5.19,10.69,12.99,13.36,39.44,27.66,55.24,38.39,6.84,4.65,19.38,16.13,26.3,19.06,2.02.86,11.13,1.89,11.95-.99l-1.47-3.48-39.48-28.42-4.04.43c-.4-1.82,1.68-.63,2-1,1.44-1.69-33.45-22.6-35.95-24.54-.82-.64-5.13-5.21-5.16-5.93-.18-4.18,7.37-10.61,10.64-13.49,14.67-12.94,35.09-29.92,50.96-41.04,1.63-1.14,3.57-1.68,5.5-2l-1.99-1.97c8.37-.56,5.74-6.15,6.99-12ZM680.88,333.13l-42.87-13.12c-.54.5,1.43,3.79,1.97,4.31,3.44,3.31,8.25,7.9,11.69,12.03,2.49,2.99,1.93,8.49,8.29,6.61l2.01-7.48c12.57-3.75,4.05,11.7,4.6,18.69.39,4.93,3.52,11.37,9.44,9.84-1.21-5.01,1.09-8.46,1.95-12.56.61-2.92.8-6.24,1.28-8.66.63-3.19,2.35-6.25,1.64-9.65ZM621.82,351.81c1.77-3.04-7.63-20.91-10.81-17.8v23.99c.92.95,10.49-5.64,10.81-6.19ZM707.76,341.24c-3.71-1.1-9.42-4.12-11.64.4-3.31,13.56-9.55,26.46-10.1,40.64,3.76,5.34,10.09,7.76,15.07,12.13l50.84,25.1c23.33-7.82,45.48-21.91,68.99-28.88,2.98-.88,6.1-.47,8.49-.62.9-.06.02-3.13,2.58-2.01-.66,6.36,13.57,32.03,11,36-.06.09-1.31-.9-2.02-.41-3.36,2.31-8.94,4.42-13.71,6.18-5.26,1.93-35.3,11.13-36.18,14.84-.25,1.06,1.15,3.05,1.91,3.91,6.81,3.12,16.54,17.31,22.29,19.75,3.49,1.49,10.71-2.22,9.65-5.64l-19.93-15.62,49.78-18.21c-1.42-2.24,1-1.57,1.22-2.48,1.35-5.34-12.27-34.09-12.79-42.03-1.61-2.93-7.91-6.78-11.13-7.68-7.52-2.1-30.44,11.07-38.41,14.56-13.37,5.86-26.89,11.45-40.19,17.44-9.59-3.99-18.51-9.35-27.82-13.9-1.54-.75-1.97-.45-4.39-1.68-3.24-1.64-24.96-12.1-25.05-13.52,3.33-7.37,4.88-15.54,7.49-23.3,1.1-3.27,6.9-12.32,4.05-14.98ZM199.37,355.8c-.58-1.1-.98-5.14-2.2-7.48-1.33-2.55-4.62-8.56-7.43-8.18-9.53,1.3-5.48,7.97-.76,12.37,2.23,2.08,10.11,9.09,12.01,3.98.2-.91-1.41-.29-1.63-.69ZM533,353.99c-2.84-13.24-3.86-11.27-13.06-3.52-12.55,10.57-25.78,21.67-37.96,33-1.83,1.71-2.13,5.12-4.97,3.53-.14.23.78,4.73,1.02,5.23.86,1.8,18.23,10.83,21.23,12.8,11.15,7.32,22.8,15.5,34.06,23.16,4.3,2.93,14.24,11.82,17.75,13.33,1.15.49,2.54-.52,2.82-.3.48.38-.6,2.19,1.1,1.79.39-3.65.2-6.32-2.99-8.5l1.99-1.48c-2.8.16-2.47-2.47-3.4-3.62-7.89-9.75-30.72-22.04-42.11-29.44l-2.23-.36-14.23-11.11,34.7-32.53,6.27-1.99ZM731.05,367.93c1.32-4.26,8.94-15.06,4.91-18.39-3.74-3.09-8.11-3.24-11.41.52-2.89,3.29-9.44,20.11-7.34,23.74,1.06,1.84,35.16,18.22,38.27,18.25l50.52-20.06c2.48-3.31-10.34-5.8-12.41-4.95l-35.88,14.7c-2.49-.82-5.59-.81-7.94-1.79-4.69-1.95-13.92-7.8-17.2-11.53-.35-.39-.99-.47-1.51-.49ZM144.73,349.27c-.58-.48-4.56-1.46-4.72-1.27.33,2.9-2.19,8.78,1.98,9.02-3.65,3.49,2.23,8.12,2.02,12.98l8.07-5.61c.23-1.12-6.69-14.56-7.35-15.12ZM772.99,359.01c-5.14,1.44-13.03-4.37-16.47-4.01-4.85.5-5.95,8.04-3.61,11.54,1.09.74,2.25.5,3.45.41,1.76-.14,19.41-5,16.63-7.94ZM636.99,373.99c2.21-4.84.1-10.49-5.57-11.04-1.71-.17-1.37,1.49-1.67,1.62-.65.28-1.52-.17-2.23.38-2.15,1.65-16.57,13.94-16.96,15l.46,12.05c.76.85,5.92-2.85,6.91-3.58,3.3-2.44,14.08-10.72,16.42-13.33.89-.99.72-1.88.67-3.08l1.98,1.99ZM545.99,406c2.9-13.85-9.69-13.33-16.81-21.48,1.14-4.05,8.06-7.39,8.65-11.24.37-2.36-1.32-5.83-4.11-5.12-1.19.3-19.51,14.89-18.72,15.83,3.15-.37.79,1.42,1.47,2.96.89,2.03,28.34,20.36,29.52,19.05ZM164.69,375.32c-.75-.66-2.63-1.68-3.52-1.18-.37.73-.62,1.7-1.25,2.23-8.16,6.86-10.01,9.36-14.2,18.85-1.25,2.83-4.84,5.36-2.23,9.8,1.72,2.94,6.94-1.18,7.56,5.49.13,1.44-.53,7.57-1.23,8.77-1.66,2.86-6.18,3.45-7.36,6.66-1.42,3.85-1.39,8.93,2,11.84,2.15.32,14.74-9.5,15.33-11.48,2.07-6.93-4.49-15.86-2.9-22.83l-1.89-1.46,2.01-.51-1.79-.62c.09-7.27-.91-9.82,6.29-13.87,1.97,2.84,9.71,31.97,15.35,27.87.39-3.52,14.65-10.32,15.06-11.48,2.35-6.69-8.57-3.42-11.46-3.82-5.14-.71-6.31-9.78-8.07-13.47-1.26-2.63-5.62-8.99-7.69-10.79ZM336.12,433.87c4.11-.83,6.67,3.07,10.33-.93,3.49-6.91,8.81-12.7,12.56-19.43,2.06-3.7,7.41-12.41,4.52-15.53-2.43-2.63-28.19-16.99-30.93-16.96-1.13.01-3.03.58-3.59,1.75l-11.96,35.63c.17.66,5.99,2.57,6.32,2.51,5.64-1.08,11.01-26.19,15.13-27.91,2.49,4.92,11.69,4.89,12.51,10.59.41,2.86-8.03,16.18-10.19,19.73s-7.25,6.44-4.7,10.55ZM653.18,387.81c-4.04-8.44-9.1.37-12.93,3.16-6.79,4.93-14.16,8.75-18.07,16.78l2.91,8.45,14.06,18.64c2.7-.93,10.72-1.94,4.84-4.34l2.01-.99c-4.92-6.52-10.29-12.84-10.9-21.36,5.17-2.45,9.87-5.75,14.66-8.84,2.05-1.32,3.46-5.04,7.24-3.31l-2-9-1.81.81ZM877.13,403.89c-2.69-3.74-5.49-17.06-9.65-17.87-2.81-.55-6.52.31-9.48-.01l.52,4.89c2.77,3.22,13.2,28.75,14.69,29.44,1.11.51,3.56,1.09,4.61.49,5.24-7.81,13.24-13.19,16.02-22.68-6.5-6.68-9.55,6.07-16.71,5.75ZM283,392.01c-3.61-1.47-6-.68-9.17,1.33-1.52.96-12.61,10.88-11.83,11.65,15.54,6.73,16.05-.02,21-12.98ZM469.6,434.48l-45.92-31.34-11.64,9.63-25.01,32.66c2.41,3.27,8.73,3.57,11.54.64,2.03-2.11.96-4.08,1.49-5.04.07-.13,1.1,1,2.95-.41,4.32-3.3,12.79-13.47,17.03-18.08,1.7-1.84,1.29-5.11,4.45-5.13,12.66,6.74,25.31,14.29,37.26,22.3,9.57,6.41,20.42,20.69,33.23,13.8-1.3-1.37-2.59-2.72-4.06-3.92-6.61-5.35-14.43-10.19-21.32-15.1ZM668.19,501.81c-.8-.67-1.73-11.18-1.91-13.34-1.36-15.94-3.25-52.92.97-66.73,1.68-5.49,10.68-10.19-1.25-14.26-3.27,2.99-9,6.35-9.92,11.09-1.62,8.39-.05,21.22-.05,29.87,0,12.28-.86,25.98-.02,38.05.87,12.47,4.37,25.01,6.12,37.36,1.29.66,2.83,1.07,4.14.23,2.48-1.6,9.9-12.56,13.08-15.73,2.43-2.43,12.47-11.16,15.08-12.43,1.23-.6,2.17-1.56,3.6-.48,8.86,19.62,19.76,37.96,30.61,56.48,1.36,2.32,1.45,3.34,1.85,4.01,1.9,3.22,10.33,13.97,10.5,16.64.3,4.7-9.35,11.8-12.51,15.42-9.32,10.68-18.12,21.89-27.44,32.57-1.13,1.29-3.01,1.88-3.74,2.74-2.44,2.86,1.46,12.52,6.49,9.49l34.7-36.78c4.73,4.29,2.22,3.54,2.4,8.49.2,5.33,1.37,7.54,6.57,9.51,1.81-1.18,1.43-2.67,1.57-4.45,1.19-15.12-1.74-32.47-1.52-47.59-9.32-15.21-19.55-29.94-28.71-45.28-5.6-9.39-11.54-24.03-17.82-32.18-1.4-1.81-4.34-4.79-6.82-3.32-.38.22-.77,2.1-1.59,2.85-6.67,6.04-13.29,11.95-19.53,18.42l-4.86-.64ZM818.43,408.52c-.46-.42-.41-1.45-.87-1.41-1.73,1.6-5.03.75-6.33,1.23-.16.06-.32,1.51-1.47,1.96-18.33,7.11-37.39,15.48-55.12,24.85-2.72,1.44-16.26,8.62-16.57,10.5,9.7,16.17,9.72,3.79,16.45,1.37h1.46c2.51,7.07,11.32,11.71,16.54,16.96,1.33,1.34,9.68,10.36,9.99,11.04.84,1.85.68,2.08-.54,3.48-1.94,2.24-13.79,6.57-13.94,8.01,5.28,9.28,13.36,3.51,20.47-.48,3.49-1.96,12.27-6.23,11.51-10.36l-35.58-32.64.53-2.33,56.39-22.59c3.12-3.52-.14-7.07-2.93-9.58ZM219,417.02c-2.27-.16-3.63-2.34-5.75-2.85-4.76-1.14-15.91,5.62-20.16,8.42s-8.58,6.46-11.61,10.26c-.42,2.74,14.49,28.87,17.13,33.04,1.72,2.71,6.1,9.83,7.73,11.77.66.79,3.18,2.27,4.16,2.3.82.02,11.36-5.57,12.44-6.51,4.58-4.01,5.56-15.86,6.05-21.95.3-3.67.99-15.56.55-18.51-.16-1.08-1.68-2.51-1.56-3.97-1.19-.87-14.74,9.44-15.47,11-3.16,6.82,3.44,5.99,5.51,7.47,2.3,1.64,1.9,19.24-4.49,19.46-3.84.02-3.12-2.41-4.53-4.4-2.49-3.51-6.38-8.19-8.39-11.66-.9-1.55-6.38-13.47-6.39-14.25-.09-5.28,24.52-12.04,24.79-19.62ZM734.82,426.17c-.36-.61-10.55-6.53-12.16-7.33-3.07-1.52-7.25-3.35-10.66-3.83-.9.88,6.16,9.53,7.03,10.46,1.08,1.17,8.05,8.24,8.62,8.44,3.43,1.18,8.91-4.76,7.16-7.74ZM628.74,451.74c2.6-2.61-3.32-10.76-5.3-13.68-3.43-5.07-8.45-10.33-12.43-15.06,1.16,4.51-3.05,13.32,1.44,16.07,1.59.97,4.05.63,4.67,1.52.78,1.12,1.12,5.23,1.89,6.9l-3.88-.39c-3.91,5.45-6.35,8.57-5.13,15.89,1.92,2,15.22-10.95,18.73-11.25ZM677,434.5c-1.64,11.14,1.21,25.94,0,37.5l3.01-.99.48,1.98,18.02-15.97c13.34,17.53,21.93,37.91,33.67,56.31,3.81,5.97,7.9,12.14,12.83,17.18l-1.99.99,3.01,4.5c3.8-1.79,1.4-6.73,1.35-9.67-.03-1.89.87-3.62.62-5.73-.87-7.24-26.81-43.71-32.59-51.99-2.23-3.2-12.69-20.85-15.07-21.63-.56-.18-3.03-.09-3.25.11l-.11,2.89c-5.63-2.13-6.24,6.81-10.95,6.03l-.67-15.54,1.16-1.18,2.51.71c.51-5.34.56-7.93-4.03-11.48-4.16-3.22-7.39,2.03-7.97,5.99ZM905.93,456.95c-.2-8.34,1.84-16.77-.42-24.94-5.9,7.05-8.79,15.43-10.9,24.21-.92,3.82-.91,7.4-2.1,11.79-.55,2.05-4.02,12.9-6.98,8.97l-5.17-10.04c-4.57-.42-7.38,1.69-9.36,5.58,2.65.76,1.2,2.65,2.77,5.17,1.67,2.67,4.83,5.02,5.89,6.64,3.09,4.72,4.76,14.52,12.33,14.68l12.95-40.57-1.94-1.42,2.92-.06ZM251.75,437.24c-.38-.4-6.84-3.32-7.23-3.24-1.08.68-1.26,1.36-1.49,2.54-3.53,17.76-1.11,72.74,3.47,91.02.88,3.5,2.17,7.76,6.54,7.05,1.38-.23,13.94-6.87,15.98-8.08,10.92-6.45,20.42-14.97,31.33-21.42l43.2,55.81-27.59,37.55-20.98,24.23c-1.08,1.47,2.51,6.82,3.19,7.02,9.02,2.65,18.88-16.32,23.8-21.96,6.64-7.61,13.56-15.41,20.05-23.01,4.59-5.38,10.09-10.11,14.47-15.73l47.5,63.47,3.67,2.36,53.82-46.83c1.8,1.45,2.26,3.27,2.52,5.46.89,7.67-1.79,51.2,1.59,53.62,15.32,1.86,32.4,3.91,47.85,2.83,6.08-.43,12.91-2.17,19.05-2.93,4.03-.5,12.39-.02,15.86-1.14,3.11-1,2.87-12.61,3.79-15.69,2.7-2.15,9.49,1.61,11.4-1.11,1.15-1.64,1.7-15.05-3.56-14.06l-.04,2.99h-6.96s0-12.94,0-12.94c2.46-2.72,10.51.82,11.07-1.72s.04-9.06-3.07-9.89c-2.22-.6-4.38,2.08-4.06-4.9.3-6.6,6.04-9.18,7-15.1.73-4.48-.57-9.81.52-14.49-13.37-15.37-26.24-31.19-38.27-47.63-2.82-3.85-5.07-8.52-7.78-12.22s-6.86-10.19-11.92-7.19c-3.53,2.09-10.54,10.8-14.27,14.04-1.56,1.36-3.86,2.52-5.74,4.04-3.29,2.65-3.63,5.66-9.01,6.75l-20.44-27.27-4.57,1.55-1.94-2c-2.5,1.77-3.34,4.11-2,6.97,4.61,5.01,9.47,10.31,13.45,15.77,3.89,5.33,9.98,22.53,18.21,17.96,6.99-3.88,16.2-15.32,23.31-19.73,2.33-1.45,5.08-1.77,7.5-2.99.18,4.01,3.95,5.71,5.85,8.67s2.78,6.5,4.73,9.27c8.99,12.79,20.71,23.64,29.26,36.82l-7.93,68.64-1.93,5.13c-1.33,1.35-9.17,1.45-11.4,1.51-12.73.36-28.48-.24-41.07.96-4.55.44-8.49,3.81-13.36.87-2.75-21.37.56-42.93-.99-64.13,5.16-7.96,13.29-13.15,20.5-19.08.77-.64,1.15-2.12,2.36-3.11,2.17-1.78,6.76-2.29,6.99-5.53l1.49,2,1-2.01c2.36.92,15.68,18.85,16.3,21.7,1.92,8.77-.86,23.66-1.71,32.93-.11,1.23.77,2.31.77,2.92,0,.22-2.13,1.71-2.44,3.25l-17.21-1.03-1.1-22.69c2.63-1.52,8.53.77,9.73-2.76.69-15.76-6.38-18.58-16.43-6.95-8.22,9.51-1.59,19.27-3.43,30.97l2.04,1.14c-4.22,1.28-1.36,8.17-.8,11.85l3.29,1.47c.8-2.95,2.16-.69,4.94-.75,4.67-.1,25.93.36,27.99-1.13.61-.45,1.21-.81,1.37-1.62l6.04-47.56c-7.14-12.76-16.67-24.67-25.27-36.82-1.17-1.07-2.48-1.01-3.94-.9-4.99.36-20.06,14.37-24.65,18.46-3.67,3.27-6.83,7.2-10.49,10.5-10.13-15.15-19.79-30.64-31.09-44.9-4.96-6.26-16.68-21.4-22-26-4.82-4.18-6.42-3.3-11.32-.47-9.6,5.54-23.66,18.59-33.16,25.83-3.97,3.02-15,9.19-17.32,12.57-2.01,2.92,2.35,9.89,6.33,8.51l46.25-36.3c2.75-1.56,8.62,5.19,10.61,7.43,12.21,13.72,30.23,38.45,39.79,54.25,1.71,2.82,5.91,6.61,4.53,9.64-.42.91-5.48,6.43-6.57,7.49-11.84,11.48-31.21,29.41-44.79,38-1.67,1.06-1.03,2.92-5.48,1.19-13.39-16.42-26.76-33.33-37.26-51.76l10.79-10.66c-1.63-3.14.17-1.01,1.82-2.14,8.05-5.51,14.24-15.08,24.29-17.63l21.95,32.63-15.34,14.09c-1.92.16-7.62-7.96-8.12-9.74-.91-3.25,5.99-8.8-.63-13.77-2.02-.66-5.09,1.11-6.72,2.31-.47.35-5.37,5.12-5.57,5.45-3.06,4.97,14.13,21.9,15.8,27.69,1.11.95,2.47,1.39,3.94,1.09,4.78-.95,24.1-18.3,27.31-22.74,1.39-1.93,2.98-4.32,1.72-6.72l-29.57-43.01c-2.59-2.18-4.26-2.63-7.33-.93l-46.87,38.44c-4.96-5.57-9.89-11.46-14.46-17.35-4.98-6.41-10.07-12.65-15-19-6.68-8.62-14.49-22.83-22.03-29.97-1.45-1.38-3.12-2.24-4.93-3.03l-39.72,27.55c-4.85.93-5.66-4.85-6.25-8.63-2.92-18.82-2.26-42.63-2.61-61.94-.05-2.64,2.28-6.97-.74-10.22ZM439.61,443.41c-3.13-1.75-9.65-5.75-13.12-4.52s-12.23,9.03-9.48,13.1l1.4-1.91c4.2,1.3,31.63,6.12,33.59,4.45l.54-2.56c-4.46-2.51-8.48-6.08-12.92-8.56ZM168.76,442.28c-5.72-2.07-17.88,11.93-20.31,16.72-.12.23-1.42,3.82-1.6,4.4-1.14,3.52-1.51,5.98-1.84,9.59,3.69,2.17,16.6-17.9,22.9-14.88l30.29,56.68c.19.15,2.96-.36,3.49-.59,4.77-2.1,15.65-7.5,19.68-10.33,1.44-1.01,2.54-1.95,2.65-3.85l1.45,1.98c2.11-1.15,6.43-2.42,6.35-5.32-1.97-3.25-.44-8.37-6.08-7.48-2.13.34-12.66,6.13-15.41,7.64-2.06,1.13-5.41,2.73-6.34,4.56l-2.02.15c-6.36-5.8-29.74-58-33.21-59.25ZM278.01,472l-1.17-22.34-9.83-4.66c-2.12,1.51-.75,36.87.14,42.85,4.56,2.33,7.14-1.48,11.43-2.82l23.13-16.9c2.72-1.82,6.66,1.05,8.68,2.99,7.06,6.73,15.75,21.94,22.6,30.11,1.14,1.36,3.09,2.15,4.53,3.75,4.02,4.49,4.95,11.19,12.05,8.1,5.16-2.25,27.59-18.73,32.92-23.07,3.17-2.57,6.48-5.54,5.49-10-2.52,1.32-5.06-.86-7.51-.84-7.81.06-24.61,16.99-32.97,19.89-3.8.03-25.14-28.68-28.05-33.99l-1.86-1.14c-7.75-1.22-14.28-6.77-22.13-6.62-3.98,8.42-8.67,11.98-17.46,14.71ZM850,445.01l-12.28,3.21-8.71,4.77c2.36-.34,2.48,2.72,3.96,3.55,4.05,2.28,14.53-8.05,17.03-11.53ZM642.99,460.99c-3.39-1.28-4.03,1.62-4.48,1.78-1.21.43-2.43-.51-5.03,1.22-3.03,2.01-15.07,12.93-18,15.97-1.56,1.62-4.4,3.91-5.04,5.99-1.13,3.67-.98,25.92-.36,30.47.34,2.52,3.13,9.62,5.43,10.58,2.01.83,1.46-1.37,1.52-2.51.46-9.23-.66-19.16.39-28.48l18.09-19c2.26-.42,1.39.98,1.49,2.47.36,5.19.86,16.19,0,21.01-.78,4.38-3.78,1.35-4.85,1.71-.22.07-2.91,3.22-2.98,3.44-1.04,3.15,0,13.61,4.31,12.99l12.38-8.83c-.23-5.09.15-10.25-.07-15.35-.14-3.31-.52-7.35-.78-11.01-.54-7.5-1.99-14.91-2.03-22.46ZM755.01,465c-2.41,4.73,3.45,6.93,4.98,11.44,9,2.29-1.72-13.76-4.98-11.44ZM356,475.01l-13.99-3.01c-.32,4.75,3.48,9.16,8.28,7.99.69-.17.59-1.39,1.51-1.89,1.35-.73,4.69.3,4.2-3.09ZM164.74,480.27l-4.06-1.15c-4.89,4.32-17.15,19.58-10.65,25.32,5.44,4.81,8.42-8.08,13.92-7.41.22,3.66,4.44,7.49,5,10.51,1.06,5.72-2.89,38.58,6.54,38.49,4.61-.04,2.83-9.84,3.18-12.88.83-7.17,2.99-14.21,1.96-21.47l-15.88-31.41ZM902.97,568.99c1.69-8.8,3.93-16.84-1.78-24.68l-42.88-61.22c-3.65.19-9.01,4.77-7.57,8.58,1.78,4.71,13.27,16.75,17.07,22.01,7.01,9.7,17.25,22.55,23.16,32.06,2.6,4.18,5.33,7.53,2.96,12.48-4.99,10.4-8.2,21.61-12.45,32.75-2.67,6.98-5.54,14.14-9.47,20.53l2.01.99-2.01,1.49c1.96.43,2.69-.43,4.04-1.44,1.04-.78,7.41-7.39,8.38-8.62,6.06-7.71,7.62-21.61,11.88-31.41.33-.76,2.02-.06,1.17-3.52l1.07-.97,4.43.97ZM563,488c-13.07-1.64-3.64,9.24-.49,4,.75-1.25.5-2.65.49-4ZM542.75,491.26c-3.16-3.07-12.86-.22-8.99,5.48,9.11,9.97,16.3,24.17,26.56,32.93,1.01.87,2.29,1.5,3.68,1.32-1.55-2.69.79-4.79.77-6.33-.05-4.62-14.86-22.35-18.58-27.35-1.22-1.64-2.7-5.33-3.44-6.05ZM485.83,491.16l-9.84-.16c-.47,4.54,1.33,9.01,6.22,6.76,1.63-.75,2.82-2.48,4.68-2.91l-1.06-3.69ZM834,500.01c-1.09-.99-8,3.18-9.32,4.17-5.64,4.2-14.47,20.53-18.5,27.5-4.53,7.83-8.56,16.96-13.14,24.9-.83.66-7.79-3.35-8.93-4.19-1.04-.76-1.97-3.31-2.59-3.35-3.82-.23-3.36,10.39-1.05,12.99.6.67,12.5,8.63,13.28,8.82,1.49.37,2.43-.15,3.3-1.32l36.95-69.53ZM907,501.01c-3.06-1.98-7.34,10.43-8.09,12.2-.31.73-1.52.66-1.8,1.45-.09.26-.72,5.15-.66,5.42.61,2.99,3.72,4.72,6.58,3.43,3.36-1.51,2.66-18.46,3.97-22.5ZM855.86,616.84c10.16-18.76,17.77-38.81,23.88-59.22l-35.22-45.62c-4.2,3.74-5.46,9.3-8.13,13.87-8.11,13.86-14.66,26.07-20.98,40.02-3.08,6.79-9.99,12.03-3.41,18.62,8.23,8.23,22.13,17.06,31.52,24.49,3.85,3.05,6.56,9.43,12.35,7.84ZM249,601.99c-5.34-14.92-10.3-31.32-13.35-46.93-.87-4.44-2.08-9.09-2.63-13.58-.52-4.2,1-25.95-6.33-25.32-2.12.18-9.32,5.62-12.02,7-4.79,2.45-19.44,8.26-21.72,12.28-1.02,1.8-1.61,8.89-1.62,11.25,0,.59.74,8.03.85,8.53.22,1.04,4.37,11.79,4.79,12.3.25.32,5.73,4.83,6.08,4.99,1.06.49,2.23-.45,2.76-.24.25.1,1.74,3.72,4.19,2.71l.02-5.99,1.98,3.99c-1.59-5.95,5.77-10.09,3.99-14.99l3.02-.5c-1.8-2.37-3.6-5.21-6.96-5.48-1.47,2.08-6.68,13.03-8.91,10.87l-3.12-18.23c2.46-2.15,20.57-14.37,22.02-13.22,3.87,16.39,5.07,34.55,9.03,50.83.45,1.86.47-.8.9,4.22.65,7.64,7.43,11.19,13.53,14.52,1.21.66,1.94,1.35,3.52.97ZM799,518.01c-1.62-1.44-15.56,6.37-17.51,7.97-6.1,4.99,3.48,12.76,7.05,10.12l10.46-18.1ZM720.37,571.8c-.51-.94-1.1-5.84-1.9-7.78-3.9-9.48-14.89-31.29-20.64-39.35-3.85-5.4-5.59-4.29-10.3-.64-4.27,3.31-27.8,27.04-30.04,26.95l-5.51-25.98c-9.26,3.98-14.79,12.46-23.34,17.27-.53,4.11,2.56,8.82,6.87,8.39,1.43-.14,6.94-7.31,8.98-8.68,1.08-.73.7-1.56,1.99.02,3.32,4.07,6.29,32.94,8.03,33.01,5.55-1,3.29-7.01,6.94-12.06,4.15-5.74,22.02-22.77,28.04-26.96.88-.61,1.24-1.83,2.54-.53l16.95,34.07c-.11,3.88-11.47,11.84-12.44,14.43-.42,1.12.74,2.51.46,3.04-.07.13-1.36-1.08-3.02.36-1.01.88-12.81,15.93-13.24,16.91-1.11,2.57,2.07,9.11,3.82,9.66,3.34,1.06,2.67-2.26,3.81-3.58,8.07-9.25,17.68-17.77,25.62-27.15,2.87-3.39,5.05-7.38,8.01-10.72.34-.86-1.41-.3-1.63-.69ZM299.58,534.42c-2.63-1.61-5.6-4.05-8.93-2.35-6.15,3.91-10.94,9.06-17.35,12.74-5.15,2.95-20.05,7.46-20.74,13.07-.41,3.29,1.78,5.12,2.33,7.73.67,3.18.67,6.83,1.36,9.64,3.12,12.65,8.08,25.52,10.44,38.51,2.29,1.33,9.65,5.51,12.14,4.98l2.16-4.07c-7.48-17.54-15.2-35.38-16.55-54.67,3.77-2.62,8.29-3.55,12.23-5.83s13-9.94,16.85-9.77c2.62.12,13.53,12.4,13.56,15.08.05,3.95-10.93,17.66-14.91,15.34-1.18-4.95-8.55-13.78-11-5.09-1.17,4.13,6.78,24.96,11.33,24.96,3.71,0,14.07-14.86,16.56-17.9,1.56-1.91,5.36-4.39,6.56-6.16,2.81-4.16,6.64-11.25,3.83-15.59-3.01-4.65-15.24-17.78-19.86-20.62ZM682.58,579.58c3.11-4.07,10.71-12.73,9.25-17.85-.74-2.6-3.8-4.6-6.39-2.8-.8.56-8.14,9.05-9.41,10.6-1.93,2.35-6.03,7.82-7.68,10.33-3.61,5.51-4.85,11.23,3.01,13.08,3.14-4.88,7.75-8.84,11.21-13.36ZM779,583.5c-.9,3.06,0,16.54,0,21,0,.22,1.3.94.91,1.39l-1.9,1.09c2.38.59,3.13,1.6,5.02-.43,1.33-1.43,10.01-17.76,9.99-19.1-.09-3.56-4.39-2.23-5.51-2.7-.49-.21-.46-1.39-1.27-1.65-1.78-.56-6.54-1.96-7.23.4ZM397.62,646.37c-10.9-14.41-24.03-33.61-35.64-46.85-7.83-8.93-8.54-2.08-14.04,3.68-9.8,10.28-19.08,21.07-27.93,32.31-.33,2.09.29,1.19,1.37,1.59,2.55.95,7.52,2.44,9.91.96,2.6-3.76,21.48-29.73,24.18-29.06l32.64,42.39c5.31,5.31,8.35,2.92,14.89,3.6.69-2.77-2.84-3.14-3.67-4.22-.14-.19-.21-2.43-1.71-4.41ZM779,644.5c-.79,5.59.58,12.71,0,18.5,4.13-5.22,6.45-12.92,9.28-19.22,1.72-3.82,4.85-6.63,5.4-11.44.12-1.03-.99-3-.67-3.31.13-.13,2.15.07,3.46-1.05,2.24-1.92,9.13-14.96,10.04-14.97,8.36,7.01,16.79,13.78,25.02,20.95,3.14,2.74,5.94,3.74,8.07,8.07,2.23.03,7.66-4.86,8.23-7.38.02-.91-4.36-5.67-5.16-6.33-9.1-7.63-19.08-15.65-28.46-23.27-2.25-1.82-5.65-3.19-7.28-4.58-1.14-.97,1.18-3.12-1.43-2.5-4.52,1.08-10.96,14.84-13.52,19.27-4.1,7.07-11.78,18.86-12.97,27.25ZM449,659.99c-.79-12.99,1.36-26.22-1.49-38.99-8.15,5.1-17.27,12.95-24.02,19.94-3.17,3.28-6.03,5.93-7.49,10.51l6.38,2.44,16.61-13.91c.61,7.95-1.77,21.31,10.01,19.99ZM746.41,643.69c-1.63-6.12-.84-8.1-4.6-14-1.98-3.11-3.9-7.25-8.31-6.81l-1.3.33c-2.75,5.29-17.05,17.07-17.74,22.26-.38,2.88,1.67,9.7,5.67,9.08,2.14-.33,12.45-13.84,13.9-16.55,3.97-2.81,3.04,19.97,3.02,21.54-.07,5.03-1.68,11.61-.83,16.97.08.5,1.3.42,1.48,1.01.31,1,.29,3.5.73,4.2.97,1.55,8.58,7.81,9.46,3.7-2.03-12.59-.69-25.31-.89-37.95-.08-4.82-.14-2.13-.58-3.78ZM365.99,648c2.14-2.94-7.69-13.31-8.98-16.57-2.85-1.77-10.94,8.7-9.12,11.09,2.8,3.67,13.81,2.91,18.09,5.48ZM815.32,641.78c-.22-.22.4-1.55-.25-2.27-1.62-1.79-4.8-5.06-7.37-4.39-2.89.75-12.14,20.87-14,24.88-1.41,3.03-2.28,7.38-4.28,10.92-1.28,2.27-5.5,3.44-1.89,6.09,1.03.2,10.29-6.04,11.49-7.49,5.15-6.17,3.41-15.25,9.6-20.47l9.88,9.71,7.08-4.76c1.93-3.67-8.32-10.21-10.25-12.22ZM563.99,646.01c-3.94.07-3.68,5.33-5.51,8-1.4,2.03-6.26,3.86-6.48,6.99,11.42-.51,13.18-3.91,11.99-14.99Z"/>
  <path class="cls-1" d="M712.71,298.21c.17.23-.15,2.91.28,3.73-6.9,1.49-19.77,2.56-18.98-7.93,3.77.76,16.95,1.81,18.7,4.2Z"/>
  <path class="cls-1" d="M831,335.98c-7.13,4.73-13.81-3.3-20.99-4.48l3.48-4.5c5.09,3.36,13.6,3.05,17.51,8.97Z"/>
  <path class="cls-1" d="M654.98,631.01c.74.81,1.2,4.57,1.36,4.77.33.43,7.18,3.78,3.16,5.22-.56.2-.29-1.12-1.31-1.94s-3.23,1.38-1.18-2.05l-3,.99.88-2.54c-3.33-.5-2.07-6.35.1-4.45Z"/>
  <path class="cls-1" d="M702,154.5c-4.96,4.42-8.29-3.86-11.98-7.03-1.96-1.69-4.23-2.19-6-3.97,5.44-3.78,11.55-6.12,17.98-7.5v18.5Z"/>
  <path class="cls-1" d="M569.88,331.14c8.05,9.22,8.9,21.27,7.11,32.86-1.69-1.09-3.03-4.84-3.75-6.73-1.1-2.9-6.35-15.84-6.62-17.46-.39-2.33,2.33-4.46-.59-7.31l3.85-1.35Z"/>
  <path class="cls-1" d="M850.62,536.37c4.09,5.37,13.66,15.32,16.25,20.25,2.95,5.6-1.76,11.74-3.57,17.18-2.23,6.72-5.07,17.79-9.44,23.55-.73.97-2.15,2.39-3.37,2.31-2.21-.14-22.22-15.3-24.47-18.2-4.25-5.46-2.86-6.3-.51-12.45,1.07-2.82,18.6-41.43,20.47-40.01-.06,3.84,3.09,5.35,4.63,7.37ZM855.81,563.18c-1.07-1.82-6.81-4.44-9.32-2.19-.6.54-5.41,10.59-5.41,11.51,0,2.97,4.23,9.34,7.75,7.32.79-.46,7.89-15.09,6.98-16.64Z"/>
  <path class="cls-1" d="M570.99,270.99l-1.98-2.99c-.02,1.22-.21,2.54-.96,3.54-1.5,1.98-8.21,10.25-9.58,11.43-1.22,1.06-1.79,1.3-3.46,1.03l-4.99-26.44,2.05-1.17c3.54,2.39,15.56,2.71,17.92,4.12,4.39,2.61.94,6.77,1,10.49Z"/>
</svg>