<?xml version="1.0" encoding="UTF-8"?>
<svg id="Camada_1" data-name="Camada 1" xmlns="http://www.w3.org/2000/svg" viewBox="0 0 1024 768">
  <defs>
    <style>
      .cls-1 {
        fill: #413253;
      }
    </style>
  </defs>
  <path class="cls-1" d="M907.38,162.56c-.6-.52.12-1.93-1.37-1.57l-1,2-.5-2.98-8.54,3.46c-.79,2.89-3.93,10.16-1.74,12.33,1.1,1.09,3.24.2,4.68.77,7.76,3.1,9.65,15.39,1.37,17.21-17.81,3.93-29.85-10.39-32.09-26.55-.5-3.58,1.24-7.58,2.63-10.91,3.92-9.37,13.51-18,23.63-19.37,9.33-1.26,17.76.1,26.23,3.87,5.84,2.6,11.98,6.1,15.2,11.8,4.79,8.48,10.04,23.11,9.02,32.77-1.9,17.93-16.42,41.71-33.17,49.3-3.87,1.75-13.48,2.39-18.06,3.47l-1.52,1.48c.36,3.18-1.29,6.63-.96,9.59s3.2,6.78,4.13,9.96c9.45,32.63,5.28,69.72-.18,102.43-2.38,14.28-4.58,28.9-9.36,42.64-.61,1.75-2.7,2.76-3.32,4.68-1.09,3.37.16,6.95-.68,10.32s-5.79,10.03-7.26,14.74c-6.58,21.07-5.53,32.73,3.62,52.38,3.95,8.47,9.11,12.43,8.95,23.13s-8.93,24.95-12.35,35.7c-8.31,26.11-9.31,48.56-9.71,75.3-.15,10.07,2.64,30.58-14.26,26.23-3.61-.93-3.79-4.78-6.73-4.74-2.36,7.69-7.57,18.47-14.09,23.43-7.29,5.55-22.35,9.35-31.01,5.93-3.41-4.67,6.6-20.21,6.07-26.36-6.44,5.46-14.19,23.89-22.44,25.04-6,.84-14.05-.17-12.11-8.05,1.73-7.04,13.04-19.96,16.74-27.32,1.91-3.79,11.83-26.78,12.29-29.55,1.34-8.22,1.59-16.17,1.44-24.62-.14-7.95.83-21.82-1.56-29.35-.74-2.34-2.7-3.6-3.46-5.62-.86-2.29.19-3.9-.76-6.06-6.16-14.01-32.81-27.05-45.06-37.03-42.76-34.83-65.63-102.5-57.76-156.62,1.09-7.52,6.21-13.21,11.19-18.83,2.07-2.33,15.44-15.96,16.83-15.84,1.94.97,8.44,7.3,9.17,8.87,2.66,5.73-9.36,13.78-13.02,17.92-1.44,1.63-7.65,8.79-8.03,10-1.8,5.88-1.58,15.39,1.05,21.05,4.72-3.59,6.17-9.83,9.48-14.24.76-1.02,2.27-1.32,2.99-2.24,3.07-3.91,22.7-25.48,22.67-28.02l-19.99-26.14c-2.95-2-5.99-4.83-9.36-2.04l-32.73,37.75c-5.74,32.14-2.91,65.75,7.15,96.73s25.91,55.42,49.81,76.19c5.21,4.53,12.19,8.85,17.55,13.45,2.62,3.62-.15,11.38-1.89,15.25-10.37,23.09-27.61,38.98-35.67,65.33-2.94,9.6-5.02,33.84-13.58,38.41-10.31,5.49-10.26-11.68-16.32-.31-4.17,7.82-6.26,17.23-16.38,20.62-4.63,1.55-15.48,2.32-20.28,1.84-13.28-1.35,2.77-14.23,2.04-21.56-4.5,3.1-13.2,17.46-17.69,18.79-1.88.56-12.71.56-14.59,0-3.4-1-3.05-5.01-2.14-7.74,2.06-6.22,14.66-21.25,18.86-28.13,2.86-4.69,6.07-10.41,8.75-15.25,10.71-19.36,26.74-53.68,20.32-75.67-3.13-10.72-6.08-12.43-17.05-12.05-12.08.42-25.86,3.45-37.9,4.06-8.27.42-18.01-1.18-26.12-.11-2,.26-1.28,2.23-1.9,2.1-7.66-4.22-19.65-.28-28.05-.16-3.36.05-9.11-3.25-13.05-3.77-6.75-.88-14.58-.81-21.23.18-4.32,6.9-6.72,14.87-10.33,22.1-10.22,20.49-18.67,36.47-25.69,59.27-.47,1.52-2.03,1.36-2.03,1.81,0,3.12,1.19,7.04.9,11.1-.74,10.37-2.17,20.8-2.8,31.2-2.57,4.46-8.47,11.31-14.26,7.77-1.37-.83-2.64-7.66-5.93-5.48-.49.32-3.66,8.74-4.86,10.66-8.4,13.51-20.91,19.12-36.72,17.32-13.41-1.53,2.38-19.24,1.51-27.01-6.19,3.75-14.57,21.93-20.25,24.24-4.14,1.69-14.53,1.38-15.54-4-.71-3.77,12.48-21.72,14.98-26.56,10.11-19.59,13.01-37.33,11.85-59.13-.21-3.93-3.28-27.71-7.52-28.34-1.94,1.01-6.38,5.73-7.5,7.5-9,14.19-15.98,27.95-20.13,44.65-.91,3.64-.78,7.2-1.54,10.39-1.25,5.28-4.22,23.87-10.6,24.01-5.38.11-7.57-2.76-11.22-5.76-4.78,7.66-6.86,16.73-14.58,22.43-5.87,4.34-20.19,6.35-27.44,5.57-19.7-2.12,3.02-16.72,3.01-26l-19.73,20.27c-4.44,3.11-13.29,3.73-15.29-2.34-.76-2.32,5.02-11.61,6.7-14.24,24.52-38.38,37.95-61.11,41.26-108.53.39-5.55,1.28-15.55.6-20.71-1.52-11.47-30.37-11.2-39.54-11.52-9.3-.33-21.18-2.54-30.85-4.31-41.3-7.57-78.53-24.24-111.85-49.35-.23-.17-3.67.28-5.74-.83-1.58-.85-2.55-2.89-4.13-3.87-15.14-9.39-22.77-12.7-40.2-15.8-17-3.02-26.79-22.53-27.78-38.22-.8-12.74,1.99-48.29,11.62-57.48,7.09-6.78,16.79-1.35,24.04-1.17,27.48.68,57.35-32.89,69.25-56.54,2.48-4.93,12.35-27.08,13.45-31.54,2.25-9.06-5.31-11.08-9.34-18.29-2.67-4.77-7.24-19.7-7.88-25.12-1.31-11.07,1.02-14.08-4.87-25.13-4.76-8.92-16.74-19.83-13.97-30.55,3.11-12.01,16.35-5.59,23.5-3.98,24.28,5.47,42.23,10.21,62.59,25.41,6.38,4.77,19.28,19.08,26.99,17.43,6.28-1.34,10.85-11.63,15.16-16.61,13.65-15.73,42.17-42.72,59.58-53.42,28.07-17.25,24.06,24.05,37.41,36.09l22.77-10.91c58.17-27.88,136.18-47.72,200.3-50.71,51.93-2.42,115.15-1,163.99,17.93,8.42,3.27,8.42,5.05,17.71,6.28,14.44,1.91,54.13,33.87,64.8,45.21s16.05,28.04,24.5,40.5c5.92,8.73,8.6,11.34,19.51,9.59,5.64-.9,18.15-6.95,21.99-11.01,6.57-6.94,5.98-14.44,3-23.09-2.04-5.94-4.31-7.12-8.67-10.89ZM680.81,123.18c-11.08-4.41-21.21-2.42-32.31-2.61-39.73-.66-87.93-.93-124.99,12.18-1.74.61-6.34-.81-7.38,2.96-.87,3.16,4.98,14.58,6.19,18.29,7.48,22.94,14.03,47.1,22.22,69.96,1.64,4.58,4.82,14.87,11.01,11.09,23.2-23.33,45.05-47.4,67.46-71.54,3.49-3.76,7.08-7.11,10.64-10.86,6.38-6.73,12.09-14.2,18.84-20.65,4.28-2.83,13.31-.52,19.04-.96s12.69-.82,9.27-7.85ZM733.38,139.63c-3.74-5.07-5.3-11.25-12.94-12.57-1.23-.21-11.15-1.07-11.72-.92-1.71.45-5.32,5.47-7.72,6.37l-26.04,30.03c-5.83,2.59-12.02-12.59-15.47-12.58-2.58.01-9.29,9.71-8.41,12.37,7.34,4.43,13.81,15.35,20.36,19.72.98.65,1.59,1.3,2.92.89l36.98-41.58c4.3-3.76,4.89-.62,9.53-1.26-.32,3.64,2.44,3.72,3.77,5.24,7.85,8.92,14.67,18.94,22.84,27.63l3.09-4.01c-4.01-7.88-7.66-16.17-12.39-23.65-1.51-2.38-3.51-3.91-4.81-5.68ZM753.5,138.05l-1.02,1.95,11.05,16.01c1.04.26,9.26-7.84,9.42-8.56.64-2.85-17.35-10.11-19.46-9.39ZM509,176.99c-1.67-5.58-12.34-35.84-15.95-37.49-12.17,2.74-24.49,5.54-35.89,10.65l5.84,37.85,46-11.01ZM360.58,269.58c21.24-26.25,3.33-71.28-7.12-99.54-2.08-5.63-5.28-15.14-7.9-20.1-.9-1.71-2.5-4.09-4.48-4.5-3.61-.75-24.97,21.6-28.6,25.54-22.64,24.66-48.6,57.55-37.32,93.26.7,2.23,4.97,6.19,1.88,8.31-1.44.98-23.55.12-27.53.47-4.98.44-9.46,2.99-14.51,2.98,4.21-11.42,23.27-20.68,20.99-33.49-.24-1.36-.66-2.54-2.34-2.38-7.85.75-30.3,29.87-33.71,38.14l-10.12,17.56c-4.48.21-10.31-2.04-8.9-7.31,5.47-20.6,26.98-49.05,42.55-63.54,6.15-5.72,18.04-10.67,16.52-19.97-2.24-2.23-19,8.44-21.93,10.56-36.82,26.69-38.73,62.43-63.23,95.77-2.44,3.32-9.87,13.23-12.09,15.41-.7.68-2.92.51-4.11,1.38-8.79,6.44-17.62,12.38-27.63,16.9-.87,1.26,8.94,11.02,10.42,13.06,13.73,18.86,18.46,37.59,14.66,60.82,19.28,6.2,39.82,5.6,59.87,4.63,1.25-.84,2.17-1.9,2.78-3.29,4.45-10.13,8.69-41.19,5.24-51.53-.3-.89-1.23-.82-1.97-.72l1.94-1.41c-4.33-5.6-.68-20.43,7.3-18.36,1.36.35,3.25,2.25,5.07,2.98,11.46,4.59,17.89,7.83,30.45,4.07,15.31-4.58,17.02-15.96,20.25-29.75,2.46-2.12,21.98-2.33,23.75-.26,4.06,15.59-8.22,30.99-20.44,39.57-15.59,10.95-30.08,10.38-48.31,7.18.3,14.29-1.57,27.15-4.58,41.01-1.65,7.6-3.04,15.68-7.14,22.73-2.09,3.59-5.51,6.33-9.79,6.35-12.38.06-24.42-1-37.01-.09-1.49.11-2.89-.78-2.48,1.49,1.84,2.11,4.83,2.49,6.98,4.04,1.42,1.02,1.79,3.36,2.7,3.52,24.64,4.4,61.58,16.42,85.58,15.67,16.05-.5,18.84-21.47,24.03-32.91,3.39-7.46,8.6-6.46,15.69-7.8.7,4.79-10.69,25.92-7.99,27.99,10.25-3.94,17.54-16.9,20.29-27.2.86-3.23,4.5-20.24-.79-20.61-3.63,1.7-6.72,4.81-10.27,6.55-6.36,3.12-20.03,5.7-24.33,9.74-2.44,2.29-5.46,16.99-8.03,21.9-3.35,6.4-8.84,10.38-16.4,10.16-2.38-.07-11.03-1.29-13.75-1.77-3.52-.62-17.92-3.29-16.62-8.06,11.59-17.01,16.01-40.21,15.88-60.71,29.72,3.38,60.19-13.84,69.68-42.82,2.95-8.99,2.56-18.56,4.26-27.74,13.73-.47,24.02,1.56,37.33-3.67,55.24-21.71,61.82-79.53,44.68-130.2-3.16-9.35-5.35-6.41-12.48-1.55-1.11,2.27,3.6,19.45,4.27,23.77,6.57,42.87,2.67,81.81-44.04,96.41-8.97,2.8-28.03,4.01-36.67.32-5.14-2.19-19.17-11.73-19.49-17.38-.12-2.08,4.2-11.07,5.03-15.07,1.58-7.58,1.31-15.4,3.96-23.04,4.33-12.45,16.7-22.49,22.85-34.23.59-2.1-1.67-10.02-2.86-11.79-1.12-1.68-1.08-.6-2.01,0-1.92,1.25-7.63,8.26-9.47,10.53-7.71,9.53-18.61,25.8-18.75,38.25-.05,4.51,1.81,7.87.23,13.24-4.56,15.49-14.28,6.2-15.49-5.53-3.49-33.97,27.69-65.47,49.28-87.77,2.08-.99,4.2.67,4.79,2.71,7.12,29.43,33.83,73.24,10.45,100.64-2.84,3.33-10.82,8.02-12.59,10.38-.89,1.18-1.15,2.09-.93,3.56,9.73-1.58,18.29-5.66,24.57-13.42ZM829.38,188.63c-6.98-8.48-16-19.21-24.89-25.66-2.06-1.49-4.2-1.18-5.02-1.89-2.66-2.31-1.54-5.5-7.73-3.84-3.08.83-25.94,23.55-30.27,27.73-12.93,12.48-25.73,25.58-38.12,38.38-5.13,5.3-10.23,11.04-14.94,16.72-2.46.25-12.99-12.11-15.51-14.47-12.45-11.69-25.51-22.96-37.51-35-3.07-3.08-9.6-12.33-11.83-13.64-1.35-.79-2.23-1.41-3.9-.85-13.17,14.1-26.93,27.8-40.17,41.89-6.83,7.27-12.96,15.51-19.78,22.73-3.98,4.21-11.77,9.21-15.72,14.78-3.82,5.38-3.3,6.85.5,11.52,10.04,12.34,23.81,22.14,32.98,35.05l27.58,25.55c3.85-1.33,4.8-5.33,6.99-7.83,8.96-10.21,20.66-20.87,28.93-31.3,2.8-3.53,5.37-5.22,2.9-9.84-1.12-2.1-21.82-23.07-23.39-23.61-.45-.16-1.01.02-1.48,0l.88,1.84c-3.86,1.66-22.15,20.71-21.72,23.47l6.33,8.49c5.75-1.48,11.94-16.2,17.54-14.41,2.27.72,6.96,5.45,6.75,7.94-.16,1.85-7.46,10.55-9.26,12.68-1.62,1.91-12.02,13.5-12.98,14.06-2.83,1.64-3.67.61-6.03-1.08-6.51-4.64-38.82-37.72-42.01-44.06-.76-1.52,1.67-2.71-1.49-3.43,14.2-12.83,25.61-28.37,38.48-42.52,3.58-3.94,15.44-13.91,17.28-17.21.7-1.26-.03-3.39.24-3.78.1-.14,1.61.88,2.35.75,2.18-.39,2.43-4.63,7.2-1.79,13.74,12.56,26.76,25.95,40.43,38.56,5.55,5.13,10.96,10.38,16.47,15.53,2.89,2.7,6.3,3.09,8.04,5.97l86.94-83.91c4.93.42,11.64,6.69,15.21,10.25,16.67,16.59,28.58,39.46,44.85,56.63,1.84-1.26,1.57-2.42,1.43-4.36-.99-13.57-17.88-35.48-26.54-46ZM438.26,166.82c-.3-.7.92-2.22.74-3.28-.43-2.48-13.67.54-14.05,2.12,3.35,17.89,9.11,35.35,10.1,53.8.72,13.38-1.17,26.6-3.34,39.75-.83,5.01-3.18,9.67-2.6,14.7,14.59,3.52,28.27,8.01,41.57,14.92,5.05,2.63,9.64,8.27,15.33,6.16-8.02-16.4-24.22-24.16-40.04-31.66-1.17-7.46,1.71-14.73,2.08-21.79,1.23-23.58-.88-53.78-9.78-74.71ZM732.62,178.37c-2.78-4.05-10.39-9.4-13.57-13.83l-4.28.71-27.59,30.26c2.86,2.57,17.81,18.83,20.18,18.42,13.91-9.56.26-13.27-1.22-18.65-1.17-4.27,6.63-10.04,9.34-13.03l12.19,10.61c6.29-3.72,9.81-7.39,4.95-14.48ZM527.01,230.99l-12.97-40.57-47.91,15.27.89,9.29c1.92,1.94,30.69-7.7,36.27-6.77,4.19.69,6.5,11.17,4.21,13.72-3.86,4.3-15.89,4.97-21.7,6.36-4.62,1.11-17.97,2.97-18.77,7.23,1.29,5.46-2.85,13.2.41,17.55,2.04,2.71,7.8,5.83,10.58,8.42,3.81,3.55,21.31,22.73,23.68,23.39,3.29.91,3.35-2.95,4.86-4.82,6.53-8.06,16.96-17.07,22.43-24.56,7.15-9.8-10.39-5.99-15.28-3.28-4.17,2.31-5.52,10.08-11.13,11.84-3.72-.39-18.81-13.85-19.85-17.36-.61-2.07-.02-3.49,1.99-4.48l42.28-11.22ZM804.61,200.38c-4.28-4.37-6.21-6.08-12.9-3.38-11.86,11.52-24.03,22.76-35.75,34.48-11.78,11.79-22.16,25.36-35.47,35.5l-.47,1.99c.62.08,1.44.23,1.85.69,6.32,7.14,14.42,13.15,21.13,19.85,19.12,19.05,37.23,39.65,55.52,59.48,5.79,6.28,43.39,50.16,46.81,49.87,4.18-3.54,12.21-9.4,14.89-14.14,3.34-5.91,3.57-15.04,4.78-21.71-1.65-1.81-9.83,10.77-11.05,12.2s-7.06,8.16-8.43,7.8l-104.04-113.91c-.12-2.09,2.29-4.91,3.55-6.57,4.54-6.01,12.59-14.32,17.95-20.05,5.78-6.18,25.77-27.33,32.08-29.93,4.77-1.97,3.48.86,4.99,1.88,5.42,3.67,10.74,9.72,14.93,15.1,4.5,5.77,9.47,9.71,4.05,16.73-3.34,4.33-7.02,8.76-10.42,13.36-1.09,1.47-5.07,4.56-5.48,6.09-.84,3.16,4.98,11.1,8.87,8.81,2.74-3.53,6.18-6.54,8.97-10.04,2.15-2.68,6.11-10.12,7.53-11.47,2.99-2.86,7.31,3.14,9.47,5.53,8.96,9.89,18,27.12,27.57,35.43,1.26,1.09,1.69,1.31,3.45,1.04.84-10.73-4.16-20.15-9.03-29.23-19.37-20.06-36.02-45.64-55.35-65.38ZM644.65,220.35c-8.22-6.7-9.78,1.02-14.14,5.66-10.18,10.83-20.53,21.45-30.56,32.43-3.12,5.32,1.53,6.17,3.18,10.42,1.86,1.08,10.67-7.33,12.52-9.21,6.53-6.63,11.32-13.25,18.38-20.12,2.11-2.06,2.95-5.93,6.43-5.58,2.71.28,12.49,11.64,15.32,14.06,8.62,7.39,18.54,13.98,26.74,21.94,2.12,2.05,7.8,6.8,7.54,9.49-6.54,8.53-14.83,16.21-22.04,24.34-9.77,11.02-19.42,22.1-28.35,33.87-4.52,1.95-12.31,14.85-16.92,14.22-2.83-.39-21.65-20.17-25.54-23.8-16.13-15.07-31.4-31.32-47.67-46.1-3.21-2.92-6.89-5.49-10.02-8.53l-2.94.55c-10.42,12.21-22.43,23.54-31.42,36.74-1.34,2.86,4.36,8.51,6.73,7.12,3.93-5.07,9.52-11.81,14.23-16.26,1.87-1.76,10.39-9.39,11.92-10.11,1.11-.52,2.06-.8,3.26-.35l82.19,77.84,2.89-1.12c18.71-18.78,35.58-39.07,53.13-58.88,3.45-3.89,25.54-26.07,25.53-28.47-.47-1.93-1.92-3.42-3.04-4.99-8.86-12.37-22.52-22.81-33.93-33.1-1.22-1.1-2.99-1.12-3.71-1.76-6.46-5.83-12.62-14.56-19.69-20.31ZM340.78,231.25c-1.59-2.07-5.06.63-6.43,2.1-3.78,4.03-18.04,28.87-7.7,30.55,3.86.63,13.01-11.68,14.54-15.21,2-4.6,2.66-13.44-.41-17.44ZM803.38,292.63c-3.98-4.43-19.91-20.24-19.42-25.09.37-3.58,16.63-18.07,18.87-23.19,1.59-3.65,1.87-8.86-3.27-8.37-6.64.62-16.65,15.75-20.91,20.69-2.35,2.72-11.7,9.18-10.51,13.62.52,1.94,13.97,17.1,16.34,19.73,7.97,8.86,16.96,17.12,25.03,25.97,11.76,12.91,22.63,26.7,34.57,39.47.66.57,1.55,1.21,2.42,1.21,4.87,0,16.53-21.86,20.27-26.42,1.38-5.19-3.17-10.48-5.96-14.56-8.56-12.53-20.36-23.49-28.82-36.2-7.55-.39-9.66,4.05-5.4,10.42,4.88,7.31,12.69,16.66,18.43,23.57,5.59,6.74,12.86,8.13,7.99,18.05-5.73,11.68-9.23,6.88-16.36-.64-10.94-11.54-22.25-25.98-33.28-38.25ZM480.53,557.55c11.5-15.7,22.86-57.49,28.18-77.33,11.73-43.74,18.46-101.64-6.71-141.73-17.75-28.28-51.26-45.38-84.31-46.28-11.02,10.33-24.38,18.19-34.22,29.78-23.04,27.15-22.93,75.37,10.22,94.81,29.24,17.15,66.84-1.39,62.04-37.04-1.33-9.9-8.28-20.32-19.23-19.83-4.64.21-13.63,4.89-14.33,9.8-.9,6.3,5.61.75,8.38.33,8.14-1.24,11.36,3.01,12.35,10.53,4.79,36.33-39.64,38.59-55.75,13.75-19.23-29.63-.83-66.62,26.52-83.16,18.3-11.06,50.64,3.72,64.97,17.17,54.03,50.75,18.78,141.38,1.61,200.47-1.19,4.11-8.03,30.68-7.15,32.07,4.83,2.16,5.07-.11,7.43-3.34ZM542.7,313.32l-2.36-1.14c-3.68.08-9.53,10.13-11.82,12.85s-6.63,4.27-7.05,7.86c-.38,3.2,2.44,3.23,3.18,4.46,4,6.71,7.46,14.86,8.36,22.65,1.31,1.16,8.42-5.04,8.86-6.71.84-3.21-5.81-7.64-5.9-13.85-.06-3.95,3.55-11.11,8.01-8.92.76.37,5.93,5.36,7.22,6.56,2.17,2.01,13.47,13.93,13.47,15.42-.25,1.76-1.63,2.77-2.64,4.03-4.9,6.08-23.5,20.13-25.52,24.5-1.41,3.05,2.02,14.74,5.98,14.02,3.07-7.96,37.35-38.02,37.53-42.63.17-4.33-13.88-14.82-17.54-18.39-6.8-6.62-13.79-13.33-19.77-20.71ZM358,329.01l-14.97.04c-2.32,35.14-29.03,59.72-61.82,68.66-3.87,1.06-9.35,1.16-12.55,2.51-2.08.88-2.43,11.83-3.11,14.83-1.87,8.25-5.26,16.03-6.57,24.42,4.28,1.5,8.56,2.95,11.43-1.57,4.52-7.12,6.54-19.47,7.76-27.76,2.67-.36,5.46-.49,8.07-1.25,6.77-1.96,14.85-4.47,21.78-8.38,7.78-4.39,12.5-9.48,18.97-15.03,3.06-2.62,8.07-4.53,9.03-8.49,2.11-1.51,5.09,12.74,5.52,13.96,4.32,12.35,10.31,18.52,7.23,32.3-2.66,11.92-12.5,29.23-21.4,37.56-4.7,4.41-9.95,6.12-13.35,11.45-.48.76-2.06.74-2.02,1.2.44,5.29,14.32.1,17.37-1.62,4.05-2.3,13.19-10.16,16.15-13.85,5.69-7.07,16.58-30.9,17.38-39.62.73-7.97-7.61-20.13-9.84-28.95-4.61-18.22-2.52-29.84,1.25-47.64.91-4.31,1.6-8.85,3.69-12.8ZM483.62,417.37c-.47-.63-1.79-.65-2.39-2.06-2.71-6.37.9-11.7,1.65-17.93,2.47-20.54,1.62-41.34-14.35-56.41-26.45-24.96-72.03-11.41-73.42,26.71-.42,11.56,8.13,27.81,21.29,26.23,2.48-.3,7.31-1.43,4.61-4.48-1.11-1.25-2.43-.55-2.74-.82-19.93-16.82-6.02-50.34,20.04-48.16,40.4,3.37,43.8,58,20.35,82.21-19.12,19.73-42.06,20.89-66.91,12.11-3.95-1.4-8.7-6.15-12.68-3.23l-24.62,48.5c2.78,2.38,7.22,2.57,10.62,1.51,8.19-2.54,14.79-29.04,21.91-35.05,22.54,5.65,43.62,7.88,64.37-4.66,3.61-2.18,17.97-15.78,19.21-15.89,5.5-.49,14.91,16,18.45,7.55,4.32-10.33-.33-9.43-5.38-16.13ZM762.58,352.58c1.03-1.17,5.51-6.07,5.35-6.95-7.78-12.02-10.3-5.71-17.98,1.85-7.18,7.08-19.59,18.93-21.44,28.51-6.53,33.84-.28,67.61,24.6,92.35,6.8,6.76,23.82,21.47,32.19,24.86,5.84,2.36,6.54-2.73,9.26-5.23,14.15-12.98,32.04-31.92,43.27-48.64,9.7-14.45,6.83-11.01-3.36-21.3-2.7-2.73-7.37-8.97-9.83-10.72-.88-.63-2.44-.15-2.65-.32-.14-.11,1.42-1.82.13-3.52-.82-1.07-3.06-1.76-4.19-2.93-4.55-4.75-11.35-14.2-16.39-17.59-.93-.63-1.6-1.3-2.84-.83l-38.57,38.52c-2.45,3.56.81,9.59,2.68,13.06,2.39,4.42,13.71,19.07,17.63,21.37,2.15,1.26,4.01,1.61,6.12,0,5.14-7.59,14.07-14.66,18.88-22.1,4.07-6.3-3.34-9.94-8.45-7.45-2.59,1.26-7.39,12.57-11.48,14.25-2.13.16-11.77-10.19-11.39-13.02.46-3.37,23.75-25.75,26.35-25.74,7.37,3.87,12.44,11.49,17.88,17.66,2.46,2.79,9.96,8.2,9.21,12.36-8.44,13.18-19.31,26.54-30.05,38.01-5.34,5.69-8.82,12.1-16.89,7.86-3.87-2.03-19.72-16.9-23.13-20.87-17.57-20.41-27.53-56.06-15.23-81.25,4.59-9.4,13.66-14.63,20.32-22.18ZM664.89,396.91c-1.05-14.3,3.96-29.12-1.39-42.9-2.91,4.11-11.62,12.01-12.33,16.74-.6,4.05,6.17,9.15,8.72,11.95l-1.91,6.3-3.47-2c-1.87,3.6-9.42,1.2-14,1.65-13.24,1.3-14.67,6.08-26.54-4.11-5.87-5.04-11.67-13.64-18.43-17.57-5.61-3.27-11.34,8.09-14.89,11.69-4.12,4.18-24.19,20.32-22.6,25.74l2.46,1.6c11.29,4.91,26.86-23.44,33.05-24.04,1.15-.11,2.16.21,3,1l20.9,19.64,47.44-5.68ZM104.01,358c.12,5.51,3.9,10.62,5.76,15.73,2.32,6.39,4.07,16.04,6.49,21.51.91,2.06,3.69,5.04,6.21,4.75,3.2-.95.85-15.01.08-18.04-2.42-9.42-10.35-18.85-18.54-23.95ZM782.65,373.65c.68-.73,4.1-4.98,4.21-5.36,1.08-3.72-4.94-10.72-10.39-6.3-3.1,2.51-21.44,22.19-22.89,25.1-2.05,4.1-1.55,9.46-1.57,13.92,1.29,1.32,9.53-6.13,11.01-7.48,5.87-5.38,14.15-13.98,19.64-19.86ZM89.77,376.24c-.44-.49-1.71-.58-2.29-1.18-6.49,7.68-2.74,17.48,5.5,21.93l-2-6.52c-.17-.58,1.58-.39,1.76-.69.52-.88-1.97-12.43-2.98-13.55ZM668.83,415.18c-1.65-2.51-12.78.72-12.89,1.38,2.32,5.12,8.19,33.21,11.04,34.99s7.87-2.15,11.02-2.56l-9.17-33.8ZM541,477.99c1.15-6.43,3.34-12.57,4.57-19.02.93-4.91,2.1-21.58,4.89-24.02,3.14-2.76,5.96-1.14,8.88-1.34,16.7-1.15,33.44-2.31,50.11-2.65,4.86-.1,14.63-1.1,17.99,2.11,1.8,1.71,5.4,10.33,6.75,13.25,2.75,5.98,13.58,35.47,17.85,37.2,5.48-.8,29.48-3.5,32.52-6.48,2.85-2.79.26-10.61-3.08-11.1-5.46-.81-18.28,8.68-23.47,5.54-5.21-3.16-17.5-43.59-20.49-51.51-1-1.15-5.18-1.58-6.85-1.6-10.51-.16-23.33,2.3-34.12,2.66-19.1.63-38.41-1.38-57.3,2.19l-8.01,61.15c.19,1.07,1.45,2.11,2.48,2.41,1.18.34,7.82,1.55,9.14,1.67,3.7.32,14.91.58,18.66.32,1.29-.09,2.51-.38,3.73-.78,5.93-5.63,4.01-20.19,8.19-25.06,4.72-5.51,23.46-7.52,29.8-4.67s11.88,23.9,17.2,27.8c2.75,2.02,10.24,1.02,8.82-3.76-2.82-9.51-12.18-21.78-14.97-32.05l-2.18-3.79-47.18,2.96-7.4,29.6c-5.24,2.83-11.16-.15-16.53-1.04ZM472.35,464.65c1.12,1.14,7.54,7.48,8.14,7.34l4.19-14.56c-3.44-2.34-13.05-12.65-17.01-11.34l-6.65,7.41c4.57,2.92,7.74,7.5,11.33,11.15ZM462.7,495.29c2.1,2.57.85,8.79.05,11.96-2.41,9.5-10.73,24.06-11.22,33.63-.11,2.21,2.77,10.71,4.96,10.9l3.31-2.49,16.74-59.25c-9.06-8.74-17.91-18.93-28.46-25.61-13.72-.89-26.25,3.67-40.18,1.97-4.66-.57-11.47-4.94-12.71,1.35-1.17,5.93,10.29,22.92,13.34,29.23,12.31,25.48,23.23,56.59,27.35,84.65.3,2.07-.4,9.91,1.79,10.42,3.92-.08,7.85.09,11.77-.17s21.89-2.84,21.26-7.38c-1.03-7.36-21.35-.88-24.74-3.09-3.81-2.49-2.99-12.23-3.99-16.77-3.45-15.62-8.68-35.11-13.92-50.18-2.01-5.77-14.12-30.3-12.95-33.81.48-1.43,1.27-1.31,2.45-1.59,4.38-1.06,23.02-2.93,26.75-1.84,4.96,5.39,10.13,10.56,15.19,15.84.96,1,2.67,1.56,3.22,2.23ZM840.51,468.19c-2.09-.17-10.31,9.25-10.54,11.35-.48,4.41,11.49,15.38,13.88,20.11,6.28,12.43-3.08,38.48-5.6,52.11-1.13,6.12-.92,12.91-3.05,18.98.07,2.78,6.35,5.77,8.13.1,6.04-19.14,8.64-41.09,15.65-60.28-4.03-7.66-6.69-15.95-10.22-23.82-.9-1.99-3.1-3.52-4-6s-1.21-12.3-4.25-12.54ZM602,487.99c1.09-1.54-9.13-16.08-11.51-16.05-2.91.04-9.14,12.58-7.05,16.12l12.08,1.03,6.48-1.1ZM823.35,500.65c-.85-1.05-6.52-9.18-7.33-8.64-.12.08.3,1.24-.52,1.71-.18.11-1.27-.37-1.99.21-2.39,1.92-8.18,8.13-7.37,11.35,2.11,4.33,7.07,4.62,10.57,6.51,3.31,1.79,6.13,5.92,10.62,5.1,4.53-3.44,2.79-9.59-.31-13.42-1.12-1.39-2.92-1.9-3.67-2.82ZM446.99,519.99c4.58-11.32,1.29-17.72-6.49-25.97-1.73,1.16-1.29,1.57-1.24,3.19.12,4.02,2.76,12.76,4.26,16.77.6,1.59,1.95,5.24,3.47,6.01Z"/>
  <path class="cls-1" d="M308.7,305.28c6.37,7.59-6.55,10.14-12.24,9.75-16.36-1.11-21.45-12.92-36.21-14.77-19.43-2.44-28.7,9.89-33.8,26.69-.77,2.54-.12,5.12-1.2,7.8-.59,1.47-7.46,11.3-8.74,11.31-2.85.02-11.28-15.82-14-19.07-4.47-5.34-11.12-8.75-15.27-14.48,8.34-18.58,14.39-6.89,25.74.49,11.12-26.01,34.15-35.34,61.25-28.72,13.52,3.3,16.5,7.38,26.3,15.7,2.01,1.7,7.07,3.98,8.18,5.3Z"/>
  <path class="cls-1" d="M188.65,328.35c16.95,17.52,29.63,53.59,22.61,77.43-3.05,10.35-8.78,6.83-17.26,6.22,10.39-29.39-3.39-57.07-22.04-79.5,0-.69,7.87-9.16,8.75-9.39,1.61-.42,6.58,3.83,7.95,5.24Z"/>
  <path class="cls-1" d="M180.92,412.95c-2.59-.51-8.82.56-10.45-1.91-.8-1.21-.25-16.25-.6-19.48-1.18-10.95-7.31-23.43-13.46-32.47-1.62-2.38-7.6-8.4-8.01-10.04-.76-3.02,9.48-6.25,11.09-8.8,17.32,13.5,26.95,39.32,24.52,61.25-.44,3.98-2.72,7.45-3.09,11.44Z"/>
  <path class="cls-1" d="M267.7,343.69c-3.18,2.85-9.94,3.54-14.07,3.18-22.06-1.93-16.57-38.21,5.57-34.65,15.65,2.51,17.98,22.99,8.5,31.48Z"/>
  <path class="cls-1" d="M633,131c.42,2.46-.52,3.87-1.74,5.78-5.85,9.12-17.49,19.43-24.91,27.56-11.73,12.85-23.49,26.02-35.7,38.3-1.65,1.67-14.18,14.47-15.64,13.35l-24.02-73.99c5.84.57,11.25-3.78,16.79-1.8l11.45,34.05c3.09,2.61,3.35,10.25,8.21,9.79l33.33-34.25.22-3.79c-4.73.69-11.33-.03-15.74,1.75-5.55,2.24-8.95,16.33-16.63,16.32-1.26-.27-8.74-21.63-9.22-24.03-.26-1.29-.91-2.62.55-3.58l73.05-5.45Z"/>
  <path class="cls-1" d="M490.76,158.83l-1.76.66c1.7,1.44,3.82,6.42,2.06,8.01-1.37,1.24-18.25,6.32-19.05,5.51l-1.97-13.95,18.38-4.89,2.35,4.67Z"/>
</svg>