<?xml version="1.0" encoding="UTF-8"?>
<svg id="Camada_1" data-name="Camada 1" xmlns="http://www.w3.org/2000/svg" viewBox="0 0 1024 768">
  <defs>
    <style>
      .cls-1 {
        fill: #413253;
      }
    </style>
  </defs>
  <path class="cls-1" d="M327.28,34.48l361.41-.31c101.02,6.22,165.4,68.18,170.39,169.65,2.9,59.09.46,119.59.4,178.89-.05,53.34,1.46,107.01.56,160.27-1.71,101.24-70.52,169.28-170.5,175.8h-354.41c-92.77-4.74-168.53-66.53-174.07-162.37l-.05-353.56c4.47-96.81,69.47-162.68,166.27-168.37ZM434.4,68.27c.15-.09.71-1.86,1.41-2.59,4.01-4.15,8.19-8.05,11.79-12.59,1.2-2.28-1.73-3.4-3.6-3.64-8.29-1.07-18.2.91-26.58.95-.36,1.46.3,2.08.87,3.17,1.14,2.14,10.97,12.61,13.02,13.97.91.61,1.99,1.37,3.08.73ZM486.24,49.5h-13.49c-.42,0-4.96,1.38-5.46,1.73-12.97,16-27.58,30.69-40.84,46.42-3.81,4.52-12.88,14.38-15.19,18.99-.82,1.64-1.29,2.93-1.03,4.82,7.14.21,14.04-2.76,19.81-6.72l57.16-63.41-.96-1.83ZM519.21,64.04c4.78-1.19,17.75,2.42,19.47-3.5.89-3.07-1.46-10.43-4.77-11.05-3.07-.58-18.17-.35-21.17.43-3.34.87-13.08,10.19-13.51,13.47-.87,6.5,2.26,30.03-4.45,33.36-10.08,4.99-2.39-20.92-5.41-22.96-1.38-.29-2.09.15-3.18.85-1.89,1.21-12.55,13.96-12.85,16-.54,3.75,8.34,15.27,11.62,17.7,10.95,8.12,14.8-.14,19.45-9.18,5.71-11.09,9.11-23.95,14.79-35.13ZM564.72,50.62c-2.34-1.97-7.46-1.25-9.68,1.11-7.8,8.29-5.92,36.03-2.21,46.32,7.7,21.36,32.86,22.01,47.11,6.67,2.23-2.4,12.34-24.83,14.43-11.54,1.81,11.52-5.29,20.38-9.83,30.07,6.09-.5,13.35,4.66,18.68,5.26,7.12.8,2.11-16.67,1.98-20.95-.3-10.06,2.26-23.16,4.98-32.87,1.71-6.1,6.41-14.56,7.47-19.55.28-1.33.47-2.63-.21-3.9-18.12-4.85-11.11,8.5-13.96,18.55-1.4,4.93-5.17,7.72-8.59,11.2,2.48-19.51-3.58-18.5-12.52-4.42-5.54,8.73-10.88,27.8-24.32,26.88-3.53-.24-10.49-5.16-12.38-8.32-3.79-6.37-3.17-20.54-2.5-28.06.3-3.4,3.62-14.69,1.56-16.43ZM589.94,49.76c-6.87.92-8.05,3.21-10.35,9.44-1.84,4.98-6.21,23.54.37,25.28,3.5.92,5.34-8.33,6.7-11.01,2.09-4.1,5.21-8.99,8.42-12.27,1.98-2.03,9.12-6.1,9.34-8.7.35-4.13-11.79-3.1-14.49-2.74ZM336.14,111.89c1.73,1.96,2.83,3.73.71,5.92l-39.56,30.7-2.21-.48c-2.62-5.75-27.57-26.04-27.93-29.75s13.45-14.52,17.61-15.68c1.22.03,10.46,8.32,10.88,9.86.94,3.41-5.84,5.51-6.76,8.41.14,1.73,8.37,9.74,10.68,8.28l17.6-13.96c.59-1.32-1.51-3.17-2.27-4.09-7.12-8.75-18.25-15.93-25.79-24.6-1.33-.97-2.36-1.1-3.93-.65-2.76.79-13.35,8.41-16.46,10.6-3.52,2.48-23.13,17.13-23.14,20.07l49.94,49.94c1.84-.01,21.13-18.14,24.85-21.06,8.79-6.9,22.09-13.42,29.54-19.94,5.46-4.78,14.43-19.33,19.87-26.01,4.67-5.74,10.05-11.04,14.85-16.68.47-.64.52-1.29.32-2.05-.44-1.7-21.69-22.45-24.62-24.94-1.09-.93-5.19-4.59-5.89-4.91-4.08-1.87-28.4.02-34.63.43-1.34.09-2.6-.68-2.22,1.34,9.22,7.36,18.23,20.8,27.44,27.44.8.58,2.05,1.89,3.16,1.39,2.58-1.91,7.14-8.94,10.28-8.63,1.64.16,8.69,7.34,9.15,9.02.56,1.05.05,1.49-.49,2.29-3.8,5.66-13.34,11.58-17.42,17.78l-1.87.5c-7.57-6.73-14.32-14.48-21.69-21.47-6.84-6.48-18.14-18.42-25.21-23.36-5.41-3.78-16.31,1.4-22.51,3.58-23.77,8.36-45.41,21.39-62.07,40.48-2.37,2.72-9.69,11.66-10.8,14.45-.46,1.18-.58,1.4-.02,2.63.25.55,6.9,7.69,8.12,9.03,17.62,19.36,38.33,36.97,56.22,56.21-7.85,7.81-17.02,14.12-25.18,21.58-9.22,8.42-17.34,18.1-27.02,26.05-1.4,1.6-1.18,3.64.45,5.05l37.11,34.93c2.7.86,6.08-5.76,6.42-7.77.53-3.12-2.02-5.98-3.89-8.33-4.32-5.44-15.54-13.42-18.5-18.38-.8-1.34-1.11-1.74-.69-3.41,1.39-5.51,30.66-30.36,36.82-35.22,3.24-2.56,12.37-7.77,14.29-9.99.79-.92,1.1-1.35.96-2.65-.22-2.09-24.31-25.05-27.96-28.81-9.72-10.01-19.26-20.28-29.19-30.18-3.02-3.02-10.72-7.02-8.11-12.55.99-2.09,12.27-12.63,14.82-14.87,10.35-9.12,24.05-18.48,36.29-24.88,2.67-1.4,10.52-5.8,12.91-5.92,1.96-.1,10.73,8.11,12.9,10.11,10.1,9.29,25.04,23.14,33.85,33.16ZM378.29,50.4l-.91,1.8,24.33,23.35c2.43,3.33,2.23,4.16.26,7.52-8.4,14.32-22.67,27.71-33,40.79-3.65,6.43,5.59,4.08,9.13,2.81,8.64-3.1,30.73-29.2,37.99-37.57,2.59-2.98,8.5-8.39,5.89-12.2l-27.49-26.49h-16.19ZM660.04,50.59c-1.92.56-6.38,6.6-7.67,8.52-40.15,59.54,19.85,140.29,84.73,107.22,48.14-24.54,28.4-89.15-18.53-82.4-10.98,1.58-20.83,13.33-19.59,24.52s17.34,14.16,18.77,5.18c.66-4.14-6.08-5.15-2.36-12.2,4.37-8.29,19.12-3.37,24.58,2.03,22.17,21.94,1.12,54.34-27.03,56.69-49.95,4.18-74.07-52.43-49.39-92.57,1.8-2.93,11.74-13.84,11.17-15.79s-12.65-1.78-14.66-1.19ZM728.68,116.97c-6.8,26.6-42.07,17.74-44.89-6.85-5.88-51.2,72.17-55.52,92.43-8.77,15.95,36.82-9.52,72.46-44.62,83.76-3.85,1.24-21.64,3.76-22.31,4.68-2.11,2.92,6.61,10.27,9.99,10.79,9.8,1.52,28.05-5.97,36.65-10.93,27.55-15.88,41.75-39.79,39.3-72.23-2.44-32.13-24.01-46.15-51.7-56.25-25.25-9.21-42.44-16.28-62.1,7.2-14.56,17.39-18.51,44.49-3.6,62.99,11.52,14.3,37.5,19.93,50.4,4.5,4.11-4.92,8.81-15.96.45-18.9ZM541.56,111.57c-3.18-8.59-5.05-20.28-8.95-28.37-.56-1.17-.98-2.36-2.28-2.94-2.11-.17-5.28,6-6.33,7.91-1.42,2.56-9.58,20.33-8.99,21.64,3.16,6.97,11.6-7.91,15.28-7.26,2.15,4.22,5.65,9.96,11.27,9.02ZM469.46,113.25c3.51-2.25-4.07-11.49-12.42-6.58-1.09.64-5.46,5.4-5.42,6.26.15,2.63,6.25.5,7.63.45,2.03-.07,9.36.4,10.2-.13ZM809.63,113.82c-.75,5.8.55,12.92,0,18.89l2.09,1.22c10.23-5.14,11.5-6.29,5.48-15.99-.81-1.31-5.45-8.83-6.65-6.78.22,1-.84,2.06-.92,2.66ZM489.2,126.23c-226.43,13.55-314.55,299.28-140.57,441.4,159.08,129.96,402.56,24.86,411.57-181.2,6.84-156.36-117.02-269.42-271-260.2ZM179.03,516.83v19.79l2.24,1.35c7.16-7.26,12.91-15.85,19.79-23.4,4.35-4.77,32.49-31.18,32.88-33.77.19-1.31,0-2.57-.89-3.6l-38.29-38.16-2.26-4.93c.32-2.98,24.32-26.34,28.34-30.19,2.97-2.85,17.13-14.12,17.57-16.66.19-1.1.14-2.3-.18-3.37l-47.07-45.6-2.26-4.93,50.24-53.86-2.95-4.23-40.08-39.13.19-3.37c16.37-16.94,32.64-34.05,51.08-48.77l-49.47-49.53c-2.97-1.53-6.57,6.77-6.97,9.26-.71,4.39-.02,5.46,2.51,8.75,3.93,5.12,31.49,29.15,31.49,31.51-1.19,3.57-5.23,5.21-7.7,7.62-9.88,9.61-28.4,25.79-35.98,35.99-4.52,6.08-2.47,12.43,2.27,17.55l34.91,34.33c-7.81,9.93-18.06,18.41-26.85,27.72-1.33,1.41-2.24,3.11-3.55,4.55-2.68,2.92-8.41,6.46-8.96,9.93-.61,3.78-.51,21.27.96,24.12l38.35,39.71-39.18,41.55.83,14.99c8.59,11.4,23.52,22.02,31.84,32.93.89,1.17,2.26,2.47,2.22,4.09-.05,1.9-16.99,17.67-19.8,20.64-2.08,2.2-15.03,15.99-15.27,17.12ZM826.42,138.66c-10.07,7.38-25.43,14.26-28.11,27.75-.26,1.29-.85,2.21.52,3.21.96.81,2.18-.08,3.17-.44,3.73-1.35,25.8-16.45,27.46-19.32s-.05-11.48-3.04-11.2ZM309.48,186.24c2.06,1.52,14.82-12.8,17.07-14.86,4.32-3.95,18.92-14.27,18.8-19.8-.19-8.32-9.54-.63-12.77,1.54-6.17,4.13-23.7,17.77-24.73,24.81-.49,3.31.98,5.25,1.64,8.31ZM836.59,165.58c-1.25-.25-2.36-.01-3.53.46-1.36.55-14.74,8.29-15.32,8.96-1.47,1.73-1.47,3.64.54,4.84l21.46,9.99c4.29-.85-2.79-20.81-3.15-24.26ZM179.93,207.83c1.94.14,3.3-1.87,4.52-3.13,6.13-6.26,12.24-13.35,17.95-19.79.08-2.77-15.67-18.44-18.4-18.49-1.06,1.38-1.46,3.67-1.86,5.39-.63,2.69-2.21,10.79-2.21,13.08v22.94ZM758.36,269c1.09,21.68,24.34,25.35,41.87,24.33,13.75-.8,39.93-12.05,41.81-27.46,1.23-10.08,1.13-38.41-.02-48.6-1.04-9.23-11.78-19.47-19.76-23.42-23.45-11.62-54.91-2.71-64.97,22.36-11.52,28.72,15.52,60.6,45.62,50.12,20.89-7.27,25.66-36.15,5.55-47-7.3-3.93-18.35-1.95-22.4,5.85-4.87,9.36,4.96,18.08,8.75,14.14,4.64-20.58,21.52-.97,9.47,10.37-8.61,8.1-20.68,6.58-28.51-1.71-23.51-24.9,17.43-64.58,48.27-37.02,34.34,30.69-6,91.34-54,64.8-1.93-1.07-10.61-7.8-11.67-6.76ZM295.07,204.23c-1.78-1.76-23.61,15.28-26.1,17.52s-10.64,9.81-10.8,12.69c.56,3.62,9.13,11.76,12.22,9.43l24.68-39.64ZM743.07,213.22c-2.43-.12-13.66-.29-14.39,2.31.06,2.43,8.58,14.56,9.44,14.79,2.99.77,5.08-14.59,4.94-17.09ZM179.03,296.89l9.47-7.17c1.74-1.7,7.43-7.47,7.65-9.5.46-4.2-10.91-14.42-14.42-17.06-.9-.68-1.12-1.74-2.7-1.35v35.08ZM839.91,292.52c-3.43.92-14.16,18.98-17.33,23.17-9.1,12-20.78,26.46-31.83,36.54-2.37,2.17-9.5,6.53-10.8,8.09-1.51,1.8-1.42,9.91-.08,11.76,1.13,1.57,15.8,8.2,19.24,10.45,15.5,10.13,19.66,20.39,30.75,33.12,3.38,3.88,6.31,6.29,11.76,3.65,3.08-4.4-9-20.93-12.23-24.77-9.83-11.69-22.33-16.56-31.89-25.68-2.97-2.83-2.86-3.38-.46-6.73,5.83-8.13,16.53-17.75,23.36-26.11,4.12-5.05,21.75-26.94,22.45-31.52.43-2.78,1.32-13.1-2.94-11.96ZM248.3,295.99c-1.43-.28-2.07.16-3.18.86-5.8,3.69-10.21,10.69-16.2,14.39l-20.13,21.31,27.38,28.21c1.85.29,1.08-.23,1.44-1.22,1.05-2.88,2.25-11.58,1.67-14.5-.71-3.59-9.39-8.07-9.01-12.56.24-2.82,7.33-6.34,9.4-8.68,5.61-6.35,7.2-19.61,8.63-27.8ZM808.28,306.78h-15.29l-20.79-5.38-2.97,1.45c.38,15.39,9.75,9.99,18.19,13.1,7.61,2.8-6.63,10.19-8.4,11.94-4.91,4.85-1.98,10.82-.86,16.67.2.15,3.77-1.82,4.43-2.3,3.64-2.62,23.49-26.31,25.4-30.37.49-1.05.76-2.2,1.29-3.24l-1-1.86ZM842.02,332.87c-2.08-.05-3.65,2.22-4.96,3.59-4.47,4.67-12.82,14.96-16.6,20.28-.85,1.19-2.64,3.1-2.69,4.47-.12,3.58,10.22,11.22,12.54,14.41l11.7,8.53c-.39-3.69.68-8.41-.21-11.92-1.1-4.3-8.86-7.99-8.87-11.91s9.09-9.09,9.09-11.69v-15.74ZM179.03,403.93c1.54.37,1.8-.6,2.71-1.33,1.48-1.19,11.43-11.88,12.58-13.51,1.02-1.45,1.92-2.48,1.8-4.44-.24-3.69-12.51-16.84-17.08-17.6v36.88ZM809.63,413.83c2.18-2.22-7.58-10.93-9.47-12.57-5.97-5.18-13.52-10.23-21.11-12.62-3.52,11,2.62,11.1,8.97,17.54.01,2.19-9.22,3.57-10.54,5.18-1.69,2.08-.97,8.7-1.13,11.46,10.14-5.72,21.49-9.49,33.28-9ZM240.2,408.44l-9,6.73c-3.01,4.03-18.47,16.19-17.86,20.49.18,1.27,1.36,2.39,2.12,3.38,4.97,6.53,29.97,31.73,36.4,36.46,1.34.99,2.66,1.44,4.1,2.18,1.4-1.09,1.32-1.12.94-2.7-.83-3.42-6.19-18.21-7.82-20.98-2.44-4.13-16.15-14.73-16.84-17.41-.96-3.71,6.21-7.88,7.98-10.6,3.68-5.67.77-11.52-.01-17.54ZM822.8,498.97c-25.25,25.59-65.99-14.98-41.52-45.57,16.19-20.24,41.76-15.42,59.38,0,1.63,0,2.36-11.97.86-14.31-5.99-9.38-26.06-10.7-35.99-10-60.54,4.29-55.9,96.34,5.33,89.89,34.1-3.6,40.96-47.3,12.2-62.35-25.6-13.4-49.6,18.5-27.77,33.17,6.16,4.14,19.11,3.63,17.74-5.14-.81-5.22-7.18-2.04-10.23-4.17-7.14-5.01,3.11-18.19,14.64-11.95,11.42,6.18,14.89,20.77,5.34,30.45ZM179.03,464.21v29.69c2.12.56,1.52-.54,2.06-1.15,2.43-2.75,12.39-12.01,12.32-14.62-1.26-2.08-12.22-16.14-14.38-13.92ZM260.62,489.57c-1.8.03-13.47,6.93-15.84,8.45-22.07,14.15-49.04,42.7-60.51,66.33-5.07,10.45-3.68,17.39,1.51,27.58,9.1-17.38,17.52-35.52,30.57-50.37,14.4-16.39,32.84-29.16,51.35-40.47.81-1.57-4.28-11.56-7.09-11.52ZM842.02,536.17v-13.94l-2.23-1.34c-30.02,25.49-74.35,8.92-89.09-25.19-1.83-.42-1.21.75-1.77,1.77-2.68,4.89-4.81,6.99-2.61,12.52,11.01,27.64,52.89,39.47,79.51,32.94,5.76-1.41,10.78-4.55,16.19-6.75ZM280.54,525.25c-1.54-15.38-10.56-8.82-19.03-3.3-28.85,18.8-68.81,62.81-63.51,100.06,1.03,7.21,12.79,18.87,17.47,24.81.08-6.51-2.63-12.9-3.14-19.35-3.47-43.66,32.22-82.81,68.21-102.21ZM734.71,523.7c-.74.19-9.75,10.86-10.09,11.57-.57,1.21-.89,2.34.45,3.18.97.61,22.02-2.01,22.48-3.66.32-1.13-.19-1.87-.83-2.72-.31-.41-6.9-6.11-7.7-6.68-1.26-.9-2.58-2.12-4.31-1.68ZM300.36,548.65c2.18-3.51-6.18-10.86-9.56-11.43s-12.31,6.2-15.43,8.47c-72.81,52.91-60.19,133.97,30.34,152.12,34.56,6.93,66.56,3.42,84.88-30.6,8.27-15.35,17.42-47.8-6.18-53.54l-2.01,1.3c4.68,16.53,4.1,35.47-5.62,50.11-27.13,40.85-94.51,28.13-119.84-8.46-29.3-42.32,1.14-91.35,43.43-107.98ZM703.56,668.48c2.08-1.43,12.38,5.98,15.5,7.29,52.39,21.81,118.18-32.86,92.52-89.82-28.64-63.57-137.33-41.53-122.08,25.82,7.69,33.96,56.58,51.82,84.15,29.22,35.26-28.9-1.15-80.83-41.74-60.63-22.99,11.44-10.58,46.7,12.28,42.86,6.72-1.13,13.44-7,11.26-14.44-2.43-8.27-11.31.94-14.72,1.15-8.8.53-8.27-17.49,3.88-19.56,28.03-4.77,39.56,34.19,11.02,45.2-36.59,14.11-72.73-33.86-40.48-62.07,25.22-22.06,63.13-16.53,80.45,12.23,34.62,57.47-47.11,107.69-98.44,64.26-18-15.23-25.93-36.34-24.28-59.83-13.39,2.9-8.29,11.61-9.91,20.21-1.33,7.09-11.65-2.51-16.71-3.06-3.57-.39-11.15,2.11-8.38,6.16.44.64,12.12,3.19,14.93,4.41,16.33,7.06,32.02,25.83,35.85,43.32,3.17,14.49.48,27.4-3.17,41.4,18.87.91,13.86-21.92,18.07-34.11ZM842.02,555.06c-.93-.92-21.6,3.23-24.13,4.21-6.9,2.67,1.34,9.75,3.59,14.08,4.49,8.63,7.66,17.87,8.85,27.59,2.24.33,3.02-2.26,3.76-3.88,4.75-10.37.97-18.19-2.81-27.94.7-2.31,7.27-1.78,9.37-4.18s1.2-6.8,1.38-9.87ZM331.06,579.34c-12.85-19.55-27.13-18.62-44.92-5.78-30.56,22.08-33.8,64.11-4.08,88.52,24.57,20.18,74.39,20.4,84.93-14.87,13.62-45.59-44.07-74.66-68.29-43.1-16.02,20.88,7.66,50.45,30.29,41.09,12.73-5.27,8.39-24.9-5.49-22.76-1.76,1.31,1.68,8.04-3.71,9.07-13.32,2.54-15.4-14.82-4.86-21.96,20.63-13.97,52.12,18.88,31.44,42.24-16.26,18.37-48.93,10.08-61.56-8.65-22.95-34.01,8.31-72.4,46.25-63.8ZM656.71,702.59c19.8,2.29,20.82-23.78,17.35-37.59-8.48-33.76-49.69-49.82-79.71-33.3-12.87,7.08-25.42,25.69-24.94,40.71.35,11,8.9,29.71,21.17,31.09,8.39.94,29.31.9,37.68-.1,15.7-1.88,23.67-20.98,16.9-34.69-9.96-20.17-46.23-20-46.86,2.94-.23,8.34,9.65,18.19,16.58,12.08,5.88-5.18-4.2-6.22-1.88-13.55,3.06-9.66,21.2-3.69,20.24,10.25-1.49,21.6-37.67,26.58-47.4,2.61-16.21-39.94,46.13-63.19,70.87-24.09,9.32,14.73,7.52,28.67-.02,43.65ZM381.44,702.59h14.84c7.29,0,20.75-23.04,23.71-29.36,6.09-13.04,11.46-30.47,6.71-44.46-3.22-1.18-6.76-2.65-10.19-1.3-2.82,5.8-1.82,13.46-3.09,20.29-2.65,14.25-11.4,32.01-21.16,42.71-1.74,1.91-12.62,10.37-10.82,12.12ZM456.88,637.94l-10.56-1.8c-5.85,20.84-14.06,42.39,4.37,59.71,11.89,11.16,21,7.01,35.59,6.7,8.65-.18,17.16,1.69,25.92-1.88,19.9-8.1,18.46-34.81,4.65-48.49-9.82-9.73-34.66-17.59-45.45-6.7-10.52,10.62-10.13,30.18,4.49,36.87,6.65,3.04,16.87,3.74,22.07-2.21,8.67-9.91-7.19-23.97-8.8-7.46-10.66,4.1-15.01-9.48-8.25-16.78,8.02-8.66,22.65-5.87,29.62,2.59,4.44,5.39,4.77,11.59,3.93,18.36-4.43,35.71-68.78,28.31-63.52-15.84.97-8.1,6.04-15.15,5.93-23.08ZM567.64,636.92c-2.53,1.3-12.55,1.53-13.41,4.18s3.67,10.66,5.9,11.05,9.05-13.1,7.52-15.22ZM537.96,702.58c4.1-.61,11.18,1.67,13.93-1.81,5.62-7.11,4.32-24.67,1.38-32.84-2.04-5.68-12.15-22.02-17.75-23.63-2.17-.62-10.74-1.41-9.77,2.54.79,3.19,8.24,10.57,10.56,14.66,7.15,12.61,9.07,28.14,1.65,41.07ZM436.31,702.59l-7.65-14.38-8.15,12.55.96,1.83h14.84ZM714.37,698.92c2.43-.63,18.73-1.48,17.9-4.86-7.99-6.05-21.48-10.7-17.9,4.86Z"/>
  <path class="cls-1" d="M495.5,174.81c160.84-9.69,269.24,157.77,189.81,299.56-83.53,149.13-305.32,132.87-365.06-27.69-47.62-127.98,39.21-263.68,175.25-271.87ZM499.09,216.19c-132.46,8.58-195.89,161.82-110.92,263.32,79.6,95.1,236.83,62.85,273.27-55.1,33.76-109.28-47.88-215.63-162.34-208.22Z"/>
  <path class="cls-1" d="M500,265.67c82.95-6.81,140.89,74.87,111.26,151.74-30.4,78.89-137.7,92.6-188.8,26.01-53.08-69.17-9.57-170.6,77.54-177.75ZM504.5,307.05c-50.24,3.57-78.91,58.14-53.95,101.99,31.98,56.18,116.71,41.03,125.99-23.65,6.16-42.95-28.39-81.44-72.04-78.34Z"/>
  <path class="cls-1" d="M505.36,343.9c46.86-6.35,50.24,70.93-1.8,63.4-34.85-5.04-34.28-58.51,1.8-63.4Z"/>
</svg>