<?xml version="1.0" encoding="UTF-8"?>
<svg id="Camada_1" data-name="Camada 1" xmlns="http://www.w3.org/2000/svg" viewBox="0 0 1024 768">
  <defs>
    <style>
      .cls-1 {
        fill: #413253;
      }
    </style>
  </defs>
  <path class="cls-1" d="M839.37,707.38c-35.44,34.64-80.96,47.63-129.83,49.66-128.03,5.32-259.69-4.11-388.09,0-105.66,3.69-187.6-69.66-193.49-175.51l.05-389.03c3.19-107.93,69.76-175.57,177.45-180.55,134.4,4.2,272.06-5.44,406.09,0,72.21,2.93,132.51,28.58,164.94,96.06,13.25,27.57,17.25,61.05,18.56,91.44,5.39,124.62-4.17,253.08,0,378.1-2.79,50.79-19.29,94.26-55.68,129.83ZM348.99,27.99c-1.47,1.46,4.01,36.03.8,41.3-.96,2.5-3.42,2.23-5.28.68-1.37-1.15-8.01-11.33-8.74-13.26-1.81-4.78-4.19-26.7-6.77-28.23-7.94-.34-17.59-1.3-25.4-.38-5.22.61-12.54,3.13-7.62,9.12,4.08,4.96,11.36,10.89,15.98,16.3,8.61,10.09,18.95,22.73,26.42,33.58,3.75,5.46,10.61,12.9,7.85,19.64-1.67,4.08-30.07,19.02-36.46,24.25-3.63,2.97-7.95,8.27-11.76,11.52-5.18,4.41-27.1,19.67-26.1,25.85l9.99,8.19,64.72-51.46c2.31-.35,2.63,3.22,3.07,4.7,1.75,5.91,1.8,25.44,3.76,28.23,2.63,3.76,11.68-2.17,12.99-6.08,1.42-4.24.65-16.29.59-21.49-.03-2.7-1.29-5.14-1.11-7.94.24-3.65,3.16-6.6,3.15-11.02-.02-7.91-4.62-21.8-5.06-31.01-.3-6.28,1.86-11.73,1.77-17s-3.18-12.08-3.41-18.17c-.48-12.89,6-19.24-13.39-17.33ZM401.89,29.11c-6.13-2.3-21.14,1.87-22.67,8.6-1.18,5.19,1.08,9.28.84,13.75-.4,7.31-1.19,10.6-1.01,18.99.14,6.67-2.64,32.47,9.6,21.19,10.75-9.92,45.97-46.36,48.18-59.38,1.19-6.99-10.5-4.18-15.16-3.35-2.61,4.49-3.08,10.42-7.13,14.12-1.33,1.21-3.39,1.38-4.26,2.23-3.87,3.82-6.08,18.88-15.26,16.74-2.38-12.23,7.55-21.38,6.89-32.9ZM390.42,128.42c28.28-20.48,62.05-61.28,84.55-88.95,1.58-1.94,6.3-7.26,4.6-9.53-1.44-1.93-15.48-2.67-18.12.01-8.09,11.13-17.63,21.1-26.43,31.57-11.29,13.44-29.22,39.55-45.13,46.87-3.11,1.43-8.51,1.29-9.98,3.02-3.88,4.59-1.44,16.25,3.08,20.12,3.84,1.91,5.27-1.55,7.42-3.11ZM483.32,122.68c3.54,3.02,15.42,4.3,14.54-1.93-1.11-7.78-23.45-25.52-24.7-33.51-.85-5.42,12.37-15.85,16.36-20.22,4.41-4.84,8.53-10.23,12.97-15.03,3.46-3.74,19.57-17.94,19.53-21.53-.36-3.64-9.58-2.87-12.3-2.25-5.94,1.35-16.93,16.44-21.68,21.32-8.89,9.13-19.13,18.05-27.54,27.46-14.9,16.68-27.88,36.34-43.09,52.98-2.32,8.38,12.21,3.5,15.53,1.46,3.08-1.89,10.81-12.57,14.04-15.96,4.4-4.6,9.31-10.05,14.68-13.26,3.96-.36,13.86,10.63,16.86,13.78,1.69,1.77,3.34,5.44,4.8,6.69ZM605.94,29.05c-3.8-.4-18.83-2.44-20.52-.12-3.28,4.82,14.04,16.37,15.56,15.07.69-5.4,6.17-9.14,4.96-14.94ZM650.66,28.16c-1.37.47-12.13,22.21-13.52,25.48-10.41,24.63-13.64,65.21,1.06,88.66,5.17,8.25,10.28,10.62,19.31,13.66,4.78-.2-6.79-18.11-7.69-20.28-9.75-23.33-9.85-49.72-2.33-73.69,1.68-5.35,14.87-30.69,14.45-32.42-.53-2.18-9.5-2.02-11.28-1.41ZM700.73,29.25c-1.58-1.31-14.04-1.91-15.53-1.04-17.48,24.07-29.93,48.26-27.07,79.16,3.77,40.81,49.37,75.5,89.36,72.62,51.71-3.73,96.14-50.31,75.27-103.25-6.76-17.15-31.58-32.84-48.55-38.45-67.97-22.49-118.4,53.95-61.22,101.22,27.08,22.39,78.31,5.96,82-31.02,1.91-19.12-12.68-36.88-30.95-41.03-21.46-4.87-52.29,11.18-39.22,36.22,4.32,8.28,14.96,18.82,24.91,12.55,2.82-1.78,6.69-9.21,5.86-12.26-1.85-6.83-13.62-.33-15.4-8.69-2.66-12.53,18.43-13.8,26.31-8.28,17.95,12.57,8.62,35.61-8.82,43.2-34.32,14.94-68.87-30.83-46.2-59.2,20.45-25.59,57.22-26.71,80.98-4.96,48.84,44.72-4.13,112.54-63.99,95.99-49.82-13.77-71.98-68.66-42.3-112.33,3.02-4.45,14.45-14.62,15.35-16.72.49-1.14.05-3-.81-3.72ZM622.16,29.17c-2,5.52-5.4,10.45-7.64,15.85-7.72,18.56-14.66,53.54-13.51,73.48.34,5.87.63,16.45,5.98,19.02,17.41,8.35,10.27-3.56,9.12-13.12-2.57-21.51-.4-41.81,5.17-62.6,1.88-7.01,8.2-20.79,8.75-26.27.16-1.57.35-5.17-.97-6.08l-6.91-.27ZM540.99,124.99c.33-2.59-1.59-4.59-3.02-6.46-4.18-5.44-22.63-22.16-23.73-26.28-2.68-10.06,14.76-21.43,20.73-28.78,2.9-3.57,9.42-17.26,12.48-17.42,2.48-.13,17.32,7.63,20.57,9.43,4.05,2.24,20.7,14.07,22.69,14.39,1.18.19,2.07.32,2.78-.87,1.58-3.51,2.89-11.31.06-14.06l-39.51-23.49c-10.1-5.77-17.66,5.49-24.07,12.02-10.72,10.92-23.1,23.74-31.79,36.21-2.79,4-8.54,9.83-4.63,14.27l25.48,28.51c2.75,2.57,20.62,4.47,21.96,2.53ZM328.87,100.88l-.39-3.86c-10.21-15.11-22.85-26.86-34.99-40.01-5.15-5.57-16.17-22.35-22.97-23.08-10.78-1.16-41.03,13.12-51.19,18.9-15.23,8.65-27.55,18.92-38.14,32.86-3.18,4.18-11.51,14.71-9.66,19.27,8.01,8.63,15.42,17.98,23.45,26.57,7.26,7.77,43.93,41.41,44.88,48.22.37,2.67-7.05,9.06-9.33,11.28-5.35,5.2-12.07,10.33-17.54,15.46-3.16,2.96-23.46,21.6-23.88,23.21-.22.84-.16,1.56.36,2.28,5.34,4.1,8.62,10.36,13.02,15.03,2.65,2.81,14.09,14.32,16.96,14.04,1.34-.13,8.45-6.81,9.04-8.07,3.46-7.4-13.42-15.38-16.02-21-1.75-3.78,6.77-7.93,9.54-10.47,13.54-12.38,26.78-25.37,39.79-38.22l.21-3.74c-6.68-7.68-12.73-15.97-19.49-23.56-13.57-15.21-28.97-29.27-42.03-44.97-1.87-2.25-10.15-11.72-9.04-13.99,10.82-8.85,21.5-18,32.66-26.42,5-3.77,27.37-20.88,31.45-21.55,3.57-.58,7.87-.07,10.95,1.94,4.66,3.04,19.08,18.58,23.47,23.53,2.25,2.54,15.03,18.26,15.04,19.99,0,.81-.39,1.47-.95,2.02l-40.1,29.98c-1.07.8-1.84.53-2.94.02-5.57-2.57-16.32-19.4-22.56-23.52-.45-1.01.46-2.19,1.07-2.96.73-.92,13.9-11.3,15.12-11.92,4.26-2.15,10.14.17,9.37,5.31-.28,1.89-15.45,17.25-.77,14.32,2.91-.58,20.24-11.63,21.23-13.77s.74-3.53-.44-5.55c-.43-.73-10.24-11.31-11.51-12.49-1.07-1-9.95-8.15-10.56-8.44-5.89-2.73-16.8,6.75-21.45,10.51-9.08,7.34-17.65,16.73-26.51,24.47,7.26,9.01,15.4,17.29,22.96,26.03,4.01,4.64,15.79,21.34,19.65,23.34,2.79,1.44,5.1,1.83,7.93.18,4.61-2.68,13.73-14.63,18.97-19.02,8.76-7.34,20.08-13.54,29.39-20.61,5.15-3.91,9.53-9.5,15.95-11.54ZM559.33,67.65c-1.17-.8-2.64-4.1-5.01-4.44-6.02,1.44-10.41,5.81-14.15,10.46-2,2.49-11.59,16.6-11.06,18.64,18.1,13.94,30.65,39.71,56.78,38.58,1.21-3.62,1.19-7.81-1.32-10.97s-17.28-11.11-22.06-14.94c-3.49-2.8-13.75-11.15-13.53-15.39.13-2.58,3.02-7.97,6.28-6.44l29.21,17.86c.56-3.69,6.43-9.28,5.42-12.35-.63-1.93-26.64-18.31-30.57-21.02ZM846.12,95.86c-.69-.72.82-3.2-1.11-2.86,1.13,23.37-3.65,43.94-18.05,62.45-21.66,27.85-55.23,41.25-90.25,40.75-2.64,1.45-5.98,5.08-3.2,7.76.82.79,15.01,4.83,16.96,5.06,44.8,5.43,111.68-49.82,106.54-96.53-.33-2.96-3.8-13.38-5.9-15.1-1.95-1.59-4.66-1.19-4.99-1.54ZM463.75,120.25c-.57-.59-1.59-.81-2.39-1-2.53-.92-8.7,6.53-7.35,7.74l11-1c.02-1.71-.04-4.49-1.25-5.75ZM173.37,200.38c-6.54,6.33-19.34,16.08-24.22,22.27-4.41,5.59-1.86,13.45,1.85,18.84l32.92,33.87c-.29,1.64-18.68,20.4-21.44,23.62-3.9,4.54-13.88,15.21-14.51,20.49-.33,2.76-.64,17.85,1.54,18.52l56.35-63.67c-4.4-6.24-38.57-41.29-37.71-45.68l50.77-50.01c-18.19-19.26-34.74-39.89-54.91-57.16-3.54-1.53-8.94,13.44-7.54,16.49l37.38,40.7c-5.78,8.31-13.3,14.75-20.49,21.71ZM402.85,133.15l-4.69.02-4.15,8.82c1.17,1.04,8.55-1.4,9.54-2.98.8-1.29.17-5.32-.69-5.86ZM485.79,141.29c-111.68,6.49-203.01,80.06-276.82,157.18-14.24,14.88-54.47,56.59-60.03,73.97-9.94,31.09,17.72,57.94,36.08,80.03,68.06,81.9,160.67,161.37,268.79,180.21,149.18,25.99,265.21-49.37,362.21-153.16,12.81-13.71,57.7-65.16,59.89-81.11,3.84-28.08-17.34-46.82-34.4-66.43-95.65-109.97-199.3-199.78-355.72-190.69ZM875.01,178.99c-1.65-7.7-2.39-16.25-4.73-23.77-5.18-16.62-10.42,2.19-14.47,9.08-2.32,3.95-5.41,7.3-7.8,11.18.64,2.89,14.67,2.31,17.44,2.56,2.94.27,5.31,3.12,9.56.94ZM336.53,149.02c-8.19,7.15-17.49,13.18-25.55,20.47-3.37,3.05-11.74,10.71-14.02,13.98-.72,1.04-1.48,1.06-.5,2.56.88,1.36,7.82,5.39,9.82,4.84,1.14-.31,15.37-12.54,18.41-14.68,10.04-7.06,24.2-9.77,14.07-25.44-.58-.89-.73-2.06-2.23-1.72ZM151.49,158.02c-2.91.14-2.35,21.63-2.45,24.52-.06,1.88-2.39,15.28.45,15.43,5-3.61,21.62-15.2,21.48-21.51-.07-2.97-16.34-15.73-19.48-18.44ZM876,232v-16.5c0-1.87-2.14-8.82-3.13-10.87-8.99-18.7-49.21-15.7-62.9-3.15-16.53,15.16-15.76,49.44,4.49,61.56,13.93,8.33,39.91,4.41,41.57-14.49.44-4.99.48-14.28-1.3-18.78-4.61-11.6-24.58-12.94-21.57,3.08,7.93,2.74,13.79,6.37,6.36,14.19-6.48,6.82-13.9,5.74-19.97-1.09s-4.87-23.17,1.43-30.16c10.16-11.27,31.26-10.5,41.53.2,5.17,5.39,6.14,14.47,13.48,16.02ZM273.64,192.15c-5.28,5.28-11.82,9.71-17.17,14.82-3.17,3.02-16.59,16.73-17.27,19.75-1.36,5.96,3.92,10.96,9.37,8.37l36.31-28.7c4.46-3.45-9.17-14.63-11.24-14.23ZM782.99,244c.8-3.74,2.77-19.68.05-21.55-2.26-1.55-14.44,2.54-18.03,2.57-.31,1.53.16,2.33.95,3.54.89,1.37,16.11,16.13,17.04,15.45ZM870.64,279.65c5.97-6.31,5.51-14.47,5.35-22.64-3.85,1.96-5.51,6.29-8.44,9.05-9.05,8.5-26.78,14.87-39.09,14.98-4.73.04-8.78-3.14-13.47-2.52,8.97,10.33,16.15,15.06,30.4,13.38,7.39-.87,20.11-6.82,25.25-12.25ZM148,262.5v19c0,.97-1.95,3.98-1.01,5.96,2.89,2.18,3.26-1.28,4.96-2.99,2.84-2.86,5.75-5.57,8.92-8.07-1.1-6.49-6.63-10.46-10.87-14.91l-2,1.01ZM874.52,292.05c-5.5,2.28-10.4,5.7-15.84,8.13-4.55,2.04-16.96,2.97-12.19,10.83,5.64,9.28,37.8-6.73,28.02-18.96ZM876,344v-22.5l-2.07-1.1c-3.41.52-10.37,7.41-9.97,11.07.31,2.82,2.9,2.69,4.06,4.29,2.29,3.17,3.21,8.82,7.98,8.24ZM875.99,440c-1.55-.29-2.32.15-3.54.95-2.52,1.63-15.91,16.19-16.43,18.57-.23,1.07-.33,4.6.12,5.33,3.4,1.7,7.14.72,10.69,1.8s4.39,4.82,8.16,4.34l1-31ZM148,571.01l4.55-.95c14.82-14.72,32.32-27.37,47.46-41.54,2.89-2.7,13.91-12.85,13.92-16.01l-63.43-71.48c-4.11,4.05-4.71,12.6-2.58,17.56,1.35,3.14,15.15,17.66,18.56,21.44,9.13,10.08,19.2,19.55,28.5,29.49-10.88,11.84-24.35,21.02-36,31.99-2.57,2.42-8.84,8.02-10.44,10.56-3.63,5.77-.3,12.77-.54,18.96ZM874.96,508.96c.19-.19.73-4.57.68-5.31-.51-8.48-9.95-15.71-13.69-23.11-5.65-4.63-27.25-6.05-27.91,4.83.7,2.41,11.55,5.08,14.48,6.6,5.09,2.63,12.07,8.47,16.94,12.06,1.76,1.29,6.7,7.65,9.49,4.93ZM148.01,486l1,38.49c.16,1.49.86,2.56,2.5,2.55s22.1-15.8,21.48-20.57c-.08-3.44-23.43-22.24-24.98-20.47ZM874.9,554.89c6.81-22.21-18.62-45.95-37.62-52.66-10.56-3.73-18.93-2.68-26.26,6.27,7.2,3.64,15.35,4.85,22.67,8.31,15.98,7.56,29.6,22.34,37.47,38.02l3.74.06ZM238.98,537.97c1.32-1.84-8.74-11.25-10.48-12.93-19.57,17.41-40.05,33.93-59.51,51.45-2.98,2.68-18.13,16.01-18.78,18.22-1.07,3.62-.29,20.67,5.09,20.15,3.29-.32,21.09-20.73,25.06-24.5,10.83-10.3,22.65-19.73,33.66-29.84,8.17-7.5,15.78-16.5,24.97-22.55ZM717.68,685.69c-1.65,1.97-7.45,5.43-10.01,6.49-31.73,13.09-53.93-31.92-30.67-56.67,41.4-44.03,83.65,8.1,128.53,4.53,54.28-4.33,78.68-74.75,29.13-104.2-16.11-9.58-41.53-10.89-56.19,2.15-14.84,13.2-21.21,28.7-13.97,48.01,8.84,23.55,46.3,33.92,61.33,10.35,3.6-5.65,5.34-19.57,3.06-25.74-6.31-17.1-38.43-16.36-34.7.67,2.21,10.1,10.95.43,14.06.9,7.72,1.16,9.47,8.86,5.57,15.16-12.54,20.25-43.87-3.36-35.02-25.02,8.58-20.99,34.34-24.82,51.2-10.83,30.09,24.98,13.5,68.14-22.62,72.4-30.39,3.59-53.81-19-83.01-21.77-37.64-3.57-84.71,31.86-69.86,72.86,9.19,25.38,31.04,40.29,58.3,32.33,17.73-5.17,31.47-30.49,11.64-42.37-7.86-.76-1.92,14.93-6.77,20.73ZM261.86,558.87c1.54-2.69-6.56-9.08-8.83-10.49l-2,.07-56.06,49.02c-10.77,11.14-16.82,27.47-28.47,37.53-6.8,5.88-8.93,2.57-3.88,13.87s12.59,22.73,19.89,32.12c1.97.48,2.27-5.51,2.36-6.62,1.53-17.86,1.68-34.48,9.95-51.05,10.01-20.08,42.86-45.27,60.71-60.29,1.25-1.05,6.14-3.83,6.33-4.16ZM723,586.99c5.21,1.1,10.66,1.44,15.84,2.66,2.9.68,11.43,4.35,12.72,4.34,5.71-.06-2.14-11.26-3.08-13.98-1.22-3.55,0-12.59-6.05-9.09-2.31,3.31-23.25,11.6-19.43,16.07ZM301.8,585.18c-.6-1.05-18.55-12.81-20.07-13.4-2.79-1.07-4.84-1.22-7.69-.23-3.18,1.1-18.55,11.91-22.35,14.64-24.75,17.74-44.24,36.2-47.67,68.33-5.61,52.57,38.13,80.72,85.49,83.48,86.5,5.04,105.26-118.67,23.7-131.7-26.93-4.3-52.91,5.55-67.01,29.4-25.39,42.92,14.46,95.33,61.85,71.85,35.33-17.51,32.84-76.53-13.45-70.46-14.08,1.85-25.3,16.81-19.8,30.63,2.91,7.31,14.79,13.33,20.77,7.34,6.58-6.6-7.58-8-5.38-15.34.33-1.09,4.77-5.49,5.91-6.13,11.14-6.33,21.73,7.81,20.84,18.79-2.55,31.58-55.76,28.85-59.81-4.98-7.45-62.21,91.66-62.74,91.89.11.23,63.53-84.17,82.02-117.23,32.23-33.13-49.91,13.31-111.66,68.58-109.87,1.76-.49,2.25-3.26,1.44-4.68ZM869,623c-6.1-.6-8.55,6.37-12.47,10.03-19.28,18.01-40.18,22.84-66.07,22.01-2.76-.09-9.27-2.51-11.04-.1-.73.99,1.79,20.52,1.62,24.61-.9,22.49-9.42,38.79-26.04,53.45,7.78-.06,20.35-4.4,27.07-8.42,4.21-2.52,5.97-8.06,7.39-12.61,4.16-13.3,4.31-28.2,6-42,4.12-3,9.28-1.49,13.91-2.09,15.11-1.97,31.79-5.85,44.55-14.45,9.05-6.1,14.94-19.68,15.08-30.42ZM347,741h14.5c.33,0,1.19.92,2.11,1l2.36-.48c15.4-14.97,29.66-38.21,31.07-59.98.64-9.9-.42-37.47-5.59-45.49-2.14-3.32-8.69-7.39-12.42-8.58-1.23-.39-5.14-1.62-4.57.55,8.46,32.45,13.3,54.32-4.65,85.28-6.35,10.95-14.52,15.82-21.31,24.69-.77,1.01-1.93,1.26-1.49,3.01ZM637.75,632.21c-3.77.53-18.66,4.42-13.3,9.81.46.46,10.44,6.89,11.09,6.99,1.29.21,3.16.22,4-.98.4-.58,3.43-12.92,3.42-13.62-.06-3.03-3.14-2.49-5.21-2.2ZM751.65,643.35c-15.49-15.5-48.89-16.17-62.08,2.71-7.22,10.34-4.15,36.72,12,25.94-6.73-32.09,37.24-32.33,46.63-6.69,9,24.59-7.23,50.94-31.42,57.95-68.25,19.75-63.5-68.92-116.27-74.25-39.22-3.96-83.21,17.59-75.04,63.04,4.99,27.76,48.59,39.15,66.4,18.3,4.71-5.51,7.41-17.56.73-22.42-7.85-5.71-8.49,10.57-13.09,15.06-13.51,13.2-34.78-1.07-37.23-17.75-5.8-39.53,51.2-54.17,77.75-31.75,18.42,15.55,21.17,41.56,43.7,55.3,28.7,17.5,73.52,12.13,92.69-16.88,12.9-19.52,12.29-51.49-4.76-68.55ZM427,670v-23.5c-20.57-13.39-12.79,1.22-11.96,13.96,1.3,20-6.98,38.69-12.04,57.53,1.74.15,3.07.15,4.56-.93,3.14-2.26,13.63-18.91,17.46-23.54,4.37-5.27,32.96-35.29,32.78-38.86-.25-4.9-9.3-4.47-12.58-2.94s-13.84,22.66-18.23,18.27ZM426,741c4.45-6.1,11.24-11.19,16.51-16.99,14.58-16.01,39.5-42.87,50.89-60.11,8.52-12.9-8.13-11.21-14.95-5.95-19.72,22.24-37.62,47.4-59.44,67.56-4.03,3.72-11.74,8.31-14.97,12.03-1.1,1.27-1.3,1.69-1.04,3.46h23ZM506.5,741h14.5c.39-1.65-.35-2.32-.98-3.52-14.88-28.32-15.26-43.76,1.96-71,.87-1.37,8.98-11.15,6.52-11.48-4.38-.3-9.18.39-12.5,3.5-15.42,18.65-28.89,41.21-44.97,59.03-3.04,3.37-17.31,15.76-17.83,18.22-.28,1.3.19,2.46.73,3.6,1.87,2.49,16.47,1.67,20.35,1.74,1.65-1.02,7.96-12.49,9.25-15.06,1.54-3.06,6.21-17.57,8.96-17.02l5.33,18.68c.99,2.38,6.79,12.79,8.68,13.32ZM841.99,675.01c-1.33-1.32-29.42,7.19-32.07,11.42l-3.92,22.57c1.26,1.42,18.19-11.87,20.01-13.48,2.5-2.21,18.62-17.89,15.98-20.51ZM606.5,741h15c17.15-27.21-13.12-73.49-46.04-62.04-10.99,3.82-21.97,17.9-12.03,28.1,9.17,9.41,9.58-7.89,13.14-11.99,6.63-7.63,19.1-3.43,25.9,1.95,14.32,11.33,12.86,28.12,2.96,41.94l1.07,2.04ZM649.69,736.3c-.75-.84-10.04-6.97-10.68-6.3.78,3.59-5.18,9.95.5,11,3.82.71,15.11.88,10.18-4.7Z"/>
  <path class="cls-1" d="M493.79,211.29c113.46-5.69,215.38,47.22,298.22,120.19,17.27,15.22,37.2,33.67,50.96,52.04,1.29,1.72,4.41,4.91,3.92,6.77-23.67,27.55-48.24,54.63-76.42,77.68-92.2,75.4-209.07,121.73-329.49,95.54-105.11-22.86-196.1-89.89-263.52-171.55-1.47-3.19,7.55-13,10.02-15.98,70.52-85.09,194.48-159.08,306.31-164.69ZM435.99,260.01c-81.47,21.63-158.58,67.97-213.95,131.49,48.34,53.76,108.24,94.17,176.44,118.52,5.17,1.85,36.29,12.52,39,11.98,2.16-.43,1.08-1.98,0-2.99-4.5-4.21-13.48-8.63-18.95-13.05-72.51-58.47-72.06-168.68-2.54-229.48,5.41-4.73,12.76-8.66,17.73-13.27,1.07-.99,2.79-1.04,2.28-3.21ZM583.01,521c84.52-17.22,162.04-66.7,217.96-131.5-42.54-46.93-96.12-86.04-155-109.97-7.4-3.01-56.55-21.6-59.96-18.53-.13.92-.11,1.27.47,2.02,2.04,2.62,15.49,10.94,19.54,14.47,77.18,67.11,66.98,188.54-21.04,241.03-1.28.76-2.53-.19-1.97,2.48ZM499.8,276.3c-72.52,6.44-119.86,83.17-96.07,151.47,32.35,92.89,156.54,103.5,205.44,18.9,46.12-79.78-18.92-178.41-109.37-170.37Z"/>
  <path class="cls-1" d="M502.79,317.29c69.13-7.13,110.47,81.28,55.68,127.68-55.5,47-135.82-3.48-117.73-73.73,7.18-27.87,33.18-50.97,62.05-53.94Z"/>
</svg>