<?xml version="1.0" encoding="UTF-8"?>
<svg id="Camada_1" data-name="Camada 1" xmlns="http://www.w3.org/2000/svg" viewBox="0 0 1024 768">
  <defs>
    <style>
      .cls-1 {
        fill: #413253;
      }
    </style>
  </defs>
  <path class="cls-1" d="M302.79,7.29l412.75-.34c101.64,1.31,170.01,72.1,178.44,171.56,1.59,140.16,1.83,280.74-.12,420.87-9.48,87.25-78.94,148.64-165.39,154.61-141.12,0-282.37-.31-423.03,1.05-100.36-1.19-173.33-72.53-178.5-172.5V191.46C131.56,85,194.64,13.27,302.79,7.29ZM532.75,32.26c-1.01-.98-16.62-8.93-18.34-9.17l-39.92.9c-1.86.36-13,14.6-11.49,16,9.2.73,17.53-5.46,26.45-6.03,12.73-.81,28.08,3.96,41.03,4.04,2.63-.22,4.14-3.94,2.26-5.75ZM357.5,24c-4.96-.83-11.78.61-17,0-3.47,3.49-.59,9.18-.46,13.46.2,6.52-.86,13.22.96,19.53l-7.97-7.52c-3.03-3.52-15.96-22.32-17.31-23.19-3.13-2.02-20.56-1.05-22.27,1.69l-.33,2.35,71.37,75.69c2.98-.03,39.96-34.09,45.04-38.98,13.49-12.98,25.95-26.72,38.47-40.54l-1.5-2.49h-15c-4.24,0-15,14.92-18.47,18.53-8.01,8.31-17.37,17.37-26.01,24.99-4.6,4.06-13.75,12.79-18.47,15.53-3.82,2.22-5.4.45-7.05-3.04-4.04-8.53-6.31-23.05-5.37-32.39.48-4.75,5.63-19.24,3.72-22.45-.78-.18-1.8-1.08-2.34-1.17ZM384.28,26.29c-1.09.85-15.44,19.41-15.83,20.65-1.79,5.69.57,12.89,7.07,11.14l29.46-30.58c-2.64-5.28-17.29-3.88-20.7-1.21ZM552.7,25.2c-4.31,1.27-3.12,8.09-.22,10.82,2.75,2.58,15.26,6.83,19.58,8.43,5.11,1.9,5.6-8.42,4.91-11.93-.3-1.56-4.2-5.87-5.42-6.58-2.28-1.31-16.16-1.54-18.85-.74ZM611.5,25h-17c-1.77,2.03-2.17,6.58-2.49,9.51-.55,4.96-1.53,16.28,2.74,19.51,2.06,1.56,11.09,6.08,12.4,2.61,1.24-3.29,6.4-27.86,5.72-29.97-.18-.57-.87-1.51-1.36-1.66ZM638.5,25c-4.22,0-8.71,10.92-10.36,14.64-2.34,5.29-7.6,18.87-7.91,24.11-.41,6.8,8.2,11.47,13.29,14.27,3.43.06,3.06-11.07,3.75-14.26,1.73-7.94,5.43-15.64,9.21-22.79,1.69-3.21,7.45-10.58,8.11-12.91.37-1.31-.01-3.06-1.08-3.06h-15ZM666,114v-30.5c0-2.21,2.37-10.12,3.24-12.76,5.89-17.93,19.75-30.53,31.77-44.23-5.61-2.08-18.46-2.75-23.54.46-2.89,1.83-13.11,16.96-15.28,20.72-8.24,14.29-16.2,36.59-8.58,52.19.8,1.64,10.44,16.32,12.38,14.12ZM234.65,272.35c-7.15-7.56-16.67-14.9-23.17-22.33-1.57-1.8-5.64-6.36-5.36-8.28.25-1.73,19.85-23.12,22.85-26.26,4.44-4.65,29.37-27.12,29.85-30.19.78-4.96-10.6-16.26-14.31-20.3-16.61-18.08-38.64-36.37-53.48-55.52-4.82-6.22-3.09-7.76,1.46-13.48,10.23-12.87,31.82-27.99,45.79-37.21,7.36-4.86,17.9-14.74,26.68-9.23,6.63,4.16,26.2,26,32.02,32.98,2.11,2.53,10.69,12.54,11.49,14.51.47,1.14.86,2.14.57,3.4-11.82,14.45-27.47,26.16-41.09,39.04l-2.4.57c-7.72-6.83-17.32-15.09-24.06-23.04-2.86-3.37-7.38-7.77-6.28-12.25.43-1.76,12.79-13.92,14.84-15.21,2.69-1.71,4.55-2.34,7.51-.6,1.16.68,6.68,6.73,7.05,8.02,1.2,4.31-6.54,7.18-6.53,11.53,1.81,5.16,5.83,10.31,11.44,6.51,1.8-1.22,15.2-13.93,15.77-15.31,1.35-3.26-3.1-7.57-5.3-10.17s-20.59-21.42-22.01-22.06c-.89-.4-1.25-.45-2.21-.32-2.82.38-27.42,19.56-31.22,22.89-11.38,9.99-15.68,13.11-5.04,25.98,12.36,14.96,29.39,28.95,42.49,43.5l4.52,2.42,4-1.94c16.04-15.95,33.75-30.31,50.03-45.97,1.96-1.88,11.41-10.75,12.01-12.06,1.38-3.05-3.89-8.49-6.02-10.98-10.25-11.98-23.1-23.47-34.03-34.97-5.85-6.16-16.21-20.44-22.53-24.46-5.43-3.46-17.7,2.72-23.63,5.28-20.58,8.85-44.73,24.56-59.3,41.7-3.25,3.83-16.06,21.35-16.82,25.21-1.5,7.66,6.01,13.03,9.82,18.73l58.87,62.23-53.99,56.8c-.28,4.64,2.2,3.98,4.63,6.47,14.14,14.54,29.47,28.09,41.51,44.53-25.65,31.93-56.58,58.91-84.61,88.46-1.69,4.59,1.89,8.37,4.18,11.93,15.7,24.42,41.15,44.94,60.9,66.1,8.79,9.42,16.91,19.6,25.34,29.34-.12,1.43-9.41,11.46-11.21,13.32-19.01,19.67-39.82,37.91-58.68,57.82-3.46,3.66-19.37,20.04-19.93,23.07s-.16,20.43,3.45,20.43c25.06-34.05,58.08-61.34,86.53-92.45,1.99-2.17,14.45-16.14,14.77-17.23.79-2.67.57-15.56-.74-17.85-22.93-24.29-48.23-46.61-70.57-71.43-3.15-3.5-15.37-16.95-15.58-20.52-.33-5.61,8.39-9.49,12.11-12.98,5.12-4.79,9.26-10.31,13.96-15.04,19.77-19.92,39.58-39.78,58.92-60.14,3.27-5.91-10.79-18.29-15.24-22.99ZM697,251.5c-.63,4.42,0,11.22,0,16,0,2.54,2.52.61,3.52-.48,3.52-3.83,13.34-26.92,19.92-25.01,3.4,5.02-1.8,14.53-3.36,20.57-1.34,5.2-2.72,10.44-3.16,15.82,4.12.32,10.23,5.47,13.02,6.2,4.25,1.11,2.04-8.92,2.19-10.95,2.14-28.32,9.88-48.08,28.84-69.18,22.1-24.61,52.31-33.28,65.51-66.49,31.77-79.93-75.89-143.19-125.99-83.99-23.21,27.42-18.89,71.37,11.2,91.83,31.66,21.53,84.07,9.55,87.29-33.33,2.51-33.33-36.91-60.29-66.3-42.31s-10.26,64.91,20,51c7.21-3.32,14.8-15.01,7.25-21.59-10.72-9.34-8.79,8.6-17.27,8.12-11.85-.68-10.42-21.03,5.7-24.85,22.45-5.32,39.13,16.48,29.36,37.36-17.61,37.65-84.27,19.21-75.26-31.26,7.26-40.68,54.82-52.31,86.45-30.36,38.7,26.86,34.9,82.49-5.24,105.58-31.73,18.26-70.2,8.91-94.19-17.17l-2.49,1.52c2.78,5.03,4.87,20.29,8.64,23.34,5.21,4.22,27.08,12.45,33.87,13.13,5.96.6,21.91-1.56,25.57,1.43.89.72,1.87,1.86,1.9,3.06-.12,2.22-1.71,3.49-2.96,5.05-7.28,9.08-20.73,21.07-29.5,29.5-7.46,7.18-22.99,16.67-24.53,27.47ZM632.5,272h44c1.43-.88,1.38-1.99,1.55-3.45,1.84-15.66.82-45.64,0-62.09-5.43-108.31-110.5-179.7-214.04-148.95-51.91,15.42-101.2,62.95-113.71,116.29-7.48,31.88-4.63,64.84-3.86,97.27,1.87,2.62,44.13,2.78,46.13,0,1.48-39.52-4.65-76.45,15.63-112.37,54.03-95.7,206.79-70.58,221.66,39.95,3.09,22.98-1.49,47.94,1.09,69.91.17,1.46.12,2.57,1.55,3.45ZM758.99,313c-3.35-29.49-5.38-52.65,13.05-77.46,25.68-34.54,66.37-47.12,83.44-91.56,1.41-3.68,5.39-16.07,5.21-19.34-.12-2.24-4.24-12.92-5.52-15.31-.91-1.7-5.95-9.99-8.24-6.74-.98,13.01-1.63,24.34-5.92,36.93-16.93,49.72-72.33,61.42-90.5,107.5-8.44,21.41-7.51,48.62,8.47,65.98ZM325.5,244h-25c-4.57,0-3.17-10.57-4.49-13.51l-.81-46.79c11.82-13.85,26.72-24.67,39.81-37.19,4.95-4.74,19.95-18.63,20.02-24.99.03-2.68-2.41-8.54-5.52-8.53-6.44.03-59.23,54.35-68.07,61.95l-1.42,2.58c.09,5.64-.25,11.33-.01,16.97s1.85,13.15,2.03,18.97c.46,14.83-.84,29.74.45,44.55.51.86,1.24,1.51,2.21,1.8,3.37,1,16.86-2.4,21.8-2.79s12.95.95,16.8-.2c4.32-1.29,5.01-11.93,2.19-12.81ZM414.5,272h195c2.17-1.8,2.31-3.86,2.55-6.45,1.75-19.11.4-58.1-4.78-76.31-21.16-74.32-118.76-94.21-169.78-37.25-28.46,31.77-24.47,63.89-24.45,103.56,0,3-2.24,15.26,1.46,16.46ZM199.38,168.63c-12.62-14.52-25.09-29.14-38.9-42.62-1.71-.68-2.46,2.86-2.94,4.02-3.17,7.66-4.7,10.04.05,16.88,8.29,11.95,23.91,22.85,31.41,33.59,1.81,2.6,3.15,5.15,1.05,8.06-11.65,13.5-25.4,25.52-36.57,39.43-5.33,6.63-10.11,13.02-5.9,21.93,10.49,11.81,23.61,23.35,33.4,35.6,1.45,1.82,5.25,6.94,5.07,8.93l-37.92,40.18c-1.6,2.78-2.12,18.62.4,19.37l59.33-59.71c.67-2.41-.58-3.96-1.86-5.78-8.44-12.01-25.74-24.8-35.51-36.49-7.14-8.53-7.68-11.19-.46-20.49,10.91-14.06,26.07-25.05,37.97-38.03,10.53-11.49-1.03-16.15-8.6-24.86ZM869.99,154c-1.78-.35-2.51.88-3.44,2.05-2.55,3.22-11.67,16.86-13.58,20.41-1.14,2.13-2.01,4.02.7,5.36l20.32,6.16c.26-11.5-1.39-22.88-4-33.99ZM148,207l3.46-1.04,16.44-21.32c-4.7-2.86-12.32-16.29-15.89-18.15-1.01-.53-1.89-.63-2.99-.49.46,1.26-1.02,2.94-1.02,3.5v37.5ZM324.72,177.18c-3.95.87-13.2,10.26-13.71,14.41l3.48,35.42c11.76,3.73,11.87-.22,12.55-10.47.35-5.27-.46-10.76-.03-16.03.31-3.83,4.52-21.32,2.06-23.08-1.1-.78-3.04-.54-4.35-.25ZM696,194c1.55,8.09-.09,19.81,2.16,27.33.3.99,1.21,1.9,2.31,1.66l17.52-22.48-21.99-6.52ZM875,232.5v-18c0-1.28-7.83-10.1-9.48-11.52-33.84-29.27-85.79,21.87-62.96,53.96,15.88,22.32,58.91,16.19,53.2-17.2-1.71-10.02-13.22-17.55-22.77-13.24-3.27,1.47-5.98,3.88-4.82,7.79,1.36,4.59,11.93.22,13.61,10.46,1.88,11.47-11.33,13.24-19.71,8.68-19.54-10.62-9.01-38.91,9.88-43.99,19.08-5.14,33.78,7.46,41.05,24.07l2.01-1.02ZM262.99,202c-1.73-.45-2,.72-3,1.49-7.28,5.6-24.72,26.22-29.82,34.18-1.92,2.99-3.35,4.27-1.22,7.89,2.49,4.23,15.18,14.74,19.56,19.43,2.77,2.97,9.05,13.4,12.96,13.09,1.78-.09,2.22-.98,2.52-2.58.49-2.68.34-14.03-.44-16.55-3.14-10.17-35.14-21.67-2.44-28.54,2.34-9.36,4.28-18.76,1.88-28.4ZM873.99,260c-1.99-1.41-10.44,12.13-12.45,14.04-16.68,15.94-45.24,17.77-63.46,3.37-8.77-6.93-10.2-17.38-15.6-26.41-11.45,8.76-5.34,22.37,2.98,31.04,19.26,20.07,44.16,24.4,69.22,12.13,5.15-2.52,18.56-12.51,20.11-17.89.62-2.14.42-15.42-.8-16.28ZM252,444v-17.5c-7.61-6.66-15.67-13.05-23.01-19.99-4.3-4.06-19.8-18.21-22.04-21.96-.78-1.31-1.42-2.23-.81-3.84l40.85-40.72c2.53,15.72-8.11,25.35-17.48,36.01-.6,1.07-.72,2.23-.55,3.43.25,1.69,17.37,18.95,20.03,21.06,1.07.85,1.22,2.24,2.52.52,1.24-15.49-.46-30.97,1.63-46.37,4.4-32.44,21.2-56.92,50.17-71.83,2.21-1.14,12.26-4.31,12.63-4.88.44-.68.17-2.9-.93-3.46-11.31-2.16-21.03.8-30.69,6.35-16.04,9.21-23.9,25.79-35.81,39.19-18.52,20.82-41.24,39.3-60.58,59.45l-.91,2.01c-.05,1.95,4.87,7.68,6.47,9.54,16.29,19.04,36.11,34.55,53.96,52.04l4.55.95ZM147,308c1.51.23,2.35-.1,3.56-.94.75-.52,11.45-12.66,11.45-13.55-1.65-3.34-4.55-7.27-7.04-9.99-1.8-1.97-5.73-7.62-7.97-4.03v28.5ZM594,333c-.27-6.53.41-35.55-3.43-39.07-2.01-1.84-7.57-1.7-7.57.57v19c0,12.02-20.49,3.17-27.96,8.04-7.57,4.94-3.09,18.45-5.54,23.46-2.09,4.28-14.79.34-15.51-3.5-.85-4.49-.56-22.97,0-28,.33-2.98,1.06-6.81,4.52-7.48,5.46-1.05,28.32,1.87,30.56-1.69,3.42-5.44,1.04-10.83-5.54-11.38-4.83-.4-39.35-.51-41.55.54-1.91.91-2.79,4-3.02,5.98-.87,7.47,3.32,37.75-.21,41.29-1.72,1.72-11.37,1.9-13.36.33-4.73-5.83,3.86-18.29-2.43-22.58-5.06-3.45-12.55-.58-13.79,5.21-1.01,4.7,3,13.54-.11,17.85-1.77,2.45-15.3,6.36-19.39,8.61-9.89,5.44-27.58,21.66-34.11,30.89-2.54,3.59-8.27,16.74-10.01,17.99-3.79,2.74-21.49-.59-27.4,2.09-4,8.87,4.45,23.58-9.63,24.88-10.33.95-30.26-4.47-38.59,1.41-5.73,4.04-18.11,17.74-23.47,23.53-2.71,2.93-17.49,19.16-17.28,21.36.29,1.53,1.39,2.52,2.28,3.68,11.45,14.98,32.62,28.98,44.03,43.96,1.15,1.51,2.9,3.18,2.35,5.31l-52.87,53.2c-8.08,12.47-2.72,26.28,4.2,37.81s6.61,8.06,14.8,1.18c2.68-2.25,9.18-4.91,7.53-8.48-3.43-7.41-21.45-10.56-11.36-25.34,6.73-9.85,26.84-27.4,36.31-36.69,15.98-15.66,32.96-30.38,48.55-46.45,2.37-5.08,20.67-19.4,19.83-23.78l-5.87-7.31-1.96.02-45.5,43.53c-1.93-.1-3.14-1.38-4.54-2.46-5.29-4.07-33.34-31.74-36.43-36.56s-.64-6.49,2.48-10.42c3.5-4.41,23.18-25.67,27.03-27.02,6.74-2.36,12.44,9.81,18.45,12.31,5.5-2.78,7.84-13.24,13.99-12.92,4.46.23,6.35,7.92,5.31,11.39-.79,2.65-19.44,20.54-22.73,21.22-4.19.86-9.08-12.63-14.61-12.48-3.69,2.48-11.75,8.41-10.3,13.27.43,1.45,18.64,20.21,20.56,20.56,3.93.72,12.66-7.78,15.79-10.82,6.28-6.11,28.03-31.95,34.23-33.79,1.04-.31,2.11-.48,3.17-.16,3.11,13.67,9.84,25.31,18.12,36.38,2.69,3.6,11.33,11.59,11.67,15.18l-18.7,102.88c-.5,8.08-.43,17.68,9.44,18.53,33.42,2.87,77.02.06,111-1.08,13.05-.44,35.67,5.57,34.42-13.32-1.33-20.11-8.45-49.03-12.19-69.82-2.25-12.51-5.42-24.84-7.55-37.38,3.61-8.34,11.57-13.29,16.68-21.13,20.92-32.08,17.33-76.38-7.3-105.32-2.52-2.96-16.97-15.54-17.31-16.69-.85-2.88-.7-20.29,3.29-20.29h28.5ZM366,342c.32-.98-1-2.17-1-2.5v-45l-1.5-1.5h-29c-17.1,0-39.9,17-49.32,30.68-19.57,28.44-14.58,71.27-13.19,103.83.2,4.57-.91,14.32.16,17.83,1.44,4.71,8.44-3.34,9.87-4.82,7.81-8.09,20.68-22.12,26.97-31.03,2.83-4.01,2.71-7.8-2.3-9.78-11.38-4.5-19.21,25.34-24.18,24.27-4.96-7.69,1.64-17.78,2.49-25.49,2.99-27.1-6.55-46.28,13.48-70.52,12.18-14.74,34.69-27.39,53.6-19.58,2.08,11.3.81,24.45,2.04,35.96.23,2.2,1.84,9.63,4.37,9.63h32c3.81-4.35,1.03-12-5-12h-19.5ZM380,295.5v31c1.53,2.36,10.53,2.05,11.56.56,1.38-4.41-1.56-18.17,4.13-19.87l46.87-2.13-.47-9.65c-1.88-1.61-4.2-2.14-6.59-2.41-10.3-1.14-41.06-1.4-51.05-.05-1.51.2-4.02,1-4.45,2.55ZM478.24,307.23c3.76-3.19,20.08.55,24.76-1.73,3.03-1.47,4.1-11.71-2.46-12.55-5.42-.7-30.11-.87-35.02.07-7.75,1.49-2.46,23.39-5.49,25.51l-50.05,1.95c-1.83,1.08-2.79,10.35-2.98,13.02-.7,9.76,1.59,24.2-.04,32.96-.4,2.14-2.38,4.1-4.5,4.5l-58.49-.46c-4.88-2.88-1.39-39.05-5.65-45.55-10.23-2.42-28.53,13.54-32.2,22.67-2.44,6.06-5.15,28.21-2.64,33.37,1.66,3.42,12.22,1.71,16.05,1.95,24.8,1.59,49.15.95,73.92,0,4.89-.19,20.45,1.05,23.55-.45,1.22-.59,1.73-1.77,1.97-3.03,1.3-6.97-.34-19.18-.01-27.01.11-2.54,1.36-18.81,2.18-19.32l52.2-2.29c4.03-2.55,1.54-18.82,4.89-23.61ZM641,293h-32.5c-1.43.88-1.38,1.99-1.55,3.45-1.3,11.07,3.95,36.29-.53,44.47-3.77,6.9-21.31.02-27.48,4.74-3.04,13.32,26.79,11.62,34.49,10.24,1.26-.23,2.9-.37,3.65-1.56,1.64-16.76-.4-31.86,10.51-46.25,1.34-1.77,14.76-13.9,13.41-15.09ZM749.99,609c1.34-5.97,2.68-12.32,3.06-18.45,4.56-73.99-3.55-152.61,0-227.09-2.52-37.63-26.69-67.56-65.56-70.44-38.87-2.89-67.98,38.39-47.28,73.28,20.22,34.09,96.75,28.86,78.54-23.54-3.79-10.91-23.56-21.17-34.51-21.49-14.73-.42-23.92,11.75-21,26,2.34,11.4,25.98,18.26,25.47,6.35-.19-4.41-12.2-4.15-11.68-12.05.83-12.75,25.29-8.49,27.75,6.17,3.17,18.89-4.98,29.23-24.31,28.3-47.52-2.29-42.84-69.62,4.05-70.04,29.33-.26,48.61,21.85,54.05,48.95,1.75,8.69,3.04,41.11.78,48.88-2.97,10.2-20.9,22.56-31.36,19.7-2.99-.82-9.98-6.42-7.55-9.59.55-.72,12.32-2.72,15.63-4.38,6.27-3.14,10.04-7.42,8.7-14.81-1.69-9.28-6.95-1.08-11.83,1.68-32.12,18.18-62.35,2.84-92.43,38.57-50.75,60.29,44.94,139.02,93.02,85.02,40.34-45.31-23.56-104.42-61.43-75.43-30.96,23.71-8.06,71.79,28.73,60.73,15.05-4.52,18.52-24.5,5.52-33.15-7.65-5.08-21.4-3.97-17.4,7.4,23.54.43,7.57,24.22-7.87,13.86-19.57-13.13-6.87-43.16,17.44-42.49,43.73,1.2,46.47,68.54.98,73.05-63.7,6.33-79.7-78.26-23.17-100.17,6.71-2.6,22-6.1,28.71-4.35s31.66,17.55,37.17,22.54c24.46,22.14,27.28,58.42,6.31,84-4.05,4.94-12.38,10.69-15.57,15.44-2.88,4.29,6.38,8.52,9.58,11.52,14.75,13.79,20.98,27.73,24.36,47.64.52,3.06-1.38,8.4,3.11,8.38ZM779.73,293.15c-9.33,2.49-2.7,22.53,9.19,15.26,8.76-5.36-4.68-16.46-9.19-15.26ZM875,352v-22.5c0-1.52-7.9-4.84-7.98-7.98-.12-5.06,7.1-5.99,7.82-8.18,1.34-4.07,1.34-14.25-5.09-13.18-2.67.45-21.79,12.84-21.79,15.34,0,1.17,12.74,15.06,14.85,18.18,3.29,4.87,6.41,13.29,9.35,16.65.9,1.02.94,2.1,2.83,1.67ZM802.76,315.26c-14.64,1.87-46.65,15.92-32.26,34.73,16.91-20.11,44.24-30.91,64.53-8.51,26.89,29.71-10.9,64.77-35.03,45.03-9.28-7.59-9.59-21.53.51-28.51,6.17-4.26,9.49-1.66,13.37,3.71,1.08,4.2-7.78,9.14-2.81,12.73,10.86,7.86,22.22-10.72,12.48-22.48-6.29-7.59-15.97-8.99-24.81-5.74-9.9,3.64-17.41,10.49-18.62,21.38-3.54,31.78,32.78,47.49,57.8,31.81,41.69-26.14,11.52-90.12-35.15-84.16ZM452,346h-14.5c-.25,0-3.5,3.25-3.5,3.5v15.5c3.29-.27,4.57-4.26,6.97-6.53,1.66-1.57,13.48-10.09,11.03-12.47ZM606.7,373.2c-4.58,1.35-2.31,9.73.28,11.3,3.5,2.13,15.91-3.99,17.04,4.05,1.29,9.16-14.01,11.34-14.91,14.12.81,3.62-.26,16.22,4.34,16.33,2.4.05,13.64-11.03,17.62-13.43,3.29-1.98,14.97-5.88,14.96-9.08-.01-2.32-17.47-17.67-19.67-21.37-3.74-2.14-15.72-3.1-19.66-1.93ZM875,376c-4,.73-5.11,7.01-7.19,10.31-2.56,4.05-5.39,7.9-8.29,11.71-1.88,3.63-19.41,16.68-19.59,18.51-.14,1.37.41,1.99,1.03,3.03,1.6,2.68,16.66,10.67,20.95,14.04,2.35,1.85,10.84,11.68,13.09,9.41.09-7.79,2.6-15.36-.51-22.99-1.87-2.63-3.97.54-6.03.94-4.19.8-9.55-.51-9.56-5.46,0-7.09,16.1-10.89,16.1-18v-21.5ZM373.75,400.24c-1.12-.97-5.5-1.18-7.21-1.29-5.12-.33-35.48-.54-37.87.97-2.98,1.88-2.35,9.04-3.18,12.06-14.88,17.65-32.11,33.38-47,51-1.92,2.27-7.2,8.03-7.09,10.53.21,4.62,44.79,42.97,44.56,48.99s-39.36,38.72-44.03,46.92c-8.03,43.87,15.71,88.22,59.06,101.08,6.55,1.94,18.35,5.11,24.73,2.71,2.84-1.07,11.44-9.12,14.29-11.71,13.86-12.59,26.98-27.36,40.46-40.54,9.2-8.99,14.39-7.59,3.55-20.5-12.1-14.41-28.98-26.27-41.47-40.52-5.37-3.32-11.94,4.88-15.58,8.52-4.06,4.05-11.02,11.22-14.48,15.52-2.45,3.03-4.51,4.6-2.57,8.59s15.12,17.32,15.12,18.92c-7.06,8.41-15.38,17.85-24.95,23.62,7.74,17.03,17.94,4.43,26.93-3.6,3.01-2.69,18.71-17.49,19.5-19.58,2.74-7.24-16.73-14.56-18.04-21.86-.6-3.32,8.82-14.09,13.51-10.57,7.68,7.22,16.06,14.08,23.55,21.47,2.91,2.87,7.15,6.3,4.97,11-15.41,13.76-29.99,31.21-45.48,44.54-4.56,3.92-10.7,10.01-16.96,7.93-3.72-1.24-17.42-10.76-21.37-13.63-13.09-9.51-25.16-23.08-30.14-38.86-12.88-40.75,17.59-53.26,39.97-78.95,2.14-2.46,7.82-8.57,7.51-11.48l-46.08-48.99,4.54-6.56,51.01-52.99c8.54-5.56,23.19,1.57,29.76-1.99,2.38-1.29,2.3-9.2.5-10.76ZM875,491v-20.5c0-4.68-24.63-24.83-29.54-28.46-7.89-5.84-16.18-11.61-25.47-15.06l1.01-2.97c-8.88.72-18.11-1.87-26.26-5.25-4.38-1.81-16.65-10.36-18.47-10.64-4.6-.7-5.93,4.83-4.49,8.6,4.68,12.16,32.07,17.22,43.57,22.42,15.37,6.94,33.61,20.65,44.67,33.33,4.5,5.17,7.97,12.03,12.14,16.86.9,1.04.95,2.09,2.83,1.67ZM147.01,553c1.72.44,2-.71,3-1.49,15.6-12.1,34.59-34.93,49.46-49.53,6.48-6.36,17.36-10.27,9.5-20.44-5.47-7.07-14.16-15.71-20.46-22.54-12.73-13.82-26.1-27.4-40.03-39.98-4-.91-2.74,13.55-1.35,16.36,3.21,6.46,19.63,24.32,25.35,30.65,4.04,4.48,15.18,13.39,17.57,17.43.58.98,1.26,1.73,1,3l-44.13,45.97c-1.6,2.64-1.26,19.62.09,20.57ZM796.87,481.88c2.63-4.11-3.11-7.15-6.62-7.66-15.42-2.21-20.69,22.28-8.57,31.61,23.06,17.75,55.63-13.01,42.13-37.13-9.24-16.51-28.5-27.07-47.36-27.73-8.17-.29-4.84,11.43-3.51,16.6,8.43.87,13.21-1.66,21.84,1.16,11.39,3.71,20.43,11.83,19.11,24.67-1.91,18.59-25.96,22.58-25.98,7.11-.01-8.88,7.89-6.96,8.96-8.63ZM146,464v36.5c0,.56,1.97,4.48,2.5,4.48l18.54-19.48c-4.94-5.65-9.84-12.76-15.01-18.02-1.72-1.75-3.17-3.99-6.02-3.48ZM840.26,482.25c-4.67,5.02-1.33,16.98,8.27,16.77,15.27-.32-.09-25.56-8.27-16.77ZM612.99,616c-2.99-18.64.81-37.94,12.59-52.91,2.23-2.84,15.46-14.43,15.45-15.58-.02-2.73-18.77-13.36-22.51-16.53-5.66-4.81-11.36-11.49-15.05-17.95-2.13-3.74-8.64-22.53-11.88-21.98-6.47,5.89-2.35,18.15.54,25.32,3.64,9.01,10.88,17.48,17.84,24.16,2.3,2.21,9.63,6.24,9.87,9.16-5.58,7.42-12.63,12.81-15.58,22.1-3.33,10.5-2.53,26.84,1.25,37.2,1.17,3.21,3.53,7.5,7.47,7.02ZM434.9,495.11l-2.43.86c-12.7,13.21-27.78,24.35-39.98,38.02-3.56,3.99-11.08,10.34-7.53,15.57,10.29,9.02,18.28,20.43,28.52,29.47,1.03.91,6.59,5.87,7.04,5.97,3.57.82,3.97-11.95,3.28-14.29-1.45-4.87-21.53-19.26-20.82-26.16.19-1.87,11.19-12.42,13.51-14.56,9.99-9.28,21.34-13.42,21.37-29.53,0-3.04-2.36-2.98-2.94-5.33ZM272.01,543c1.55.29,2.32-.15,3.54-.95,2.51-1.62,17.03-17.43,17.25-19.7.3-3.17-16.45-18.62-19.29-22.33-1.8,1.46-2.26,3.26-2.52,5.46-1.4,12.1,2.02,25.29,1.02,37.51ZM875,552v-24.5c0-.57-6.99-7.17-8.06-7.94-12.61-8.97-31.88-10.42-45.26-2.38-31.71,19.06-21.78,68.46,17.71,63.71,13.9-1.67,20.56-18.81,14.82-30.6-4.33-8.92-24.09-14.98-22.23-.84.74,5.62,11.21,1.61,9.99,10.96-1.68,12.9-20.76,8.48-24.5-3.38-8.47-26.87,16.83-38.37,38.53-28.53,10.85,4.92,11.57,15.94,19,23.5ZM165.5,621c2.47.73,12.44,0,16,0,1.85,0,11.96,4.49,14,6,10.65,12.93,26.84,25.24,37.01,37.99,2.88,3.62,5.24,6.87,2.54,11.57-3.87,6.06-24.33,17.65-26.55,22.47s9.6,12.28,13.47,10.49l39.06-37.02c0-1.67-19.97-21.1-23.02-24.01-12.72-12.17-28.46-24.05-40.56-36.44-1.4-1.44-3.39-3.4-3.38-5.54.01-11.34,57.93-60.63,57.93-65v-18l-3.01-1.02c-20.37,20.06-41.01,39.68-59.38,61.62-4.18,5-7.62,11.15-11.58,16.14-2.65,3.34-8.66,7.77-11.03,11.25-1.2,1.77-4.63,8.58-1.49,9.51ZM773.67,522.16c-3.43,1.15-2.3,7,.34,8.34,2.83,1.43,7.61-.02,7.99,6.07s-8.55,10.69-9.78,16.14c-.71,3.14-1.28,10.92,3.29,10.92,8.76,0,28.72-38.23,7.93-41.56-1.93-.31-8.16-.44-9.77.1ZM426.99,552c-.72-2.09,3.25-10.45.49-10.99-4.37-.85-8.15,10.09-.49,10.99ZM594.01,541.01c-.56,2.47.94,15.77,3.48,15.95,2.14-1,6.85-4.78,6.36-7.31-.19-.97-8.86-9.74-9.84-8.64ZM559.87,672.86c3.61-20.98,25.51-32,45.53-29.76,21.34,2.39,27.92,25.58,50.36,28.64,50.01,6.81,92.58-43.48,69.61-90.61-28.3-58.08-112.04-22.52-95.83,33.83,13.56,47.14,84.58,26.74,71.75-15.75-8.23-27.28-51.65-22.86-43.07,8.07,1.84,6.64,11.23,5.94,13.32,1.72,1.67-3.39-7.49-13.52,6.06-14.93,11.87-1.23,13.78,10.8,10.89,19.93-8.22,25.94-44.9,17.28-47.5-6.49-4.43-40.57,50.19-60.75,71.52-23.52,22.4,39.09-12.21,78.22-54.01,74.01-20.54-2.07-30.72-25.86-53.03-27.97-21.73-2.05-41.55,5.93-53.71,24.26-1.81,2.73-8.48,14.54-7.7,17.1,1.08,3.53,12.84,2.18,15.79,1.49ZM250.99,571l-3.54.95c-6.75,7.3-15.27,12.76-22.46,19.54-2.22,2.09-9.27,8.11-9.02,10.94.5,5.66,27.05,27.33,32.56,32.55,2.97,2.81,14.21,16.55,16.95,16.03,1.35-.25,1.42-1.73,1.09-3.05-.62-2.48-3.81-7.05-5.03-9.99-1.81-4.35-6.41-19.69-8.08-21.92-2.31-3.07-16.08-5.32-16.5-10.6-.48-5.9,11.97-10.36,14.13-15.88,1.96-5,1.09-13.42-.08-18.57ZM875,588.5c.73-4.4-.53-10.37,0-15l-2.01-1.02c-14.98,35.97-55.61,17.83-83.98,29.03-28.23,11.14-37.28,45-17.52,68.5,24.31,28.9,78.63,11.49,67.81-28.81-5.46-20.36-39.52-24.49-46.99-3.39-2.96,8.35,2.02,17.75,11.2,17.3,9.78-.49-4.47-14.25,7.2-16.88,21.75-4.9,21.85,26.64,2.51,32.5-28.87,8.74-51.77-24.04-32.2-48.2,19.44-24,61.86-4.22,86-23,2.83-2.2,7.39-7.51,7.98-11.02ZM797.76,584.76c6.26-20.4-24.47-7.98-26.54.95-3.05,13.14,7.88,4.05,13.25,2.25,4.43-1.49,8.97-1.62,13.3-3.2ZM869.99,616.01c-3.62,1.32-19.05,4.8-19.86,7.71s2.58,7,3.63,10.03c1.77,5.12,2.43,11.06,5.75,15.25,1.53.7,3.18-4.16,3.67-5.32,1.53-3.62,8.7-25.68,6.81-27.67ZM385.5,673h15c9.79-13.6,22.62-24.77,33.76-37.28l.73-2.25c-1.95-4.92-5.88-6.65-11.04-5.02-2.19.69-17.45,17.31-20.46,20.53-6.58,7.06-12.82,14.54-19.48,21.53l1.5,2.49ZM479.25,633.26l-14.1,36.49c-.62,4.32,5.81,4.8,9.14,4.04,7.02-1.59,9.62-22.65,16.82-29.19,4.66-4.23,10.24-3.78,14.62-6.38,6.48-3.84-.29-7.1-5.28-7.26-3.72-.11-14.19.6-17.89,1.13-1.09.15-2.52.4-3.31,1.16ZM546,632h-16.5c-5.23,0-12.65,28.97-17.48,32.57-2.97,1.63-5.41-5.28-7.44-6.64-7.15-4.76-11.77,8.6-10.47,13.96,5.72,1.98,26.26,3.7,30.41.12,1.43-1.24,6.1-15.46,7.96-19.04,2.07-3.97,4.86-7.87,7.55-11.45,2.39-3.17,6.9-4.78,5.97-9.53ZM454.51,633.25c-1.88.57-3.22,1.85-4.51,3.26-4.54,4.96-20.85,25.14-23.66,30.33-4.54,8.38,8.11,7.04,14.1,6.1,6.84-1.07,4.96-7.76,7.07-12.93,3.14-7.74,18.26-19.05,7.01-26.76ZM199.71,669.7c-10.28,8.46-7.32-15.86-7.83-20.08-1.83-15.01-22.23-10.22-32.59-15.46-4.71-.29.75,10.6,1.99,13.06.97,1.93,4,7.57,5.69,8.32,3.65-.61,4.79-5.1,9.9-3.41,1.74,4.29,2.42,8.98,3.05,13.54.26,1.85-.87,3.49-.49,5.37.41,2.04,11.27,16.9,12.99,18.04,1.87,1.24,3.48,1.39,5.56.42,1.09-.51,16.55-16.05,16.87-17.21.87-3.14-3.46-9.07-6.4-9.33-4.33-.39-6.73,5.1-8.73,6.75ZM745.88,656.13c-7.67-.41-8.52,9.37-6.65,15.14,5.51,17.05,31.41,38.95,49.28,40.72,8.88.88,24.42-.69,26.49-10.98-9.25-1.89-17.84-.16-27.2-2.31-20.91-4.79-35.56-22.89-41.92-42.57ZM580.31,664.31c-1.15,1.26-2.79,5.38-2.23,7.05,1.47,4.45,16.29,1.7,20.4,1.67,3.45-.02,19.29,2.23,20.48-1.63-2.18-14.97-30.65-15.88-38.65-7.1ZM711.07,679.08c-.42,1.62.34,2.93,1.08,4.28,3.24,5.88,11.06,16.03,15.46,21.54,10.28,12.91,28.81,31.53,46.38,20.6-.03-1.69-13.4-7.54-15.9-9.08-8.4-5.17-16.67-12.6-22.31-20.69-2.96-4.25-11.25-23.47-16.12-22.63l-8.58,5.97ZM300.64,678.11c-2.5.83-1.76,8.07-1.68,10.44.17,4.93,1.66,10.99,2.03,15.97.39,5.23.02,29.76,4.67,31.33l11.7.02c2.4-.79,1.8-6.17,1.68-8.41-.32-6-1.73-12.91-2.08-18.91s1.24-18.21-.15-22.85c-.77-2.55-13.47-8.48-16.17-7.58ZM282.76,732.76c3.09-3.08.27-14.13.2-18.22-.15-8.07.73-17.16.02-25.02-.22-2.48-.98-9.67-4.31-9.37l-41.72,39.37c0,2.42,11.44,7.02,13.38,6.38,2.74-2.89,14.62-15.9,18.07-14.85,4.33,4.03,1.07,17.54,3.09,20.97,1.48,2.51,9.34,2.68,11.27.75ZM706.69,692.32c-1.66-1.38-7.17-3.11-9.34-3.26-20.9-1.42-39.18,26.74-37.36,45.94l12.57-.94c.82-7.14,1.69-15.01,6-21,2.5-3.48,13.07-11.01,17.16-11.84,3.69-.75,12.07.69,14.3-.7s-2.1-7.17-3.34-8.21ZM335.5,692c-3.41,0-2.89,17.34-2.56,20.56.25,2.45.17,4.08,2.68,5.39,3.31.54,17.77-19.67,17.44-23.44-.08-.88-.94-2.51-1.56-2.51h-16ZM344.36,731.33c-.53.73-1.03,1.4-1.21,2.32l1.32,2.21c4.54-2.1,10.41,0,15.01-.88s15.16-15.7,17.94-20.06c2.3-3.62,11.58-18.55,9.15-21.99-3.79-1.58-11.93-1.86-15.1,1.04-1.77,1.62-7.18,13.88-10.06,17.94-4.83,6.83-12.51,13.15-17.06,19.41ZM432,693.01c-6.44-1.77-19.86-2.14-24.69,3.29-2.27,2.55-8.13,15.18-10.89,19.61-2.56,4.1-9.49,11.93-10.92,15.11-2.81,6.27,9.43,4.58,12.79,3.76,8.01-1.95,5.86-18.92,14.17-21.79l13.8,20.74,18.74,2.25c.11-1.41.11-2.65-.52-3.97-1.26-2.64-11.7-11.91-14.45-15.55-8.36-11.04-1.7-12.75,1.98-23.46ZM489.76,704.22c1.9,6.66,4.56,30.18,12.76,31.76,2.66.51,10.69.65,10.32-3.29-2.45-4.61-4.31-9.52-5.38-14.65-1.83-8.81.79-24.84-10.95-25.5-9.04-.5-26.07-.39-35.02.45-1.57.15-2.97.75-4.49,1.02-.18,4.45,3.5,4.14,6.03,6.46,4.56,4.17,7.97,9.3,12.47,13.51,4.84-3.22,7.4-12.86,14.26-9.77ZM602.72,692.21c-8.74,1.92-1.18,11.52-.69,18.25.23,3.11.08,6.51-.48,9.59-.65,3.52-5.56,11.52-5.58,12.47-.06,3.72,12.22,3.69,13.3.24,2.05-8.51.9-18.46,3.19-26.81.76-2.77,5.7-10.66,5.55-11.44-.33-1.61-12.92-2.83-15.28-2.31ZM537,693c-7.9.86-13.95-3.67-15,6.5-1.43,13.81,6.05,34.41,21.61,36.38,7.19.91,22.42.75,29.07-1.7,17.11-6.3,18.6-38.81-2.18-41.19-2.47-.28-8.69-.4-10.98.03-6.04,1.13-11.49,16.92-3.07,16.03,3-.32,11.73-9.76,15.78.2s-9.65,17.62-18.74,16.75c-17.36-1.66-19.71-18.73-16.5-33ZM642.7,693.21c-1.17.35-7.06,6.39-8.22,7.78-6.46,7.8-16.13,27.56-3.18,33.2,4.13,1.8,13.45,3.53,13.79-2.68s-5.75-4.4-6.92-8.21c-2.72-8.92,16.02-17.9,17.7-26.98.32-3.61-10.64-3.86-13.18-3.11ZM479.91,734.91c2.67-3.93-10.03-12.44-12.43-14.89-3.37-3.44-19.59-23.24-24.39-19.93-2.78,5.36,1.59,11.2,4.93,15.39,2.58,3.24,16.27,17.68,19.08,18.92,4.05,1.78,8.69,2.29,12.8.52ZM734.86,733.87c.57-.94.23-2.88-.36-3.87-.33-.55-8.26-7.52-9.48-8.51-7.18-5.8-11.35-8.94-21.28-7.25s-16.7,11.26-13.58,20.61c13.32,3.9,8.9-4.77,12.88-8.32,9.87-8.82,18.9,10.64,27.21,9.3.5-.08,4.49-1.74,4.62-1.96Z"/>
  <path class="cls-1" d="M476.5,587c-5.15-.88-5.72-4.98-5.51-9.47,1.06-22.96,10.69-53.01,13.88-77.16.61-4.6,2.82-18.34,2.11-21.85-.47-2.33-11.96-10.6-14.95-14.05-44.1-50.84,24.9-118.27,74.98-75.98,29.66,25.05,21.76,69.32-10.03,88.22.98,16.88,3.6,33.87,6.18,50.62,2.44,15.81,8.18,35.87,8.82,51.18.08,1.95.2,8.49-2.49,8.49h-73Z"/>
  <path class="cls-1" d="M742.99,560.99c-1.08,1.21-7.58-5.98-8.41-7.08-7.25-9.65-5.77-15.94,3.92-22.9,3.13-2.25,4.97-3.42,5.54,1.44,1,8.65-2.49,19.45-1.05,28.55Z"/>
  <path class="cls-1" d="M743,447.5l-2.48,1.49c-6.12-5.3-16.81-20.15-5.88-25.86,4.95-2.58,8.36,2.87,8.36,7.36v17Z"/>
  <path class="cls-1" d="M327.69,341.12c2.73-.75,3.89,2.18,4.24,4.44.64,4.1.81,23.78-3.6,25.27-1.39.47-8.28.47-9.67,0-3.86-1.3-3.06-14.2-2.01-17.68.94-3.1,8.15-11.24,11.03-12.04Z"/>
</svg>