<?xml version="1.0" encoding="UTF-8"?>
<svg id="Camada_2" data-name="Camada 2" xmlns="http://www.w3.org/2000/svg" viewBox="0 0 1056.18 1062.29">
  <defs>
    <style>
      .cls-1 {
        opacity: .1;
      }

      .cls-2 {
        fill: #413253;
      }
    </style>
  </defs>
  <g id="Camada_1-2" data-name="Camada 1">
    <g class="cls-1">
      <path class="cls-2" d="M569.71,1.37c1.3-.07,6.64-3.04,7.84-.01-43.43,4.99-88.19,30.57-112.19,67.26-1.18,1.81-2.99,3.71-2.89,5.99C493.64,33.27,542.28,4.03,594.78,1.33c34.3-1.76,70.15,1.35,104.61.11,3.6,1.86,8.06,2.38,11.67,4.02,1.23.56,1.89-.5,1.47,2.18l-32.43,14.13c6.77,2.32,15.83,10.35,22.62,10.95,8.41.75,22.16-4.25,31.25-4.14,1.45.02,12.25,2.11,13.1,2.59,2.08,1.18-.23,2.28-1.37,2.85-8.54,4.25-19.39,5.39-27.52,9.1-4.06,1.86,1.01,2.77,3.07,4.45,2.67,2.18,6.94,6.77,9.88,7.92,6.96,2.71,23.21,2.17,31.87,3.71,3.79.67,7.48,2.17,11.27,2.87,2.37,3.15-13.66,5.63-15.47,5.96-4.6.85-9.64,1.41-14.34,1.35l-.52,2.08c4.98,1.83,6.65,7.9,11.81,10.7,5.58,3.03,15.73,4.66,22.2,7.09,4.17,1.57,10.79,2.98,12.02,7.33-1.69,1.7-20.01,1.63-23.56,2.1-1.45.19-1.81-.58-1.54,1.55,7.66,14.76,25.64,16.14,38.17,25.66,4.38.1-12.86-45.32-14.26-48.51-13.45-30.53-33.56-55.27-59.49-76.01h128.7l-11.18,4c-22.85,9.27-38.54,28.89-51.08,49.38,6.53,12.28,23.23,15.31,36.1,12.55-.29,1.71-2.01,1.92-3.35,2.4-11.86,4.19-24.06-1.15-33.26-8.68-.81.85,4.27,6.81,5.19,7.87,8.27,9.5,21.36,16.76,33.51,19.85l26.15,3.65c-30.33,7.86-51.56,32.86-60.97,61.97-4.61,14.26-6.5,29.85-11.17,44.28-3.77,11.63-9.66,22.43-13.64,33.96l9.95-8.36c29.78-24.9,21.91-66.04,45.47-93.68,30.4-35.66,79.43-33.53,113.03-3.64v-19.88c-20.57-14.58-47.05-23.38-72.19-16.74-.54-2.79.58-1.83,2.09-2.56,16.45-8.05,25.34-21.9,14.12-39.29-4.2,12.21-14.48,23.7-28.35,23.95-33.03.59-33.44-46.47,3.56-53.98,36.3-7.37,66.41,19.57,62.97,56.7-.34,3.66-3.93,13.14-2.64,15.2,1.09,1.74,17.91,8.74,20.45,12.55v-49.7c0-16-25.35-42.66-40.82-47.07l-17.77-4.73h171.59c-.29,9.25-2.19,17.93-.01,27.2l-5.23-7.86-14.65,27.74c-4.91-4.69-10.11-9.06-15.18-13.57-2.4-2.13-3.99-7.17-6.85-4.57-2.35,2.13-5.1,7.21-8.28,9.25l29.81,30.86,17.25-18.31,3.14-1.56-.54,8.35-18.96,19.82-33.88-35.5-35.06,35.55-16.93-18.52-2.39-1.34v17.26c0,4.48,14.19,18.07,18.32,21.18l35.59-35.36,34.64,35.55,18.7-18.75.02,9.39-17.78,18.84-36.64-36.63-34.03,36.65-17.76-17.79c-1.01,8.14.88,16.76,1.08,24.54.24,9.51-1.43,23.76.01,32.42.72,4.3,7.35,11.22,9.4,16.76,6.54,17.64,4.97,35.07-2.28,52.2-2.06,4.87-6.56,8.71-6.13,14.27l37.67,4.72c-7.68-8.25-15.02-14.62-25.79-18.2-1.63-.54-2.99.91-2.45-2.2,9.99.12,20.81-.04,30.57-2.4,1.05-.25,3.15-.3,2.9-1.78-6.48-2.47-12.43-6.26-18.84-8.9-2.98-1.22-6.18-1.49-8.99-2.52-1.45-.53-1.8.37-1.46-2.19,4.97.21,9.9-1.26,14.64-2.62,5.28-1.52,12.69-3.43,16.74-6.79-5.54-.83-10.12-3.49-15.68-4.73-5.35-1.19-9.15-.96-14.16-1.55-1.47-.17-3.07-.66-1.55-2.09,11.11-1.96,20.45-9.21,29.3-15.69-11.15-.5-22.43-2.37-33.48-.02l15.15-9.43,12.06-12.52-34.52,4.7c11.63-5.9,18.08-17.53,26.66-26.7,7.07-7.55,14.81-14.57,22.13-21.88l38.71,38.56,15.02-13.52v184.14c-7.12-2.78-12.71-8.38-20.92-8.35-2.24,1.77,20.3,18.48,20.68,20.52l.24,37.02-13.97-10.39-12.1,12.1c-.19,1.09,12.97,14.58,14.26,14.92,3.61.94,10.03-10.27,11.82-8.25-.39,3.41.61,7.73-.02,10.96-.44,2.31-3.1,3.89-3.1,4.21,0,.48,2.62,1.9,2.97,3.34.49,2.02-1.95,8.34.15,11.82l-11.93-8.44-13.24,14.22,15.39,14.03,7.69-6.73,2.07,1.05c-1.97,2.63.06,5.47.09,8.34.02,1.73-1.17,3.6-1.14,5.33.05,3.28,1.69,6.46,1.08,9.89-21.21-14.08-42.57-29.74-61.74-46.55-15.56-13.65-29-29.16-43.93-43.44v19.88c2.2-1.35,9.58-4,9.43.51-6.69,2.24-10.68,7.93-9.42,15.18,2.6-1.81,4.79-4.01,7.8-5.27,1.77-.74,7.91-3.06,8.92-.47,1.12,2.84-.31,2.06-1.5,2.7-6.19,3.36-12.6,8.26-14.18,15.59l18.82-9.41-10.43,12.05c-5.38,6.54-7.62,15.13-7.34,23.51,1.39,1.58,34.11-15.03,39.75-13.6v16.22l3.15,21.45c10.17-6.02,22.95-5.89,31.37,3.14-1.54-9.88-7.61-15.03-17.77-13.61.26-1.5,4.94-2.81,6.03-2.94,3.94-.46,7.19,1.75,10.18,4l15.17,25.1c-.16-5.76.04-11.58,1.09-17.25.32-1.71-.69-1.8,2.05-1.58.52,10.22,1.81,20.03,6.3,29.29l1.5-8.41,4.76-10.41v65.92c-4.79-4.85-7.97-11.2-12.53-16.24-28.5-31.52-83.36-44.13-117.76-15.16-3.19.28-.5-1.13-.5-1.55v-50.75c-13.88-8.51-29.03-12.77-44.98-6.79-29.71,11.14-33.27,53.59-5.26,69.06,15.24,8.42,27.53,6.09,42.92-.53-10.3,12.26-35.07,10.32-47.43,1.91-14.2-9.67-14.82-27.93-28.61-35.22-7.69-4.07-16.06-4.13-24.4-2.27,2.07,15.49,6.34,32.08,20.2,41,12.43,8,35.8,18.54,50.44,19.66,5.52.42,18.93-.08,23.79-2.34,2.64-1.22,5.56-9.75,8.62-13.35,6.72-7.91,18.39-13.8,28.24-16.75,38.17-11.42,78.86,8.44,98.39,41.85,7.7,13.17,7.44,15.91,7.78,30.93.71,31.42,1.17,63.54,1.14,95.13-.02,25.02,2.78,48.56-18.86,65.97-4.95,3.98-17.41,9.93-23.55,9.93h-54.93c.23,2.64,5.52,7.9,7.87,8.35l63.84-.99,12.7-2.99,12.89-8.55c.06,8.62-1.08,11.19-8.71,14.83-13.55,6.46-35.41,3.93-50.36,3.95-8.56.01-17.13.09-25.67.06-.77.69,3.68,8.63,5.74,8.37,16.4.19,32.82-.25,49.23-.05,2.22.03,4.26,1.04,6.25,1.08,8.06.16,15.82.57,23.52-2.08-2.09,6.89-.31,12.98,0,19.87-.68.77-15.14-7.3-17.49-8.13-2.56-.9-11.22-3.37-13.37-3.37h-45.51l7.83,12.46c23.25-11,43.84,10.96,67.02,5.59l1.37,1.45-.28,42.25c-12.05,3.31-34.66,10.21-41.48,21.4-1.31,2.15.44,5.58-4.12,7.86,12.76-5.57,26.93-14.33,41.38-14.67,6.63-.16,3.16,3.39,4.21,8.43-4.94,1.39-9.99,1.55-15.02,2.81-12.34,3.1-26.09,11.44-34.25,21.21-.88,1.05-10.95,15.79-7.32,14.65,1.17-.99,2.6-1.53,3.74-2.56,12.19-11,26.68-19.83,43.63-22.25,1.64-.23,8.62-1.29,9.16-.34l.49,8.41c-18.52-.15-36.68,9.71-46.05,25.63l3.67-2.59.52,5.18,3,.98c5.49-8.65,19.31-14.42,29.22-16.33,8.05-1.55,10.44-3.28,8.64,6.48-8.73,3.12-19.58,4.32-25.17,12.56l4.18,3.16-3.14,1.56,1.57,4.18c1.96-3.63,21.98-10.99,23.54-9.41l-1.31,8.11c-5.86,1.21-9.93,4.34-14.36,8.1,2.75,2.4,6.54,3.45,6.27,7.85l7.31-6.81,2.06,1.04.02,51.8-9.61-20.19c-58.29-87.43-181.24-64.61-229.12,21.59-14.49,26.09-22.67,59.5-14.82,88.64l11.87-.04c-1.08-16.82-2.14-34.87,1.35-51.49,1.22-5.82,3.03-13.07,10.57-12.33,10.51,1.03,4.51,14.07,3.87,19.46-1.68,14.31-1.67,28.4.91,42.6l12.57,2.8c1.16-1.62-2.97-21.53-3.17-25.59-1.1-22.38,6.47-48.41,19.07-66.82,12.97-18.95,32.31-36.93,54.21-44.67l-2.63-3.17-3.12,1.95-3.64-6.09,2.62,2.08c3.11.54.21-1.87.5-2.08,1.94-1.42,2.25,3.88,5.24,1.02l-5.22-3.11c2.95-2.76,11.01,2.5,11.5,2.08,2.22-1.95-3.18-2.12-2.08-3.12,2.13-1.94,12.64-2.97,16.17-3.2,27.1-1.71,58.17,4.72,79.53,22.05,33.88,27.48,41.63,78.09,8.92,109.81,5.14,1.76,8.32,7.06,10.98,11.52l10.81-11.16,12.72-23.36c-2.09,13.67,1.66,28.87.06,42.43-.18,1.52-.13,2.69-1.62,3.61h-30.87c-7.38-20.96-36.99-25.08-51.69-9.32-1.82,1.95-4.68,8.5-6.55,9.14-13.15-.43-24.6,3.01-36.25-4.21-29.74-18.45-37.58-68.23-8.55-90.8,20.73-16.12,52.36-8.33,59.63,17.74,6.05,21.69-10.18,43.62-32.97,35.59-1.53,1.83,9.18,10.22,11.18,11.3,14.07,7.59,18.33-1.29,31.3-2.82,10.12-1.19,15.72,4.11,23.42-3.78,21.63-22.17,15.23-61.85-5.33-82.54-8.62-8.68-31.15-21.56-43.31-21.56h-21.45c.47,6.6,6.62,15.81.52,20.91-1.35.02-4.1-16.69-8.49-17.54l-7.73,1.88c-.98,1.35,9.67,17.06,2.6,19.86l-4.11-9.46-3.92-6.03c-1.82-1.07-10.81,1.85-10.22,4.45.44,1.97,15.26,16.04,3.11,17.33.31-4.69-6.62-14.22-11.47-12.05-.55.25-7.64,5.38-7.38,5.76,5.93,1.29,16.08,12.62,8.38,16.75-3.71-11.32-14.3-12.68-20.93-2.61,7.03,2.38,16.39,6.11,12.54,15.16-9.33-9.58-17.3-10.74-23,2.62,6.42-.85,20.6,1.92,16.72,10.98-11.47-6.12-21.04-4.51-23,9.42,6.66-3,13.06-2.88,19.73.15l.14,6.13c-10.68-3.83-22.27.92-20.91,13.6,5.54-3.13,23.11-9.25,20.92,2.09-11.77-.98-20.47,5.72-20.92,17.79,6.82-5.36,15.05-8.55,23.89-7.17l1.21,5.07c-10.67-.38-19.96,9.26-19.87,19.88,6.47-5.94,20.76-15.77,27.17-5.75-3.7,2.45-7.85,3.43-11.41,6.36-1.86,1.53-3.43,4.64-4.27,5.15-3.97,2.42-38.94-.57-46.6-.56-12.54.02-25.12,1.08-37.58,1.13-19.25.07-46.8,2.14-64.97.01-1.52-.18-2.69-.13-3.61-1.62v-15.69c0-2.32,4.02-9.91,5.73-12.06,11.14-14.04,33.45-10.3,47.63-3.12l2.8-25.7c-38.58-24.4-81.9-7.48-79.17,41.91.14,2.51,3.58,16.23.51,16.23h-15.69l-1.37-1.76c-3.65-26.17-2.37-53.3,19.19-71.45,23.51-19.78,55.84-16.31,82.09-4.22l8.39-20.91c-39.21-15.98-89.2-12.42-115.53,24.14-15.95,22.14-16.49,48.08-12.12,74.2h-37.14c-4.33,0-15.26-4.29-16.21-9.42,12.54,8.62,37.6,6.57,41.83-10.46-12.81,10.42-33.75,7.15-41.84-7.31,3.1.73,4.96,2.85,8.31,3.71,12.29,3.16,32.41,1.28,34.58-14.18-9.17,9.5-23.44,7.38-33.82.88-1.13-.71-9.33-6.92-8.01-8.2,4.05,1.51,6.81,3.85,11.27,4.94,11.59,2.83,29.06-.65,31.61-14.36-16.86,16.12-38.55,4.46-46.03-14.64,13.79,5.57,40.87,12.18,48.12-5.24-9.71,6.04-22,4.79-32.09.19-1.9-.86-16.32-10.16-13.92-12.75,9.77,8.74,24.67,10.29,36.85,5.99,4.47-1.58,9.38-3.93,10.21-9.13-17.15,11.01-42.13.3-48.11-18.83,16.58,7.53,34.23,2.04,51.26,4.17-6.95-12.6-23.57-8.05-36.04-11.56-5.11-1.44-10.43-3.97-14.18-7.79,4.05-.1,7.82,2.19,12.04,2.61,11.77,1.18,24.35-3.3,36.09,0-4.24-13.64-20.59-8.19-31.64-9.68-5.08-.68-11.58-3.13-15.44-6.53,4.41.17,6.95,2.1,11.93,1.49,12.48-1.52,18.55-15.61,15.61-26.93-3.65-14.05-23.24-16.29-34.92-12.11l-.93,174.69c-1.53,1.06-33.05.86-37.2.45-11.02-1.08-18.09-5.63-30.31.05l-91.6-.05c6.88-37.47,2.24-75.49-17.45-108.3,16.12-19.58,20.15-47.1,10.65-70.63-1.29,0-2.54,15.19-3.1,17.84-3.27,15.54-14.02,31.83-25.6,42.41,20.16,36.35,26.93,77.68,18.76,118.68h-17.79c7.16-28.72,6.83-59.43-1.57-87.89-2.54-8.61-6.97-16.51-9.42-25.13l-7.92,4.87c2.42,8.63,5.71,16.91,7.74,25.67,6.07,26.3,5.76,56.13-.47,82.33l-12.42.14c4.58-34.76,6.04-71.29-6.29-104.63-17.23,6.52-34.55,3.29-52.26,1.09-7.79,33.84-6.28,69.25-2.13,103.54l-12.08-1c-7.73-35.15-7-73.01,4.62-107.19l-7.72-4.79c-16.82,34.45-17.52,76.1-8.89,112.98h-15.17c-3.39-7.99-5.17-18.96-5.74-27.74-2.02-30.81,4.42-63.67,18.72-90.87-16.66-16.45-27.3-37.43-27.1-61.35-3.07-.52-1.69.74-2.21,2.43-4.56,14.79-4.57,35.02.98,49.54,2.18,5.68,6.15,13.73,11.26,17.05l.31,1.4c-19.07,32.7-21.18,73-13.47,109.53l-13.67-.45-.98-10.01h-32.44l-1.05-74.29,44.28-3.33c3.42-.99,8.45-16.21,11.18-19.67l-70.1-1.06v108.82h-9.42c-.35-38.88.46-77.81.05-116.71-.13-12.01-3.78-30.64.98-41.83,5.86-13.77,37.22-29.25,51.03-34.76l29.56-9.68h-22.5c-6.34,0-24.16,8.17-30.14,11.71l-28.98,22.8c3.82-8.5,10.93-16.17,17.77-22.5,23.94-22.14,60.48-36.95,93.14-29.81-2.9-2.85-9.55-4.76-13.59-5.75-40.53-9.96-69.96,14.34-96.26,41.34,3.11-7.2,9.3-15.71,14.61-21.48,25.98-28.18,77.56-47.66,113.98-31.27,1.74.78,3.24.96,1.15-1.15-3.21-3.25-12.35-7.7-16.78-9.38-37.07-14.15-71.56,4.38-97.82,29.84-2.75,2.67-11.99,14.79-13.61,15.65-.46.25-1.78.21-1.55-.51,13.49-24.8,36.91-46.82,63.56-56.77,25.44-9.49,56.8-12.49,81.34.79,1.45-.65-1.36-2.02-1.84-2.35-49.09-34.15-113.4-1.41-142.55,43.14-1.37-.67-.09-2.86.31-3.87,4.91-12.44,15.45-21.72,23.24-32.21-1.45-.48-3.72,1.57-4.96,2.37-6.02,3.86-14.51,10.15-17.04,16.98l-2.05-1.56c24.21-43.88,82.43-67.78,129.72-47.63-30.41-21.82-67.71-22.69-98.26-.42-10.8,7.87-23.87,20.81-29.4,32.86l-5.83-11.41c-14.91-17.75-38.22-28.24-61.62-26.23-2.99.26-16.07,2.77-17.86,4.11-7.84,5.88-4.17,35.04-1.51,44-8.19-1.14-13.29,6.65-20.93,7.32l9.42-10.44c-5.74,1.06-9.48,7.91-15.69,7.31-.91-4.87,3.76-5.93,5.48-8.7.9-1.44,1.51-2.02-.76-1.75-2.24,1.63-14.49,11.9-16.23,10.44l7.32-10.98c-2-.59-7.5,2.61-9.45,4.15-2.85,2.25-12.22,13.72-10.22,17.1l4.36,2.18,6.94-8.25-2.97,11.8,2.48,2.84,7.82-11.5c-.32,6.09-7.68,14.2-1.56,18.81,1.51,0,5.02-14.71,8.88-15.67-1.32,6.3-5.33,11.67-5.31,18.31.02,6.69,5.38,12.5,6.94,19.3,2.92,12.67.99,25.22-1.61,37.72l16.16-10.52c9.06,6.71,19.87,9.88,30.91,11.58.27,1.79-2.49,1.12-3.64,1.02-9.5-.76-13.16-1.74-22.74,1.37-1.1.36-3.16.26-2.91,1.77,35.94,1.78,65.89,26.22,71.02,62.39.6,4.21-.7,8.61.9,12.73l8.65,9.64v-24.59c0-1.97-2.18-9.24-2.87-11.78-6.01-22.15-23.99-46.75-47.36-51.53.2-1.57,1.47-1.69,2.71-1.99,14.83-3.55,25.57-7.33,32-22.4,3.24-7.59,5.46-12.39-4.36-15.36-3.93,23.45-33.11,35.32-52.35,20.43-1.75-1.36-8.29-7.62-6.25-9.96,3.86,1.18,6.21,4.46,10.15,6.05,2.92,1.18,11.58,3.28,14.47,3.18,1.17-.04,13.37-3.69,13.93-4.15.15-.12-.55-1.42-.22-1.94.94-1.52,2.87-2.1,2.46-4.2-.17-.18-3.89,2.3-4.21,2.68-1.22,1.39,1.4,2.77-2.75,3.19-10.35,1.07-20.12.77-26.94-8.06-11.18-14.47-2.41-30.83,12.86-36.68l-.93-1.93c6.3.84,12.29,2.84,18.06,5.48,1.4.64,5.01,5.26,4.96,1.32-4.04-4.41-8.65-4.66-13.62-6.26-2.57-.83-2.52-2.85-6.47-2.45-13.43,1.37-21.85,10.15-30.12,19.69l4.19-12.02-3.15,1.55c-.75-4.38,3.88-12.73,8.36-12.56l-3.14-6.25c16.4-11.62,34.35-13.09,52.87-5.28,5.23,2.21,12.24,8.42,17.76,8.42,5.87,0,15.74-6.34,10.42-12.54-6.2-7.23-39.06-9.91-49.14-11.54-1.56-.25-3.23-.06-3.66-2.09,13.24.22,28.2.13,41.02,3.44,21.8,5.61,25.71,20.77,1.87,26.38,7.35,10.31,13.45,22.11,13.61,35.04l-8.35-1.04-1.05,3.13-2.1-3.13,2.15,7.79-2.15,1.1,2.07,2.1c-.68,1.71-3.05.46-3.64,1.49-1.74,3.02-2.94,8.83-5.3,12.57-3.06,4.85-6.72,6.78-9.95,10.99l3.73,15.21c.9-.01,7.78-8.55,8.71-10.11,1.75-2.95,3.16-6.84,4.01-8.98.84-2.12-.79-4.56,2.45-3.91-.01,10.98-1.75,21.53-3.94,32.2-.25,1.21.64,2.26.65,2.91,0,.36-3.94.83-1.93,2.55,1.91,1.65,8.05-7.76,9.23-9.07l5.41-10.8-1.04,91.02c-1.57,1.76-11.83-12.78-14.14-13.57l-19.33-12.57c4.7,6.28,7.01,14.9,10.63,21.28,6.93,12.2,22.85,22.2,22.85,39.92v19.36h-58.59v-26.68c0-3.11-2.59-12.71-3.65-16.23-16.36-54.41-79.92-79.48-120.83-33.96l-13.63,23.51v-40.28c26.95-35.96,76.29-39.72,111.62-13.29l13.92-8.69c-34.86-30.63-91.55-34.87-125.54-.52v-82.14c14.66-15.27,35.96-18.16,54.09-7,16.93,10.42,20.27,31.21,16.01,49.38l12.56,2.09c5.58-18.97,3.8-38.6-9.44-53.86-15.79-18.19-40.16-23.11-62.7-15.68-3.69,1.22-6.9,3.33-10.5,4.66l.16-13.43,15.52-6.98L.08,805.6c7.78-10.17,21.76-13.73,23.46-27.86l18.13,13.27-.29,11.79-18.35,18.36c2.65.75,9.28.15,11.79-.76,1.7-.62,9.75-13.56,11.82-16.46,3.35-4.7,3.06-4.73,5.82-9.86,9.6-17.85,35.18-31.52,52.86-16.52l7.69-2.98c-6.16-24.89-36.86-18.25-51.82-5.24-4.33,3.77-7.16,8.42-10.95,12.58l-.06-183.68c.99-28.17,16.58-61.28,45.41-69.68,11.58-3.37,15.73,1.74,26.35,1.24,15.69-.75,30.74-13.36,33.16-29.1l12.3-5.99c-9.47-7.91-22.05-9.6-33.46-13.07,12.98,33.44-40.16,39.13-35.48,4.79,1.65-12.11,15.27-17.49,26.1-14.64l8.36-18.4,2.06.5c-2.76,6.83-5.99,13.9-5.21,21.46,1.43,1.62,14-13.73,17.25-13.61,2.84,2.9-9.56,11.26-7.84,12.56l16.14-3.01,1.65,4.07h-15.17c-1.37,0-8.32,2.2-8.89,4.17,14.91.31,27.16,7.92,39.22,15.71-.39-9.5-6.52-19.92-12.2-27.56-1.21-1.63-8.22-7.8-7.13-9.07,16.87,4.6,32.29,11.61,46.55,21.66l9.45-5.96c.86-1.15-9.44-9.31-11.04-10.97-3.15-3.26-23.21-26.46-22.59-28.85,22.11-31.88,48.16-58.17,90.09-55.4,29.4,1.94,52.91,24.97,68.56,48.11l2.16-.65c2.03-3.62,8.31-15.59,6.29-18.72-13.33-10.53-25.54-25.52-41.95-30.86-.36-4.87,4.04-4.1,6.54-6.24,16.16-13.81,21.03-37.61,10.38-56.18-20.16-35.13-65.91-74.88-93.84-106.01-20.28-22.6-38.65-43.42-28.19-76.35,5.88-18.52,23.21-36.41,43.37-37.7l-9.33,4.78c-25.13,16.52-39.64,43.22-25.7,72.62,6.75,14.24,20.31,23,30.85,34.03,15.93,16.68,32.09,33.68,47.63,50.73,19.31,21.19,42.34,43.98,47.73,73.12l9.28.14c-.24-3.95.34-8.08-.02-12.02-3.43-37.12-59.79-80.76-83.18-109.34-13.84-16.9-18.12-32.13-2.6-50.23-15.21-3.27-18.89-23.23-19.89-36.62-2.93,1.19-1.09,9.84-5.21,9.4,4.39-21.4,27.07-40.21,49.17-30.86,15.39,6.5,22.46,28.19,10.08,40.95-15.14,15.6-42.68,1.62-33.64-19.51.74-1.73,5.14-5.17,2.1-6.26-.93-.34-.51,3.37-2.36,4.19-1.62.72-11.39,1.97-12.79-.01l1.03,5.24-2.09-.53c.08,10.58,3.48,21,12.88,26.88,2.82,1.76,14.09,6.08,16.94,6.08h38.19c.28-23.61,5.11-48.5-15.78-65.31-30.39-24.44-79.92-5.97-97.76,25.53-18.03,31.84-9.64,59.57,12.56,85.83,27.99,33.12,62.51,63.87,89.45,97.84,6.31,7.96,16.94,20.84,16.79,31.31-.18,13.64-12.4,28.22-24.85,32.77-29.49,10.79-53.01-10.56-87.05,10.26-11.6,7.1-28.9,25.08-31.18,38.78-.35,2.1,1.94,14.94.75,16.07h-3.13s-.02-6.28-.02-6.28c-1.06-.45-2.08,2.44-2.08,2.61v17.26c1.8-.52,3.22.66,1.58,2.08-24.32-12.38-64.85-3.14-71.78,26.07-18.31-5-23.17,16.37-19.78,30.44-21.63-1.25-29.5,18.82-14.74,33.85-8.03,10.07-16.4,23.5-19.31,36.22-1.13,4.94-.95,9.44-1.53,14.18-.15,1.23.41,2.08-1.54,1.52-10.01-2.9-20.23-17.67-22.82-27.41-10.95-41.06,24.92-96.66,54.69-122.73,26.09-22.85,63.68-39.04,98.73-33.05l5.9-8.81c.34-2.32-.35-1.22-1.56-1.52-60.97-15.12-127.41,37.78-153.82,88.89-9.83,19.03-11.99,33.91-17.24,53.91-.38,1.45.03,3.27-2.09,3.66v-86.84l11.92,9.37,7.98-11.97c-3.87-.55-19.9-15.4-19.9-17.8v-15.17c2.47-.65,1.77.63,2.39,1.34,4.02,4.56,17.23,19.21,22.45,20.48,2.73.67,10.34-8.01,11.78-10.82-15.7-7.07-26.61-20.78-36.63-34.54v-31.91l9.62,24.39c6.4,11.04,17.33,21.99,28.76,27.74,13.58,6.82,9.27-.46,20.21-6.1,1.26-1.79-12.85-4.86-13.83-5.3-5.38-2.41-15.87-12.35-19.63-17.21-6.76-8.74-10.71-19.04-14.62-29.28-4.29-.64-7.19,1.25-10.52,3.67v-20.93h52.32c-6.59,5.49-11.48,7.4-14.95,15.92-14.57,35.75,38.46,58.32,54.75,26.5,10.73-20.96-4.65-43.08-26.79-45.48-1.52-28.57,22.07-57.99,51.32-59.73l-2.64,13.05c-5.74,23.5,25.15,30.76,25.15,51.31v35.05c2.72-.46,10.34,1.4,11.36-1.72-1.29-16.37,4.45-39.84-5.68-53.67-4.64-6.34-13.49-11.39-16.91-18.66-3.71-7.88-2.29-15-1.32-23.26l6.84,2.06c1.07,8.96-1.13,13.81,4.7,21.46,8.54,11.2,20.9,15.93,20.9,33.51v40.28h10.46v-48.65c0-.76-2.34-5.56-2.09-5.74l7.85,1.01c4.21,15.31,2.12,31.4,2.62,47.11,4.07-2.06,8.3,1.09,12.55,1.04l-10.46-8.35c6.93.38,20.51,5.15,18.79-6.25l-17.74-2.65c4.77-2.7,10.5-3.95,15.19-6.78,1.6-.97,3.99-1.88,3.64-4.21h-18.83l17.78-9.43c.28-1.74-2.56-1.15-3.69-1.07-4.6.3-9.22,1.88-14.09,1.08l14.64-12.04c.16-1.66.24-1.77-1.42-1.44-5.08,1.03-10.49,3.15-15.3,5.11-2.46-3.18,13.86-12.1,13.59-16.74l-18.82,4.17,10.48-13.05,1.02-3.68-19.86,7.32c-1.46-1.51,12.48-15.8,10.45-19.87l-18.82,10.46c-1.15-1.49,7.18-13.8,7.91-16.7.99-3.93-2.14-3.7-4.83-1.66-4.22,3.19-8.37,6.68-12.5,9.99-.14-2.54,2.41-3.52,2.95-6.03.7-3.24.11-9.99,1.22-13.85-1.95-2.26-11.86,12.97-13.59,13.6l1.03-17.79c-3.94,2.53-5.78,8.26-7.33,12.55-3.34.91-1.96-4.92-2.37-7.55-.17-1.08-.28-4.17-1.78-3.95-.58,4.36-3.73,9.82-7.33,12.55,1.14-7.76,3.43-16.27,6.25-23.56.86-2.22,2.16-7.77,4.66-7.82,2.1-.05,14.51,4.57,17.32,5.76,22.2,9.42,43.01,28.95,54.6,50.03,9.3,16.91,12.14,33.88,28.62,46.71,7.88,6.13,26.14,13.2,33.98,4.22-3.95-.77-8.57-1.51-12.33-2.85-29.75-10.67-29.99-36.76-44.78-59.85s-46.42-50.4-74.32-54.4c-7.27-1.04-3.34,2.33-7.36,6.06-27.04-3.83-53.19,3.77-74.11,21.08-7.42,6.14-12.98,14.28-19.94,20.87l.15,2.18,24.46,15.62c-11.47,1.24-22.94,2.22-34.16,5.1-1.44.37-2.91-.67-2.45,1.7,9.36,6.95,19.33,13.09,30.2,17.4l-1.43,5.11H0c1.83-52.56,39.45-100.24,92.05-109.36,56.95-9.88,106.18,26.8,133.43,73.78,1.47-3.23,15.26-12.55,17.78-12.55h15.17c-6-8.67-12.14-17.48-18.87-25.6-14.85-17.95-33.92-37.84-51.23-53.41-2.93-2.63-8.81-5.48-10.93-7.91-3.95-4.52-5.89-15.73-9.28-19.5-6.57-7.29-34.81-18.38-44.84-20.55-37.13-8.04-78.47,4.72-99.05,37.68-3.74,6-.59,3.82-6.95,8.74-5.01,3.88-9.46,8.32-14.15,12.01-1.05.83-1.34,2.02-3.15,1.55,2.86-17.93,7.68-33.38,17.98-48.45,25.86-37.84,74.46-50.61,118.03-40.47l-1.63,3.1-15.62,17.82c17.46-4.21,34.52-10.95,52.69-11.66l4.32-10.31-23.05-8.95c-.38-2.29,7.39-13.07,8.94-16.15,15.37-30.43,15.98-65.14,5.73-97.33h47.08c-7.57,26.77-7.9,55.03-6.79,82.67l16.3-9.05-1.97-22.87c.74-17.57,2.63-34.24,9.35-50.6l12.43.39c-8.89,21.92-11.98,46-9.94,69.58l13.02-2.15c-.69-16.58,1.36-33.01,6.05-48.88,1.19-4.03,5.26-18.36,9.17-19.08,3.5-.65,8.32.46,12.03,0-1.79,4.5-4.29,8.78-6.03,13.32-6.65,17.36-9.1,36.13-8.62,54.69l14.64,2.1c1.18-.85,1.67-20.82,2.21-24.49,2.42-16.47,9.71-33.7,21.35-45.62h19.36c-12.52,15.24-23.4,33.95-22.5,54.42,1.93-7.84,8.26-12.44,14.21-17.21,6.5-5.22,7.01-9.36,12.44-15.78,3.38-4,19.09-19.06,23.07-20.88,2.13-.98,21.82-1.01,24.03,0l54.92,48.64c1.5-3.4,8.02-6.81,6.34-10.44L390.27,1.37h22.5l30.34,26.14,8.87-8.88-17.77-17.26h42.9c-5.7,5.56-13.13,9.71-18.9,15.13-7.89,7.41-18.16,18.54-25.58,26.71-6.48,7.14-12.62,14.7-18.29,22.52,6,1.05,12.22.38,18.29.53,3.96.1,6.98,2.86,11.08-.45,3.68-2.97,10.06-13.08,14.02-17.36,16.74-18.12,35.61-33.93,56.52-47.07,18.28-.73,37.26.98,55.45,0ZM820.3,19.15l-6.1-6.97-4.35-9.76c-.63,8.34.84,15.94,10.45,16.73ZM934.08,3.64c-9.55,1.96-7.27,18.65,3.69,16.38,10-2.08,7.33-18.64-3.69-16.38ZM381.9,46.88v15.17c3.5-2.01,7.5-5.13,10.48-7.83,1.55-1.41,9.29-8.53,8.35-9.94l-38.39-34.44c-1.82-.48-10.8,7.04-10.79,8.77,4.26,3.66,29.67,25.15,30.35,28.26ZM777.41,12.89c2.51,6.27,5.11,14.95,9.9,19.91,1.85,1.91,10.74,8.48,13.14,6.79,1.51-1.16,1.24-2.14.51-3.69-.41-.87-10.97-13-12.54-14.66-1.27-1.34-9.54-9.73-11-8.35ZM192.3,14.16c-7.67-4.35-13.4,7.4-6.04,10.73,7.91,3.58,10.74-8.06,6.04-10.73ZM964.97,25.17c5.78,6.12,16.65-2.19,10.67-9.12s-16.64,2.8-10.67,9.12ZM1004.14,26.15c6.35-4.66.33-16.61-8.64-11.24-7.36,4.41.82,16.97,8.64,11.24ZM1033.49,14.25c-6.27-2.08-11.51,1.56-9.98,8.33,1.92,8.53,15.56,4.91,12.95-4.58-.13-.48-2.74-3.67-2.97-3.75ZM947.96,17.06v31.91l18.75,20.78,2.16.66,29.3-31.91-9.92-9.92-19.88,19.84-20.4-31.37ZM662.31,183.43h97.83c1.07,0,1.63,2.44,1.62,3.61-.6,90.07-112.07,153.08-193.37,128.5l-26.4-10.22c45.02,43.98,120.79,25.78,167.73-5.95,62.85-42.49,83.66-111.26,49.4-180.84-46.45-94.37-183.61-131.49-261.78-53.97-3.03,3.01-5.75,4.48-8.76,7.4-3.02,2.92-4.37,7.57-8.33,9.45l9.94,7.84c51.33-58.42,134.1-66.39,199.23-25.53,36.97,23.2,65.49,63.14,70.2,107.16h-118.24c21.61,32.55,26.65,83.41.03,114.59-17.23,20.18-36.93,19.92-61.35,16.3-1.09-.16-3.81-.88-3.54.93,10.11,4.38,19.56,8.83,30.87,9.41,60.43,3.1,79.86-69.62,60.66-116.11-1.8-4.36-5.73-7.74-5.74-12.57ZM189.93,35.26c-10.65-.49-4.97,17.99,3.6,10.53,4.33-3.77.9-10.32-3.6-10.53ZM326.46,151c0-19.23,6.66-39.26,17.96-54.76,10.52-14.44,23.09-20.42,13.12-41.73-11.36-24.29-46.92-23.67-58.87.17-11.45,22.84,5.11,28.76,13.53,45.18,2.82,5.5,5.12,11.49,5.89,17.67l3.12-1.05c.28,2.27-1.91,3.42-1.97,5.7-.05,1.92,1.43,4.12,1.43,6.31,0,7.85-1.98,15.67-1.53,23.56l7.32-1.04ZM861.84,42.51c-8.66-6.1-18.78,7.67-10.7,14.35,9.11,7.53,20.27-7.61,10.7-14.35ZM640.29,62.1c-8.64-1.93-16.52-6.41-25.45-8.56-17.32-4.16-25.84-2.29-42.51,2.76-4.4,1.33-18.29,5.73-21.36,7.93-3.11,2.23-1.18,7.93-1.65,11.42,13.26-2.11,35.08-14.73,47.6-14.72,12.52,0,30.78,10.15,43.42,12.63l-.04-11.46ZM192.21,58.2c-5.14-4.29-13.99,3.99-6.99,9.6,5.31,4.25,13.19-4.42,6.99-9.6ZM639.05,79.04c-1.5-1.47-17.65-6.83-20.93-7.84-3.83-1.19-18.19-5.72-21.02-5.68-3,.05-13.26,3.71-16.96,4.87-4.94,1.54-26.42,8.47-29.15,10.61-3.15,2.47-1.2,7.75-1.66,11.4l47.69-15.65,43.33,13.55c-.19-2.84.76-9.26-1.28-11.26ZM659.17,65.19v91.55c2.76,2.97,7.77,1.1,11.51,1.57.78-28.98,1.67-58.06.78-87.16l-1.05-2.57-11.24-3.4ZM544.08,67.28c-1.07-1.07-19.51,4.87-20.92,8.36l20.93,1.06v-9.42ZM686.38,77.75v80.57c2.57-.33,7.95,1.18,9.13-1.56l.12-73.61-9.25-5.39ZM184.81,79.06c-5.54.6-8.31,7.79-2.29,11.3,8.38,4.88,13.51-12.52,2.29-11.3ZM467.69,90.32c-24.23-11.35-48.21-15.16-74.06-6.59-2.58.85-14.47,5.85-15.87,7.15-4.56,4.24-1.13,14.53-1.2,19.71-.18,12.26-3.29,28.72.36,40.66,2.5,8.17,14.02,9.61,17.17.99s-4.05-14.29-5.45-23.17c-6.87-43.58,48.77-38.64,75.35-37.67,1.16.04,3.98.65,3.69-1.08ZM640.24,95.64l-44.24-13.66c-15.48,4.99-31.46,9.42-46,16.6l-.67,10.56,47.6-15.72c14.59,4.4,29.69,8.15,43.41,14.68l-.09-12.45ZM544.08,86.12h-20.4c-1.32,0-9.57,2.46-11.53,3.13-1.17.4-3.79.59-3.64,2.09l35.57,2.11v-7.33ZM698.93,88.21v68.53l1.73,1.4,6.64.16v-62.26c0-1.62-6.39-5.76-6.3-7.83l-2.07-.02ZM509.55,114.36c-12.49-12.25-28.1-18.66-45.52-19.86-20.04-1.38-44.68-1.15-62.16,9.55l.95,10.31-1.04-3.14-3.71,1.03-.49,8.39-2.06-.5,1.02-4.72h-3.13c-1.49,8.7-.08,17.27,5.42,24.43,3.08,4.01,5.09,4.39,10.27,3.82l-1.04,3.12h5.23c-.62-5.8-2.49-4.64-6.27-7.85l2.08-1.55c-3.9-1.22-2.29-4.35-7.32-2.61l-1.04-1.08,1.04-3.65c-5.27,1.66-2.31-3.16-2.15-5.93.14-2.33-1.81-4.82,1.1-5.58l1.04,4.18c2.55-24.43,36.4-19.41,31.41,5.23,4.32.23,4.71-4.13,8-6.12,2.19-1.33,11.14-4.89,14-5.9,3.97-1.4,9.12-1.86,13.18-3.68l1.96,2.12.51-2.1h5.24c-.72,1.12-.73,3.01-1.38,3.84-3.21,4.1-17.54,16.61-22.18,20.19-3.29,2.54-8.19,7.22-12.01,5.26l.07,3.66-17.87,5.23c10.51,1.7,20.78-3.01,30.34-6.8l25.12,50.23c-7.65-4.32-12.05-12.74-19.92-16.44l-13.55-18.67c-7.98,2.02-16.73.62-24.6,1.63-1.45.18-3.03.56-1.55,2.08,38.7,16.31,53.41,64.23,97.3,72.21,2.5-2.37-24.07-34.24-26.59-37.75-12.25-17.05-24.08-34.54-32.95-53.66.25-1.49,5.17-5.03,6.75-2.84l35,41.95-27.19-50.22,41.84,33.48-30.26-39.37c-.68-3.72,22.32-14.67,27.14-11.91ZM640.21,112.4c-15.04-4.08-29.77-11.89-45.25-13.64l-43.49,15.15c-3.79,2.52-1.68,8.06-2.14,11.97l47.61-15.71c14.59,4.46,29.61,8.17,43.4,14.66l-.12-12.43ZM173.35,100.91c-3.45,1.12-5.15,10.71,2.02,11.36,9.9.91,7.72-14.54-2.02-11.36ZM711.49,158.31c1.94-.23,8.72.99,9.15-1.52l-.05-43.86-9.11-12.17v57.55ZM544.09,102.86c-1.3-1.3-27.34.93-29.3,6.27l29.3,1.06v-7.34ZM359.93,149.42c-1.85-13.75,1.37-31.33,0-45.51-24.51,28.01-26.11,83.01,6.74,104.7,3.66-5.66,8.38-11.23,10.02-17.85,4.01,3.19,8.96,4.53,13.36,6.97,1.11.62,1.27,2.44,1.88,2.45,1.04.02,2.61-1.04,4.1-1.06,9.86-.14,18.79.91,28.13-3.12,1.88,2.09,3.5,2.97,2.75,6.26,1.99.18.49-2.32,1.3-3.93.26-.52,6.43-4.84,6.01-5.47-4.43-1.28-8.49-5.06-12.55-6.81-12.92-5.57-26.65-3.12-39.05-9.08-10.16-4.88-21.13-15.97-22.68-27.54ZM942.72,144.71c-.32-3.18.47-6.93.06-9.99-.68-5.1-10.95-12.26-15.43-14.91-40.56-24-88.5-10.06-107.03,33.28.43.53,5.53-6.39,12.47-2.53,10.51,5.85-1.66,23.61-10.97,14.1l-3.59-7.38c-4.11,23.36-9.28,44.07-25.09,62.28-6.8,7.83-16.78,14.44-23.02,21.97-5.31,6.4-9.86,15.4-15.28,22.38-42.76,55.07-123.37,89.99-191.89,66.51l-21.99-12c9.2,13.94,26.93,20.91,42.9,24.07l-1.06,4.17c-1.61.41-.76-1.57-1.74-2.11-4.74-2.63-6.16-1.43-10.36-1.13-.58.04-.34-1.62-.94-1.76-10.1-2.28-19.45-3.93-27.34-11.66l-2.5,2c3.18-.37.75,1.47,1.93,3.71,9.35,17.64,38.27,28.35,57.19,29.78,67.44,5.09,135.07-24.95,178.35-75.87,22.48-26.45,47.84-84.86,88.94-48.08l8.38,16.19c1.74-35.35-34.36-41.07-31.24-78.86,3.78-45.84,54.35-62.43,90.91-39.91l8.35,5.77ZM640.24,129.12c-13.38-2.6-27.4-10.9-40.66-13.24-1.73-.31-2.75-.53-4.61-.39-12.35.87-30.29,11.97-42.96,14.66-2.86,2.1-2.74,9.23-2.69,12.47l46.65-15.6,44.36,14.55-.1-12.45ZM724.05,118.56v38.19l1.73,1.4,6.64.16v-27.73c0-.61-5.14-9.37-6.03-10.67-.64-.93.18-1.92-2.34-1.37ZM544.08,127.97c-.25-3.18,1.45-7.62-2.61-8.37-8.94-1.65-21.26,2.83-29.81,5.24l32.42,3.13ZM802.52,132.17l-24.06-5.24c2.81,9.86,9.19,17.07,17.26,22.99l6.8-17.76ZM640.33,160.41l-1.02-14.14c-6.73-1.46-12.66-4.85-19.07-7.08-4.85-1.69-19.27-6.75-23.46-6.96-3.91-.2-45.18,13.21-46.51,15.28l-.44,13.95c11.44-6.39,26.02-12.67,39.02-15.39,10.62-2.22,15.87.58,25.87,3.86,8.69,2.85,17.37,6.52,25.61,10.48ZM518.97,142.61l23.58,1.83c5.62-10.73-3.32-7.15-10.42-6.97l-13.16,5.13ZM896.87,139.28l-.7-1.89c-2.83,2.76-7.83,1.13-12.25,2.41-1.51.44-7.78,3.16-9.5,4.03-1.52.77-4.54,1.78-3.9,4.01,3.76,1.18,3.12-2.2,4.71-3.13l2.6,3.13c-.31-4.42,1.48-.23,2.61-.34,1.89-.18,6.17-2.78,8.86-3.37,17.42-3.86,36.14,6.04,44.21,21.81,6.29,12.29,1.04,21.48,2.13,33.67.1,1.16.16,4.8,1.83,4.72,5.28-11.2,6.4-24.02,3.09-36.03-1.47-5.32-5.93-15.69-12.49-14.2l2.05-2.6-9.92-7.83-2.58,3.13c-.14-4.85-5.04-2.21-7.43-3.62l-1.5-4.75-.5,2.07c-2.1.35-2.77-1.78-4.78-2.11-2.16-.34-6.04,1.35-6.55.87ZM743.92,158.31c-2.21-6.45-3.61-14.91-8.36-19.87l1.03,19.88h7.33ZM893.32,148.15c-48.56,5.12-32.45,84.12,15.9,67.16,37.67-13.21,24.27-71.4-15.9-67.16ZM639.3,268.18c2.01-.36,1.72-2.19,2.13-3.61,4.65-16.19,10.15-52.82,6.98-68.82-3.96-19.98-17.1-34.61-36.11-41.31-15.76-5.55-21.76-4.8-37.38.73-39.36,13.92-37.32,47.93-33.98,83.19.84,8.91,2.25,17.96,4.19,26.68l9.39-32.42,5.25,53.35c3.14.51,1.68-.76,2.12-2.54,1.56-6.41,1.98-13.22,3.4-19.67,1.28-5.83,4.47-11.42,3.9-17.55,2.45-.15,1.85-.35,2.09,1.55.54,4.23-.42,9.24.01,13.6,1.1,11,4.61,21.87,5.23,32.97l9.42-43.93,7.32,48.12,5.07-28.92,1.21-19.2,9.42,42.89,6.25-35.06.02-14.11c1.48-.25,1.52,1.85,1.78,2.9,2.97,12.19,5.21,25.47,7.09,37.91l1.58,1.03c.62-17.53,6.83-34.64,6.3-52.31l5.76,19.86,1.57,14.66ZM1038.98,150.99h-34.53v104.63h-24.59l-1.57,1.57v15.69l1.57,1.57h59.12v-123.46ZM327.49,161.46c-39.84,12.95-11.24,60.74,13.6,73.77-3.96,4.77-8.57,8.93-11.94,14.21-3,4.71-5.68,10.1-6.88,15.6l20.38-14.35,17.26,14.35-6.27-23.01c14.48-.13,28.98.14,43.47.04,9.37-.06,18.78-.06,28.16,0,39.23.26,72.48-8.62,84.4,39.06,14.17,56.66-30.17,95.87-69.24,127.74-1.16.95-2.66,1.43-4.13,1.62l.5,2.06c12.67-4.43,25.22-7.14,36.45-14.82,43.08-29.51,74.2-94.63,41.33-142.43-10.96-15.93-29.51-22.31-43.23-35.22-1.5-.02-2.86,13.63-3.63,16.25-.45,1.53.57,1.82-2.11,1.52-6.19-13.01-12.41-26.35-21.47-37.66l-12.04,35.57c-4.7-4.68-3.62-13.77-5.73-19.87l-8.39,5.22-1.57,14.66c-2.39.43-1.67-.14-2.33-1.34-1.42-2.57-3.23-11.38-5.69-12.16-7.67-2.41-7.93,9.78-8.73,14.54-2.73.49-1.62-.4-2.18-1.49-2.85-5.55-3.48-13.76-11.87-12.17l-4.26,14.72c-2.56-8.93-3.43-18.09-14.11-19.89l-3.14,19.87c-1.58-7.87-8.48-14.38-5.34-22.86l-9.85-7.47-.53,8.36c-5.32-2.26-6.78,1.27-6.28,6.28-5.17-3.59,1.12-12.49,2.79-17.26l-8.54-10.99-3.64,7.31c-3.53-5.2,1.72-9.93,1.81-10.96.06-.67-4.4-9.79-5.12-12.42-1.36-4.98-2.62-11.25-1.94-16.36ZM950.04,209.58c4.51-14.2,6.8-29.88.53-43.95-.55,5.65,1.66,11.71,1.67,17.27.01,7.18-2.23,16.06-2.93,23.33-.11,1.16-1.24,3.56.73,3.34ZM532.57,220.05v-17.26c0-8.6,6.36-23.02,9.57-31.24.44-1.12,2.03-2.15-.61-1.67-14.93,2.71-35.4,17.38-39.86,32.35-.37,1.25-1.62,6.21.54,6.3l6.28-11.5c-.57,5.12-3.02,8.66-3.17,14.09-.03,1.17-.67,3.96,1.08,3.69l1.05-6.27,1.05,5.22,6.28-16.73c-.5,8.59-4.52,14.62-1.76,23.23.35,1.1.25,3.16,1.76,2.91,1.05-5.19,1.27-10.56,2.61-15.71.51-1.96,1.8-6.28,3.67-7.3-1.18,7.91-3.08,14.56-1.06,22.56.44,1.75-1.05,3.05,2.11,2.55.54-7.28,1.7-15.91,3.91-22.83.56-1.77-.45-2.76,2.37-2.27-2.22,7.09-3.63,14.49-3.12,21.97,3.28-2.05,2.25-8.13,3.14-11.5l4.17,9.41ZM852.74,175.06v15.17c0,1.37,2.67,5.55,2.1,7.84l2.59-2.08c4.56,1.89,3.37,9.89,4.4,13.33.1.34,4.46,5.11,4.79,5.24.9.36,2-.58,2.88-.21,2.67,1.14,5.48,6.93,11.5,4.12-9.46-4.19-16.59-12.9-20.62-22.29-1.23-2.87-1.43-7.24-2.52-9.82-.58-1.36-3.86-2.84-4.03-3.7-.44-2.17,1.14-6.72-1.09-7.61ZM267.85,187.61h26.16l-3.15-1.05c-.97-3.32,2.43-.8,2.11-3.65l-2.09.53-.08-3.06c-4.5-1.57-3.1,2.25-6.2,2v-3.15c-3.76,2.38-2.69-.49-3.95-.95-2.12-.78-5.92-1.83-6.51.94l4.17,3.15c-4.2,1.32-7.92,2.13-11.49-1.03l1.03,3.13-3.14,1.05h4.2s-1.05,2.1-1.05,2.1ZM752.3,188.66h-83.7c1.51,3.81,3.24,11.33,7.79,11.57l74.88-.05,1.04-11.51ZM304.47,192.84c-9.16,2.96-17.89,8.85-24.06,16.21-.99,1.18-2.54,1.7-2.08,3.66,8.51-4.49,18.67-8.4,28.24-9.42l-2.1-10.46ZM746.54,204.35h-70.63l3.14,18.84,62.89-.65c.68-3.2,9.03-16.87,4.6-18.18ZM313.89,215.85l-5.75-9.39c-7.4,6-15.24,11.64-20.41,19.85l26.16-10.46ZM912.39,221.09c.88.73,19.27-7.2,15.68-13.6-2.18.49-1.49,2.84-2.82,4.25-1.48,1.55-8.35,5.17-10.78,6.77-.52.34-4.08.93-2.08,2.59ZM942.72,464.88v-245.36c0-.19-1.67-1.85-2.07-1.57.46,2.72-7.34,7.96-7.34,8.89v242.22l9.42-4.19ZM322.25,225.3l-6.79-6.28c-5.85,6.17-13.19,11.55-16.21,19.85l22.36-11.44.64-2.14ZM309.72,252.48c6.01-6.55,15.53-9.82,22.33-14.8.86-.63,2.07-1.03,1.72-2.45l-9.38-5.75c-4.61,7.71-12.04,13.9-14.67,23ZM908.2,235.74c-12.67,1.34-23.79-.8-35.57-5.23,7.9,15.86,4.74,32.23,4.18,49.17h-23.54c-2.01,0-7.85,4.89-7.85,6.8v62.26c13.41-6.06,27.45-5.18,41.85-6.29l-4.14-8.93-9.46.56v-11.5s34.52,0,34.52,0v-86.84ZM923.89,421.98v-191.47l-11.58,4.83-.02,181.78,11.6,4.86ZM977.25,251.44c-7.7-8.16-15.59-18.88-27.2-20.93v20.93h27.2ZM702.08,271.32l9.39-9.94-31.36-27.73c-.79,6.98-1.19,14.06-2.59,20.96-1.63,8.06-6.78,17.1-7.9,23.5-.11.6-.27,1.72.53,1.57l6.82-14.64c1.88.16,1.19,5.65.97,6.73-1.18,5.86-6.77,11.54-8.3,17.33l17.26-25.11-1.62,10.75-5.19,8.07c1.56,1.49,6.69-6.35,7.56-7.6,3.41-4.89,6.88-10.94,9.19-16.45,1.99-.2.84,2.11.54,3.15-1.68,5.7-5.07,11.05-6.82,16.72,6.48-4.47,9.39-12.22,13.08-18.82,2.66-.41.94,1.15.58,2.68-.7,2.96-2.02,5.76-2.15,8.82ZM615.23,453.37v-16.22c0-2.11-18.05-14.82-21.01-16.65-53.67-33.14-110.88-22.89-166.24-.05-21.71,8.96-43.45,20.71-62.81,33.97v-133.93c2.05.36,1.72,2.21,2.14,3.62,5.94,19.86,9.79,24.8,28.95,32.78,2.97,1.24,7.4.43,7.64,4.41h1.02c-.78-4.06,5.49-1,7.73.14,15.23,7.76,15.11,25.8,9.04,39.63,6.3-4.02,11.22-14.49,12.27-21.72,1.14-7.87-2.31-14.47-2.86-22.22,14.65,1.49,23.46,15.29,19.88,29.29,2.13-1.45,3.98-6.01,4.67-8.39,2.32-8.02,1.87-14.94-1.34-22.66l-6.47-9.74c8.06-.79,14.79,1.55,20.34,7.38l5.82,10.4v-15.17c0-1.35-3.65-7.35-4.8-8.8-1.23-1.53-7.7-6.14-6.7-7.41l23.01-2.62c-2.48-3.07-4.73-6.39-7.87-8.87-3.33-2.64-7.08-3.51-9.91-6.29,7.59-3.82,14.32-5.49,22.5-7.35,1.25-.28,3.3-.3,1.56-2.06-.51-.51-11.5-5.82-13.02-6.35-3.16-1.1-6.71-1.47-10-2.05-.58-2.5.47-1.69,1.37-2.32,5.33-3.74,12.14-5.76,18.51-6.56-3.31-2.23-7.1-5.57-10.77-7.01-5.13-2.02-10.08-.91-14.31-3.45,5.35-3.57,10.97-7.85,17.77-7.86.34-.27-.61-1.29-1.04-1.57-2.5-1.62-15.72-7.18-18.57-7.6-3.32-.49-6.79.87-8.68.37-1.88-.5-10.37-7.86-14.38-9.72-35.9-16.61-79.64,8.09-83.91,47.32l.07,149.51c3.58,25.13,72.05,75.67,94.16,88.94,24.32,14.59,53.67,27.55,82.56,20.5l-11.23,4.97-13.88,1.29.02,18.84,41.84-35.56c-51.14,10.53-98.99-20.23-136.51-51.31-5.13-4.25-10.88-9.05-15.75-13.55-4.43-4.09-15.3-13.97-18.32-18.31-.76-1.09-1.55-1.1-.53-2.67.86-1.32,16.59-10.48,19.37-12.03,41.95-23.31,101.63-45.01,149.88-34.74,26.52,5.64,49.1,21.77,68.82,39.47ZM832.86,263.47c-.6,4.68.44,10.36,0,15.17-4.25-.86-8.07-2.9-10.97-6.06-1.03-.04-7.86,7.08-7.86,7.63v96.78c2.85-3.09,7.18-5.33,10.02-8.29,1.68-1.76,1.28-5.33,4.62-5.33l-2.08-1.55c1.53-1.13,1.94-2.29,2.15-4.13,2.28-20.28-2.53-43.93-.08-64.95.63-5.43,6.67-9.22,11.22-11.8,10.14-5.75,21.25-6.52,32.75-6.48,0-1.53.15-3.1-.08-4.63-.16-1.1-3.8-8.17-4.51-8.98-5.47-6.21-13.16-6.2-19.87-2.22-1.83-.37-2.22-3.4-3.5-4.16-2.13-1.26-4.17,1.64-4.99-2-4.03,1.93-6.28,6.8-6.82,11ZM950.05,257.71v17.79l20.94-2.63c-.09-4.02-19.71-16.54-20.94-15.16ZM950.05,283.35v16.22c7.55-3.01,15-8.05,20.93-13.59-5.24-.07-13.84-4.14-18.56-4-1.28.04-1.62.4-2.37,1.38ZM118.23,355.54c.08,8.54-.06,17.1,0,25.63l12.46-3.83c-2.78-12.4,1.19-28.04-1.67-39.92-2.47-10.25-16.38-16.46-20.73-26.35-3.64-8.28-2.97-17.43-1.57-26.15-12.32,2.55-15.45,17.85-12.02,28.23,4.95,14.98,22.87,19.6,24.26,36.41.19,2.26-.74,4.31-.73,5.98ZM950.05,310.55v17.26l33.48-32.43c-5.14.76-32.51,11.79-33.48,15.16ZM250.87,296.62c-14.3,1.61-14.56,22.32-1.08,24.68,19.05,3.32,19.38-26.73,1.08-24.68ZM85.8,313.69c-.7-4.52.51-10.45,0-15.17l-5.42,7.66c-2.62,6.84-4.94,13.64-2.65,20.82,2.76,8.66,12.09,12.5,16.89,19.72,8.84,13.3,7.52,25.97,3.73,40.73l11.93-4.06.69-1.65c-1.73-13.43,4.05-30.21-4.77-41.38-6.82-8.64-18.5-14.32-20.41-26.67ZM1053.63,332c.72-.84-1.12-9.44-2.04-11.03-1.2-2.07-16.67-16.19-19.4-18.26-.87-.66-5.48-3.34-5.74-3.14-.57,4.67-4.6,4.32-1.07,8.6,3.6,4.36,14.47,13.22,19.39,17.54.95.83,8.2,7.07,8.86,6.3ZM809.84,368.62v-53.88l-12.94-10.91-28.93,26.62,41.87,38.18ZM994.74,303.96c-10.09,2.28-6.68,17.41,2.8,16.54,11.26-1.03,9.11-19.24-2.8-16.54ZM282.2,318.63c-9.44,2.16-10.33,18.25.59,21.99,17.38,5.96,21.38-27.02-.59-21.99ZM970.66,320.6l-14.32,14.01,16.05,16.13c5.71-4.59,12.14-9.19,15.3-16.06-4.2-1.7-13.62-14.98-17.03-14.09ZM1005.75,333.27c-.83,1.47-.27,3.32.73,4.57l14.34,12.93,13.96-13-17.25-16.2c-1.68,3.12-10.62,9.65-11.78,11.71ZM576.51,405.24c-3.74-11.23-10.53-22.55-17.81-31.88-3.75-4.81-9.13-12.37-15.1-13.08l-17.83-20.95c-9.19,22.67-26.31,40.2-42.36,58.07l15.76-3.07,28.7-37.2c8.19,9.61,16.18,19.44,23.96,29.39,2.37,3.03,6.95,11.2,9.06,12.92,3.75,3.05,11.47,2.9,15.63,5.81ZM349.47,347.7l-20.9-6.26-7.35,18.81,28.25,2.11v-14.65ZM988.29,350.37c-2.68,2.73-5.16,5.61-7.88,8.31l15.3,15.1,17.05-16.28-15.24-14.96c-1.18-.21-7.82,6.41-9.22,7.83ZM803.19,403.57c-14.89-11.26-28.97-26.55-43.55-38.62-2.23-1.84-17.19-13.94-18.34-13.85l-12.01,7.58,83.19,74.82c2.3.35,1.22-.37,1.57-1.52,3.21-10.49,5.14-16.88,11.67-26.02,19-26.59,52.25-35.37,83.53-28.95l-.13-13.99c-.66-1.92-10.45-3.56-12.96-3.78-36.96-3.24-69.58,11.07-89.51,42.33-.71,1.11-1.04,2.37-1,3.69-2.62.83-1.81-1.18-2.46-1.67ZM371.44,366.01c-.8,5.12.59,11.92,0,17.26l11.84-6.47c4.37-2.56,11.58-1.05,11.17-7.62-.68-1.75-2.48-.6-2.9-.89-.61-.42-.55-2.14-1.88-2.58-1.38-.46-7.21.92-8.22.65-1.44-.39-1.25-2.94-2.24-3.01-1.45-.1-4.33,2.23-6.71.03.31,1.1-.97,2.07-1.05,2.62ZM1020.71,363.39l-15.13,16.36c-.47,2.69,13.36,11.91,15.1,15.01l16.2-16.2-16.17-15.17ZM529.41,365.49l-2.16.65-18.74,26.54c13.96.49,28.21-1.47,41.84,2.09l-20.94-29.28ZM735.12,381.62c-2.98-2.46-16.91-14.58-19.15-14.92l-13.89,5.59c35.93,33.89,74.99,64.39,109.35,99.92,7.55,8.61,3.16,18.42,8.32,29.35,13.12,27.79,54.05,48.43,84.27,46l2.08-16.74c-50.2,7.55-96.99-38.88-92.06-88.95l-12.07-2.06c-22.77-18.8-44.1-39.42-66.85-58.19ZM349.48,379.1l-33.15-11.26c-1.98-.35-7.32,4.33-7.62,5.57-.51,2.14,33.95,19.18,37.11,23.46l3.67-17.77ZM615.17,381.23l-45.98-7.37,7.37,9.88,36.3,7.7,2.21-1.53.1-8.68ZM405.97,378.04c-32.89-1.59-37.83,33.85-2.58,33.55l1.35-.24c.16-.76,1.22-2.07,1.22-2.45v-30.87ZM797.29,474.3l-109.15-94.98-12.66,4.93-.6,2.14c.9.13,1.91.41,2.58,1.03,30.78,28.23,63.84,54.07,94.73,82.14,1.98,1.8,2.84,4.73,3.12,4.73h21.97ZM247.72,385.63c-17.04,2.14-34.3,16.45-45.27,29.01-1.85,2.11-9.28,10.95-8.76,12.87,12.76,17.09,28.1,36.23,50.07,41.06,29.45,6.47,50.51-8.65,68.02-30.41,1.84-2.29,8.75-10.21,8.25-12.27-.84-3.47-18.55-21.6-22.32-24.88-14.74-12.81-30.21-17.88-49.98-15.4ZM647.8,387.28l-1.18-1.91c.17,2.7-.64,5.76.53,8.35.6,1.33,11.03,11.27,13.04,13.11,25.97,23.68,58.73,41.63,84.2,66.47l15.22.99-102.53-87.42-3.66,1.64.53-2.09-6.15.86ZM627.79,435.59v-43.42c0-.78-1.7-3.07-1.06-4.7h-1.04s0,117.18,0,117.18l10.51-2.78-.04-112.83c-.89-1.79-2.1,2.95-2.1,3.14v36.62c0,.65-.67,1.5,0,2.61h-2.09s0-39.23,0-39.23c0-.78-1.7-3.07-1.06-4.7h-1.04s0,40.28,0,40.28c0,1.4-2.16,5.33-1.06,7.84h-1.04ZM615.12,395.93l-36.51-7.42c1.89,3.53,3.67,9.93,7.39,11.96,2.2,1.2,28.14,8.98,29.23,7.92l-.1-12.45ZM909.24,408.38v-15.17c-34.68-13.25-77.64,10.73-82.68,48.12l14.65,4.72c7.28-31.27,37.88-45.51,68.02-37.67ZM615.22,428.26l-.47-14.69-26.71-9.37c-5.35,7.17,23.2,20.12,27.18,24.06ZM728.23,474.29c-14.27-14.32-28.85-32.03-49.14-37.17l-32.47-27.69c.32,3.18-.47,6.94-.07,9.99.91,6.85,19.05,15.93,23.44,22.11l2.77.85c-3.36,7.1-7.75,3.63-13.63,5.21-10.71,2.87-16.12,17.63-14.61,27.75,3.22,1.03,5.42-3.2,5.77-3.18,1.34.07,2.68,1.86,5.15,2.2,12.96,1.79,30.05-1.45,43.48-.07l-16.67-18.44,5.68-5.65c1.4,0,12.16,9.26,14.14,11.01,2.8,2.48,10.37,11.55,12.56,12.55,3.47,1.58,9.68,0,13.58.53ZM399.28,421.56c-1.23.63-2.01,1.75-3.83,1.05l-24-9c1,4.64-2.31,13.75,1.96,16.15l-.91,4.77h5.22s-1.04-3.13-1.04-3.13c.83.08,1.94-.22,2.6,0,2.64.88-.98,5.36,2.09,4.16,2.37-.92-1.36-4.3,3.68-3.12-2.19,6.3-7.32,6.04-12.55,3.13l1.04,6.27,31.28-14.74.11-8.26c-2.83-.74-4.7,2.22-5.64,2.7ZM152.76,430.34c-6.36-16.11-24.29-17.04-33.06-2.17-19.52-9.96-38.08,4.8-39.14,25.2-21.16-6.78-31.01,15.83-29.29,33.47-22.94,1.16-30.57,28.86-21.44,47.19l2.63.44c-1.41,4.32-7.15,16.11-3.17,19.88,2.03,1.92,1.77-.16,2.38-.83,4.34-4.73,8.43-9.72,13.25-14,.67-2.19-5.3-10.92-5.94-14.73-2.48-14.68,9.48-27.06,23.82-27.48-5.03-17.59,4.87-36.97,25.1-31.39-.39-20.75,15.51-32.87,35.5-25.18,2.78-9.65,12.53-15.1,22.33-13.28,2.93.54,4.35,2.55,7.04,2.88ZM979.34,417.8h-17.26c-3.67,0-11.5,5.06-11.5,9.43,6.65-3.89,14.54-2.42,21.44-4.72,2.05-.69,6.05-2.86,7.33-4.7ZM610.44,467.58c-21.41-26.47-63.29-58.26-99.37-46.7-13.88,4.45-54.76,33.36-67.34,43.56-1.54,1.25-2.91,2.65-4.25,4.1,23.82,20.7,44.23,46.08,71.46,62.44,27.38,12.19,55.87-9.22,77.42-24.45,9.04-6.38,17.81-13.24,26.56-19.98,3.93-8.68.53-12.77-4.48-18.97ZM498.04,422c-33.92,7.74-64.82,25.32-94.15,43.41,23.26,17.99,46.62,39.48,71.63,54.95,10.24,6.34,22.05,12.83,34.02,14.62l-13.93-8.55c-23.23-18.44-44.79-38.91-66.6-59l69.02-45.43ZM977.24,431.41c-9.69-1.96-26.44-3.74-26.14,10.44l26.14-10.44ZM323.31,498.36c2.15.45,2.43-1.06,3.34-2.41,12.45-18.46,12.11-42.21,13.39-63.5-5.78,6.87-9.25,15.42-14.4,22.73-9.17,13.04-20.82,23.98-33.71,33.25,2.81.21,6.92-1.86,9.46-3.1,7.91-3.85,17.36-10.01,22.79-16.97l7.49-12.9c-.53,14.82-3.15,29.05-8.35,42.89ZM646.62,435.59v16.74c1.78-.98,2.69-3.16,4.47-4.49,1.72-1.28,3.81-2.59,5.99-2.85.64-.84-10.02-10.02-10.46-9.4ZM976.2,441.87c-6.81,1.78-14.2-.44-19.77,4.81-4.46,4.2-4.65,10.42-4.28,16.11,6.42-7.58,14.23-12.42,22.07-18.23,1.18-.87,2.6.02,1.97-2.69ZM1022.23,455.47c-1.33-15.88-20.06-17.5-29.28-6.8,10.79-.82,20.61-.7,29.28,6.8ZM1019.09,466.98c-2.2-11.5-17.64-15.41-26.14-7.84,9.2.54,18.02,3.55,26.14,7.84ZM805.66,480.58h-161.13l1.04,18.84h9.43s-.01-8.38-.01-8.38h9.43s.1,9.32.1,9.32l9.3,2.2v-11.51s10.48,0,10.48,0l1.55,14.67,7.34,5.21,1.56-19.88h10.47c1.33,10.88-.2,26.23,10.46,32.44v-32.44l10.53.45,7.27,23.6c1.14-.03,3.13-5.42,3.13-5.75v-18.31h10.47s.53,9.43.53,9.43c16.94-12.42,38.23-13.04,58.05-8.38v-11.51ZM96.26,630.2h23.54l1.57-1.57v-15.69c0-3.08,3.83-17.2,4.96-21.2,12.86-45.93,62.34-82.53,109.57-85.04,49.96-2.66,83.46,24.59,118.26,55.47,2.38,2.11,13.97,10.99,13.95,12.91-4.56,7.35-1.77,8.16,3.88,13.26,22.52,20.3,59.9,41.45,88.87,50.29,20.68,6.31,79.25,16.29,96.02,1.03,1.68-1.53,2.19-4.43,3.7-5.24,3.81-2.03,15.31-2.84,20.12-4.19-3.5,4.3-10.73,3.31-15.18,6.26l-23.53,21.97c7.61-2.56,16.34-3.46,23.36-7.5,8.85-5.1,13.77-14.44,19.21-22.64,41.52-9.76,79.79-28.73,119.6-43.09-.1,2.42-2.05,3.56-2.87,6.02-6.58,19.79.27,40.64,14.49,55.08,9.57,9.72,23.55,14.97,32.31,25.24,7.6,8.92,11.41,20.6,16.76,30.83-33.07-7.75-60.96-28.32-92.86-39.48-90.7-31.73-181.14,9.77-242.49,77.14-24.65,27.07-46,58.99-53.88,95.22l11.06,1.74c1.5-.24,7.19-18.92,8.64-22.33,31.27-73.73,123.74-143.25,204.7-146.86,80.66-3.6,123.69,56.8,200.92,52.35,27.51-1.59,51.96-11.65,77.95-18.83.24-1.83-2.38-.98-3.65-1.04-24.52-.99-49.29,5.08-73.78,5.23,1.39-11.28,5.18-22.4,11.69-31.73,13.91-19.95,41.46-23.83,48.48-51.96,9.46-37.88-19.5-59.86-54.95-55.99-10.65,13.53-17.99,29.15-25.63,44.47-2.47-6.21-20.04-45.01-24.17-45.81-19.15.61-36.59,2.85-54.82,8.67-77.85,24.85-133.24,64.65-221.22,43.34-107.01-25.92-164.13-162.48-282.86-122.62-9.78,3.29-41.71,19.81-45.49,28.79-.81,1.91-.52,5.04-1.26,6.07-1.25,1.76-7.66.38-8.84,3.77l4.07,12.91c-15.78-3.4-16.95-4.6-25.54,8.46-12.11,18.43-18.65,38.98-22.57,60.6,5.81-2.08,13.82-1.14,19.68.76,1.75.57,2.76-.46,2.28,2.37-9.56-2-24.81-.1-24.06,12.56ZM376.66,501.51c-4.22-1.24-6.86-4.6-11.27-5.99-12.03-3.78-23.7.49-29.53,11.7l8.87,5.84c5.74-8.12,15.46-9.85,23.31-3.45,10.22,8.33,2.63,16.54,4.92,21.18l7.88,5.24-1.03-36.1-1.58-2.59-1.58,4.17ZM775.31,554.87h28.77l1.57-6.28c-7.97-.34-21.74,2.21-20.93-9.41,7.31-1.01,13.87,2.14,20.93,3.13v-27.2c-10.58-1.43-18.05,3.2-22.5,12.54l-5.73-7.85-8.39-6.77c6.99-.35,10.63,3.5,14.63,8.36,1.96-8.74,13.68-9.77,21.37-10.47,2.73-4.1-4.57-5.12-7.7-5.8-20.54-4.43-38.35.09-50.73,17.38l-18.37,36.55c6.89-2.97,15.13-2.76,21.96-5.75,4.58-2.01,9.7-6.69,14.77-9.29,4.85-2.48,9.76-4.48,15.03-5.9l-4.69,16.76ZM1026.42,546.49c-2.57-5.43-6.58-11.66-10.48-16.19-20.2-23.45-53.26-32.13-82.29-20.62-8.86,3.51-20.5,9.48-22.21,19.64-.17,1.03-.93,4.82.94,4.6.09-1.52,1.07-2.65,2.06-3.7,31.6-33.35,85.54-13.78,111.99,16.26ZM690.56,521.4c-47.29-25.43-98.7-8.27-130.75,31.93-1.61,2.02-10.94,13.68-9.44,15.14,22.78-1.79,42.75,17.33,43.95,39.76,11.11-2.85,12.4-1.79,9.77-13.44-3.94-17.5-17.63-33.31-35.93-35.74-.76-.7,3.43-5.83,4.21-6.77,31.5-38.03,69.87-34.27,114.68-29.97,1.16.11,3.76.96,3.52-.91ZM359.41,513.48c-3.17,0-6.74,2.59-5.6,6.11l9.79,7.96c6.92-4.23,2.82-14.06-4.19-14.07ZM894.59,560.1c-15.25-1.28-30.24-5.88-43.6-13.43-13.99-7.91-24.94-18.99-35.91-30.52.43,8.36,9.16,16.7,15.13,22,12.76,11.32,44.9,28.92,61.95,24.18,1.78-.49,2.91.77,2.42-2.23ZM659.17,525.58c-16.89-1.65-40.84-3.36-51.27,12.54,11.38-2.97,23.88-3.33,35.08.74,4.27-6.31,10.57-8.67,16.19-13.27ZM1032.7,581.02c-7.34-27.88-31.7-52.43-60.68-56.48l17.23,11.53c12.49,10.23,24.52,23.65,29.03,39.5l14.42,5.45ZM310.75,559.04c-22.52-32.84-69.11-40.48-104.63-26.13-.89,1.23,7.74,9.93,9.13,10.3,2.02.53,4.68-.91,7.05-.95,20.11-.34,33.39.53,52.38,7.35,5.76,2.07,18.83,9.59,23.26,10.32,3.32.54,8.87-1.97,12.81-.88ZM687.95,526.62c-6.11-.65-13.13.47-19.36,0,1.53,23.07,28.21,22.07,39.75,37.66l5.25-12.54c-4.15-.29-6.97-3.69-10.79-5.44-5.73-2.61-11.68-3.6-17.25-5.82-1.59-.63-2.83.61-2.29-2.35,10.88-.94,22.57,2.55,30.94,9.37l1.51-.45c.84-1.76,3.66-3.78,2.67-5.77-3.13-6.27-23.52-13.94-30.42-14.67ZM939.58,526.61c-22.49,4.8-31.15,25.39-32.48,46.51-.79,12.57.14,30.2,1.11,42.93.29,3.82,1.64,8.09,2.18,11.94l48.93-2.12c11.22-34.9,57.36-46.67,85.93-24.97-2.73-10.21-9.2-16.7-19.05-20.17-15.47-5.45-28.25-3.86-43.71.29,7.91-24.28-6.6-53.39-33.49-54.41l.7,10.25c5.67,3.23,12.03,3.75,17.09,9.12,14.67,15.58,6.74,43.04-14.6,47.13-30.29,5.8-44.77-33.07-21.94-50.2,7.65-5.74,13.01-2.68,9.34-16.29ZM136.03,767.26c6.4.29,12.93-.39,19.33.02,4.2.27,8.99,3.26,12.62,1.1,25.78-31.08,58.43-59.04,70.51-99.01,15.81-52.3-2.81-103.88-43.51-138.4-9.8,4.02-18.05,10.78-25.4,18.23-.83.84-1.55.85-1.13,2.51,27.32,15.72,42.55,40.07,47.97,70.79,1.49,8.44-.85,18.2,8.33,22.54-5.86,30.38-25.79,55.98-46.36,78.3-12.03,13.06-30.57,27.41-40.83,40.78-.81,1.05-2.03,1.33-1.56,3.14ZM434.21,578.93c.21-11.35,4.36-30.01-4.71-38.7-11.67-11.17-37.3-7.9-42.31,8.74l7.95,5.81c4.21-3.18,5.18-6.93,11.59-8.02,15.85-2.69,23.67,12.19,16.06,25.27l11.42,6.9ZM646.62,545.46c-12.93-6.79-34.6-6.81-44.37,5.31-5,6.2-7.23,13.79-.63,19.78,1.3-14.09,13.91-21.89,27.22-16.22l7.3,6.8c.54-7.16,6.61-10.51,10.48-15.67ZM965.73,563.22c-.84-19.26-27.67-24.23-35.97-7.19-.85,1.74-3.5,6.72-.14,7.23,5.1.78,10.36-1.93,15.68-2.15,7.72-.32,13.23,3.18,20.43,2.12ZM98.61,558.79c5.37,5.38,14.69-5.76,6-9.71-6.57-2.98-9.49,6.2-6,9.71ZM261.58,548.59c-5.46-.92-34.61,3.89-34.57,9.91l6.94,10.83,27.64-4v-16.74ZM704.16,568.46c-11.76-15.26-35.96-25.37-52.32-10.99-10.93,9.6-8.41,19.93-7.3,32.97l8.36-2.1c-11.29-28.15,26.19-38.08,38.8-15.72l12.47-4.16ZM405.23,562.93c.49.56,8.09,5.32,8.59,5.28,11.32-7.84-.88-19.43-9.21-9.91-.87,1.57-.51,3.33.62,4.63ZM324.07,558.19c-4.76,1.36-5.8,9.28-.49,11.58,10.34,4.48,12.37-14.97.49-11.58ZM616.01,559.31c-14.34,3.72-6.34,35.3,4.56,34.79,14.19-.65,15.88-40.09-4.56-34.79ZM309.39,561.46c-6.2-5.26-13.94,7.18-5.95,10.64,8.09,3.5,10.82-6.51,5.95-10.64ZM344.97,560.21c-4.72,1.25-7.74,9.78-.78,11.98,11.49,3.63,7.37-13.72.78-11.98ZM208.2,630.2c-.48-13.53-6.42-28.65-14.19-39.69-4.37-6.21-26.19-26.64-32.85-28.89-1.19-.4-2.85-.98-4.03-.28-4.65,5.63-20.95,32.65-17.48,38.55l17.54.75,11.24-3.41,12.57-6.78c-2.77,19.8,13.8,29.39,27.2,39.75ZM675.62,576.12c.6.4.83,2.47,1.81,2.62l8.95-4.54c-10.28-16.14-36.15-8.4-27.19,12.06,1.46-1.22,11.34-9.34,10.43-10.42-.35-.41-2.48.8-2.06-1.07,2.89-.12,5.59-.29,8.07,1.36ZM801.47,565.34c-7.1-1.1-14.75,1.07-21.44,1.13-3.95.03-7.72-1.52-12.58-1.13-1.11.09-3.5-.58-2.59,1.55.16.38,4.77,5.71,5.32,6.19,9.78,8.48,25.67,3.27,31.29-7.74ZM483.42,602.97l9.46.62c10.04-23.15-16.28-45.94-37.64-32.41-3.66,2.32-12.87,11.7-10.08,16.13.55.86,7.15,4.03,8.44,4.16,1.96.21,2.19-3.72,3.63-5.76,7.25-10.25,24.31-6.41,26.75,5.71.91,4.53-.68,7.23-.56,11.54ZM287.45,568.64c-6.7,1.01-6.67,12.32.81,12.31,8.33,0,7.35-13.55-.81-12.31ZM261.58,594.63v-25.11c-3.68.84-3.17,2.7-4.71,5.23l-1.04-2.09-11.01,10.99c.04,3.66,13.92,8.04,16.76,10.98ZM588.89,609.09c1.92-16.52-13.5-32.67-28.86-36.17-10.74-2.44-13.99-1.42-18.04,9.14,21.81-5.64,40.64,5.92,43.96,28.26l2.94-1.23ZM77.41,572.66c-2.71-.5-1.61.38-2.17,1.47-6.92,13.63-9.59,30.42-10.36,45.6,9.5-7.58,19.93-14.57,31.38-18.85l-18.85-28.23ZM368.73,682.95c57.52-54.99-20.44-142.07-79.97-92-61.79,51.97,18.46,150.8,79.97,92ZM791,581.03c-5.82,1.58-12,1.57-17.77,0l8.38,17.78,9.4-17.78ZM870.53,592.53h26.68c.29,0,2.44-1.07,2.65-1.76l-.03-5.56c-8.81-.64-17.85-1.78-26.73-1.1-1.76.14-3.57-.31-4.6,1.7l2.04,6.73ZM580.71,611.36c-2.17-16.58-16.18-26.1-32.44-25.1.58,3.35,2.81,4.72,1.05,8.37l2.61-.1c2.57,2.56,3.26,15.04,3.75,15.69.56.75,3.86,1.3,4.1-.44.6-4.44-6.02-17.22,5.58-9.75,4.41,2.85,7.08,7.65,9.22,12.29l6.14-.96ZM474.78,589.64c-7.38-7.29-19.13,7.33-5.26,10.06,6.66,1.31,8.44-6.91,5.26-10.06ZM275.08,589.49c-1.46-2.44-8.54,1.1-6.07,5.03,2,3.17,8.91-.28,6.07-5.03ZM966.79,624.96l78.85,1.95,1.26-.83-.78-20.28c-24.38-22.32-69.28-13.18-79.32,19.16ZM527.34,613.45l-3.15-17.78c-5.56,5.44-10.15,12.89-17.77,15.71l7.86,2.05,13.05.02ZM544.08,597.77l-4.18-1.05c.25,3.61.63,14.07,4.66,14.72,2.45.4,8.15.51,8.93-2.16-5,1.5-5-3.1-9.43-2.11l.63-3.17-2.74-1.55,2.12-4.68ZM899.83,598.81h-27.2l.61,6.4c8.8,2.41,17.78.09,26.6-.11v-6.28ZM420.61,641.71l-12.01-17.8c-2.12-2.27-18.43-18.53-20.41-16.72.48,5.44,7.38,5.93,6.27,11.5l-2.09-.51-1.11,2.07c.37,7.71,8.92,7.75,14.38,10.8s9.9,7.35,14.97,10.65ZM668.59,610.32v15.17c0,6.57-8,18.86-11.51,24.58l16.73,4.2c2.97-2.67-1.15-33.36-2.59-38.73-.37-1.36-.99-5.03-2.63-5.22ZM897.21,612.41c-7.97-.59-16.55.43-24.59,0v7.32h28.25c-2.52-2.69-1.66-3.99-1.06-7.32-1.2.71-1.81.06-2.61,0ZM171.6,614.52c-7.44-.61-13.04,3.43-9.67,11.24,4.91,11.39,21.37-2.17,11.24-10.2l-1.55,3.13v-4.17ZM651.85,647.99c1.9-9.33,2.37-17.24,1.08-26.71-.21-1.57-.14-3.22-2.11-3.64.15,7.8-4.54,15.61-9.46,21.42-1.06,1.25-7.52,5.73-6.24,6.82l16.73,2.1ZM152.77,649.03c8.03-15.96-7.95-22.57-19.88-28.25-3.2,18.57.49,37.09,3.13,55.45,1.16,1.3,14.35-9.93,16.41-11.31,23.47-15.81,35.04-17.57,62.84-18.19,1.51-.03,2.73,1.15,2.38-1.37-.65-4.01-14.63-10.68-18.63-11.72-16.95-4.39-33.99,4.38-46.24,15.39ZM467.47,642.99c-18.15-4.06-35.17-11.59-52.08-19.06,2.45,5.14,9.46,7.08,11.53,11.48,4.04,1.04-.68-2.35,2.58-2.06l3.68,2.6-4.18,1.06c4.21,7.48,6.35,17.63,15.71,20.9,5.26,1.84,15.86,2.2,21.44,1.58,1.17-.13-2.14-2.64,1.03-2.09l3.67,2.08-3.37-16.5ZM612.1,643.79l15.74.58c2.13-1.43,3.73-15.12,4.13-18.35l-9.39,9.95-10.47,7.82ZM94.13,650.03c.42-1.54-.15-2.44-.95-3.67-1.18-1.81-16.42-15.86-18.88-17.74-1.04-.8-1.33-2.02-3.13-1.56-5.15,13.97-6.54,29.1-6.28,43.94,9.25-7.46,17.97-16.56,29.25-20.97ZM699.98,662.63l-15.68-35.56c1.71,9.62,2.58,20.84-4.17,28.77l19.85,6.79ZM869.48,635.43h33.48l-1.16-8.26-29.58.02-2.75,8.24ZM121.36,631.25c-9.38,2.54-27.11,3.32-25.09,16.74,7.25-3.64,16.93-1.76,25.11-3.13v-13.6ZM420.17,644.24c-4.73-4.37-10.54-7.48-16.22-10.41-3.14-.6-4.9,3.66-6.82,4.8-1.79,1.07-5.63.37-4.76,2.54,1.06,2.64,22.12,12.1,24.05,17.27l-14.12-7.26-9.93,5.69c.9,3.23,8.74,7.29,11.84,9.08,11.34,6.56,24.09,10.64,35.22,17.61-3.87-12.78-9.25-30.07-19.27-39.32ZM941.68,696.12h71.67c1.24,0,7.56-3.52,8.93-4.68,9.2-7.78,9.51-23.35,8.23-34.45-1.09-9.42-7.5-18.05-16.64-21.03-8.35-2.73-46.08-2.65-55.97-1.59-8.36.9-16.31,6.43-17.26,15.18-1.08,10-.8,29.54-.05,39.8.17,2.35.94,4.45,1.09,6.76ZM911.33,654.27l-4.88-9.25c-11.74.78-26.16-1.61-37.56-.23-4.51.55-5.64,6.46-8.83,9.48h51.27ZM123.47,660.54c-1.11-14.9-.67-16.06-14.63-9.92-6.2,2.73-12.52,6.22-11.52,14.1l26.15-4.19ZM488.91,652.47c-5.85,6.01,1.97,14.98,8.62,9.14,6.38-5.6-2.84-15.08-8.62-9.14ZM255.02,656.51c-5.46,1.45-5.12,10.69.79,10.94,8.32.35,7.66-13.18-.79-10.94ZM517.63,658.64c-3.27.95-5.33,6.55-3.43,9.29,2.23,3.21,10.56-.85,11.08-4.77-1.03-3.44-4.06-5.57-7.65-4.52ZM1038.98,659.5v16.22c0,18.45-22.3,35.14-39.35,37.03-6.81.76-19.33-1.3-24.79.32-1.61.48-6.26,5.66-8.06,7.1,28.52-1.62,59.84,8.59,76.17-21.64,6.37-11.79,7.52-25.86,5.43-39.02h-9.41ZM174.88,663.47l-.66-1.88c-3.38,3.01-5.71,3.49-5.38,8.73.89,13.97,20.83,8.68,17.18-3.81-1.95-6.68-10.7-2.6-11.15-3.05ZM840.19,669.96h89.98c.45-1.79-1.74-3.05-2.94-4.1-1.46-1.27-4.26-3.92-5.97-4.25l-72.21-.1c-1.28.15-6.49,7.04-8.86,8.45ZM126.6,676.23l-3.64-13.56c-8.49,4.04-24.03,5.86-23.56,17.75l27.2-4.19ZM404.31,672.66c-2.41-2.61-4.58-5.11-7.74-6.89l-5.78,7.32-1.55-2.08c-2.16,5.76,5.71,8.71,9.42,12.01,2.6,2.32,5.22,5.05,7.31,7.85l-16.27-10.49-7.79,6.83c10.45,12.81,27.05,17.39,38.7,28.78-1.7-15.58-5.44-31.61-16.29-43.34ZM150.68,734.83c13.67-10.33,27.61-19.66,39.24-32.42,3.25-3.56,23.72-29.57,21.42-32.45-17.7,8.42-32.57,19.93-44.46,35.55-2.56-1.83-.96-4.95-2.08-7.32-2.34-4.93-20.29-7.91-25.64-7.31l11.52,43.94ZM98.35,690.9l-27.19-18.85c-4.86,15.01-5.12,30.46-6.28,46.04,10.15-10.31,21.76-18.76,33.47-27.19ZM481.12,677.47l-31.2-5.4c6.3,9.09,11.35,19.42,13.61,30.33,3.55-4.63,19.96-12.53,19.61-18.13-.04-.58-1.76-6.57-2.02-6.8ZM930.17,676.24h-98.88c-.82,0-5.3,6.76-7.84,6.3v2.07s106.72,0,106.72,0v-8.37ZM129.75,691.92l-3.65-13.51c-7.31,3.52-27.68,7.59-21.9,18.78,8.08-3.46,16.94-3.91,25.55-5.27ZM264.95,689.62c2.78,4.89,14.47,1.52,10.76-6.07-3.5-7.15-14.53-.56-10.76,6.07ZM900.87,702.41c-39.84,2.37-73.65,27.07-113.53,29.28-68.79,3.8-112.86-54.12-187.32-50.26-57.18,2.97-106.95,42.35-113.35,100.79,15.58,11.28,28.59,22.93,36.3,41.04-15.08,12.16-31.31,20.69-38.26,40.01-.69,1.92-3.3,14.03-4.44,12.81-3.73-13.41-16.63-22.56-28.93-28.1l-20.25-8c20.01,17.68,41.44,36.02,50.23,62.25l10.02-18.74c8.61-14.54,20.76-26.48,35.66-34.51,2.42-.22,2.74,3.46,4.07,5.06,24.04,28.88,58.91,39,92.85,19.74,29.13-16.53,43.88-52.64,30.2-84.2-15.25-35.2-66.5-43.71-86.64-9.8-.89,1.5-.48,3.11-1.05,4.23-.48.93-5.38,3.72-3,7.31,20.9-36.54,79.85-24,83.22,18.28,5.78,72.36-92.02,82.68-115.94,17.59-19.95-54.29,19.01-106.59,75.8-106.62,89.83-.05,120.35,113.04,51.63,164.4,5.68,3.77,8.16,10.56,12.57,15.66,7.83,9.04,17.84,15.17,30.38,12.65,1.71-.34,6.36-2,7.25-3.71-16.35,4.93-29.09-7.62-35.46-21.31,1-1.66,7.39-8.12,9.2-6.86,7.5,15.52,34.63,25.06,47.2,10.39-11.9,5.01-25.84,1.62-34.5-7.89-2.93-3.22-4.53-8.78-8.4-9.93l7.32-8.89,11.6,10.39c9.04,5.6,23.7,7.25,32.9,1.68,1.7-1.03,5.96-3.37,4.16-5.25-9.89,8.73-23.96,4.16-32.98-3.66-4.48-3.88-6.63-9.47-11.43-12.13l4.66-9.31c1.36-1.66.9-.81,2.07-.03,2.42,1.61,4.81,5.36,7.35,7.31,12.59,9.68,31.7,10.23,41.3-3.64-2.52-.62-4.34,2.31-7.01,3.45-11.49,4.91-23.56.07-31.72-8.65-1.07-1.14-6.87-8.86-7.11-9.68-1.15-3.9,2.5-6.71,1.92-10.75,9.38,11.09,21.4,17.54,36.42,13.93,3.9-.94,13.07-5.61,12.23-9.74-11.6,9.92-28.22,5.01-37.68-5.23-1.04-1.13-7.52-9.55-7.66-10.17-.49-2.1,1.87-6.88.88-9.73,12.65,14.45,34.52,21.36,49.16,5.75l-10.19,3.41c-20.45,2.7-35.29-13.4-38.98-32.17l16.04,11.68c12.35,7.4,29.89,9.94,40.45-1.75l-14.01,3.55c-19.35-1.26-32.35-15.93-40.39-32.31.61-.56,12.7,6.93,14.67,7.82,8.31,3.74,19.82,6.87,28.89,7.74,1.17.11,3.76.97,3.52-.9-64.87-16.49-104.44-82.96-177.88-66.46-36.95,8.3-66.01,39.02-70.61,76.91-3.73-4.36-8.69-7.37-13.96-9.57,3.64-43.34,45.33-75.94,86.44-82.21,78.75-12.01,115.81,50.18,185.91,54.16,44.07,2.5,64.91-18.14,101.68-35.47l26.53-11.65ZM930.17,689.83c-14.19.93-28.28-1.11-42.43-1.09-2.99,0-5.57,1.14-8.28,1.14-19.53.03-39.05-.16-58.58.02-5.44.86-8.34,7.88-12.09,11.44,13.81.83,27.57-2.53,41.29-3.17,20.37-.96,41.42.93,61.82.09,5.81-.24,12.1-2.01,18.27-1.08v-7.34ZM381.84,690.95l-1.47-.04c-1.61.99-2.78,3.34-4.22,4.26-1.9,1.22-4.12-.61-4.7,1.97,2.47-.4,1.72,2.06,2.81,3.19,4.58,4.78,13.09,9.09,13.91,16.7-3.5-1.99-16.34-18.25-19.84-15.67-.14.11-.91,2.88-.81,3.46.4,2.37,10.52,15.86,12.8,18.51,5.14,5.99,11.55,11.29,17.27,16.73,2.29-13.56,1.16-24.61-5.83-36.54-2.75-4.7-6.75-8.28-9.92-12.57ZM132.86,707.6l-3.63-14.62c-7.25,6.51-22.65,6.22-23.53,18.27,1.46,2.23,1.56,1.03,2.84.83,7.74-1.22,16.2-4.14,24.33-4.48ZM435.27,726.46c1.59.43,1.74-.42,2.62-1.03,5.61-3.85,12.12-13.07,18.28-17.28.03-3.78-28.13-14.22-29.27-13.07,2.2,10.63,8.78,20.19,8.37,31.38ZM283.02,696.55c-8.37.3-7.55,12.55.97,12.1,7.5-.39,6.34-12.36-.97-12.1ZM375.61,768.31c.18-15.3-6.2-32.74-14.82-45.33-4.22-6.16-15.56-18.25-22.73-20.01-2.45-.6-23.97.14-27.83.48-2.33.21-6.29,1.17-8.49,1.98-1.45.53-1.79-.38-1.47,2.19,14.91,1.7,30.87,6.74,42.9,15.69-59.86-27.51-121.24,5.78-148.56,61.24-.12,1.88,3.81,4.92,5.25,4.23,17.09-27.39,36.12-50.12,68.23-59.46,36.45-10.61,83.14-7.62,103.15,29.24l4.36,9.75ZM254.25,703.45c-23.72,2.22-39.49,18.19-54.94,34.5-7.27,7.68-22.26,22.92-27.73,30.87-.61.88-1.46,1.03-1.03,2.62,6.87-.08,13.76,7.95,18.88,9.95,1.23.48,1.82.91,3.12.06.97-.63,9.06-17.3,11.05-20.38,10.08-15.63,24.25-31.12,37.05-44.56-.97-1.68-2.35.4-3.24.95-9.49,5.87-20.96,16.53-28.74,24.67-1.05,1.1-2.73,6.25-3.59,1.6,9.76-11.28,19.09-22.83,31.87-30.91l17.29-9.38ZM379.81,758.37c.87-3.43,0-14.34,0-18.83,0-1.71-2.83-10.81-3.67-13.07-2.35-6.25-6.55-13.29-11.5-17.78l-4.19,4.16-1.58-1.55c.49,5.41,5.04,8.86,7.52,13.41,5.82,10.68,11.31,22.91,11.34,35.23.66.03,1.99-1.22,2.08-1.57ZM109.87,729.59c6.37-4.91,22.13-3.51,27.25-7.85,1.33-1.13-2.4-11.52-3.84-11.96-8.51,3.17-26.24,7.96-23.41,19.82ZM938.53,718.1c-38.41-5.4-77.39,9.42-108.09,31.57-5.9,4.25-20.11,15.57-23.79,21.2-.8,1.23-1.38,2.12-.95,3.67l7.3,2.7c10.27-11.72,23.46-20.31,36.95-27.94,20.26-11.46,41.93-21.29,65.86-19.94l22.73-11.26ZM484.17,722.43c-7.43,1.47-6.58,11.49,1.79,10.34,6.52-.9,5.32-11.75-1.79-10.34ZM141.23,737.95c.23-2.43-1.35-13.96-4.56-13.48-7.62,6.39-24.8,7.01-23.66,19.77l28.23-6.29ZM427.94,733.8l-19.87-8.38c2.2,9.25,3.63,18.7,3.15,28.24,2.49-2.04,18.14-17.92,16.73-19.86ZM349.47,748.42c-18.69-16.82-45.4-17.99-69.05-12.53-.25,1.82,2.38.98,3.65,1.04,10.97.44,19.95-.27,31.07,1.38,11.95,1.77,23.21,5.65,34.33,10.12ZM662.99,873.62c37.45-37.07,31.89-102.9-14.63-129.56-48.1-27.56-114.3.07-108.46,60.33,4.08,42.11,62.53,69.45,87.88,28.79-10.5-2.27-16.07,5.7-25.91,7.04-65.92,9.02-69.76-87.86-2.85-93.88,67.19-6.05,95.17,71.18,51.8,118.77-1.8,1.97-10.2,8.76-10.48,9.4-.78,1.8.71,1.37,1.43,1.66,2.24.87,10.62,4.99,11.48,4.91,1.39-.13,8.32-6.07,9.73-7.47ZM972.02,764.12c-20.31-23.37-51.91-38.25-82.65-26.13.13,1.93,2.88.63,4.79,1.99,2.22,1.58,5.08,10.27,8.73,12.26l-13.53,18.16c20-8.36,39.72-11.16,61.2-9.4,7.16.59,14.3,2.51,21.46,3.12ZM77.13,735.02c-7.23,2.13-4.15,12.49,2.66,11.17,7.89-1.53,5.03-13.44-2.66-11.17ZM117.2,763.08c8.06-6.76,19.32-7.51,28.82-11.46.37-.47-2.76-10.85-3.19-11.57-1.04-1.74-1.31-.52-2.26-.17-9.35,3.39-28.58,10.66-23.37,23.2ZM374.57,797.61c-6.18-17.95-23.19-32.65-39.43-41.65-18.56-10.29-43.38-16.5-64.54-13.68-26.97,3.59-54.7,27.41-67.58,50.63l3.04,6.14,2.15.65c35.11-66.21,126.31-60.52,166.37-2.09ZM392.35,782.95l13.46-22.33c-.72-3.82-14.56-8.06-17.62-11.14l4.16,33.47ZM455.88,749.7c-6.86,2.04-7.63,17.58,6,15.41,10.79-1.72,6.54-19.13-6-15.41ZM878.89,764.14c-17.53-6.76-35.34-6.28-50.56,5.4-1.69,1.29-10.45,9.21-10.11,10.79.99,4.69,8.99-3.92,10.46-2.59-1.81,1.38-6.89,10.61-1.6,9.39,2.66-.61,15.15-13.64,20.78-13.77l31.04-9.22ZM1048.4,802.83c-6.27-16.02-25.64-24.12-41.61-26.91-6.31-1.1-13.89-.46-19.36-1.57-2.79-.56-6.18-3.47-9.15-4.45-13.09-4.29-24.36-5.33-38.04-3.56-3,.39-22.62,4.26-22.6,6.67l8.37,10.46-8.38,5.75c22.37-4.79,42.91,7.59,36.61,32.44,4.21.12,8.19,1.73,12.09,3.1,2.38.84,5.03,4.73,4.44-.24-.63-5.26-11.51-33.84-10.24-35.28,3.8,1.25,7.75,5.89,10.43,8.92,9.27,10.47,15.62,23.29,24.62,33.97,1.36-.66.09-2.86-.31-3.87-5.63-14.08-15.18-26.8-20.09-41.11l22.49,34.52-2.33-11.18-12.84-25.44,22.49,34.52c-.48-7.69-5.83-14.33-9.08-21.26-2.23-4.74-4.93-10.27-6.08-15.35l14.7,21.39.99,3.71,2.07-4.17,3.16,11.5c1.96.19,1.03-3.42.79-4.45-1.76-7.43-6.18-14.13-7.07-21.69l9.41,15.16,4.18,2.1c-3.23-2.27-2.14-4.24-2.69-5.83-2.19-6.24-5.36-12.25-6.71-18.76l16.75,29.28,2.06-.5-11.49-26.69c.92-.84,12.22,6.27,13.94,7.49,2.87,2.04,6.43,5.22,9.04,7.66,3.35,3.15,2.55,4.8,9.45,3.66ZM467.69,840.5l29.11-4.89,20.17-12.34.52-1.64c-5.2-10.63-12.68-19.89-21.53-27.69-37.28-32.85-70.17-31.93-92.99,14.81-1.9,3.89-11.76,27.54-9.56,29.67l14.63,4.19c7.3-20.53,20.65-67.34,51.62-52.13,25.07,12.32,1.44,45.91-16.54,29.1-3.3-3.08-3.68-7.62-6.8-10.45-7.63,15.53,9.62,27.77,24.05,26.17l-8.36,2.07,16.74,1.07-1.06,2.07ZM54.26,824.73c7.42-13.97,17.92-25.52,30.58-34.87,3.58-2.65,8.84-4.99,12.19-7.69.67-.54,2.86-1.26,1.86-2.35-9.85-6.97-23.23-1.91-31.84,4.8-6.08,4.74-25.34,28.54-26.24,35.52-.29,2.26.3,1.2,1.46,1.64,3.74,1.42,8.15,1.81,11.99,2.95ZM830.78,818.53c4.15-12.57.48-24.28-10.14-32.25-3.19-2.4-15.76-9.61-19.14-8.05-3.18,1.47-12.76,15.93-14.86,19.71-9.69,17.49-23.85,64.59,6.97,67.67,14.69,1.47,27.28-10.06,30.59-23.83.3-1.23,1.52-11.35,1.42-12.17-.15-1.2-2.65.1-2.17-1.66l2.89-.52c-2.43-3.56,7.06.28,7.96.65,13.98,5.83,23.08,18.39,21.57,33.86-.6,6.16-3.89,10.5-5.21,16.23,5.89-3.86,13.65-3.91,18.71-9.01,7.54-7.61,10.25-23.97,6.88-33.86-6.04-17.74-29.69-27.73-45.47-16.77ZM115.09,778.79c-20.07,5.19-39.72,21.06-51.7,37.75-1.23,1.71-7.22,9.87-5.84,11.41l7.33,1.66c7.44-11.96,16.49-23.31,27.19-32.53,1.97-1.7,24.76-16.92,23.03-18.29ZM901.92,794.46c-14.12-16.32-52.3-22.13-67.93-5.67-2.32,2.45-3.46,7.59.45,5.71,1.81-.87,11.12-7.09,12.02-6.3-1.41,3.2-12.57,13.73-10.45,16.73l17.78-6.27-15.69,10.47c.4,2.42,4.82,0,6.7.07,2.69.11,5.71,2.17,8.42,1.97,2.61-.19,11.31-6.54,14.84-8.19,10.28-4.79,22.52-7.92,33.85-8.53ZM598.26,792.62c-29.12,3.19-25.33,46.17,3.89,43.72,30.18-2.53,24.14-46.79-3.89-43.72ZM803.56,935.72h16.74c13.52-21.63,37.46-39.01,61.45-47.89,5.67-2.1,12.04-4.66,18.07-4.43-.91-5.85.84-11.73,1.08-17.23.9-20.53-5.32-39.95,14.26-53.75,10.12-7.13,25.28-7.73,35.91-1.23-.63-14.17-12.88-19.48-25.67-18.87-19.46.93-38,17.09-42.85,35.61-2.75,10.48-.37,20.3-2.9,30.58-4.62,18.81-20.63,18.72-34.94,26.79-18.16,10.24-34.37,30.82-41.15,50.4ZM451.76,798.85c-17.18,2.1-7.2,30.44,8.09,19.69,10.3-7.23,1.42-20.85-8.09-19.69ZM972.46,851.58c1.59,1.49,3.09,2.64,4.27,4.6l6.46-9.93c-17.32-31.02-73.59-27.3-73.94,13.08,1.76.12.95-2.29,2.03-3.7,16.99-22.23,41.2-22.72,61.17-4.05ZM366.21,838.41h-12.56c2.5,14.15,4.51,28.44,4.18,42.91h6.29c-.61-14.43.42-28.62,2.09-42.91ZM399.68,843.66c-4.97-.84-14.48-4.34-19.13-2.94-2.94.89-9.41,9.96-7.03,13.39l-3.12-3.13-2.69,30.41c.76,1.09,20.47,2.37,22.56,7.24-13.6-3.6-25.97-5.99-40-3.89-5.58.84-10.99,2.78-16.5,3.89,1.83-4.18,21.25-6.35,21.98-7.33l-5.25-30.32-1.55,3.13c-6.11-9.57-15.33-17-26.68-9.93,4.81.42,7.73,4.2,10.46,7.83-6.86,1.41-4.31-1.9-6.27-3.63-6.46-5.69-18.84-1.7-24.61,3.63l13.06,2.65c10.43,3.81,16.83,11.6,16.83,22.99,0,29.08-41.91,28.12-40.87-.52l-8.37,2.12c3.18,23.48,10.1,44.15,30,58.39,47.48,33.97,118.43,11.33,127.52-48.95,1.28-8.49,1.67-11.04-7.89-11.56,1.58,31.72-43.12,28.41-39.64-3.55,1.45-13.35,15.49-21.6,28.14-21.04-7.45-4.45-15.42-10.72-23.61-3.72l-6.73,9.47c.54-2.88,1.07-8.08,2.68-10.38,1.75-2.5,5.39-2.15,6.72-4.25ZM960.31,848.11c-.73-.55-16.15-3.4-17.95-3.34-17.46.6-29.97,16.8-31.02,33.4l11.34-2.26c2.61-25.56,29.47-30.36,41.49-7.15,1.2,2.32.58,6.97,3.65,6.27l5.24-13.6c-3.43,1.8-3.11-2.23-4.76-4.13-1.24-1.43-7.43-8.77-7.99-9.19ZM138.94,848.05c-28.23,2.32-13.44,45.9,9.57,30.58,14.93-9.95,5.27-31.79-9.57-30.58ZM13.8,913.55c2.53,1.48,8.8-3.08,11.8-4.03,9.6-3.04,19.5-4.38,29.37-6.21,7.87-13.81,1.94-32.85-13.34-37.99-24.5-8.25-45.34,14.41-34.17,38.35.61,1.3,5.83,9.58,6.34,9.88ZM305.52,865.63c-6.62-.6-13.47.78-18.95,4.6-1.26.88-2.56.04-1.96,2.71,4.76-.54,9.39-1.72,13.87-3.38,1.96-.73,5.91-2.17,7.04-3.93ZM438.4,872.93c-4.34-6.88-13.49-7.7-20.92-7.3,1.13,1.75,5.08,3.2,7.04,3.93,4.48,1.65,9.12,2.85,13.88,3.38ZM955.28,875.04c-5.22-11.59-17.57-12.8-21.97,0h21.97ZM302.72,882.03c5.91,6.46,17.16-.3,14.42-7.54-5.58-14.74-22.53-1.33-14.42,7.54ZM408.4,882.04c6.02,6.54,17.66.11,13.76-9.07-.61-1.43-4.86-4.8-6.5-5.11-6.27-1.16-12.24,8.77-7.26,14.18ZM552.45,878.19l-14.12-9.12c-20.2,8.91-35.06,26.34-37.14,48.86,12.18-4.95,17.38-17.59,27.29-25.54,7.49-6.01,14.12-8.26,22.51-12.02,1.24-.56,1.88.49,1.46-2.18ZM810.91,911.66c7.38-7.44,9.98-8.98,4.36-18.51-16.65-28.24-59.87-14.33-56.69,18.51l3.04-.97c4.37,9.38,4.28-.61,4.88-1.19,1.71-1.66,12.79-4.85,15.63-5.15,6.94-.72,14.28.33,20.6,3.23.91.42,2.06,2.88,3.47,3.05.4.05.42-3.31,3.12-2.1l1.59,3.14ZM263.66,883.42c-16.66-3.18-33.48-.34-47.19,9.85-1.17.87-2.61-.02-1.98,2.69l49.16-12.54ZM596.4,889.68c-14.96-1.35-28.13-7.88-43.14-4.95-16.23,3.17-27.09,14.91-35.77,28.05-2.78,4.21-7.18,15.77-11.83,16.49-5.17.79-8.35-6.56-11.28-9.24-6.94-6.35-19.55-7.01-28.38-5.46-8.04,1.4-12.38,2.19-12.96,11.21-.17,2.6.19,1.12,1.08,1.09,13.77-.58,21.52-4.31,34.44,5.26,7.73,5.73,8.67,14.87,21.27,12.75,12.97-2.18,17.43-20.19,24.59-29.81,13.86-18.61,37.81-21.54,54.64-4.98l7.33,12.02v-32.44ZM230.19,902.24h-16.74v32.44l66.96,13.6c.83-.83-9.2-18.97-12.26-19.64-1.79-.09-5.98-2.32-7.09-2.32h-30.87v-24.07ZM257.39,902.24l-16.74,1.05v16.22c0,.64.84,1.6,0,2.62h16.74v-19.88ZM563.72,905.67c-34.1.91-29.87,48.16,3.85,46.83,30.46-1.2,29.79-47.72-3.85-46.83ZM739.22,936.77c9.58-1.02,22.43,0,32.44,0,.22,0,1.26,1.56,2.61,1.04-19.76-43.92-74.08-21.53-81.63,18.31.86,1.63,1.82.11,2.64-.5,11.56-8.63,29.45-17.3,43.94-18.84ZM125.03,924.21c-4.89-.58-11.58,0-16.74,0-1.03,0-3.65,1.05-1.53,2.58,10.58,7.64,21.74,13.06,31.91,22.5,6.83,6.35,13.08,18.02,18.36,22.45,4.36,3.65,13.4,6.08,17.7,11.06,2.59-26-18.33-49.49-42.31-56.55-1.87-.55-5.81-1.85-7.38-2.04ZM488.64,978.62c13.76-13.3,11.06-36.42-5.97-45.83-7.38-4.08-13.47-3.69-21.65-2.18-3.69.68-8.31,1.41-10.05,5.11l4.18.53-11.5,14.12c2.5.36,4.89-.82,7.37-.57,2.04.2,7.17,1.7,8.31,3.71-3.42-.43-6.26-1.47-9.86-.98-1.26.17-5.49,1.48-5.82,3.07,4.15-1.43,9.36,3.59,9.42,7.35l2.08-1.07-1.05,3.14,2.63,1.04,1.04-3.13c1.19,2.47,1.49,4.35,4.52,5.38l-.84,2.98c3.76-2.46,6.56,4.03,8.35,6.83l-2.07.49v5.21c-5.28-.66-6.59,2.82-7.35,7.34l-1.04-2.08-1.56,2.1c-.98.07-1.8-12.95-5.74-13.61l4.19,17.79,18.57-6.52,1.31-8.12,1.04,6.27c10.81-3.54,8.48-9.53,7.32-18.83,4.1,2.04,4.54,6.35,4.18,10.46ZM596.4,965.54v-28.77l-5.41,9.76c-8.64,11.1-21.9,15.83-35.8,14.19-13.59-1.59-21.71-11.31-36.94-5.33-6.42,2.52-18.46,14.44-18.18,21.63.35,8.93,11.48,9.6,16.88,4.28,3.27-3.22,3.98-11.99,9.9-13.13,6.9-1.33,16.34,5.29,24.15,6.15,7.02.78,43.24-1.27,45.4-8.78ZM141.99,962.21c-4.5-3.7-10.42,2.95-14.32,5.51l8.95,12.98,12.99-7.83c-2.84-2.34-5.12-8.61-7.61-10.66ZM944.82,1015.25c.63,2.34,2.82,1.98,4.65,2.13,38.9,3.22,31.49-56.58-5.76-48.77-28.15,5.9-32.76,44.71-17.11,65.36,4.89,6.45,20.58,19.12,28.98,16.63,1.6-.47,8.87-9.59,8.07-10.26-18.32-1.05-33.71-20.08-32.47-38.24.87-12.8,13.1-23.25,25.52-16.02,14.97,8.71,3.72,31.47-11.88,29.15ZM563.76,979.9c-35.53,1.95-30.42,50.2,3.84,47.9,33.83-2.28,27.2-49.6-3.84-47.9ZM471.89,994.3c10.32.43,15.02,11.89,23.33,15.92,9.39,4.55,25.5,4.2,31.76-5.28,3.6-5.45,2.11-14.5-4.91-12.27-2.62.83-6.09,4.49-9.34,5.33-13.63,3.54-19.64-15.16-34.05-6.84l-6.78,3.14ZM154.58,991.36c-9.87,2.04-10.55,20.23,2.8,18.62,13.35-1.61,8.48-20.95-2.8-18.62ZM259.48,991.18h-20.93v47.08h10.47s-1.05-39.76-1.05-39.76h11.51s0-7.32,0-7.32ZM259.48,1000.59h-7.33c.2,12.6.07,25.17-1.05,37.67h8.38v-37.67ZM596.4,1044.01v-30.87l-5.41,9.76c-10.72,13.27-28.36,18.88-45.02,15.04-18.22-4.2-27.95-21.72-49.27-13.07-7.48,3.03-22.76,17.49-12.2,24.32,12.86,8.32,14.29-13.09,25.49-11.96,5.63.56,14.87,8.72,21.28,11.24,19.81,7.81,46.37,5.16,65.14-4.46ZM163.97,1028.01c-9.34,2.1-8.57,16.3.91,17.55,14.09,1.85,14.86-21.09-.91-17.55Z"/>
      <path class="cls-2" d="M0,78.8l9.97,9.39c62.47,48.73,145.42-10.62,119.78-85.76l26.69,11.49c1.79,10.79,4.58,21.38,3.64,32.45l-18.82-7.32-2.09,17.78,20.92-4.17c-.99,13.84-4.86,27.19-10.47,39.75-1.11.84-13.71-15.4-17.15-14.58-2.28,4.99-9.45,11.58-11.07,16.17-.79,2.23.15.98,1.08,1.11,7.2.97,14.74.94,21.93,2.54l-8.37,12.08c-44.18-8.82-94.1,3.04-123.43,38.69-4.72,5.74-7.62,12.76-12.59,18.28v-87.89ZM26.87,110.52c-9.64-8.83-21.41,7.57-9.46,14.18,7.85,4.35,16.34-7.88,9.46-14.18Z"/>
      <path class="cls-2" d="M124.51,1061.28h-18.31c-2.83-2.37-1.16-6.58-1.58-9.93-1.83-14.5-10.28-27.4-22.99-34.56-32.5-18.31-66.01,10.49-64.88,44.49H3.13c-.05-37.46,14.82-83.85,59.2-85.8,30.45-1.34,62.18,30.13,62.18,60.16v25.63ZM118.22,1033.02c-3.64-44.5-56.26-71.3-90.02-37.15-.93.94-.71,2.91-1.16,3.48-.13.17-1.49-.86-2.97.62-3.27,3.25-8.4,13.95-7.86,18.4,8.82-11.36,20.12-21.49,34.38-25.26,22.34-5.91,46.26,5.27,59.09,23.88l8.54,16.03Z"/>
      <path class="cls-2" d="M337.96,965.02c13.36,6.02,24.37,8.54,38.69,3.64,1.55-.53,7.72-4.4,8.39-3.63-.3,6.53,1.79,12.84,2.15,19.3,1.01,18.14,1.31,44.9-.01,62.87-.32,4.4-1.98,8.58-2.17,13l-38.46.87c-4.82-7.1-6.9-14.25-7.53-22.8,8.34,7.51,19.81,11.94,31.09,8.6,1.85-.55,15.02-8.41,12.84-10.69-18.58,19.56-46.58,3.34-43.92-21.97,9.47,10.1,25.91,15.47,36.61,4.2-11.43,5.38-23.95,4.16-31.82-6.38-1.52-2.03-5.85-10.02-5.85-11.94v-35.05ZM357.53,976.75c-2.41.56-8.46,6.18-9.37,8.41-5.4,13.3,8.34,29.29,22.16,20.06,15.33-10.24,5.22-32.63-12.79-28.48Z"/>
      <path class="cls-2" d="M117.05,1.5c20.37,48.94-18.18,102.98-71.9,91.26C24.64,88.28-1.87,68.56.52,45.32c10.54,21.31,29.67,38.59,54.36,39.8,44.54,2.19,70.91-44.72,52.89-83.75l9.27.13Z"/>
      <path class="cls-2" d="M9.42,1.37c-4.15,22.39,3.84,47.43,24.41,58.77,38.95,21.47,76.88-21.78,56.15-58.76l9.25.17c18.61,37.41-10.48,82.33-53.23,72.58C12.91,66.57,3.04,30.97,0,1.38h9.42Z"/>
      <path class="cls-2" d="M.23,690.67l-.06-16.88c7.18-8.88,23.48-13.62,21.81-26.85l18.32,10.44-.03,15.69-20.84,16.82c-2.46,1.86.65,14.63-2.16,14.57L.23,690.67Z"/>
      <path class="cls-2" d="M19.88,708.67c.11-3.43-.75-6.94.99-10,.84-1.48,18.17-17.19,18.88-16.16v32.44c-.33.46-8.1-8.02-7.32,0l-3.6-2.05c-4.27,2.23-4.15,3.57-3.72,8.34h-3.13c-.22-2.98.01-6.57-.59-9.44-.23-1.1.04-3.4-1.51-3.12-.29,8.89,1.31,20.78.58,28.83-.26,2.92-6.28,8.49-3.7,14.07l6.25-7.85,17.8-14.11v28.25l-17.78,12.55c.93-13.8-15.57-20.28-22.81-30.03l.32-17.04,19.34-14.66Z"/>
      <path class="cls-2" d="M893.29,438.95c23.4-3.39,31.45,33.13,7.85,37.19-29.56,5.09-31.03-33.83-7.85-37.19Z"/>
      <path class="cls-2" d="M980.39,1022.56c19.92-22.58,14.06-58.38-12.9-72.37l-19.53-7.13c48.81-15.38,81.97,59.23,32.43,79.5Z"/>
      <path class="cls-2" d="M85.95,1061.11c-.43-.27-2.91-6.39-5.45-8.66-12.26-10.95-35.96-8.38-40.83,8.8l-8.28.03c-.42-44.32,56.26-44.79,60.44-1.52-.31,1.73-4.69,2.09-5.88,1.35Z"/>
      <path class="cls-2" d="M74.29,16.54c-2.19,15.58-21.4,24.22-34.01,14.13-7.68-6.15-10.83-20-7.7-29.15l9.71-.21c.2,10.65,15.14,13.94,21.47,6.81,3.47-3.9.71-8.55,10.51-6.75-.47,4.77.65,10.56,0,15.17Z"/>
      <polygon class="cls-2" points="38.21 204.41 51.21 224.61 31.91 238.84 15.71 220.57 38.21 204.41"/>
      <path class="cls-2" d="M60.4,352.12c13.59-2.77,26.74,11.16,20.03,24.21-8.44,16.4-34.79,10.04-32.2-10.24.73-5.75,6.42-12.8,12.17-13.97ZM62.47,360.47c-10.98,2.51-7.36,21.55,6.64,17.09,9.46-3.01,5.57-19.89-6.64-17.09Z"/>
      <polygon class="cls-2" points="135.9 188.78 132.74 211.53 107.18 209.62 107.76 186.56 135.9 188.78"/>
      <polygon class="cls-2" points="84.72 187.64 89.55 210.67 65.94 216.9 59.03 193.85 84.72 187.64"/>
      <path class="cls-2" d="M18.83,6.6c3.03,1.49,1.73,6.81,2.36,9.67,8.94,40.26,54.6,42.2,62.52,1.84,1.82,0,1.15,4.58,1.08,5.79-1.61,28.64-34.77,40.59-54.97,20.35-3.37-3.38-10.99-15.98-10.99-20.39V6.6Z"/>
      <path class="cls-2" d="M150.8,217.83l6.16-20.8c1.21-1.1,22.57,11.57,25.04,14.11l-9.88,17.26-21.32-10.57Z"/>
      <path class="cls-2" d="M0,280.73v-38.19c0-.42,4.97-4.68,5.76-5.74,1.17,4.37,14.25,11.93,13.98,14.97L0,280.73Z"/>
      <path class="cls-2" d="M206.1,254.57c-1,.23-1.35-.08-2.1-.49-.93-.52-15.33-13.6-15.42-14.66,1.04-2.46,9.12-11.46,10.94-11.94,3.17-.83,13.94,12.65,16.97,15.2l-10.4,11.88Z"/>
      <path class="cls-2" d="M240.65,273.39l-14.02,7.27-9.96-13.92,11.8-8.95c.84.14,10,11.33,11.14,13,.59.87,1.48,1,1.04,2.61Z"/>
      <path class="cls-2" d="M153.51,784.23c17.05-3.9,16.11,18.2,2.94,17.63-9.96-.43-12.47-15.46-2.94-17.63Z"/>
      <path class="cls-2" d="M840.91,967.44c6.65,6.18,1.2,17.28-8.34,15.17-14.5-3.22-2.57-25.3,8.34-15.17Z"/>
      <path class="cls-2" d="M849.29,941.17c17.21-5.08,15.12,20.74.26,16.05-6.84-2.16-6.54-14.2-.26-16.05Z"/>
      <path class="cls-2" d="M876.51,919.21c16.6-3.77,12.9,21.16-.48,15.71-6.67-2.71-5.78-14.29.48-15.71Z"/>
      <path class="cls-2" d="M809.07,59.7c-7.51-8.11,6.53-20.59,12.35-10.8,5.24,8.81-6.62,16.99-12.35,10.8Z"/>
      <path class="cls-2" d="M216.21,136.6c10.64-1.09,11.59,14.54.87,14.27-8.29-.21-8.66-13.48-.87-14.27Z"/>
      <path class="cls-2" d="M222.03,164.83c9.39-2.99,15.87,8.5,6.3,13.16-8.4,4.09-11.81-7.43-6.3-13.16Z"/>
      <path class="cls-2" d="M245.88,97.64c-10.04,8.05-19.69,16.54-25.63,28.22-3.98-4.19,2.29-13.39,5.22-16.73,5.19-5.91,13.07-9.18,20.41-11.49Z"/>
      <path class="cls-2" d="M840.94,471.37c13.69-3.04,13.44,21.34.24,15.01-7.05-3.39-7.66-13.36-.24-15.01ZM847.25,483.45c2.9-2.94,1.16-9.55-3.38-9.77-9.88-.48-2.77,16.02,3.38,9.77Z"/>
      <path class="cls-2" d="M634.86,905.63c3.21,3.2,1.43,11.29-5.25,10.05-10.78-2-1.41-16.69,5.25-10.05Z"/>
      <path class="cls-2" d="M982.48,1061.28c-.55-2.39.37-1.71,1.31-2.41,5.79-4.31,15.5-3.82,21.4.06,1,.66,1.87-.14,1.35,2.34h-24.07Z"/>
      <polygon class="cls-2" points="37.66 600.92 34.54 606.13 32.42 599.86 27.2 602.99 27.2 598.82 37.66 600.92"/>
      <path class="cls-2" d="M27.73,633.34c.68.35.68.7,0,1.05v-1.05Z"/>
      <path class="cls-2" d="M806.91,655.09c-16.03-21.65-16.11-42.5-4.25-66.07,3.72-7.39,5.55-13.46,15.02-13.31,39.06.59,48.86,41.06,20.89,64.92-4.52,3.86-26.67,17.38-31.67,14.46ZM822.12,596.97c-20.65,3.47-18.61,38.11,5.73,36.15,24.27-1.95,20.83-40.62-5.73-36.15Z"/>
      <path class="cls-2" d="M740.57,576.1c3.17-.34,11.13-1.22,13.31.72.88.78,7.75,15.26,8.63,17.53,7.5,19.34,7.41,34.7-3.1,52.91-2.81,4.87-4.24,9.19-10.29,7.57-11.16-3-28.74-14.9-34.67-24.97-15.17-25.78-3.95-50.54,26.12-53.75ZM732.14,596.97c-21.98,3.66-17.83,37.4,4.84,36.3,23.65-1.15,22.15-40.79-4.84-36.3Z"/>
      <path class="cls-2" d="M792.05,696.12l-19.92-1.53c-2.13-3.68-2.96-8.07-4.88-11.83-.99-1.94-4.21-.77-1.41-5.01.95-1.44,13.3-14.86,14.32-15.04l16.95,16.29c-2.11,5.61-5.62,10.76-5.07,17.12Z"/>
      <path class="cls-2" d="M781.58,631.25c2.87,9.56,6.37,18.74,12.59,26.66,1.41,1.79,9.59,9.5,9.39,10.47-.5,2.49-2.97.67-4.1-.06-8.8-5.73-13.71-16.11-17.77-25.14-.56-1.24.49-1.88-2.18-1.47-3.08,11.27-11.66,24.24-23.02,28.25l12.35-15.37c5.2-6.26,6.81-15.47,10.42-22,.66-1.19-.07-1.78,2.32-1.34Z"/>
      <path class="cls-2" d="M749.14,285.96l-13.58,11c16.43,6.9,2.6,24.36-11.26,17.53-2.28-1.12-2.67-4.5-4.92-4.5l-14.15,7.9c5.69,1.59,9.64,5.69,6.77,12.01-1.21,2.66-10.77,6.34-13.47,6.26-4.86-.15-11.35-6.34-14.64-6.23-3.95.13-7.96,4.3-12.16,4.18-.68,3.05,3.43,2.47,4.71,5.24,2.97,6.45-4.13,10.68-9.72,11.27-1.5.16-8.81-1.17-10.18-1.76-3.27-1.39-5.91-5.83-9.45-6.33-2.34-.33-7.25,1.05-9.88,1,9.37,8.26.95,15.12-9.69,13.34-3.76-.63-13.12-4.82-7.04-7.57l-3.15-4.72c1.24-.98,16.14-1.79,19.09-2.37,37.79-7.4,82.66-29.26,108.92-57.4,4.64-4.97,9.49-16.43,18.2-12.69,10.38,4.46,4.17,19.1-6.52,19.18-3.62.02-8.51-.98-7.87-5.33Z"/>
      <path class="cls-2" d="M825.21,197.36c6.11,5.6,1.11,16.54-7.52,16.51-19.45-.08-5.82-28.73,7.52-16.51Z"/>
      <path class="cls-2" d="M786.45,261.53c-6.81,6.81-15.69-.91-17.8-.56-1.53.25-2.46,3.69-4.85,3.01,1.61-2.6,11.71-17.36,13.29-17.8,9.44-2.62,16.07,8.62,9.35,15.34Z"/>
      <path class="cls-2" d="M786.83,235.74c2.9-7.56,8.92-17.24,18.17-12.42,10.84,5.65.28,20.68-8.49,16.87-3.67-1.6-4.88-7.57-9.68-4.45Z"/>
      <path class="cls-2" d="M410.98,256.98c68.63-5.92,69.78,99.39-1.33,92.79-54.83-5.09-57.34-87.73,1.33-92.79ZM414,264.39c-53.4,1.4-48.41,82.49,5.04,78.06,48.86-4.05,46.19-79.4-5.04-78.06Z"/>
      <path class="cls-2" d="M447.83,236.79l-6.28-16.74c2.63-.2,8.24-.2,9.24,2.78.68,2.03.69,17.34-2.96,13.95Z"/>
      <path class="cls-2" d="M561.5,446.42c37.9,35.51-16.8,96.44-59.76,59.24-43.01-37.24,18.27-98.13,59.76-59.24ZM524.94,460.92c-15.72,3.54-16.06,31.86,5,32.29,25.38.52,21.51-38.26-5-32.29Z"/>
      <path class="cls-2" d="M319.92,599.08c56.49-8.19,62.34,72.28,13.22,78.09-55.35,6.54-59.1-71.44-13.22-78.09ZM325.14,618.88c-23.34,4.5-9.5,39.75,10.2,27.02,14.17-9.16,2.79-29.52-10.2-27.02Z"/>
      <path class="cls-2" d="M395.51,905.37c10.15,3.47,19.75,3.93,30.34,2.12-22.47,41.87-90.23,46.31-120.3,10.95-2.92-3.43-5.09-8.2-8.39-11.49,5.45.33,9.32,1.93,15.21,1.61,5.57-.31,10.64-2.81,16.17-3.18l-3.13-6.26c23.58-11.16,50.02-11.45,73.21.5l-3.11,5.75ZM399.69,925.28c-24.04-9.78-52.61-9.98-76.36.51,1.24,1.8,2.76,1.64,4.69,1.65,14.22.09,28.74-4.26,45.04-3.27,7.51.46,16.82,3.35,23.99,3.23,2.13-.04,3.08.65,2.64-2.12Z"/>
      <path class="cls-2" d="M589.88,163.84c52.83-4.91,63.81,72.34,10.97,82.12-56.09,10.38-67.31-76.88-10.97-82.12ZM587.75,182.63c-5,.85-10.27,4.7-13.3,8.67-16.1,21.08,9.99,47.64,32.76,32.76,21.22-13.88,6.96-45.92-19.46-41.43Z"/>
      <path class="cls-2" d="M803.28,799.9c13.53-3,16.7,18.33,2.8,19.67-12.69,1.22-14.02-17.18-2.8-19.67Z"/>
      <path class="cls-2" d="M785.25,842.05c7.83-1.09,12.55,8.92,5.23,14.15-11.61,8.3-19.62-12.14-5.23-14.15Z"/>
      <path class="cls-2" d="M1023.29,169.82v79.52c-2.45.14-1.85.36-2.09-1.55-1.15-8.99.14-21.89.05-31.45-.09-8.37-.23-15.51,0-23.98.18-6.56-.84-14.78-.05-20.99.24-1.91-.36-1.69,2.09-1.55Z"/>
      <path class="cls-2" d="M918.67,601.95c3.87,3.88,22.14,11.5,13.53,18.24-9.59,7.52-15.43-11.12-13.53-18.24Z"/>
      <path class="cls-2" d="M949.69,609.6c8.66-.45,8.5,11.75.8,12.22-8.52.52-9.18-11.78-.8-12.22Z"/>
      <path class="cls-2" d="M493.58,811.39c12.6-2.58,16.74,17.02,4.74,19.52-11.44,2.38-16.88-17.04-4.74-19.52Z"/>
      <path class="cls-2" d="M250.88,398.21c23.13-2.76,41.02,11.72,54.57,28.62-19.16,30.01-51.58,45.81-81.56,18.71-2.64-2.39-14.34-14.91-15.18-17.34-.73-2.12.46-3.05,1.6-4.64,7.37-10.24,27.91-23.84,40.56-25.35ZM246.24,438.37c12.37,12.37,33.42-7.09,19.42-19.95-13.67-12.56-31.23,8.15-19.42,19.95Z"/>
      <path class="cls-2" d="M324.07,54.97c21.14-4.37,24.89,24.23,7.9,27.76-20.59,4.28-24.6-24.31-7.9-27.76Z"/>
      <path class="cls-2" d="M896.45,159.65c37.5-1.1,27.74,59.14-8.44,44.48-22.25-9.02-16.35-43.75,8.44-44.48ZM910.3,197.03c17.34-14.87-4.46-42.91-22.98-30.81-1.25.81-8.41,7.66-7.36,8.84,1.88-3,5.19-2.16,6.29-2.74,2.1-1.1,2.51-3.23,6.18-4.13,7.76-1.9,15.24.15,18.95,7.35,5.02,9.74-.28,18.94-9.77,22.74-11.11,4.45-21.7-8-19.58-19.04l-2.07,5.22c.07-1.54-.88-3.11-.78-4.59.12-1.97,3.51-3.48-.26-4.82-6.06,17.9,17.19,38.29,30.32,20.39l1.07,1.58Z"/>
      <path class="cls-2" d="M993.99,685.65h16.22c8.02,0,9.27-29.88,3.72-35.11-4.12-3.88-9.45-1.31-14.2-1.44-5.17-.14-9.92-2.27-15.64-.04l-29.71.1c-2.5,1.57-.57,30.5-1.2,35.43h6.8s12.03,2.08,12.03,2.08l-25.03-1.11c1.11-12.48-8.06-41.14,10.86-42.88,12.03-1.11,39.51-1.3,51.32.05,7.21.82,13.03,5.81,14.03,13.17,1.07,7.89,2.1,28.3-7.98,30.55-11.03,2.47-29.59-1.24-41.46.05-5.96-6.48-11.5-14.4-5.34-22.79,10.43-14.2,40.02-4.08,29.97,15.32-1.34,2.59-4.28,3.65-4.39,6.59Z"/>
      <path class="cls-2" d="M29.04,877.35c16.03-2.59,18.01,18.71,5.79,21.53-16.68,3.85-19.83-19.25-5.79-21.53Z"/>
      <path class="cls-2" d="M559.5,996.57c12.01-2.17,17.13,19.34,2.63,20.57-11.3.95-13.37-18.63-2.63-20.57Z"/>
      <path class="cls-2" d="M560.55,919.16c16.07-3.27,15.52,25.03-.01,21.59-10.69-2.37-10.48-19.46.01-21.59Z"/>
      <path class="cls-2" d="M619.03,570.63c6.66-.61,7.58,13.03,1.93,13.6-6.28.64-5.76-12.49-1.93-13.6Z"/>
      <path class="cls-2" d="M452.67,803.11c8.69-.92,11.25,13.05.87,13.42-9.83.34-7.71-12.69-.87-13.42Z"/>
      <path class="cls-2" d="M358.58,981.98c16.47-3.83,18.79,18.4,4.53,20.26-12.6,1.64-14.05-18.05-4.53-20.26Z"/>
      <path class="cls-2" d="M824.25,604.24c17.04-2.49,16.46,24.38.22,21.35-12.28-2.29-11.91-19.64-.22-21.35ZM825.25,607.35c-7.99,1.23-9,16.71,2.86,14.47,8.42-1.59,4.95-15.67-2.86-14.47Z"/>
      <path class="cls-2" d="M727.51,622.55c-9.23-10.44,6.56-25.79,15.94-15.42,10.64,11.77-7.16,25.34-15.94,15.42ZM734.23,607.37c-8.48,1.79-7.35,16.86,2.67,15.32,9.03-1.39,7.08-17.38-2.67-15.32Z"/>
      <path class="cls-2" d="M395.86,323.27c-27.31-26.22,17.95-67.02,41.49-34.68,19.25,26.44-18.53,56.73-41.49,34.68ZM413.07,280.96c-19.74,1.98-28.77,27.03-12.36,40.08,19.06,15.17,45.61-5.52,35.14-26.77-3.74-7.6-14.14-14.18-22.78-13.31Z"/>
      <path class="cls-2" d="M524.51,480.25c-5.38-7.15,8.93-14.3,11.83-4.93,1.7,5.51-7.75,10.35-11.83,4.93Z"/>
      <path class="cls-2" d="M324.04,626.22c11.66-3.55,14.91,12.1,5.6,15.04-11.62,3.67-12.41-12.97-5.6-15.04Z"/>
      <path class="cls-2" d="M589.81,198.3c10.78-3.17,16.3,9.5,6.84,14.19-10.52,5.22-14.87-11.83-6.84-14.19Z"/>
      <path class="cls-2" d="M421.33,310.74c-8.48,7.75-21.05-4.03-13.3-12.77,8.18-9.21,22.29,4.55,13.3,12.77Z"/>
    </g>
  </g>
</svg>