<?xml version="1.0" encoding="UTF-8"?>
<svg id="Camada_1" data-name="Camada 1" xmlns="http://www.w3.org/2000/svg" viewBox="0 0 1024 768">
  <defs>
    <style>
      .cls-1 {
        fill: #b89458;
      }
    </style>
  </defs>
  <path class="cls-1" d="M753.53,197.59c19.52-12.21,1.69-19.47-12.95-17.72,1.75,7.35,7.51,12.94,12.95,17.72Z"/>
  <path class="cls-1" d="M721.09,214.36c-2.81,6.93-23.37,30.63-30.31,32.09-5.35,1.13-20.11-11.19-22.04-15.43-2.62-5.77,12.74-13.4,6.18-20.58-6.06-6.63-13.02-3.04-18.55,2.09-4.87,4.51-8.52,10.06-4.36,16.37,2.93,4.44,25.7,23.38,31.27,27.73,1.81,1.41,4.13,3.52,6.55,3.39,10.81-.57,40.89-41.61,50.73-49.56,4.95-4.41-.96-9.49-4.41-13.39-2.08-2.35-17.96-16.78-19.51-17.22-3.76-1.07-11.78.78-16.14,0,8.2,11.72,27.63,17.15,20.59,34.5Z"/>
  <path class="cls-1" d="M589.9,192.02l7-6.2c-2.76-7.09-9.14-6.98-15.5-4.84-1.42,2.05,6.64,9.71,8.5,11.04Z"/>
  <path class="cls-1" d="M624.15,208.11c-7.42,7.49-14.21,16.01-21.57,23.53-8.55,8.73-25.25,22.11-31.76,30.57-.85,1.11-2.16,1.41-1.66,3.34,4.88,1.31,11.36,2.24,15.99-.13,3.33-1.7,4.85-5.92,7.33-8.25,7.77-7.26,15.99-14.79,23.94-21.64,2.85-.06,17.38,10.41,20.53,12.87,4.15,3.24,16.91,16.73,19.04,17.69,2.08.94,13.64,1.03,15.97.43,1.24-.32,2.47-1.54.73-2.65l-46.76-40.05c0-1.73,21.33-21.81,24.46-24.5,13.01-11.21,16.18-12.8,30.08-1.11,11.9,10.01,12.78,15.33,4.62,29.16,3.97,10.53,12.46.49,16.33-4.85,2.93-4.05,6.39-10.2,4.74-15.39-1.86-5.81-20.97-21.75-26.77-24.53-5.77-2.77-20.1-4.26-25.97-2.51-1.94.58-25.6,24.32-29.27,28.03Z"/>
  <path class="cls-1" d="M633.72,265.56c-.89-5.54-10.63-14.59-16.17-14.55-3.73.03-12.85,9.99-13.9,13.99.06,2.45,26.8,2.11,30.07.56Z"/>
  <path class="cls-1" d="M712.77,256.13c-1.88,2.02-11.17,8.31-8.93,10.54l13.97-1.05c28.93-28.82,56.05-59.4,87.32-85.77h-31.17c4.81,6.99,1.32,11.67-3.37,17.22-16.77,19.83-39.61,39.44-57.82,59.05Z"/>
  <path class="cls-1" d="M827.88,241.15c8.37,34.32,80.92,43,74-9.44-4.28-32.42-51.95-26.12-53.28.07-.84,16.56,29.97,21.81,27.8,6.57-1.12-7.87-17.11-1.29-12.82-10.61,4.54-9.88,22.78-4.94,25.65,4.37,4.35,14.12-3.27,25.75-17.83,26.81-38.13,2.77-44.92-44.45-11.77-58.51,47.73-20.26,77.59,49.38,38.22,72.73-28.54,16.92-66.18,7.14-78.45-24.62-4.16-10.77-3.12-18.53-2.59-29.71-19.04,12.4-34.19,29.71-49.51,46.22-.47,2.52,1.1,1.53,2.76,1.65,4.01.3,8.2-.11,12.25.01,3.32.1,12.4,2.95,14.82-1.33,2.96-5.22-8.08-7.92-7.49-11.33l11.6-9.66c9.54,3.24,6.33,20.36,12.82,25.07,3.44,2.5,15.5,4.03,20.79,5.93,20.82,7.46,20.81,17.33,47.52,14.54,34.69-3.62,48.82-29.62,42.49-62.25-1.86-9.61-3.58-15.92-11.83-21.56-10.24-7-34.58-17.89-46.61-20.18-2.88-.55-4.98-.96-7.92,0-1.84.6-21.64,16.19-23.86,18.43-9.74,9.87-9.89,23.94-6.76,36.8Z"/>
  <path class="cls-1" d="M461.98,239.01c-2.49.66-23.42,21.05-25.08,23.98-.76,1.33-1.92,1.94-.23,3.16,14.11,4.33,14.78-3.73,22.86-9.5,7.85-5.6,12.16,7.64,18.29,9.53,3.41,1.05,11.77,1.44,14.53-1.19.41-1.94-17.18-17.77-20.02-20.03-2.29-1.83-7.66-6.67-10.35-5.95Z"/>
  <path class="cls-1" d="M168.91,207.62l-.49,12.32,8.42-1.05c1.4-7.45,1.87-15.79-7.93-11.27Z"/>
  <path class="cls-1" d="M244.16,180.42c.32-3.29-6.17-1.31-8.22-1.5l-1.84,1.49v86.27l8.9-1.12,1.17-85.13Z"/>
  <path class="cls-1" d="M514.02,201.04c7.63,7.32,19.8,19.75,27.86,25.57,2.05,1.48,7.79,4.53,10.07,4.4,2.97-.17,14.51-12.08,17.23-14.94,2.12-2.24,11.4-11.83,12.28-13.33,2.11-3.59.71-5.56-1.7-8.44-.93-1.11-12.72-11.65-13.53-12.07-2.79-1.44-6.33-2.03-9.3-.67-1.04.48-15.7,15.12-16.21,16.15-1.4,2.81,4.52,9.02,7.39,8.38,6.28-1.39,9.7-17.84,18.32-9.58,1.39,1.34,3.09,3.99,2.58,5.95-.83,3.18-17.62,17.89-21.77,16.67-3.19-.94-21.57-17.69-21.48-20.92.09-3.27,14.68-14.16,16.68-18.34h-48.98c6.55,7.29,13.49,14.39,20.56,21.18Z"/>
  <path class="cls-1" d="M276.76,263.54c12.11,4.98,36.65,4.73,48.66-.71,56.06-25.39,11.42-113.63-41.13-73.41-25.64,19.63-12.78,59.64,21.51,54.91,15.22-2.1,27.42-24.71,14.58-35.54-11.03-9.3-34.01,1.1-19.46,13.98,4.24,1.78,7.04-6.16,8.31-6.15,11.12,16.36-17.51,24.48-24.27,7.55-12.45-31.18,39.32-45.98,50.48-15.97,17.89,48.1-53.54,66.12-70.97,28.67-8.72-18.73-6.53-41.03,7.46-56.43l-13.69-1.47c-4.21,1.29-7.78,17.54-8.26,21.8-2.68,23.7,2.17,52.67,26.77,62.78Z"/>
  <path class="cls-1" d="M172.37,242.14c1.95,0,3.81.95,5.52.94,2.71-.02,18.42-1.1,18.99-1.93.42-20.27,3.87-41.02-1.7-60.82-18.57-.1-35.24,2.36-52.37,9.56l.52,50.11c2.26,3.42,23.94,2.12,29.03,2.14ZM156.18,199.34c.09-.53,1.2-2.67,1.87-2.83,6.68.88,21.92-3.54,27.44-.04,4.57,2.9.08,29.59.75,35.71-9.89.69-21.08,2.98-30.06-1.67,1.09-9.49-1.48-22.11,0-31.17Z"/>
  <path class="cls-1" d="M135.55,266.63c27.99-.32,56.21.82,84.07-.52.51-.24,2.14-1.84,2.24-2.21v-83.48l-1.81-1.59-10.43,1.03v74.02l-1.67,1.67h-76.25l-1.67-61.2c-5.18,4.37-8.65,3.98-9.46,11.67-1.52,14.45-.65,42.09,1.22,56.69,1,7.79,8.74,3.98,13.76,3.92Z"/>
  <path class="cls-1" d="M379.75,265.94l83.1-80.5c20.46,21.6,43.72,40.17,66.25,59.52,8.91,7.66,18.78,23.69,31.17,11.16l73.45-76.26h-18.37c-3.03,4.63-6.33,9.24-10,13.37-8.91,10.03-18.42,20.51-27.83,30.05-3.07,3.11-23.93,23.21-25.66,23.39-4.96.52-20.49-16.61-24.99-20.64-16.84-15.06-34.42-29.34-50.13-45.6l-26.76-.08-83.42,84.66c4.22,1.37,8.84,2.5,13.18.92Z"/>
  <path class="cls-1" d="M397.73,179.86h-22.26l6.12,18.9c5.89-5.81,12.08-11.58,16.14-18.9Z"/>
  <path class="cls-1" d="M363.27,222.67c.52,8.22-1.34,15.86-1.16,23.98l2.81.05,67.31-66.83c-7.35.33-14.17-1.76-20.3,3.31-8.38,6.94-18.54,20.2-26.42,28.43-1.2,1.26-10.03,10.77-11.15,9.43-.5-19.4-6.53-45.15-31.17-41.17,11.97,11.12,19.05,26.38,20.08,42.8Z"/>
  <path class="cls-1" d="M895.3,329.03l7.74,19.56c1.75,1.25,7.93-2.72,8.81-4.69.41-2.11-11.42-19.99-16.55-14.87Z"/>
  <path class="cls-1" d="M914.36,293.1l54.01,69.14c1.95.37,16.12-11.02,18.73-13.21,2.85-2.39,13.83-11.6,15.11-13.82,4.21-7.24-5.3-15.32-6.72-13.98,1.26,5.7-25.07,25.96-26.76,25.12l-39.43-48.54c-1.53-5.01-1.37-9.27,4.35-10.03,16.28-2.16,36.21,2.35,52.92-1.07-2.53-2.76-4.77-10.45-8.34-11.13-13.97,1.51-32.17-2.05-45.58.07-3.76.59-17.81,14.15-18.29,17.45Z"/>
  <path class="cls-1" d="M922.03,366.32c3.38-3.09,16.14-14.89,17.85-17.77.87-1.46,1.58-2.48.9-4.27l-36.6-43.63c-8.57-2.2-17.12,1.86-25.57,2.77l8.57,12.1c3.63,1.06,12.29-5.5,16.54-2.17,2.69,6.97,22.74,25.74,23.63,30.9.82,4.73-16.7,17.55-21.85,18.35l.94,16.52c5.24-4.08,10.69-8.3,15.59-12.79Z"/>
  <path class="cls-1" d="M805.67,482.61c114.25-15.71,110.81-184.61-2.16-199.28l-583,.39c-92.16,10.79-120.06,129.57-43.99,183.58,19.76,14.03,31.39,14.99,54.74,15.28,191.41,2.38,382.98-1.64,574.4.04Z"/>
  <path class="cls-1" d="M583.27,504.69c10.45,9.53,24.38,17.76,34.88,27.46,2.42,2.24,7.12,9.33,8.93,10.08,5.01,2.1,9.15-7.17,5.59-11.25-9.55-5.8-27.27-29.06-37.43-30.49-4.42-.62-9.37,1.02-13.83,1.06-.52,2.12.78,2.14,1.86,3.13Z"/>
  <path class="cls-1" d="M529.08,265.56l-1.66-3.34-64.63-56.82-60.62,59.6c5.58.48,11.41,3.14,16.62-.08,13.49-10.8,25.68-28.64,39.02-38.88,1.49-1.14,2.74-2.64,4.86-2.54,2.28.23,20.37,14.92,23.52,17.61,7.09,6.05,23.17,24.64,31.17,25.59,3.91.46,7.96-.05,11.71-1.14Z"/>
  <path class="cls-1" d="M974.05,318.12c-16.42,2.27-6.4,20.69,3.45,6.83,3.49-4.92,3.29-7.76-3.45-6.83Z"/>
  <path class="cls-1" d="M941.49,263.34h29.5c-1.55-13.9-17.81-5.6-22.77-11.17-5.25-5.9,4.76-9.74,3.72-13.64-4-5.47-8.28-10.88-14.35-14.15v36.18c0,.25,3.48,2.78,3.9,2.78Z"/>
  <path class="cls-1" d="M949.28,308.98h46.19c-.63-4.27-2.82-12.07-8.29-11.19l-36.33,1.63c-4.74,1.27-4.33,9.57-1.58,9.57Z"/>
  <path class="cls-1" d="M219.61,513.26c-.25-2.81-1.89-12.89-4.07-13.74l-10.37-2.42c4.21,19.69,4.2,37.29-1.11,56.77,16.93-8.8,17.08-23.26,15.55-40.61Z"/>
  <path class="cls-1" d="M169.54,276.7h-20.59c-.2,0-2.78,2.59-2.78,2.78v20.59l22.11-18.52,1.27-4.86Z"/>
  <path class="cls-1" d="M130.56,278.4c-4.92-3.52-8.92-1.67-8.99,4.4-.11,11.2,2.09,29.59,3.56,41.11.15,1.16.61,2.24.95,3.34l2.26.63,8.76-16.07c-3.22-7.51-.47-29.07-6.54-33.42Z"/>
  <path class="cls-1" d="M357.38,254.72c-.85-.88-2.91-1.54-4.13-.88l-10.06,11.72,13.37-.53c2.52-2.2,3.09-7.95.82-10.3Z"/>
  <path class="cls-1" d="M230.76,502.11v20.59c1.55.07,2.13.34,3.39-.75,1.4-1.22,13.89-14.38,14.48-15.33,2.92-4.75.67-5.77-3.94-6.18-2.54-.23-13.17-.79-13.92,1.67Z"/>
  <path class="cls-1" d="M515.74,507.69c1.95-1.78,4.15-3.89,5.55-6.13-7.33-.93-13.92-1.92-21.17.53-3.58,5.98-3.2,11.85-2.21,18.39,1.74.3,2.57-.17,3.95-1.06,3.24-2.11,10.68-8.8,13.87-11.73Z"/>
  <path class="cls-1" d="M527.38,528.24c8.94-7.44,20.88-16.64,28.95-24.48,1.1-1.07,2.09-1.45,1.69-3.32h-18.37c-2.64,0-33.67,31.95-39.54,35.04-3.81,3.97-1.46,9.36-.53,13.95,2.94.02,23.85-17.91,27.79-21.19Z"/>
  <path class="cls-1" d="M358.21,501.57c-1.22.31-2.12-.79-1.69,1.66.27,1.51,5.51,8.92,6.76,9.93,3.98,3.23,6.53,1.58,9.98-1.02,1.23-.93,10.09-9.5,8.88-10.59-8.6.43-15.34-2.17-23.93.02Z"/>
  <path class="cls-1" d="M736.15,265.02c.13,2.44,13.95,2.33,16.17.61,26.11-31.7,55.98-59.56,88.43-84.65l-17.2-1.06c-33.53,23.35-59.68,55.43-87.4,85.1Z"/>
  <path class="cls-1" d="M898.64,487.6c-.5,2.48-6.38,1.47-8.27,1.78-6.81,1.12-5.01,5.45-5.08,11.06h32.84l1.54-2.62-27.15-45.23c-3.84-3.58-9.66,1.14-10.4,5.26-1.16,6.42,17.38,25.5,16.53,29.76Z"/>
  <path class="cls-1" d="M873.04,534.94h-26.16c-.56,0-9.06,1.41-9.48,1.65-2.11,1.22-2.4,6.08-2.21,8.37h27.83c.11,6.12-.13,12.28-.05,18.41.05,3.32,3.09,16.09-3.85,16.09h-56.21c-.17-2.46-.98-4.7-1.16-7.19-1.07-14.71-1.35-41.25,0-55.74,1.02-10.89,6.22-11.28,15.59-13.35,12.59-2.79,26.33-3.2,39-6.08v-15.58c-11.14,8-24.08,13.69-37.62,16.37-5.51,1.09-21.59,1.29-24.11,4.84-3.19,4.49-1.41,21.85-1.68,28.38-.11,2.64-1.13,5.07-1.2,7.7-.44,16.21-.06,32.8,1.35,48.84l.85,1.38c15.69.23,65.66,1.03,77.2-8.37,3.29-2.68,1.71-19,1.86-24.04.2-6.92,2.9-14.42.05-21.66Z"/>
  <path class="cls-1" d="M741.69,500.44c1.85,5.72,5.85,10.36,7.83,16.09,4.86,14.06,6.16,43-4.44,54.64-22.1,24.26-69.18,11.16-66.88-22.29.86-12.54,17.67-22.14,26.78-12.3,2.47,2.67,4.04,9.71,5.82,11.43,3.39,3.26,9.7.67,11.42-3.09,2.99-6.53-10.48-19.47-16.46-21.36-42.33-13.44-51.51,46.46-17.5,62.03,8.79,4.02,38.96,3.77,49.58,2.83,11.32-1,18.92-11.14,22-21.42,4.03-13.44,2.9-39.56.62-53.61-2.43-14.96-3.28-13.33-18.76-12.95Z"/>
  <path class="cls-1" d="M870.47,469.46c-7.22,2.19-3.16,29.31-4.06,36.04-.49,3.71-2.59,5.45-6.24,6-12.34,1.88-27.15.66-39.77,2.53-3.38.89-5.09,3.06-5.88,6.37-1.57,6.59-1.21,32.05-.53,39.64.36,4.08.4,6.71,5,7.25,5.96.7,23.19.75,29.06-.01,6.49-.84,6.35-8.86,3.13-9.91-8.75-1.52-18.23,3.52-26-1.83v-31.72c12.47-.99,26.09-.19,38.39-1.13,3.33-.25,12.81-.91,12.81-5v-46.75c0-1.66-4.22-1.99-5.9-1.48Z"/>
  <path class="cls-1" d="M782.91,515.52c-.01-1.78-1.53-12.72-2.16-13.52-1.91-2.43-6.25-1.43-9.02-1.57-1.01,29.72,3.38,60.23-5.56,89.05l12.09-.14c3.75-2.37,3.43-56.85,3.45-65.01,0-2.92,1.23-5.56,1.2-8.8Z"/>
  <path class="cls-1" d="M685.57,510.55c22.87-3,45.9,2.46,47.22,29.45.65,13.38-12.73,30.5-26.16,20.54-8.12-6.02-4.21-9.3-6.95-15.32-2.65-5.83-10.62-3.11-10.41,5.86.23,9.6,11.75,20.22,20.75,21.64,41.72,6.57,41.98-55.87,10.77-69.76-7.74-3.44-36.21-3.65-45.24-2.43-31.95,4.35-40.66,65.88-20.68,87.28l14.46.55c-21.49-20.74-18.5-73.25,16.24-77.81Z"/>
  <path class="cls-1" d="M627.02,563.31c-6.11,5.2-17.78,16.22-22.98,22.09-.42.47-1.64,2.85-1.49,2.96,3.5-.4,8.19.75,11.46-.22,6.31-1.87,10.42-19.02,16.35-.31l12.26.53c-5.93-8.58-8.55-18.69-10.03-28.93-.24-.24-4.76,3.19-5.57,3.88Z"/>
  <path class="cls-1" d="M110.55,232.17v-19.48c0-1.21-1.74-4.45-1.66-6.11-2.22,2.18-15.72,8.85-15.03,11.66l16.69,13.93Z"/>
  <path class="cls-1" d="M904.2,565c4.15.46,8.11-1.05,11.11-3.9-9.02-9.71-11.68-12.91-11.11,3.9Z"/>
  <path class="cls-1" d="M1008.32,356.8c.82-1.87-.89-9.97-2.27-9.95-4.58,5.04-30.14,23.5-30.65,28.41-.3,2.91,4.41,8.88,6.25,11.55,2.51,3.64,22.5,28.96,24.39,29.02l2.31-12.27-20.41-27.24c.19-2.35,18.48-15.23,20.37-19.51Z"/>
  <path class="cls-1" d="M905.34,397.5c-.6,3.15.34,7.24-.01,10.55,14.63-8.51,25.91-22.85,39.06-32.73,2.11-1.59,3.87-3.62,6.25-1.45,9.11,15.78,24.13,28.7,32.79,44.56,2.13,3.9,6.06,9.49,3.21,13.61l-34.01,33.87c-1.61.01-13.78-21.19-13.93-24.02-.31-5.65,14.91-11.3,8.31-19.34-1.66-2.02-3.14-2.23-5.31-1.04-1.33.73-15.33,14.5-15.8,15.5-.89,1.9-.64,2.54.03,4.37,1.23,3.39,8.33,12.76,10.75,17.12,4.1,7.39,6.76,15.63,12.65,21.9l48.43-46.15,5.25-7.85-53.72-69.54c-5.9,9.06-42.43,32.69-43.94,40.63Z"/>
  <path class="cls-1" d="M967.66,509.34c.93.97,9.66-11.28,9.82-12.98.19-2.05-3.4-4.54-4.01-6.77-2.47-9.2,6.87-9.33,13.51-9.33l12.93-31.02-40.65,40.05,8.4,20.06Z"/>
  <path class="cls-1" d="M615.39,548.26c-7.1-7.54-20.13-16.55-28.44-23.87-5.52-4.86-12.66-16.62-20.42-12.65-5.68,2.9-23.78,17.35-29.06,22.13-4.68,4.23-8.64,6.7-4.43,13.28,1.35,2.12,12.39,14.65,14.21,14.37l7.37-6.13c.47-2.8-10.22-7.71-5.96-14.77,1.59-2.64,15.6-14.49,18.27-15.24,3.91-1.09,7.42,2.82,10.56,5.14,3.58,2.65,23.77,19.31,25.13,21.62.64,1.09,1.4,1.93,1.11,3.34l-34.57,32.88,16-1.24,31.92-30.41c2.37-4.06,1.08-5.53-1.68-8.46Z"/>
  <path class="cls-1" d="M1009.95,389.12v-17.81c-11.16,4.67-11.15,12.9,0,17.81Z"/>
  <path class="cls-1" d="M920.99,554.39c4.43,2.86,7.7-1.28,9.85-5.37l-19.41-17.36c-8.29,6.98,3.41,18.76,9.56,22.73Z"/>
  <path class="cls-1" d="M926.47,532.7c5.3,1.27,7.16,8.09,12.79,8.84,4.46,0,8.54-7.56,10.58-11.05h-20.59c-.18,0-3.25,1.09-2.78,2.21Z"/>
  <path class="cls-1" d="M936.02,482.53c-6.84-11.1-18.59-28.65-23.52-39.92-2.66-6.08-1.81-8.15,2.79-12.9,5.49-5.67,15.51-14.31,21.78-19.41,2.43-1.97,5.07-4.02,7.93-5.37,4.06-.39,16.4,17.5,16.91,20.61,1.01,6.17-18.14,16.8-7.6,22.08,1.61.81,1.62.26,2.8-.55,1.59-1.09,17.26-16.76,17.79-17.9.44-.96.67-1.57.58-2.67-.16-1.93-17.39-25.64-20.12-28.98-1.72-2.11-6.01-8.44-8.3-8.43-2.37,0-30.64,27.79-35.05,31.78-3.83,3.46-13.16,8.27-13.48,13.33-.3,4.83,11.29,24.77,14.39,30.25,8.43,14.95,18.15,29.25,27.92,43.35l-1.57,2.66h-48.98c-.33,0-3.39,3.19-3.67,4.12-.53,1.81-1.16,11.39-1.33,14.26-.9,15.48.63,31.74,0,47.3,4.03-1.58,8.67-2.54,9.77-7.47,2.54-11.39-1.44-29.92.19-42.11.79-5.96,6.62-5.76,11.69-6.12,10.37-.73,31.31-1.17,41.27.01,3.4.4,5.81,2.91,9.31,2.15.51-1.52,1.32-3.18,1.19-4.83-.23-3.11-19.27-29.69-22.69-35.23Z"/>
  <path class="cls-1" d="M650.41,500.44h-29.5l-1.52,4.32c5.29,2.28,12.08,11.62,18.14,11.26,5.06-.31,14.58-13.94,12.88-15.58Z"/>
  <path class="cls-1" d="M85.04,435.41c7.6-4.77,26.34-13.42,31.51-18.58,4-3.98.11-12.98-.42-18.27-.28-2.78,1.07-15.97-1.68-16.09-10.58,4.47-4.93,16.31-4,25.11l-.91,2.2-49.08,29.43c-.68-8.92-2.64-16.98,1.1-25.59-3.21-.43-13.87,1.65-14.27,5.17-.22.87.92,1.7.92,2.06v38.4c12.47-7.63,24.44-16.06,36.83-23.84Z"/>
  <path class="cls-1" d="M116.89,430.54c-11.01,5.83-23.33,14.76-33.86,21.79-15.11,10.09-30.29,20.81-44.46,31.95l1.87,6.14,86.62-51.37c.94-9.12-1.57-13.06-10.17-8.5Z"/>
  <path class="cls-1" d="M34.93,424.11c-1.78-1.27-14.07,1.42-16.5,2.56-3.16,1.48.12,8.91,1.92,10.91,1.79,2,7.72,3.67,7.91,4.54.92,4.28-3.09,5.1-4.02,7.15-1.29,2.85,5.81,21.1,8.06,24.17.61.83.86,2.93,2.54,1.39,2.7-2.48-.2-30.3,2.28-36.11l-2.19-14.61Z"/>
  <path class="cls-1" d="M60.48,519.35c2.94.3,1.79.04,2.19-1.65,2.83-12.16,5.41-22.63,11.14-33.95l-24.36,17.48,11.03,18.13Z"/>
  <path class="cls-1" d="M30.41,409.73c6.44-1.25,13.69-3.59,19.98-5.62,4.33-1.4,21.25-7.12,23.72-9.36,5.47-4.98-1.57-25.08-.91-32.29,2.58-5.44,21.87-8.79,23.41-12.22-.69-4.42-2.39-29.33-5.75-30.16-6.98-.69-13.4,2.32-19.86,4.47-5.24,1.74-27.72,9.99-29.23,14.18-.51,11.71-4.54,28.52-2.47,39.82,1.1,6.03,11.52.11,13.19-3.59.02-8.03-4.03-20.93-1.84-28.46,1.7-5.83,24.59-11.74,30.26-15.17,3.09.69,3.6,10.08,2.75,12.57-1.04,3.04-19.14,6.03-20.77,11.52-1.87,6.32,5.84,27.18,2.57,30.33-5.71,2.1-33.06,13.58-37.15,11.02-1.13-5.44-2.12-12.73-2.37-18.22-.5-11.36.31-39.01,6.22-48.3,3.31-5.21,11.34-7.56,16.87-9.84,9.92-4.09,22.55-8.73,32.82-11.71,3.23-.94,16.76-5.01,18.7-3.68,5.67,17.32,5.03,36.34,7.58,54.38-1.44,4.99-18.99,6.6-21.55,10.8-2.4,3.93,3.46,23.47,2.66,29.32l-15.27,8.72-.18,9.84c1.02,1.05,20.62-8.65,22.29-10.54,5.8-6.57-1.18-20.75.5-28.41,1.55-3.18,15.09-6.22,18.09-9.21.94-.93,2.72-5.86,3.14-7.44,3.62-13.69-1.3-22.05-2.82-35.13-1.12-9.65-.31-21.77-2.33-31.07-.38-1.73-.65-3.37-2.21-4.5-3.19-2.44-9.6.06-13.28,1.07-23.32,6.43-45.7,16.81-69.03,23.36-9.29,4.68-12.83,28.07-13.4,37.8-.79,13.51-1.11,34.66.01,47.96,1.01,12.08,6.32,9.57,15.64,7.76Z"/>
  <path class="cls-1" d="M66.01,243.31c-1.61-1.23-22.75,27.78-23.36,31.15l35.62-13.93c.49-2.07-13.15-12.39-12.26-17.22Z"/>
  <path class="cls-1" d="M146.16,467.04c.75-.65-7.3-13.63-10.83-14.29-4.64-.87-24.26,8.63-29.14,11.6-22.45,13.64-33.18,42.2-30.17,67.84.9,7.67,9.38,10.9,13.94,16.11-.12-4.62-2.34-9.16-2.77-13.93-.84-9.44-.29-22.71,2.79-31.68,7.84-22.78,32.67-36.9,56.18-35.65Z"/>
  <path class="cls-1" d="M584.81,553.26c-.7-1.04-12.01-12.35-12.83-12.83-1.21-.71-1.46-1.14-3.12-.9-1.97.29-6.42,3.88-6.42,5.98,1.35,4.85,9.96,7.09,7.28,12.78-1.22,2.6-22.41,17.96-25.64,17.92-7.11-.08-18.76-24.01-26.62-23.46-2.79.19-19.11,13.45-20.09,15.6-2.29,5.04,4.03,17.49,8.34,19.44,2,.91,9.44,1.11,11.15.05,4.24-2.64-7.31-9.88-6.69-13.42l7.22-8.3c10.7,8.07,16.6,26.46,32.82,21.67,8.46-8.69,20.43-14.97,28.97-23.34,2.73-2.67,8.22-7.33,5.62-11.19Z"/>
  <path class="cls-1" d="M109.26,251.83c-3.91-9.14-19.35-17.53-25.41-25.82-2.53-1.15-9.05,7.31-11.13,8.95,7.06,7.13,17.22,13.24,23.32,21.18,2.5,3.26,4.76,6.17,2.83,10.57l-63.19,21.12-7.5,15.58,81.24-29.51c3.49-2.73,1.46-18.29-.16-22.07Z"/>
  <path class="cls-1" d="M465.37,520.74c-1.73-1.26-3.78-1.25-5.81-1.42-9.64-.8-29.59-1.01-39.01.04-14.77,1.66-12.34,11.17-3.34,18.9,1.53,0,1.94-8.4,8.03-9.76,4.03-.9,22.09-.87,26.53-.29,3.69.48,4.53,1.37,5.01,5.01,1,7.57,1.01,33.73,0,41.29-.66,4.91-4.06,5.41-8.53,5.94-8.14.97-33.24,1.29-40.99.06-6.67-1.06-14.13-17.71-18.62-23.68-8.82-11.74-20.32-21.3-30.44-31.9-4.4-4.6-15.83-19.96-19.96-22.34-5.34-3.08-13.79-1.21-19.53-2.16-1.68,2.16,9.12,9.68,10.59,11.1,17.82,17.18,41.72,39.11,55.32,59.33,2.02,3.01,8.13,15.47,9.19,16.41.68.61,1.26,1.12,2.24,1.1,20.71-1.16,42.99,1.53,63.5.04,2.02-.15,4.1-.18,5.81-1.44.89-2.21,1.24-4.54,1.42-6.92,1.06-13.78.97-34.06.65-48.09-.05-2.26-.8-9.97-2.06-11.24Z"/>
  <path class="cls-1" d="M485.67,501l-2.71-.62c-24.61,1.9-52.53-2.38-76.73.21-11.54,1.24-20.99,13.61-27.4,22.65l29.46,42.91c4.36,3.14,28.24,2.85,34.45,2.08,1.06-.13,3.69-.48,4-1.77.18-5.16,3.05-22.34-.29-25.68-3.58-3.59-21.69-2.05-18.66,7.52,9.02-1.9,12.07,3.84,6.69,10.58-10.69.48-16.73,3.84-23.18-5.77-2.4-3.58-4.4-8.27-6.85-12.07-2.02-3.14-11.93-14.65-10.66-17.19,5-4.37,9.9-11.49,16.21-13.93,10.55-4.09,34.29-1.17,46.13-.52,6.19.34,20.93-2.83,21.82,4.9l-1.18,75.2h11.14v-85.16c0-.31-1.73-3.03-2.23-3.34Z"/>
  <path class="cls-1" d="M304.85,504.83c-.94-.88-2.06-1.24-3.34-1.11-6.52.63-71,75.67-81.87,84.66h16.14c5.12,0,56.06-63.37,66.63-68.93,4.06,4.53,9.13,8.07,13.54,12.13,7.44,6.87,36.02,34.06,38.92,41.22,2.63,6.48,2.02,9.73-1.66,15.57l21.15,1.12c-1.53-13.29-11.13-24.53-19.46-34.52-15.15-18.17-33.5-33.33-50.05-50.13Z"/>
  <path class="cls-1" d="M310.92,546.62c-3.75-3.19-8.38-8.84-12.88-6.17-2.28,1.36-21.31,21.36-21.45,23.06,5.17,7.97,23.74,32.81,30.8,15.56-4.04-5.7-17.7-11.82-10.97-20.21,2.72-3.39,5.36-4.69,9.31-2.63,1.67.87,18.02,17.21,18.37,18.47,1.41,5.03-7.85,9.35-9.86,13.66,12.41,1.82,36.28-2.96,21.87-18.52-6.57-7.1-17.65-16.8-25.2-23.22Z"/>
  <path class="cls-1" d="M189.44,505.58c-21.13-42.65-93.86-32.72-88.9,21,4.46,48.42,80.76,39.65,69.63-6.18-5.22-21.52-42.54-26.75-43.98.79-.39,7.49,9.51,18.05,16.73,12.17,6.34-5.16-3.9-8.93-3.28-13.18,1.38-9.57,21.57-6.57,19.82,9.64-2.56,23.75-38.9,21.99-45.05.72-6.18-21.36,9.55-42.52,32.3-41.22,47.35,2.7,51.2,75.53-4.73,83.17l-13.6,1.41c16.37,5.57,26.01,11.7,42.19,1.59,23.51-14.7,31.1-45.24,18.88-69.89Z"/>
  <path class="cls-1" d="M286.41,502.1l-16.01-1.35c-2.52.28-6.12,4.46-7.93,6.35-17.52,18.27-31.44,39.64-51.16,56.81-8.81,7.67-22.88,14.13-30.07,21.14-1.09,1.07-2.09,1.47-1.69,3.32h19.48c2.01,0,26.52-23.3,30.08-26.69,20-18.99,37.78-40.12,57.29-59.59Z"/>
  <path class="cls-1" d="M258.75,581.33c-.13,1.41,5.5,7.04,5.96,7.04h18.37c-6.29-7.31-17.36-21.98-24.33-7.04Z"/>
</svg>