<?xml version="1.0" encoding="UTF-8"?>
<svg id="Camada_2" data-name="Camada 2" xmlns="http://www.w3.org/2000/svg" viewBox="0 0 67.1 1057.49">
  <defs>
    <style>
      .cls-1 {
        fill: none;
      }

      .cls-2 {
        fill: #413253;
      }
    </style>
  </defs>
  <g id="Camada_1-2" data-name="Camada 1">
    <g>
      <path class="cls-1" d="M9.56,313.22c-3.41.88-6.75,2.91-9.56,5.58v2.5l.14-.24,9.42-7.84Z"/>
      <path class="cls-1" d="M0,471.17c22.84,3,45.4,8.61,67.1,16.54v-6.48c-21.74-7.74-44.28-13.23-67.1-16.12v6.07Z"/>
      <path class="cls-1" d="M51.44,455.56c-2.39-1.98,7.67-5.87,9.39-5.26l-1.02-7.29c-1.63-1.4-20.06,9.11-20.92,8.37-1.85-1.58,1.44-2.3,1.98-2.69,2.98-2.21,17.15-10.24,17.66-11.15.32-.56,1.69-7.13-.28-7.07l-28.33,17.73c-9.93-1.28-19.91-2.95-29.91-4.36v9.91c22.64,2.15,45.22,6.72,67.1,13.47v-8.35c-3.83-1.26-7.43-2.42-9.33-2.83-2.11-.45-4.18-.62-6.33-.47Z"/>
      <path class="cls-1" d="M10.66,405.37c17.1-.9,33.51-8.29,47.05-17.83-15.56,3.37-29.36,13.84-46.05,13.59-.77-5.68,4.15-3.66,7.58-4.45,13.78-3.17,26.95-9.28,39.01-16.47,1.44-2.02-1.88-.78-2.63-.53-13.97,4.73-26.95,11.55-41.86,14.13l1.18-5.08c14.5-2.58,30.67-7.81,42.77-16.38-.73-1.44-2.82.02-3.85.33-12.5,3.79-24.2,10.58-38.01,10.65-3.55-2.71,16.23-6.56,17.57-7.02,7.31-2.48,16.78-5.22,21.16-11.8-10.81,5.19-21.31,8.3-33.49,8.35l16.41-5.03c4.39-2.2,9.32-3.98,11.85-8.55-4.38.69-7.76,3.65-12.02,5.25-2.41.9-18.63,5.88-19.37,5.2-1.65-8.3-8.02-15.91-13.62-21.97,2.5,8.11,8.75,15.16,8.35,24.08-6.12-5.12-7.53-14.67-12.69-20.95v1.87l5.9,19.08-5.9-7.15v11.38l.13-.02-.13.05v3.79c3.44-.93,7.5-1.43,11.65-1.75-2.47,3.15-7.55,2.04-11.65,3.33v4.78c1.46-1.06,3.54-1.73,6.41-1.83l-2.1,15.69c-1.86-.16-1.22-5.71-1.01-6.77.4-2.04,2.34-2.66,2.06-4.73-3.03-.47-4.48,1.33-5.37,3.68v20.39c3.03.58,6.06,1.18,9.09,1.82,2.89-.52.8-8.31,1.57-9.1Z"/>
      <path class="cls-1" d="M30.23,524.39c17.46,4.51,17.79-21.37-.04-17.3-8.13,1.85-8.19,15.18.04,17.3ZM37.56,512.35c4.23,4.22-4.42,11.26-7.64,6.03-3.01-4.88,4.35-9.31,7.64-6.03Z"/>
      <path class="cls-1" d="M0,480.71c23.08,3.29,45.57,9.17,67.1,17.54v-6.68c-21.75-8.2-44.34-13.97-67.1-16.94v6.07Z"/>
      <path class="cls-1" d="M59.8,393.82l-37.68,15.68c13.18-1.3,28.01-6.42,37.68-15.68Z"/>
      <path class="cls-1" d="M43.06,423.11c4.61-.3,14.81.96,15.69-5.23-2.9,1.34-6.04,2.18-9.16,2.87-2.55.56-7.41-1.08-6.53,2.36Z"/>
      <path class="cls-1" d="M31.55,419.97c7.46-.57,19.38-2.47,25.9-6,1.65-.89,2.06-2.63,1.31-3.41l-27.21,9.4Z"/>
      <path class="cls-1" d="M58.75,402.19l-32.44,12.55c9.39.17,19.54-2.67,27.52-7.53,1.82-1.11,5.14-2.4,4.92-5.02Z"/>
      <path class="cls-1" d="M10.85,343.85c7.56,22.77,44.66,14.48,37.15-10.98-.77-2.6-2.73-4.44-2.84-7.1l6.26,12.56c.75-5.1-1.15-10.5-4.54-14.29-15.29-17.14-43.56-2.84-36.04,19.81ZM37.5,350.05c-25.68,11.11-32.23-24.69-11.47-28.21,7.93-1.34,13.97.98,17.06,8.6,2.82,6.93,1.91,16.37-5.59,19.61Z"/>
      <path class="cls-1" d="M34.74,325.19c-24.41-7.7-23.17,34.75.47,20.47l.53,3.14c8.05-3.66,7.04-21.07-1-23.61ZM36.54,342.28l-6.04.22c-.18-4.79,5.71-3.98,1.98-10.36-13.55.57-6.88,5.34-5.32,12.14,1.19,5.19-3.67.82-4.9-1.38-9.48-16.99,20.53-19.76,14.27-.62Z"/>
      <path class="cls-1" d="M0,496.38s.1.01.14.02l-.14.6v30.77c3.12.72,6.23,1.5,9.31,2.38l31.64,59.88c-13.62,10.62-24.51,3.08-38.71-.48,10.5-13.48,9.92-33.75-2.23-44.86v56.44c7.15,2.59,14.48,7.98,21.57,8.38,10.3.58,17.17-5.33,26.64-7.31.88,4.29,4.9,9.62,5.91,13.49,1.05,4.01-9.67,3.76-13.97,4.99-4.69,1.33-14.18,7.05-17.66,7.34-4.51.38-13.75-5.37-22.48-8.63v14.24c.15.05.28.09.43.14,9.98,3.58,15.36,11,26.88,7.56,10.56-3.15,20.36-10.8,32.47-10.94l6.31,18.84h-15.18c-8.25.54-21.83,10.65-28.51,11.3-4.37.42-14.67-6.31-22.39-9.01v14.7c.64.19,1.28.39,1.91.61,12.15,4.32,13.75,11.49,28.58,5.94,11.88-4.45,22.79-12.96,36.61-13.02v-34.4l-5.19-17.99c1.73-.21,3.46-.11,5.19.09v-5.39c-.18-.24-.17-.73,0-1.41v-20.07l-10.42,20.48-36.65-66.98c14.42,5.82,32.31,12.33,47.07,20.9v-9.9c-19.64-11.03-40.88-19.26-62.77-24.63l7.39-21.93c18.76,2.39,37.6,8.02,55.38,15.54v-9.44c-21.61-8.33-44.07-13.94-67.1-17.14v8.9Z"/>
      <path class="cls-1" d="M67.1,993.06v-15.21c-1.28,5.01-1.91,10.47,0,15.21Z"/>
      <path class="cls-1" d="M7.41,970.63l-7.41-.48v16.04c8.34.79,7.77-9.28,7.41-15.56Z"/>
      <path class="cls-1" d="M12.19,879.5c-3.21-3.71-7.63-8.39-12.19-11.4v2.47l24.2,27.79c-2.47-6.79-7.32-13.43-12.01-18.86Z"/>
      <path class="cls-1" d="M0,1057.49h.84c-.27-.52-.55-1.09-.84-1.7v1.7Z"/>
      <path class="cls-1" d="M67.1,538.83v-11.79c-2.72,3.01-3.54,7.48,0,11.79Z"/>
      <path class="cls-1" d="M60.8,960.58c-1.02,3.03-3.74,11.06.05,11.52-3.29,3.3-2.48,27.39-.93,28.72l7.18.03v-7.74l-2.05.5c-1.38-6.91-1.13-15.34,2.05-21.97v-20.96c-3.23,2.25-4.95,5.9-6.3,9.9Z"/>
      <polygon class="cls-1" points="67.1 576.94 67.1 564.3 57.72 562.35 67.1 576.94"/>
      <path class="cls-1" d="M61.36,674.33c-1.41,1.6-4.85,7.39-5.75,7.92-1.18.71-3.47-.68-5.45-.39-10.36,1.51-20.53,10.97-27.78,12.19-3.46.58-13.55-5.67-22.38-9.5v14.39c7.12,3.45,15.92,9.3,20.69,9.6,5.72.36,28-13.84,29.69-12.23-1.87,6.56-1.43,13.15-1.09,19.84-8.68-.16-17.84,8.21-25.66,9.4-7.19,1.09-15.33-4.24-23.63-7.75v15.43c8,2.67,15.68,6.49,23.05,11.87,11.03,8.05,21.03,20.47,18.49,35.01-2.44,13.93-17.17,23.99-30.93,19.82l15.37-2.94c6.67-2.9,12.9-10.97,12.89-18.51-.03-16.81-20.64-28.58-38.86-36.61v3.82c15.25,7.33,29.11,17.6,29.5,29.69.18,5.66-4.74,14.66-10.52,16.18,18.45-18.06-2.02-30.15-18.98-37.85v14.13c12.48-4.88,18.79,10.99,9.05,11.06-3.63.02-5.81-3.55-9.05-.69v22.97c.83,1.07,1.74,2.08,2.73,2.97,12.04,10.85,33.06,9.4,47.43,4.46,6-2.06,11.67-4.9,16.94-8.37v-19.83c-7.75,10.67-18,19.24-30.83,22.68.86-2.81,4.76-3.97,6.79-6.07,8.54-8.79,9.63-19.99,9.93-31.64l14.11-6.35v-.96h-12.52l2.61-25.12c3.11,3.28,6.35,6.58,9.91,9.42v-11.25c-.3-.33-.58-.65-.83-.97-13.33-16.87-10.59-36.79.83-50.77v-10.6c-1.56,1.75-3.76,3.32-5.73,5.54ZM47.77,760.17c-4.78-8.83-10.95-16.8-19.37-22.5,1.16-2.27,18.39-8.54,21.97-9.94l-2.61,32.44Z"/>
      <path class="cls-1" d="M66.09,858.56c.34.19.67.36,1,.54v-2.72c-.76.35-1.55.08-1,2.18Z"/>
      <path class="cls-1" d="M67.1,714.21v-25.17c-3.89,8.45-3.63,17.72,0,25.17Z"/>
      <path class="cls-1" d="M1.17,814.1c-.4-.32-.79-.66-1.17-1.01v12.45c.92.57,1.86,1.11,2.83,1.63-2.24,11.58,1.14,24.8,13,29.33.26,1.9-2.26.96-3.19.57-4.27-1.8-8.55-4.8-12.64-8.59v6.83c13.25,10.39,27.43,20.67,35.92,38.15,2.62,5.41,8.16,14.94-2.24,13.23-3.51-17.49-15.38-31.91-28.84-42.87-4.7.9.24,2.35,1.04,3.1,11.48,10.89,21.44,24.15,26.89,39.13,2.43,2.81-6.14,4.22-7.5,3.36-1.07-.68-3.86-7.48-5.21-9.52-5.74-8.63-12.77-15.81-20.06-23.11v3.52c3.07,3.16,8.78,8.08,10.58,10.23,5.03,6.02,9.19,12.88,13.64,19.32-8.69,4.06-8.75-5.15-12.1-10.39-3.29-5.14-8.18-8.96-12.11-13.57v2.45c6.28,7.61,17.09,20.37,14.79,22.56-8.36,2.03-9.42-7.35-13.37-13.32-.45-.68-.94-1.35-1.42-2.01v4.84l5.37,9.44c-.67.6-2.61.39-5.37-.35v21.29h11.13c.44,0,1.52-2.21,2.61-2.09l2.87,56.77-13.34,24.87-2.06-.5c6.39-11.04,13.9-22.73,12.54-36.12-1.88,1.13-1.79,4.74-2.95,6.98-2.14,4.16-5.47,8.85-10.66,8.72,1.25,2.97,1,5.08-.13,6.58v13.35c.22.36.43.72.58,1.08.87,1.96.72,8.87,3.15,8.24,4.6-1.19,6.59-10.18,9.17-13.87l5.02-16.42c1.28,9.28-1.46,16-6.09,23.72-2.86,4.76-6.66,10.74-11.83,13.29v3.43l7.47,4.12c3.43-1.59,11.09-22.94,10.47-27.81,4.53,2.94.8,11.99-.87,16.41-2.63,6.95-8.01,17.69-14.84,20.75l8.9,3.37c7.29-5.77,7.52-16.4,9.4-24.85.26-1.15.01-3.38,1.56-3.12,2.69,10.79-2.49,23.19-10.2,30.86l6.01,6.82,4.53-9.61,2.8-14.46c.57,4.78,1.65,8.94.8,13.88-.2,1.16-3.53,8.23-5.65,12.31h5.91l2.11-8.39c1.73.38,2.42,4.76,2.66,6.22.12.73.23,1.45.33,2.17h6.37c-2.32-5.56-5.58-18.41-6.76-23.05-8.7-34.36-8.9-63.01-9.89-97.92-.02-.74-2.66-13.76.99-9.9,5.05,19.97,4.17,40.81,6.3,61.23,2.46,23.72,7.1,47.54,16.04,69.64h5.75c-.47-1.05-.87-2.17-1.35-3.2-8.17-17.61-14.23-45.98-16.25-65.4-2.23-21.46-.12-43.48-6.29-64.36,2.08-.41,2.5.99,3.34,2.4,7.74,13,5.74,43.05,7.13,58.82,2.15,24.43,6.49,49.44,16.83,71.74h3.83c-1.93-4-4.84-10.9-5.47-12.6-4.6-12.39-8.03-27.32-9.81-40.43-3.79-27.87.41-56.11-7.47-83.06l3.61,2.13,6.84,22.98c2.42-9.25.43-18.64-1.93-27.63l2.98-1.67c.75,4.3,2.72,8.75,3.14,13.09,2.03,20.79-1.31,44.76-.04,65.98,1.27,21.13,7.92,41.55,15.23,61.22h2.57v-15.87c-.86-4.18-1.42-8.47-2.06-12.41.52.13,1.24.09,2.06-.02v-10.31l-8.34-.13v-6.29l8.34.17v-7.58c-3.48.02-6.96.05-10.44.09-1.64-26.82-1.81-53.82.02-80.61l10.42,18.79v-8.94c-3.53-7.07-6.64-14.35-9.3-21.79l5.14-2.72c1.29,3.26,2.68,6.54,4.16,9.81v-27.14c-6.7,3.84-13.51,7.2-20.37,10.01l6.88-5.87-3.46-13.79-25.93-14.88c12.53,4.29,28.16,7.88,42.88,7.34v-10.16c-1.46-.46-2.93-1-4.42-1.63-8.16-3.47-10.18-11.53-19.61-3.93-2.27-2.33,7.45-4.56,7.31-6.27-3.81.19-17.64-17.22-15.69-18.85l16.74-2.1c-2.05,10.95,5.6,22.97,15.67,21.18v-9.15c-3.61-3.92-6.58-8.32-6.6-13.86l6.6-3.12v-11.57c-20.92,10.38-47.59,13.17-65.92-1.79ZM42.01,852.3l-2.15,4.76c-.33,3.08,3.46,3.99,4.89,6.58l8.76,4.35c-17.83-4.06-38.21-17.97-42.91-36.62l16.74,3.13c-1.3,9.4,5.18,17.26,14.66,17.8Z"/>
      <path class="cls-1" d="M67.1,0h-8.51c2.87.82,5.79,2.89,8.51,5.57V0Z"/>
      <path class="cls-1" d="M53.62,65.65c-.04,5.78-1.4,11.35-1.14,17.81.05,1.27-.79,3.9,1.03,3.65,3.64-11.49,2.53-24.09-.51-35.59-1.84-.01.63,12.36.62,14.14Z"/>
      <path class="cls-1" d="M38.86,138.4c-2.03.43-1.84,2.1-2.09,3.66-1.95,12.05-.69,24.46-1.02,36.63l3.11,12.05c.21-17.42-2.76-34.96,0-52.33Z"/>
      <path class="cls-1" d="M48.74,150.98c4.28,1.09,7.86,1.57,12.11-.04-2.86-4.13-10.28-1.28-14.65-2.08-.52,3.17.8,1.67,2.54,2.11Z"/>
      <path class="cls-1" d="M58.76,135.26c-3.85.7-12.22-2.3-12.56,3.13h12.56s0-3.13,0-3.13Z"/>
      <path class="cls-1" d="M50.39,143.62l7.32-2.07h-9.42s1.07,2.08,1.07,2.08l-3.15,1.04,13.6,1.05c-1.56-3.49-6.45-1.72-9.42-2.09Z"/>
      <path class="cls-1" d="M46.22,156.72c3.43,3.17,9.34.96,13.59,1.57v-3.13c-2.16.26-13.59-1.01-13.59,1.57Z"/>
      <path class="cls-1" d="M46.2,162.48v3.13s14.65,1.04,14.65,1.04v-4.17c-5.16-.55-9.64,1.56-14.65,0Z"/>
      <path class="cls-1" d="M67.1,96.29v-5.47c-.25,1.69-.21,3.61,0,5.47Z"/>
      <path class="cls-1" d="M23.16,8.6L22.58.19c.05-.07.12-.13.17-.19h-7.16c.4.14.75.31,1,.53,1.87,1.63,3.15,7.09,6.57,8.07Z"/>
      <path class="cls-1" d="M62.96,58.85c1.51-.75,2.85-.98,4.14-.98v-3.11c-1.75-.02-3.48-.05-5.2-.1l1.06,4.18Z"/>
      <path class="cls-1" d="M63.46,49.42c1.12.14,2.34.27,3.63.4v-2.16c-1.75-.09-3.48-.2-5.19-.33-1.77,1.34.13,1.9,1.56,2.08Z"/>
      <path class="cls-1" d="M67.1,226.94v-34.55c-6.17,12.92-10.59,26.62-10.42,41.27,2.94-3.16,6.6-5.1,10.42-6.72Z"/>
      <path class="cls-1" d="M31.53,142.04c.09-1.15.77-3.9-1.02-3.64-2.66,10.08-2.16,19.35-.8,29.57l2.87,9.15c.6-8-1.96-16.74-2.13-24.55-.09-4.13.79-6.88,1.08-10.53Z"/>
      <path class="cls-1" d="M15.4,21.16c-1.77,7.21-7.7,8.2-14.22,7.32,2.3-2.74,3.87-4.41,3.15-8.36l-4.33-1.01v17.35c.05-.06.09-.12.14-.18l4.8,1.63c.88,1.09-.04,1.88-.35,2.83-1.11,3.41-2.88,6.83-4.58,10.42v88.27l13.72,37.68c-3.47.11-8.42,4.61-11.48,2.68l-2.24-2.47v17.36c9.29-4.28,18.05-7.89,18.97-7.06,11.34,30.11,21.09,60.87,24.1,93.15-4.58-.86-17.48,3.74-20.43,1.06-7.5-13.12-14.8-26.71-22.63-39.88v21.03c6.66,7.05,12.73,14.66,17.93,23.02l-9.96,4.02c-2.46-3.15-5.13-6.24-7.98-9.23v11.51c.39.52.79,1.03,1.17,1.56-.47.64-.81,1.01-1.17,1.22v18.17c23.75-17.32,59.31-6.48,64.91,23.65,5.38,28.95-8.8,79.39,2.19,106.58v-12.29l-3.09-13.29,3.09,6.63v-107.34c-8.79-13.24-24.32-21.01-41.19-19.54-3.48.3-6.81,1.84-10.02,2.54-1.07.23-3.41,1.41-3.18-.57,20.2-7.74,39.23-11.25,54.39-2.59v-10.89c-4.37-1.98-9.15-3.26-13.63-4.86l-.85-6.29,2.03-1.13c4.1.73,8.5,1.18,12.45.46v-7.8l-13.95-2.51c-2.79-5.93,8.86-4.02,13.95-5.31v-7.2c-3.22-.81-6.37-1.71-9.15-2.88-1.3-.55-3.09-.57-3.38-2.38h12.52v-8.37h-11.48c-2.84-21.09,1.46-40.18,11.48-58.68v-16.79c-1.65,4.33-3.63,8.38-5.19,9.08-1.12.5-1.99-1.46-3.6-1.56-2.64-.16-7.65,2.02-11.06.97,2.47,4.46,8.34,2.92,12.56,3.14.54,5.69-11.49,2.01-12.56,3.14v3.13c13.97-1.73,10.51,6.96-1.04,5.24-1.17,4.13,6.33,1.14,7.32,2.09-6.77,21.9-.9,44.78-1.56,66.98l-9.43-35.58-31.85-84.29c.55-1.14,1.55-1.17,2.55-1.55,11.76-4.41,38.68-8.1,50.81-5.81,1.09.21,2.11.47,3.06.77v-6.65c-18.37-3.96-45.21,3.1-59.52,6.37l-2.2-7.23c17.33-3.73,34.55-9.76,52.34-10.48l-2.68-8.41c-12.71,2.99-24.92,8.98-38.13,9.45l34.61-10.91c2.86-1.17,4.37-3.76,4.11-6.87-10.07,1.01-21.84,7.68-31.86,7.35-8.14-.27-21.21-4.91-22.58-14.16-.7-4.73,5.53,2.55,6.36,3.07,13.02,8.16,24.62,4.13,37.61-1.52.37-2.28-1.83-3.3-3.4-4.43-12.27-8.8-25.33-13.45-40.55-10.22-.45-2.69.39-1.9,2.26-2.39,20.59-5.47,30.04,5.82,46.94,13.9-3.44-7.49-1.93-16.87-3.41-25.37-.61-3.48-2.11-6.78-2.88-10.21-2.57,0,.01,3.08.01,3.66v25.65l-3.98-3.87-3.36-23.34c-1.83,0-1.15,4.58-1.08,5.79.34,5.29,2.17,10.81,2.13,16.18-6.89-4.27-6.95-13.8-8.38-20.93-1.98-.21-.84,2.19-.73,3.35.45,4.96,1.3,9.74,2.83,14.44-4.12-1.71-7.48-3.22-7.33-8.37l-2.73,4.05-19.24.12c4.57-10.96,3.04-28,19.89-19.89l-9.38-5.27c.53-10.02,11.52-4.82,17.74-3.09.59-2.79-.7-1.8-2.06-2.6-3.17-1.86-6.77-3.42-10.5-3.69.93-10.95,20.89-2.17,26.52,1.23,2.85,1.72,4.15,5.62,8.03,5.05-6.44-9.34-17.62-13.23-28.26-15.7-.87-1.19,2.64-4.77,3.86-5.05,8.46-1.96,26.52,13.7,29.84,21.6l9.18.97v-13.14c-2.42-5.42-6.16-10.21-11.13-13.61-2.98-2.04-16.12-6.69-16.64-7.44-1.98-2.84,1.81-5.13,4.07-5.02,6.04.27,16.82,9.04,23.69,17.99v-5.4c-1.39-1.82-2.91-3.53-4.55-5.11-1.57-1.5-9.65-6.52-8.39-7.98h-25.18c.96.22,1.86.37,2.57.24l-13.09,16.73L8.52,1.78c-.36-.82.36-1.42,1.5-1.78H1.3c2.56,6.03,15.53,15.32,14.1,21.16ZM16.09,76.89c3.86-3.86,12.4-.77,9.99,7.38-2.89,9.74-16.52-.85-9.99-7.38ZM47.2,12.84c-.76,10.63-10.72,1.17-16.7.99,3.2-10.48,9.66-2.87,16.7-.99Z"/>
      <path class="cls-2" d="M1.17,293.84c-.38-.53-.77-1.05-1.17-1.56v2.78c.36-.21.7-.58,1.17-1.22Z"/>
      <polygon class="cls-2" points="0 352.75 0 364.67 5.9 371.82 0 352.75"/>
      <path class="cls-2" d="M64.91,336.89c-5.6-30.13-41.16-40.97-64.91-23.65v5.57c2.81-2.68,6.15-4.71,9.56-5.58l-9.42,7.84-.14.24v29.58c5.16,6.28,6.57,15.83,12.69,20.95.39-8.91-5.86-15.96-8.35-24.08,5.6,6.06,11.96,13.68,13.62,21.97.74.67,16.96-4.3,19.37-5.2,4.26-1.6,7.64-4.56,12.02-5.25-2.53,4.57-7.46,6.35-11.85,8.55l-16.41,5.03c12.18-.05,22.68-3.17,33.49-8.35-4.39,6.58-13.85,9.32-21.16,11.8-1.34.45-21.12,4.31-17.57,7.02,13.82-.08,25.51-6.86,38.01-10.65,1.04-.31,3.13-1.78,3.85-.33-12.1,8.57-28.26,13.8-42.77,16.38l-1.18,5.08c14.92-2.57,27.9-9.39,41.86-14.13.75-.25,4.07-1.49,2.63.53-12.06,7.2-25.22,13.3-39.01,16.47-3.43.79-8.35-1.23-7.58,4.45,16.69.25,30.49-10.23,46.05-13.59-13.54,9.54-29.95,16.94-47.05,17.83-.77.79,1.32,8.58-1.57,9.1-3.02-.64-6.05-1.24-9.09-1.82v31.19c10,1.4,19.97,3.07,29.91,4.36l28.33-17.73c1.97-.06.6,6.51.28,7.07-.52.91-14.68,8.94-17.66,11.15-.54.4-3.82,1.12-1.98,2.69.86.73,19.29-9.78,20.92-8.37l1.02,7.29c-1.71-.6-11.78,3.29-9.39,5.26,2.15-.15,4.22.02,6.33.47,1.9.41,5.5,1.57,9.33,2.83v-15.4c-10.98-27.18,3.2-77.62-2.19-106.58ZM51.42,338.33l-6.26-12.56c.1,2.65,2.07,4.5,2.84,7.1,7.51,25.46-29.59,33.75-37.15,10.98-7.52-22.66,20.75-36.95,36.04-19.81,3.38,3.79,5.29,9.19,4.54,14.29ZM26.31,414.74l32.44-12.55c.22,2.61-3.09,3.91-4.92,5.02-7.99,4.86-18.13,7.7-27.52,7.53ZM43.06,423.11c-.88-3.44,3.98-1.8,6.53-2.36,3.12-.69,6.25-1.53,9.16-2.87-.87,6.19-11.07,4.93-15.69,5.23ZM57.45,413.97c-6.52,3.53-18.44,5.43-25.9,6l27.21-9.4c.76.78.34,2.52-1.31,3.41ZM22.13,409.5l37.68-15.68c-9.67,9.26-24.5,14.38-37.68,15.68Z"/>
      <polygon class="cls-2" points="67.1 431.18 67.1 424.52 64 417.89 67.1 431.18"/>
      <path class="cls-2" d="M11.83,1012.1c4.64-7.73,7.37-14.44,6.09-23.72l-5.02,16.42c-2.58,3.69-4.57,12.68-9.17,13.87-2.43.63-2.28-6.27-3.15-8.24-.16-.35-.36-.71-.58-1.08v16.03c5.17-2.55,8.97-8.52,11.83-13.29Z"/>
      <path class="cls-2" d="M.13,989.43c5.19.13,8.52-4.56,10.66-8.72,1.15-2.24,1.06-5.85,2.95-6.98,1.36,13.39-6.15,25.08-12.54,36.12l2.06.5,13.34-24.87-2.87-56.77c-1.08-.11-2.16,2.09-2.61,2.09H0v39.35l7.41.48c.36,6.28.93,16.35-7.41,15.56v9.81c1.13-1.5,1.38-3.6.13-6.58Z"/>
      <path class="cls-2" d="M25.25,1031.3l-2.8,14.46-4.53,9.61-6.01-6.82c7.72-7.67,12.89-20.07,10.2-30.86-1.55-.26-1.31,1.97-1.56,3.12-1.88,8.45-2.12,19.08-9.4,24.85l-8.9-3.37c6.83-3.06,12.21-13.8,14.84-20.75,1.67-4.42,5.4-13.48.87-16.41.62,4.87-7.04,26.22-10.47,27.81l-7.47-4.12v26.97c.29.61.57,1.18.84,1.7h19.56c2.12-4.08,5.45-11.15,5.65-12.31.85-4.94-.24-9.1-.8-13.88Z"/>
      <path class="cls-2" d="M0,465.1c22.82,2.9,45.35,8.38,67.1,16.12v-14c-21.87-6.75-44.45-11.31-67.1-13.47v11.35Z"/>
      <path class="cls-2" d="M2.23,589.55c14.2,3.56,25.1,11.1,38.71.48l-31.64-59.88c-3.08-.88-6.19-1.66-9.31-2.38v16.91c12.15,11.12,12.74,31.38,2.23,44.86Z"/>
      <path class="cls-2" d="M53.15,263.99l13.95,2.51v-7.83c-5.09,1.29-16.74-.62-13.95,5.31Z"/>
      <path class="cls-2" d="M62.54,7.98c1.64,1.57,3.17,3.28,4.55,5.11v-7.51c-2.72-2.68-5.64-4.75-8.51-5.57h-4.44c-1.26,1.46,6.82,6.48,8.39,7.98Z"/>
      <path class="cls-2" d="M54.64,273.84l-2.03,1.13.85,6.29c4.48,1.6,9.26,2.88,13.63,4.86v-11.83c-3.95.72-8.35.27-12.45-.46Z"/>
      <path class="cls-2" d="M57.95,248.6c2.78,1.17,5.93,2.07,9.15,2.88v-5.26h-12.52c.28,1.81,2.07,1.83,3.38,2.38Z"/>
      <path class="cls-2" d="M43.4.5c-2.26-.1-6.05,2.19-4.07,5.02.52.75,13.65,5.39,16.64,7.44,4.97,3.4,8.71,8.2,11.13,13.61v-8.08C60.23,9.53,49.44.77,43.4.5Z"/>
      <path class="cls-2" d="M55.62,237.84h11.48v-10.9c-3.82,1.62-7.48,3.55-10.42,6.72-.17-14.65,4.25-28.35,10.42-41.27v-13.22c-10.02,18.5-14.31,37.59-11.48,58.68Z"/>
      <path class="cls-2" d="M28.08,17.14c-1.22.28-4.74,3.86-3.86,5.05,10.64,2.47,21.82,6.36,28.26,15.7-3.88.57-5.18-3.32-8.03-5.05-5.63-3.41-25.59-12.18-26.52-1.23,3.72.27,7.33,1.82,10.5,3.69,1.35.8,2.64-.19,2.06,2.6-6.22-1.73-17.22-6.93-17.74,3.09l9.38,5.27c-16.85-8.11-15.32,8.93-19.89,19.89l19.24-.12,2.73-4.05c-.16,5.14,3.21,6.66,7.33,8.37-1.52-4.71-2.38-9.48-2.83-14.44-.1-1.16-1.25-3.56.73-3.35,1.42,7.13,1.48,16.66,8.38,20.93.05-5.37-1.78-10.9-2.13-16.18-.08-1.21-.75-5.8,1.08-5.79l3.36,23.34,3.98,3.87v-25.65c0-.58-2.59-3.65-.01-3.66.77,3.43,2.27,6.72,2.88,10.21,1.48,8.49-.03,17.87,3.41,25.37-16.89-8.09-26.35-19.38-46.94-13.9-1.87.5-2.71-.3-2.26,2.39,15.22-3.24,28.29,1.41,40.55,10.22,1.58,1.13,3.77,2.15,3.4,4.43-12.99,5.65-24.6,9.68-37.61,1.52-.83-.52-7.06-7.8-6.36-3.07,1.36,9.25,14.43,13.89,22.58,14.16,10.02.33,21.79-6.34,31.86-7.35.26,3.11-1.26,5.7-4.11,6.87l-34.61,10.91c13.22-.47,25.42-6.47,38.13-9.45l2.68,8.41c-17.79.72-35.01,6.75-52.34,10.48l2.2,7.23c14.31-3.27,41.15-10.33,59.52-6.37v-25.19c-.21-1.86-.25-3.78,0-5.47v-32.94c-1.28,0-2.63.23-4.14.98l-1.06-4.18c1.71.04,3.45.07,5.2.1v-4.95c-1.29-.13-2.51-.26-3.63-.4-1.43-.18-3.32-.74-1.56-2.08,1.71.13,3.44.23,5.19.33v-7.95l-9.18-.97c-3.32-7.9-21.38-23.56-29.84-21.6ZM53.51,87.1c-1.82.25-.98-2.38-1.03-3.65-.25-6.45,1.1-12.03,1.14-17.81.01-1.78-2.46-14.15-.62-14.14,3.04,11.51,4.15,24.1.51,35.59Z"/>
      <path class="cls-2" d="M67.1,844.44v-16.98l-6.6,3.12c.01,5.54,2.98,9.94,6.6,13.86Z"/>
      <path class="cls-2" d="M66.27,730.17c.25.31.52.64.83.97v-16.92c-3.63-7.45-3.89-16.72,0-25.17v-9.65c-11.41,13.98-14.16,33.9-.83,50.77Z"/>
      <path class="cls-2" d="M24.22,868.01l25.93,14.88,3.46,13.79-6.88,5.87c6.85-2.82,13.67-6.18,20.37-10.01v-17.19c-14.72.53-30.35-3.05-42.88-7.34Z"/>
      <path class="cls-2" d="M51.43,832.41l-16.74,2.1c-1.96,1.63,11.88,19.04,15.69,18.85.14,1.7-9.58,3.94-7.31,6.27,9.43-7.59,11.45.46,19.61,3.93,1.49.63,2.96,1.17,4.42,1.63v-6.09c-.33-.18-.67-.35-1-.54-.55-2.11.24-1.84,1-2.18v-2.78c-10.07,1.78-17.72-10.23-15.67-21.18Z"/>
      <path class="cls-2" d="M2.73,804.17c-.99-.9-1.9-1.9-2.73-2.97v11.9c.39.35.78.69,1.17,1.01,18.34,14.96,45.01,12.17,65.92,1.79v-15.63c-5.27,3.47-10.94,6.31-16.94,8.37-14.37,4.94-35.39,6.39-47.43-4.46Z"/>
      <path class="cls-2" d="M9.05,778.91c9.74-.07,3.43-15.94-9.05-11.06v10.37c3.24-2.87,5.42.71,9.05.69Z"/>
      <path class="cls-2" d="M24.21,909.86c-4.45-6.44-8.61-13.3-13.64-19.32-1.8-2.15-7.5-7.07-10.58-10.23v5.6c3.93,4.61,8.81,8.43,12.11,13.57,3.36,5.24,3.42,14.44,12.1,10.39Z"/>
      <path class="cls-2" d="M14.79,910.91c2.3-2.19-8.51-14.95-14.79-22.56v7.23c.48.67.97,1.33,1.42,2.01,3.95,5.97,5.01,15.35,13.37,13.32Z"/>
      <path class="cls-2" d="M25.26,909.41c1.37.86,9.94-.55,7.5-3.36-5.45-14.98-15.41-28.24-26.89-39.13-.8-.76-5.73-2.2-1.04-3.1,13.45,10.96,25.33,25.38,28.84,42.87,10.4,1.71,4.87-7.83,2.24-13.23-8.48-17.47-22.66-27.76-35.92-38.15v12.78c4.56,3.02,8.98,7.69,12.19,11.4,4.69,5.42,9.55,12.07,12.01,18.86l-24.2-27.79v6.22c7.28,7.3,14.32,14.48,20.06,23.11,1.35,2.03,4.13,8.84,5.21,9.52Z"/>
      <path class="cls-2" d="M5.37,909.86l-5.37-9.44v9.1c2.75.74,4.7.94,5.37.35Z"/>
      <path class="cls-2" d="M4.33,520.46c21.89,5.37,43.13,13.6,62.77,24.63v-6.26c-3.54-4.31-2.72-8.78,0-11.79v-12.97c-17.78-7.52-36.62-13.15-55.38-15.54l-7.39,21.93ZM30.19,507.09c17.82-4.07,17.5,21.81.04,17.3-8.22-2.12-8.16-15.45-.04-17.3Z"/>
      <path class="cls-2" d="M13.72,177.09L0,139.42v37.89l2.24,2.47c3.07,1.93,8.02-2.57,11.48-2.68Z"/>
      <path class="cls-2" d="M61.9,607.36l5.19,17.99v-17.9c-1.73-.21-3.47-.3-5.19-.09Z"/>
      <path class="cls-2" d="M67.1,602.06v-1.41c-.17.68-.18,1.17,0,1.41Z"/>
      <path class="cls-2" d="M56.66,1005.13c3.48-.04,6.96-.08,10.44-.09v-4.18l-7.18-.03c-1.56-1.33-2.36-25.41.93-28.72-3.79-.46-1.06-8.49-.05-11.52,1.34-4.01,3.07-7.65,6.3-9.9v-7.36l-10.42-18.79c-1.83,26.79-1.66,53.79-.02,80.61Z"/>
      <polygon class="cls-2" points="58.75 1018.74 67.1 1018.87 67.1 1012.62 58.75 1012.45 58.75 1018.74"/>
      <path class="cls-2" d="M57.79,912.59c2.66,7.44,5.77,14.72,9.3,21.79v-14.7c-1.48-3.28-2.88-6.56-4.16-9.81l-5.14,2.72Z"/>
      <path class="cls-2" d="M22.39,660.52c6.69-.64,20.26-10.76,28.51-11.3h15.18l-6.31-18.84c-12.1.14-21.9,7.79-32.47,10.94-11.52,3.43-16.9-3.98-26.88-7.56-.15-.05-.28-.09-.43-.14v17.89c7.73,2.7,18.02,9.43,22.39,9.01Z"/>
      <path class="cls-2" d="M43.06,280.76c-3-32.28-12.76-63.05-24.1-93.15-.92-.83-9.68,2.77-18.97,7.06v47.28c7.83,13.17,15.13,26.76,22.63,39.88,2.95,2.68,15.85-1.92,20.43-1.06Z"/>
      <path class="cls-2" d="M13.23,133.17c-1,.37-2,.41-2.55,1.55l31.85,84.29,9.43,35.58c.66-22.2-5.21-45.09,1.56-66.98-.99-.95-8.49,2.04-7.32-2.09,11.55,1.71,15.01-6.97,1.04-5.24v-3.13c1.07-1.13,13.1,2.56,12.56-3.14-4.22-.22-10.08,1.33-12.56-3.14,3.41,1.06,8.42-1.13,11.06-.97,1.62.1,2.48,2.07,3.6,1.56,1.56-.7,3.54-4.75,5.19-9.08v-34.25c-.95-.3-1.96-.56-3.06-.77-12.13-2.3-39.06,1.39-50.81,5.81ZM32.58,177.12l-2.87-9.15c-1.36-10.22-1.87-19.48.8-29.57,1.79-.27,1.12,2.49,1.02,3.64-.29,3.65-1.16,6.4-1.08,10.53.16,7.81,2.73,16.55,2.13,24.55ZM38.86,190.73l-3.11-12.05c.33-12.17-.92-24.58,1.02-36.63.25-1.56.06-3.23,2.09-3.66-2.76,17.37.21,34.91,0,52.33ZM59.8,145.72l-13.6-1.05,3.15-1.04-1.07-2.08h9.42s-7.32,2.07-7.32,2.07c2.97.37,7.85-1.39,9.42,2.09ZM58.76,135.26v3.13s-12.56,0-12.56,0c.34-5.43,8.71-2.43,12.56-3.13ZM46.2,148.87c4.37.79,11.79-2.05,14.65,2.08-4.25,1.61-7.83,1.12-12.11.04-1.74-.44-3.06,1.06-2.54-2.11ZM59.81,155.15v3.13c-4.25-.61-10.17,1.6-13.59-1.57,0-2.57,11.44-1.31,13.59-1.57ZM46.19,165.61v-3.13c5.02,1.57,9.51-.55,14.67,0v4.17l-14.67-1.04Z"/>
      <path class="cls-2" d="M0,487.48c23.03,3.2,45.49,8.8,67.1,17.14v-6.37c-21.53-8.37-44.02-14.25-67.1-17.54v6.77Z"/>
      <path class="cls-2" d="M23.63,725.57c7.82-1.19,16.98-9.56,25.66-9.4-.34-6.69-.78-13.27,1.09-19.84-1.68-1.61-23.97,12.59-29.69,12.23-4.77-.3-13.57-6.15-20.69-9.6v18.86c8.3,3.51,16.43,8.84,23.63,7.75Z"/>
      <path class="cls-2" d="M1.91,666.82c-.63-.22-1.26-.42-1.91-.61v18.36c8.83,3.83,18.92,10.08,22.38,9.5,7.25-1.22,17.42-10.68,27.78-12.19,1.98-.29,4.27,1.09,5.45.39.9-.54,4.34-6.33,5.75-7.92,1.97-2.22,4.18-3.79,5.73-5.54v-9.04c-13.83.06-24.73,8.57-36.61,13.02-14.83,5.55-16.43-1.63-28.58-5.94Z"/>
      <path class="cls-2" d="M17.93,285.98c-5.21-8.35-11.27-15.96-17.93-23.02v17.81c2.84,2.99,5.52,6.08,7.98,9.23l9.96-4.02Z"/>
      <path class="cls-2" d="M4.93,37.9l-4.8-1.63c-.05.06-.09.12-.14.18v14.7c1.7-3.58,3.47-7.01,4.58-10.42.31-.95,1.24-1.74.35-2.83Z"/>
      <path class="cls-2" d="M56.68,601.06l10.42-20.48v-3.64l-9.38-14.6,9.38,1.95v-9.32c-14.75-8.57-32.64-15.07-47.07-20.9l36.65,66.98Z"/>
      <path class="cls-2" d="M0,474.64c22.76,2.97,45.34,8.74,67.1,16.94v-3.87c-21.7-7.93-44.26-13.54-67.1-16.54v3.47Z"/>
      <path class="cls-2" d="M49.33,930.29c-.42-4.34-2.39-8.78-3.14-13.09l-2.98,1.67c2.36,8.98,4.36,18.38,1.93,27.63l-6.84-22.98-3.61-2.13c7.88,26.95,3.68,55.2,7.47,83.06,1.78,13.11,5.21,28.04,9.81,40.43.63,1.7,3.54,8.6,5.47,12.6h7.08c-7.31-19.66-13.96-40.08-15.23-61.22-1.28-21.22,2.07-45.19.04-65.98Z"/>
      <path class="cls-2" d="M22.48,628.01c3.48-.29,12.97-6.01,17.66-7.34,4.3-1.22,15.02-.97,13.97-4.99-1.01-3.88-5.04-9.2-5.91-13.49-9.47,1.98-16.34,7.9-26.64,7.31-7.09-.4-14.42-5.79-21.57-8.38v18.26c8.73,3.27,17.97,9.01,22.48,8.63Z"/>
      <path class="cls-2" d="M57.18,732.97l-2.61,25.12h12.52v-15.7c-3.56-2.84-6.8-6.14-9.91-9.42Z"/>
      <path class="cls-2" d="M43.06,797.04c-2.04,2.1-5.93,3.26-6.79,6.07,12.84-3.43,23.08-12.01,30.83-22.68v-21.38l-14.11,6.35c-.29,11.65-1.38,22.85-9.93,31.64Z"/>
      <path class="cls-2" d="M12.71,299.61c-.22,1.97,2.11.8,3.18.57,3.21-.7,6.54-2.24,10.02-2.54,16.86-1.47,32.39,6.3,41.19,19.54v-20.15c-15.16-8.66-34.19-5.15-54.39,2.59Z"/>
      <path class="cls-2" d="M0,496.38v.62l.14-.6s-.1-.01-.14-.02Z"/>
      <path class="cls-2" d="M15.83,856.5c-11.86-4.53-15.25-17.74-13-29.33-.97-.51-1.91-1.06-2.83-1.63v22.94c4.1,3.79,8.37,6.79,12.64,8.59.93.39,3.45,1.33,3.19-.57Z"/>
      <path class="cls-2" d="M22.11,926.62c-3.65-3.86-1.01,9.16-.99,9.9,1,34.91,1.2,63.56,9.89,97.92,1.17,4.64,4.44,17.49,6.76,23.05h6.68c-8.95-22.1-13.58-45.92-16.04-69.64-2.12-20.42-1.25-41.26-6.3-61.23Z"/>
      <path class="cls-2" d="M38.86,778.5c.01,7.54-6.22,15.61-12.89,18.51l-15.37,2.94c13.75,4.17,28.49-5.9,30.93-19.82,2.54-14.54-7.46-26.96-18.49-35.01-7.37-5.38-15.05-9.2-23.05-11.87v8.64c18.23,8.03,38.83,19.8,38.86,36.61Z"/>
      <path class="cls-2" d="M18.98,791.57c5.78-1.52,10.7-10.51,10.52-16.18-.39-12.09-14.24-22.36-29.5-29.69v8.02c16.96,7.7,37.44,19.79,18.98,37.85Z"/>
      <path class="cls-2" d="M29.66,926.93c-.84-1.41-1.26-2.82-3.34-2.4,6.17,20.88,4.06,42.9,6.29,64.36,2.01,19.42,8.08,47.78,16.25,65.4.48,1.03.88,2.15,1.35,3.2h3.41c-10.33-22.29-14.68-47.31-16.83-71.74-1.39-15.77.62-45.82-7.13-58.82Z"/>
      <path class="cls-2" d="M1.19,28.48c6.51.88,12.44-.11,14.22-7.32C16.84,15.32,3.87,6.03,1.3,0H0v19.1l4.33,1.01c.72,3.95-.85,5.62-3.15,8.36Z"/>
      <path class="cls-2" d="M27.35,834.5l-16.74-3.13c4.7,18.65,25.08,32.56,42.91,36.62l-8.76-4.35c-1.44-2.59-5.22-3.5-4.89-6.58l2.15-4.76c-9.47-.54-15.96-8.39-14.66-17.8Z"/>
      <path class="cls-2" d="M28.41,737.68c8.42,5.69,14.59,13.66,19.37,22.5l2.61-32.44c-3.59,1.41-20.81,7.67-21.97,9.94Z"/>
      <polygon class="cls-2" points="0 376.05 0 376.08 .13 376.03 0 376.05"/>
      <path class="cls-2" d="M65.03,1029.2c.64,3.95,1.2,8.23,2.06,12.41v-12.43c-.82.11-1.54.15-2.06.02Z"/>
      <path class="cls-2" d="M8.52,1.78l9.93,15.19L31.54.24c-.71.13-1.61-.02-2.57-.24h-6.22c-.06.06-.12.12-.17.19l.58,8.41c-3.43-.98-4.71-6.44-6.57-8.07-.25-.22-.59-.39-1-.53h-5.56c-1.14.36-1.86.96-1.5,1.78Z"/>
      <path class="cls-2" d="M26.08,84.27c2.41-8.15-6.13-11.24-9.99-7.38-6.53,6.53,7.1,17.12,9.99,7.38Z"/>
      <path class="cls-2" d="M47.2,12.84c-7.04-1.88-13.51-9.5-16.7.99,5.98.18,15.94,9.65,16.7-.99Z"/>
      <path class="cls-2" d="M5.37,388.58c.27,2.07-1.66,2.69-2.06,4.73-.21,1.06-.85,6.62,1.01,6.77l2.1-15.69c-2.88.1-4.95.77-6.41,1.83v6.04c.89-2.35,2.33-4.15,5.37-3.68Z"/>
      <path class="cls-2" d="M11.65,378.12c-4.16.32-8.21.82-11.65,1.75v1.58c4.1-1.29,9.18-.17,11.65-3.33Z"/>
      <path class="cls-2" d="M65.05,993.61l2.05-.5v-.05c-1.91-4.74-1.28-10.2,0-15.21v-6.2c-3.18,6.64-3.43,15.07-2.05,21.97Z"/>
      <path class="cls-2" d="M28.42,1049.1l-2.11,8.39h5.09c-.1-.72-.21-1.44-.33-2.17-.24-1.46-.93-5.84-2.66-6.22Z"/>
      <path class="cls-2" d="M26.03,321.84c-20.76,3.52-14.22,39.32,11.47,28.21,7.5-3.25,8.41-12.68,5.59-19.61-3.09-7.61-9.13-9.94-17.06-8.6ZM35.74,348.8l-.53-3.14c-23.64,14.27-24.88-28.18-.47-20.47,8.04,2.54,9.05,19.95,1,23.61Z"/>
      <path class="cls-2" d="M37.56,512.35c-3.29-3.28-10.65,1.15-7.64,6.03,3.22,5.22,11.87-1.81,7.64-6.03Z"/>
      <path class="cls-2" d="M22.26,342.91c1.23,2.2,6.08,6.57,4.9,1.38-1.56-6.81-8.23-11.57,5.32-12.14,3.73,6.37-2.16,5.57-1.98,10.36l6.04-.22c6.26-19.13-23.75-16.37-14.27.62Z"/>
    </g>
  </g>
</svg>