<?xml version="1.0" encoding="UTF-8"?>
<svg id="Camada_2" data-name="Camada 2" xmlns="http://www.w3.org/2000/svg" viewBox="0 0 67.1 1053.83">
  <defs>
    <style>
      .cls-1 {
        fill: #b89458;
      }

      .cls-2 {
        fill: none;
      }
    </style>
  </defs>
  <g id="Camada_1-2" data-name="Camada 1">
    <g>
      <path class="cls-2" d="M42.64,486.66c-17.99-6.33-34.97,13.51-23.01,29.81,1.94.25.78-2.11.57-3.19-1.64-8.43-3.33-15.07,5.34-20.71,13.37-8.69,28.65.78,23.39,16.58,7.03-7.01,2.81-19.29-6.3-22.49Z"/>
      <path class="cls-2" d="M12.3,166.86l6.55,14.37,22.75,12.83c-4.18-15.11-15.33-22.2-29.3-27.21Z"/>
      <path class="cls-2" d="M55.21,476.72c.29,4.27,3.97,6.42,5.28,10.93.59,2.03,1.02,10.06,2.57,9.98,7.15-6.76,3.93-25.04-7.85-20.9Z"/>
      <path class="cls-1" d="M67.1,793.26v-26.83c-22.7,4.17-47.46.36-67.1-10.41v18.91c14.2,10.8,31.12,17.8,49.46,18.94,5.63.35,11.57.13,17.64-.61Z"/>
      <path class="cls-1" d="M0,564.9v44.29c9.82-7.96,21.05-14.04,33.22-17.36-9.64-25.37,11.97-31.39,33.88-30.71v-11.89c-.54,0-1.09-.02-1.63-.01-23.76.23-45.89,5.93-65.46,15.67Z"/>
      <path class="cls-1" d="M67.1,839.47v-15.61c-24.42,1.59-47.24-3.71-67.1-14.09v17.29c21.25,9.62,44.31,13.61,67.1,12.41Z"/>
      <path class="cls-1" d="M0,105.14v16.65c19.61,9.33,34.09,30.01,37.4,51.36-4.98-6.96-9.37-14.58-15.15-20.95C15.69,144.98,8.19,138.93,0,133.97v27.72c12.7,22.27,18.49,49.5,19.59,74.57,26.75,17.75,25.67,65.19-6.74,76.14-4.38,1.48-8.68,2.14-12.85,2.11v8.7c4.58.17,9.17.02,13.73-.51,10.31-1.2,20.79-5.09,31.04-6.85,7.38-25.17,7.4-46.5-2.11-71.03-3.36-8.67-9.65-16.84-9.97-25.62l10.48,10.46,1.42-8.7c-.66-2.73-13.32-8.78-15.59-11.67-1.26-1.6-6.11-17.74-4.68-17.3,7.58,5.11,14.66,10.63,20.41,17.79-2.15-29.95-8.74-69.16-24.91-94.93C14.58,106.51,7.41,104.14,0,105.14ZM18.85,181.24l-6.55-14.37c13.96,5.01,25.12,12.1,29.3,27.21l-22.75-12.83Z"/>
      <path class="cls-1" d="M8.1,249.03c10.43,8.86,16.3,26.29,7.78,38.15-4.32,6.01-10.12,8.63-15.88,8.62v3.02c16.2-.42,29.22-19.35,19.31-39-1.87-3.7-7.19-11.48-11.2-10.78Z"/>
      <path class="cls-1" d="M18.58,240.14c1.24,6.31,6.21,10.7,8.4,17.23C37.11,287.62,18.82,305.41,0,305.87v3.48c5.5.08,11.05-1.2,16.17-4.09,23.18-13.11,20.95-48.88,2.41-65.12Z"/>
      <path class="cls-1" d="M0,95.65c.96-.27,1.89-.46,2.79-.54,2.53-.23,4.61,4.03,7.4,3.71C11.33,97.66,5.3,88.47,0,81.03v14.63Z"/>
      <path class="cls-1" d="M0,176.82v111.32c8.18-.79,16.03-8.37,12.84-20.81-1.17-4.58-7.29-9.47-7.69-12.22-.43-3.02,1.79-9.65,1.94-13.35C8.05,219.2,5.16,197.96,0,176.82Z"/>
      <path class="cls-1" d="M67.1,860.79l-4.56,1.14c1.72,2.6,3.25,5.36,4.56,8.22v-9.36Z"/>
      <path class="cls-1" d="M0,394.82v4.03c.75-1.5,1.44-3.01,1.81-4.83L0,394.82Z"/>
      <path class="cls-1" d="M3.92,433.26c-1.52-1.72-2.82-3.5-3.92-5.32v12.91c3.11-1.1,5.66-2.25,7.03-3.41,2.21-1.85-1.86-2.74-3.12-4.17Z"/>
      <path class="cls-1" d="M67.1,1011.96v-49.89c-.64,5.71-2.16,11.56-4.72,17.46C50.32,1007.4,23.67,1016.46,0,1011.13v21.03c24.05,3.41,49.37-4.26,67.1-20.2Z"/>
      <path class="cls-1" d="M67.1,904.77c-17.12-15.68-41.6-23.23-66.56-20.58-.18.02-.36.05-.54.07v17.62c34.6-5.13,63.63,17.68,67.1,47.98v-45.08Z"/>
      <path class="cls-1" d="M61.49,438.44c-4.75,7.74-11.28,15.74-18.35,21.5-19.29,15.7-38.14,14.12-41.32,45.56-.54,5.32.39,11.33,0,16.75l2.43,1.42c19.53-7.3,41.28-11.05,62.85-10.56v-74.27c-1.76.1-3.57,0-5.6-.39ZM48.93,509.16c5.26-15.79-10.02-25.27-23.39-16.58-8.67,5.64-6.98,12.27-5.34,20.71.21,1.08,1.37,3.44-.57,3.19-11.96-16.31,5.02-36.14,23.01-29.81,9.11,3.2,13.33,15.48,6.3,22.49ZM63.05,497.62c-1.55.08-1.97-7.95-2.57-9.98-1.31-4.51-4.99-6.65-5.28-10.93,11.78-4.13,15,14.14,7.85,20.9Z"/>
      <path class="cls-1" d="M0,14.43c9.11,7.23,18.14,14.62,25.4,23.68L59.9,15.07l7.2,4.68V0c-12.03.05-27.87.84-30.66,2.07-3.17,1.4-13.25,10.74-15.29,10.95-2.21.22-6.07-2.25-8.13-3.38C10.44,8.23,1,.64.25.43c-.08-.02-.17-.04-.25-.05v14.06Z"/>
      <path class="cls-1" d="M60.44,283.05c1.32.19,3.82-.22,6.65-.73v-5.02c-2.87.86-4.98,1.57-5.33,1.84-.6.47-1.77,3.49-1.32,3.91Z"/>
      <path class="cls-1" d="M61.99,297.71c1.69.12,3.4,0,5.11-.04v-7.09c-3.61,1.09-6.96,2.93-7.69,5.58-.45,2.36,1.03,1.44,2.58,1.55Z"/>
      <path class="cls-1" d="M59.4,265.27l1.08,5.21c2.12-.31,4.34-.82,6.62-1.38v-3.96l-3.49.71-4.21-.58Z"/>
      <path class="cls-1" d="M67.1,258.02v-3.57c-3.64-.39-6.62-2.19-7.7-6.98l7.7,1.1v-11.22c-3.75-.35-7.5-.49-11.2-.4l-2.79,9.46,4.79,1.02c-2.01,9.25,2.67,10.56,9.21,10.58Z"/>
      <path class="cls-1" d="M67.1,312.43c-1.59-3.24-2.75-6.56-6.65-6.34l-1.05,14.65h7.71v-8.31Z"/>
      <path class="cls-1" d="M37.45,51.31l11.99,16.01,14.59-8.31c1.02.57,2.05,1.14,3.07,1.71v-21.66l-5.19-3.05-24.46,15.3Z"/>
      <path class="cls-1" d="M0,331.72v38.25c3.13.09,6.35.17,7.64-.45,1.03-.49,10.87-15.54,13.53-18.43,4.84-5.28,10.11-9.34,16.22-13.07.02-1.76-15.83-6.39-18.41-6.69-6.94-.81-13.19-.66-18.98.4Z"/>
      <path class="cls-1" d="M42.91,386.98c-.68-1.07.08-1.83-2.36-1.34v26.69c0,5.61-6.73,18.53-10.04,23.46-5.46,8.12-16.48,15.08-13.53,26.25,34.32-8.56,57.49-40.78,40.87-75.39-1.16-2.41-7.81-14.56-10.9-12.44-.54,1.96-2.33,3.35-2.23,5.57.1,2.27,5.85,13.33,6.88,18.36,2.36,11.61,1.94,27.14-4.5,37.45-.67,1.08.05,1.83-2.34,1.33-2.39-2.21,1.74-15.62,2.06-19.38.68-8.1.47-23.67-3.91-30.57Z"/>
      <path class="cls-1" d="M0,389.45c.63-.05,1.27-.1,1.88-.12l5.18-17.81c-2.36.26-4.72.55-7.06.92v17.01Z"/>
      <path class="cls-1" d="M33.26,349.53c4.65,5.14,9.28,11.25,10.44,18.32l5.9-4.1,10.66,11.09,6.84,11.32v-28.32l-1.41-7.77c-.48,3.71,1.46,10.06-2.09,12.55l-1.07-12.55-1.05,10.46c-4-2.57-.36-11.98-6.26-10.47l-1.07,7.33-1.04-5.23-5.98,1.91-2.39-1.89c7.89-3.88,14.66-5.7,22.36-5.09v-4.33c-4.99-.27-10.12.34-15.48,2.16l-15.25,5.68c8.29-8.1,19.51-11.57,30.73-11.21v-4.17c-12.45-.11-24.35,5.11-33.83,14.33Z"/>
      <path class="cls-1" d="M55.2,190.93v11.53c4.02-.25,7.98-.29,11.9-.17v-11.43c-3.98-.06-7.96-.03-11.9.07Z"/>
      <path class="cls-1" d="M67.1,1040.24c-3.13-3.24-1.2-9.75,0-13.77v-3l-14.96,8.1,8.99,22.26h5.97v-13.59Z"/>
      <path class="cls-1" d="M7.98,876.45l7.44-17.66c-5.19-.25-10.38-2.1-15.42-2.84v20.8c2.65-.24,5.32-.35,7.98-.29Z"/>
      <path class="cls-1" d="M44.63,855.22c-14.33-6.71-21.39,10.97-26.06,21.34,15.1.87,30.13,5.64,42.91,13.62,1.93-12.74-4.88-29.36-16.85-34.96Z"/>
      <path class="cls-1" d="M67.1,225.48v-10.46h-11.89l1,9.99c3.66.01,7.29.17,10.9.47Z"/>
      <path class="cls-1" d="M66.6,173.59c-1.65-9.3-1.19-19.13.5-28.63v-13.26c-5.64,1.44-23.7,3.81-24.36,6.47l10.52,36.94c2.64-.1,12.67,1.36,13.35-1.51Z"/>
      <path class="cls-1" d="M2.99,421.63c3.95,5.5,25.36,8.19,26.05-1.43-14.97-2.17-12.42-18.52,3.13-10.48,6.19-15.39-15.53-19.56-25.07-12-6.24,4.94-8.8,17.37-4.1,23.91Z"/>
      <path class="cls-1" d="M67.1,847.12c-21.63.98-42.5-2.9-64-8.98-1.05-.3-2.07-.74-3.09-1.23v3.51c.42-.23.85-.41,1.33-.46,4.15-.43,18.04,4.67,23.48,5.77,15.46,3.11,28.98,4.29,42.28,3.51v-2.12Z"/>
      <path class="cls-1" d="M21.7,849.37c-5.37.12-13.07-5.71-17.5-6.07-1.33-.11-2.84.49-4.2.7v2.8c4.59,1.53,9.29,2.7,14.14,3.32,1.62.21,7.03,1.39,7.56-.75Z"/>
      <path class="cls-1" d="M0,446.35v18.27c3.11.12,6.3-.03,9.6-.54,7.78-1.2,4.67-14.06,1.35-17.43-2.17-2.2-6.39-1.59-10.95-.3Z"/>
      <path class="cls-1" d="M30.93,379.72c-6.01,1.54-9.4-6.61-12.13-10.51-.63-.9.19-1.95-2.32-1.37l-6.29,21.98c3.91.16,7.88-.34,11.78.26,4.42.68,8.19,3.52,12.28,4.98-2.85-7.48,7.37-18.85,6.8-24.2-.36-3.38-9.41-16.79-12.57-16.58l-3.71,7.73c6.7,1.77,16.53,15.06,6.14,17.73Z"/>
      <path class="cls-1" d="M46.7,1034.77c-1.25-.79-6.99,1.36-8.8,1.96-1.09.36-1.9-.79-1.53,1.55,3.24,5,7.13,10.11,10.05,15.55h9.25l-8.97-19.07Z"/>
      <polygon class="cls-1" points="32.78 1039.79 24.85 1038.83 31.48 1053.83 41.73 1053.83 32.78 1039.79"/>
      <path class="cls-1" d="M20.15,1040.91c-2.28-2.03-7.15-1.86-6.4,2.13.65,3.47,2.01,7.11,3.13,10.79h9.87c-2.59-5.76-5.84-12.25-6.6-12.92Z"/>
      <path class="cls-1" d="M55.51,97.93c-2.03-.51-22.26,7.58-24.77,9.4-3.34,2.41.42,7.02,2.8,6.99,4.92-.06,17.36-9.93,23.48-10.53,1.86-2.08,1.21-5.18-1.5-5.87Z"/>
      <path class="cls-1" d="M7.06,69.01c-.55.63-1.28,1.01-1.1,2.03,1.77,3.76,1.7,5.86,6.25,4.17,1.76-.65,18.39-11.77,19.47-12.99,1.59-1.8,1.83-2.89,1.53-5.26-1.99-1.95-24.2,9.81-26.15,12.05Z"/>
      <path class="cls-1" d="M12.35,79.03c.17,2.63,2.11,6.54,5.18,5.77,1.74-.44,20.29-11.87,21.48-13.17,4.6-5.07-.37-5.48-5.01-3.96-7.31,2.4-14.69,8.05-21.64,11.35Z"/>
      <path class="cls-1" d="M47.61,87.53c-3.34.5-19.63,8.08-22.09,10.4-.74.7-2.07.89-1.68,2.37l4.64,3.73c3.49-1.17,6.72-3.03,9.99-4.67,1.93-.97,13.7-7.15,14.17-7.81,2.58-3.65-2.04-4.47-5.03-4.02Z"/>
      <path class="cls-1" d="M19.56,48C17.71,48.6,4.26,57.14,0,60.5v4.1c.36.61.74,1.14,1.09,1.44.8.71,1.73,1.19,2.83.81,1.54-.53,18.6-12.61,20.27-14.23,4.25-4.11-.06-6.1-4.63-4.63Z"/>
      <path class="cls-1" d="M43.29,76.86c-2.09.1-22.08,9.49-23.68,10.97-.65.6-1.21,1.07-1.08,2.06l2.3,4.6c1.3.75,3.21-.47,4.43-1.01,4.7-2.06,15.81-8.45,19.85-11.54,3.19-2.44,1.92-5.24-1.83-5.07Z"/>
      <path class="cls-1" d="M59.98,109.31c-2.29-.03-21.83,6.58-24.4,8.08-3.29,1.92,1.58,7.62,3.19,7.47l23.61-10.46c.6-2.13.28-5.06-2.4-5.1Z"/>
      <path class="cls-1" d="M3.17,29.51c-.7.29-1.82.99-3.17,1.9v9.01c2.96-2.65,5.64-5.08,7.12-5.9,2.33-4,.77-6.99-3.95-5.01Z"/>
      <polygon class="cls-1" points="12.25 1053.83 8.64 1040.9 2.86 1039.87 2.86 1053.83 12.25 1053.83"/>
      <path class="cls-1" d="M12.02,38.35c-1.38.36-7,4.07-12.02,7.84v9.19c5.39-3.83,15.25-11.32,16.13-12.34.82-.95,1.83-2.7.92-3.9-1.06-1.51-3.45-1.2-5.03-.79Z"/>
      <path class="cls-1" d="M65.01,125.91c1.41-1.07,2.08-1.49,1.7-3.52-1.68-5.48-23.05,4.9-27.18,4.73l1.07,7.24c1.4,1.2,21.97-6.59,24.41-8.46Z"/>
      <path class="cls-1" d="M41.94,329.13c.8.18.66,1.98,1.37,2.12,1.83.36,11.87-4.39,15.83-5,2.16-.33,5.32.09,7.96-.06v-3.74c-11.56-.76-23.24-.16-33.87,5.09,2.21,2.85,5.97.96,8.71,1.59Z"/>
      <path class="cls-1" d="M67.1,101.07v-11.34c-.4.28-.78.6-1.15.98-2.45,2.59-1.42,7.33,1.15,10.35Z"/>
      <path class="cls-1" d="M59.87,71.57c-6.73,6.63,1.42,13.21,7.23,11.61v-13.37c-2.26-.82-4.94-.5-7.23,1.75Z"/>
      <path class="cls-1" d="M42.63,538.46l-2.04-9.98-2.13-3.62-1.05,19.88,6.77-2.11,8.92-18.81c-10.03-.56-9.46,6.81-10.47,14.64Z"/>
      <path class="cls-1" d="M66.71,523.82c-5.85-2.28-13.42,18-12.55,18.83l10.01-2.01,2.54-16.82Z"/>
      <path class="cls-1" d="M6,538.99c0-1.07,3.47-5.08,1.58-6.8-10.84,4.94-7.39,12.12-5.64,21.85l4.06.13v-15.18Z"/>
      <path class="cls-1" d="M31.12,525.91c-12.81,2.93-6.18,12.34-7.32,21.97,6.13-.19,3.59-3.6,4.3-7.72.83-4.81,2.68-9.36,3.01-14.25Z"/>
      <path class="cls-1" d="M21.71,548.93l-2.62-19.88c-8.97,4.58-2.56,12.91-3.66,20.93l6.28-1.05Z"/>
      <path class="cls-1" d="M6,474.62c-1.94.03-3.97-.02-6-.14v2.43c.81-.03,1.61-.08,2.38-.17,1.57-.18,3.23-.21,3.62-2.12Z"/>
      <path class="cls-1" d="M15.41,444.25l9.43-15.69-13.12,11.5c-.69,1.53,2.21,5.22,3.69,4.2Z"/>
      <path class="cls-1" d="M60.74,738.62c2.92.87,3.97,5.02,6.35,6.58v-7.03c-.43-.47-.9-.93-1.39-1.38l-.03-1.51c.48-.22.95-.45,1.42-.68v-26.2c-12.16,18.68-42.29,14.75-53.97-4.86-14.82-24.89,1-56.04,27.65-63.82,9.41-2.75,18.25-3.24,26.32-1.98v-5.59c-12.98-2.17-26.9-.15-40.07,7.42C15.56,646.16,5.79,657.02,0,669.44v46.12c.62,1.11,1.27,2.21,1.99,3.29,1.95,2.9,10.29,10.91,10.84,12.24.71,1.73-1.95,10.21.51,12.53,3.05,2.87,2.56-9.59,5.73-9.47,1.34.05,8.38,2.86,8.72,3.39.53.83.35,4.59,1.16,6.69.83,2.13,5.37,7.79,4.86,2.47-.22-2.32-1.11-4.73-.6-7.27.5-.5,10.2.52,11.27,1.29,1.82,1.3,2.8,11.69,7.58,8.65l-2.11-9.93c3.53-.37,7.15-1.91,10.78-.83Z"/>
      <path class="cls-1" d="M33.21,655.72c-.13-.19-3.67-1.1-4.49-.91-3.49.8-4.88,7.5,1.36,7.18.9-1.4,4.35-4.53,3.13-6.27Z"/>
      <path class="cls-1" d="M67.1,756.5v-4.84c-24.02,5.86-48.66.65-67.1-14.21v10.2c5.94,3.59,12.74,6.4,20.44,8.25,14.8,3.55,31.33,3.92,46.65.61Z"/>
      <path class="cls-1" d="M35,671.62c12.21-7.25,25.31-2.85,32.09,6.68v-20.86c-7.01-2.91-14.82-3.9-22.42-2.32-4.48.93-11.73,6.72-14.59,6.86-5.54,8.57-11.52,12.82-10.35,24.49,1.23,12.34,10.78,21.05,23.35,19.38,16.99-2.26,14.29-23.93,2.44-21.73-5.27.98-7.72,10.12-8.79,10.38-10.84,2.57-14.69-15.18-1.72-22.89Z"/>
      <path class="cls-1" d="M0,615.73v15.29c6.24,3.11,14.58,5.27,17.52,3.75-1.75-2.41-4.74-5.92-5.23-8.89-.84-5.06.61-11.97,0-17.27l7.3,9.97c4.92,2.95,8.26,8.86,14.67,8.87.08-2.49-2.29-3.33-3.22-5.67-2.34-5.94-.96-14.59,1.14-20.48l10.97,15.7,7.85,6.27c-3.14-8.07-3.02-16.37,1.85-23.77.65-.99-.13-1.88,2.33-1.35l10.47,25.12c-.04-3.15.51-6.09,1.44-8.87v-25.06c-16.03-.37-32.3,3.43-47.14,11.77-2.95,1.66-12.89,8.62-19.96,14.63Z"/>
      <path class="cls-1" d="M67.1,815.78v-13.19c-4.94,2.99-4.52,10.32,0,13.19Z"/>
      <path class="cls-1" d="M4.96,645.25c-1.77.06-3.43-.22-4.96-.77v3.52c2.44-.02,4.33-.78,4.96-2.75Z"/>
      <path class="cls-1" d="M40.22,802.46c-5.22,1.59-5.68,12.41,1.99,13.37,12.84,1.62,11.29-17.41-1.99-13.37Z"/>
      <path class="cls-1" d="M11.96,795.13c-7.13,2.19-3.27,16.83,6.34,12.61,8.47-3.72,2.88-15.44-6.34-12.61Z"/>
      <path class="cls-1" d="M58.06,569.01c-5.83,1.22-7.21,9.9-.82,11.91,10.93,3.44,11.41-14.14.82-11.91Z"/>
      <path class="cls-1" d="M1.28,721.66c-.42-.19-.85.04-1.28.5v9.66c1.29-3.06,4.57-8.7,1.28-10.16Z"/>
      <path class="cls-1" d="M56.73,650.46c2.77-.81,2.72-9.09-2.99-7.22-3.79,1.24-.94,8.36,2.99,7.22Z"/>
      <path class="cls-1" d="M44.66,652.49c1.67-2.33-2.22-8.56-5.97-4.89-3.92,3.84,3.93,7.73,5.97,4.89Z"/>
      <path class="cls-1" d="M35.35,958.79c1.79-24.39-18.04-34-35.35-30.07v10.81c18.17-5.29,32.31,18.53,17.58,28.7-14.85,10.26-23.97-15.92-8.95-15.33,5.78.23,3.46,5.53,2.61,9.5,8.89-.69,4.77-11.22-.52-14.65-3.67-2.38-7.41-2.62-10.72-1.41v35.19c14.21,8.26,34.02-4.64,35.35-22.74Z"/>
      <path class="cls-1" d="M57.71,960.2c5.91-3.79,1.7-13.88-7.02-11.19-7.77,2.39-1.63,16.75,7.02,11.19Z"/>
      <path class="cls-1" d="M51.34,940.22c6.7-2.06,3.04-13.23-3.75-12.19-7.69,1.18-7.3,15.59,3.75,12.19Z"/>
      <path class="cls-1" d="M51.5,979.12c3.98-4.56-.02-11.35-5.98-10.26-10.77,1.96-1.06,18.34,5.98,10.26Z"/>
      <path class="cls-1" d="M37.28,993.17c3.45-5.93-1.1-10.55-7.53-8.57-8.79,2.71,1.35,19.19,7.53,8.57Z"/>
      <path class="cls-1" d="M5.24,1000.87c5.12,5.35,14.07-1.49,9.66-7.03-5.82-7.3-14.73,1.73-9.66,7.03Z"/>
      <path class="cls-1" d="M27.5,917.36c2.52-5.58-6.74-10.01-10.77-6-5.7,5.67,6.7,15,10.77,6Z"/>
      <path class="cls-1" d="M0,908.01v11.5c.05,0,.1,0,.15,0,8.19-.45,7.35-11.42-.15-11.5Z"/>
    </g>
  </g>
</svg>