<?xml version="1.0" encoding="UTF-8"?>
<svg id="Camada_1" data-name="Camada 1" xmlns="http://www.w3.org/2000/svg" viewBox="0 0 1920 1080">
  <defs>
    <style>
      .cls-1 {
        fill: #b89458;
      }

      .cls-2 {
        fill: #413253;
      }
    </style>
  </defs>
  <g>
    <path class="cls-1" d="M793.76,546.83c-5.89,9.42-8.83,19.05-8.83,28.91,0,10.74,3.9,20.52,11.7,29.35,4.27,5,9.67,8.9,16.22,11.7,6.54,2.79,13.72,4.19,21.52,4.19s14.79-1.47,20.96-4.41c12.36-6.03,18.54-15.89,18.54-29.57,0-5.15-1.73-10.59-5.19-16.33-3.46-5.74-8.64-10.89-15.56-15.45l-37.51-25.16c-14.56-9.12-21.85-20.89-21.85-35.31,0-1.47.07-2.94.22-4.41.88-11.33,5.41-20.56,13.57-27.7,8.17-7.13,19.09-10.7,32.77-10.7,8.39,0,18.54.74,30.45,2.21h13.68l-2.87,32.44h-1.99c-.15-7.65-3.09-13.79-8.83-18.43-5.74-4.63-13.32-6.95-22.73-6.95-11.48,0-19.79,3.46-24.94,10.37-2.5,3.53-3.75,7.36-3.75,11.48s1.25,7.61,3.75,10.48c2.5,2.87,6.47,6,11.92,9.38l41.27,26.92c8.39,5.44,14.93,11.84,19.64,19.2,5.59,8.68,8.39,17.58,8.39,26.7,0,5.89-1.21,12.1-3.64,18.65-2.43,6.55-6.4,12.62-11.92,18.21-5.52,5.59-12.62,10.15-21.3,13.68-8.68,3.53-18.28,5.3-28.8,5.3s-20.05-1.84-28.58-5.52c-15.74-6.62-25.75-18.17-30.01-34.65-.88-3.53-1.32-7.21-1.32-11.03,0-12.36,4.34-24.05,13.02-35.09l1.99,1.54Z"/>
    <path class="cls-1" d="M919.76,607.3c3.82,0,7.1-1.36,9.82-4.08,2.72-2.72,4.15-5.99,4.3-9.82v-122.92c-.44-5.15-2.87-8.97-7.28-11.48-2.21-1.18-4.49-1.77-6.84-1.77h-2.87v-2.21h62.01c6.47,0,12.14-.51,16.99-1.54,4.85-1.03,8.02-1.84,9.49-2.43v38.62h-2.43v-2.65c.14-6.62-1.73-11.95-5.63-16-3.9-4.04-9.16-6.21-15.78-6.51h-14.56v64.22h35.09c5.44-.14,9.93-2.02,13.46-5.63,3.53-3.6,5.3-8.05,5.3-13.35v-1.99h1.99v50.98h-1.99v-1.77c0-5.44-1.77-9.93-5.3-13.46-3.53-3.53-7.94-5.37-13.24-5.52h-35.31v62.01h43.03c10.74,0,19.75-3.09,27.03-9.27,7.28-6.18,12.69-14.93,16.22-26.26h2.21l-10.37,45.02h-128.21v-2.21h2.87Z"/>
    <path class="cls-1" d="M1240.18,640.18c15.3,0,27.66-3.02,37.07-9.05l1.54,1.77c-12.65,17.51-28.39,27.22-47.22,29.13-3.97.44-7.39.66-10.26.66s-6.18-.11-9.93-.33c-3.75-.22-9.01-1.21-15.78-2.98-6.77-1.77-12.73-3.57-17.87-5.41-5.15-1.84-11.11-4.27-17.87-7.28-6.77-3.02-12.36-5.67-16.77-7.94-4.41-2.28-9.68-5-15.78-8.16-6.11-3.17-11.44-5.85-16-8.05-4.56-2.21-8.98-4.12-13.24-5.74-12.06-4.85-24.42-7.28-37.07-7.28v-2.21h2.87c3.82,0,7.1-1.32,9.82-3.97,2.72-2.65,4.15-5.96,4.3-9.93v-122.25c-.15-3.97-1.58-7.28-4.3-9.93-2.72-2.65-6-3.97-9.82-3.97h-2.87v-2.21h67.09l-.22,2.21h-2.21c-5.59,0-9.79,2.28-12.58,6.84-1.32,2.06-1.99,4.41-1.99,7.06v127.99c0,4.85.96,8.2,2.87,10.04,1.91,1.84,4.04,3.12,6.4,3.86,55.31,18.1,95.26,27.14,119.83,27.14Z"/>
    <path class="cls-1" d="M1155.22,607.3c3.82,0,7.1-1.36,9.82-4.08,2.72-2.72,4.15-5.99,4.3-9.82v-122.92c-.44-5.15-2.87-8.97-7.28-11.48-2.21-1.18-4.49-1.77-6.84-1.77h-2.87v-2.21h62.01c6.47,0,12.14-.51,16.99-1.54,4.85-1.03,8.02-1.84,9.49-2.43v38.62h-2.43v-2.65c.14-6.62-1.73-11.95-5.63-16-3.9-4.04-9.16-6.21-15.78-6.51h-14.56v64.22h35.09c5.44-.14,9.93-2.02,13.46-5.63,3.53-3.6,5.3-8.05,5.3-13.35v-1.99h1.99v50.98h-1.99v-1.77c0-5.44-1.77-9.93-5.3-13.46-3.53-3.53-7.94-5.37-13.24-5.52h-35.31v62.01h43.03c10.74,0,19.75-3.09,27.03-9.27,7.28-6.18,12.69-14.93,16.22-26.26h2.21l-10.37,45.02h-128.21v-2.21h2.87Z"/>
    <path class="cls-1" d="M1464.61,523.22c.44,4.41.66,9.97.66,16.66s-1.32,14.86-3.97,24.5c-2.65,9.64-7.43,18.13-14.34,25.49-14.12,15.15-33.54,22.73-58.26,22.73-30.01,0-53.7-7.39-71.06-22.18-17.36-14.79-26.04-34.13-26.04-58.04s8.79-43.29,26.37-58.15c17.58-14.86,40.79-22.29,69.62-22.29,11.03,0,21.55,1.1,31.56,3.31,10,2.21,18.32,5.08,24.94,8.61l.44,37.96h-1.77c-2.5-9.41-6.7-17.29-12.58-23.61-10.59-11.33-24.86-16.99-42.81-16.99s-32.41,6.4-43.36,19.2c-10.96,12.8-16.44,29.76-16.44,50.87s5.7,38.29,17.1,51.53c11.4,13.24,27.11,20.08,47.11,20.52,21.63,0,38.84-6.91,51.64-20.74,12.8-13.83,19.2-32.58,19.2-56.27v-3.09h1.99Z"/>
    <path class="cls-1" d="M1460.19,506.45c-7.21-6.91-10.81-14.34-10.81-22.29,0-6.18,1.99-11.55,5.96-16.11,7.5-8.83,18.02-13.24,31.56-13.24h103.94c6.47-.14,12.14-.7,16.99-1.66,4.85-.95,7.94-1.73,9.27-2.32v38.4h-2.21v-2.65c0-6.62-1.99-11.99-5.96-16.11-3.97-4.12-9.34-6.25-16.11-6.4h-29.79v129.54c.29,5.3,2.72,9.27,7.28,11.92,2.06,1.18,4.34,1.77,6.84,1.77h2.87v2.21h-67.09v-2.21h2.87c3.82,0,7.1-1.32,9.82-3.97,2.72-2.65,4.15-5.81,4.3-9.49v-129.76h-43.03c-6.03,0-11.33,1.1-15.89,3.31-9.27,4.41-13.9,11.33-13.9,20.74,0,5.59,1.77,11.33,5.3,17.21l-2.21,1.1Z"/>
  </g>
  <path class="cls-2" d="M723.34,481.62l-41.34,26.66c-5.27-6.52-10.4-12.32-17.59-16.79-24.88-15.48-55.32-8.97-71.2,15.52-20.14,31.06-10.15,80.97,26.65,94.15.67.86-4.55,2.13-5.21,2.22-15.31,2.08-26.58-9.32-33.16-21.84-18.24-34.7-9.18-89.53,27.27-108.94,27.02-14.39,58.14-5.65,79.49,14.37l-5.32-6.86c-12.57-11.45-27.53-17.55-44.36-19.87-2.37-1.85-1.89-4.56.76-5.84,3.24-1.57,14.08.43,18,1.35,15.88,3.69,30.69,13.95,43.12,24.08.44.09.41-.62.29-.88-.6-1.32-5.99-6.75-7.41-8.05-19.09-17.55-47.53-25.54-72.73-18.58-57.74,15.95-77.87,90.38-49.38,139.5,19.81,34.15,47.99,31.09,78.99,13.81,13.44-7.49,24.41-17.63,31.86-31.2l41.85,28.79c-7.55,8.02-16.11,15.02-25.26,21.13l5.16-9.71c.68-2.83,3.25-5.78,2.58-8.72-27.28,34.86-70.08,56.9-113.51,36.19-71.25-33.99-71.28-154.86-5.68-195.22,43.9-27.01,99.52-6.96,131.68,28.78.75.83,4.78,5.45,4.45,5.94ZM662.69,626.14c11.17-5.06,23.41-13.85,27.94-25.57l-27.94,25.57Z"/>
  <path class="cls-2" d="M520.55,553.59c-.37,16.21,3.21,32.34,9.28,47.28-15.64,42.9-48.76,76.76-98.01,69.1-37.4-5.82-65.05-38.05-77.78-71.78l13.11-5.7c6.73,18.38,16.99,35.13,33.35,46.36.9.62,1.74,1.65,2.9,1.55-13.63-14.14-26.18-31.08-31.47-50.16l14.22-7.52c2.75,9.04,7.2,19.11,12.84,26.71,12,16.15,31.63,27.62,52.15,20.14,21.72-7.92,25.19-33.08,24.29-53.32l26.69-12.55c-5.94,22.85-16.54,54.14-35.73,69.23-4.5,3.54-15.45,6.33-12.48,13.77,4,10.04,22.36-2.5,27.11-6.87,22.05-20.26,31.11-56.77,38.33-84.8.25-.98-.61-1.74,1.2-1.45Z"/>
  <path class="cls-1" d="M729.29,461.41c-10.02-10.76-20.88-20.28-33.35-28.2-63.01-40.01-132.38-20.61-163.41,47.01-10.87,23.69-10.93,48.19-34.15,64.57-6.82,4.81-14.63,8.3-22.43,11.16l-.3-14.86c3.6-2.6,7.78-4.41,11.28-7.15,15.24-11.93,21.26-32.9,30.33-49.36,6.94-12.58,15.47-24.31,24.99-35.05,1.04-2.35-10.95-22.64-13.95-25.3,9.17-9.79,20.11-18.05,32.08-24.09-2.17,7.49-2.76,15.09-2.37,22.89l1.18,4.46c1.74-18.49,9.91-32.18,27.81-38.5,1.4-.49,3.45-1.6,4.9-1.05-8.33,6.38-12.87,16.31-16.64,25.87,22.75-15.11,49.55-16.5,76.12-14.28-2.13-2-6.49-2.82-9.39-3.39-18.03-3.52-36.64.24-53.64,6.36,6.53-10.23,17.38-17.72,29.52-19.54,19.87-2.98,47.49,4.29,65.05,13.88,23.95,13.08,36.38,40.38,46.37,64.54ZM687.07,413.83c-6.06-5.21-14.29-9.02-22-11.29-.3,1.59.34,1.03,1.19,1.45,1.73.85,3.79,1.36,5.56,2.2,5.14,2.42,10.07,5.31,15.25,7.64Z"/>
  <path class="cls-1" d="M541.37,620.2c-.56,4.77-2.06,9.41-2.8,14.15-2.56,16.38-2.84,31.41,3.88,46.92,1.7,3.93,6.78,9.86,7.69,12.53,6.39,18.64,8.31,34.25,27.88,44.67,1.53.81,3.83,2.34,5.56,2.17-9.04-8.97-17.58-19.75-20.51-32.42,7.76,4.94,15.27,10.2,23.92,13.54,15.56,6.02,30.34,6.92,46.87,6.71,1.4-.02,3.72-1.53,3.24.56-.74.01-1.54.11-2.19.47-21.8,12.31-45.39,22.15-70.3,26-8.31-3.15-15.16-9.07-21.46-15.16,2.72,6.83,9.2,11.59,14.27,16.65-3.88-.31-10.87,1.95-14.3.92-2.59-.78-9.49-7.57-11.58-9.83-19.27-20.85-27.84-49.68-29.43-77.62.28-1.4,4.65-4.11,5.96-5.34,15.28-14.36,20.54-25.4,31.05-42.71.57-.95.86-2.55,2.24-2.2Z"/>
  <path class="cls-1" d="M599.65,332.97l-16.65,3.86c-28.52,7.92-51.54,25.93-58.87,55.6,11.69-10.6,23.34-21.23,37.06-29.24,25.02-14.61,60.58-23.8,85.63-4.55l16.46,12.97c-49.38-18.09-106.34,1.2-143.34,35.96-1.64,1.55-3.6,4.23-5.35,5.95-.53.52-.85,1.37-1.48.33-.68-1.13-1.92-8.16-2.06-9.83-2.34-28.5,9.53-62.74,36.46-75.92,14.04-6.87,20.8-4.26,35.15-.44,5.74,1.53,11.31,3.61,16.99,5.31Z"/>
  <path class="cls-2" d="M524.71,319.88c.39,1.39-.35,1-.76,1.36-24.59,21.69-35.04,63.47-27.49,94.99.56,2.35,4.13,10.83,3.79,12.05l-13.25,18.32-12.24,23.73-.61-97.82c-1.38-15.47-3.21-30.78-8.32-45.5,15.47-3.51,31.24-6.59,47.18-6.92,3.69-.07,7.93,1.19,11.69-.22Z"/>
  <path class="cls-1" d="M590.98,666.93c-1.3-1.11-2.57-2.42-3.82-3.62,3.08.1,6.34,2.06,9.51,2.97,25.7,7.43,50.22,5.63,74.55-5.14,20.52-9.08,38.38-22.78,55.68-36.79-7.48,17.19-18.18,41.73-34.54,51.99-30.95,19.41-74.12,13.85-101.39-9.42Z"/>
  <path class="cls-1" d="M515.2,759.35c-14.25-1.62-29.01-2.09-42.82-6.23-1.31-.39-3.4-.74-4.06-1.88-2.92-5-2.08-21.77-1.19-27.76,2.05-13.79,9.09-26.66,19.24-36.07,2.44,26.63,10.86,51.88,28.84,71.95Z"/>
  <path class="cls-1" d="M418.86,684.43c.84.77-4.93,4.64-5.66,5.33-4.17,3.92-8.26,8.92-11.09,13.89-1.95,3.43-2.9,7.15-4.53,10.35-.29.56.15.96-1.01.74-11.24-9.03-23.82-19.17-31.48-31.56-6.75-10.9-9.03-22.33,1.14-32.05,13.99,15.55,32.06,28.36,52.63,33.29Z"/>
  <path class="cls-1" d="M464.65,686.21l-6.85,10.69c-8.07,14.88-10.63,32-8.61,48.78l-15.96-6.03c.39-4.55.42-9.33,2.29-13.58l-3.23,3.01-4.24,7.67-13.85-7.2c-.51-17.78,13.41-34.46,29.93-39.77,6.64-2.13,13.67-2.44,20.52-3.56Z"/>
  <path class="cls-1" d="M666.85,702.27c1.03.96-3.03,2.44-3.55,2.69-41.92,20.24-114.75-.63-110.03-56.21,1.06-.23,1.18.31,1.69.98,2.05,2.71,3.97,6.87,6.15,9.9,23.98,33.35,64.56,53.01,105.74,42.63Z"/>
  <path class="cls-1" d="M482.88,515.92c-.61.58-6.08,4.67-6.33,4.37,6.01-34.26,21.97-67.11,46.08-92.16,1.53,1.5,7.55,8.42,7.16,10.15-9.8,13.99-19.41,27.58-27.4,42.75-5.43,10.31-11.29,27.17-19.52,34.89Z"/>
  <path class="cls-1" d="M340.34,605.94c3.47,11.61,9.65,22.11,16.02,32.31-7.15,6.79-13.55,14.77-15.41,24.76-10.97-13.14-18.11-29.58-24.39-45.47l23.78-11.6Z"/>
  <g>
    <path d="M990.19,699.45h9.03l21.39,58.94h-8.75l-5.98-17.66h-23.31l-6.38,17.66h-8.19l22.19-58.94ZM1003.31,734.24l-8.95-26.04-9.51,26.04h18.46Z"/>
    <path d="M1026.8,699.45h7.99v51.92h29.85v7.02h-37.84v-58.94Z"/>
    <path d="M1073.24,699.45h8.07v58.94h-8.07v-58.94Z"/>
    <path d="M1093,699.45h11.44l16.93,49.84,16.81-49.84h11.32v58.94h-7.58v-34.79c0-1.2.03-3.2.08-5.98.05-2.78.08-5.76.08-8.95l-16.81,49.72h-7.9l-16.93-49.72v1.81c0,1.44.03,3.65.1,6.6.07,2.96.1,5.13.1,6.52v34.79h-7.62v-58.94Z"/>
    <path d="M1161.35,699.45h42.97v7.22h-35.19v17.9h32.54v6.82h-32.54v19.98h35.79v7.02h-43.58v-58.94Z"/>
    <path d="M1214.33,699.45h9.43l29.77,47.75v-47.75h7.58v58.94h-8.95l-30.21-47.71v47.71h-7.62v-58.94Z"/>
    <path d="M1315.5,699.45v7.02h-19.86v51.92h-8.11v-51.92h-19.86v-7.02h47.83Z"/>
    <path d="M1368.84,707.88c3.91,5.22,5.86,11.89,5.86,20.02,0,8.8-2.23,16.12-6.7,21.95-5.24,6.85-12.72,10.27-22.43,10.27-9.07,0-16.2-3-21.39-8.99-4.63-5.78-6.94-13.08-6.94-21.91,0-7.97,1.98-14.79,5.94-20.46,5.08-7.28,12.6-10.91,22.55-10.91s18.11,3.34,23.11,10.03ZM1361.8,745.42c3.14-5.04,4.71-10.84,4.71-17.39,0-6.93-1.81-12.51-5.44-16.73-3.63-4.23-8.58-6.34-14.87-6.34s-11.07,2.09-14.93,6.28c-3.85,4.19-5.78,10.36-5.78,18.52,0,6.53,1.65,12.03,4.96,16.51,3.3,4.48,8.66,6.72,16.07,6.72s12.12-2.52,15.27-7.56Z"/>
    <path d="M1388.36,739.38c.19,3.34.98,6.06,2.37,8.15,2.65,3.91,7.32,5.86,14,5.86,3,0,5.72-.43,8.19-1.28,4.76-1.66,7.14-4.63,7.14-8.91,0-3.21-1-5.5-3.01-6.86-2.03-1.34-5.22-2.5-9.55-3.49l-7.99-1.81c-5.22-1.18-8.91-2.47-11.07-3.89-3.75-2.46-5.62-6.14-5.62-11.03,0-5.3,1.83-9.64,5.5-13.04,3.66-3.4,8.85-5.1,15.57-5.1,6.18,0,11.43,1.49,15.75,4.47,4.32,2.98,6.48,7.75,6.48,14.3h-7.5c-.4-3.16-1.26-5.58-2.57-7.26-2.43-3.08-6.57-4.61-12.4-4.61-4.71,0-8.09.99-10.15,2.97-2.06,1.98-3.09,4.28-3.09,6.9,0,2.89,1.2,5,3.61,6.34,1.58.86,5.15,1.93,10.71,3.21l8.27,1.89c3.99.91,7.06,2.15,9.23,3.73,3.74,2.76,5.62,6.75,5.62,12,0,6.53-2.37,11.19-7.12,14-4.75,2.81-10.27,4.21-16.55,4.21-7.33,0-13.07-1.87-17.21-5.62-4.15-3.72-6.18-8.76-6.1-15.13h7.5Z"/>
  </g>
</svg>