<?xml version="1.0" encoding="UTF-8"?>
<svg id="Camada_1" data-name="Camada 1" xmlns="http://www.w3.org/2000/svg" viewBox="0 0 1024 768">
  <defs>
    <style>
      .cls-1 {
        fill: #b89458;
      }
    </style>
  </defs>
  <path class="cls-1" d="M292.79,3.29l430.75-.34c96.76,4.65,171.75,79.77,180.44,175.56l.05,415.03c-9.15,87.82-81.41,157.91-169.55,164.45l-448.03.05c-96.2-8.82-166.52-85.45-170.51-181.49-5.16-124.4,4-252.33,0-377.1,0-101.01,73.49-190.35,176.84-196.16ZM311.04,35.03l5.46,1.98,39.52,37.47,5.23.29c19.1-15.93,35.91-34.92,53.6-52.43l-.82-2.88c-12.59-.25-18.03.26-27.06,9.01-4.09,3.97-24.69,30.02-27.46,30.25-4.12-1.75-8.12-5.21-11.53-8.2-8.41-7.38-24.86-28.58-34.72-30.28-21.05-3.61-15.37,16.46-16.22,30.3-1.4,22.63-1.72,53.28-6.15,74.85-.98,4.76-1.27,6.16-6.34,6.66-14.93,1.48-31.15-.55-46.02-1.1-6.15-.23-25.16,1.38-29.12-1.88-1.13-.93-1.47-2.12-1.47-3.53,1.2-18.87-1.46-39.36.06-58.03.97-11.94,4.08-11.76,15.44-12.56,4.87-.34,39.76-.53,41.55.53.87.51,1.54,2.22,1.77,3.23,1.17,5.39,1.05,33.75.28,39.83-.11.85.03,1.74-.49,2.51-2.16,3.07-24.91,1.97-29.6,1.48-1.67-1.1-3.28-16.97-2.5-18.53,2.21-4.48,16.4.63,18.34-5.7.7-2.27.75-7.57-1.8-8.81-1.99-.97-16.41-.79-19.49-.48-5.49.55-9.82,1.42-10.53,7.47-.78,6.59-.68,28.05,1.25,33.79.51,1.52,1.59,4.24,2.82,5.18l49.4,2.56c.84-.05,1.46-.47,2.12-.93,4.78-3.38,3.14-27.18,3.38-33.61.41-10.88,2.51-23.08,1.09-34.01-.48-3.73-3.17-5.58-6.79-6.21-9.22-1.63-43.97-3.79-51.56-1.02-5.43,1.98-24.07,14.24-27.14,18.86-.97,1.45-1.81,2.98-2.33,4.66.42,9.62.77,19.16.81,28.82.02,5.33-.08,10.54,0,15.92.15,9.66-1.28,19.94,1.87,29.13,3.9,5.11,31.38,3.04,38.63,3.37,14.26.65,33.17,3.74,46.98,2.06,5.42-.66,23.58-13.14,24.42-18.58,2.82-18.27,2.15-41.99,3.07-60.93.09-1.93.93-3.84,1.03-5.97.19-3.86-.86-23.22,1-24.51ZM654,76.5v-15l-39.49-40.51c-2.81-1.87-6.63-2.47-9.95-1.95-7.76,1.22-24.03,20.45-30.55,26.47-11.37,10.5-31.36,31.07-43.7,38.3-4.47,2.62-5.3,1.9-9.34-1.3-10.43-8.25-24.24-23.98-34-34-5.55-5.69-22.47-26.97-28.68-28.32-3.1-.68-15.77-1.64-18.59-.99-1.24.28-2.28.96-3.21,1.78-25.46,25.25-50.22,51.25-77.47,74.61l-3.56-.54c-4.97-3.56-30.27-32.47-32.98-33.06-3.31-.72-1.5,3.24-1.48,4.47.08,4.49-.98,9.68,1.54,13.48,8.16,5.82,24.54,30.7,33.97,31.11,3.62.16,10.97-1.95,14-4.06,22.63-21.02,44.06-45.54,66.97-66.03,3-2.68,6.69-5.7,10.01-7.98,2.31,0,15.84,12.05,18.53,14.5,17.82,16.2,34.37,37.25,52.46,52.54,2.48,2.09,7.29,6.46,10.56,5.56,17.37-15.51,34.94-31.1,51.98-47.07,4.44-4.16,21.94-23.37,25.7-24.37,3.04-.81,7.29,4.26,9.31,6.33,5.4,5.55,30.71,36.97,35.62,37.41l2.35-1.38ZM574.99,21.02c-4.97-1.56-10.25-3.52-15.36-.89s-15.01,15.75-19.73,20.27c-2.19,2.1-10.09,9.54-12.4,9.53-11.32-3.62-22.57-28.11-33.05-29.88-2.36-.4-11.38-1.14-11.46,2.4l42.49,45.15c1.5-.13,2.8-.76,4.03-1.6,5.22-3.57,13.14-12.85,18.48-17.52,5.66-4.96,12.72-9.83,18.03-14.97,1.84-1.79,10.36-10.51,8.98-12.49ZM375.5,20h-32c-.63,0-2.77.96-2.52,2.47.61,3.69,15.46,17.6,18.36,17.32l17.64-17.32-1.49-2.47ZM536.5,20c-5.35-.83-12.42.6-18,0l-1.07,2.04c2.08,4.47,5.69,8.61,10.25,10.82,1.9.16,11.99-10.96,11.32-11.84-1.05.28-1.97-.93-2.5-1.01ZM661,20h-17.5c-.68,0-2.37,2.46-2.52,3.55-.98,6.96,9.91,16.89,14.52,21.43l5.5-24.98ZM695,20h-14.5c-3.75,0-11.49,22.56-12.43,26.57-4.74,20.24-6.09,72.52,24.41,72.46,2.08,0,1.83-.55,1.33-2.34-1.45-5.23-6.72-11.53-9-17.01-10.65-25.6-5.68-57.31,10.18-79.68ZM750.5,137c-5.79.49-12.13-.36-18,0l-1.01,2,17.95,13.89c59.71-3.95,103.8-90.36,33.83-117.65-22.74-8.87-53.23,3.46-59.81,27.72-8.74,32.25,31.76,46,44.42,19.42.82-1.72,1.14-6.91,3.61-6.37,16.11,16.23-5.03,34.53-22.11,35.87-19.78,1.55-39.1-14.82-41.27-34.48-2.69-24.41,11.66-39.59,28.81-54.04-4.97-8.49-19.72-.33-25.44,4.62-21.01,18.19-22.56,52.56-8.28,75.32,22.23,35.44,93.3,22.42,87.71-20.72-1.81-13.97-18.32-26.38-31.9-21.07s1.71,17.42-9.96,21.03-13.36-14.22-9.96-21.95c7.06-16.04,29.22-18.61,43.44-10.63,44.84,25.17,15.34,82.99-32.04,87.04ZM257.5,32c6.33,1,14.89-.73,21.5,0v-8c-1.43-1.42-19.78,2.73-22.28,4.22-1.28.76-2.07,1.01-1.71,2.77,1.03-.27,1.94.92,2.5,1.01ZM391,107.99l16.98.49,39.52-38.52c11.94,4.9,31.59,36.24,42.05,37.99,2.61.43,13.97.9,14.24-2.44l-55.12-54.37c-1.42.13-18.48,16.24-21.2,18.83-9.95,9.45-27.03,24.77-34.98,35.02-.77,1-1.93,1.28-1.49,3ZM661,110c-8.36-11.17-19.22-20.5-29.03-30.47-1.51-1.54-2.44-3.51-3.95-5.05-3.71-3.8-15.09-16.51-18.47-18.53-4.04-2.41-8.2,2.67-11.57,5.54-13.08,11.14-27.54,24.16-40,36-1.75,1.66-7.68,6.64-6.98,8.98.79,2.66,15.57,1.84,18.37.4,5.89-3.03,19.99-20.73,26.61-26.39,1.94-1.66,7.42-6.42,9.51-6.42,6.73,0,32.87,35.93,39,35.93h16.5ZM764.35,171.65c2.45,2.55,6.42,3.83,9.92,3.14,4.22-.84,21.23-10.52,25.65-13.38,21.55-13.92,47.25-46.12,47.17-72.92-.02-7.34-9.12-13.36-13.59-18.49-.42,40.4-18.02,71.26-54.82,88.17-5.97,2.74-22.48,4.98-14.33,13.48ZM163.18,98.83c.44.74,12.99,8.32,15.13,8.04,5.94-1.5,3.55-20.5,2.7-25.38-.25-1.43.06-2.55-1.52-3.49-1.84-.38-18.47,17.18-16.31,20.83ZM446.68,89.2c-3.04.52-12.99,11.87-14.16,14.83-1.25,3.15,0,3.68,2.93,4.02s26.43.24,27.57-.52c2.78-1.85-1.97-6.67-3.51-8.54-1.86-2.26-10.15-10.24-12.83-9.78ZM619,108.99c1.17-.83-11.42-18.03-14.5-18.03-3.92,2.11-18.43,16.2-8.97,18.01,2.07.4,22.51.7,23.47.02ZM317,97v15.5c0,2.78,4.58,7.19,7.59,7.49,3.59.36,10.16-2.54,12.28-5.63.61-3.18-14.42-20.07-19.87-17.36ZM803.42,276.42c21.31-17.33,45.97-43.64,66.11-63.39,4.53-4.44,14.7-11.55,10.48-17.51-7.44-10.52-23.83-22.72-32.52-33.5-5.64-7-3.51-8.09,1.54-14.48,3.54-4.48,21.19-21.96,21.83-25.27.71-3.68-7.98-15.51-10.36-19.24l-33.56,55.48c0,2.59,1.15,3.68,2.54,5.52,6.18,8.22,20.98,21.34,28.99,29.01,1.23,1.18,2.66,2.01,4.06,2.95l.44,1.46c-11.16,12.77-23.37,24.67-35.44,36.59s-33.08,24.49-31.31,43.21c.59,6.27,5.33.7,7.2-.82ZM182,136c-.36-3.92,1.15-9.81-1.53-12.97-3.3-3.89-18.77-8.02-23.15-12.9-2.19-.36-8.52,10.38-6.85,12.89,4.1,2.01,29.49,14.98,31.54,12.98ZM466.76,358.76c1.13-1.56,1.12-3.39,1.28-5.22,1.96-23.35-1.78-48.1,1.08-71.92,5.11-42.47,30.76-77.75,72.09-90.91,25.01-7.96,73.11-8.66,99.2-4.63,5.56.86,7.15,2.97,7.63,8.37,1.33,14.67,1.34,44.43,0,59.09-.43,4.64-1.31,8.58-6.6,9.4-25.74,3.99-61.01-9.62-75.3,22.7-5.62,12.72-5.64,54.06-4.2,68.92.36,3.73.46,4.96,4.51,5.49,20.19,2.64,46.79-2.82,66.95.05,5.76.82,6.35,3.18,7.24,8.55-4.55,21.41-3.84,47.76-8.9,68.6-1.31,5.41-3.32,8.07-9.22,8.78-16.93,2.03-38.04-2-55.04-.04-1.85.21-4.65.69-5.32,2.68l.04,184.63c.75,2.18,2.21,2.48,4.25,2.75,18.99,2.53,43.48-2.01,63.09,0,75.53,1.33,142.78-42.04,148.45-121.55.44-6.22-.28-12.77-.03-19.03,2.87-72.44,3.92-154.76.05-226.97-4.81-89.74-59.08-139.48-148.46-143.54-83.41-3.79-170.4,2.12-254.04,1.05-83.66,9.86-129.22,64.58-132.55,147.45-2.85,71.07-1.82,151.93,1.08,223,1.55,38.09,3.45,63.3,29.98,93.02,30.65,34.31,72.95,45,117.43,46.57,20.54.72,50.12,1.79,70.09,0,2.22-.2,4.36-.24,5.96-2.04l-.18-185.8c-.84-1.91-4.78-2.09-6.8-2.25-18.03-1.38-42.03,2.62-58.97-.03-5.23-.82-6.21-5.85-6.6-10.4-1.35-15.46-1.6-48.83.04-64.04.72-6.71,3.64-10.72,10.5-11.5,17.39-1.98,38.31,1.53,56.04.04,1.83-.15,3.66-.15,5.22-1.28ZM883.99,178c-.22-4.63-4.7-38.79-7.48-38.98-4.62,2.47-15.11,11.05-14.52,16.38.74,6.66,16.69,18.2,22,22.59ZM137.01,178c2.19-1.42,4.26-3.56,5.96-5.53,2.39-2.76,15.68-19.52,16.5-21.51,3.54-8.6-12.99-12.78-16.92-6.91-4.12,6.17-5.9,26.19-5.54,33.95ZM187.96,155.05c-3.72-.41-10.21-6.38-13.49-4.15l-31.54,41.52c-3.84,6.8,3.52,11.74,8.06,16.1,18.46,17.7,44.43,38.64,65.12,53.88,1.29.95,6.67,5.48,7.88,4.6,1.54-5.24,3.21-10.15-.41-15.08-19.09-15.22-39.75-28.74-58.06-44.94-5.81-5.15-9.94-7.06-5.34-15.3,6.13-10.99,20.35-22.57,27.3-33.7l.48-2.93ZM207.74,154.17c-1.71.34-3.06,1.64-4.27,2.8-5.39,5.12-14.71,18.21-19.28,24.72-3.2,4.56-9.21,11.22-8.18,16.77.46,2.45,13.93,12.44,17.09,14.94,7.11,5.64,17.68,14.38,25.16,18.84,13.15,7.83,11.72-9.25,14.98-18.5,1.73-4.9,11.46-20.14,10.63-23.03-.57-2.01-17.58-12.9-20.39-15.46l-8.47,9.23c-.14,5.04,10.34,8.56,10.84,11.16-2.01,4.36-7.25,19.36-13.22,18.2-2.23-.44-24.06-18.07-18.1-23.79l25.43-32.55c-.12-1.66-10.06-3.76-12.24-3.33ZM261.76,158.24c-1.07-1.07-15.83-2.52-18.18-2.18-6.21.9-10.5,5.61-5.06,10.93,1.24,1.22,12.92,9.04,13.84,8.86,3.72-3.06,14.13-12.88,9.4-17.61ZM809.68,170.2c-3.33,2.78-9.13,3.69-7.49,9.09,1.54,5.1,19.45,15.08,18.87,21.16-4.24,8.7-26.9,23.87-29.51,31.6-1.39,4.11-1.45,16.88,5,13.01,11.99-13.12,26.76-24.21,38.48-37.53,6.47-7.35,9.79-8.25,2-16.05-2.92-2.92-25.14-21.66-27.35-21.27ZM785.49,186.36c-2.81,1.45-7.73,3.44-7.5,7.06.1,1.54,6.88,16.2,8.16,17.94.62.85.97,1.96,2.29,1.61l13.6-13.46c0-2.91-13.23-11.9-16.54-13.14ZM134,235l13.95-10.61c.42-2.06-9.63-8.91-11.92-9.96l-2.04,1.07v19.5ZM860,468c-1.37-3.82-5.93-7.67-8.99-10.51-5.39-5.02-31.27-24.1-32.6-28.45-.9-2.94,0-4.94,2.07-7.06l65.57-65.42c2.42-3.38-.07-7.21-2.05-10.05-9.86-14.08-32.87-31.48-46.01-43.99-1.59-1.51-10.15-9.53-9.91-10.88l56.98-57.08c1.23-2.77,2.54-16.63-1.56-16.6l-73.37,71.75c-.59,2.26,2.86,6.43,4.36,8.3,6.78,8.48,18.97,17.13,27.04,24.96,9.46,9.18,18.94,18.51,27.32,28.67.35,1.78-11.19,14.05-13.34,16.37-17.73,19.15-37.56,36.52-55.56,55.43-3.25,4.6,1.99,8.16,5.03,11.07,8.85,8.46,23.2,22.45,32.54,29.46,1.27.95,5.85,4.03,6.97,4.03h15.5ZM159.74,233.17c-1.75.37-23.6,17.44-24.23,18.84-1.13,2.49-1.3,13.27,1.47,14.55,2.03.94,26.58-21.88,30.55-24.59,1.65-3.67-4.32-9.54-7.79-8.8ZM179.76,251.18c-11.13,8.45-22.61,16.78-33.24,25.84-2.76,2.35-10.94,8.56-11.5,11.5-.5,2.61-.74,12.85,1.98,14.03l54.54-42.53c1.72-2.65-8.81-10.14-11.78-8.84ZM886,272.5v-17.5c-5.18,2.8-36.03,33.93-36.04,36.5l37.03,36.5c.17-5.93,1.74-12-.76-17.73s-16.14-15.32-16.17-20.76c-.02-5.74,14.93-13.47,15.94-17ZM135,405.5v15l2.47,1.49,61.08-49.99c1.76-3.27-3.83-7.93-6.03-10.02-11.01-10.48-27.12-19.72-37.56-30.43-.86-.88-2-1.61-2-3.04-.01-4.31,55.81-43.91,62.01-51-3.19-2.58-7.42-9.74-11.91-8.01l-67.48,53.59c-2.32,3.18-1.36,7.93.83,11l38.65,31.34c3.27,4.43-1.96,8.2-5.05,11.09-4.41,4.12-34.4,26.8-35.01,28.99ZM133,567.5v15l2.39,1.41c21.39-19.11,41.65-39.73,62.09-59.94,5.2-5.15,23.94-20.41,25.98-26.02s-1.63-8.24-4.46-12.45l-48.54-45.45c-2.96-3.31-1.49-5.44,1.01-8.1,13.4-14.21,32.63-27.08,47.07-40.93,2.03-1.95,3.98-4.03,5.96-6.04l-.42-32.29c-8.97-7.89-20.07-14.38-27.09-24.19,0-5.07,24.08-16.57,26.93-21.11,1.98-3.15,1.23-9.74.65-13.43l-2.83-.82-45.74,32.55.54,4.3,43.55,37.46.83,2.84c-20.17,20.64-44.09,37.27-64.91,57.19-2.52,2.41-6.56,5.28-6.02,8.96l56.09,59.01-73.05,72.05ZM796,390.5v15l2.39,1.41c1.68-1.33,3.62-2.36,5.15-3.88,10.86-10.72,21.84-22.6,31.97-34.03,2.09-2.36,13.51-14.87,13.52-16.51-14.61-17.69-32.37-32.24-47.99-49.04-7.65-6.27-5.37,12.85-3.47,16.47,2.07,3.94,14.72,13.65,18.94,18.06,2.47,2.58,12.21,12.98,12.09,15.53l-32.61,36.98ZM224.9,326.11c-3.37-1.91-6.23,1.43-8.89,3.42l6.62,6.37c3.5.54,2.36-7.68,2.28-9.8ZM797,369c3.25-1.2,15.09-12.87,14.86-15.33-1.03-3.09-9.84-13.69-12.36-13.71l-2.5,1.54v27.5ZM135,356.5c-1.14,7.76.84,17.94,0,26l2.35,1.38c2.91-1.98,16.69-12.82,16.68-15.38-3.66-6.8-11.89-9.61-17.55-14.49-.31-.1-1.45,2.22-1.49,2.49ZM888,377l-3.54.95-48.49,48.55c0,1.64,5.5,6.58,7.02,8.01,9.35,8.87,21.95,19.99,32,28,2.03,1.62,11.08,9.41,12.91,6.37,3.98-20.12-17.49-26.35-29.37-36.91-5.68-5.05-2.82-6.38,1.95-11,5.17-5.01,22.92-18.71,25.4-23.6,1.19-2.34,3.03-19.43,2.12-20.37ZM225,405c-2.9-.19-5.82,2.66-8.01,4.49-9.42,7.84-18.82,18.68-27.88,27.16-.33,1.9,5.77,7.79,7.37,9.38,6.76,6.73,18.56,19.15,25.52,24.48,1,.77,1.27,1.94,3,1.49.18-6.28,2.37-13.94-.55-19.94-2.23-4.58-14.92-11.19-14.5-15.5.36-3.68,15.05-13.14,15.05-15.05v-16.5ZM887,437v-19.5l-2.49-1.5c-2.11,2.89-9.91,7.97-9.57,11.45.27,2.78,10.65,11,12.05,9.55ZM797,445v16.5c0,4.46,15.07,7.32,15.98-.97.2-3.12-14.42-17.29-15.98-15.53ZM156.65,464.35c-6.49-6.2-13.18-12.68-20.16-18.14-3.94.3-2.51,15.65-2,18.8,4.91,4.62,31.95,25.97,32.37,30.67l-33.34,32.34c-.75,11.94-3.2,22.1,10.01,11.01,7.66-6.43,15.73-16.57,22.95-24.05,5.04-5.23,12.27-10.49,16.52-16.47,2.53-3.55,2.58-4.39,0-8-4.75-6.65-19.61-19.72-26.34-26.15ZM887,518v-25.5c0-3.2-2.38-5.77-5.18-6.82-16.14-6.01-65.92-10.51-80.82-3.19-1.48.73-3.27,1.41-3.8,3.2-.74,18.94-1.21,37.92-2.15,56.85-.34,6.93-1.83,15.02-2.08,21.92-.12,3.23-.75,10.64,1.48,12.61l89.87,22.78,2.19-1.85v-63.01c-.9-1.83-5.11-2.63-7.12-2.87-5.73-.69-19.37-1.57-24.93-1.16-1.85.14-3.65.31-5.31,1.18-4.99,13.68,24.86,7.49,24.86,15.36v35.5c-16.35-2.26-32.91-5.63-49.01-9.49-3.94-.94-14.37-2.73-16.48-5.52-3.66-4.83-.59-19.39-.47-25.45.21-10.21.36-19.93.95-30.05.75-12.82-4.33-18.8,11.64-20.36,15.92-1.55,33.78.47,49.65,2.1,4.28,1.4,5.43,12.54-.8,13.76-10.17-.11-20.89-2.65-30.93-3.03-15.08-.57-15.37.18-16.53,15.55-.65,8.7-1.81,24.81-1.06,33.03.35,3.81.34,5.38,4.22,6.78,4.73,1.72,27.35,5.69,32.38,5.72.86,0,1.78.05,2.52-.47,6.28-16.73-16.34-10.78-25.96-14.68-1.02-1.21,1-27.32,2.15-30.14.39-.97.74-1.77,1.73-2.27l49.01-.49ZM134,506c2.98,1.34,10.57-6.05,11.48-8.02,2.95-6.4-4.85-10.59-9.09-13.9l-2.39,1.41v20.5ZM225.99,518c-.88-.64-5.96,3.59-7,4.48-18.44,15.66-38.91,36.13-57,53-4.29,4-24.98,22.74-25.77,26.22-1.11,4.87-.45,11.56,3.29,15.27l86.5-81.48c4.02-4.77.6-11.92,0-17.49ZM232.99,550c-.66-.72-7.09,4.68-8.01,5.48-22.43,19.53-56.05,48.21-74.5,70.5-6.06,7.32-7.73,9.73-.51,17.58,2.96,1.45,14.98-14.18,17.48-16.61,21.18-20.63,45.09-38.54,68.58-56.45,4.18-5.13-3.67-14.3-3.04-20.5ZM279,618.99c1.68-2.25-9.91-8.75-12.48-9.03-13.76-1.48-31.64,12.35-38.74,23.31-19.88,30.69-2.39,74.86,37.62,70.62,17.85-1.89,32.23-20.89,20.04-36.83-7.76-10.15-13.54,5.09-20.01-1.99-8.46-9.25,3.96-16.32,12.92-15.99,31.46,1.14,35.13,44.27,9.99,60.76-32.9,21.59-76.94-1.11-83.22-38.46-4.37-25.98,7.59-45.89,26.35-62.41,3.59-3.16,17.16-11.99,18.6-14.44.55-.93,1.23-1.57.8-2.81-1.43-3.89-5.7-7.86-10.14-6.55-1.64.48-15.74,11.77-18.2,13.85-74.85,63.03-5.83,162,68.52,124.52,46.36-23.37,31.52-93.73-15.44-88.44-33.77,3.81-36.4,46.77-.6,45.89,2.29,11.61-14.07,11.24-21.82,9.32-10.77-2.68-17.85-14.5-19.08-24.92-3.4-28.87,20.12-41.85,44.89-46.4ZM802,716.99c2.33,2.13,17.29-8.57,19.91-10.58,8.99-6.9,16.31-14.12,19.8-25.2,13.76-43.68-8.29-87.96-55.47-93.96-7.38-.94-21.22,1.07-20.25,10.74,25.36-1.07,47.94,8.88,59.02,32.49,12.62,26.9,5.37,51.6-12.5,73.52-1.32,1.62-12.45,11.2-10.51,12.98ZM879.96,625.97c.02-3.68,3.31-7.4,1.56-10.97-1.98-4.04-32.4-11.85-34.52-9.99,6.31,18.43,12,37.34,13.01,56.99,3.92-2.89,8.94-10.96,9.75-15.74,1.34-7.85-2.07-15.59-1.3-23.3,2.41-3.58,7.9,4.79,11.5,3.01ZM719,634c-8.13-.08-15.98,2.54-17,11.5-5.58,49.16,44.55,82.92,88.02,59.02,45.16-24.83,32.61-96.44-21.39-93.38-52.98,3-51.67,77.56-3.07,72.92,17.61-1.68,31.7-24.59,17.99-39.1-7.88-8.35-29.99-5.92-25.11,9.11l13.57.44c5.75,7.61.39,17.98-9.37,17.44-24.23-1.34-27.55-37.35-2.61-45.41,29.05-9.39,51.94,18.73,41.16,46.16-13.8,35.13-65.49,34.53-81.37.99-6.25-13.21-3.58-26.12-.82-39.68ZM180,633c-1.91-1.99-12.93,9.22-14.51,10.98-10.76,12.01-9.18,14.55-.3,27.33,4,5.76,9.54,12.75,15.31,16.69.27-7.9-3.1-15.65-3.53-23.47-.59-10.81,3.12-20.86,3.03-31.54ZM299,739.99c24.45,8.21,43.55-25.8,48.51-44.98,2.71-10.48,6.18-42.07-5.23-47.78-2.24-1.12-11.15-3.84-12.19-.58,5.89,20.37,7.83,37.88-1.23,57.71-7.47,16.35-14.84,19.33-26.38,30.62-.85.83-4.46,3.95-3.47,5.02ZM688,671.5c-.95-6.99.69-15.78,0-23l-1.66-1.34c-2.72-.88-11.24.74-12.18,3.5-1.42,4.13.14,24.26,1.28,29.39,5.17,23.28,37.05,54.54,61.06,56.94,12.13,1.21,29.28-1.57,40.47-6.51,1.59-.7,4.99-1.71,5.03-3.97-16.87-.64-30.26,2.52-46.97-3.05-20.58-6.87-44.04-29.77-47.04-51.96ZM363.01,675c.66.8,6.08-3.74,7.01-4.48,6.04-4.83,11.48-10.57,16.96-16.02-.95-1.44-1.91-1.4-3.43-1.55-3.12-.32-18.14-1.58-19.62-.52-2.76,7.31-1.95,15.04-.93,22.56ZM517,652h-24.5c-.4,0-7.44,1.04-7.85,1.15-.89.26-1.91,1.19-1.56,2.23,3.02,3.6,13.15,18.08,17.36,17.67,3.33-.32,14.04-14.12,17.09-17.09l-.54-3.96ZM660.99,678c.28-19.4.53-32.09-23.57-24.08-1.04,1.79-.41,3.04.53,4.63s22.14,20.66,23.04,19.44ZM472.35,725.65c11.42,11.07,18.77,20.22,36.72,15.92,8.81-2.11,30.81-30.07,39.91-37.08,1.15-.89,2.84-2.63,4.37-2.32,6.59,5.41,13.64,10.32,20.12,15.86,6.94,5.94,21.91,23.21,30.18,23.62,2.33.12,15-.57,15.35-2.16l-65.67-56.34c-10.36,3.53-45.32,46.08-50.88,46.89-3.56.52-7.35-2.83-9.97-5.01-22.99-19.12-43.44-47.57-66.46-66.54-6.56-5.4-11.77-8.18-19.51-2.48-7.9,5.82-42.61,37.82-46,45-3.01,6.37-4.74,15.25-7.49,22,8.47-5.17,57.07-54.11,61.49-54.1,1.15,0,2.19.27,3.06,1.06,18.93,17.83,36.16,37.63,54.79,55.7ZM662,741l-.95-3.55-98-84-23.03.06-37.46,37.53-3,1c-13.91-11.44-26.11-25.41-38.05-39.05h-19.5c-.44,1.75.72,2,1.49,3.01,8.68,11.33,35.61,37.41,46.98,47.02,5.72,4.83,8.9,8.04,16.04,2.98,12.16-8.62,25.53-29.69,37.54-37.46,8.09-5.24,15.86.35,22.42,5.48,24.8,19.39,48.17,43.34,73.03,62.97,1.36.9,6.94,4,8,4h14.5ZM708,741c-2.08-5.22-7.76-9.71-11.99-13.51-23.98-21.59-49.74-41.64-74.03-62.97-6.73-5.91-7.32-10.56-17.5-11.5-3.88-.36-8.68-.2-12.51.46-3.54,2.36,6.8,10.97,9.01,13.04,26.63,24.94,56.53,47.85,83.65,72.35.84.43,5.41,2.14,5.86,2.14h17.5ZM465,739.99c.91-.84-3.2-5.6-3.97-6.52-8.55-10.19-30.82-33-41-41-5.52-4.33-6.54-3.96-11.94.11-16.45,12.4-31.07,30.69-47.6,43.4-6.71,7.29,11.37,5.45,16.19,3.19,7.11-3.32,33.98-33.71,37.68-33.07l32.28,32.76c6.04,2.97,12.02,2.24,18.36,1.13ZM573,739.99c1.81-2.59-14.21-17.16-18.51-16.92-4.08-.05-16.5,12.98-16.54,15.43-.03,2.29,1.8,2.35,3.5,2.55,3.72.44,30.64.24,31.55-1.06ZM425,741c.23-6.26-7.69-10.32-11.48-14.72-2.59-.21-13.17,9.83-13.4,12.37l1.38,2.35h23.5Z"/>
</svg>